ISO-10303-21;
HEADER;
/* Generated by software containing ST-Developer
 * from STEP Tools, Inc. (www.steptools.com) 
 */
/* OPTION: using custom renumber hook */

FILE_DESCRIPTION(
/* description */ ('STEP AP242 Edition 2',
'CAx-IF Rec.Pracs.---Representation and Presentation of Product Manufa
cturing Information (PMI)---4.0---2014-10-13',
'CAx-IF Rec.Pracs.---3D Tessellated Geometry---0.4---2014-09-14','2;1',
'CAx-IF Rec.Pracs.---User Defined Attributes---1.5---2016-08-15'),
/* implementation_level */ '2;1');

FILE_NAME(
/* name */ '2.8- Display',
/* time_stamp */ '2026-06-22T12:38:05Z',
/* author */ (''),
/* organization */ (''),
/* preprocessor_version */ 'ST-DEVELOPER v20',
/* originating_system */ 'ONSHAPE BY PTC INC, 1.216',
/* authorisation */ '  ');

FILE_SCHEMA (('AP242_MANAGED_MODEL_BASED_3D_ENGINEERING_MIM_LF { 1 0 10303 442 3 1 4 }'));
ENDSEC;

DATA;
#10=SHAPE_REPRESENTATION_RELATIONSHIP('','',#279,#11);
#11=ADVANCED_BREP_SHAPE_REPRESENTATION('',(#277),#445);
#12=CYLINDRICAL_SURFACE('',#291,0.0015);
#13=CYLINDRICAL_SURFACE('',#294,0.0015);
#14=CYLINDRICAL_SURFACE('',#297,0.0015);
#15=CYLINDRICAL_SURFACE('',#299,0.0015);
#16=CIRCLE('',#287,0.0015);
#17=CIRCLE('',#288,0.0015);
#18=CIRCLE('',#292,0.0015);
#19=CIRCLE('',#293,0.0015);
#20=CIRCLE('',#295,0.0015);
#21=CIRCLE('',#296,0.0015);
#22=CIRCLE('',#298,0.0015);
#23=CIRCLE('',#300,0.0015);
#24=ORIENTED_EDGE('',*,*,#88,.T.);
#25=ORIENTED_EDGE('',*,*,#89,.F.);
#26=ORIENTED_EDGE('',*,*,#90,.F.);
#27=ORIENTED_EDGE('',*,*,#91,.T.);
#28=ORIENTED_EDGE('',*,*,#92,.T.);
#29=ORIENTED_EDGE('',*,*,#93,.F.);
#30=ORIENTED_EDGE('',*,*,#94,.F.);
#31=ORIENTED_EDGE('',*,*,#95,.F.);
#32=ORIENTED_EDGE('',*,*,#96,.T.);
#33=ORIENTED_EDGE('',*,*,#97,.F.);
#34=ORIENTED_EDGE('',*,*,#98,.F.);
#35=ORIENTED_EDGE('',*,*,#94,.T.);
#36=ORIENTED_EDGE('',*,*,#97,.T.);
#37=ORIENTED_EDGE('',*,*,#99,.T.);
#38=ORIENTED_EDGE('',*,*,#100,.F.);
#39=ORIENTED_EDGE('',*,*,#101,.F.);
#40=ORIENTED_EDGE('',*,*,#102,.T.);
#41=ORIENTED_EDGE('',*,*,#103,.T.);
#42=ORIENTED_EDGE('',*,*,#104,.F.);
#43=ORIENTED_EDGE('',*,*,#105,.T.);
#44=ORIENTED_EDGE('',*,*,#106,.F.);
#45=ORIENTED_EDGE('',*,*,#88,.F.);
#46=ORIENTED_EDGE('',*,*,#107,.T.);
#47=ORIENTED_EDGE('',*,*,#104,.T.);
#48=ORIENTED_EDGE('',*,*,#95,.T.);
#49=ORIENTED_EDGE('',*,*,#98,.T.);
#50=ORIENTED_EDGE('',*,*,#105,.F.);
#51=ORIENTED_EDGE('',*,*,#107,.F.);
#52=ORIENTED_EDGE('',*,*,#108,.F.);
#53=ORIENTED_EDGE('',*,*,#109,.F.);
#54=ORIENTED_EDGE('',*,*,#96,.F.);
#55=ORIENTED_EDGE('',*,*,#93,.T.);
#56=ORIENTED_EDGE('',*,*,#110,.T.);
#57=ORIENTED_EDGE('',*,*,#99,.F.);
#58=ORIENTED_EDGE('',*,*,#111,.T.);
#59=ORIENTED_EDGE('',*,*,#102,.F.);
#60=ORIENTED_EDGE('',*,*,#112,.F.);
#61=ORIENTED_EDGE('',*,*,#90,.T.);
#62=ORIENTED_EDGE('',*,*,#110,.F.);
#63=ORIENTED_EDGE('',*,*,#92,.F.);
#64=ORIENTED_EDGE('',*,*,#113,.T.);
#65=ORIENTED_EDGE('',*,*,#100,.T.);
#66=ORIENTED_EDGE('',*,*,#114,.F.);
#67=ORIENTED_EDGE('',*,*,#115,.T.);
#68=ORIENTED_EDGE('',*,*,#116,.F.);
#69=ORIENTED_EDGE('',*,*,#117,.T.);
#70=ORIENTED_EDGE('',*,*,#118,.F.);
#71=ORIENTED_EDGE('',*,*,#108,.T.);
#72=ORIENTED_EDGE('',*,*,#119,.F.);
#73=ORIENTED_EDGE('',*,*,#109,.T.);
#74=ORIENTED_EDGE('',*,*,#119,.T.);
#75=ORIENTED_EDGE('',*,*,#118,.T.);
#76=ORIENTED_EDGE('',*,*,#116,.T.);
#77=ORIENTED_EDGE('',*,*,#114,.T.);
#78=ORIENTED_EDGE('',*,*,#112,.T.);
#79=ORIENTED_EDGE('',*,*,#101,.T.);
#80=ORIENTED_EDGE('',*,*,#113,.F.);
#81=ORIENTED_EDGE('',*,*,#91,.F.);
#82=ORIENTED_EDGE('',*,*,#117,.F.);
#83=ORIENTED_EDGE('',*,*,#115,.F.);
#84=ORIENTED_EDGE('',*,*,#89,.T.);
#85=ORIENTED_EDGE('',*,*,#106,.T.);
#86=ORIENTED_EDGE('',*,*,#103,.F.);
#87=ORIENTED_EDGE('',*,*,#111,.F.);
#88=EDGE_CURVE('',#120,#121,#144,.T.);
#89=EDGE_CURVE('',#122,#121,#145,.T.);
#90=EDGE_CURVE('',#123,#122,#146,.T.);
#91=EDGE_CURVE('',#123,#124,#147,.T.);
#92=EDGE_CURVE('',#124,#125,#148,.T.);
#93=EDGE_CURVE('',#126,#125,#149,.T.);
#94=EDGE_CURVE('',#127,#126,#150,.T.);
#95=EDGE_CURVE('',#120,#127,#151,.T.);
#96=EDGE_CURVE('',#126,#128,#152,.T.);
#97=EDGE_CURVE('',#129,#128,#153,.T.);
#98=EDGE_CURVE('',#127,#129,#154,.T.);
#99=EDGE_CURVE('',#128,#130,#155,.T.);
#100=EDGE_CURVE('',#131,#130,#156,.T.);
#101=EDGE_CURVE('',#132,#131,#157,.T.);
#102=EDGE_CURVE('',#132,#133,#158,.T.);
#103=EDGE_CURVE('',#133,#134,#159,.T.);
#104=EDGE_CURVE('',#135,#134,#160,.T.);
#105=EDGE_CURVE('',#135,#129,#161,.T.);
#106=EDGE_CURVE('',#121,#134,#162,.T.);
#107=EDGE_CURVE('',#120,#135,#163,.T.);
#108=EDGE_CURVE('',#136,#136,#16,.T.);
#109=EDGE_CURVE('',#137,#137,#17,.T.);
#110=EDGE_CURVE('',#125,#130,#164,.T.);
#111=EDGE_CURVE('',#122,#133,#165,.T.);
#112=EDGE_CURVE('',#123,#132,#166,.T.);
#113=EDGE_CURVE('',#124,#131,#167,.T.);
#114=EDGE_CURVE('',#138,#138,#18,.T.);
#115=EDGE_CURVE('',#139,#139,#19,.T.);
#116=EDGE_CURVE('',#140,#140,#20,.T.);
#117=EDGE_CURVE('',#141,#141,#21,.T.);
#118=EDGE_CURVE('',#142,#142,#22,.T.);
#119=EDGE_CURVE('',#143,#143,#23,.T.);
#120=VERTEX_POINT('',#376);
#121=VERTEX_POINT('',#377);
#122=VERTEX_POINT('',#379);
#123=VERTEX_POINT('',#381);
#124=VERTEX_POINT('',#383);
#125=VERTEX_POINT('',#385);
#126=VERTEX_POINT('',#387);
#127=VERTEX_POINT('',#389);
#128=VERTEX_POINT('',#393);
#129=VERTEX_POINT('',#395);
#130=VERTEX_POINT('',#399);
#131=VERTEX_POINT('',#401);
#132=VERTEX_POINT('',#403);
#133=VERTEX_POINT('',#405);
#134=VERTEX_POINT('',#407);
#135=VERTEX_POINT('',#409);
#136=VERTEX_POINT('',#417);
#137=VERTEX_POINT('',#419);
#138=VERTEX_POINT('',#428);
#139=VERTEX_POINT('',#430);
#140=VERTEX_POINT('',#433);
#141=VERTEX_POINT('',#435);
#142=VERTEX_POINT('',#438);
#143=VERTEX_POINT('',#441);
#144=LINE('',#375,#168);
#145=LINE('',#378,#169);
#146=LINE('',#380,#170);
#147=LINE('',#382,#171);
#148=LINE('',#384,#172);
#149=LINE('',#386,#173);
#150=LINE('',#388,#174);
#151=LINE('',#390,#175);
#152=LINE('',#392,#176);
#153=LINE('',#394,#177);
#154=LINE('',#396,#178);
#155=LINE('',#398,#179);
#156=LINE('',#400,#180);
#157=LINE('',#402,#181);
#158=LINE('',#404,#182);
#159=LINE('',#406,#183);
#160=LINE('',#408,#184);
#161=LINE('',#410,#185);
#162=LINE('',#412,#186);
#163=LINE('',#413,#187);
#164=LINE('',#420,#188);
#165=LINE('',#422,#189);
#166=LINE('',#423,#190);
#167=LINE('',#425,#191);
#168=VECTOR('',#307,1.);
#169=VECTOR('',#308,1.);
#170=VECTOR('',#309,1.);
#171=VECTOR('',#310,1.);
#172=VECTOR('',#311,1.);
#173=VECTOR('',#312,1.);
#174=VECTOR('',#313,1.);
#175=VECTOR('',#314,1.);
#176=VECTOR('',#317,1.);
#177=VECTOR('',#318,1.);
#178=VECTOR('',#319,1.);
#179=VECTOR('',#322,1.);
#180=VECTOR('',#323,1.);
#181=VECTOR('',#324,1.);
#182=VECTOR('',#325,1.);
#183=VECTOR('',#326,1.);
#184=VECTOR('',#327,1.);
#185=VECTOR('',#328,1.);
#186=VECTOR('',#331,1.);
#187=VECTOR('',#332,1.);
#188=VECTOR('',#341,1.);
#189=VECTOR('',#344,1.);
#190=VECTOR('',#345,1.);
#191=VECTOR('',#348,1.);
#192=EDGE_LOOP('',(#24,#25,#26,#27,#28,#29,#30,#31));
#193=EDGE_LOOP('',(#32,#33,#34,#35));
#194=EDGE_LOOP('',(#36,#37,#38,#39,#40,#41,#42,#43));
#195=EDGE_LOOP('',(#44,#45,#46,#47));
#196=EDGE_LOOP('',(#48,#49,#50,#51));
#197=EDGE_LOOP('',(#52));
#198=EDGE_LOOP('',(#53));
#199=EDGE_LOOP('',(#54,#55,#56,#57));
#200=EDGE_LOOP('',(#58,#59,#60,#61));
#201=EDGE_LOOP('',(#62,#63,#64,#65));
#202=EDGE_LOOP('',(#66));
#203=EDGE_LOOP('',(#67));
#204=EDGE_LOOP('',(#68));
#205=EDGE_LOOP('',(#69));
#206=EDGE_LOOP('',(#70));
#207=EDGE_LOOP('',(#71));
#208=EDGE_LOOP('',(#72));
#209=EDGE_LOOP('',(#73));
#210=EDGE_LOOP('',(#74));
#211=EDGE_LOOP('',(#75));
#212=EDGE_LOOP('',(#76));
#213=EDGE_LOOP('',(#77));
#214=EDGE_LOOP('',(#78,#79,#80,#81));
#215=EDGE_LOOP('',(#82));
#216=EDGE_LOOP('',(#83));
#217=EDGE_LOOP('',(#84,#85,#86,#87));
#218=FACE_BOUND('',#192,.T.);
#219=FACE_BOUND('',#193,.T.);
#220=FACE_BOUND('',#194,.T.);
#221=FACE_BOUND('',#195,.T.);
#222=FACE_BOUND('',#196,.T.);
#223=FACE_BOUND('',#197,.T.);
#224=FACE_BOUND('',#198,.T.);
#225=FACE_BOUND('',#199,.T.);
#226=FACE_BOUND('',#200,.T.);
#227=FACE_BOUND('',#201,.T.);
#228=FACE_BOUND('',#202,.T.);
#229=FACE_BOUND('',#203,.T.);
#230=FACE_BOUND('',#204,.T.);
#231=FACE_BOUND('',#205,.T.);
#232=FACE_BOUND('',#206,.T.);
#233=FACE_BOUND('',#207,.T.);
#234=FACE_BOUND('',#208,.T.);
#235=FACE_BOUND('',#209,.T.);
#236=FACE_BOUND('',#210,.T.);
#237=FACE_BOUND('',#211,.T.);
#238=FACE_BOUND('',#212,.T.);
#239=FACE_BOUND('',#213,.T.);
#240=FACE_BOUND('',#214,.T.);
#241=FACE_BOUND('',#215,.T.);
#242=FACE_BOUND('',#216,.T.);
#243=FACE_BOUND('',#217,.T.);
#244=PLANE('',#281);
#245=PLANE('',#282);
#246=PLANE('',#283);
#247=PLANE('',#284);
#248=PLANE('',#285);
#249=PLANE('',#286);
#250=PLANE('',#289);
#251=PLANE('',#290);
#252=PLANE('',#301);
#253=PLANE('',#302);
#254=ADVANCED_FACE('',(#218),#244,.F.);
#255=ADVANCED_FACE('',(#219),#245,.F.);
#256=ADVANCED_FACE('',(#220),#246,.T.);
#257=ADVANCED_FACE('',(#221),#247,.T.);
#258=ADVANCED_FACE('',(#222),#248,.T.);
#259=ADVANCED_FACE('',(#223,#224,#225),#249,.T.);
#260=ADVANCED_FACE('',(#226),#250,.F.);
#261=ADVANCED_FACE('',(#227),#251,.T.);
#262=ADVANCED_FACE('',(#228,#229),#12,.F.);
#263=ADVANCED_FACE('',(#230,#231),#13,.F.);
#264=ADVANCED_FACE('',(#232,#233),#14,.F.);
#265=ADVANCED_FACE('',(#234,#235),#15,.F.);
#266=ADVANCED_FACE('',(#236,#237,#238,#239,#240),#252,.F.);
#267=ADVANCED_FACE('',(#241,#242,#243),#253,.T.);
#268=CLOSED_SHELL('',(#254,#255,#256,#257,#258,#259,#260,#261,#262,#263,
#264,#265,#266,#267));
#269=STYLED_ITEM('',(#270),#277);
#270=PRESENTATION_STYLE_ASSIGNMENT((#271));
#271=SURFACE_STYLE_USAGE(.BOTH.,#272);
#272=SURFACE_SIDE_STYLE('',(#273));
#273=SURFACE_STYLE_FILL_AREA(#274);
#274=FILL_AREA_STYLE('',(#275));
#275=FILL_AREA_STYLE_COLOUR('',#276);
#276=COLOUR_RGB('',0.615686274509804,0.811764705882353,0.929411764705882);
#277=MANIFOLD_SOLID_BREP('Part 1',#268);
#278=SHAPE_DEFINITION_REPRESENTATION(#450,#279);
#279=SHAPE_REPRESENTATION('Part 1',(#280),#445);
#280=AXIS2_PLACEMENT_3D('',#373,#303,#304);
#281=AXIS2_PLACEMENT_3D('',#374,#305,#306);
#282=AXIS2_PLACEMENT_3D('',#391,#315,#316);
#283=AXIS2_PLACEMENT_3D('',#397,#320,#321);
#284=AXIS2_PLACEMENT_3D('',#411,#329,#330);
#285=AXIS2_PLACEMENT_3D('',#414,#333,#334);
#286=AXIS2_PLACEMENT_3D('',#415,#335,#336);
#287=AXIS2_PLACEMENT_3D('',#416,#337,#338);
#288=AXIS2_PLACEMENT_3D('',#418,#339,#340);
#289=AXIS2_PLACEMENT_3D('',#421,#342,#343);
#290=AXIS2_PLACEMENT_3D('',#424,#346,#347);
#291=AXIS2_PLACEMENT_3D('',#426,#349,#350);
#292=AXIS2_PLACEMENT_3D('',#427,#351,#352);
#293=AXIS2_PLACEMENT_3D('',#429,#353,#354);
#294=AXIS2_PLACEMENT_3D('',#431,#355,#356);
#295=AXIS2_PLACEMENT_3D('',#432,#357,#358);
#296=AXIS2_PLACEMENT_3D('',#434,#359,#360);
#297=AXIS2_PLACEMENT_3D('',#436,#361,#362);
#298=AXIS2_PLACEMENT_3D('',#437,#363,#364);
#299=AXIS2_PLACEMENT_3D('',#439,#365,#366);
#300=AXIS2_PLACEMENT_3D('',#440,#367,#368);
#301=AXIS2_PLACEMENT_3D('',#442,#369,#370);
#302=AXIS2_PLACEMENT_3D('',#443,#371,#372);
#303=DIRECTION('',(0.,0.,1.));
#304=DIRECTION('',(1.,0.,0.));
#305=DIRECTION('',(0.,-1.,0.));
#306=DIRECTION('',(0.,0.,-1.));
#307=DIRECTION('',(0.,0.,-1.));
#308=DIRECTION('',(-1.,0.,0.));
#309=DIRECTION('',(0.,0.,1.));
#310=DIRECTION('',(-1.,0.,0.));
#311=DIRECTION('',(0.,0.,1.));
#312=DIRECTION('',(-1.,0.,0.));
#313=DIRECTION('',(0.,0.,-1.));
#314=DIRECTION('',(-1.,0.,0.));
#315=DIRECTION('',(1.,0.,0.));
#316=DIRECTION('',(0.,0.,-1.));
#317=DIRECTION('',(0.,-1.,0.));
#318=DIRECTION('',(0.,0.,-1.));
#319=DIRECTION('',(0.,-1.,0.));
#320=DIRECTION('',(0.,-1.,0.));
#321=DIRECTION('',(0.,0.,-1.));
#322=DIRECTION('',(-1.,0.,0.));
#323=DIRECTION('',(0.,0.,1.));
#324=DIRECTION('',(-1.,0.,0.));
#325=DIRECTION('',(0.,0.,1.));
#326=DIRECTION('',(-1.,0.,0.));
#327=DIRECTION('',(0.,0.,-1.));
#328=DIRECTION('',(-1.,0.,0.));
#329=DIRECTION('',(1.,2.77555756156289E-16,0.));
#330=DIRECTION('',(-2.77555756156289E-16,1.,0.));
#331=DIRECTION('',(2.77555756156289E-16,-1.,0.));
#332=DIRECTION('',(2.77555756156289E-16,-1.,0.));
#333=DIRECTION('',(0.,0.,1.));
#334=DIRECTION('',(1.,0.,0.));
#335=DIRECTION('',(0.,0.,1.));
#336=DIRECTION('',(1.,0.,0.));
#337=DIRECTION('',(0.,0.,1.));
#338=DIRECTION('',(1.,0.,0.));
#339=DIRECTION('',(0.,0.,1.));
#340=DIRECTION('',(1.,0.,0.));
#341=DIRECTION('',(2.77555756156289E-16,-1.,0.));
#342=DIRECTION('',(-1.,-2.77555756156289E-16,0.));
#343=DIRECTION('',(2.77555756156289E-16,-1.,0.));
#344=DIRECTION('',(2.77555756156289E-16,-1.,0.));
#345=DIRECTION('',(2.77555756156289E-16,-1.,0.));
#346=DIRECTION('',(-1.,-2.77555756156289E-16,0.));
#347=DIRECTION('',(2.77555756156289E-16,-1.,0.));
#348=DIRECTION('',(2.77555756156289E-16,-1.,0.));
#349=DIRECTION('',(0.,0.,1.));
#350=DIRECTION('',(1.,0.,0.));
#351=DIRECTION('',(0.,0.,1.));
#352=DIRECTION('',(1.,0.,0.));
#353=DIRECTION('',(0.,0.,1.));
#354=DIRECTION('',(1.,0.,0.));
#355=DIRECTION('',(0.,0.,1.));
#356=DIRECTION('',(1.,0.,0.));
#357=DIRECTION('',(0.,0.,1.));
#358=DIRECTION('',(1.,0.,0.));
#359=DIRECTION('',(0.,0.,1.));
#360=DIRECTION('',(1.,0.,0.));
#361=DIRECTION('',(0.,0.,1.));
#362=DIRECTION('',(1.,0.,0.));
#363=DIRECTION('',(0.,0.,1.));
#364=DIRECTION('',(1.,0.,0.));
#365=DIRECTION('',(0.,0.,1.));
#366=DIRECTION('',(1.,0.,0.));
#367=DIRECTION('',(0.,0.,1.));
#368=DIRECTION('',(1.,0.,0.));
#369=DIRECTION('',(0.,0.,1.));
#370=DIRECTION('',(1.,0.,0.));
#371=DIRECTION('',(0.,0.,1.));
#372=DIRECTION('',(1.,0.,0.));
#373=CARTESIAN_POINT('',(0.,0.,0.));
#374=CARTESIAN_POINT('',(0.,0.025,0.0044));
#375=CARTESIAN_POINT('',(0.033,0.025,0.0044));
#376=CARTESIAN_POINT('',(0.033,0.025,0.0044));
#377=CARTESIAN_POINT('',(0.033,0.025,0.));
#378=CARTESIAN_POINT('',(0.,0.025,0.));
#379=CARTESIAN_POINT('',(0.043,0.025,0.));
#380=CARTESIAN_POINT('',(0.043,0.025,-0.001));
#381=CARTESIAN_POINT('',(0.043,0.025,-0.001));
#382=CARTESIAN_POINT('',(0.,0.025,-0.001));
#383=CARTESIAN_POINT('',(-0.043,0.025,-0.001));
#384=CARTESIAN_POINT('',(-0.043,0.025,-0.001));
#385=CARTESIAN_POINT('',(-0.043,0.025,0.));
#386=CARTESIAN_POINT('',(0.,0.025,0.));
#387=CARTESIAN_POINT('',(-0.033,0.025,0.));
#388=CARTESIAN_POINT('',(-0.033,0.025,0.0044));
#389=CARTESIAN_POINT('',(-0.033,0.025,0.0044));
#390=CARTESIAN_POINT('',(0.,0.025,0.0044));
#391=CARTESIAN_POINT('',(-0.033,3.46944695195361E-18,0.0044));
#392=CARTESIAN_POINT('',(-0.033,3.46944695195361E-18,0.));
#393=CARTESIAN_POINT('',(-0.033,-0.025,0.));
#394=CARTESIAN_POINT('',(-0.033,-0.025,0.0044));
#395=CARTESIAN_POINT('',(-0.033,-0.025,0.0044));
#396=CARTESIAN_POINT('',(-0.033,3.46944695195361E-18,0.0044));
#397=CARTESIAN_POINT('',(6.93889390390723E-18,-0.025,0.0044));
#398=CARTESIAN_POINT('',(6.93889390390723E-18,-0.025,0.));
#399=CARTESIAN_POINT('',(-0.043,-0.025,0.));
#400=CARTESIAN_POINT('',(-0.043,-0.025,-0.001));
#401=CARTESIAN_POINT('',(-0.043,-0.025,-0.001));
#402=CARTESIAN_POINT('',(6.93889390390723E-18,-0.025,-0.001));
#403=CARTESIAN_POINT('',(0.043,-0.025,-0.001));
#404=CARTESIAN_POINT('',(0.043,-0.025,-0.001));
#405=CARTESIAN_POINT('',(0.043,-0.025,0.));
#406=CARTESIAN_POINT('',(6.93889390390723E-18,-0.025,0.));
#407=CARTESIAN_POINT('',(0.033,-0.025,0.));
#408=CARTESIAN_POINT('',(0.033,-0.025,0.0044));
#409=CARTESIAN_POINT('',(0.033,-0.025,0.0044));
#410=CARTESIAN_POINT('',(6.93889390390723E-18,-0.025,0.0044));
#411=CARTESIAN_POINT('',(0.033,3.46944695195361E-18,0.0044));
#412=CARTESIAN_POINT('',(0.033,3.46944695195361E-18,0.));
#413=CARTESIAN_POINT('',(0.033,3.46944695195361E-18,0.0044));
#414=CARTESIAN_POINT('',(0.,3.46944695195361E-18,0.0044));
#415=CARTESIAN_POINT('',(0.,3.46944695195361E-18,0.));
#416=CARTESIAN_POINT('',(-0.0385,-0.0205,0.));
#417=CARTESIAN_POINT('',(-0.037,-0.0205,0.));
#418=CARTESIAN_POINT('',(-0.0385,0.0205,0.));
#419=CARTESIAN_POINT('',(-0.037,0.0205,0.));
#420=CARTESIAN_POINT('',(-0.043,3.46944695195361E-18,0.));
#421=CARTESIAN_POINT('',(0.043,3.46944695195361E-18,-0.001));
#422=CARTESIAN_POINT('',(0.043,3.46944695195361E-18,0.));
#423=CARTESIAN_POINT('',(0.043,3.46944695195361E-18,-0.001));
#424=CARTESIAN_POINT('',(-0.043,3.46944695195361E-18,-0.001));
#425=CARTESIAN_POINT('',(-0.043,3.46944695195361E-18,-0.001));
#426=CARTESIAN_POINT('',(0.0385,-0.0205,-0.001));
#427=CARTESIAN_POINT('',(0.0385,-0.0205,-0.001));
#428=CARTESIAN_POINT('',(0.04,-0.0205,-0.001));
#429=CARTESIAN_POINT('',(0.0385,-0.0205,0.));
#430=CARTESIAN_POINT('',(0.04,-0.0205,0.));
#431=CARTESIAN_POINT('',(0.0385,0.0205,-0.001));
#432=CARTESIAN_POINT('',(0.0385,0.0205,-0.001));
#433=CARTESIAN_POINT('',(0.04,0.0205,-0.001));
#434=CARTESIAN_POINT('',(0.0385,0.0205,0.));
#435=CARTESIAN_POINT('',(0.04,0.0205,0.));
#436=CARTESIAN_POINT('',(-0.0385,-0.0205,-0.001));
#437=CARTESIAN_POINT('',(-0.0385,-0.0205,-0.001));
#438=CARTESIAN_POINT('',(-0.037,-0.0205,-0.001));
#439=CARTESIAN_POINT('',(-0.0385,0.0205,-0.001));
#440=CARTESIAN_POINT('',(-0.0385,0.0205,-0.001));
#441=CARTESIAN_POINT('',(-0.037,0.0205,-0.001));
#442=CARTESIAN_POINT('',(0.,3.46944695195361E-18,-0.001));
#443=CARTESIAN_POINT('',(0.,3.46944695195361E-18,0.));
#444=MECHANICAL_DESIGN_GEOMETRIC_PRESENTATION_REPRESENTATION('',(#269),
#445);
#445=(
GEOMETRIC_REPRESENTATION_CONTEXT(3)
GLOBAL_UNCERTAINTY_ASSIGNED_CONTEXT((#446))
GLOBAL_UNIT_ASSIGNED_CONTEXT((#449,#448,#447))
REPRESENTATION_CONTEXT('Part 1','TOP_LEVEL_ASSEMBLY_PART')
);
#446=UNCERTAINTY_MEASURE_WITH_UNIT(LENGTH_MEASURE(1.E-8),#449,
'DISTANCE_ACCURACY_VALUE','Maximum Tolerance applied to model');
#447=(
NAMED_UNIT(*)
SI_UNIT($,.STERADIAN.)
SOLID_ANGLE_UNIT()
);
#448=(
NAMED_UNIT(*)
PLANE_ANGLE_UNIT()
SI_UNIT($,.RADIAN.)
);
#449=(
LENGTH_UNIT()
NAMED_UNIT(*)
SI_UNIT($,.METRE.)
);
#450=PRODUCT_DEFINITION_SHAPE('','',#451);
#451=PRODUCT_DEFINITION('','',#453,#452);
#452=PRODUCT_DEFINITION_CONTEXT('',#459,'design');
#453=PRODUCT_DEFINITION_FORMATION_WITH_SPECIFIED_SOURCE('','',#455,
 .NOT_KNOWN.);
#454=PRODUCT_RELATED_PRODUCT_CATEGORY('','',(#455));
#455=PRODUCT('Part 1','Part 1','Part 1',(#457));
#456=PRODUCT_CATEGORY('','');
#457=PRODUCT_CONTEXT('',#459,'mechanical');
#458=APPLICATION_PROTOCOL_DEFINITION('international standard',
'ap242_managed_model_based_3d_engineering',2020,#459);
#459=APPLICATION_CONTEXT('managed model based 3d engineering');
ENDSEC;
END-ISO-10303-21;
