ISO-10303-21;
HEADER;
/* Generated by software containing ST-Developer
 * from STEP Tools, Inc. (www.steptools.com) 
 */
/* OPTION: using custom renumber hook */

FILE_DESCRIPTION(
/* description */ ('STEP AP242 Edition 2',
'CAx-IF Rec.Pracs.---Representation and Presentation of Product Manufa
cturing Information (PMI)---4.0---2014-10-13',
'CAx-IF Rec.Pracs.---3D Tessellated Geometry---0.4---2014-09-14','2;1',
'CAx-IF Rec.Pracs.---User Defined Attributes---1.5---2016-08-15'),
/* implementation_level */ '2;1');

FILE_NAME(
/* name */ 'KP08 - 8mm Pillow Block (KP08)',
/* time_stamp */ '2026-06-22T13:23:14Z',
/* author */ (''),
/* organization */ (''),
/* preprocessor_version */ 'ST-DEVELOPER v20',
/* originating_system */ 'ONSHAPE BY PTC INC, 1.216',
/* authorisation */ '  ');

FILE_SCHEMA (('AP242_MANAGED_MODEL_BASED_3D_ENGINEERING_MIM_LF { 1 0 10303 442 3 1 4 }'));
ENDSEC;

DATA;
#10=SHAPE_REPRESENTATION_RELATIONSHIP('','',#985,#11);
#11=ADVANCED_BREP_SHAPE_REPRESENTATION('',(#983),#1655);
#12=DEGENERATE_TOROIDAL_SURFACE('',#1025,0.003875,0.010625,.T.);
#13=B_SPLINE_CURVE_WITH_KNOTS('',3,(#1414,#1415,#1416,#1417),
 .UNSPECIFIED.,.F.,.F.,(4,4),(0.012572278048957,0.0172062112725584),
 .UNSPECIFIED.);
#14=B_SPLINE_CURVE_WITH_KNOTS('',3,(#1422,#1423,#1424,#1425,#1426),
 .UNSPECIFIED.,.F.,.F.,(4,1,4),(0.0172062112725584,0.0195202214600528,0.0218342316475472),
 .UNSPECIFIED.);
#15=B_SPLINE_CURVE_WITH_KNOTS('',3,(#1532,#1533,#1534,#1535,#1536),
 .UNSPECIFIED.,.F.,.F.,(4,1,4),(0.0172062112725584,0.0195202214600528,0.0218342316475472),
 .UNSPECIFIED.);
#16=B_SPLINE_CURVE_WITH_KNOTS('',3,(#1540,#1541,#1542,#1543),
 .UNSPECIFIED.,.F.,.F.,(4,4),(0.012572278048957,0.0172062112725584),
 .UNSPECIFIED.);
#17=ELLIPSE('',#995,0.0147072456882528,0.0145);
#18=ELLIPSE('',#997,0.0147072456882528,0.0145);
#19=ELLIPSE('',#1008,0.0147072456882528,0.0145);
#20=ELLIPSE('',#1010,0.0147072456882528,0.0145);
#21=ELLIPSE('',#1013,0.01267866007608,0.0125);
#22=ELLIPSE('',#1015,0.01267866007608,0.0125);
#23=ELLIPSE('',#1038,0.01267866007608,0.0125);
#24=ELLIPSE('',#1039,0.01267866007608,0.0125);
#25=LINE('',#1381,#111);
#26=LINE('',#1389,#112);
#27=LINE('',#1393,#113);
#28=LINE('',#1395,#114);
#29=LINE('',#1397,#115);
#30=LINE('',#1399,#116);
#31=LINE('',#1401,#117);
#32=LINE('',#1403,#118);
#33=LINE('',#1405,#119);
#34=LINE('',#1407,#120);
#35=LINE('',#1409,#121);
#36=LINE('',#1412,#122);
#37=LINE('',#1419,#123);
#38=LINE('',#1428,#124);
#39=LINE('',#1430,#125);
#40=LINE('',#1432,#126);
#41=LINE('',#1434,#127);
#42=LINE('',#1436,#128);
#43=LINE('',#1438,#129);
#44=LINE('',#1440,#130);
#45=LINE('',#1442,#131);
#46=LINE('',#1444,#132);
#47=LINE('',#1446,#133);
#48=LINE('',#1453,#134);
#49=LINE('',#1470,#135);
#50=LINE('',#1472,#136);
#51=LINE('',#1474,#137);
#52=LINE('',#1476,#138);
#53=LINE('',#1478,#139);
#54=LINE('',#1480,#140);
#55=LINE('',#1482,#141);
#56=LINE('',#1484,#142);
#57=LINE('',#1486,#143);
#58=LINE('',#1487,#144);
#59=LINE('',#1489,#145);
#60=LINE('',#1491,#146);
#61=LINE('',#1493,#147);
#62=LINE('',#1495,#148);
#63=LINE('',#1496,#149);
#64=LINE('',#1498,#150);
#65=LINE('',#1499,#151);
#66=LINE('',#1501,#152);
#67=LINE('',#1503,#153);
#68=LINE('',#1505,#154);
#69=LINE('',#1507,#155);
#70=LINE('',#1509,#156);
#71=LINE('',#1510,#157);
#72=LINE('',#1512,#158);
#73=LINE('',#1514,#159);
#74=LINE('',#1516,#160);
#75=LINE('',#1520,#161);
#76=LINE('',#1522,#162);
#77=LINE('',#1523,#163);
#78=LINE('',#1525,#164);
#79=LINE('',#1527,#165);
#80=LINE('',#1529,#166);
#81=LINE('',#1547,#167);
#82=LINE('',#1548,#168);
#83=LINE('',#1552,#169);
#84=LINE('',#1556,#170);
#85=LINE('',#1560,#171);
#86=LINE('',#1562,#172);
#87=LINE('',#1567,#173);
#88=LINE('',#1570,#174);
#89=LINE('',#1571,#175);
#90=LINE('',#1573,#176);
#91=LINE('',#1576,#177);
#92=LINE('',#1577,#178);
#93=LINE('',#1579,#179);
#94=LINE('',#1580,#180);
#95=LINE('',#1589,#181);
#96=LINE('',#1590,#182);
#97=LINE('',#1592,#183);
#98=LINE('',#1594,#184);
#99=LINE('',#1596,#185);
#100=LINE('',#1599,#186);
#101=LINE('',#1601,#187);
#102=LINE('',#1603,#188);
#103=LINE('',#1605,#189);
#104=LINE('',#1607,#190);
#105=LINE('',#1609,#191);
#106=LINE('',#1615,#192);
#107=LINE('',#1617,#193);
#108=LINE('',#1618,#194);
#109=LINE('',#1619,#195);
#110=LINE('',#1620,#196);
#111=VECTOR('',#1102,1.);
#112=VECTOR('',#1109,1.);
#113=VECTOR('',#1114,1.);
#114=VECTOR('',#1115,1.);
#115=VECTOR('',#1116,1.);
#116=VECTOR('',#1117,1.);
#117=VECTOR('',#1120,1.);
#118=VECTOR('',#1121,1.);
#119=VECTOR('',#1122,1.);
#120=VECTOR('',#1123,1.);
#121=VECTOR('',#1126,1.);
#122=VECTOR('',#1127,1.);
#123=VECTOR('',#1130,1.);
#124=VECTOR('',#1131,1.);
#125=VECTOR('',#1134,1.);
#126=VECTOR('',#1135,1.);
#127=VECTOR('',#1136,1.);
#128=VECTOR('',#1137,1.);
#129=VECTOR('',#1140,1.);
#130=VECTOR('',#1141,1.);
#131=VECTOR('',#1142,1.);
#132=VECTOR('',#1143,1.);
#133=VECTOR('',#1146,1.);
#134=VECTOR('',#1151,1.);
#135=VECTOR('',#1170,1.);
#136=VECTOR('',#1171,1.);
#137=VECTOR('',#1172,1.);
#138=VECTOR('',#1173,1.);
#139=VECTOR('',#1176,1.);
#140=VECTOR('',#1177,1.);
#141=VECTOR('',#1178,1.);
#142=VECTOR('',#1179,1.);
#143=VECTOR('',#1182,1.);
#144=VECTOR('',#1183,1.);
#145=VECTOR('',#1184,1.);
#146=VECTOR('',#1185,1.);
#147=VECTOR('',#1186,1.);
#148=VECTOR('',#1189,1.);
#149=VECTOR('',#1190,1.);
#150=VECTOR('',#1193,1.);
#151=VECTOR('',#1194,1.);
#152=VECTOR('',#1195,1.);
#153=VECTOR('',#1196,1.);
#154=VECTOR('',#1197,1.);
#155=VECTOR('',#1200,1.);
#156=VECTOR('',#1201,1.);
#157=VECTOR('',#1202,1.);
#158=VECTOR('',#1203,1.);
#159=VECTOR('',#1204,1.);
#160=VECTOR('',#1207,1.);
#161=VECTOR('',#1210,1.);
#162=VECTOR('',#1213,1.);
#163=VECTOR('',#1214,1.);
#164=VECTOR('',#1215,1.);
#165=VECTOR('',#1216,1.);
#166=VECTOR('',#1217,1.);
#167=VECTOR('',#1228,1.);
#168=VECTOR('',#1229,1.);
#169=VECTOR('',#1234,1.);
#170=VECTOR('',#1237,1.);
#171=VECTOR('',#1244,1.);
#172=VECTOR('',#1247,1.);
#173=VECTOR('',#1256,1.);
#174=VECTOR('',#1257,1.);
#175=VECTOR('',#1258,1.);
#176=VECTOR('',#1261,1.);
#177=VECTOR('',#1262,1.);
#178=VECTOR('',#1263,1.);
#179=VECTOR('',#1266,1.);
#180=VECTOR('',#1267,1.);
#181=VECTOR('',#1278,1.);
#182=VECTOR('',#1279,1.);
#183=VECTOR('',#1280,1.);
#184=VECTOR('',#1281,1.);
#185=VECTOR('',#1284,1.);
#186=VECTOR('',#1289,1.);
#187=VECTOR('',#1290,1.);
#188=VECTOR('',#1293,1.);
#189=VECTOR('',#1294,1.);
#190=VECTOR('',#1297,1.);
#191=VECTOR('',#1300,1.);
#192=VECTOR('',#1309,1.);
#193=VECTOR('',#1312,1.);
#194=VECTOR('',#1313,1.);
#195=VECTOR('',#1314,1.);
#196=VECTOR('',#1315,1.);
#197=CYLINDRICAL_SURFACE('',#993,0.0145);
#198=CYLINDRICAL_SURFACE('',#1005,0.0145);
#199=CYLINDRICAL_SURFACE('',#1011,0.0125);
#200=CYLINDRICAL_SURFACE('',#1033,0.0115);
#201=CYLINDRICAL_SURFACE('',#1034,0.0115);
#202=CYLINDRICAL_SURFACE('',#1037,0.0125);
#203=CYLINDRICAL_SURFACE('',#1043,0.0023);
#204=CYLINDRICAL_SURFACE('',#1054,0.0023);
#205=CYLINDRICAL_SURFACE('',#1067,0.01025);
#206=CYLINDRICAL_SURFACE('',#1069,0.01025);
#207=CYLINDRICAL_SURFACE('',#1075,0.005);
#208=CYLINDRICAL_SURFACE('',#1077,0.004);
#209=CYLINDRICAL_SURFACE('',#1080,0.005);
#210=ORIENTED_EDGE('',*,*,#466,.T.);
#211=ORIENTED_EDGE('',*,*,#467,.F.);
#212=ORIENTED_EDGE('',*,*,#468,.F.);
#213=ORIENTED_EDGE('',*,*,#469,.T.);
#214=ORIENTED_EDGE('',*,*,#470,.T.);
#215=ORIENTED_EDGE('',*,*,#471,.F.);
#216=ORIENTED_EDGE('',*,*,#472,.T.);
#217=ORIENTED_EDGE('',*,*,#473,.F.);
#218=ORIENTED_EDGE('',*,*,#474,.T.);
#219=ORIENTED_EDGE('',*,*,#475,.T.);
#220=ORIENTED_EDGE('',*,*,#476,.T.);
#221=ORIENTED_EDGE('',*,*,#477,.T.);
#222=ORIENTED_EDGE('',*,*,#475,.F.);
#223=ORIENTED_EDGE('',*,*,#478,.T.);
#224=ORIENTED_EDGE('',*,*,#479,.F.);
#225=ORIENTED_EDGE('',*,*,#480,.T.);
#226=ORIENTED_EDGE('',*,*,#471,.T.);
#227=ORIENTED_EDGE('',*,*,#481,.F.);
#228=ORIENTED_EDGE('',*,*,#482,.F.);
#229=ORIENTED_EDGE('',*,*,#483,.T.);
#230=ORIENTED_EDGE('',*,*,#484,.F.);
#231=ORIENTED_EDGE('',*,*,#485,.F.);
#232=ORIENTED_EDGE('',*,*,#486,.T.);
#233=ORIENTED_EDGE('',*,*,#487,.F.);
#234=ORIENTED_EDGE('',*,*,#488,.F.);
#235=ORIENTED_EDGE('',*,*,#489,.F.);
#236=ORIENTED_EDGE('',*,*,#490,.F.);
#237=ORIENTED_EDGE('',*,*,#486,.F.);
#238=ORIENTED_EDGE('',*,*,#491,.T.);
#239=ORIENTED_EDGE('',*,*,#492,.T.);
#240=ORIENTED_EDGE('',*,*,#493,.F.);
#241=ORIENTED_EDGE('',*,*,#494,.F.);
#242=ORIENTED_EDGE('',*,*,#495,.F.);
#243=ORIENTED_EDGE('',*,*,#490,.T.);
#244=ORIENTED_EDGE('',*,*,#496,.T.);
#245=ORIENTED_EDGE('',*,*,#497,.T.);
#246=ORIENTED_EDGE('',*,*,#498,.F.);
#247=ORIENTED_EDGE('',*,*,#499,.F.);
#248=ORIENTED_EDGE('',*,*,#500,.F.);
#249=ORIENTED_EDGE('',*,*,#501,.F.);
#250=ORIENTED_EDGE('',*,*,#502,.T.);
#251=ORIENTED_EDGE('',*,*,#503,.F.);
#252=ORIENTED_EDGE('',*,*,#504,.T.);
#253=ORIENTED_EDGE('',*,*,#505,.F.);
#254=ORIENTED_EDGE('',*,*,#506,.F.);
#255=ORIENTED_EDGE('',*,*,#507,.T.);
#256=ORIENTED_EDGE('',*,*,#508,.F.);
#257=ORIENTED_EDGE('',*,*,#509,.T.);
#258=ORIENTED_EDGE('',*,*,#502,.F.);
#259=ORIENTED_EDGE('',*,*,#510,.F.);
#260=ORIENTED_EDGE('',*,*,#511,.T.);
#261=ORIENTED_EDGE('',*,*,#512,.T.);
#262=ORIENTED_EDGE('',*,*,#513,.F.);
#263=ORIENTED_EDGE('',*,*,#514,.T.);
#264=ORIENTED_EDGE('',*,*,#499,.T.);
#265=ORIENTED_EDGE('',*,*,#515,.T.);
#266=ORIENTED_EDGE('',*,*,#516,.F.);
#267=ORIENTED_EDGE('',*,*,#517,.F.);
#268=ORIENTED_EDGE('',*,*,#518,.F.);
#269=ORIENTED_EDGE('',*,*,#519,.F.);
#270=ORIENTED_EDGE('',*,*,#520,.T.);
#271=ORIENTED_EDGE('',*,*,#521,.T.);
#272=ORIENTED_EDGE('',*,*,#522,.F.);
#273=ORIENTED_EDGE('',*,*,#516,.T.);
#274=ORIENTED_EDGE('',*,*,#523,.F.);
#275=ORIENTED_EDGE('',*,*,#504,.F.);
#276=ORIENTED_EDGE('',*,*,#524,.F.);
#277=ORIENTED_EDGE('',*,*,#506,.T.);
#278=ORIENTED_EDGE('',*,*,#525,.F.);
#279=ORIENTED_EDGE('',*,*,#512,.F.);
#280=ORIENTED_EDGE('',*,*,#526,.T.);
#281=ORIENTED_EDGE('',*,*,#527,.F.);
#282=ORIENTED_EDGE('',*,*,#528,.F.);
#283=ORIENTED_EDGE('',*,*,#529,.T.);
#284=ORIENTED_EDGE('',*,*,#530,.T.);
#285=ORIENTED_EDGE('',*,*,#531,.T.);
#286=ORIENTED_EDGE('',*,*,#483,.F.);
#287=ORIENTED_EDGE('',*,*,#532,.T.);
#288=ORIENTED_EDGE('',*,*,#533,.F.);
#289=ORIENTED_EDGE('',*,*,#534,.F.);
#290=ORIENTED_EDGE('',*,*,#473,.T.);
#291=ORIENTED_EDGE('',*,*,#535,.T.);
#292=ORIENTED_EDGE('',*,*,#536,.F.);
#293=ORIENTED_EDGE('',*,*,#537,.T.);
#294=ORIENTED_EDGE('',*,*,#479,.T.);
#295=ORIENTED_EDGE('',*,*,#538,.T.);
#296=ORIENTED_EDGE('',*,*,#539,.F.);
#297=ORIENTED_EDGE('',*,*,#540,.T.);
#298=ORIENTED_EDGE('',*,*,#541,.T.);
#299=ORIENTED_EDGE('',*,*,#542,.F.);
#300=ORIENTED_EDGE('',*,*,#543,.T.);
#301=ORIENTED_EDGE('',*,*,#487,.T.);
#302=ORIENTED_EDGE('',*,*,#544,.T.);
#303=ORIENTED_EDGE('',*,*,#545,.F.);
#304=ORIENTED_EDGE('',*,*,#546,.T.);
#305=ORIENTED_EDGE('',*,*,#489,.T.);
#306=ORIENTED_EDGE('',*,*,#547,.F.);
#307=ORIENTED_EDGE('',*,*,#548,.F.);
#308=ORIENTED_EDGE('',*,*,#508,.T.);
#309=ORIENTED_EDGE('',*,*,#549,.F.);
#310=ORIENTED_EDGE('',*,*,#545,.T.);
#311=ORIENTED_EDGE('',*,*,#550,.T.);
#312=ORIENTED_EDGE('',*,*,#551,.T.);
#313=ORIENTED_EDGE('',*,*,#552,.F.);
#314=ORIENTED_EDGE('',*,*,#553,.T.);
#315=ORIENTED_EDGE('',*,*,#543,.F.);
#316=ORIENTED_EDGE('',*,*,#466,.F.);
#317=ORIENTED_EDGE('',*,*,#547,.T.);
#318=ORIENTED_EDGE('',*,*,#468,.T.);
#319=ORIENTED_EDGE('',*,*,#550,.F.);
#320=ORIENTED_EDGE('',*,*,#494,.T.);
#321=ORIENTED_EDGE('',*,*,#554,.T.);
#322=ORIENTED_EDGE('',*,*,#544,.F.);
#323=ORIENTED_EDGE('',*,*,#546,.F.);
#324=ORIENTED_EDGE('',*,*,#555,.T.);
#325=ORIENTED_EDGE('',*,*,#496,.F.);
#326=ORIENTED_EDGE('',*,*,#556,.F.);
#327=ORIENTED_EDGE('',*,*,#552,.T.);
#328=ORIENTED_EDGE('',*,*,#557,.F.);
#329=ORIENTED_EDGE('',*,*,#536,.T.);
#330=ORIENTED_EDGE('',*,*,#558,.T.);
#331=ORIENTED_EDGE('',*,*,#559,.T.);
#332=ORIENTED_EDGE('',*,*,#520,.F.);
#333=ORIENTED_EDGE('',*,*,#560,.F.);
#334=ORIENTED_EDGE('',*,*,#561,.T.);
#335=ORIENTED_EDGE('',*,*,#562,.T.);
#336=ORIENTED_EDGE('',*,*,#558,.F.);
#337=ORIENTED_EDGE('',*,*,#563,.F.);
#338=ORIENTED_EDGE('',*,*,#534,.T.);
#339=ORIENTED_EDGE('',*,*,#564,.T.);
#340=ORIENTED_EDGE('',*,*,#561,.F.);
#341=ORIENTED_EDGE('',*,*,#565,.F.);
#342=ORIENTED_EDGE('',*,*,#566,.T.);
#343=ORIENTED_EDGE('',*,*,#567,.F.);
#344=ORIENTED_EDGE('',*,*,#568,.F.);
#345=ORIENTED_EDGE('',*,*,#569,.F.);
#346=ORIENTED_EDGE('',*,*,#541,.F.);
#347=ORIENTED_EDGE('',*,*,#570,.T.);
#348=ORIENTED_EDGE('',*,*,#571,.T.);
#349=ORIENTED_EDGE('',*,*,#572,.T.);
#350=ORIENTED_EDGE('',*,*,#527,.T.);
#351=ORIENTED_EDGE('',*,*,#533,.T.);
#352=ORIENTED_EDGE('',*,*,#573,.T.);
#353=ORIENTED_EDGE('',*,*,#521,.F.);
#354=ORIENTED_EDGE('',*,*,#559,.F.);
#355=ORIENTED_EDGE('',*,*,#562,.F.);
#356=ORIENTED_EDGE('',*,*,#564,.F.);
#357=ORIENTED_EDGE('',*,*,#567,.T.);
#358=ORIENTED_EDGE('',*,*,#566,.F.);
#359=ORIENTED_EDGE('',*,*,#492,.F.);
#360=ORIENTED_EDGE('',*,*,#530,.F.);
#361=ORIENTED_EDGE('',*,*,#565,.T.);
#362=ORIENTED_EDGE('',*,*,#563,.T.);
#363=ORIENTED_EDGE('',*,*,#560,.T.);
#364=ORIENTED_EDGE('',*,*,#519,.T.);
#365=ORIENTED_EDGE('',*,*,#574,.T.);
#366=ORIENTED_EDGE('',*,*,#570,.F.);
#367=ORIENTED_EDGE('',*,*,#540,.F.);
#368=ORIENTED_EDGE('',*,*,#575,.T.);
#369=ORIENTED_EDGE('',*,*,#576,.T.);
#370=ORIENTED_EDGE('',*,*,#571,.F.);
#371=ORIENTED_EDGE('',*,*,#574,.F.);
#372=ORIENTED_EDGE('',*,*,#577,.T.);
#373=ORIENTED_EDGE('',*,*,#528,.T.);
#374=ORIENTED_EDGE('',*,*,#572,.F.);
#375=ORIENTED_EDGE('',*,*,#576,.F.);
#376=ORIENTED_EDGE('',*,*,#578,.T.);
#377=ORIENTED_EDGE('',*,*,#480,.F.);
#378=ORIENTED_EDGE('',*,*,#542,.T.);
#379=ORIENTED_EDGE('',*,*,#569,.T.);
#380=ORIENTED_EDGE('',*,*,#526,.F.);
#381=ORIENTED_EDGE('',*,*,#511,.F.);
#382=ORIENTED_EDGE('',*,*,#579,.F.);
#383=ORIENTED_EDGE('',*,*,#580,.F.);
#384=ORIENTED_EDGE('',*,*,#568,.T.);
#385=ORIENTED_EDGE('',*,*,#580,.T.);
#386=ORIENTED_EDGE('',*,*,#539,.T.);
#387=ORIENTED_EDGE('',*,*,#498,.T.);
#388=ORIENTED_EDGE('',*,*,#529,.F.);
#389=ORIENTED_EDGE('',*,*,#578,.F.);
#390=ORIENTED_EDGE('',*,*,#577,.F.);
#391=ORIENTED_EDGE('',*,*,#575,.F.);
#392=ORIENTED_EDGE('',*,*,#532,.F.);
#393=ORIENTED_EDGE('',*,*,#482,.T.);
#394=ORIENTED_EDGE('',*,*,#581,.T.);
#395=ORIENTED_EDGE('',*,*,#517,.T.);
#396=ORIENTED_EDGE('',*,*,#522,.T.);
#397=ORIENTED_EDGE('',*,*,#573,.F.);
#398=ORIENTED_EDGE('',*,*,#582,.T.);
#399=ORIENTED_EDGE('',*,*,#583,.T.);
#400=ORIENTED_EDGE('',*,*,#581,.F.);
#401=ORIENTED_EDGE('',*,*,#584,.F.);
#402=ORIENTED_EDGE('',*,*,#585,.F.);
#403=ORIENTED_EDGE('',*,*,#579,.T.);
#404=ORIENTED_EDGE('',*,*,#583,.F.);
#405=ORIENTED_EDGE('',*,*,#500,.T.);
#406=ORIENTED_EDGE('',*,*,#514,.F.);
#407=ORIENTED_EDGE('',*,*,#470,.F.);
#408=ORIENTED_EDGE('',*,*,#584,.T.);
#409=ORIENTED_EDGE('',*,*,#481,.T.);
#410=ORIENTED_EDGE('',*,*,#477,.F.);
#411=ORIENTED_EDGE('',*,*,#585,.T.);
#412=ORIENTED_EDGE('',*,*,#476,.F.);
#413=ORIENTED_EDGE('',*,*,#582,.F.);
#414=ORIENTED_EDGE('',*,*,#510,.T.);
#415=ORIENTED_EDGE('',*,*,#501,.T.);
#416=ORIENTED_EDGE('',*,*,#495,.T.);
#417=ORIENTED_EDGE('',*,*,#538,.F.);
#418=ORIENTED_EDGE('',*,*,#478,.F.);
#419=ORIENTED_EDGE('',*,*,#474,.F.);
#420=ORIENTED_EDGE('',*,*,#537,.F.);
#421=ORIENTED_EDGE('',*,*,#557,.T.);
#422=ORIENTED_EDGE('',*,*,#551,.F.);
#423=ORIENTED_EDGE('',*,*,#488,.T.);
#424=ORIENTED_EDGE('',*,*,#485,.T.);
#425=ORIENTED_EDGE('',*,*,#553,.F.);
#426=ORIENTED_EDGE('',*,*,#556,.T.);
#427=ORIENTED_EDGE('',*,*,#535,.F.);
#428=ORIENTED_EDGE('',*,*,#472,.F.);
#429=ORIENTED_EDGE('',*,*,#484,.T.);
#430=ORIENTED_EDGE('',*,*,#531,.F.);
#431=ORIENTED_EDGE('',*,*,#491,.F.);
#432=ORIENTED_EDGE('',*,*,#493,.T.);
#433=ORIENTED_EDGE('',*,*,#518,.T.);
#434=ORIENTED_EDGE('',*,*,#515,.F.);
#435=ORIENTED_EDGE('',*,*,#505,.T.);
#436=ORIENTED_EDGE('',*,*,#523,.T.);
#437=ORIENTED_EDGE('',*,*,#509,.F.);
#438=ORIENTED_EDGE('',*,*,#548,.T.);
#439=ORIENTED_EDGE('',*,*,#554,.F.);
#440=ORIENTED_EDGE('',*,*,#555,.F.);
#441=ORIENTED_EDGE('',*,*,#549,.T.);
#442=ORIENTED_EDGE('',*,*,#507,.F.);
#443=ORIENTED_EDGE('',*,*,#524,.T.);
#444=ORIENTED_EDGE('',*,*,#503,.T.);
#445=ORIENTED_EDGE('',*,*,#513,.T.);
#446=ORIENTED_EDGE('',*,*,#525,.T.);
#447=ORIENTED_EDGE('',*,*,#497,.F.);
#448=ORIENTED_EDGE('',*,*,#586,.F.);
#449=ORIENTED_EDGE('',*,*,#469,.F.);
#450=ORIENTED_EDGE('',*,*,#467,.T.);
#451=ORIENTED_EDGE('',*,*,#587,.T.);
#452=ORIENTED_EDGE('',*,*,#588,.F.);
#453=ORIENTED_EDGE('',*,*,#586,.T.);
#454=ORIENTED_EDGE('',*,*,#589,.T.);
#455=ORIENTED_EDGE('',*,*,#587,.F.);
#456=ORIENTED_EDGE('',*,*,#590,.F.);
#457=ORIENTED_EDGE('',*,*,#588,.T.);
#458=ORIENTED_EDGE('',*,*,#591,.T.);
#459=ORIENTED_EDGE('',*,*,#592,.F.);
#460=ORIENTED_EDGE('',*,*,#589,.F.);
#461=ORIENTED_EDGE('',*,*,#593,.T.);
#462=ORIENTED_EDGE('',*,*,#591,.F.);
#463=ORIENTED_EDGE('',*,*,#590,.T.);
#464=ORIENTED_EDGE('',*,*,#592,.T.);
#465=ORIENTED_EDGE('',*,*,#593,.F.);
#466=EDGE_CURVE('',#594,#594,#680,.T.);
#467=EDGE_CURVE('',#595,#595,#681,.T.);
#468=EDGE_CURVE('',#596,#596,#682,.T.);
#469=EDGE_CURVE('',#597,#597,#683,.T.);
#470=EDGE_CURVE('',#598,#599,#684,.F.);
#471=EDGE_CURVE('',#600,#599,#25,.T.);
#472=EDGE_CURVE('',#600,#601,#17,.T.);
#473=EDGE_CURVE('',#602,#601,#685,.T.);
#474=EDGE_CURVE('',#602,#603,#18,.T.);
#475=EDGE_CURVE('',#603,#604,#26,.T.);
#476=EDGE_CURVE('',#604,#598,#686,.F.);
#477=EDGE_CURVE('',#605,#604,#27,.T.);
#478=EDGE_CURVE('',#603,#606,#28,.T.);
#479=EDGE_CURVE('',#607,#606,#29,.T.);
#480=EDGE_CURVE('',#607,#605,#30,.T.);
#481=EDGE_CURVE('',#608,#599,#31,.T.);
#482=EDGE_CURVE('',#609,#608,#32,.T.);
#483=EDGE_CURVE('',#609,#610,#33,.T.);
#484=EDGE_CURVE('',#600,#610,#34,.T.);
#485=EDGE_CURVE('',#611,#612,#35,.T.);
#486=EDGE_CURVE('',#611,#613,#36,.T.);
#487=EDGE_CURVE('',#612,#613,#13,.T.);
#488=EDGE_CURVE('',#614,#615,#37,.T.);
#489=EDGE_CURVE('',#616,#614,#14,.T.);
#490=EDGE_CURVE('',#615,#616,#38,.T.);
#491=EDGE_CURVE('',#611,#617,#39,.T.);
#492=EDGE_CURVE('',#617,#618,#40,.T.);
#493=EDGE_CURVE('',#619,#618,#41,.T.);
#494=EDGE_CURVE('',#613,#619,#42,.T.);
#495=EDGE_CURVE('',#615,#620,#43,.T.);
#496=EDGE_CURVE('',#616,#621,#44,.T.);
#497=EDGE_CURVE('',#621,#622,#45,.T.);
#498=EDGE_CURVE('',#620,#622,#46,.T.);
#499=EDGE_CURVE('',#623,#624,#47,.T.);
#500=EDGE_CURVE('',#625,#623,#687,.F.);
#501=EDGE_CURVE('',#626,#625,#688,.F.);
#502=EDGE_CURVE('',#626,#627,#48,.T.);
#503=EDGE_CURVE('',#628,#627,#19,.T.);
#504=EDGE_CURVE('',#628,#629,#689,.T.);
#505=EDGE_CURVE('',#624,#629,#20,.T.);
#506=EDGE_CURVE('',#630,#631,#690,.T.);
#507=EDGE_CURVE('',#630,#632,#21,.T.);
#508=EDGE_CURVE('',#633,#632,#691,.F.);
#509=EDGE_CURVE('',#633,#631,#22,.T.);
#510=EDGE_CURVE('',#634,#626,#49,.T.);
#511=EDGE_CURVE('',#634,#635,#50,.T.);
#512=EDGE_CURVE('',#635,#636,#51,.T.);
#513=EDGE_CURVE('',#627,#636,#52,.T.);
#514=EDGE_CURVE('',#637,#623,#53,.T.);
#515=EDGE_CURVE('',#624,#638,#54,.T.);
#516=EDGE_CURVE('',#639,#638,#55,.T.);
#517=EDGE_CURVE('',#637,#639,#56,.T.);
#518=EDGE_CURVE('',#618,#638,#57,.T.);
#519=EDGE_CURVE('',#640,#618,#58,.T.);
#520=EDGE_CURVE('',#640,#641,#59,.T.);
#521=EDGE_CURVE('',#641,#642,#60,.T.);
#522=EDGE_CURVE('',#639,#642,#61,.T.);
#523=EDGE_CURVE('',#629,#631,#62,.T.);
#524=EDGE_CURVE('',#630,#628,#63,.T.);
#525=EDGE_CURVE('',#636,#622,#64,.T.);
#526=EDGE_CURVE('',#635,#643,#65,.T.);
#527=EDGE_CURVE('',#644,#643,#66,.T.);
#528=EDGE_CURVE('',#645,#644,#67,.T.);
#529=EDGE_CURVE('',#645,#622,#68,.T.);
#530=EDGE_CURVE('',#646,#617,#69,.T.);
#531=EDGE_CURVE('',#617,#610,#70,.T.);
#532=EDGE_CURVE('',#609,#647,#71,.T.);
#533=EDGE_CURVE('',#648,#647,#72,.T.);
#534=EDGE_CURVE('',#646,#648,#73,.T.);
#535=EDGE_CURVE('',#601,#649,#74,.T.);
#536=EDGE_CURVE('',#650,#649,#692,.T.);
#537=EDGE_CURVE('',#650,#602,#75,.T.);
#538=EDGE_CURVE('',#606,#620,#76,.T.);
#539=EDGE_CURVE('',#651,#620,#77,.T.);
#540=EDGE_CURVE('',#651,#652,#78,.T.);
#541=EDGE_CURVE('',#652,#653,#79,.T.);
#542=EDGE_CURVE('',#607,#653,#80,.T.);
#543=EDGE_CURVE('',#614,#612,#693,.T.);
#544=EDGE_CURVE('',#613,#654,#15,.T.);
#545=EDGE_CURVE('',#655,#654,#694,.T.);
#546=EDGE_CURVE('',#655,#616,#16,.T.);
#547=EDGE_CURVE('',#656,#656,#695,.T.);
#548=EDGE_CURVE('',#633,#654,#81,.T.);
#549=EDGE_CURVE('',#655,#632,#82,.T.);
#550=EDGE_CURVE('',#657,#657,#696,.T.);
#551=EDGE_CURVE('',#614,#658,#83,.T.);
#552=EDGE_CURVE('',#659,#658,#697,.F.);
#553=EDGE_CURVE('',#659,#612,#84,.T.);
#554=EDGE_CURVE('',#619,#654,#85,.T.);
#555=EDGE_CURVE('',#655,#621,#86,.T.);
#556=EDGE_CURVE('',#659,#649,#23,.T.);
#557=EDGE_CURVE('',#650,#658,#24,.T.);
#558=EDGE_CURVE('',#660,#661,#87,.T.);
#559=EDGE_CURVE('',#661,#641,#88,.T.);
#560=EDGE_CURVE('',#660,#640,#89,.T.);
#561=EDGE_CURVE('',#662,#663,#90,.T.);
#562=EDGE_CURVE('',#663,#661,#91,.T.);
#563=EDGE_CURVE('',#662,#660,#92,.T.);
#564=EDGE_CURVE('',#648,#663,#93,.T.);
#565=EDGE_CURVE('',#646,#662,#94,.T.);
#566=EDGE_CURVE('',#664,#664,#698,.T.);
#567=EDGE_CURVE('',#665,#665,#699,.T.);
#568=EDGE_CURVE('',#666,#666,#700,.T.);
#569=EDGE_CURVE('',#653,#643,#95,.T.);
#570=EDGE_CURVE('',#652,#667,#96,.T.);
#571=EDGE_CURVE('',#667,#668,#97,.T.);
#572=EDGE_CURVE('',#668,#644,#98,.T.);
#573=EDGE_CURVE('',#647,#642,#99,.T.);
#574=EDGE_CURVE('',#669,#667,#100,.T.);
#575=EDGE_CURVE('',#651,#669,#101,.T.);
#576=EDGE_CURVE('',#670,#668,#102,.T.);
#577=EDGE_CURVE('',#669,#670,#103,.T.);
#578=EDGE_CURVE('',#670,#645,#104,.T.);
#579=EDGE_CURVE('',#605,#634,#105,.T.);
#580=EDGE_CURVE('',#671,#671,#701,.T.);
#581=EDGE_CURVE('',#608,#637,#106,.T.);
#582=EDGE_CURVE('',#634,#625,#107,.T.);
#583=EDGE_CURVE('',#625,#637,#108,.T.);
#584=EDGE_CURVE('',#598,#608,#109,.T.);
#585=EDGE_CURVE('',#605,#598,#110,.T.);
#586=EDGE_CURVE('',#672,#672,#702,.T.);
#587=EDGE_CURVE('',#673,#673,#703,.T.);
#588=EDGE_CURVE('',#674,#674,#704,.T.);
#589=EDGE_CURVE('',#675,#675,#705,.T.);
#590=EDGE_CURVE('',#676,#676,#706,.T.);
#591=EDGE_CURVE('',#677,#677,#707,.T.);
#592=EDGE_CURVE('',#678,#678,#708,.T.);
#593=EDGE_CURVE('',#679,#679,#709,.T.);
#594=VERTEX_POINT('',#1369);
#595=VERTEX_POINT('',#1371);
#596=VERTEX_POINT('',#1374);
#597=VERTEX_POINT('',#1376);
#598=VERTEX_POINT('',#1379);
#599=VERTEX_POINT('',#1380);
#600=VERTEX_POINT('',#1382);
#601=VERTEX_POINT('',#1384);
#602=VERTEX_POINT('',#1386);
#603=VERTEX_POINT('',#1388);
#604=VERTEX_POINT('',#1390);
#605=VERTEX_POINT('',#1394);
#606=VERTEX_POINT('',#1396);
#607=VERTEX_POINT('',#1398);
#608=VERTEX_POINT('',#1402);
#609=VERTEX_POINT('',#1404);
#610=VERTEX_POINT('',#1406);
#611=VERTEX_POINT('',#1410);
#612=VERTEX_POINT('',#1411);
#613=VERTEX_POINT('',#1413);
#614=VERTEX_POINT('',#1420);
#615=VERTEX_POINT('',#1421);
#616=VERTEX_POINT('',#1427);
#617=VERTEX_POINT('',#1431);
#618=VERTEX_POINT('',#1433);
#619=VERTEX_POINT('',#1435);
#620=VERTEX_POINT('',#1439);
#621=VERTEX_POINT('',#1441);
#622=VERTEX_POINT('',#1443);
#623=VERTEX_POINT('',#1447);
#624=VERTEX_POINT('',#1448);
#625=VERTEX_POINT('',#1450);
#626=VERTEX_POINT('',#1452);
#627=VERTEX_POINT('',#1454);
#628=VERTEX_POINT('',#1456);
#629=VERTEX_POINT('',#1458);
#630=VERTEX_POINT('',#1462);
#631=VERTEX_POINT('',#1463);
#632=VERTEX_POINT('',#1465);
#633=VERTEX_POINT('',#1467);
#634=VERTEX_POINT('',#1471);
#635=VERTEX_POINT('',#1473);
#636=VERTEX_POINT('',#1475);
#637=VERTEX_POINT('',#1479);
#638=VERTEX_POINT('',#1481);
#639=VERTEX_POINT('',#1483);
#640=VERTEX_POINT('',#1488);
#641=VERTEX_POINT('',#1490);
#642=VERTEX_POINT('',#1492);
#643=VERTEX_POINT('',#1500);
#644=VERTEX_POINT('',#1502);
#645=VERTEX_POINT('',#1504);
#646=VERTEX_POINT('',#1508);
#647=VERTEX_POINT('',#1511);
#648=VERTEX_POINT('',#1513);
#649=VERTEX_POINT('',#1517);
#650=VERTEX_POINT('',#1519);
#651=VERTEX_POINT('',#1524);
#652=VERTEX_POINT('',#1526);
#653=VERTEX_POINT('',#1528);
#654=VERTEX_POINT('',#1537);
#655=VERTEX_POINT('',#1539);
#656=VERTEX_POINT('',#1546);
#657=VERTEX_POINT('',#1551);
#658=VERTEX_POINT('',#1553);
#659=VERTEX_POINT('',#1555);
#660=VERTEX_POINT('',#1568);
#661=VERTEX_POINT('',#1569);
#662=VERTEX_POINT('',#1574);
#663=VERTEX_POINT('',#1575);
#664=VERTEX_POINT('',#1583);
#665=VERTEX_POINT('',#1585);
#666=VERTEX_POINT('',#1588);
#667=VERTEX_POINT('',#1591);
#668=VERTEX_POINT('',#1593);
#669=VERTEX_POINT('',#1600);
#670=VERTEX_POINT('',#1604);
#671=VERTEX_POINT('',#1612);
#672=VERTEX_POINT('',#1631);
#673=VERTEX_POINT('',#1634);
#674=VERTEX_POINT('',#1637);
#675=VERTEX_POINT('',#1640);
#676=VERTEX_POINT('',#1643);
#677=VERTEX_POINT('',#1646);
#678=VERTEX_POINT('',#1648);
#679=VERTEX_POINT('',#1651);
#680=CIRCLE('',#988,0.0115);
#681=CIRCLE('',#989,0.01025);
#682=CIRCLE('',#991,0.0115);
#683=CIRCLE('',#992,0.01025);
#684=CIRCLE('',#994,0.0145);
#685=CIRCLE('',#996,0.0145);
#686=CIRCLE('',#998,0.0145);
#687=CIRCLE('',#1006,0.0145);
#688=CIRCLE('',#1007,0.0145);
#689=CIRCLE('',#1009,0.0145);
#690=CIRCLE('',#1012,0.0125);
#691=CIRCLE('',#1014,0.0125);
#692=CIRCLE('',#1023,0.0125);
#693=CIRCLE('',#1026,0.0135);
#694=CIRCLE('',#1027,0.0135);
#695=CIRCLE('',#1029,0.0115);
#696=CIRCLE('',#1031,0.0115);
#697=CIRCLE('',#1032,0.0125);
#698=CIRCLE('',#1044,0.0023);
#699=CIRCLE('',#1045,0.0023);
#700=CIRCLE('',#1047,0.0023);
#701=CIRCLE('',#1055,0.0023);
#702=CIRCLE('',#1068,0.01025);
#703=CIRCLE('',#1070,0.01025);
#704=CIRCLE('',#1072,0.005);
#705=CIRCLE('',#1074,0.005);
#706=CIRCLE('',#1076,0.005);
#707=CIRCLE('',#1078,0.004);
#708=CIRCLE('',#1079,0.004);
#709=CIRCLE('',#1081,0.005);
#710=EDGE_LOOP('',(#210));
#711=EDGE_LOOP('',(#211));
#712=EDGE_LOOP('',(#212));
#713=EDGE_LOOP('',(#213));
#714=EDGE_LOOP('',(#214,#215,#216,#217,#218,#219,#220));
#715=EDGE_LOOP('',(#221,#222,#223,#224,#225));
#716=EDGE_LOOP('',(#226,#227,#228,#229,#230));
#717=EDGE_LOOP('',(#231,#232,#233));
#718=EDGE_LOOP('',(#234,#235,#236));
#719=EDGE_LOOP('',(#237,#238,#239,#240,#241));
#720=EDGE_LOOP('',(#242,#243,#244,#245,#246));
#721=EDGE_LOOP('',(#247,#248,#249,#250,#251,#252,#253));
#722=EDGE_LOOP('',(#254,#255,#256,#257));
#723=EDGE_LOOP('',(#258,#259,#260,#261,#262));
#724=EDGE_LOOP('',(#263,#264,#265,#266,#267));
#725=EDGE_LOOP('',(#268,#269,#270,#271,#272,#273));
#726=EDGE_LOOP('',(#274,#275,#276,#277));
#727=EDGE_LOOP('',(#278,#279,#280,#281,#282,#283));
#728=EDGE_LOOP('',(#284,#285,#286,#287,#288,#289));
#729=EDGE_LOOP('',(#290,#291,#292,#293));
#730=EDGE_LOOP('',(#294,#295,#296,#297,#298,#299));
#731=EDGE_LOOP('',(#300,#301,#302,#303,#304,#305));
#732=EDGE_LOOP('',(#306));
#733=EDGE_LOOP('',(#307,#308,#309,#310));
#734=EDGE_LOOP('',(#311));
#735=EDGE_LOOP('',(#312,#313,#314,#315));
#736=EDGE_LOOP('',(#316));
#737=EDGE_LOOP('',(#317));
#738=EDGE_LOOP('',(#318));
#739=EDGE_LOOP('',(#319));
#740=EDGE_LOOP('',(#320,#321,#322));
#741=EDGE_LOOP('',(#323,#324,#325));
#742=EDGE_LOOP('',(#326,#327,#328,#329));
#743=EDGE_LOOP('',(#330,#331,#332,#333));
#744=EDGE_LOOP('',(#334,#335,#336,#337));
#745=EDGE_LOOP('',(#338,#339,#340,#341));
#746=EDGE_LOOP('',(#342));
#747=EDGE_LOOP('',(#343));
#748=EDGE_LOOP('',(#344));
#749=EDGE_LOOP('',(#345,#346,#347,#348,#349,#350));
#750=EDGE_LOOP('',(#351,#352,#353,#354,#355,#356));
#751=EDGE_LOOP('',(#357));
#752=EDGE_LOOP('',(#358));
#753=EDGE_LOOP('',(#359,#360,#361,#362,#363,#364));
#754=EDGE_LOOP('',(#365,#366,#367,#368));
#755=EDGE_LOOP('',(#369,#370,#371,#372));
#756=EDGE_LOOP('',(#373,#374,#375,#376));
#757=EDGE_LOOP('',(#377,#378,#379,#380,#381,#382));
#758=EDGE_LOOP('',(#383));
#759=EDGE_LOOP('',(#384));
#760=EDGE_LOOP('',(#385));
#761=EDGE_LOOP('',(#386,#387,#388,#389,#390,#391));
#762=EDGE_LOOP('',(#392,#393,#394,#395,#396,#397));
#763=EDGE_LOOP('',(#398,#399,#400,#401,#402,#403));
#764=EDGE_LOOP('',(#404,#405,#406));
#765=EDGE_LOOP('',(#407,#408,#409));
#766=EDGE_LOOP('',(#410,#411,#412));
#767=EDGE_LOOP('',(#413,#414,#415));
#768=EDGE_LOOP('',(#416,#417,#418,#419,#420,#421,#422,#423));
#769=EDGE_LOOP('',(#424,#425,#426,#427,#428,#429,#430,#431));
#770=EDGE_LOOP('',(#432,#433,#434,#435,#436,#437,#438,#439));
#771=EDGE_LOOP('',(#440,#441,#442,#443,#444,#445,#446,#447));
#772=EDGE_LOOP('',(#448));
#773=EDGE_LOOP('',(#449));
#774=EDGE_LOOP('',(#450));
#775=EDGE_LOOP('',(#451));
#776=EDGE_LOOP('',(#452));
#777=EDGE_LOOP('',(#453));
#778=EDGE_LOOP('',(#454));
#779=EDGE_LOOP('',(#455));
#780=EDGE_LOOP('',(#456));
#781=EDGE_LOOP('',(#457));
#782=EDGE_LOOP('',(#458));
#783=EDGE_LOOP('',(#459));
#784=EDGE_LOOP('',(#460));
#785=EDGE_LOOP('',(#461));
#786=EDGE_LOOP('',(#462));
#787=EDGE_LOOP('',(#463));
#788=EDGE_LOOP('',(#464));
#789=EDGE_LOOP('',(#465));
#790=FACE_BOUND('',#710,.T.);
#791=FACE_BOUND('',#711,.T.);
#792=FACE_BOUND('',#712,.T.);
#793=FACE_BOUND('',#713,.T.);
#794=FACE_BOUND('',#714,.T.);
#795=FACE_BOUND('',#715,.T.);
#796=FACE_BOUND('',#716,.T.);
#797=FACE_BOUND('',#717,.T.);
#798=FACE_BOUND('',#718,.T.);
#799=FACE_BOUND('',#719,.T.);
#800=FACE_BOUND('',#720,.T.);
#801=FACE_BOUND('',#721,.T.);
#802=FACE_BOUND('',#722,.T.);
#803=FACE_BOUND('',#723,.T.);
#804=FACE_BOUND('',#724,.T.);
#805=FACE_BOUND('',#725,.T.);
#806=FACE_BOUND('',#726,.T.);
#807=FACE_BOUND('',#727,.T.);
#808=FACE_BOUND('',#728,.T.);
#809=FACE_BOUND('',#729,.T.);
#810=FACE_BOUND('',#730,.T.);
#811=FACE_BOUND('',#731,.T.);
#812=FACE_BOUND('',#732,.T.);
#813=FACE_BOUND('',#733,.T.);
#814=FACE_BOUND('',#734,.T.);
#815=FACE_BOUND('',#735,.T.);
#816=FACE_BOUND('',#736,.T.);
#817=FACE_BOUND('',#737,.T.);
#818=FACE_BOUND('',#738,.T.);
#819=FACE_BOUND('',#739,.T.);
#820=FACE_BOUND('',#740,.T.);
#821=FACE_BOUND('',#741,.T.);
#822=FACE_BOUND('',#742,.T.);
#823=FACE_BOUND('',#743,.T.);
#824=FACE_BOUND('',#744,.T.);
#825=FACE_BOUND('',#745,.T.);
#826=FACE_BOUND('',#746,.T.);
#827=FACE_BOUND('',#747,.T.);
#828=FACE_BOUND('',#748,.T.);
#829=FACE_BOUND('',#749,.T.);
#830=FACE_BOUND('',#750,.T.);
#831=FACE_BOUND('',#751,.T.);
#832=FACE_BOUND('',#752,.T.);
#833=FACE_BOUND('',#753,.T.);
#834=FACE_BOUND('',#754,.T.);
#835=FACE_BOUND('',#755,.T.);
#836=FACE_BOUND('',#756,.T.);
#837=FACE_BOUND('',#757,.T.);
#838=FACE_BOUND('',#758,.T.);
#839=FACE_BOUND('',#759,.T.);
#840=FACE_BOUND('',#760,.T.);
#841=FACE_BOUND('',#761,.T.);
#842=FACE_BOUND('',#762,.T.);
#843=FACE_BOUND('',#763,.T.);
#844=FACE_BOUND('',#764,.T.);
#845=FACE_BOUND('',#765,.T.);
#846=FACE_BOUND('',#766,.T.);
#847=FACE_BOUND('',#767,.T.);
#848=FACE_BOUND('',#768,.T.);
#849=FACE_BOUND('',#769,.T.);
#850=FACE_BOUND('',#770,.T.);
#851=FACE_BOUND('',#771,.T.);
#852=FACE_BOUND('',#772,.T.);
#853=FACE_BOUND('',#773,.T.);
#854=FACE_BOUND('',#774,.T.);
#855=FACE_BOUND('',#775,.T.);
#856=FACE_BOUND('',#776,.T.);
#857=FACE_BOUND('',#777,.T.);
#858=FACE_BOUND('',#778,.T.);
#859=FACE_BOUND('',#779,.T.);
#860=FACE_BOUND('',#780,.T.);
#861=FACE_BOUND('',#781,.T.);
#862=FACE_BOUND('',#782,.T.);
#863=FACE_BOUND('',#783,.T.);
#864=FACE_BOUND('',#784,.T.);
#865=FACE_BOUND('',#785,.T.);
#866=FACE_BOUND('',#786,.T.);
#867=FACE_BOUND('',#787,.T.);
#868=FACE_BOUND('',#788,.T.);
#869=FACE_BOUND('',#789,.T.);
#870=PLANE('',#987);
#871=PLANE('',#990);
#872=PLANE('',#999);
#873=PLANE('',#1000);
#874=PLANE('',#1001);
#875=PLANE('',#1002);
#876=PLANE('',#1003);
#877=PLANE('',#1004);
#878=PLANE('',#1016);
#879=PLANE('',#1017);
#880=PLANE('',#1018);
#881=PLANE('',#1019);
#882=PLANE('',#1020);
#883=PLANE('',#1021);
#884=PLANE('',#1022);
#885=PLANE('',#1024);
#886=PLANE('',#1028);
#887=PLANE('',#1030);
#888=PLANE('',#1035);
#889=PLANE('',#1036);
#890=PLANE('',#1040);
#891=PLANE('',#1041);
#892=PLANE('',#1042);
#893=PLANE('',#1046);
#894=PLANE('',#1048);
#895=PLANE('',#1049);
#896=PLANE('',#1050);
#897=PLANE('',#1051);
#898=PLANE('',#1052);
#899=PLANE('',#1053);
#900=PLANE('',#1056);
#901=PLANE('',#1057);
#902=PLANE('',#1058);
#903=PLANE('',#1059);
#904=PLANE('',#1060);
#905=PLANE('',#1061);
#906=PLANE('',#1062);
#907=PLANE('',#1063);
#908=PLANE('',#1064);
#909=PLANE('',#1065);
#910=PLANE('',#1066);
#911=PLANE('',#1071);
#912=PLANE('',#1073);
#913=PLANE('',#1082);
#914=PLANE('',#1083);
#915=ADVANCED_FACE('',(#790,#791),#870,.F.);
#916=ADVANCED_FACE('',(#792,#793),#871,.T.);
#917=ADVANCED_FACE('',(#794),#197,.T.);
#918=ADVANCED_FACE('',(#795),#872,.F.);
#919=ADVANCED_FACE('',(#796),#873,.T.);
#920=ADVANCED_FACE('',(#797),#874,.F.);
#921=ADVANCED_FACE('',(#798),#875,.F.);
#922=ADVANCED_FACE('',(#799),#876,.F.);
#923=ADVANCED_FACE('',(#800),#877,.T.);
#924=ADVANCED_FACE('',(#801),#198,.T.);
#925=ADVANCED_FACE('',(#802),#199,.F.);
#926=ADVANCED_FACE('',(#803),#878,.F.);
#927=ADVANCED_FACE('',(#804),#879,.T.);
#928=ADVANCED_FACE('',(#805),#880,.F.);
#929=ADVANCED_FACE('',(#806),#881,.F.);
#930=ADVANCED_FACE('',(#807),#882,.F.);
#931=ADVANCED_FACE('',(#808),#883,.T.);
#932=ADVANCED_FACE('',(#809),#884,.T.);
#933=ADVANCED_FACE('',(#810),#885,.T.);
#934=ADVANCED_FACE('',(#811),#12,.T.);
#935=ADVANCED_FACE('',(#812,#813),#886,.F.);
#936=ADVANCED_FACE('',(#814,#815),#887,.T.);
#937=ADVANCED_FACE('',(#816,#817),#200,.F.);
#938=ADVANCED_FACE('',(#818,#819),#201,.F.);
#939=ADVANCED_FACE('',(#820),#888,.F.);
#940=ADVANCED_FACE('',(#821),#889,.F.);
#941=ADVANCED_FACE('',(#822),#202,.F.);
#942=ADVANCED_FACE('',(#823),#890,.F.);
#943=ADVANCED_FACE('',(#824),#891,.F.);
#944=ADVANCED_FACE('',(#825),#892,.F.);
#945=ADVANCED_FACE('',(#826,#827),#203,.F.);
#946=ADVANCED_FACE('',(#828,#829),#893,.T.);
#947=ADVANCED_FACE('',(#830,#831),#894,.T.);
#948=ADVANCED_FACE('',(#832,#833),#895,.F.);
#949=ADVANCED_FACE('',(#834),#896,.T.);
#950=ADVANCED_FACE('',(#835),#897,.T.);
#951=ADVANCED_FACE('',(#836),#898,.T.);
#952=ADVANCED_FACE('',(#837),#899,.F.);
#953=ADVANCED_FACE('',(#838,#839),#204,.F.);
#954=ADVANCED_FACE('',(#840,#841),#900,.F.);
#955=ADVANCED_FACE('',(#842),#901,.T.);
#956=ADVANCED_FACE('',(#843),#902,.T.);
#957=ADVANCED_FACE('',(#844),#903,.T.);
#958=ADVANCED_FACE('',(#845),#904,.F.);
#959=ADVANCED_FACE('',(#846),#905,.F.);
#960=ADVANCED_FACE('',(#847),#906,.T.);
#961=ADVANCED_FACE('',(#848),#907,.F.);
#962=ADVANCED_FACE('',(#849),#908,.F.);
#963=ADVANCED_FACE('',(#850),#909,.T.);
#964=ADVANCED_FACE('',(#851),#910,.T.);
#965=ADVANCED_FACE('',(#852,#853),#205,.T.);
#966=ADVANCED_FACE('',(#854,#855),#206,.T.);
#967=ADVANCED_FACE('',(#856,#857),#911,.T.);
#968=ADVANCED_FACE('',(#858,#859),#912,.F.);
#969=ADVANCED_FACE('',(#860,#861),#207,.T.);
#970=ADVANCED_FACE('',(#862,#863),#208,.F.);
#971=ADVANCED_FACE('',(#864,#865),#209,.T.);
#972=ADVANCED_FACE('',(#866,#867),#913,.T.);
#973=ADVANCED_FACE('',(#868,#869),#914,.F.);
#974=CLOSED_SHELL('',(#915,#916,#917,#918,#919,#920,#921,#922,#923,#924,
#925,#926,#927,#928,#929,#930,#931,#932,#933,#934,#935,#936,#937,#938,#939,
#940,#941,#942,#943,#944,#945,#946,#947,#948,#949,#950,#951,#952,#953,#954,
#955,#956,#957,#958,#959,#960,#961,#962,#963,#964,#965,#966,#967,#968,#969,
#970,#971,#972,#973));
#975=STYLED_ITEM('',(#976),#983);
#976=PRESENTATION_STYLE_ASSIGNMENT((#977));
#977=SURFACE_STYLE_USAGE(.BOTH.,#978);
#978=SURFACE_SIDE_STYLE('',(#979));
#979=SURFACE_STYLE_FILL_AREA(#980);
#980=FILL_AREA_STYLE('',(#981));
#981=FILL_AREA_STYLE_COLOUR('',#982);
#982=COLOUR_RGB('',0.43921568627451,0.474509803921569,0.501960784313726);
#983=MANIFOLD_SOLID_BREP('8mm Pillow Block (KP08)',#974);
#984=SHAPE_DEFINITION_REPRESENTATION(#1660,#985);
#985=SHAPE_REPRESENTATION('8mm Pillow Block (KP08)',(#986),#1655);
#986=AXIS2_PLACEMENT_3D('',#1366,#1084,#1085);
#987=AXIS2_PLACEMENT_3D('',#1367,#1086,#1087);
#988=AXIS2_PLACEMENT_3D('',#1368,#1088,#1089);
#989=AXIS2_PLACEMENT_3D('',#1370,#1090,#1091);
#990=AXIS2_PLACEMENT_3D('',#1372,#1092,#1093);
#991=AXIS2_PLACEMENT_3D('',#1373,#1094,#1095);
#992=AXIS2_PLACEMENT_3D('',#1375,#1096,#1097);
#993=AXIS2_PLACEMENT_3D('',#1377,#1098,#1099);
#994=AXIS2_PLACEMENT_3D('',#1378,#1100,#1101);
#995=AXIS2_PLACEMENT_3D('',#1383,#1103,#1104);
#996=AXIS2_PLACEMENT_3D('',#1385,#1105,#1106);
#997=AXIS2_PLACEMENT_3D('',#1387,#1107,#1108);
#998=AXIS2_PLACEMENT_3D('',#1391,#1110,#1111);
#999=AXIS2_PLACEMENT_3D('',#1392,#1112,#1113);
#1000=AXIS2_PLACEMENT_3D('',#1400,#1118,#1119);
#1001=AXIS2_PLACEMENT_3D('',#1408,#1124,#1125);
#1002=AXIS2_PLACEMENT_3D('',#1418,#1128,#1129);
#1003=AXIS2_PLACEMENT_3D('',#1429,#1132,#1133);
#1004=AXIS2_PLACEMENT_3D('',#1437,#1138,#1139);
#1005=AXIS2_PLACEMENT_3D('',#1445,#1144,#1145);
#1006=AXIS2_PLACEMENT_3D('',#1449,#1147,#1148);
#1007=AXIS2_PLACEMENT_3D('',#1451,#1149,#1150);
#1008=AXIS2_PLACEMENT_3D('',#1455,#1152,#1153);
#1009=AXIS2_PLACEMENT_3D('',#1457,#1154,#1155);
#1010=AXIS2_PLACEMENT_3D('',#1459,#1156,#1157);
#1011=AXIS2_PLACEMENT_3D('',#1460,#1158,#1159);
#1012=AXIS2_PLACEMENT_3D('',#1461,#1160,#1161);
#1013=AXIS2_PLACEMENT_3D('',#1464,#1162,#1163);
#1014=AXIS2_PLACEMENT_3D('',#1466,#1164,#1165);
#1015=AXIS2_PLACEMENT_3D('',#1468,#1166,#1167);
#1016=AXIS2_PLACEMENT_3D('',#1469,#1168,#1169);
#1017=AXIS2_PLACEMENT_3D('',#1477,#1174,#1175);
#1018=AXIS2_PLACEMENT_3D('',#1485,#1180,#1181);
#1019=AXIS2_PLACEMENT_3D('',#1494,#1187,#1188);
#1020=AXIS2_PLACEMENT_3D('',#1497,#1191,#1192);
#1021=AXIS2_PLACEMENT_3D('',#1506,#1198,#1199);
#1022=AXIS2_PLACEMENT_3D('',#1515,#1205,#1206);
#1023=AXIS2_PLACEMENT_3D('',#1518,#1208,#1209);
#1024=AXIS2_PLACEMENT_3D('',#1521,#1211,#1212);
#1025=AXIS2_PLACEMENT_3D('',#1530,#1218,#1219);
#1026=AXIS2_PLACEMENT_3D('',#1531,#1220,#1221);
#1027=AXIS2_PLACEMENT_3D('',#1538,#1222,#1223);
#1028=AXIS2_PLACEMENT_3D('',#1544,#1224,#1225);
#1029=AXIS2_PLACEMENT_3D('',#1545,#1226,#1227);
#1030=AXIS2_PLACEMENT_3D('',#1549,#1230,#1231);
#1031=AXIS2_PLACEMENT_3D('',#1550,#1232,#1233);
#1032=AXIS2_PLACEMENT_3D('',#1554,#1235,#1236);
#1033=AXIS2_PLACEMENT_3D('',#1557,#1238,#1239);
#1034=AXIS2_PLACEMENT_3D('',#1558,#1240,#1241);
#1035=AXIS2_PLACEMENT_3D('',#1559,#1242,#1243);
#1036=AXIS2_PLACEMENT_3D('',#1561,#1245,#1246);
#1037=AXIS2_PLACEMENT_3D('',#1563,#1248,#1249);
#1038=AXIS2_PLACEMENT_3D('',#1564,#1250,#1251);
#1039=AXIS2_PLACEMENT_3D('',#1565,#1252,#1253);
#1040=AXIS2_PLACEMENT_3D('',#1566,#1254,#1255);
#1041=AXIS2_PLACEMENT_3D('',#1572,#1259,#1260);
#1042=AXIS2_PLACEMENT_3D('',#1578,#1264,#1265);
#1043=AXIS2_PLACEMENT_3D('',#1581,#1268,#1269);
#1044=AXIS2_PLACEMENT_3D('',#1582,#1270,#1271);
#1045=AXIS2_PLACEMENT_3D('',#1584,#1272,#1273);
#1046=AXIS2_PLACEMENT_3D('',#1586,#1274,#1275);
#1047=AXIS2_PLACEMENT_3D('',#1587,#1276,#1277);
#1048=AXIS2_PLACEMENT_3D('',#1595,#1282,#1283);
#1049=AXIS2_PLACEMENT_3D('',#1597,#1285,#1286);
#1050=AXIS2_PLACEMENT_3D('',#1598,#1287,#1288);
#1051=AXIS2_PLACEMENT_3D('',#1602,#1291,#1292);
#1052=AXIS2_PLACEMENT_3D('',#1606,#1295,#1296);
#1053=AXIS2_PLACEMENT_3D('',#1608,#1298,#1299);
#1054=AXIS2_PLACEMENT_3D('',#1610,#1301,#1302);
#1055=AXIS2_PLACEMENT_3D('',#1611,#1303,#1304);
#1056=AXIS2_PLACEMENT_3D('',#1613,#1305,#1306);
#1057=AXIS2_PLACEMENT_3D('',#1614,#1307,#1308);
#1058=AXIS2_PLACEMENT_3D('',#1616,#1310,#1311);
#1059=AXIS2_PLACEMENT_3D('',#1621,#1316,#1317);
#1060=AXIS2_PLACEMENT_3D('',#1622,#1318,#1319);
#1061=AXIS2_PLACEMENT_3D('',#1623,#1320,#1321);
#1062=AXIS2_PLACEMENT_3D('',#1624,#1322,#1323);
#1063=AXIS2_PLACEMENT_3D('',#1625,#1324,#1325);
#1064=AXIS2_PLACEMENT_3D('',#1626,#1326,#1327);
#1065=AXIS2_PLACEMENT_3D('',#1627,#1328,#1329);
#1066=AXIS2_PLACEMENT_3D('',#1628,#1330,#1331);
#1067=AXIS2_PLACEMENT_3D('',#1629,#1332,#1333);
#1068=AXIS2_PLACEMENT_3D('',#1630,#1334,#1335);
#1069=AXIS2_PLACEMENT_3D('',#1632,#1336,#1337);
#1070=AXIS2_PLACEMENT_3D('',#1633,#1338,#1339);
#1071=AXIS2_PLACEMENT_3D('',#1635,#1340,#1341);
#1072=AXIS2_PLACEMENT_3D('',#1636,#1342,#1343);
#1073=AXIS2_PLACEMENT_3D('',#1638,#1344,#1345);
#1074=AXIS2_PLACEMENT_3D('',#1639,#1346,#1347);
#1075=AXIS2_PLACEMENT_3D('',#1641,#1348,#1349);
#1076=AXIS2_PLACEMENT_3D('',#1642,#1350,#1351);
#1077=AXIS2_PLACEMENT_3D('',#1644,#1352,#1353);
#1078=AXIS2_PLACEMENT_3D('',#1645,#1354,#1355);
#1079=AXIS2_PLACEMENT_3D('',#1647,#1356,#1357);
#1080=AXIS2_PLACEMENT_3D('',#1649,#1358,#1359);
#1081=AXIS2_PLACEMENT_3D('',#1650,#1360,#1361);
#1082=AXIS2_PLACEMENT_3D('',#1652,#1362,#1363);
#1083=AXIS2_PLACEMENT_3D('',#1653,#1364,#1365);
#1084=DIRECTION('',(0.,0.,1.));
#1085=DIRECTION('',(1.,0.,0.));
#1086=DIRECTION('',(0.,-1.,0.));
#1087=DIRECTION('',(1.,0.,0.));
#1088=DIRECTION('',(0.,1.,0.));
#1089=DIRECTION('',(-1.,0.,0.));
#1090=DIRECTION('',(0.,1.,0.));
#1091=DIRECTION('',(-1.,0.,0.));
#1092=DIRECTION('',(0.,-1.,0.));
#1093=DIRECTION('',(1.,0.,0.));
#1094=DIRECTION('',(0.,1.,0.));
#1095=DIRECTION('',(-1.,0.,0.));
#1096=DIRECTION('',(0.,1.,0.));
#1097=DIRECTION('',(-1.,0.,0.));
#1098=DIRECTION('',(0.,1.,0.));
#1099=DIRECTION('',(-1.,0.,0.));
#1100=DIRECTION('',(3.06161699786839E-16,1.,0.));
#1101=DIRECTION('',(-1.,3.06161699786839E-16,0.));
#1102=DIRECTION('',(0.,1.,0.));
#1103=DIRECTION('',(0.,0.985908599567466,-0.167284886642273));
#1104=DIRECTION('',(0.,0.167284886642273,0.985908599567466));
#1105=DIRECTION('',(0.,-1.,0.));
#1106=DIRECTION('',(1.,0.,4.94183697847122E-16));
#1107=DIRECTION('',(0.,0.985908599567466,-0.167284886642273));
#1108=DIRECTION('',(0.,0.167284886642273,0.985908599567466));
#1109=DIRECTION('',(0.,1.,0.));
#1110=DIRECTION('',(3.06161699786839E-16,1.,0.));
#1111=DIRECTION('',(-1.,3.06161699786839E-16,0.));
#1112=DIRECTION('',(-0.987243537698118,0.,0.159217452791157));
#1113=DIRECTION('',(-0.159217452791157,0.,-0.987243537698118));
#1114=DIRECTION('',(0.159217452791157,-4.87462859822712E-17,0.987243537698118));
#1115=DIRECTION('',(-0.157029564634488,-0.165209533992362,-0.973677321143267));
#1116=DIRECTION('',(0.159217452791157,0.,0.987243537698118));
#1117=DIRECTION('',(0.,1.,0.));
#1118=DIRECTION('',(-0.987243537698118,0.,-0.159217452791157));
#1119=DIRECTION('',(0.159217452791157,0.,-0.987243537698118));
#1120=DIRECTION('',(-0.159217452791157,4.87462859822712E-17,0.987243537698118));
#1121=DIRECTION('',(0.,1.,0.));
#1122=DIRECTION('',(-0.159217452791157,0.,0.987243537698118));
#1123=DIRECTION('',(0.157029564634488,-0.165209533992362,-0.973677321143267));
#1124=DIRECTION('',(1.83697019872103E-16,0.,-1.));
#1125=DIRECTION('',(1.,0.,1.83697019872103E-16));
#1126=DIRECTION('',(-1.,0.,0.));
#1127=DIRECTION('',(0.,1.,0.));
#1128=DIRECTION('',(1.83697019872103E-16,0.,-1.));
#1129=DIRECTION('',(1.,0.,1.83697019872103E-16));
#1130=DIRECTION('',(-1.,0.,0.));
#1131=DIRECTION('',(0.,1.,0.));
#1132=DIRECTION('',(-0.987481221832749,0.,-0.157736604907361));
#1133=DIRECTION('',(0.157736604907361,0.,-0.987481221832749));
#1134=DIRECTION('',(0.15556804344434,-0.165248223056895,-0.973905338642026));
#1135=DIRECTION('',(0.,1.,0.));
#1136=DIRECTION('',(0.15556804344434,0.165248223056895,-0.973905338642026));
#1137=DIRECTION('',(0.,1.,0.));
#1138=DIRECTION('',(-0.987481221832749,0.,0.157736604907361));
#1139=DIRECTION('',(-0.157736604907361,0.,-0.987481221832749));
#1140=DIRECTION('',(-0.15556804344434,-0.165248223056895,-0.973905338642026));
#1141=DIRECTION('',(0.,1.,0.));
#1142=DIRECTION('',(-0.15556804344434,0.165248223056895,-0.973905338642026));
#1143=DIRECTION('',(0.,1.,0.));
#1144=DIRECTION('',(0.,1.,0.));
#1145=DIRECTION('',(-1.,0.,0.));
#1146=DIRECTION('',(0.,1.,0.));
#1147=DIRECTION('',(0.,1.,0.));
#1148=DIRECTION('',(-1.,0.,0.));
#1149=DIRECTION('',(0.,1.,0.));
#1150=DIRECTION('',(-1.,0.,0.));
#1151=DIRECTION('',(0.,1.,0.));
#1152=DIRECTION('',(0.,0.985908599567466,0.167284886642273));
#1153=DIRECTION('',(0.,0.167284886642273,-0.985908599567466));
#1154=DIRECTION('',(0.,-1.,0.));
#1155=DIRECTION('',(1.,0.,4.94183697847122E-16));
#1156=DIRECTION('',(0.,0.985908599567466,0.167284886642273));
#1157=DIRECTION('',(0.,0.167284886642273,-0.985908599567466));
#1158=DIRECTION('',(0.,1.,0.));
#1159=DIRECTION('',(-1.,0.,0.));
#1160=DIRECTION('',(0.,-1.,0.));
#1161=DIRECTION('',(1.,0.,0.));
#1162=DIRECTION('',(0.,0.985908599567466,0.167284886642273));
#1163=DIRECTION('',(0.,0.167284886642273,-0.985908599567466));
#1164=DIRECTION('',(0.,-1.,0.));
#1165=DIRECTION('',(1.,0.,0.));
#1166=DIRECTION('',(0.,0.985908599567466,0.167284886642273));
#1167=DIRECTION('',(0.,0.167284886642273,-0.985908599567466));
#1168=DIRECTION('',(-0.987243537698118,0.,0.159217452791157));
#1169=DIRECTION('',(-0.159217452791157,0.,-0.987243537698118));
#1170=DIRECTION('',(0.159217452791157,0.,0.987243537698118));
#1171=DIRECTION('',(0.,1.,0.));
#1172=DIRECTION('',(0.159217452791157,0.,0.987243537698118));
#1173=DIRECTION('',(-0.157029564634488,0.165209533992362,-0.973677321143267));
#1174=DIRECTION('',(-0.987243537698118,0.,-0.159217452791157));
#1175=DIRECTION('',(0.159217452791157,0.,-0.987243537698118));
#1176=DIRECTION('',(-0.159217452791157,0.,0.987243537698118));
#1177=DIRECTION('',(0.157029564634488,0.165209533992362,-0.973677321143267));
#1178=DIRECTION('',(-0.159217452791157,0.,0.987243537698118));
#1179=DIRECTION('',(0.,1.,0.));
#1180=DIRECTION('',(-1.22464679914735E-16,-1.,0.));
#1181=DIRECTION('',(1.,-1.22464679914735E-16,0.));
#1182=DIRECTION('',(-1.,0.,0.));
#1183=DIRECTION('',(-1.,1.22464679914735E-16,0.));
#1184=DIRECTION('',(0.,0.,-1.));
#1185=DIRECTION('',(-1.,1.22464679914735E-16,0.));
#1186=DIRECTION('',(0.,0.,-1.));
#1187=DIRECTION('',(-1.22464679914735E-16,-1.,0.));
#1188=DIRECTION('',(1.,-1.22464679914735E-16,0.));
#1189=DIRECTION('',(-1.,0.,0.));
#1190=DIRECTION('',(-1.,0.,0.));
#1191=DIRECTION('',(-1.22464679914735E-16,-1.,0.));
#1192=DIRECTION('',(1.,-1.22464679914735E-16,0.));
#1193=DIRECTION('',(-1.,0.,0.));
#1194=DIRECTION('',(0.,0.,-1.));
#1195=DIRECTION('',(1.,0.,0.));
#1196=DIRECTION('',(0.,0.,-1.));
#1197=DIRECTION('',(1.,0.,0.));
#1198=DIRECTION('',(-1.22464679914735E-16,-1.,0.));
#1199=DIRECTION('',(1.,-1.22464679914735E-16,0.));
#1200=DIRECTION('',(-1.,1.22464679914735E-16,0.));
#1201=DIRECTION('',(-1.,0.,0.));
#1202=DIRECTION('',(0.,0.,-1.));
#1203=DIRECTION('',(-1.,1.22464679914735E-16,0.));
#1204=DIRECTION('',(0.,0.,-1.));
#1205=DIRECTION('',(-1.22464679914735E-16,-1.,0.));
#1206=DIRECTION('',(1.,-1.22464679914735E-16,0.));
#1207=DIRECTION('',(-1.,0.,0.));
#1208=DIRECTION('',(0.,-1.,0.));
#1209=DIRECTION('',(1.,0.,0.));
#1210=DIRECTION('',(-1.,0.,0.));
#1211=DIRECTION('',(-1.22464679914735E-16,-1.,0.));
#1212=DIRECTION('',(1.,-1.22464679914735E-16,0.));
#1213=DIRECTION('',(-1.,0.,0.));
#1214=DIRECTION('',(1.,0.,0.));
#1215=DIRECTION('',(0.,0.,-1.));
#1216=DIRECTION('',(1.,0.,0.));
#1217=DIRECTION('',(0.,0.,-1.));
#1218=DIRECTION('',(0.,1.,0.));
#1219=DIRECTION('',(-1.,0.,0.));
#1220=DIRECTION('',(0.,1.,0.));
#1221=DIRECTION('',(-1.,0.,0.));
#1222=DIRECTION('',(0.,1.,0.));
#1223=DIRECTION('',(-1.,0.,0.));
#1224=DIRECTION('',(0.,-1.,0.));
#1225=DIRECTION('',(1.,0.,0.));
#1226=DIRECTION('',(0.,1.,0.));
#1227=DIRECTION('',(-1.,0.,0.));
#1228=DIRECTION('',(1.,0.,1.83697019872103E-16));
#1229=DIRECTION('',(1.,0.,1.83697019872103E-16));
#1230=DIRECTION('',(0.,-1.,0.));
#1231=DIRECTION('',(1.,0.,0.));
#1232=DIRECTION('',(0.,1.,0.));
#1233=DIRECTION('',(-1.,0.,0.));
#1234=DIRECTION('',(1.,0.,1.83697019872103E-16));
#1235=DIRECTION('',(0.,-1.,0.));
#1236=DIRECTION('',(1.,0.,0.));
#1237=DIRECTION('',(1.,0.,1.83697019872103E-16));
#1238=DIRECTION('',(0.,1.,0.));
#1239=DIRECTION('',(-1.,0.,0.));
#1240=DIRECTION('',(0.,1.,0.));
#1241=DIRECTION('',(-1.,0.,0.));
#1242=DIRECTION('',(1.83697019872103E-16,0.,-1.));
#1243=DIRECTION('',(1.,0.,1.83697019872103E-16));
#1244=DIRECTION('',(-1.,0.,0.));
#1245=DIRECTION('',(1.83697019872103E-16,0.,-1.));
#1246=DIRECTION('',(1.,0.,1.83697019872103E-16));
#1247=DIRECTION('',(-1.,0.,0.));
#1248=DIRECTION('',(0.,1.,0.));
#1249=DIRECTION('',(-1.,0.,0.));
#1250=DIRECTION('',(0.,0.985908599567466,-0.167284886642273));
#1251=DIRECTION('',(0.,0.167284886642273,0.985908599567466));
#1252=DIRECTION('',(0.,0.985908599567466,-0.167284886642273));
#1253=DIRECTION('',(0.,0.167284886642273,0.985908599567466));
#1254=DIRECTION('',(-0.833333333333333,-0.552770798392567,0.));
#1255=DIRECTION('',(0.552770798392567,-0.833333333333333,0.));
#1256=DIRECTION('',(0.,0.,-1.));
#1257=DIRECTION('',(-0.552770798392567,0.833333333333333,0.));
#1258=DIRECTION('',(-0.552770798392567,0.833333333333333,0.));
#1259=DIRECTION('',(-1.,1.22464679914735E-16,0.));
#1260=DIRECTION('',(-1.22464679914735E-16,-1.,0.));
#1261=DIRECTION('',(0.,0.,-1.));
#1262=DIRECTION('',(1.22464679914735E-16,1.,0.));
#1263=DIRECTION('',(1.22464679914735E-16,1.,0.));
#1264=DIRECTION('',(-0.833333333333335,0.552770798392565,0.));
#1265=DIRECTION('',(-0.552770798392565,-0.833333333333335,0.));
#1266=DIRECTION('',(0.552770798392565,0.833333333333335,0.));
#1267=DIRECTION('',(0.552770798392565,0.833333333333335,0.));
#1268=DIRECTION('',(0.,0.,-1.));
#1269=DIRECTION('',(0.,1.,0.));
#1270=DIRECTION('',(0.,0.,1.));
#1271=DIRECTION('',(-1.,-1.83697019872103E-16,0.));
#1272=DIRECTION('',(0.,0.,1.));
#1273=DIRECTION('',(-1.,-1.83697019872103E-16,0.));
#1274=DIRECTION('',(0.,0.,-1.));
#1275=DIRECTION('',(1.,0.,0.));
#1276=DIRECTION('',(0.,0.,-1.));
#1277=DIRECTION('',(1.,-3.67394039744206E-16,0.));
#1278=DIRECTION('',(6.12323399573677E-17,1.,0.));
#1279=DIRECTION('',(-0.552770798392565,0.833333333333335,0.));
#1280=DIRECTION('',(6.12323399573677E-17,1.,0.));
#1281=DIRECTION('',(0.552770798392567,0.833333333333333,0.));
#1282=DIRECTION('',(0.,0.,-1.));
#1283=DIRECTION('',(1.,0.,0.));
#1284=DIRECTION('',(1.22464679914735E-16,1.,0.));
#1285=DIRECTION('',(0.,0.,-1.));
#1286=DIRECTION('',(1.,0.,0.));
#1287=DIRECTION('',(-0.833333333333335,-0.552770798392565,0.));
#1288=DIRECTION('',(0.552770798392565,-0.833333333333335,0.));
#1289=DIRECTION('',(0.,0.,-1.));
#1290=DIRECTION('',(-0.552770798392565,0.833333333333335,0.));
#1291=DIRECTION('',(-1.,6.12323399573677E-17,0.));
#1292=DIRECTION('',(-6.12323399573677E-17,-1.,0.));
#1293=DIRECTION('',(0.,0.,-1.));
#1294=DIRECTION('',(6.12323399573677E-17,1.,0.));
#1295=DIRECTION('',(-0.833333333333333,0.552770798392567,0.));
#1296=DIRECTION('',(-0.552770798392567,-0.833333333333333,0.));
#1297=DIRECTION('',(0.552770798392567,0.833333333333333,0.));
#1298=DIRECTION('',(-1.,6.12323399573677E-17,0.));
#1299=DIRECTION('',(-6.12323399573677E-17,-1.,0.));
#1300=DIRECTION('',(6.12323399573677E-17,1.,0.));
#1301=DIRECTION('',(0.,0.,-1.));
#1302=DIRECTION('',(0.,1.,0.));
#1303=DIRECTION('',(0.,0.,-1.));
#1304=DIRECTION('',(1.,-3.67394039744206E-16,0.));
#1305=DIRECTION('',(0.,0.,-1.));
#1306=DIRECTION('',(1.,0.,0.));
#1307=DIRECTION('',(-1.,1.22464679914735E-16,0.));
#1308=DIRECTION('',(-1.22464679914735E-16,-1.,0.));
#1309=DIRECTION('',(1.22464679914735E-16,1.,0.));
#1310=DIRECTION('',(0.,0.,-1.));
#1311=DIRECTION('',(1.,0.,0.));
#1312=DIRECTION('',(1.,0.,0.));
#1313=DIRECTION('',(1.,0.,0.));
#1314=DIRECTION('',(1.,-3.06161699786839E-16,0.));
#1315=DIRECTION('',(1.,-3.06161699786839E-16,0.));
#1316=DIRECTION('',(0.,1.,0.));
#1317=DIRECTION('',(-1.,0.,0.));
#1318=DIRECTION('',(3.06161699786839E-16,1.,0.));
#1319=DIRECTION('',(-1.,3.06161699786839E-16,0.));
#1320=DIRECTION('',(3.06161699786839E-16,1.,0.));
#1321=DIRECTION('',(-1.,3.06161699786839E-16,0.));
#1322=DIRECTION('',(0.,1.,0.));
#1323=DIRECTION('',(-1.,0.,0.));
#1324=DIRECTION('',(0.,0.985908599567466,-0.167284886642273));
#1325=DIRECTION('',(0.,0.167284886642273,0.985908599567466));
#1326=DIRECTION('',(0.,0.985908599567466,-0.167284886642273));
#1327=DIRECTION('',(0.,0.167284886642273,0.985908599567466));
#1328=DIRECTION('',(0.,0.985908599567466,0.167284886642273));
#1329=DIRECTION('',(0.,-0.167284886642273,0.985908599567466));
#1330=DIRECTION('',(0.,0.985908599567466,0.167284886642273));
#1331=DIRECTION('',(0.,-0.167284886642273,0.985908599567466));
#1332=DIRECTION('',(0.,1.,0.));
#1333=DIRECTION('',(-1.,0.,0.));
#1334=DIRECTION('',(0.,-1.,0.));
#1335=DIRECTION('',(1.,0.,-1.20500720938907E-7));
#1336=DIRECTION('',(0.,1.,0.));
#1337=DIRECTION('',(-1.,0.,0.));
#1338=DIRECTION('',(0.,-1.,0.));
#1339=DIRECTION('',(1.,0.,-1.20500720938907E-7));
#1340=DIRECTION('',(0.,-1.,0.));
#1341=DIRECTION('',(1.,0.,0.));
#1342=DIRECTION('',(0.,-1.,0.));
#1343=DIRECTION('',(1.,0.,0.));
#1344=DIRECTION('',(0.,-1.,0.));
#1345=DIRECTION('',(1.,0.,0.));
#1346=DIRECTION('',(0.,-1.,0.));
#1347=DIRECTION('',(1.,0.,0.));
#1348=DIRECTION('',(0.,1.,0.));
#1349=DIRECTION('',(-1.,0.,0.));
#1350=DIRECTION('',(0.,-1.,0.));
#1351=DIRECTION('',(1.,0.,0.));
#1352=DIRECTION('',(0.,1.,0.));
#1353=DIRECTION('',(-1.,0.,0.));
#1354=DIRECTION('',(0.,-1.,0.));
#1355=DIRECTION('',(1.,0.,0.));
#1356=DIRECTION('',(0.,-1.,0.));
#1357=DIRECTION('',(1.,0.,0.));
#1358=DIRECTION('',(0.,1.,0.));
#1359=DIRECTION('',(-1.,0.,0.));
#1360=DIRECTION('',(0.,-1.,0.));
#1361=DIRECTION('',(1.,0.,0.));
#1362=DIRECTION('',(0.,-1.,0.));
#1363=DIRECTION('',(1.,0.,0.));
#1364=DIRECTION('',(0.,-1.,0.));
#1365=DIRECTION('',(1.,0.,0.));
#1366=CARTESIAN_POINT('',(0.,0.,0.));
#1367=CARTESIAN_POINT('',(0.,0.004,0.00934681243697803));
#1368=CARTESIAN_POINT('',(0.,0.004,0.));
#1369=CARTESIAN_POINT('',(-0.0115,0.004,0.));
#1370=CARTESIAN_POINT('',(0.,0.004,0.));
#1371=CARTESIAN_POINT('',(-0.01025,0.004,0.));
#1372=CARTESIAN_POINT('',(0.,-0.001,0.00934681243697803));
#1373=CARTESIAN_POINT('',(0.,-0.001,0.));
#1374=CARTESIAN_POINT('',(-0.0115,-0.001,0.));
#1375=CARTESIAN_POINT('',(0.,-0.001,0.));
#1376=CARTESIAN_POINT('',(-0.01025,-0.001,0.));
#1377=CARTESIAN_POINT('',(3.06161699786838E-19,-0.005,0.));
#1378=CARTESIAN_POINT('',(3.06161699786838E-19,0.0002,0.));
#1379=CARTESIAN_POINT('',(3.06161699786838E-19,0.0002,-0.0145));
#1380=CARTESIAN_POINT('',(0.0135105487736785,0.000199999999999995,-0.0052645105977721));
#1381=CARTESIAN_POINT('',(0.0135105487736785,-0.005,-0.0052645105977721));
#1382=CARTESIAN_POINT('',(0.0135105487736785,-0.00428133970548884,-0.0052645105977721));
#1383=CARTESIAN_POINT('',(3.06161699786838E-19,-0.00338807935766175,0.));
#1384=CARTESIAN_POINT('',(0.0109544511501033,-0.005,-0.0095));
#1385=CARTESIAN_POINT('',(3.06161699786838E-19,-0.005,0.));
#1386=CARTESIAN_POINT('',(-0.0109544511501033,-0.005,-0.0095));
#1387=CARTESIAN_POINT('',(3.06161699786838E-19,-0.00338807935766175,0.));
#1388=CARTESIAN_POINT('',(-0.0135105487736785,-0.00428133970548884,-0.0052645105977721));
#1389=CARTESIAN_POINT('',(-0.0135105487736785,-0.005,-0.0052645105977721));
#1390=CARTESIAN_POINT('',(-0.0135105487736785,0.000200000000000003,-0.0052645105977721));
#1391=CARTESIAN_POINT('',(3.06161699786838E-19,0.0002,0.));
#1392=CARTESIAN_POINT('',(-0.0143327041960929,-0.005,-0.0103623664768431));
#1393=CARTESIAN_POINT('',(-0.0138338150341163,0.000200000000000003,-0.00726895496601416));
#1394=CARTESIAN_POINT('',(-0.015,0.000200000000000004,-0.0145));
#1395=CARTESIAN_POINT('',(-0.0143289081764587,-0.00514232900954941,-0.0103388288822693));
#1396=CARTESIAN_POINT('',(-0.0141936262598265,-0.005,-0.0095));
#1397=CARTESIAN_POINT('',(-0.0143327041960929,-0.005,-0.0103623664768431));
#1398=CARTESIAN_POINT('',(-0.015,-0.005,-0.0145));
#1399=CARTESIAN_POINT('',(-0.015,-0.005,-0.0145));
#1400=CARTESIAN_POINT('',(0.0143310869227901,-0.005,-0.0103523384140337));
#1401=CARTESIAN_POINT('',(0.0138338150341163,0.000199999999999995,-0.00726895496601416));
#1402=CARTESIAN_POINT('',(0.015,0.000199999999999994,-0.0145));
#1403=CARTESIAN_POINT('',(0.015,-0.005,-0.0145));
#1404=CARTESIAN_POINT('',(0.015,-0.005,-0.0145));
#1405=CARTESIAN_POINT('',(0.0143310869227901,-0.005,-0.0103523384140337));
#1406=CARTESIAN_POINT('',(0.0141936262598265,-0.005,-0.0095));
#1407=CARTESIAN_POINT('',(0.0143273350453208,-0.00514067393101183,-0.0103290745273128));
#1408=CARTESIAN_POINT('',(-0.0028166621575327,-0.005,0.00228718077115674));
#1409=CARTESIAN_POINT('',(0.025,-0.003,0.00228718077115674));
#1410=CARTESIAN_POINT('',(0.0143184777165749,-0.003,0.00228718077115674));
#1411=CARTESIAN_POINT('',(0.0133048413789888,-0.003,0.00228718077115674));
#1412=CARTESIAN_POINT('',(0.0143184777165749,-0.005,0.00228718077115674));
#1413=CARTESIAN_POINT('',(0.0143184777165749,0.00149999999999859,0.00228718077115674));
#1414=CARTESIAN_POINT('',(0.0133048413789887,-0.00299999999999998,0.00228718077115674));
#1415=CARTESIAN_POINT('',(0.0139678073668103,-0.00160248845126017,0.00228718077115674));
#1416=CARTESIAN_POINT('',(0.0143184777165747,-4.62354503497659E-5,0.00228718077115674));
#1417=CARTESIAN_POINT('',(0.0143184777165749,0.00149999999999859,0.00228718077115674));
#1418=CARTESIAN_POINT('',(-0.0028166621575327,-0.005,0.00228718077115674));
#1419=CARTESIAN_POINT('',(0.025,-0.003,0.00228718077115674));
#1420=CARTESIAN_POINT('',(-0.0133048413789888,-0.003,0.00228718077115674));
#1421=CARTESIAN_POINT('',(-0.0143184777165749,-0.003,0.00228718077115674));
#1422=CARTESIAN_POINT('',(-0.0143184777165749,0.00150000000000141,0.00228718077115674));
#1423=CARTESIAN_POINT('',(-0.014318477716575,0.000727868764672479,0.00228718077115674));
#1424=CARTESIAN_POINT('',(-0.0141428146494367,-0.000838153186689998,0.00228718077115674));
#1425=CARTESIAN_POINT('',(-0.0136393210972363,-0.00229492722453799,0.00228718077115674));
#1426=CARTESIAN_POINT('',(-0.0133048413789887,-0.00299999999999999,0.00228718077115674));
#1427=CARTESIAN_POINT('',(-0.0143184777165749,0.00150000000000141,0.00228718077115674));
#1428=CARTESIAN_POINT('',(-0.0143184777165749,-0.005,0.00228718077115674));
#1429=CARTESIAN_POINT('',(0.0156311715389228,-0.005,-0.00593069928493881));
#1430=CARTESIAN_POINT('',(0.0156467405267272,-0.0044109136058445,-0.00602816609113007));
#1431=CARTESIAN_POINT('',(0.0162013184584178,-0.005,-0.0095));
#1432=CARTESIAN_POINT('',(0.0162013184584178,0.0015,-0.0095));
#1433=CARTESIAN_POINT('',(0.0162013184584178,0.008,-0.0095));
#1434=CARTESIAN_POINT('',(0.0153125450710601,0.00705592292793949,-0.00393599644485923));
#1435=CARTESIAN_POINT('',(0.0143184777165749,0.006,0.00228718077115674));
#1436=CARTESIAN_POINT('',(0.0143184777165749,-0.005,0.00228718077115674));
#1437=CARTESIAN_POINT('',(-0.0160130760931085,-0.005,-0.00832154303368214));
#1438=CARTESIAN_POINT('',(-0.0160182164227139,-0.00480550448942946,-0.0083537231288633));
#1439=CARTESIAN_POINT('',(-0.0162013184584178,-0.005,-0.0095));
#1440=CARTESIAN_POINT('',(-0.0143184777165749,-0.005,0.00228718077115674));
#1441=CARTESIAN_POINT('',(-0.0143184777165749,0.006,0.00228718077115674));
#1442=CARTESIAN_POINT('',(-0.0156840209670469,0.00745051381152446,-0.00626155348259246));
#1443=CARTESIAN_POINT('',(-0.0162013184584178,0.008,-0.0095));
#1444=CARTESIAN_POINT('',(-0.0162013184584178,0.0015,-0.0095));
#1445=CARTESIAN_POINT('',(3.06161699786838E-19,-0.005,0.));
#1446=CARTESIAN_POINT('',(0.0135105487736785,-0.005,-0.0052645105977721));
#1447=CARTESIAN_POINT('',(0.0135105487736785,0.0028,-0.0052645105977721));
#1448=CARTESIAN_POINT('',(0.0135105487736785,0.00728133970548884,-0.0052645105977721));
#1449=CARTESIAN_POINT('',(3.06161699786838E-19,0.0028,0.));
#1450=CARTESIAN_POINT('',(3.06161699786838E-19,0.0028,-0.0145));
#1451=CARTESIAN_POINT('',(3.06161699786838E-19,0.0028,0.));
#1452=CARTESIAN_POINT('',(-0.0135105487736785,0.0028,-0.0052645105977721));
#1453=CARTESIAN_POINT('',(-0.0135105487736785,-0.005,-0.0052645105977721));
#1454=CARTESIAN_POINT('',(-0.0135105487736785,0.00728133970548884,-0.0052645105977721));
#1455=CARTESIAN_POINT('',(3.06161699786838E-19,0.00638807935766175,0.));
#1456=CARTESIAN_POINT('',(-0.0109544511501033,0.008,-0.0095));
#1457=CARTESIAN_POINT('',(3.06161699786838E-19,0.008,0.));
#1458=CARTESIAN_POINT('',(0.0109544511501033,0.008,-0.0095));
#1459=CARTESIAN_POINT('',(3.06161699786838E-19,0.00638807935766175,0.));
#1460=CARTESIAN_POINT('',(3.06161699786838E-19,-0.005,0.));
#1461=CARTESIAN_POINT('',(3.06161699786838E-19,0.008,0.));
#1462=CARTESIAN_POINT('',(-0.00812403840463596,0.008,-0.0095));
#1463=CARTESIAN_POINT('',(0.00812403840463596,0.008,-0.0095));
#1464=CARTESIAN_POINT('',(3.06161699786838E-19,0.00638807935766175,0.));
#1465=CARTESIAN_POINT('',(-0.0122889708324192,0.006,0.00228718077115674));
#1466=CARTESIAN_POINT('',(3.06161699786838E-19,0.006,0.));
#1467=CARTESIAN_POINT('',(0.0122889708324192,0.006,0.00228718077115674));
#1468=CARTESIAN_POINT('',(3.06161699786838E-19,0.00638807935766175,0.));
#1469=CARTESIAN_POINT('',(-0.0143327041960929,-0.005,-0.0103623664768431));
#1470=CARTESIAN_POINT('',(-0.0138338150341163,0.0028,-0.00726895496601416));
#1471=CARTESIAN_POINT('',(-0.015,0.0028,-0.0145));
#1472=CARTESIAN_POINT('',(-0.015,-0.005,-0.0145));
#1473=CARTESIAN_POINT('',(-0.015,0.008,-0.0145));
#1474=CARTESIAN_POINT('',(-0.0143327041960929,0.008,-0.0103623664768431));
#1475=CARTESIAN_POINT('',(-0.0141936262598265,0.008,-0.0095));
#1476=CARTESIAN_POINT('',(-0.0139916520209069,0.00778750453796375,-0.00824763878796416));
#1477=CARTESIAN_POINT('',(0.0143310869227901,-0.005,-0.0103523384140337));
#1478=CARTESIAN_POINT('',(0.0138338150341163,0.0028,-0.00726895496601416));
#1479=CARTESIAN_POINT('',(0.015,0.0028,-0.0145));
#1480=CARTESIAN_POINT('',(0.0139900788897691,0.00778584945942618,-0.00823788443300771));
#1481=CARTESIAN_POINT('',(0.0141936262598265,0.008,-0.0095));
#1482=CARTESIAN_POINT('',(0.0143310869227901,0.008,-0.0103523384140337));
#1483=CARTESIAN_POINT('',(0.015,0.008,-0.0145));
#1484=CARTESIAN_POINT('',(0.015,-0.005,-0.0145));
#1485=CARTESIAN_POINT('',(0.0188421028226614,0.008,-0.0095));
#1486=CARTESIAN_POINT('',(0.025,0.008,-0.0095));
#1487=CARTESIAN_POINT('',(0.0188421028226614,0.008,-0.0095));
#1488=CARTESIAN_POINT('',(0.0258416876048223,0.008,-0.0095));
#1489=CARTESIAN_POINT('',(0.0258416876048223,0.008,-0.0095));
#1490=CARTESIAN_POINT('',(0.0258416876048223,0.008,-0.0155));
#1491=CARTESIAN_POINT('',(0.0188421028226614,0.008,-0.0155));
#1492=CARTESIAN_POINT('',(0.015,0.008,-0.0155));
#1493=CARTESIAN_POINT('',(0.015,0.008,-0.0095));
#1494=CARTESIAN_POINT('',(0.0188421028226614,0.008,-0.0095));
#1495=CARTESIAN_POINT('',(0.025,0.008,-0.0095));
#1496=CARTESIAN_POINT('',(0.025,0.008,-0.0095));
#1497=CARTESIAN_POINT('',(0.0188421028226614,0.008,-0.0095));
#1498=CARTESIAN_POINT('',(0.025,0.008,-0.0095));
#1499=CARTESIAN_POINT('',(-0.015,0.008,-0.0095));
#1500=CARTESIAN_POINT('',(-0.015,0.008,-0.0155));
#1501=CARTESIAN_POINT('',(-0.0069421028226614,0.008,-0.0155));
#1502=CARTESIAN_POINT('',(-0.0258416876048223,0.008,-0.0155));
#1503=CARTESIAN_POINT('',(-0.0258416876048223,0.008,-0.0095));
#1504=CARTESIAN_POINT('',(-0.0258416876048223,0.008,-0.0095));
#1505=CARTESIAN_POINT('',(-0.0069421028226614,0.008,-0.0095));
#1506=CARTESIAN_POINT('',(0.0231335786923238,-0.005,-0.0095));
#1507=CARTESIAN_POINT('',(0.0231335786923238,-0.005,-0.0095));
#1508=CARTESIAN_POINT('',(0.0258416876048223,-0.005,-0.0095));
#1509=CARTESIAN_POINT('',(0.025,-0.005,-0.0095));
#1510=CARTESIAN_POINT('',(0.015,-0.005,-0.0095));
#1511=CARTESIAN_POINT('',(0.015,-0.005,-0.0155));
#1512=CARTESIAN_POINT('',(0.0231335786923238,-0.005,-0.0155));
#1513=CARTESIAN_POINT('',(0.0258416876048223,-0.005,-0.0155));
#1514=CARTESIAN_POINT('',(0.0258416876048223,-0.005,-0.0095));
#1515=CARTESIAN_POINT('',(0.0231335786923238,-0.005,-0.0095));
#1516=CARTESIAN_POINT('',(0.025,-0.005,-0.0095));
#1517=CARTESIAN_POINT('',(0.00812403840463596,-0.005,-0.0095));
#1518=CARTESIAN_POINT('',(3.06161699786838E-19,-0.005,0.));
#1519=CARTESIAN_POINT('',(-0.00812403840463599,-0.005,-0.0095));
#1520=CARTESIAN_POINT('',(0.025,-0.005,-0.0095));
#1521=CARTESIAN_POINT('',(0.0231335786923238,-0.005,-0.0095));
#1522=CARTESIAN_POINT('',(0.025,-0.005,-0.0095));
#1523=CARTESIAN_POINT('',(-0.0112335786923238,-0.005,-0.0095));
#1524=CARTESIAN_POINT('',(-0.0258416876048223,-0.005,-0.0095));
#1525=CARTESIAN_POINT('',(-0.0258416876048223,-0.005,-0.0095));
#1526=CARTESIAN_POINT('',(-0.0258416876048223,-0.005,-0.0155));
#1527=CARTESIAN_POINT('',(-0.0112335786923238,-0.005,-0.0155));
#1528=CARTESIAN_POINT('',(-0.015,-0.005,-0.0155));
#1529=CARTESIAN_POINT('',(-0.015,-0.005,-0.0095));
#1530=CARTESIAN_POINT('',(0.,0.0015,0.));
#1531=CARTESIAN_POINT('',(0.,-0.003,0.));
#1532=CARTESIAN_POINT('',(0.0143184777165749,0.00149999999999859,0.00228718077115674));
#1533=CARTESIAN_POINT('',(0.014318477716575,0.00227213123532752,0.00228718077115674));
#1534=CARTESIAN_POINT('',(0.0141428146494367,0.00383815318668999,0.00228718077115674));
#1535=CARTESIAN_POINT('',(0.0136393210972363,0.00529492722453799,0.00228718077115674));
#1536=CARTESIAN_POINT('',(0.0133048413789887,0.00599999999999998,0.00228718077115674));
#1537=CARTESIAN_POINT('',(0.0133048413789888,0.006,0.00228718077115674));
#1538=CARTESIAN_POINT('',(0.,0.006,0.));
#1539=CARTESIAN_POINT('',(-0.0133048413789888,0.006,0.00228718077115674));
#1540=CARTESIAN_POINT('',(-0.0133048413789887,0.00599999999999998,0.00228718077115674));
#1541=CARTESIAN_POINT('',(-0.0139678073668103,0.00460248845126017,0.00228718077115674));
#1542=CARTESIAN_POINT('',(-0.0143184777165747,0.00304623545034977,0.00228718077115674));
#1543=CARTESIAN_POINT('',(-0.0143184777165749,0.00150000000000141,0.00228718077115674));
#1544=CARTESIAN_POINT('',(0.,0.006,0.0174926457703114));
#1545=CARTESIAN_POINT('',(0.,0.006,0.));
#1546=CARTESIAN_POINT('',(-0.0115,0.006,0.));
#1547=CARTESIAN_POINT('',(2.79319860611427E-18,0.006,0.00228718077115674));
#1548=CARTESIAN_POINT('',(2.79319860611427E-18,0.006,0.00228718077115674));
#1549=CARTESIAN_POINT('',(0.,-0.003,0.0174926457703114));
#1550=CARTESIAN_POINT('',(0.,-0.003,0.));
#1551=CARTESIAN_POINT('',(-0.0115,-0.003,0.));
#1552=CARTESIAN_POINT('',(2.79319860611427E-18,-0.003,0.00228718077115674));
#1553=CARTESIAN_POINT('',(-0.0122889708324192,-0.003,0.00228718077115674));
#1554=CARTESIAN_POINT('',(3.06161699786838E-19,-0.003,0.));
#1555=CARTESIAN_POINT('',(0.0122889708324192,-0.003,0.00228718077115675));
#1556=CARTESIAN_POINT('',(2.79319860611427E-18,-0.003,0.00228718077115674));
#1557=CARTESIAN_POINT('',(0.,-0.00387659786641598,0.));
#1558=CARTESIAN_POINT('',(0.,-0.00387659786641598,0.));
#1559=CARTESIAN_POINT('',(-0.0028166621575327,-0.005,0.00228718077115674));
#1560=CARTESIAN_POINT('',(0.025,0.006,0.00228718077115674));
#1561=CARTESIAN_POINT('',(-0.0028166621575327,-0.005,0.00228718077115674));
#1562=CARTESIAN_POINT('',(0.025,0.006,0.00228718077115674));
#1563=CARTESIAN_POINT('',(3.06161699786838E-19,-0.005,0.));
#1564=CARTESIAN_POINT('',(3.06161699786838E-19,-0.00338807935766175,0.));
#1565=CARTESIAN_POINT('',(3.06161699786838E-19,-0.00338807935766175,0.));
#1566=CARTESIAN_POINT('',(0.0273572475315747,0.00571520744348358,-0.0095));
#1567=CARTESIAN_POINT('',(0.0275,0.0055,-0.0095));
#1568=CARTESIAN_POINT('',(0.0275,0.0055,-0.0095));
#1569=CARTESIAN_POINT('',(0.0275,0.0055,-0.0155));
#1570=CARTESIAN_POINT('',(0.0273572475315747,0.00571520744348358,-0.0155));
#1571=CARTESIAN_POINT('',(0.0273572475315747,0.00571520744348358,-0.0095));
#1572=CARTESIAN_POINT('',(0.0275,-0.00533136986298068,-0.0095));
#1573=CARTESIAN_POINT('',(0.0275,-0.0025,-0.0095));
#1574=CARTESIAN_POINT('',(0.0275,-0.0025,-0.0095));
#1575=CARTESIAN_POINT('',(0.0275,-0.0025,-0.0155));
#1576=CARTESIAN_POINT('',(0.0275,-0.00533136986298068,-0.0155));
#1577=CARTESIAN_POINT('',(0.0275,-0.00533136986298068,-0.0095));
#1578=CARTESIAN_POINT('',(0.0250380357734096,-0.00621155072130805,-0.0095));
#1579=CARTESIAN_POINT('',(0.0250380357734096,-0.00621155072130805,-0.0155));
#1580=CARTESIAN_POINT('',(0.0250380357734096,-0.00621155072130805,-0.0095));
#1581=CARTESIAN_POINT('',(0.021,0.0015,-0.0095));
#1582=CARTESIAN_POINT('',(0.021,0.0015,-0.0095));
#1583=CARTESIAN_POINT('',(0.0187,0.0015,-0.0095));
#1584=CARTESIAN_POINT('',(0.021,0.0015,-0.0155));
#1585=CARTESIAN_POINT('',(0.0187,0.0015,-0.0155));
#1586=CARTESIAN_POINT('',(0.,0.0015,-0.0155));
#1587=CARTESIAN_POINT('',(-0.021,0.0015,-0.0155));
#1588=CARTESIAN_POINT('',(-0.0187,0.0015,-0.0155));
#1589=CARTESIAN_POINT('',(-0.015,0.00372903399146164,-0.0155));
#1590=CARTESIAN_POINT('',(-0.0264490559203234,-0.00408435781269668,-0.0155));
#1591=CARTESIAN_POINT('',(-0.0275,-0.0025,-0.0155));
#1592=CARTESIAN_POINT('',(-0.0275,0.00325039562085129,-0.0155));
#1593=CARTESIAN_POINT('',(-0.0275,0.0055,-0.0155));
#1594=CARTESIAN_POINT('',(-0.0262144394193085,0.00743805549610238,-0.0155));
#1595=CARTESIAN_POINT('',(0.,0.0015,-0.0155));
#1596=CARTESIAN_POINT('',(0.015,-0.00485273149237036,-0.0155));
#1597=CARTESIAN_POINT('',(0.,0.0015,-0.0095));
#1598=CARTESIAN_POINT('',(-0.0264490559203234,-0.00408435781269668,-0.0095));
#1599=CARTESIAN_POINT('',(-0.0275,-0.0025,-0.0095));
#1600=CARTESIAN_POINT('',(-0.0275,-0.0025,-0.0095));
#1601=CARTESIAN_POINT('',(-0.0264490559203234,-0.00408435781269668,-0.0095));
#1602=CARTESIAN_POINT('',(-0.0275,0.00325039562085129,-0.0095));
#1603=CARTESIAN_POINT('',(-0.0275,0.0055,-0.0095));
#1604=CARTESIAN_POINT('',(-0.0275,0.0055,-0.0095));
#1605=CARTESIAN_POINT('',(-0.0275,0.00325039562085129,-0.0095));
#1606=CARTESIAN_POINT('',(-0.0262144394193085,0.00743805549610238,-0.0095));
#1607=CARTESIAN_POINT('',(-0.0262144394193085,0.00743805549610238,-0.0095));
#1608=CARTESIAN_POINT('',(-0.015,0.00372903399146164,-0.0095));
#1609=CARTESIAN_POINT('',(-0.015,0.00372903399146164,-0.0145));
#1610=CARTESIAN_POINT('',(-0.021,0.0015,-0.0095));
#1611=CARTESIAN_POINT('',(-0.021,0.0015,-0.0095));
#1612=CARTESIAN_POINT('',(-0.0187,0.0015,-0.0095));
#1613=CARTESIAN_POINT('',(0.,0.0015,-0.0095));
#1614=CARTESIAN_POINT('',(0.015,-0.00485273149237036,-0.0095));
#1615=CARTESIAN_POINT('',(0.015,-0.00485273149237036,-0.0145));
#1616=CARTESIAN_POINT('',(0.,0.0015,-0.0145));
#1617=CARTESIAN_POINT('',(9.72005738615738E-20,0.0028,-0.0145));
#1618=CARTESIAN_POINT('',(9.72005738615738E-20,0.0028,-0.0145));
#1619=CARTESIAN_POINT('',(4.95210783584464E-19,0.0002,-0.0145));
#1620=CARTESIAN_POINT('',(4.95210783584464E-19,0.0002,-0.0145));
#1621=CARTESIAN_POINT('',(9.72005738615738E-20,0.0028,-0.0095));
#1622=CARTESIAN_POINT('',(4.95210783584464E-19,0.0002,-0.0095));
#1623=CARTESIAN_POINT('',(4.95210783584464E-19,0.0002,-0.0095));
#1624=CARTESIAN_POINT('',(9.72005738615738E-20,0.0028,-0.0095));
#1625=CARTESIAN_POINT('',(0.025,-0.004,-0.00360640961442163));
#1626=CARTESIAN_POINT('',(0.025,-0.004,-0.00360640961442163));
#1627=CARTESIAN_POINT('',(0.025,0.00695331578401752,-0.00333127196794902));
#1628=CARTESIAN_POINT('',(0.025,0.00695331578401752,-0.00333127196794902));
#1629=CARTESIAN_POINT('',(0.,-0.0025,0.));
#1630=CARTESIAN_POINT('',(0.,-0.0025,0.));
#1631=CARTESIAN_POINT('',(0.01025,-0.0025,-1.2351323896238E-9));
#1632=CARTESIAN_POINT('',(0.,-0.0025,0.));
#1633=CARTESIAN_POINT('',(0.,0.0055,0.));
#1634=CARTESIAN_POINT('',(0.01025,0.0055,-1.2351323896238E-9));
#1635=CARTESIAN_POINT('',(0.,-0.0025,-1.7347234759768E-18));
#1636=CARTESIAN_POINT('',(0.,-0.0025,0.));
#1637=CARTESIAN_POINT('',(0.005,-0.0025,0.));
#1638=CARTESIAN_POINT('',(0.,0.0055,-1.7347234759768E-18));
#1639=CARTESIAN_POINT('',(0.,0.0055,0.));
#1640=CARTESIAN_POINT('',(0.005,0.0055,0.));
#1641=CARTESIAN_POINT('',(0.,-0.0065,0.));
#1642=CARTESIAN_POINT('',(0.,-0.0065,0.));
#1643=CARTESIAN_POINT('',(0.005,-0.0065,0.));
#1644=CARTESIAN_POINT('',(0.,-0.0065,0.));
#1645=CARTESIAN_POINT('',(0.,-0.0065,0.));
#1646=CARTESIAN_POINT('',(0.004,-0.0065,0.));
#1647=CARTESIAN_POINT('',(0.,0.0065,0.));
#1648=CARTESIAN_POINT('',(0.004,0.0065,0.));
#1649=CARTESIAN_POINT('',(0.,-0.0065,0.));
#1650=CARTESIAN_POINT('',(0.,0.0065,0.));
#1651=CARTESIAN_POINT('',(0.005,0.0065,0.));
#1652=CARTESIAN_POINT('',(0.,-0.0065,-1.7347234759768E-18));
#1653=CARTESIAN_POINT('',(0.,0.0065,-1.7347234759768E-18));
#1654=MECHANICAL_DESIGN_GEOMETRIC_PRESENTATION_REPRESENTATION('',(#975),
#1655);
#1655=(
GEOMETRIC_REPRESENTATION_CONTEXT(3)
GLOBAL_UNCERTAINTY_ASSIGNED_CONTEXT((#1656))
GLOBAL_UNIT_ASSIGNED_CONTEXT((#1659,#1658,#1657))
REPRESENTATION_CONTEXT('8mm Pillow Block (KP08)',
'TOP_LEVEL_ASSEMBLY_PART')
);
#1656=UNCERTAINTY_MEASURE_WITH_UNIT(LENGTH_MEASURE(2.E-5),#1659,
'DISTANCE_ACCURACY_VALUE','Maximum Tolerance applied to model');
#1657=(
NAMED_UNIT(*)
SI_UNIT($,.STERADIAN.)
SOLID_ANGLE_UNIT()
);
#1658=(
NAMED_UNIT(*)
PLANE_ANGLE_UNIT()
SI_UNIT($,.RADIAN.)
);
#1659=(
LENGTH_UNIT()
NAMED_UNIT(*)
SI_UNIT($,.METRE.)
);
#1660=PRODUCT_DEFINITION_SHAPE('','',#1661);
#1661=PRODUCT_DEFINITION('','',#1663,#1662);
#1662=PRODUCT_DEFINITION_CONTEXT('',#1669,'design');
#1663=PRODUCT_DEFINITION_FORMATION_WITH_SPECIFIED_SOURCE('','',#1665,
 .NOT_KNOWN.);
#1664=PRODUCT_RELATED_PRODUCT_CATEGORY('','',(#1665));
#1665=PRODUCT('8mm Pillow Block (KP08)','8mm Pillow Block (KP08)',
'8mm Pillow Block (KP08)',(#1667));
#1666=PRODUCT_CATEGORY('','');
#1667=PRODUCT_CONTEXT('',#1669,'mechanical');
#1668=APPLICATION_PROTOCOL_DEFINITION('international standard',
'ap242_managed_model_based_3d_engineering',2020,#1669);
#1669=APPLICATION_CONTEXT('managed model based 3d engineering');
ENDSEC;
END-ISO-10303-21;
