ISO-10303-21;
HEADER;
/* Generated by software containing ST-Developer
 * from STEP Tools, Inc. (www.steptools.com) 
 */
/* OPTION: using custom renumber hook */

FILE_DESCRIPTION(
/* description */ ('STEP AP242 Edition 2',
'CAx-IF Rec.Pracs.---Representation and Presentation of Product Manufa
cturing Information (PMI)---4.0---2014-10-13',
'CAx-IF Rec.Pracs.---3D Tessellated Geometry---0.4---2014-09-14','2;1',
'CAx-IF Rec.Pracs.---User Defined Attributes---1.5---2016-08-15'),
/* implementation_level */ '2;1');

FILE_NAME(
/* name */ 'dc motor',
/* time_stamp */ '2026-07-06T14:15:00Z',
/* author */ (''),
/* organization */ (''),
/* preprocessor_version */ 'ST-DEVELOPER v20',
/* originating_system */ 'ONSHAPE BY PTC INC, 1.217',
/* authorisation */ '  ');

FILE_SCHEMA (('AP242_MANAGED_MODEL_BASED_3D_ENGINEERING_MIM_LF { 1 0 10303 442 3 1 4 }'));
ENDSEC;

DATA;
#10=SHAPE_REPRESENTATION_RELATIONSHIP('','',#671,#11);
#11=ADVANCED_BREP_SHAPE_REPRESENTATION('',(#669),#1161);
#12=B_SPLINE_SURFACE_WITH_KNOTS('',3,1,((#1081,#1082),(#1083,#1084),(#1085,
#1086),(#1087,#1088)),.SURF_OF_LINEAR_EXTRUSION.,.F.,.F.,.F.,(4,4),(2,2),
(0.5,1.),(0.,1.),.PIECEWISE_BEZIER_KNOTS.);
#13=B_SPLINE_SURFACE_WITH_KNOTS('',3,1,((#1090,#1091),(#1092,#1093),(#1094,
#1095),(#1096,#1097)),.SURF_OF_LINEAR_EXTRUSION.,.F.,.F.,.F.,(4,4),(2,2),
(0.,0.5),(0.,1.),.PIECEWISE_BEZIER_KNOTS.);
#14=B_SPLINE_SURFACE_WITH_KNOTS('',3,1,((#1098,#1099),(#1100,#1101),(#1102,
#1103),(#1104,#1105)),.SURF_OF_LINEAR_EXTRUSION.,.F.,.F.,.F.,(4,4),(2,2),
(0.,0.5),(0.,1.),.PIECEWISE_BEZIER_KNOTS.);
#15=B_SPLINE_SURFACE_WITH_KNOTS('',3,1,((#1107,#1108),(#1109,#1110),(#1111,
#1112),(#1113,#1114)),.SURF_OF_LINEAR_EXTRUSION.,.F.,.F.,.F.,(4,4),(2,2),
(0.5,1.),(0.,1.),.PIECEWISE_BEZIER_KNOTS.);
#16=B_SPLINE_SURFACE_WITH_KNOTS('',3,1,((#1115,#1116),(#1117,#1118),(#1119,
#1120),(#1121,#1122),(#1123,#1124)),.SURF_OF_LINEAR_EXTRUSION.,.F.,.F.,
 .F.,(4,1,4),(2,2),(0.,0.5,1.),(0.,1.),.UNSPECIFIED.);
#17=B_SPLINE_SURFACE_WITH_KNOTS('',3,1,((#1138,#1139),(#1140,#1141),(#1142,
#1143),(#1144,#1145),(#1146,#1147)),.SURF_OF_LINEAR_EXTRUSION.,.F.,.F.,
 .F.,(4,1,4),(2,2),(0.,0.5,1.),(0.,1.),.UNSPECIFIED.);
#18=CYLINDRICAL_SURFACE('',#693,0.004221);
#19=CYLINDRICAL_SURFACE('',#694,0.004221);
#20=CYLINDRICAL_SURFACE('',#696,0.0027);
#21=CYLINDRICAL_SURFACE('',#699,0.0027);
#22=CYLINDRICAL_SURFACE('',#701,0.00097);
#23=CYLINDRICAL_SURFACE('',#706,0.0015);
#24=CYLINDRICAL_SURFACE('',#707,0.0015);
#25=CYLINDRICAL_SURFACE('',#719,0.0015);
#26=CYLINDRICAL_SURFACE('',#723,0.0005);
#27=CYLINDRICAL_SURFACE('',#724,0.0005);
#28=CIRCLE('',#678,0.0015);
#29=CIRCLE('',#679,0.0015);
#30=CIRCLE('',#680,0.004221);
#31=CIRCLE('',#681,0.004221);
#32=CIRCLE('',#682,0.0027);
#33=CIRCLE('',#683,0.0027);
#34=CIRCLE('',#687,0.0015);
#35=CIRCLE('',#688,0.0015);
#36=CIRCLE('',#689,0.004221);
#37=CIRCLE('',#690,0.004221);
#38=CIRCLE('',#697,0.0027);
#39=CIRCLE('',#700,0.0027);
#40=CIRCLE('',#702,0.00097);
#41=CIRCLE('',#703,0.00097);
#42=CIRCLE('',#709,0.0015);
#43=CIRCLE('',#710,0.0005);
#44=CIRCLE('',#711,0.0005);
#45=CIRCLE('',#714,0.0015);
#46=CIRCLE('',#715,0.0005);
#47=CIRCLE('',#716,0.0005);
#48=LINE('',#900,#104);
#49=LINE('',#912,#105);
#50=LINE('',#913,#106);
#51=LINE('',#922,#107);
#52=LINE('',#936,#108);
#53=LINE('',#938,#109);
#54=LINE('',#940,#110);
#55=LINE('',#948,#111);
#56=LINE('',#950,#112);
#57=LINE('',#957,#113);
#58=LINE('',#963,#114);
#59=LINE('',#967,#115);
#60=LINE('',#971,#116);
#61=LINE('',#972,#117);
#62=LINE('',#973,#118);
#63=LINE('',#977,#119);
#64=LINE('',#981,#120);
#65=LINE('',#988,#121);
#66=LINE('',#990,#122);
#67=LINE('',#992,#123);
#68=LINE('',#995,#124);
#69=LINE('',#997,#125);
#70=LINE('',#999,#126);
#71=LINE('',#1000,#127);
#72=LINE('',#1002,#128);
#73=LINE('',#1004,#129);
#74=LINE('',#1012,#130);
#75=LINE('',#1013,#131);
#76=LINE('',#1014,#132);
#77=LINE('',#1015,#133);
#78=LINE('',#1019,#134);
#79=LINE('',#1021,#135);
#80=LINE('',#1025,#136);
#81=LINE('',#1027,#137);
#82=LINE('',#1029,#138);
#83=LINE('',#1031,#139);
#84=LINE('',#1035,#140);
#85=LINE('',#1037,#141);
#86=LINE('',#1052,#142);
#87=LINE('',#1056,#143);
#88=LINE('',#1060,#144);
#89=LINE('',#1062,#145);
#90=LINE('',#1064,#146);
#91=LINE('',#1068,#147);
#92=LINE('',#1072,#148);
#93=LINE('',#1076,#149);
#94=LINE('',#1078,#150);
#95=LINE('',#1079,#151);
#96=LINE('',#1089,#152);
#97=LINE('',#1106,#153);
#98=LINE('',#1125,#154);
#99=LINE('',#1133,#155);
#100=LINE('',#1135,#156);
#101=LINE('',#1137,#157);
#102=LINE('',#1148,#158);
#103=LINE('',#1156,#159);
#104=VECTOR('',#729,1.);
#105=VECTOR('',#730,1.);
#106=VECTOR('',#731,1.);
#107=VECTOR('',#732,1.);
#108=VECTOR('',#735,1.);
#109=VECTOR('',#736,1.);
#110=VECTOR('',#739,1.);
#111=VECTOR('',#740,1.);
#112=VECTOR('',#743,1.);
#113=VECTOR('',#744,1.);
#114=VECTOR('',#751,1.);
#115=VECTOR('',#754,1.);
#116=VECTOR('',#757,1.);
#117=VECTOR('',#758,1.);
#118=VECTOR('',#759,1.);
#119=VECTOR('',#762,1.);
#120=VECTOR('',#765,1.);
#121=VECTOR('',#768,1.);
#122=VECTOR('',#769,1.);
#123=VECTOR('',#772,1.);
#124=VECTOR('',#773,1.);
#125=VECTOR('',#774,1.);
#126=VECTOR('',#775,1.);
#127=VECTOR('',#776,1.);
#128=VECTOR('',#777,1.);
#129=VECTOR('',#778,1.);
#130=VECTOR('',#787,1.);
#131=VECTOR('',#788,1.);
#132=VECTOR('',#789,1.);
#133=VECTOR('',#790,1.);
#134=VECTOR('',#795,1.);
#135=VECTOR('',#798,1.);
#136=VECTOR('',#805,1.);
#137=VECTOR('',#806,1.);
#138=VECTOR('',#807,1.);
#139=VECTOR('',#810,1.);
#140=VECTOR('',#815,1.);
#141=VECTOR('',#816,1.);
#142=VECTOR('',#839,1.);
#143=VECTOR('',#842,1.);
#144=VECTOR('',#845,1.);
#145=VECTOR('',#848,1.);
#146=VECTOR('',#849,1.);
#147=VECTOR('',#854,1.);
#148=VECTOR('',#857,1.);
#149=VECTOR('',#862,1.);
#150=VECTOR('',#865,1.);
#151=VECTOR('',#866,1.);
#152=VECTOR('',#869,1.);
#153=VECTOR('',#870,1.);
#154=VECTOR('',#871,1.);
#155=VECTOR('',#872,1.);
#156=VECTOR('',#875,1.);
#157=VECTOR('',#876,1.);
#158=VECTOR('',#877,1.);
#159=VECTOR('',#880,1.);
#160=ORIENTED_EDGE('',*,*,#336,.F.);
#161=ORIENTED_EDGE('',*,*,#337,.F.);
#162=ORIENTED_EDGE('',*,*,#338,.T.);
#163=ORIENTED_EDGE('',*,*,#339,.T.);
#164=ORIENTED_EDGE('',*,*,#340,.T.);
#165=ORIENTED_EDGE('',*,*,#341,.F.);
#166=ORIENTED_EDGE('',*,*,#342,.F.);
#167=ORIENTED_EDGE('',*,*,#343,.T.);
#168=ORIENTED_EDGE('',*,*,#344,.T.);
#169=ORIENTED_EDGE('',*,*,#345,.F.);
#170=ORIENTED_EDGE('',*,*,#346,.F.);
#171=ORIENTED_EDGE('',*,*,#347,.F.);
#172=ORIENTED_EDGE('',*,*,#348,.F.);
#173=ORIENTED_EDGE('',*,*,#349,.T.);
#174=ORIENTED_EDGE('',*,*,#350,.T.);
#175=ORIENTED_EDGE('',*,*,#351,.F.);
#176=ORIENTED_EDGE('',*,*,#352,.T.);
#177=ORIENTED_EDGE('',*,*,#353,.T.);
#178=ORIENTED_EDGE('',*,*,#354,.T.);
#179=ORIENTED_EDGE('',*,*,#355,.F.);
#180=ORIENTED_EDGE('',*,*,#356,.F.);
#181=ORIENTED_EDGE('',*,*,#357,.T.);
#182=ORIENTED_EDGE('',*,*,#358,.T.);
#183=ORIENTED_EDGE('',*,*,#359,.F.);
#184=ORIENTED_EDGE('',*,*,#360,.T.);
#185=ORIENTED_EDGE('',*,*,#361,.F.);
#186=ORIENTED_EDGE('',*,*,#351,.T.);
#187=ORIENTED_EDGE('',*,*,#362,.F.);
#188=ORIENTED_EDGE('',*,*,#341,.T.);
#189=ORIENTED_EDGE('',*,*,#363,.T.);
#190=ORIENTED_EDGE('',*,*,#348,.T.);
#191=ORIENTED_EDGE('',*,*,#364,.F.);
#192=ORIENTED_EDGE('',*,*,#365,.T.);
#193=ORIENTED_EDGE('',*,*,#366,.F.);
#194=ORIENTED_EDGE('',*,*,#367,.F.);
#195=ORIENTED_EDGE('',*,*,#368,.F.);
#196=ORIENTED_EDGE('',*,*,#369,.T.);
#197=ORIENTED_EDGE('',*,*,#370,.F.);
#198=ORIENTED_EDGE('',*,*,#371,.F.);
#199=ORIENTED_EDGE('',*,*,#372,.T.);
#200=ORIENTED_EDGE('',*,*,#373,.T.);
#201=ORIENTED_EDGE('',*,*,#374,.F.);
#202=ORIENTED_EDGE('',*,*,#359,.T.);
#203=ORIENTED_EDGE('',*,*,#375,.T.);
#204=ORIENTED_EDGE('',*,*,#376,.F.);
#205=ORIENTED_EDGE('',*,*,#377,.T.);
#206=ORIENTED_EDGE('',*,*,#378,.F.);
#207=ORIENTED_EDGE('',*,*,#379,.F.);
#208=ORIENTED_EDGE('',*,*,#376,.T.);
#209=ORIENTED_EDGE('',*,*,#380,.T.);
#210=ORIENTED_EDGE('',*,*,#381,.F.);
#211=ORIENTED_EDGE('',*,*,#369,.F.);
#212=ORIENTED_EDGE('',*,*,#382,.F.);
#213=ORIENTED_EDGE('',*,*,#338,.F.);
#214=ORIENTED_EDGE('',*,*,#383,.T.);
#215=ORIENTED_EDGE('',*,*,#352,.F.);
#216=ORIENTED_EDGE('',*,*,#384,.T.);
#217=ORIENTED_EDGE('',*,*,#385,.T.);
#218=ORIENTED_EDGE('',*,*,#361,.T.);
#219=ORIENTED_EDGE('',*,*,#386,.T.);
#220=ORIENTED_EDGE('',*,*,#384,.F.);
#221=ORIENTED_EDGE('',*,*,#354,.F.);
#222=ORIENTED_EDGE('',*,*,#349,.F.);
#223=ORIENTED_EDGE('',*,*,#381,.T.);
#224=ORIENTED_EDGE('',*,*,#387,.T.);
#225=ORIENTED_EDGE('',*,*,#357,.F.);
#226=ORIENTED_EDGE('',*,*,#347,.T.);
#227=ORIENTED_EDGE('',*,*,#370,.T.);
#228=ORIENTED_EDGE('',*,*,#360,.F.);
#229=ORIENTED_EDGE('',*,*,#377,.F.);
#230=ORIENTED_EDGE('',*,*,#385,.F.);
#231=ORIENTED_EDGE('',*,*,#386,.F.);
#232=ORIENTED_EDGE('',*,*,#358,.F.);
#233=ORIENTED_EDGE('',*,*,#387,.F.);
#234=ORIENTED_EDGE('',*,*,#380,.F.);
#235=ORIENTED_EDGE('',*,*,#375,.F.);
#236=ORIENTED_EDGE('',*,*,#365,.F.);
#237=ORIENTED_EDGE('',*,*,#388,.F.);
#238=ORIENTED_EDGE('',*,*,#389,.T.);
#239=ORIENTED_EDGE('',*,*,#390,.T.);
#240=ORIENTED_EDGE('',*,*,#364,.T.);
#241=ORIENTED_EDGE('',*,*,#391,.F.);
#242=ORIENTED_EDGE('',*,*,#392,.F.);
#243=ORIENTED_EDGE('',*,*,#388,.T.);
#244=ORIENTED_EDGE('',*,*,#367,.T.);
#245=ORIENTED_EDGE('',*,*,#393,.F.);
#246=ORIENTED_EDGE('',*,*,#394,.F.);
#247=ORIENTED_EDGE('',*,*,#391,.T.);
#248=ORIENTED_EDGE('',*,*,#366,.T.);
#249=ORIENTED_EDGE('',*,*,#390,.F.);
#250=ORIENTED_EDGE('',*,*,#395,.F.);
#251=ORIENTED_EDGE('',*,*,#393,.T.);
#252=ORIENTED_EDGE('',*,*,#396,.T.);
#253=ORIENTED_EDGE('',*,*,#397,.F.);
#254=ORIENTED_EDGE('',*,*,#389,.F.);
#255=ORIENTED_EDGE('',*,*,#392,.T.);
#256=ORIENTED_EDGE('',*,*,#394,.T.);
#257=ORIENTED_EDGE('',*,*,#395,.T.);
#258=ORIENTED_EDGE('',*,*,#396,.F.);
#259=ORIENTED_EDGE('',*,*,#397,.T.);
#260=ORIENTED_EDGE('',*,*,#379,.T.);
#261=ORIENTED_EDGE('',*,*,#356,.T.);
#262=ORIENTED_EDGE('',*,*,#378,.T.);
#263=ORIENTED_EDGE('',*,*,#355,.T.);
#264=ORIENTED_EDGE('',*,*,#398,.F.);
#265=ORIENTED_EDGE('',*,*,#399,.F.);
#266=ORIENTED_EDGE('',*,*,#400,.T.);
#267=ORIENTED_EDGE('',*,*,#401,.T.);
#268=ORIENTED_EDGE('',*,*,#402,.T.);
#269=ORIENTED_EDGE('',*,*,#403,.T.);
#270=ORIENTED_EDGE('',*,*,#372,.F.);
#271=ORIENTED_EDGE('',*,*,#404,.F.);
#272=ORIENTED_EDGE('',*,*,#405,.T.);
#273=ORIENTED_EDGE('',*,*,#399,.T.);
#274=ORIENTED_EDGE('',*,*,#371,.T.);
#275=ORIENTED_EDGE('',*,*,#406,.F.);
#276=ORIENTED_EDGE('',*,*,#407,.F.);
#277=ORIENTED_EDGE('',*,*,#408,.T.);
#278=ORIENTED_EDGE('',*,*,#404,.T.);
#279=ORIENTED_EDGE('',*,*,#374,.T.);
#280=ORIENTED_EDGE('',*,*,#409,.F.);
#281=ORIENTED_EDGE('',*,*,#410,.T.);
#282=ORIENTED_EDGE('',*,*,#403,.F.);
#283=ORIENTED_EDGE('',*,*,#411,.T.);
#284=ORIENTED_EDGE('',*,*,#409,.T.);
#285=ORIENTED_EDGE('',*,*,#373,.F.);
#286=ORIENTED_EDGE('',*,*,#401,.F.);
#287=ORIENTED_EDGE('',*,*,#412,.T.);
#288=ORIENTED_EDGE('',*,*,#407,.T.);
#289=ORIENTED_EDGE('',*,*,#413,.T.);
#290=ORIENTED_EDGE('',*,*,#398,.T.);
#291=ORIENTED_EDGE('',*,*,#406,.T.);
#292=ORIENTED_EDGE('',*,*,#350,.F.);
#293=ORIENTED_EDGE('',*,*,#414,.F.);
#294=ORIENTED_EDGE('',*,*,#336,.T.);
#295=ORIENTED_EDGE('',*,*,#362,.T.);
#296=ORIENTED_EDGE('',*,*,#353,.F.);
#297=ORIENTED_EDGE('',*,*,#383,.F.);
#298=ORIENTED_EDGE('',*,*,#337,.T.);
#299=ORIENTED_EDGE('',*,*,#414,.T.);
#300=ORIENTED_EDGE('',*,*,#368,.T.);
#301=ORIENTED_EDGE('',*,*,#415,.F.);
#302=ORIENTED_EDGE('',*,*,#339,.F.);
#303=ORIENTED_EDGE('',*,*,#382,.T.);
#304=ORIENTED_EDGE('',*,*,#346,.T.);
#305=ORIENTED_EDGE('',*,*,#363,.F.);
#306=ORIENTED_EDGE('',*,*,#340,.F.);
#307=ORIENTED_EDGE('',*,*,#415,.T.);
#308=ORIENTED_EDGE('',*,*,#343,.F.);
#309=ORIENTED_EDGE('',*,*,#416,.F.);
#310=ORIENTED_EDGE('',*,*,#417,.T.);
#311=ORIENTED_EDGE('',*,*,#418,.T.);
#312=ORIENTED_EDGE('',*,*,#342,.T.);
#313=ORIENTED_EDGE('',*,*,#419,.F.);
#314=ORIENTED_EDGE('',*,*,#420,.F.);
#315=ORIENTED_EDGE('',*,*,#416,.T.);
#316=ORIENTED_EDGE('',*,*,#345,.T.);
#317=ORIENTED_EDGE('',*,*,#421,.F.);
#318=ORIENTED_EDGE('',*,*,#422,.F.);
#319=ORIENTED_EDGE('',*,*,#419,.T.);
#320=ORIENTED_EDGE('',*,*,#344,.F.);
#321=ORIENTED_EDGE('',*,*,#418,.F.);
#322=ORIENTED_EDGE('',*,*,#423,.T.);
#323=ORIENTED_EDGE('',*,*,#421,.T.);
#324=ORIENTED_EDGE('',*,*,#417,.F.);
#325=ORIENTED_EDGE('',*,*,#420,.T.);
#326=ORIENTED_EDGE('',*,*,#422,.T.);
#327=ORIENTED_EDGE('',*,*,#423,.F.);
#328=ORIENTED_EDGE('',*,*,#400,.F.);
#329=ORIENTED_EDGE('',*,*,#405,.F.);
#330=ORIENTED_EDGE('',*,*,#408,.F.);
#331=ORIENTED_EDGE('',*,*,#412,.F.);
#332=ORIENTED_EDGE('',*,*,#402,.F.);
#333=ORIENTED_EDGE('',*,*,#413,.F.);
#334=ORIENTED_EDGE('',*,*,#410,.F.);
#335=ORIENTED_EDGE('',*,*,#411,.F.);
#336=EDGE_CURVE('',#424,#425,#484,.T.);
#337=EDGE_CURVE('',#426,#424,#485,.T.);
#338=EDGE_CURVE('',#426,#427,#48,.T.);
#339=EDGE_CURVE('',#427,#428,#486,.T.);
#340=EDGE_CURVE('',#428,#429,#487,.T.);
#341=EDGE_CURVE('',#425,#429,#49,.T.);
#342=EDGE_CURVE('',#430,#431,#50,.T.);
#343=EDGE_CURVE('',#430,#432,#488,.T.);
#344=EDGE_CURVE('',#432,#433,#51,.T.);
#345=EDGE_CURVE('',#431,#433,#489,.T.);
#346=EDGE_CURVE('',#434,#435,#490,.T.);
#347=EDGE_CURVE('',#436,#434,#52,.T.);
#348=EDGE_CURVE('',#435,#436,#53,.T.);
#349=EDGE_CURVE('',#437,#438,#54,.T.);
#350=EDGE_CURVE('',#438,#439,#491,.T.);
#351=EDGE_CURVE('',#437,#439,#55,.T.);
#352=EDGE_CURVE('',#440,#441,#56,.T.);
#353=EDGE_CURVE('',#441,#438,#492,.T.);
#354=EDGE_CURVE('',#438,#440,#57,.T.);
#355=EDGE_CURVE('',#442,#442,#28,.T.);
#356=EDGE_CURVE('',#443,#443,#29,.T.);
#357=EDGE_CURVE('',#436,#444,#58,.T.);
#358=EDGE_CURVE('',#444,#445,#30,.F.);
#359=EDGE_CURVE('',#446,#445,#59,.T.);
#360=EDGE_CURVE('',#446,#447,#31,.F.);
#361=EDGE_CURVE('',#437,#447,#60,.T.);
#362=EDGE_CURVE('',#425,#439,#61,.T.);
#363=EDGE_CURVE('',#429,#435,#62,.T.);
#364=EDGE_CURVE('',#448,#449,#32,.T.);
#365=EDGE_CURVE('',#448,#450,#63,.T.);
#366=EDGE_CURVE('',#451,#450,#33,.T.);
#367=EDGE_CURVE('',#449,#451,#64,.T.);
#368=EDGE_CURVE('',#452,#434,#493,.T.);
#369=EDGE_CURVE('',#452,#453,#65,.T.);
#370=EDGE_CURVE('',#434,#453,#66,.T.);
#371=EDGE_CURVE('',#454,#455,#67,.T.);
#372=EDGE_CURVE('',#454,#456,#68,.T.);
#373=EDGE_CURVE('',#456,#457,#69,.T.);
#374=EDGE_CURVE('',#455,#457,#70,.T.);
#375=EDGE_CURVE('',#445,#458,#71,.T.);
#376=EDGE_CURVE('',#459,#458,#72,.T.);
#377=EDGE_CURVE('',#459,#446,#73,.F.);
#378=EDGE_CURVE('',#460,#460,#34,.T.);
#379=EDGE_CURVE('',#461,#461,#35,.T.);
#380=EDGE_CURVE('',#458,#462,#36,.T.);
#381=EDGE_CURVE('',#453,#462,#74,.T.);
#382=EDGE_CURVE('',#427,#452,#75,.T.);
#383=EDGE_CURVE('',#426,#441,#76,.T.);
#384=EDGE_CURVE('',#440,#463,#77,.T.);
#385=EDGE_CURVE('',#463,#459,#37,.T.);
#386=EDGE_CURVE('',#447,#463,#78,.T.);
#387=EDGE_CURVE('',#462,#444,#79,.F.);
#388=EDGE_CURVE('',#464,#448,#80,.T.);
#389=EDGE_CURVE('',#464,#465,#81,.T.);
#390=EDGE_CURVE('',#465,#450,#82,.T.);
#391=EDGE_CURVE('',#466,#449,#83,.T.);
#392=EDGE_CURVE('',#464,#466,#38,.T.);
#393=EDGE_CURVE('',#467,#451,#84,.T.);
#394=EDGE_CURVE('',#466,#467,#85,.T.);
#395=EDGE_CURVE('',#467,#465,#39,.T.);
#396=EDGE_CURVE('',#468,#468,#40,.T.);
#397=EDGE_CURVE('',#469,#469,#41,.T.);
#398=EDGE_CURVE('',#470,#470,#42,.T.);
#399=EDGE_CURVE('',#471,#454,#86,.T.);
#400=EDGE_CURVE('',#471,#472,#43,.T.);
#401=EDGE_CURVE('',#472,#473,#87,.T.);
#402=EDGE_CURVE('',#473,#474,#44,.T.);
#403=EDGE_CURVE('',#474,#456,#88,.T.);
#404=EDGE_CURVE('',#475,#455,#89,.T.);
#405=EDGE_CURVE('',#475,#471,#90,.F.);
#406=EDGE_CURVE('',#476,#476,#45,.T.);
#407=EDGE_CURVE('',#477,#478,#91,.T.);
#408=EDGE_CURVE('',#477,#475,#46,.F.);
#409=EDGE_CURVE('',#479,#457,#92,.T.);
#410=EDGE_CURVE('',#479,#478,#47,.F.);
#411=EDGE_CURVE('',#474,#479,#93,.T.);
#412=EDGE_CURVE('',#472,#477,#94,.T.);
#413=EDGE_CURVE('',#478,#473,#95,.F.);
#414=EDGE_CURVE('',#424,#438,#96,.T.);
#415=EDGE_CURVE('',#428,#434,#97,.T.);
#416=EDGE_CURVE('',#480,#430,#98,.T.);
#417=EDGE_CURVE('',#480,#481,#494,.T.);
#418=EDGE_CURVE('',#481,#432,#99,.T.);
#419=EDGE_CURVE('',#482,#431,#100,.T.);
#420=EDGE_CURVE('',#480,#482,#101,.T.);
#421=EDGE_CURVE('',#483,#433,#102,.T.);
#422=EDGE_CURVE('',#482,#483,#495,.T.);
#423=EDGE_CURVE('',#481,#483,#103,.T.);
#424=VERTEX_POINT('',#893);
#425=VERTEX_POINT('',#894);
#426=VERTEX_POINT('',#899);
#427=VERTEX_POINT('',#901);
#428=VERTEX_POINT('',#906);
#429=VERTEX_POINT('',#911);
#430=VERTEX_POINT('',#914);
#431=VERTEX_POINT('',#915);
#432=VERTEX_POINT('',#921);
#433=VERTEX_POINT('',#923);
#434=VERTEX_POINT('',#934);
#435=VERTEX_POINT('',#935);
#436=VERTEX_POINT('',#937);
#437=VERTEX_POINT('',#941);
#438=VERTEX_POINT('',#942);
#439=VERTEX_POINT('',#947);
#440=VERTEX_POINT('',#951);
#441=VERTEX_POINT('',#952);
#442=VERTEX_POINT('',#960);
#443=VERTEX_POINT('',#962);
#444=VERTEX_POINT('',#964);
#445=VERTEX_POINT('',#966);
#446=VERTEX_POINT('',#968);
#447=VERTEX_POINT('',#970);
#448=VERTEX_POINT('',#975);
#449=VERTEX_POINT('',#976);
#450=VERTEX_POINT('',#978);
#451=VERTEX_POINT('',#980);
#452=VERTEX_POINT('',#987);
#453=VERTEX_POINT('',#989);
#454=VERTEX_POINT('',#993);
#455=VERTEX_POINT('',#994);
#456=VERTEX_POINT('',#996);
#457=VERTEX_POINT('',#998);
#458=VERTEX_POINT('',#1001);
#459=VERTEX_POINT('',#1003);
#460=VERTEX_POINT('',#1007);
#461=VERTEX_POINT('',#1009);
#462=VERTEX_POINT('',#1011);
#463=VERTEX_POINT('',#1016);
#464=VERTEX_POINT('',#1026);
#465=VERTEX_POINT('',#1028);
#466=VERTEX_POINT('',#1032);
#467=VERTEX_POINT('',#1036);
#468=VERTEX_POINT('',#1042);
#469=VERTEX_POINT('',#1044);
#470=VERTEX_POINT('',#1051);
#471=VERTEX_POINT('',#1053);
#472=VERTEX_POINT('',#1055);
#473=VERTEX_POINT('',#1057);
#474=VERTEX_POINT('',#1059);
#475=VERTEX_POINT('',#1063);
#476=VERTEX_POINT('',#1067);
#477=VERTEX_POINT('',#1069);
#478=VERTEX_POINT('',#1070);
#479=VERTEX_POINT('',#1073);
#480=VERTEX_POINT('',#1126);
#481=VERTEX_POINT('',#1132);
#482=VERTEX_POINT('',#1136);
#483=VERTEX_POINT('',#1149);
#484=B_SPLINE_CURVE_WITH_KNOTS('',3,(#889,#890,#891,#892),.UNSPECIFIED.,
 .F.,.F.,(4,4),(0.5,1.),.PIECEWISE_BEZIER_KNOTS.);
#485=B_SPLINE_CURVE_WITH_KNOTS('',3,(#895,#896,#897,#898),.UNSPECIFIED.,
 .F.,.F.,(4,4),(0.,0.5),.PIECEWISE_BEZIER_KNOTS.);
#486=B_SPLINE_CURVE_WITH_KNOTS('',3,(#902,#903,#904,#905),.UNSPECIFIED.,
 .F.,.F.,(4,4),(0.,0.5),.PIECEWISE_BEZIER_KNOTS.);
#487=B_SPLINE_CURVE_WITH_KNOTS('',3,(#907,#908,#909,#910),.UNSPECIFIED.,
 .F.,.F.,(4,4),(0.5,1.),.PIECEWISE_BEZIER_KNOTS.);
#488=B_SPLINE_CURVE_WITH_KNOTS('',3,(#916,#917,#918,#919,#920),
 .UNSPECIFIED.,.F.,.F.,(4,1,4),(0.,0.5,1.),.QUASI_UNIFORM_KNOTS.);
#489=B_SPLINE_CURVE_WITH_KNOTS('',3,(#924,#925,#926,#927,#928),
 .UNSPECIFIED.,.F.,.F.,(4,1,4),(0.,0.5,1.),.QUASI_UNIFORM_KNOTS.);
#490=B_SPLINE_CURVE_WITH_KNOTS('',3,(#930,#931,#932,#933),.UNSPECIFIED.,
 .F.,.F.,(4,4),(0.5,1.),.PIECEWISE_BEZIER_KNOTS.);
#491=B_SPLINE_CURVE_WITH_KNOTS('',3,(#943,#944,#945,#946),.UNSPECIFIED.,
 .F.,.F.,(4,4),(0.5,1.),.PIECEWISE_BEZIER_KNOTS.);
#492=B_SPLINE_CURVE_WITH_KNOTS('',3,(#953,#954,#955,#956),.UNSPECIFIED.,
 .F.,.F.,(4,4),(0.,0.5),.PIECEWISE_BEZIER_KNOTS.);
#493=B_SPLINE_CURVE_WITH_KNOTS('',3,(#983,#984,#985,#986),.UNSPECIFIED.,
 .F.,.F.,(4,4),(0.,0.5),.PIECEWISE_BEZIER_KNOTS.);
#494=B_SPLINE_CURVE_WITH_KNOTS('',3,(#1127,#1128,#1129,#1130,#1131),
 .UNSPECIFIED.,.F.,.F.,(4,1,4),(0.,0.5,1.),.QUASI_UNIFORM_KNOTS.);
#495=B_SPLINE_CURVE_WITH_KNOTS('',3,(#1150,#1151,#1152,#1153,#1154),
 .UNSPECIFIED.,.F.,.F.,(4,1,4),(0.,0.5,1.),.QUASI_UNIFORM_KNOTS.);
#496=EDGE_LOOP('',(#160,#161,#162,#163,#164,#165));
#497=EDGE_LOOP('',(#166,#167,#168,#169));
#498=EDGE_LOOP('',(#170,#171,#172));
#499=EDGE_LOOP('',(#173,#174,#175));
#500=EDGE_LOOP('',(#176,#177,#178));
#501=EDGE_LOOP('',(#179));
#502=EDGE_LOOP('',(#180));
#503=EDGE_LOOP('',(#181,#182,#183,#184,#185,#186,#187,#188,#189,#190));
#504=EDGE_LOOP('',(#191,#192,#193,#194));
#505=EDGE_LOOP('',(#195,#196,#197));
#506=EDGE_LOOP('',(#198,#199,#200,#201));
#507=EDGE_LOOP('',(#202,#203,#204,#205));
#508=EDGE_LOOP('',(#206));
#509=EDGE_LOOP('',(#207));
#510=EDGE_LOOP('',(#208,#209,#210,#211,#212,#213,#214,#215,#216,#217));
#511=EDGE_LOOP('',(#218,#219,#220,#221,#222));
#512=EDGE_LOOP('',(#223,#224,#225,#226,#227));
#513=EDGE_LOOP('',(#228,#229,#230,#231));
#514=EDGE_LOOP('',(#232,#233,#234,#235));
#515=EDGE_LOOP('',(#236,#237,#238,#239));
#516=EDGE_LOOP('',(#240,#241,#242,#243));
#517=EDGE_LOOP('',(#244,#245,#246,#247));
#518=EDGE_LOOP('',(#248,#249,#250,#251));
#519=EDGE_LOOP('',(#252));
#520=EDGE_LOOP('',(#253));
#521=EDGE_LOOP('',(#254,#255,#256,#257));
#522=EDGE_LOOP('',(#258));
#523=EDGE_LOOP('',(#259));
#524=EDGE_LOOP('',(#260));
#525=EDGE_LOOP('',(#261));
#526=EDGE_LOOP('',(#262));
#527=EDGE_LOOP('',(#263));
#528=EDGE_LOOP('',(#264));
#529=EDGE_LOOP('',(#265,#266,#267,#268,#269,#270));
#530=EDGE_LOOP('',(#271,#272,#273,#274));
#531=EDGE_LOOP('',(#275));
#532=EDGE_LOOP('',(#276,#277,#278,#279,#280,#281));
#533=EDGE_LOOP('',(#282,#283,#284,#285));
#534=EDGE_LOOP('',(#286,#287,#288,#289));
#535=EDGE_LOOP('',(#290));
#536=EDGE_LOOP('',(#291));
#537=EDGE_LOOP('',(#292,#293,#294,#295));
#538=EDGE_LOOP('',(#296,#297,#298,#299));
#539=EDGE_LOOP('',(#300,#301,#302,#303));
#540=EDGE_LOOP('',(#304,#305,#306,#307));
#541=EDGE_LOOP('',(#308,#309,#310,#311));
#542=EDGE_LOOP('',(#312,#313,#314,#315));
#543=EDGE_LOOP('',(#316,#317,#318,#319));
#544=EDGE_LOOP('',(#320,#321,#322,#323));
#545=EDGE_LOOP('',(#324,#325,#326,#327));
#546=EDGE_LOOP('',(#328,#329,#330,#331));
#547=EDGE_LOOP('',(#332,#333,#334,#335));
#548=FACE_BOUND('',#496,.T.);
#549=FACE_BOUND('',#497,.T.);
#550=FACE_BOUND('',#498,.T.);
#551=FACE_BOUND('',#499,.T.);
#552=FACE_BOUND('',#500,.T.);
#553=FACE_BOUND('',#501,.T.);
#554=FACE_BOUND('',#502,.T.);
#555=FACE_BOUND('',#503,.T.);
#556=FACE_BOUND('',#504,.T.);
#557=FACE_BOUND('',#505,.T.);
#558=FACE_BOUND('',#506,.T.);
#559=FACE_BOUND('',#507,.T.);
#560=FACE_BOUND('',#508,.T.);
#561=FACE_BOUND('',#509,.T.);
#562=FACE_BOUND('',#510,.T.);
#563=FACE_BOUND('',#511,.T.);
#564=FACE_BOUND('',#512,.T.);
#565=FACE_BOUND('',#513,.T.);
#566=FACE_BOUND('',#514,.T.);
#567=FACE_BOUND('',#515,.T.);
#568=FACE_BOUND('',#516,.T.);
#569=FACE_BOUND('',#517,.T.);
#570=FACE_BOUND('',#518,.T.);
#571=FACE_BOUND('',#519,.T.);
#572=FACE_BOUND('',#520,.T.);
#573=FACE_BOUND('',#521,.T.);
#574=FACE_BOUND('',#522,.T.);
#575=FACE_BOUND('',#523,.T.);
#576=FACE_BOUND('',#524,.T.);
#577=FACE_BOUND('',#525,.T.);
#578=FACE_BOUND('',#526,.T.);
#579=FACE_BOUND('',#527,.T.);
#580=FACE_BOUND('',#528,.T.);
#581=FACE_BOUND('',#529,.T.);
#582=FACE_BOUND('',#530,.T.);
#583=FACE_BOUND('',#531,.T.);
#584=FACE_BOUND('',#532,.T.);
#585=FACE_BOUND('',#533,.T.);
#586=FACE_BOUND('',#534,.T.);
#587=FACE_BOUND('',#535,.T.);
#588=FACE_BOUND('',#536,.T.);
#589=FACE_BOUND('',#537,.T.);
#590=FACE_BOUND('',#538,.T.);
#591=FACE_BOUND('',#539,.T.);
#592=FACE_BOUND('',#540,.T.);
#593=FACE_BOUND('',#541,.T.);
#594=FACE_BOUND('',#542,.T.);
#595=FACE_BOUND('',#543,.T.);
#596=FACE_BOUND('',#544,.T.);
#597=FACE_BOUND('',#545,.T.);
#598=FACE_BOUND('',#546,.T.);
#599=FACE_BOUND('',#547,.T.);
#600=PLANE('',#673);
#601=PLANE('',#674);
#602=PLANE('',#675);
#603=PLANE('',#676);
#604=PLANE('',#677);
#605=PLANE('',#684);
#606=PLANE('',#685);
#607=PLANE('',#686);
#608=PLANE('',#691);
#609=PLANE('',#692);
#610=PLANE('',#695);
#611=PLANE('',#698);
#612=PLANE('',#704);
#613=PLANE('',#705);
#614=PLANE('',#708);
#615=PLANE('',#712);
#616=PLANE('',#713);
#617=PLANE('',#717);
#618=PLANE('',#718);
#619=PLANE('',#720);
#620=PLANE('',#721);
#621=PLANE('',#722);
#622=ADVANCED_FACE('',(#548,#549),#600,.T.);
#623=ADVANCED_FACE('',(#550),#601,.T.);
#624=ADVANCED_FACE('',(#551),#602,.T.);
#625=ADVANCED_FACE('',(#552),#603,.T.);
#626=ADVANCED_FACE('',(#553,#554,#555,#556),#604,.F.);
#627=ADVANCED_FACE('',(#557),#605,.T.);
#628=ADVANCED_FACE('',(#558,#559),#606,.F.);
#629=ADVANCED_FACE('Face appearance 1',(#560,#561,#562),#607,.T.);
#630=ADVANCED_FACE('',(#563),#608,.T.);
#631=ADVANCED_FACE('',(#564),#609,.F.);
#632=ADVANCED_FACE('',(#565),#18,.T.);
#633=ADVANCED_FACE('',(#566),#19,.T.);
#634=ADVANCED_FACE('',(#567),#610,.T.);
#635=ADVANCED_FACE('',(#568),#20,.T.);
#636=ADVANCED_FACE('',(#569),#611,.F.);
#637=ADVANCED_FACE('',(#570),#21,.T.);
#638=ADVANCED_FACE('',(#571,#572),#22,.F.);
#639=ADVANCED_FACE('',(#573,#574),#612,.T.);
#640=ADVANCED_FACE('',(#575),#613,.F.);
#641=ADVANCED_FACE('',(#576,#577),#23,.F.);
#642=ADVANCED_FACE('',(#578,#579),#24,.F.);
#643=ADVANCED_FACE('',(#580,#581),#614,.T.);
#644=ADVANCED_FACE('',(#582),#615,.F.);
#645=ADVANCED_FACE('',(#583,#584),#616,.F.);
#646=ADVANCED_FACE('',(#585),#617,.T.);
#647=ADVANCED_FACE('',(#586),#618,.T.);
#648=ADVANCED_FACE('',(#587,#588),#25,.F.);
#649=ADVANCED_FACE('',(#589),#12,.T.);
#650=ADVANCED_FACE('',(#590),#13,.T.);
#651=ADVANCED_FACE('',(#591),#14,.F.);
#652=ADVANCED_FACE('',(#592),#15,.F.);
#653=ADVANCED_FACE('',(#593),#16,.T.);
#654=ADVANCED_FACE('',(#594),#619,.F.);
#655=ADVANCED_FACE('',(#595),#17,.F.);
#656=ADVANCED_FACE('',(#596),#620,.T.);
#657=ADVANCED_FACE('',(#597),#621,.T.);
#658=ADVANCED_FACE('',(#598),#26,.T.);
#659=ADVANCED_FACE('',(#599),#27,.T.);
#660=CLOSED_SHELL('',(#622,#623,#624,#625,#626,#627,#628,#629,#630,#631,
#632,#633,#634,#635,#636,#637,#638,#639,#640,#641,#642,#643,#644,#645,#646,
#647,#648,#649,#650,#651,#652,#653,#654,#655,#656,#657,#658,#659));
#661=STYLED_ITEM('',(#662),#669);
#662=PRESENTATION_STYLE_ASSIGNMENT((#663));
#663=SURFACE_STYLE_USAGE(.BOTH.,#664);
#664=SURFACE_SIDE_STYLE('',(#665));
#665=SURFACE_STYLE_FILL_AREA(#666);
#666=FILL_AREA_STYLE('',(#667));
#667=FILL_AREA_STYLE_COLOUR('',#668);
#668=COLOUR_RGB('',1.,0.756862745098039,0.0549019607843137);
#669=MANIFOLD_SOLID_BREP('Part 1',#660);
#670=SHAPE_DEFINITION_REPRESENTATION(#1166,#671);
#671=SHAPE_REPRESENTATION('Part 1',(#672),#1161);
#672=AXIS2_PLACEMENT_3D('',#887,#725,#726);
#673=AXIS2_PLACEMENT_3D('',#888,#727,#728);
#674=AXIS2_PLACEMENT_3D('',#929,#733,#734);
#675=AXIS2_PLACEMENT_3D('',#939,#737,#738);
#676=AXIS2_PLACEMENT_3D('',#949,#741,#742);
#677=AXIS2_PLACEMENT_3D('',#958,#745,#746);
#678=AXIS2_PLACEMENT_3D('',#959,#747,#748);
#679=AXIS2_PLACEMENT_3D('',#961,#749,#750);
#680=AXIS2_PLACEMENT_3D('',#965,#752,#753);
#681=AXIS2_PLACEMENT_3D('',#969,#755,#756);
#682=AXIS2_PLACEMENT_3D('',#974,#760,#761);
#683=AXIS2_PLACEMENT_3D('',#979,#763,#764);
#684=AXIS2_PLACEMENT_3D('',#982,#766,#767);
#685=AXIS2_PLACEMENT_3D('',#991,#770,#771);
#686=AXIS2_PLACEMENT_3D('',#1005,#779,#780);
#687=AXIS2_PLACEMENT_3D('',#1006,#781,#782);
#688=AXIS2_PLACEMENT_3D('',#1008,#783,#784);
#689=AXIS2_PLACEMENT_3D('',#1010,#785,#786);
#690=AXIS2_PLACEMENT_3D('',#1017,#791,#792);
#691=AXIS2_PLACEMENT_3D('',#1018,#793,#794);
#692=AXIS2_PLACEMENT_3D('',#1020,#796,#797);
#693=AXIS2_PLACEMENT_3D('',#1022,#799,#800);
#694=AXIS2_PLACEMENT_3D('',#1023,#801,#802);
#695=AXIS2_PLACEMENT_3D('',#1024,#803,#804);
#696=AXIS2_PLACEMENT_3D('',#1030,#808,#809);
#697=AXIS2_PLACEMENT_3D('',#1033,#811,#812);
#698=AXIS2_PLACEMENT_3D('',#1034,#813,#814);
#699=AXIS2_PLACEMENT_3D('',#1038,#817,#818);
#700=AXIS2_PLACEMENT_3D('',#1039,#819,#820);
#701=AXIS2_PLACEMENT_3D('',#1040,#821,#822);
#702=AXIS2_PLACEMENT_3D('',#1041,#823,#824);
#703=AXIS2_PLACEMENT_3D('',#1043,#825,#826);
#704=AXIS2_PLACEMENT_3D('',#1045,#827,#828);
#705=AXIS2_PLACEMENT_3D('',#1046,#829,#830);
#706=AXIS2_PLACEMENT_3D('',#1047,#831,#832);
#707=AXIS2_PLACEMENT_3D('',#1048,#833,#834);
#708=AXIS2_PLACEMENT_3D('',#1049,#835,#836);
#709=AXIS2_PLACEMENT_3D('',#1050,#837,#838);
#710=AXIS2_PLACEMENT_3D('',#1054,#840,#841);
#711=AXIS2_PLACEMENT_3D('',#1058,#843,#844);
#712=AXIS2_PLACEMENT_3D('',#1061,#846,#847);
#713=AXIS2_PLACEMENT_3D('',#1065,#850,#851);
#714=AXIS2_PLACEMENT_3D('',#1066,#852,#853);
#715=AXIS2_PLACEMENT_3D('',#1071,#855,#856);
#716=AXIS2_PLACEMENT_3D('',#1074,#858,#859);
#717=AXIS2_PLACEMENT_3D('',#1075,#860,#861);
#718=AXIS2_PLACEMENT_3D('',#1077,#863,#864);
#719=AXIS2_PLACEMENT_3D('',#1080,#867,#868);
#720=AXIS2_PLACEMENT_3D('',#1134,#873,#874);
#721=AXIS2_PLACEMENT_3D('',#1155,#878,#879);
#722=AXIS2_PLACEMENT_3D('',#1157,#881,#882);
#723=AXIS2_PLACEMENT_3D('',#1158,#883,#884);
#724=AXIS2_PLACEMENT_3D('',#1159,#885,#886);
#725=DIRECTION('',(0.,0.,1.));
#726=DIRECTION('',(1.,0.,0.));
#727=DIRECTION('',(-1.,0.,0.));
#728=DIRECTION('',(0.,-1.,0.));
#729=DIRECTION('',(0.,0.,-1.));
#730=DIRECTION('',(0.,0.,-1.));
#731=DIRECTION('',(0.,0.,-1.));
#732=DIRECTION('',(0.,0.,-1.));
#733=DIRECTION('',(-1.,0.,0.));
#734=DIRECTION('',(0.,0.,1.));
#735=DIRECTION('',(0.,1.,0.));
#736=DIRECTION('',(0.,0.,-1.));
#737=DIRECTION('',(-1.,0.,0.));
#738=DIRECTION('',(0.,0.,1.));
#739=DIRECTION('',(0.,1.,0.));
#740=DIRECTION('',(0.,0.,-1.));
#741=DIRECTION('',(-1.,0.,0.));
#742=DIRECTION('',(0.,0.,1.));
#743=DIRECTION('',(0.,0.,-1.));
#744=DIRECTION('',(0.,1.,0.));
#745=DIRECTION('',(0.,1.,0.));
#746=DIRECTION('',(0.,0.,1.));
#747=DIRECTION('',(0.,-1.,0.));
#748=DIRECTION('',(0.,0.,-1.));
#749=DIRECTION('',(0.,-1.,0.));
#750=DIRECTION('',(0.,0.,-1.));
#751=DIRECTION('',(1.,0.,0.));
#752=DIRECTION('',(0.,1.,0.));
#753=DIRECTION('',(0.,0.,1.));
#754=DIRECTION('',(0.,0.,-1.));
#755=DIRECTION('',(0.,1.,0.));
#756=DIRECTION('',(0.,0.,1.));
#757=DIRECTION('',(1.,0.,0.));
#758=DIRECTION('',(1.,0.,0.));
#759=DIRECTION('',(1.,0.,0.));
#760=DIRECTION('',(0.,-1.,0.));
#761=DIRECTION('',(0.,0.,-1.));
#762=DIRECTION('',(1.,0.,0.));
#763=DIRECTION('',(0.,-1.,0.));
#764=DIRECTION('',(0.,0.,-1.));
#765=DIRECTION('',(1.,0.,0.));
#766=DIRECTION('',(-1.,0.,0.));
#767=DIRECTION('',(0.,0.,1.));
#768=DIRECTION('',(0.,0.,-1.));
#769=DIRECTION('',(0.,1.,0.));
#770=DIRECTION('',(-1.,0.,0.));
#771=DIRECTION('',(0.,0.,1.));
#772=DIRECTION('',(0.,-1.,0.));
#773=DIRECTION('',(0.,0.,-1.));
#774=DIRECTION('',(0.,-1.,0.));
#775=DIRECTION('',(0.,0.,-1.));
#776=DIRECTION('',(0.,1.,0.));
#777=DIRECTION('',(0.,0.,-1.));
#778=DIRECTION('',(0.,1.,0.));
#779=DIRECTION('',(0.,1.,0.));
#780=DIRECTION('',(0.,0.,1.));
#781=DIRECTION('',(0.,1.,0.));
#782=DIRECTION('',(0.,0.,1.));
#783=DIRECTION('',(0.,1.,0.));
#784=DIRECTION('',(0.,0.,1.));
#785=DIRECTION('',(0.,1.,0.));
#786=DIRECTION('',(0.,0.,1.));
#787=DIRECTION('',(1.,0.,0.));
#788=DIRECTION('',(1.,0.,0.));
#789=DIRECTION('',(1.,0.,0.));
#790=DIRECTION('',(1.,0.,0.));
#791=DIRECTION('',(0.,1.,0.));
#792=DIRECTION('',(0.,0.,1.));
#793=DIRECTION('',(0.,0.,1.));
#794=DIRECTION('',(1.,0.,0.));
#795=DIRECTION('',(0.,1.,0.));
#796=DIRECTION('',(0.,0.,1.));
#797=DIRECTION('',(1.,0.,0.));
#798=DIRECTION('',(0.,1.,0.));
#799=DIRECTION('',(0.,-1.,0.));
#800=DIRECTION('',(0.,0.,-1.));
#801=DIRECTION('',(0.,1.,0.));
#802=DIRECTION('',(0.,0.,1.));
#803=DIRECTION('',(0.,0.,1.));
#804=DIRECTION('',(1.,0.,0.));
#805=DIRECTION('',(0.,1.,0.));
#806=DIRECTION('',(1.,0.,0.));
#807=DIRECTION('',(0.,1.,0.));
#808=DIRECTION('',(0.,1.,0.));
#809=DIRECTION('',(0.,0.,1.));
#810=DIRECTION('',(0.,1.,0.));
#811=DIRECTION('',(0.,-1.,0.));
#812=DIRECTION('',(0.,0.,-1.));
#813=DIRECTION('',(0.,0.,1.));
#814=DIRECTION('',(1.,0.,0.));
#815=DIRECTION('',(0.,1.,0.));
#816=DIRECTION('',(1.,0.,0.));
#817=DIRECTION('',(0.,1.,0.));
#818=DIRECTION('',(0.,0.,1.));
#819=DIRECTION('',(0.,-1.,0.));
#820=DIRECTION('',(0.,0.,-1.));
#821=DIRECTION('',(0.,1.,0.));
#822=DIRECTION('',(0.,0.,1.));
#823=DIRECTION('',(0.,-1.,0.));
#824=DIRECTION('',(0.,0.,-1.));
#825=DIRECTION('',(0.,-1.,0.));
#826=DIRECTION('',(0.,0.,-1.));
#827=DIRECTION('',(0.,-1.,0.));
#828=DIRECTION('',(1.,0.,0.));
#829=DIRECTION('',(0.,1.,0.));
#830=DIRECTION('',(0.,0.,1.));
#831=DIRECTION('',(0.,-1.,0.));
#832=DIRECTION('',(0.,0.,-1.));
#833=DIRECTION('',(0.,-1.,0.));
#834=DIRECTION('',(0.,0.,-1.));
#835=DIRECTION('',(0.,1.,0.));
#836=DIRECTION('',(0.,0.,1.));
#837=DIRECTION('',(0.,1.,0.));
#838=DIRECTION('',(0.,0.,1.));
#839=DIRECTION('',(-1.,0.,0.));
#840=DIRECTION('',(0.,1.,0.));
#841=DIRECTION('',(0.,0.,1.));
#842=DIRECTION('',(0.,0.,-1.));
#843=DIRECTION('',(0.,1.,0.));
#844=DIRECTION('',(0.,0.,1.));
#845=DIRECTION('',(-1.,0.,0.));
#846=DIRECTION('',(0.,0.,-1.));
#847=DIRECTION('',(-1.,0.,0.));
#848=DIRECTION('',(-1.,0.,0.));
#849=DIRECTION('',(0.,-1.,0.));
#850=DIRECTION('',(0.,1.,0.));
#851=DIRECTION('',(0.,0.,1.));
#852=DIRECTION('',(0.,-1.,0.));
#853=DIRECTION('',(0.,0.,-1.));
#854=DIRECTION('',(0.,0.,-1.));
#855=DIRECTION('',(0.,1.,0.));
#856=DIRECTION('',(0.,0.,1.));
#857=DIRECTION('',(-1.,0.,0.));
#858=DIRECTION('',(0.,1.,0.));
#859=DIRECTION('',(0.,0.,1.));
#860=DIRECTION('',(0.,0.,-1.));
#861=DIRECTION('',(-1.,0.,0.));
#862=DIRECTION('',(0.,-1.,0.));
#863=DIRECTION('',(1.,0.,0.));
#864=DIRECTION('',(0.,1.,0.));
#865=DIRECTION('',(0.,-1.,0.));
#866=DIRECTION('',(0.,-1.,0.));
#867=DIRECTION('',(0.,-1.,0.));
#868=DIRECTION('',(0.,0.,-1.));
#869=DIRECTION('',(1.,0.,0.));
#870=DIRECTION('',(1.,0.,0.));
#871=DIRECTION('',(1.,0.,0.));
#872=DIRECTION('',(1.,0.,0.));
#873=DIRECTION('',(0.,-1.,0.));
#874=DIRECTION('',(0.,0.,-1.));
#875=DIRECTION('',(1.,0.,0.));
#876=DIRECTION('',(0.,0.,-1.));
#877=DIRECTION('',(1.,0.,0.));
#878=DIRECTION('',(0.,-1.,0.));
#879=DIRECTION('',(0.,0.,-1.));
#880=DIRECTION('',(0.,0.,-1.));
#881=DIRECTION('',(-1.,0.,0.));
#882=DIRECTION('',(0.,-1.,0.));
#883=DIRECTION('',(0.,1.,0.));
#884=DIRECTION('',(0.,0.,1.));
#885=DIRECTION('',(0.,-1.,0.));
#886=DIRECTION('',(0.,0.,-1.));
#887=CARTESIAN_POINT('',(0.,0.,0.));
#888=CARTESIAN_POINT('',(-0.011,0.0093,0.01122));
#889=CARTESIAN_POINT('',(-0.011,0.00929999999999848,0.02244));
#890=CARTESIAN_POINT('',(-0.011,0.00619999999999899,0.0224399999999993));
#891=CARTESIAN_POINT('',(-0.011,0.0030999999999995,0.0204399999999997));
#892=CARTESIAN_POINT('',(-0.011,0.,0.01844));
#893=CARTESIAN_POINT('',(-0.011,0.00929999999999848,0.02244));
#894=CARTESIAN_POINT('',(-0.011,0.,0.01844));
#895=CARTESIAN_POINT('',(-0.011,0.0186,0.01844));
#896=CARTESIAN_POINT('',(-0.011,0.0154999999999995,0.0204400000000004));
#897=CARTESIAN_POINT('',(-0.011,0.012399999999999,0.0224400000000007));
#898=CARTESIAN_POINT('',(-0.011,0.00929999999999848,0.02244));
#899=CARTESIAN_POINT('',(-0.011,0.0186,0.01844));
#900=CARTESIAN_POINT('',(-0.011,0.0186,0.02244));
#901=CARTESIAN_POINT('',(-0.011,0.0186,0.004));
#902=CARTESIAN_POINT('',(-0.011,0.0186,0.004));
#903=CARTESIAN_POINT('',(-0.011,0.0155,0.002));
#904=CARTESIAN_POINT('',(-0.011,0.0124,-4.2327252813834E-19));
#905=CARTESIAN_POINT('',(-0.011,0.0093,-8.67361737988403E-19));
#906=CARTESIAN_POINT('',(-0.011,0.0093,0.));
#907=CARTESIAN_POINT('',(-0.011,0.0093,-8.67361737988403E-19));
#908=CARTESIAN_POINT('',(-0.011,0.0062,-1.31145094783847E-18));
#909=CARTESIAN_POINT('',(-0.011,0.0031,0.002));
#910=CARTESIAN_POINT('',(-0.011,1.68530201112336E-18,0.004));
#911=CARTESIAN_POINT('',(-0.011,0.,0.004));
#912=CARTESIAN_POINT('',(-0.011,0.,0.02244));
#913=CARTESIAN_POINT('',(-0.011,0.0174258749945059,0.01122));
#914=CARTESIAN_POINT('',(-0.011,0.0174258749945059,0.01722));
#915=CARTESIAN_POINT('',(-0.011,0.0174258749945059,0.00522));
#916=CARTESIAN_POINT('',(-0.011,0.0174258749945059,0.01722));
#917=CARTESIAN_POINT('',(-0.011,0.0147172499963367,0.019141553067267));
#918=CARTESIAN_POINT('',(-0.011,0.00929999999999848,0.0229846592018009));
#919=CARTESIAN_POINT('',(-0.011,0.00388275000366021,0.019141553067267));
#920=CARTESIAN_POINT('',(-0.011,0.00117412500549108,0.01722));
#921=CARTESIAN_POINT('',(-0.011,0.00117412500549108,0.01722));
#922=CARTESIAN_POINT('',(-0.011,0.00117412500549108,0.01122));
#923=CARTESIAN_POINT('',(-0.011,0.00117412500549108,0.00522));
#924=CARTESIAN_POINT('',(-0.011,0.0174258749945059,0.00522));
#925=CARTESIAN_POINT('',(-0.011,0.0147172499963372,0.00346087231127541));
#926=CARTESIAN_POINT('',(-0.011,0.00929999999999804,-5.73830661736452E-5));
#927=CARTESIAN_POINT('',(-0.011,0.00388275000366065,0.0034608723112755));
#928=CARTESIAN_POINT('',(-0.011,0.00117412500549108,0.00522));
#929=CARTESIAN_POINT('',(0.,0.0093,0.02244));
#930=CARTESIAN_POINT('',(0.,0.0093,-8.67361737988403E-19));
#931=CARTESIAN_POINT('',(0.,0.0062,-1.31145094783847E-18));
#932=CARTESIAN_POINT('',(0.,0.0031,0.002));
#933=CARTESIAN_POINT('',(0.,1.68530201112336E-18,0.004));
#934=CARTESIAN_POINT('',(0.,0.0093,0.));
#935=CARTESIAN_POINT('',(6.93889390390723E-18,0.,0.004));
#936=CARTESIAN_POINT('',(0.,0.0093,0.));
#937=CARTESIAN_POINT('',(6.93889390390723E-18,0.,0.));
#938=CARTESIAN_POINT('',(6.93889390390723E-18,0.,0.02244));
#939=CARTESIAN_POINT('',(0.,0.0093,0.02244));
#940=CARTESIAN_POINT('',(0.,0.0093,0.02244));
#941=CARTESIAN_POINT('',(6.93889390390723E-18,0.,0.02244));
#942=CARTESIAN_POINT('',(0.,0.00929999999999848,0.02244));
#943=CARTESIAN_POINT('',(0.,0.00929999999999848,0.02244));
#944=CARTESIAN_POINT('',(0.,0.00619999999999899,0.0224399999999993));
#945=CARTESIAN_POINT('',(0.,0.0030999999999995,0.0204399999999997));
#946=CARTESIAN_POINT('',(0.,0.,0.01844));
#947=CARTESIAN_POINT('',(6.93889390390723E-18,0.,0.01844));
#948=CARTESIAN_POINT('',(6.93889390390723E-18,0.,0.02244));
#949=CARTESIAN_POINT('',(0.,0.0093,0.02244));
#950=CARTESIAN_POINT('',(-3.46944695195361E-18,0.0186,0.02244));
#951=CARTESIAN_POINT('',(-3.46944695195361E-18,0.0186,0.02244));
#952=CARTESIAN_POINT('',(-3.46944695195361E-18,0.0186,0.01844));
#953=CARTESIAN_POINT('',(0.,0.0186,0.01844));
#954=CARTESIAN_POINT('',(0.,0.0154999999999995,0.0204400000000004));
#955=CARTESIAN_POINT('',(0.,0.012399999999999,0.0224400000000007));
#956=CARTESIAN_POINT('',(0.,0.00929999999999848,0.02244));
#957=CARTESIAN_POINT('',(0.,0.0093,0.02244));
#958=CARTESIAN_POINT('',(0.0185,0.,0.02244));
#959=CARTESIAN_POINT('',(0.003679,0.,0.0025));
#960=CARTESIAN_POINT('',(0.003679,0.,0.001));
#961=CARTESIAN_POINT('',(0.003679,0.,0.02044));
#962=CARTESIAN_POINT('',(0.003679,0.,0.01894));
#963=CARTESIAN_POINT('',(0.0185,0.,0.));
#964=CARTESIAN_POINT('',(0.032779,0.,0.));
#965=CARTESIAN_POINT('',(0.032779,0.,0.004221));
#966=CARTESIAN_POINT('',(0.037,6.93889390390723E-18,0.004221));
#967=CARTESIAN_POINT('',(0.037,6.93889390390723E-18,0.02244));
#968=CARTESIAN_POINT('',(0.037,6.93889390390723E-18,0.018219));
#969=CARTESIAN_POINT('',(0.032779,0.,0.018219));
#970=CARTESIAN_POINT('',(0.032779,0.,0.02244));
#971=CARTESIAN_POINT('',(0.0185,0.,0.02244));
#972=CARTESIAN_POINT('',(-0.011,0.,0.01844));
#973=CARTESIAN_POINT('',(-0.011,0.,0.004));
#974=CARTESIAN_POINT('',(0.023529,0.,0.01122));
#975=CARTESIAN_POINT('',(0.0215187314878109,0.,0.0130224484760738));
#976=CARTESIAN_POINT('',(0.0216082454050438,0.,0.00932244847607382));
#977=CARTESIAN_POINT('',(0.023529,0.,0.0130224484760738));
#978=CARTESIAN_POINT('',(0.0255392685121891,0.,0.0130224484760738));
#979=CARTESIAN_POINT('',(0.023529,0.,0.01122));
#980=CARTESIAN_POINT('',(0.0254497545949562,0.,0.00932244847607382));
#981=CARTESIAN_POINT('',(0.023529,0.,0.00932244847607382));
#982=CARTESIAN_POINT('',(0.,0.0093,0.02244));
#983=CARTESIAN_POINT('',(0.,0.0186,0.004));
#984=CARTESIAN_POINT('',(0.,0.0155,0.002));
#985=CARTESIAN_POINT('',(0.,0.0124,-4.2327252813834E-19));
#986=CARTESIAN_POINT('',(0.,0.0093,-8.67361737988403E-19));
#987=CARTESIAN_POINT('',(-3.46944695195361E-18,0.0186,0.004));
#988=CARTESIAN_POINT('',(-3.46944695195361E-18,0.0186,0.02244));
#989=CARTESIAN_POINT('',(-3.46944695195361E-18,0.0186,0.));
#990=CARTESIAN_POINT('',(0.,0.0093,0.));
#991=CARTESIAN_POINT('',(0.037,0.0093,0.02244));
#992=CARTESIAN_POINT('',(0.037,0.0093,0.01372));
#993=CARTESIAN_POINT('',(0.037,0.0107,0.01372));
#994=CARTESIAN_POINT('',(0.037,0.0079,0.01372));
#995=CARTESIAN_POINT('',(0.037,0.0107,0.01122));
#996=CARTESIAN_POINT('',(0.037,0.0107,0.00872));
#997=CARTESIAN_POINT('',(0.037,0.0093,0.00872));
#998=CARTESIAN_POINT('',(0.037,0.0079,0.00872));
#999=CARTESIAN_POINT('',(0.037,0.0079,0.01122));
#1000=CARTESIAN_POINT('',(0.037,0.0093,0.004221));
#1001=CARTESIAN_POINT('',(0.037,0.0186,0.004221));
#1002=CARTESIAN_POINT('',(0.037,0.0186,0.02244));
#1003=CARTESIAN_POINT('',(0.037,0.0186,0.018219));
#1004=CARTESIAN_POINT('',(0.037,6.93889390390723E-18,0.018219));
#1005=CARTESIAN_POINT('',(0.0185,0.0186,0.02244));
#1006=CARTESIAN_POINT('',(0.003679,0.0186,0.0025));
#1007=CARTESIAN_POINT('',(0.003679,0.0186,0.004));
#1008=CARTESIAN_POINT('',(0.003679,0.0186,0.02044));
#1009=CARTESIAN_POINT('',(0.003679,0.0186,0.02194));
#1010=CARTESIAN_POINT('',(0.032779,0.0186,0.004221));
#1011=CARTESIAN_POINT('',(0.032779,0.0186,0.));
#1012=CARTESIAN_POINT('',(0.0185,0.0186,0.));
#1013=CARTESIAN_POINT('',(-0.011,0.0186,0.004));
#1014=CARTESIAN_POINT('',(-0.011,0.0186,0.01844));
#1015=CARTESIAN_POINT('',(0.0185,0.0186,0.02244));
#1016=CARTESIAN_POINT('',(0.032779,0.0186,0.02244));
#1017=CARTESIAN_POINT('',(0.032779,0.0186,0.018219));
#1018=CARTESIAN_POINT('',(0.0185,0.0093,0.02244));
#1019=CARTESIAN_POINT('',(0.032779,0.0186,0.02244));
#1020=CARTESIAN_POINT('',(0.0185,0.0093,0.));
#1021=CARTESIAN_POINT('',(0.032779,0.0093,0.));
#1022=CARTESIAN_POINT('',(0.032779,0.0093,0.018219));
#1023=CARTESIAN_POINT('',(0.032779,0.0093,0.004221));
#1024=CARTESIAN_POINT('',(0.023529,-0.0093,0.0130224484760738));
#1025=CARTESIAN_POINT('',(0.0215187314878109,-0.0093,0.0130224484760738));
#1026=CARTESIAN_POINT('',(0.0215187314878109,-0.0093,0.0130224484760738));
#1027=CARTESIAN_POINT('',(0.023529,-0.0093,0.0130224484760738));
#1028=CARTESIAN_POINT('',(0.0255392685121891,-0.0093,0.0130224484760738));
#1029=CARTESIAN_POINT('',(0.0255392685121891,-0.0093,0.0130224484760738));
#1030=CARTESIAN_POINT('',(0.023529,-0.0093,0.01122));
#1031=CARTESIAN_POINT('',(0.0216082454050438,-0.0093,0.00932244847607382));
#1032=CARTESIAN_POINT('',(0.0216082454050438,-0.0093,0.00932244847607382));
#1033=CARTESIAN_POINT('',(0.023529,-0.0093,0.01122));
#1034=CARTESIAN_POINT('',(0.023529,-0.0093,0.00932244847607382));
#1035=CARTESIAN_POINT('',(0.0254497545949562,-0.0093,0.00932244847607382));
#1036=CARTESIAN_POINT('',(0.0254497545949562,-0.0093,0.00932244847607382));
#1037=CARTESIAN_POINT('',(0.023529,-0.0093,0.00932244847607382));
#1038=CARTESIAN_POINT('',(0.023529,-0.0093,0.01122));
#1039=CARTESIAN_POINT('',(0.023529,-0.0093,0.01122));
#1040=CARTESIAN_POINT('',(0.023529,-0.0093,0.01122));
#1041=CARTESIAN_POINT('',(0.023529,-0.0093,0.01122));
#1042=CARTESIAN_POINT('',(0.023529,-0.0093,0.01025));
#1043=CARTESIAN_POINT('',(0.023529,0.,0.01122));
#1044=CARTESIAN_POINT('',(0.023529,0.,0.01025));
#1045=CARTESIAN_POINT('',(0.011176408495754,-0.0093,0.01122));
#1046=CARTESIAN_POINT('',(0.0185,0.,0.02244));
#1047=CARTESIAN_POINT('',(0.003679,0.025,0.02044));
#1048=CARTESIAN_POINT('',(0.003679,0.025,0.0025));
#1049=CARTESIAN_POINT('',(0.0418,0.0107,0.01122));
#1050=CARTESIAN_POINT('',(0.0394,0.0107,0.0111716073006391));
#1051=CARTESIAN_POINT('',(0.0394,0.0107,0.0126716073006391));
#1052=CARTESIAN_POINT('',(0.0418,0.0107,0.01372));
#1053=CARTESIAN_POINT('',(0.0413,0.0107,0.01372));
#1054=CARTESIAN_POINT('',(0.0413,0.0107,0.01322));
#1055=CARTESIAN_POINT('',(0.0418,0.0107,0.01322));
#1056=CARTESIAN_POINT('',(0.0418,0.0107,0.01122));
#1057=CARTESIAN_POINT('',(0.0418,0.0107,0.00922));
#1058=CARTESIAN_POINT('',(0.0413,0.0107,0.00922));
#1059=CARTESIAN_POINT('',(0.0413,0.0107,0.00872));
#1060=CARTESIAN_POINT('',(0.0418,0.0107,0.00872));
#1061=CARTESIAN_POINT('',(0.0418,0.0093,0.01372));
#1062=CARTESIAN_POINT('',(0.0418,0.0079,0.01372));
#1063=CARTESIAN_POINT('',(0.0413,0.0079,0.01372));
#1064=CARTESIAN_POINT('',(0.0413,0.0107,0.01372));
#1065=CARTESIAN_POINT('',(0.0418,0.0079,0.01122));
#1066=CARTESIAN_POINT('',(0.0394,0.0079,0.0111716073006391));
#1067=CARTESIAN_POINT('',(0.0394,0.0079,0.00967160730063914));
#1068=CARTESIAN_POINT('',(0.0418,0.0079,0.01122));
#1069=CARTESIAN_POINT('',(0.0418,0.0079,0.01322));
#1070=CARTESIAN_POINT('',(0.0418,0.0079,0.00922));
#1071=CARTESIAN_POINT('',(0.0413,0.0079,0.01322));
#1072=CARTESIAN_POINT('',(0.0418,0.0079,0.00872));
#1073=CARTESIAN_POINT('',(0.0413,0.0079,0.00872));
#1074=CARTESIAN_POINT('',(0.0413,0.0079,0.00922));
#1075=CARTESIAN_POINT('',(0.0418,0.0093,0.00872));
#1076=CARTESIAN_POINT('',(0.0413,0.0093,0.00872));
#1077=CARTESIAN_POINT('',(0.0418,0.0093,0.01122));
#1078=CARTESIAN_POINT('',(0.0418,0.0079,0.01322));
#1079=CARTESIAN_POINT('',(0.0418,0.0093,0.00922));
#1080=CARTESIAN_POINT('',(0.0394,0.0329,0.0111716073006391));
#1081=CARTESIAN_POINT('',(-0.011,0.00929999999999848,0.02244));
#1082=CARTESIAN_POINT('',(0.,0.00929999999999848,0.02244));
#1083=CARTESIAN_POINT('',(-0.011,0.00619999999999899,0.0224399999999993));
#1084=CARTESIAN_POINT('',(-1.73472347597681E-18,0.00619999999999899,0.0224399999999993));
#1085=CARTESIAN_POINT('',(-0.011,0.0030999999999995,0.0204399999999997));
#1086=CARTESIAN_POINT('',(-1.73472347597681E-18,0.0030999999999995,0.0204399999999997));
#1087=CARTESIAN_POINT('',(-0.011,0.,0.01844));
#1088=CARTESIAN_POINT('',(0.,0.,0.01844));
#1089=CARTESIAN_POINT('',(-0.011,0.00929999999999848,0.02244));
#1090=CARTESIAN_POINT('',(-0.011,0.0186,0.01844));
#1091=CARTESIAN_POINT('',(-3.46944695195361E-18,0.0186,0.01844));
#1092=CARTESIAN_POINT('',(-0.011,0.0154999999999995,0.0204400000000004));
#1093=CARTESIAN_POINT('',(-5.20417042793042E-18,0.0154999999999995,0.0204400000000004));
#1094=CARTESIAN_POINT('',(-0.011,0.012399999999999,0.0224400000000007));
#1095=CARTESIAN_POINT('',(-5.20417042793042E-18,0.012399999999999,0.0224400000000007));
#1096=CARTESIAN_POINT('',(-0.011,0.00929999999999848,0.02244));
#1097=CARTESIAN_POINT('',(-3.46944695195361E-18,0.00929999999999848,0.02244));
#1098=CARTESIAN_POINT('',(-0.011,0.0186,0.004));
#1099=CARTESIAN_POINT('',(-3.46944695195361E-18,0.0186,0.004));
#1100=CARTESIAN_POINT('',(-0.011,0.0155,0.002));
#1101=CARTESIAN_POINT('',(-5.20417042793042E-18,0.0155,0.002));
#1102=CARTESIAN_POINT('',(-0.011,0.0124,-4.2327252813834E-19));
#1103=CARTESIAN_POINT('',(-5.20417042793042E-18,0.0124,-4.2327252813834E-19));
#1104=CARTESIAN_POINT('',(-0.011,0.0093,-8.67361737988403E-19));
#1105=CARTESIAN_POINT('',(-3.46944695195361E-18,0.0093,-8.67361737988403E-19));
#1106=CARTESIAN_POINT('',(-0.011,0.0093,0.));
#1107=CARTESIAN_POINT('',(-0.011,0.0093,-8.67361737988403E-19));
#1108=CARTESIAN_POINT('',(0.,0.0093,-8.67361737988403E-19));
#1109=CARTESIAN_POINT('',(-0.011,0.0062,-1.31145094783847E-18));
#1110=CARTESIAN_POINT('',(-1.73472347597681E-18,0.0062,-1.31145094783847E-18));
#1111=CARTESIAN_POINT('',(-0.011,0.0031,0.002));
#1112=CARTESIAN_POINT('',(-1.73472347597681E-18,0.0031,0.002));
#1113=CARTESIAN_POINT('',(-0.011,1.68530201112336E-18,0.004));
#1114=CARTESIAN_POINT('',(0.,1.68530201112336E-18,0.004));
#1115=CARTESIAN_POINT('',(-0.025,0.0174258749945059,0.01722));
#1116=CARTESIAN_POINT('',(-0.011,0.0174258749945059,0.01722));
#1117=CARTESIAN_POINT('',(-0.025,0.0147172499963367,0.019141553067267));
#1118=CARTESIAN_POINT('',(-0.011,0.0147172499963367,0.019141553067267));
#1119=CARTESIAN_POINT('',(-0.025,0.00929999999999848,0.0229846592018009));
#1120=CARTESIAN_POINT('',(-0.011,0.00929999999999848,0.0229846592018009));
#1121=CARTESIAN_POINT('',(-0.025,0.00388275000366021,0.019141553067267));
#1122=CARTESIAN_POINT('',(-0.011,0.00388275000366021,0.019141553067267));
#1123=CARTESIAN_POINT('',(-0.025,0.00117412500549108,0.01722));
#1124=CARTESIAN_POINT('',(-0.011,0.00117412500549108,0.01722));
#1125=CARTESIAN_POINT('',(-0.025,0.0174258749945059,0.01722));
#1126=CARTESIAN_POINT('',(-0.025,0.0174258749945059,0.01722));
#1127=CARTESIAN_POINT('',(-0.025,0.0174258749945059,0.01722));
#1128=CARTESIAN_POINT('',(-0.025,0.0147172499963367,0.019141553067267));
#1129=CARTESIAN_POINT('',(-0.025,0.00929999999999848,0.0229846592018009));
#1130=CARTESIAN_POINT('',(-0.025,0.00388275000366021,0.019141553067267));
#1131=CARTESIAN_POINT('',(-0.025,0.00117412500549108,0.01722));
#1132=CARTESIAN_POINT('',(-0.025,0.00117412500549108,0.01722));
#1133=CARTESIAN_POINT('',(-0.025,0.00117412500549108,0.01722));
#1134=CARTESIAN_POINT('',(-0.025,0.0174258749945059,0.01122));
#1135=CARTESIAN_POINT('',(-0.025,0.0174258749945059,0.00522));
#1136=CARTESIAN_POINT('',(-0.025,0.0174258749945059,0.00522));
#1137=CARTESIAN_POINT('',(-0.025,0.0174258749945059,0.01122));
#1138=CARTESIAN_POINT('',(-0.025,0.0174258749945059,0.00522));
#1139=CARTESIAN_POINT('',(-0.011,0.0174258749945059,0.00522));
#1140=CARTESIAN_POINT('',(-0.025,0.0147172499963372,0.00346087231127541));
#1141=CARTESIAN_POINT('',(-0.011,0.0147172499963372,0.00346087231127541));
#1142=CARTESIAN_POINT('',(-0.025,0.00929999999999804,-5.73830661736452E-5));
#1143=CARTESIAN_POINT('',(-0.011,0.00929999999999804,-5.73830661736452E-5));
#1144=CARTESIAN_POINT('',(-0.025,0.00388275000366065,0.0034608723112755));
#1145=CARTESIAN_POINT('',(-0.011,0.00388275000366065,0.0034608723112755));
#1146=CARTESIAN_POINT('',(-0.025,0.00117412500549108,0.00522));
#1147=CARTESIAN_POINT('',(-0.011,0.00117412500549108,0.00522));
#1148=CARTESIAN_POINT('',(-0.025,0.00117412500549108,0.00522));
#1149=CARTESIAN_POINT('',(-0.025,0.00117412500549108,0.00522));
#1150=CARTESIAN_POINT('',(-0.025,0.0174258749945059,0.00522));
#1151=CARTESIAN_POINT('',(-0.025,0.0147172499963372,0.00346087231127541));
#1152=CARTESIAN_POINT('',(-0.025,0.00929999999999804,-5.73830661736452E-5));
#1153=CARTESIAN_POINT('',(-0.025,0.00388275000366065,0.0034608723112755));
#1154=CARTESIAN_POINT('',(-0.025,0.00117412500549108,0.00522));
#1155=CARTESIAN_POINT('',(-0.025,0.00117412500549108,0.01122));
#1156=CARTESIAN_POINT('',(-0.025,0.00117412500549108,0.01122));
#1157=CARTESIAN_POINT('',(-0.025,0.0093,0.0114636380678136));
#1158=CARTESIAN_POINT('',(0.0413,0.0093,0.01322));
#1159=CARTESIAN_POINT('',(0.0413,0.0093,0.00922));
#1160=MECHANICAL_DESIGN_GEOMETRIC_PRESENTATION_REPRESENTATION('',(#661),
#1161);
#1161=(
GEOMETRIC_REPRESENTATION_CONTEXT(3)
GLOBAL_UNCERTAINTY_ASSIGNED_CONTEXT((#1162))
GLOBAL_UNIT_ASSIGNED_CONTEXT((#1165,#1164,#1163))
REPRESENTATION_CONTEXT('Part 1','TOP_LEVEL_ASSEMBLY_PART')
);
#1162=UNCERTAINTY_MEASURE_WITH_UNIT(LENGTH_MEASURE(2.E-5),#1165,
'DISTANCE_ACCURACY_VALUE','Maximum Tolerance applied to model');
#1163=(
NAMED_UNIT(*)
SI_UNIT($,.STERADIAN.)
SOLID_ANGLE_UNIT()
);
#1164=(
NAMED_UNIT(*)
PLANE_ANGLE_UNIT()
SI_UNIT($,.RADIAN.)
);
#1165=(
LENGTH_UNIT()
NAMED_UNIT(*)
SI_UNIT($,.METRE.)
);
#1166=PRODUCT_DEFINITION_SHAPE('','',#1167);
#1167=PRODUCT_DEFINITION('','',#1169,#1168);
#1168=PRODUCT_DEFINITION_CONTEXT('',#1175,'design');
#1169=PRODUCT_DEFINITION_FORMATION_WITH_SPECIFIED_SOURCE('','',#1171,
 .NOT_KNOWN.);
#1170=PRODUCT_RELATED_PRODUCT_CATEGORY('','',(#1171));
#1171=PRODUCT('Part 1','Part 1','Part 1',(#1173));
#1172=PRODUCT_CATEGORY('','');
#1173=PRODUCT_CONTEXT('',#1175,'mechanical');
#1174=APPLICATION_PROTOCOL_DEFINITION('international standard',
'ap242_managed_model_based_3d_engineering',2020,#1175);
#1175=APPLICATION_CONTEXT('managed model based 3d engineering');
ENDSEC;
END-ISO-10303-21;
