ISO-10303-21;
HEADER;
/* Generated by software containing ST-Developer
 * from STEP Tools, Inc. (www.steptools.com) 
 */
/* OPTION: using custom renumber hook */

FILE_DESCRIPTION(
/* description */ ('STEP AP242 Edition 2',
'CAx-IF Rec.Pracs.---Representation and Presentation of Product Manufa
cturing Information (PMI)---4.0---2014-10-13',
'CAx-IF Rec.Pracs.---3D Tessellated Geometry---0.4---2014-09-14','2;1',
'CAx-IF Rec.Pracs.---User Defined Attributes---1.5---2016-08-15'),
/* implementation_level */ '2;1');

FILE_NAME(
/* name */ 'Led 5mm - white',
/* time_stamp */ '2026-07-05T15:48:01Z',
/* author */ (''),
/* organization */ (''),
/* preprocessor_version */ 'ST-DEVELOPER v20',
/* originating_system */ 'ONSHAPE BY PTC INC, 1.217',
/* authorisation */ '  ');

FILE_SCHEMA (('AP242_MANAGED_MODEL_BASED_3D_ENGINEERING_MIM_LF { 1 0 10303 442 3 1 4 }'));
ENDSEC;

DATA;
#10=SURFACE_STYLE_RENDERING_WITH_PROPERTIES(.CONSTANT_SHADING.,#12,(#11));
#11=SURFACE_STYLE_TRANSPARENT(0.423529411764706);
#12=DRAUGHTING_PRE_DEFINED_COLOUR('white');
#13=CYLINDRICAL_SURFACE('',#785,0.0002);
#14=CYLINDRICAL_SURFACE('',#811,0.003);
#15=CYLINDRICAL_SURFACE('',#814,0.0025);
#16=SPHERICAL_SURFACE('',#782,0.000566666666666667);
#17=SPHERICAL_SURFACE('',#783,0.000566666666666667);
#18=SPHERICAL_SURFACE('',#812,0.0025);
#19=CIRCLE('',#772,0.00020000000001);
#20=CIRCLE('',#777,0.000513333333343334);
#21=CIRCLE('',#779,0.00020000000001);
#22=CIRCLE('',#780,0.00050000000001);
#23=CIRCLE('',#781,0.00050000000001);
#24=CIRCLE('',#784,0.000513333333343334);
#25=CIRCLE('',#807,0.00300000000001);
#26=CIRCLE('',#809,0.00300000000001);
#27=CIRCLE('',#810,0.00250000000001);
#28=CIRCLE('',#813,0.00250000000001);
#29=SHAPE_REPRESENTATION_RELATIONSHIP('','',#757,#32);
#30=SHAPE_REPRESENTATION_RELATIONSHIP('','',#758,#33);
#31=SHAPE_REPRESENTATION_RELATIONSHIP('','',#759,#34);
#32=ADVANCED_BREP_SHAPE_REPRESENTATION('',(#751),#1217);
#33=ADVANCED_BREP_SHAPE_REPRESENTATION('',(#752),#1218);
#34=ADVANCED_BREP_SHAPE_REPRESENTATION('',(#753),#1219);
#35=ORIENTED_EDGE('',*,*,#225,.T.);
#36=ORIENTED_EDGE('',*,*,#226,.T.);
#37=ORIENTED_EDGE('',*,*,#227,.T.);
#38=ORIENTED_EDGE('',*,*,#228,.T.);
#39=ORIENTED_EDGE('',*,*,#227,.F.);
#40=ORIENTED_EDGE('',*,*,#229,.F.);
#41=ORIENTED_EDGE('',*,*,#230,.F.);
#42=ORIENTED_EDGE('',*,*,#231,.F.);
#43=ORIENTED_EDGE('',*,*,#232,.F.);
#44=ORIENTED_EDGE('',*,*,#233,.F.);
#45=ORIENTED_EDGE('',*,*,#230,.T.);
#46=ORIENTED_EDGE('',*,*,#234,.F.);
#47=ORIENTED_EDGE('',*,*,#235,.F.);
#48=ORIENTED_EDGE('',*,*,#236,.T.);
#49=ORIENTED_EDGE('',*,*,#231,.T.);
#50=ORIENTED_EDGE('',*,*,#236,.F.);
#51=ORIENTED_EDGE('',*,*,#237,.F.);
#52=ORIENTED_EDGE('',*,*,#238,.T.);
#53=ORIENTED_EDGE('',*,*,#232,.T.);
#54=ORIENTED_EDGE('',*,*,#238,.F.);
#55=ORIENTED_EDGE('',*,*,#239,.F.);
#56=ORIENTED_EDGE('',*,*,#240,.T.);
#57=ORIENTED_EDGE('',*,*,#225,.F.);
#58=ORIENTED_EDGE('',*,*,#241,.T.);
#59=ORIENTED_EDGE('',*,*,#239,.T.);
#60=ORIENTED_EDGE('',*,*,#237,.T.);
#61=ORIENTED_EDGE('',*,*,#235,.T.);
#62=ORIENTED_EDGE('',*,*,#242,.T.);
#63=ORIENTED_EDGE('',*,*,#228,.F.);
#64=ORIENTED_EDGE('',*,*,#233,.T.);
#65=ORIENTED_EDGE('',*,*,#240,.F.);
#66=ORIENTED_EDGE('',*,*,#241,.F.);
#67=ORIENTED_EDGE('',*,*,#226,.F.);
#68=ORIENTED_EDGE('',*,*,#242,.F.);
#69=ORIENTED_EDGE('',*,*,#234,.T.);
#70=ORIENTED_EDGE('',*,*,#229,.T.);
#71=ORIENTED_EDGE('',*,*,#243,.T.);
#72=ORIENTED_EDGE('',*,*,#244,.T.);
#73=ORIENTED_EDGE('',*,*,#245,.T.);
#74=ORIENTED_EDGE('',*,*,#246,.T.);
#75=ORIENTED_EDGE('',*,*,#247,.T.);
#76=ORIENTED_EDGE('',*,*,#248,.T.);
#77=ORIENTED_EDGE('',*,*,#249,.F.);
#78=ORIENTED_EDGE('',*,*,#250,.F.);
#79=ORIENTED_EDGE('',*,*,#251,.T.);
#80=ORIENTED_EDGE('',*,*,#252,.T.);
#81=ORIENTED_EDGE('',*,*,#251,.F.);
#82=ORIENTED_EDGE('',*,*,#253,.F.);
#83=ORIENTED_EDGE('',*,*,#254,.T.);
#84=ORIENTED_EDGE('',*,*,#255,.T.);
#85=ORIENTED_EDGE('',*,*,#256,.F.);
#86=ORIENTED_EDGE('',*,*,#257,.F.);
#87=ORIENTED_EDGE('',*,*,#258,.T.);
#88=ORIENTED_EDGE('',*,*,#246,.F.);
#89=ORIENTED_EDGE('',*,*,#259,.T.);
#90=ORIENTED_EDGE('',*,*,#257,.T.);
#91=ORIENTED_EDGE('',*,*,#260,.T.);
#92=ORIENTED_EDGE('',*,*,#261,.T.);
#93=ORIENTED_EDGE('',*,*,#262,.T.);
#94=ORIENTED_EDGE('',*,*,#253,.T.);
#95=ORIENTED_EDGE('',*,*,#250,.T.);
#96=ORIENTED_EDGE('',*,*,#263,.T.);
#97=ORIENTED_EDGE('',*,*,#264,.F.);
#98=ORIENTED_EDGE('',*,*,#265,.T.);
#99=ORIENTED_EDGE('',*,*,#260,.F.);
#100=ORIENTED_EDGE('',*,*,#256,.T.);
#101=ORIENTED_EDGE('',*,*,#266,.T.);
#102=ORIENTED_EDGE('',*,*,#267,.T.);
#103=ORIENTED_EDGE('',*,*,#268,.T.);
#104=ORIENTED_EDGE('',*,*,#254,.F.);
#105=ORIENTED_EDGE('',*,*,#262,.F.);
#106=ORIENTED_EDGE('',*,*,#265,.F.);
#107=ORIENTED_EDGE('',*,*,#261,.F.);
#108=ORIENTED_EDGE('',*,*,#269,.T.);
#109=ORIENTED_EDGE('',*,*,#267,.F.);
#110=ORIENTED_EDGE('',*,*,#247,.F.);
#111=ORIENTED_EDGE('',*,*,#264,.T.);
#112=ORIENTED_EDGE('',*,*,#245,.F.);
#113=ORIENTED_EDGE('',*,*,#270,.T.);
#114=ORIENTED_EDGE('',*,*,#258,.F.);
#115=ORIENTED_EDGE('',*,*,#259,.F.);
#116=ORIENTED_EDGE('',*,*,#243,.F.);
#117=ORIENTED_EDGE('',*,*,#263,.F.);
#118=ORIENTED_EDGE('',*,*,#249,.T.);
#119=ORIENTED_EDGE('',*,*,#271,.T.);
#120=ORIENTED_EDGE('',*,*,#244,.F.);
#121=ORIENTED_EDGE('',*,*,#271,.F.);
#122=ORIENTED_EDGE('',*,*,#248,.F.);
#123=ORIENTED_EDGE('',*,*,#252,.F.);
#124=ORIENTED_EDGE('',*,*,#268,.F.);
#125=ORIENTED_EDGE('',*,*,#269,.F.);
#126=ORIENTED_EDGE('',*,*,#266,.F.);
#127=ORIENTED_EDGE('',*,*,#255,.F.);
#128=ORIENTED_EDGE('',*,*,#270,.F.);
#129=ORIENTED_EDGE('',*,*,#272,.F.);
#130=ORIENTED_EDGE('',*,*,#273,.F.);
#131=ORIENTED_EDGE('',*,*,#274,.F.);
#132=ORIENTED_EDGE('',*,*,#275,.F.);
#133=ORIENTED_EDGE('',*,*,#276,.F.);
#134=ORIENTED_EDGE('',*,*,#277,.F.);
#135=ORIENTED_EDGE('',*,*,#278,.F.);
#136=ORIENTED_EDGE('',*,*,#279,.T.);
#137=ORIENTED_EDGE('',*,*,#280,.T.);
#138=ORIENTED_EDGE('',*,*,#281,.T.);
#139=ORIENTED_EDGE('',*,*,#282,.T.);
#140=ORIENTED_EDGE('',*,*,#283,.T.);
#141=ORIENTED_EDGE('',*,*,#284,.T.);
#142=ORIENTED_EDGE('',*,*,#285,.T.);
#143=ORIENTED_EDGE('',*,*,#278,.T.);
#144=ORIENTED_EDGE('',*,*,#286,.F.);
#145=ORIENTED_EDGE('',*,*,#280,.F.);
#146=ORIENTED_EDGE('',*,*,#287,.T.);
#147=ORIENTED_EDGE('',*,*,#277,.T.);
#148=ORIENTED_EDGE('',*,*,#288,.F.);
#149=ORIENTED_EDGE('',*,*,#281,.F.);
#150=ORIENTED_EDGE('',*,*,#286,.T.);
#151=ORIENTED_EDGE('',*,*,#276,.T.);
#152=ORIENTED_EDGE('',*,*,#289,.F.);
#153=ORIENTED_EDGE('',*,*,#282,.F.);
#154=ORIENTED_EDGE('',*,*,#288,.T.);
#155=ORIENTED_EDGE('',*,*,#275,.T.);
#156=ORIENTED_EDGE('',*,*,#290,.F.);
#157=ORIENTED_EDGE('',*,*,#283,.F.);
#158=ORIENTED_EDGE('',*,*,#289,.T.);
#159=ORIENTED_EDGE('',*,*,#274,.T.);
#160=ORIENTED_EDGE('',*,*,#291,.F.);
#161=ORIENTED_EDGE('',*,*,#284,.F.);
#162=ORIENTED_EDGE('',*,*,#290,.T.);
#163=ORIENTED_EDGE('',*,*,#273,.T.);
#164=ORIENTED_EDGE('',*,*,#292,.F.);
#165=ORIENTED_EDGE('',*,*,#285,.F.);
#166=ORIENTED_EDGE('',*,*,#291,.T.);
#167=ORIENTED_EDGE('',*,*,#293,.F.);
#168=ORIENTED_EDGE('',*,*,#294,.F.);
#169=ORIENTED_EDGE('',*,*,#295,.F.);
#170=ORIENTED_EDGE('',*,*,#296,.F.);
#171=ORIENTED_EDGE('',*,*,#297,.F.);
#172=ORIENTED_EDGE('',*,*,#298,.F.);
#173=ORIENTED_EDGE('',*,*,#299,.T.);
#174=ORIENTED_EDGE('',*,*,#300,.T.);
#175=ORIENTED_EDGE('',*,*,#301,.T.);
#176=ORIENTED_EDGE('',*,*,#302,.T.);
#177=ORIENTED_EDGE('',*,*,#303,.T.);
#178=ORIENTED_EDGE('',*,*,#304,.T.);
#179=ORIENTED_EDGE('',*,*,#298,.T.);
#180=ORIENTED_EDGE('',*,*,#305,.F.);
#181=ORIENTED_EDGE('',*,*,#300,.F.);
#182=ORIENTED_EDGE('',*,*,#306,.T.);
#183=ORIENTED_EDGE('',*,*,#297,.T.);
#184=ORIENTED_EDGE('',*,*,#307,.F.);
#185=ORIENTED_EDGE('',*,*,#301,.F.);
#186=ORIENTED_EDGE('',*,*,#305,.T.);
#187=ORIENTED_EDGE('',*,*,#296,.T.);
#188=ORIENTED_EDGE('',*,*,#308,.F.);
#189=ORIENTED_EDGE('',*,*,#302,.F.);
#190=ORIENTED_EDGE('',*,*,#307,.T.);
#191=ORIENTED_EDGE('',*,*,#295,.T.);
#192=ORIENTED_EDGE('',*,*,#309,.F.);
#193=ORIENTED_EDGE('',*,*,#303,.F.);
#194=ORIENTED_EDGE('',*,*,#308,.T.);
#195=ORIENTED_EDGE('',*,*,#294,.T.);
#196=ORIENTED_EDGE('',*,*,#310,.F.);
#197=ORIENTED_EDGE('',*,*,#304,.F.);
#198=ORIENTED_EDGE('',*,*,#309,.T.);
#199=ORIENTED_EDGE('',*,*,#311,.T.);
#200=ORIENTED_EDGE('',*,*,#312,.T.);
#201=ORIENTED_EDGE('',*,*,#313,.F.);
#202=ORIENTED_EDGE('',*,*,#314,.F.);
#203=ORIENTED_EDGE('',*,*,#315,.F.);
#204=ORIENTED_EDGE('',*,*,#306,.F.);
#205=ORIENTED_EDGE('',*,*,#299,.F.);
#206=ORIENTED_EDGE('',*,*,#310,.T.);
#207=ORIENTED_EDGE('',*,*,#293,.T.);
#208=ORIENTED_EDGE('',*,*,#287,.F.);
#209=ORIENTED_EDGE('',*,*,#279,.F.);
#210=ORIENTED_EDGE('',*,*,#292,.T.);
#211=ORIENTED_EDGE('',*,*,#272,.T.);
#212=ORIENTED_EDGE('',*,*,#316,.F.);
#213=ORIENTED_EDGE('',*,*,#312,.F.);
#214=ORIENTED_EDGE('',*,*,#314,.T.);
#215=ORIENTED_EDGE('',*,*,#317,.T.);
#216=ORIENTED_EDGE('',*,*,#315,.T.);
#217=ORIENTED_EDGE('',*,*,#318,.F.);
#218=ORIENTED_EDGE('',*,*,#317,.F.);
#219=ORIENTED_EDGE('',*,*,#313,.T.);
#220=ORIENTED_EDGE('',*,*,#316,.T.);
#221=ORIENTED_EDGE('',*,*,#311,.F.);
#222=ORIENTED_EDGE('',*,*,#319,.F.);
#223=ORIENTED_EDGE('',*,*,#319,.T.);
#224=ORIENTED_EDGE('',*,*,#318,.T.);
#225=EDGE_CURVE('',#320,#321,#384,.T.);
#226=EDGE_CURVE('',#321,#322,#385,.T.);
#227=EDGE_CURVE('',#322,#323,#386,.T.);
#228=EDGE_CURVE('',#323,#320,#387,.T.);
#229=EDGE_CURVE('',#324,#322,#388,.T.);
#230=EDGE_CURVE('',#325,#324,#389,.T.);
#231=EDGE_CURVE('',#326,#325,#390,.T.);
#232=EDGE_CURVE('',#327,#326,#391,.T.);
#233=EDGE_CURVE('',#323,#327,#392,.T.);
#234=EDGE_CURVE('',#328,#324,#393,.T.);
#235=EDGE_CURVE('',#329,#328,#394,.T.);
#236=EDGE_CURVE('',#329,#325,#395,.T.);
#237=EDGE_CURVE('',#330,#329,#396,.T.);
#238=EDGE_CURVE('',#330,#326,#397,.T.);
#239=EDGE_CURVE('',#331,#330,#398,.T.);
#240=EDGE_CURVE('',#331,#327,#399,.T.);
#241=EDGE_CURVE('',#320,#331,#400,.T.);
#242=EDGE_CURVE('',#328,#321,#401,.T.);
#243=EDGE_CURVE('',#332,#333,#402,.T.);
#244=EDGE_CURVE('',#333,#334,#403,.T.);
#245=EDGE_CURVE('',#334,#335,#404,.T.);
#246=EDGE_CURVE('',#335,#332,#405,.T.);
#247=EDGE_CURVE('',#336,#336,#19,.T.);
#248=EDGE_CURVE('',#337,#338,#406,.T.);
#249=EDGE_CURVE('',#339,#338,#407,.T.);
#250=EDGE_CURVE('',#340,#339,#408,.T.);
#251=EDGE_CURVE('',#340,#337,#409,.T.);
#252=EDGE_CURVE('',#341,#337,#410,.T.);
#253=EDGE_CURVE('',#342,#340,#411,.T.);
#254=EDGE_CURVE('',#342,#341,#412,.T.);
#255=EDGE_CURVE('',#343,#344,#413,.T.);
#256=EDGE_CURVE('',#345,#344,#414,.T.);
#257=EDGE_CURVE('',#346,#345,#415,.T.);
#258=EDGE_CURVE('',#346,#343,#416,.T.);
#259=EDGE_CURVE('',#335,#346,#417,.T.);
#260=EDGE_CURVE('',#345,#347,#418,.T.);
#261=EDGE_CURVE('',#347,#348,#20,.T.);
#262=EDGE_CURVE('',#348,#342,#419,.T.);
#263=EDGE_CURVE('',#339,#332,#420,.T.);
#264=EDGE_CURVE('',#349,#349,#21,.T.);
#265=EDGE_CURVE('',#348,#347,#22,.T.);
#266=EDGE_CURVE('',#344,#350,#421,.T.);
#267=EDGE_CURVE('',#350,#351,#23,.T.);
#268=EDGE_CURVE('',#351,#341,#422,.T.);
#269=EDGE_CURVE('',#350,#351,#24,.T.);
#270=EDGE_CURVE('',#334,#343,#423,.T.);
#271=EDGE_CURVE('',#338,#333,#424,.T.);
#272=EDGE_CURVE('',#352,#353,#425,.T.);
#273=EDGE_CURVE('',#354,#352,#426,.T.);
#274=EDGE_CURVE('',#355,#354,#427,.T.);
#275=EDGE_CURVE('',#356,#355,#428,.T.);
#276=EDGE_CURVE('',#357,#356,#429,.T.);
#277=EDGE_CURVE('',#358,#357,#430,.T.);
#278=EDGE_CURVE('',#353,#358,#431,.T.);
#279=EDGE_CURVE('',#359,#360,#432,.T.);
#280=EDGE_CURVE('',#360,#361,#433,.T.);
#281=EDGE_CURVE('',#361,#362,#434,.T.);
#282=EDGE_CURVE('',#362,#363,#435,.T.);
#283=EDGE_CURVE('',#363,#364,#436,.T.);
#284=EDGE_CURVE('',#364,#365,#437,.T.);
#285=EDGE_CURVE('',#365,#359,#438,.T.);
#286=EDGE_CURVE('',#361,#358,#439,.T.);
#287=EDGE_CURVE('',#360,#353,#440,.T.);
#288=EDGE_CURVE('',#362,#357,#441,.T.);
#289=EDGE_CURVE('',#363,#356,#442,.T.);
#290=EDGE_CURVE('',#364,#355,#443,.T.);
#291=EDGE_CURVE('',#365,#354,#444,.T.);
#292=EDGE_CURVE('',#359,#352,#445,.T.);
#293=EDGE_CURVE('',#366,#367,#446,.T.);
#294=EDGE_CURVE('',#368,#366,#447,.T.);
#295=EDGE_CURVE('',#369,#368,#448,.T.);
#296=EDGE_CURVE('',#370,#369,#449,.T.);
#297=EDGE_CURVE('',#371,#370,#450,.T.);
#298=EDGE_CURVE('',#367,#371,#451,.T.);
#299=EDGE_CURVE('',#372,#373,#452,.T.);
#300=EDGE_CURVE('',#373,#374,#453,.T.);
#301=EDGE_CURVE('',#374,#375,#454,.T.);
#302=EDGE_CURVE('',#375,#376,#455,.T.);
#303=EDGE_CURVE('',#376,#377,#456,.T.);
#304=EDGE_CURVE('',#377,#372,#457,.T.);
#305=EDGE_CURVE('',#374,#371,#458,.T.);
#306=EDGE_CURVE('',#373,#367,#459,.T.);
#307=EDGE_CURVE('',#375,#370,#460,.T.);
#308=EDGE_CURVE('',#376,#369,#461,.T.);
#309=EDGE_CURVE('',#377,#368,#462,.T.);
#310=EDGE_CURVE('',#372,#366,#463,.T.);
#311=EDGE_CURVE('',#378,#379,#464,.T.);
#312=EDGE_CURVE('',#379,#380,#465,.T.);
#313=EDGE_CURVE('',#381,#380,#466,.T.);
#314=EDGE_CURVE('',#382,#381,#467,.T.);
#315=EDGE_CURVE('',#378,#382,#468,.T.);
#316=EDGE_CURVE('',#380,#379,#25,.T.);
#317=EDGE_CURVE('',#381,#378,#26,.T.);
#318=EDGE_CURVE('',#382,#382,#27,.T.);
#319=EDGE_CURVE('',#383,#383,#28,.T.);
#320=VERTEX_POINT('',#1013);
#321=VERTEX_POINT('',#1014);
#322=VERTEX_POINT('',#1016);
#323=VERTEX_POINT('',#1018);
#324=VERTEX_POINT('',#1022);
#325=VERTEX_POINT('',#1024);
#326=VERTEX_POINT('',#1026);
#327=VERTEX_POINT('',#1028);
#328=VERTEX_POINT('',#1032);
#329=VERTEX_POINT('',#1034);
#330=VERTEX_POINT('',#1038);
#331=VERTEX_POINT('',#1042);
#332=VERTEX_POINT('',#1052);
#333=VERTEX_POINT('',#1053);
#334=VERTEX_POINT('',#1055);
#335=VERTEX_POINT('',#1057);
#336=VERTEX_POINT('',#1061);
#337=VERTEX_POINT('',#1064);
#338=VERTEX_POINT('',#1065);
#339=VERTEX_POINT('',#1067);
#340=VERTEX_POINT('',#1069);
#341=VERTEX_POINT('',#1073);
#342=VERTEX_POINT('',#1075);
#343=VERTEX_POINT('',#1079);
#344=VERTEX_POINT('',#1080);
#345=VERTEX_POINT('',#1082);
#346=VERTEX_POINT('',#1084);
#347=VERTEX_POINT('',#1089);
#348=VERTEX_POINT('',#1091);
#349=VERTEX_POINT('',#1096);
#350=VERTEX_POINT('',#1099);
#351=VERTEX_POINT('',#1101);
#352=VERTEX_POINT('',#1115);
#353=VERTEX_POINT('',#1116);
#354=VERTEX_POINT('',#1118);
#355=VERTEX_POINT('',#1120);
#356=VERTEX_POINT('',#1122);
#357=VERTEX_POINT('',#1124);
#358=VERTEX_POINT('',#1126);
#359=VERTEX_POINT('',#1130);
#360=VERTEX_POINT('',#1131);
#361=VERTEX_POINT('',#1133);
#362=VERTEX_POINT('',#1135);
#363=VERTEX_POINT('',#1137);
#364=VERTEX_POINT('',#1139);
#365=VERTEX_POINT('',#1141);
#366=VERTEX_POINT('',#1158);
#367=VERTEX_POINT('',#1159);
#368=VERTEX_POINT('',#1161);
#369=VERTEX_POINT('',#1163);
#370=VERTEX_POINT('',#1165);
#371=VERTEX_POINT('',#1167);
#372=VERTEX_POINT('',#1171);
#373=VERTEX_POINT('',#1172);
#374=VERTEX_POINT('',#1174);
#375=VERTEX_POINT('',#1176);
#376=VERTEX_POINT('',#1178);
#377=VERTEX_POINT('',#1180);
#378=VERTEX_POINT('',#1195);
#379=VERTEX_POINT('',#1196);
#380=VERTEX_POINT('',#1198);
#381=VERTEX_POINT('',#1200);
#382=VERTEX_POINT('',#1202);
#383=VERTEX_POINT('',#1212);
#384=LINE('',#1012,#469);
#385=LINE('',#1015,#470);
#386=LINE('',#1017,#471);
#387=LINE('',#1019,#472);
#388=LINE('',#1021,#473);
#389=LINE('',#1023,#474);
#390=LINE('',#1025,#475);
#391=LINE('',#1027,#476);
#392=LINE('',#1029,#477);
#393=LINE('',#1031,#478);
#394=LINE('',#1033,#479);
#395=LINE('',#1035,#480);
#396=LINE('',#1037,#481);
#397=LINE('',#1039,#482);
#398=LINE('',#1041,#483);
#399=LINE('',#1043,#484);
#400=LINE('',#1045,#485);
#401=LINE('',#1046,#486);
#402=LINE('',#1051,#487);
#403=LINE('',#1054,#488);
#404=LINE('',#1056,#489);
#405=LINE('',#1058,#490);
#406=LINE('',#1063,#491);
#407=LINE('',#1066,#492);
#408=LINE('',#1068,#493);
#409=LINE('',#1070,#494);
#410=LINE('',#1072,#495);
#411=LINE('',#1074,#496);
#412=LINE('',#1076,#497);
#413=LINE('',#1078,#498);
#414=LINE('',#1081,#499);
#415=LINE('',#1083,#500);
#416=LINE('',#1085,#501);
#417=LINE('',#1087,#502);
#418=LINE('',#1088,#503);
#419=LINE('',#1092,#504);
#420=LINE('',#1093,#505);
#421=LINE('',#1098,#506);
#422=LINE('',#1102,#507);
#423=LINE('',#1108,#508);
#424=LINE('',#1110,#509);
#425=LINE('',#1114,#510);
#426=LINE('',#1117,#511);
#427=LINE('',#1119,#512);
#428=LINE('',#1121,#513);
#429=LINE('',#1123,#514);
#430=LINE('',#1125,#515);
#431=LINE('',#1127,#516);
#432=LINE('',#1129,#517);
#433=LINE('',#1132,#518);
#434=LINE('',#1134,#519);
#435=LINE('',#1136,#520);
#436=LINE('',#1138,#521);
#437=LINE('',#1140,#522);
#438=LINE('',#1142,#523);
#439=LINE('',#1144,#524);
#440=LINE('',#1145,#525);
#441=LINE('',#1147,#526);
#442=LINE('',#1149,#527);
#443=LINE('',#1151,#528);
#444=LINE('',#1153,#529);
#445=LINE('',#1155,#530);
#446=LINE('',#1157,#531);
#447=LINE('',#1160,#532);
#448=LINE('',#1162,#533);
#449=LINE('',#1164,#534);
#450=LINE('',#1166,#535);
#451=LINE('',#1168,#536);
#452=LINE('',#1170,#537);
#453=LINE('',#1173,#538);
#454=LINE('',#1175,#539);
#455=LINE('',#1177,#540);
#456=LINE('',#1179,#541);
#457=LINE('',#1181,#542);
#458=LINE('',#1183,#543);
#459=LINE('',#1184,#544);
#460=LINE('',#1186,#545);
#461=LINE('',#1188,#546);
#462=LINE('',#1190,#547);
#463=LINE('',#1192,#548);
#464=LINE('',#1194,#549);
#465=LINE('',#1197,#550);
#466=LINE('',#1199,#551);
#467=LINE('',#1201,#552);
#468=LINE('',#1203,#553);
#469=VECTOR('',#819,1.);
#470=VECTOR('',#820,1.);
#471=VECTOR('',#821,1.);
#472=VECTOR('',#822,1.);
#473=VECTOR('',#825,1.);
#474=VECTOR('',#826,1.);
#475=VECTOR('',#827,1.);
#476=VECTOR('',#828,1.);
#477=VECTOR('',#829,1.);
#478=VECTOR('',#832,1.);
#479=VECTOR('',#833,1.);
#480=VECTOR('',#834,1.);
#481=VECTOR('',#837,1.);
#482=VECTOR('',#838,1.);
#483=VECTOR('',#841,1.);
#484=VECTOR('',#842,1.);
#485=VECTOR('',#845,1.);
#486=VECTOR('',#846,1.);
#487=VECTOR('',#855,1.);
#488=VECTOR('',#856,1.);
#489=VECTOR('',#857,1.);
#490=VECTOR('',#858,1.);
#491=VECTOR('',#865,1.);
#492=VECTOR('',#866,1.);
#493=VECTOR('',#867,1.);
#494=VECTOR('',#868,1.);
#495=VECTOR('',#871,1.);
#496=VECTOR('',#872,1.);
#497=VECTOR('',#873,1.);
#498=VECTOR('',#876,1.);
#499=VECTOR('',#877,1.);
#500=VECTOR('',#878,1.);
#501=VECTOR('',#879,1.);
#502=VECTOR('',#882,1.);
#503=VECTOR('',#883,1.);
#504=VECTOR('',#886,1.);
#505=VECTOR('',#887,1.);
#506=VECTOR('',#894,1.);
#507=VECTOR('',#897,1.);
#508=VECTOR('',#908,1.);
#509=VECTOR('',#911,1.);
#510=VECTOR('',#918,1.);
#511=VECTOR('',#919,1.);
#512=VECTOR('',#920,1.);
#513=VECTOR('',#921,1.);
#514=VECTOR('',#922,1.);
#515=VECTOR('',#923,1.);
#516=VECTOR('',#924,1.);
#517=VECTOR('',#927,1.);
#518=VECTOR('',#928,1.);
#519=VECTOR('',#929,1.);
#520=VECTOR('',#930,1.);
#521=VECTOR('',#931,1.);
#522=VECTOR('',#932,1.);
#523=VECTOR('',#933,1.);
#524=VECTOR('',#936,1.);
#525=VECTOR('',#937,1.);
#526=VECTOR('',#940,1.);
#527=VECTOR('',#943,1.);
#528=VECTOR('',#946,1.);
#529=VECTOR('',#949,1.);
#530=VECTOR('',#952,1.);
#531=VECTOR('',#955,1.);
#532=VECTOR('',#956,1.);
#533=VECTOR('',#957,1.);
#534=VECTOR('',#958,1.);
#535=VECTOR('',#959,1.);
#536=VECTOR('',#960,1.);
#537=VECTOR('',#963,1.);
#538=VECTOR('',#964,1.);
#539=VECTOR('',#965,1.);
#540=VECTOR('',#966,1.);
#541=VECTOR('',#967,1.);
#542=VECTOR('',#968,1.);
#543=VECTOR('',#971,1.);
#544=VECTOR('',#972,1.);
#545=VECTOR('',#975,1.);
#546=VECTOR('',#978,1.);
#547=VECTOR('',#981,1.);
#548=VECTOR('',#984,1.);
#549=VECTOR('',#987,1.);
#550=VECTOR('',#988,1.);
#551=VECTOR('',#989,1.);
#552=VECTOR('',#990,1.);
#553=VECTOR('',#991,1.);
#554=EDGE_LOOP('',(#35,#36,#37,#38));
#555=EDGE_LOOP('',(#39,#40,#41,#42,#43,#44));
#556=EDGE_LOOP('',(#45,#46,#47,#48));
#557=EDGE_LOOP('',(#49,#50,#51,#52));
#558=EDGE_LOOP('',(#53,#54,#55,#56));
#559=EDGE_LOOP('',(#57,#58,#59,#60,#61,#62));
#560=EDGE_LOOP('',(#63,#64,#65,#66));
#561=EDGE_LOOP('',(#67,#68,#69,#70));
#562=EDGE_LOOP('',(#71,#72,#73,#74));
#563=EDGE_LOOP('',(#75));
#564=EDGE_LOOP('',(#76,#77,#78,#79));
#565=EDGE_LOOP('',(#80,#81,#82,#83));
#566=EDGE_LOOP('',(#84,#85,#86,#87));
#567=EDGE_LOOP('',(#88,#89,#90,#91,#92,#93,#94,#95,#96));
#568=EDGE_LOOP('',(#97));
#569=EDGE_LOOP('',(#98,#99,#100,#101,#102,#103,#104,#105));
#570=EDGE_LOOP('',(#106,#107));
#571=EDGE_LOOP('',(#108,#109));
#572=EDGE_LOOP('',(#110));
#573=EDGE_LOOP('',(#111));
#574=EDGE_LOOP('',(#112,#113,#114,#115));
#575=EDGE_LOOP('',(#116,#117,#118,#119));
#576=EDGE_LOOP('',(#120,#121,#122,#123,#124,#125,#126,#127,#128));
#577=EDGE_LOOP('',(#129,#130,#131,#132,#133,#134,#135));
#578=EDGE_LOOP('',(#136,#137,#138,#139,#140,#141,#142));
#579=EDGE_LOOP('',(#143,#144,#145,#146));
#580=EDGE_LOOP('',(#147,#148,#149,#150));
#581=EDGE_LOOP('',(#151,#152,#153,#154));
#582=EDGE_LOOP('',(#155,#156,#157,#158));
#583=EDGE_LOOP('',(#159,#160,#161,#162));
#584=EDGE_LOOP('',(#163,#164,#165,#166));
#585=EDGE_LOOP('',(#167,#168,#169,#170,#171,#172));
#586=EDGE_LOOP('',(#173,#174,#175,#176,#177,#178));
#587=EDGE_LOOP('',(#179,#180,#181,#182));
#588=EDGE_LOOP('',(#183,#184,#185,#186));
#589=EDGE_LOOP('',(#187,#188,#189,#190));
#590=EDGE_LOOP('',(#191,#192,#193,#194));
#591=EDGE_LOOP('',(#195,#196,#197,#198));
#592=EDGE_LOOP('',(#199,#200,#201,#202,#203));
#593=EDGE_LOOP('',(#204,#205,#206,#207));
#594=EDGE_LOOP('',(#208,#209,#210,#211));
#595=EDGE_LOOP('',(#212,#213));
#596=EDGE_LOOP('',(#214,#215,#216,#217));
#597=EDGE_LOOP('',(#218,#219,#220,#221));
#598=EDGE_LOOP('',(#222));
#599=EDGE_LOOP('',(#223));
#600=EDGE_LOOP('',(#224));
#601=FACE_BOUND('',#554,.T.);
#602=FACE_BOUND('',#555,.T.);
#603=FACE_BOUND('',#556,.T.);
#604=FACE_BOUND('',#557,.T.);
#605=FACE_BOUND('',#558,.T.);
#606=FACE_BOUND('',#559,.T.);
#607=FACE_BOUND('',#560,.T.);
#608=FACE_BOUND('',#561,.T.);
#609=FACE_BOUND('',#562,.T.);
#610=FACE_BOUND('',#563,.T.);
#611=FACE_BOUND('',#564,.T.);
#612=FACE_BOUND('',#565,.T.);
#613=FACE_BOUND('',#566,.T.);
#614=FACE_BOUND('',#567,.T.);
#615=FACE_BOUND('',#568,.T.);
#616=FACE_BOUND('',#569,.T.);
#617=FACE_BOUND('',#570,.T.);
#618=FACE_BOUND('',#571,.T.);
#619=FACE_BOUND('',#572,.T.);
#620=FACE_BOUND('',#573,.T.);
#621=FACE_BOUND('',#574,.T.);
#622=FACE_BOUND('',#575,.T.);
#623=FACE_BOUND('',#576,.T.);
#624=FACE_BOUND('',#577,.T.);
#625=FACE_BOUND('',#578,.T.);
#626=FACE_BOUND('',#579,.T.);
#627=FACE_BOUND('',#580,.T.);
#628=FACE_BOUND('',#581,.T.);
#629=FACE_BOUND('',#582,.T.);
#630=FACE_BOUND('',#583,.T.);
#631=FACE_BOUND('',#584,.T.);
#632=FACE_BOUND('',#585,.T.);
#633=FACE_BOUND('',#586,.T.);
#634=FACE_BOUND('',#587,.T.);
#635=FACE_BOUND('',#588,.T.);
#636=FACE_BOUND('',#589,.T.);
#637=FACE_BOUND('',#590,.T.);
#638=FACE_BOUND('',#591,.T.);
#639=FACE_BOUND('',#592,.T.);
#640=FACE_BOUND('',#593,.T.);
#641=FACE_BOUND('',#594,.T.);
#642=FACE_BOUND('',#595,.T.);
#643=FACE_BOUND('',#596,.T.);
#644=FACE_BOUND('',#597,.T.);
#645=FACE_BOUND('',#598,.T.);
#646=FACE_BOUND('',#599,.T.);
#647=FACE_BOUND('',#600,.T.);
#648=PLANE('',#761);
#649=PLANE('',#762);
#650=PLANE('',#763);
#651=PLANE('',#764);
#652=PLANE('',#765);
#653=PLANE('',#766);
#654=PLANE('',#767);
#655=PLANE('',#768);
#656=PLANE('',#770);
#657=PLANE('',#771);
#658=PLANE('',#773);
#659=PLANE('',#774);
#660=PLANE('',#775);
#661=PLANE('',#776);
#662=PLANE('',#778);
#663=PLANE('',#786);
#664=PLANE('',#787);
#665=PLANE('',#788);
#666=PLANE('',#790);
#667=PLANE('',#791);
#668=PLANE('',#792);
#669=PLANE('',#793);
#670=PLANE('',#794);
#671=PLANE('',#795);
#672=PLANE('',#796);
#673=PLANE('',#797);
#674=PLANE('',#798);
#675=PLANE('',#799);
#676=PLANE('',#800);
#677=PLANE('',#801);
#678=PLANE('',#802);
#679=PLANE('',#803);
#680=PLANE('',#804);
#681=PLANE('',#805);
#682=PLANE('',#806);
#683=PLANE('',#808);
#684=ADVANCED_FACE('',(#601),#648,.T.);
#685=ADVANCED_FACE('',(#602),#649,.T.);
#686=ADVANCED_FACE('',(#603),#650,.F.);
#687=ADVANCED_FACE('',(#604),#651,.F.);
#688=ADVANCED_FACE('',(#605),#652,.F.);
#689=ADVANCED_FACE('',(#606),#653,.F.);
#690=ADVANCED_FACE('',(#607),#654,.F.);
#691=ADVANCED_FACE('',(#608),#655,.F.);
#692=ADVANCED_FACE('',(#609),#656,.F.);
#693=ADVANCED_FACE('',(#610),#657,.T.);
#694=ADVANCED_FACE('',(#611),#658,.F.);
#695=ADVANCED_FACE('',(#612),#659,.F.);
#696=ADVANCED_FACE('',(#613),#660,.F.);
#697=ADVANCED_FACE('',(#614),#661,.T.);
#698=ADVANCED_FACE('',(#615,#616),#662,.F.);
#699=ADVANCED_FACE('',(#617),#16,.T.);
#700=ADVANCED_FACE('',(#618),#17,.T.);
#701=ADVANCED_FACE('',(#619,#620),#13,.F.);
#702=ADVANCED_FACE('',(#621),#663,.F.);
#703=ADVANCED_FACE('',(#622),#664,.F.);
#704=ADVANCED_FACE('',(#623),#665,.F.);
#705=ADVANCED_FACE('',(#624),#666,.T.);
#706=ADVANCED_FACE('',(#625),#667,.F.);
#707=ADVANCED_FACE('',(#626),#668,.F.);
#708=ADVANCED_FACE('',(#627),#669,.F.);
#709=ADVANCED_FACE('',(#628),#670,.F.);
#710=ADVANCED_FACE('',(#629),#671,.F.);
#711=ADVANCED_FACE('',(#630),#672,.F.);
#712=ADVANCED_FACE('',(#631),#673,.F.);
#713=ADVANCED_FACE('',(#632),#674,.T.);
#714=ADVANCED_FACE('',(#633),#675,.F.);
#715=ADVANCED_FACE('',(#634),#676,.F.);
#716=ADVANCED_FACE('',(#635),#677,.F.);
#717=ADVANCED_FACE('',(#636),#678,.F.);
#718=ADVANCED_FACE('',(#637),#679,.F.);
#719=ADVANCED_FACE('',(#638),#680,.F.);
#720=ADVANCED_FACE('',(#639),#681,.F.);
#721=ADVANCED_FACE('',(#640,#641,#642),#682,.F.);
#722=ADVANCED_FACE('',(#643),#683,.T.);
#723=ADVANCED_FACE('',(#644),#14,.T.);
#724=ADVANCED_FACE('',(#645),#18,.T.);
#725=ADVANCED_FACE('',(#646,#647),#15,.T.);
#726=CLOSED_SHELL('',(#684,#685,#686,#687,#688,#689,#690,#691));
#727=CLOSED_SHELL('',(#692,#693,#694,#695,#696,#697,#698,#699,#700,#701,
#702,#703,#704));
#728=CLOSED_SHELL('',(#705,#706,#707,#708,#709,#710,#711,#712,#713,#714,
#715,#716,#717,#718,#719,#720,#721,#722,#723,#724,#725));
#729=STYLED_ITEM('',(#732),#751);
#730=STYLED_ITEM('',(#733),#752);
#731=STYLED_ITEM('',(#734),#753);
#732=PRESENTATION_STYLE_ASSIGNMENT((#735));
#733=PRESENTATION_STYLE_ASSIGNMENT((#736));
#734=PRESENTATION_STYLE_ASSIGNMENT((#737));
#735=SURFACE_STYLE_USAGE(.BOTH.,#738);
#736=SURFACE_STYLE_USAGE(.BOTH.,#739);
#737=SURFACE_STYLE_USAGE(.BOTH.,#740);
#738=SURFACE_SIDE_STYLE('',(#741));
#739=SURFACE_SIDE_STYLE('',(#742));
#740=SURFACE_SIDE_STYLE('',(#743,#10));
#741=SURFACE_STYLE_FILL_AREA(#744);
#742=SURFACE_STYLE_FILL_AREA(#745);
#743=SURFACE_STYLE_FILL_AREA(#746);
#744=FILL_AREA_STYLE('',(#747));
#745=FILL_AREA_STYLE('',(#748));
#746=FILL_AREA_STYLE('',(#749));
#747=FILL_AREA_STYLE_COLOUR('',#750);
#748=FILL_AREA_STYLE_COLOUR('',#750);
#749=FILL_AREA_STYLE_COLOUR('',#12);
#750=COLOUR_RGB('',0.917647058823529,0.917647058823529,0.917647058823529);
#751=MANIFOLD_SOLID_BREP('LED 5mm',#726);
#752=MANIFOLD_SOLID_BREP('LED 5mm',#727);
#753=MANIFOLD_SOLID_BREP('LED 5mm',#728);
#754=SHAPE_DEFINITION_REPRESENTATION(#1232,#757);
#755=SHAPE_DEFINITION_REPRESENTATION(#1233,#758);
#756=SHAPE_DEFINITION_REPRESENTATION(#1234,#759);
#757=SHAPE_REPRESENTATION('LED 5mm',(#760),#1217);
#758=SHAPE_REPRESENTATION('LED 5mm',(#769),#1218);
#759=SHAPE_REPRESENTATION('LED 5mm',(#789),#1219);
#760=AXIS2_PLACEMENT_3D('',#1010,#815,#816);
#761=AXIS2_PLACEMENT_3D('',#1011,#817,#818);
#762=AXIS2_PLACEMENT_3D('',#1020,#823,#824);
#763=AXIS2_PLACEMENT_3D('',#1030,#830,#831);
#764=AXIS2_PLACEMENT_3D('',#1036,#835,#836);
#765=AXIS2_PLACEMENT_3D('',#1040,#839,#840);
#766=AXIS2_PLACEMENT_3D('',#1044,#843,#844);
#767=AXIS2_PLACEMENT_3D('',#1047,#847,#848);
#768=AXIS2_PLACEMENT_3D('',#1048,#849,#850);
#769=AXIS2_PLACEMENT_3D('',#1049,#851,#852);
#770=AXIS2_PLACEMENT_3D('',#1050,#853,#854);
#771=AXIS2_PLACEMENT_3D('',#1059,#859,#860);
#772=AXIS2_PLACEMENT_3D('',#1060,#861,#862);
#773=AXIS2_PLACEMENT_3D('',#1062,#863,#864);
#774=AXIS2_PLACEMENT_3D('',#1071,#869,#870);
#775=AXIS2_PLACEMENT_3D('',#1077,#874,#875);
#776=AXIS2_PLACEMENT_3D('',#1086,#880,#881);
#777=AXIS2_PLACEMENT_3D('',#1090,#884,#885);
#778=AXIS2_PLACEMENT_3D('',#1094,#888,#889);
#779=AXIS2_PLACEMENT_3D('',#1095,#890,#891);
#780=AXIS2_PLACEMENT_3D('',#1097,#892,#893);
#781=AXIS2_PLACEMENT_3D('',#1100,#895,#896);
#782=AXIS2_PLACEMENT_3D('',#1103,#898,#899);
#783=AXIS2_PLACEMENT_3D('',#1104,#900,#901);
#784=AXIS2_PLACEMENT_3D('',#1105,#902,#903);
#785=AXIS2_PLACEMENT_3D('',#1106,#904,#905);
#786=AXIS2_PLACEMENT_3D('',#1107,#906,#907);
#787=AXIS2_PLACEMENT_3D('',#1109,#909,#910);
#788=AXIS2_PLACEMENT_3D('',#1111,#912,#913);
#789=AXIS2_PLACEMENT_3D('',#1112,#914,#915);
#790=AXIS2_PLACEMENT_3D('',#1113,#916,#917);
#791=AXIS2_PLACEMENT_3D('',#1128,#925,#926);
#792=AXIS2_PLACEMENT_3D('',#1143,#934,#935);
#793=AXIS2_PLACEMENT_3D('',#1146,#938,#939);
#794=AXIS2_PLACEMENT_3D('',#1148,#941,#942);
#795=AXIS2_PLACEMENT_3D('',#1150,#944,#945);
#796=AXIS2_PLACEMENT_3D('',#1152,#947,#948);
#797=AXIS2_PLACEMENT_3D('',#1154,#950,#951);
#798=AXIS2_PLACEMENT_3D('',#1156,#953,#954);
#799=AXIS2_PLACEMENT_3D('',#1169,#961,#962);
#800=AXIS2_PLACEMENT_3D('',#1182,#969,#970);
#801=AXIS2_PLACEMENT_3D('',#1185,#973,#974);
#802=AXIS2_PLACEMENT_3D('',#1187,#976,#977);
#803=AXIS2_PLACEMENT_3D('',#1189,#979,#980);
#804=AXIS2_PLACEMENT_3D('',#1191,#982,#983);
#805=AXIS2_PLACEMENT_3D('',#1193,#985,#986);
#806=AXIS2_PLACEMENT_3D('',#1204,#992,#993);
#807=AXIS2_PLACEMENT_3D('',#1205,#994,#995);
#808=AXIS2_PLACEMENT_3D('',#1206,#996,#997);
#809=AXIS2_PLACEMENT_3D('',#1207,#998,#999);
#810=AXIS2_PLACEMENT_3D('',#1208,#1000,#1001);
#811=AXIS2_PLACEMENT_3D('',#1209,#1002,#1003);
#812=AXIS2_PLACEMENT_3D('',#1210,#1004,#1005);
#813=AXIS2_PLACEMENT_3D('',#1211,#1006,#1007);
#814=AXIS2_PLACEMENT_3D('',#1213,#1008,#1009);
#815=DIRECTION('',(0.,0.,1.));
#816=DIRECTION('',(1.,0.,0.));
#817=DIRECTION('',(0.,0.,-1.));
#818=DIRECTION('',(0.,-1.,0.));
#819=DIRECTION('',(1.,0.,0.));
#820=DIRECTION('',(0.,-1.,0.));
#821=DIRECTION('',(-1.,0.,0.));
#822=DIRECTION('',(0.,1.,0.));
#823=DIRECTION('',(0.,-1.,0.));
#824=DIRECTION('',(0.,0.,-1.));
#825=DIRECTION('',(-1.01084202172484E-14,0.,-1.));
#826=DIRECTION('',(1.,0.,0.));
#827=DIRECTION('',(0.508148861978289,0.,0.861269257590313));
#828=DIRECTION('',(-1.,0.,0.));
#829=DIRECTION('',(0.,0.,1.));
#830=DIRECTION('',(0.,0.,-1.));
#831=DIRECTION('',(0.,-1.,0.));
#832=DIRECTION('',(0.,-1.,0.));
#833=DIRECTION('',(1.,0.,0.));
#834=DIRECTION('',(0.,-1.,0.));
#835=DIRECTION('',(0.861269257590315,0.,-0.508148861978286));
#836=DIRECTION('',(0.,-1.,0.));
#837=DIRECTION('',(0.508148861978289,0.,0.861269257590313));
#838=DIRECTION('',(0.,-1.,0.));
#839=DIRECTION('',(0.,0.,1.));
#840=DIRECTION('',(1.,0.,0.));
#841=DIRECTION('',(-1.,0.,0.));
#842=DIRECTION('',(0.,-1.,0.));
#843=DIRECTION('',(0.,-1.,0.));
#844=DIRECTION('',(0.,0.,-1.));
#845=DIRECTION('',(0.,0.,1.));
#846=DIRECTION('',(-1.01084202172484E-14,0.,-1.));
#847=DIRECTION('',(1.,0.,0.));
#848=DIRECTION('',(0.,1.,0.));
#849=DIRECTION('',(-1.,0.,1.0842021724855E-16));
#850=DIRECTION('',(0.,1.,0.));
#851=DIRECTION('',(0.,0.,1.));
#852=DIRECTION('',(1.,0.,0.));
#853=DIRECTION('',(0.,0.,1.));
#854=DIRECTION('',(1.,0.,0.));
#855=DIRECTION('',(0.,-1.,0.));
#856=DIRECTION('',(-1.,0.,0.));
#857=DIRECTION('',(0.,1.,0.));
#858=DIRECTION('',(1.,0.,0.));
#859=DIRECTION('',(0.,0.,1.));
#860=DIRECTION('',(1.,0.,0.));
#861=DIRECTION('',(0.,0.,1.));
#862=DIRECTION('',(1.,0.,0.));
#863=DIRECTION('',(0.,0.,1.));
#864=DIRECTION('',(1.,0.,0.));
#865=DIRECTION('',(-1.,0.,0.));
#866=DIRECTION('',(0.,-1.,0.));
#867=DIRECTION('',(-1.,0.,0.));
#868=DIRECTION('',(0.,-1.,0.));
#869=DIRECTION('',(-0.861269257590315,0.,0.508148861978286));
#870=DIRECTION('',(0.,1.,0.));
#871=DIRECTION('',(-0.508148861978289,0.,-0.861269257590314));
#872=DIRECTION('',(-0.508148861978289,0.,-0.861269257590314));
#873=DIRECTION('',(0.,-1.,0.));
#874=DIRECTION('',(0.857492925712544,0.,-0.514495755427527));
#875=DIRECTION('',(0.,-1.,0.));
#876=DIRECTION('',(0.514495755427529,0.,0.857492925712543));
#877=DIRECTION('',(0.,-1.,0.));
#878=DIRECTION('',(0.514495755427529,0.,0.857492925712543));
#879=DIRECTION('',(0.,-1.,0.));
#880=DIRECTION('',(0.,1.,0.));
#881=DIRECTION('',(1.,0.,0.));
#882=DIRECTION('',(1.01239088197125E-14,0.,1.));
#883=DIRECTION('',(1.,0.,0.));
#884=DIRECTION('',(0.,-1.,0.));
#885=DIRECTION('',(0.,0.,1.));
#886=DIRECTION('',(1.,0.,0.));
#887=DIRECTION('',(-1.01084202172484E-14,0.,-1.));
#888=DIRECTION('',(1.12937726300573E-16,0.,-1.));
#889=DIRECTION('',(0.,-1.,0.));
#890=DIRECTION('',(0.,0.,1.));
#891=DIRECTION('',(1.,0.,0.));
#892=DIRECTION('',(0.,0.,1.));
#893=DIRECTION('',(1.,0.,0.));
#894=DIRECTION('',(1.,0.,0.));
#895=DIRECTION('',(0.,0.,1.));
#896=DIRECTION('',(1.,0.,0.));
#897=DIRECTION('',(1.,0.,0.));
#898=DIRECTION('',(0.,-1.,0.));
#899=DIRECTION('',(-1.,0.,0.));
#900=DIRECTION('',(0.,-1.,0.));
#901=DIRECTION('',(-1.,0.,0.));
#902=DIRECTION('',(0.,-1.,0.));
#903=DIRECTION('',(0.,0.,1.));
#904=DIRECTION('',(0.,0.,1.));
#905=DIRECTION('',(1.,0.,0.));
#906=DIRECTION('',(1.,0.,-1.23908819712629E-16));
#907=DIRECTION('',(0.,1.,0.));
#908=DIRECTION('',(1.01239088197125E-14,0.,1.));
#909=DIRECTION('',(-1.,0.,1.0842021724855E-16));
#910=DIRECTION('',(0.,1.,0.));
#911=DIRECTION('',(-1.01084202172484E-14,0.,-1.));
#912=DIRECTION('',(0.,1.,0.));
#913=DIRECTION('',(1.,0.,0.));
#914=DIRECTION('',(0.,0.,1.));
#915=DIRECTION('',(1.,0.,0.));
#916=DIRECTION('',(0.,-1.,0.));
#917=DIRECTION('',(0.,0.,-1.));
#918=DIRECTION('',(-1.,0.,0.));
#919=DIRECTION('',(-1.01084202172484E-14,0.,-1.));
#920=DIRECTION('',(-1.,0.,0.));
#921=DIRECTION('',(-0.508148861978289,0.,-0.861269257590314));
#922=DIRECTION('',(1.,0.,0.));
#923=DIRECTION('',(0.514495755427529,0.,0.857492925712543));
#924=DIRECTION('',(1.01239088197125E-14,0.,1.));
#925=DIRECTION('',(0.,-1.,0.));
#926=DIRECTION('',(0.,0.,-1.));
#927=DIRECTION('',(-1.,0.,0.));
#928=DIRECTION('',(1.01239088197125E-14,0.,1.));
#929=DIRECTION('',(0.514495755427529,0.,0.857492925712543));
#930=DIRECTION('',(1.,0.,0.));
#931=DIRECTION('',(-0.508148861978289,0.,-0.861269257590314));
#932=DIRECTION('',(-1.,0.,0.));
#933=DIRECTION('',(-1.01084202172484E-14,0.,-1.));
#934=DIRECTION('',(-1.,0.,1.23908819712629E-16));
#935=DIRECTION('',(0.,1.,0.));
#936=DIRECTION('',(0.,1.,0.));
#937=DIRECTION('',(0.,1.,0.));
#938=DIRECTION('',(-0.857492925712544,0.,0.514495755427527));
#939=DIRECTION('',(0.,1.,0.));
#940=DIRECTION('',(0.,1.,0.));
#941=DIRECTION('',(0.,0.,1.));
#942=DIRECTION('',(1.,0.,0.));
#943=DIRECTION('',(0.,1.,0.));
#944=DIRECTION('',(0.861269257590315,0.,-0.508148861978286));
#945=DIRECTION('',(0.,-1.,0.));
#946=DIRECTION('',(0.,1.,0.));
#947=DIRECTION('',(0.,0.,-1.));
#948=DIRECTION('',(0.,-1.,0.));
#949=DIRECTION('',(0.,1.,0.));
#950=DIRECTION('',(1.,0.,-1.0842021724855E-16));
#951=DIRECTION('',(0.,1.,0.));
#952=DIRECTION('',(0.,1.,0.));
#953=DIRECTION('',(0.,-1.,0.));
#954=DIRECTION('',(0.,0.,-1.));
#955=DIRECTION('',(-1.,0.,0.));
#956=DIRECTION('',(-1.01084202172484E-14,0.,-1.));
#957=DIRECTION('',(1.,0.,0.));
#958=DIRECTION('',(0.508148861978289,0.,0.861269257590313));
#959=DIRECTION('',(-1.,0.,0.));
#960=DIRECTION('',(0.,0.,1.));
#961=DIRECTION('',(0.,-1.,0.));
#962=DIRECTION('',(0.,0.,-1.));
#963=DIRECTION('',(-1.,0.,0.));
#964=DIRECTION('',(0.,0.,1.));
#965=DIRECTION('',(-1.,0.,0.));
#966=DIRECTION('',(0.508148861978289,0.,0.861269257590313));
#967=DIRECTION('',(1.,0.,0.));
#968=DIRECTION('',(-1.01084202172484E-14,0.,-1.));
#969=DIRECTION('',(-1.,0.,0.));
#970=DIRECTION('',(0.,0.,1.));
#971=DIRECTION('',(0.,1.,0.));
#972=DIRECTION('',(0.,1.,0.));
#973=DIRECTION('',(0.,0.,-1.));
#974=DIRECTION('',(0.,-1.,0.));
#975=DIRECTION('',(0.,1.,0.));
#976=DIRECTION('',(-0.861269257590315,0.,0.508148861978286));
#977=DIRECTION('',(0.,1.,0.));
#978=DIRECTION('',(0.,1.,0.));
#979=DIRECTION('',(0.,0.,1.));
#980=DIRECTION('',(1.,0.,0.));
#981=DIRECTION('',(0.,1.,0.));
#982=DIRECTION('',(1.,0.,-1.0842021724855E-16));
#983=DIRECTION('',(0.,1.,0.));
#984=DIRECTION('',(0.,1.,0.));
#985=DIRECTION('',(1.,0.,0.));
#986=DIRECTION('',(0.,1.,0.));
#987=DIRECTION('',(0.,0.,-1.));
#988=DIRECTION('',(0.,-1.,0.));
#989=DIRECTION('',(0.,0.,-1.));
#990=DIRECTION('',(0.,-1.,0.));
#991=DIRECTION('',(0.,-1.,0.));
#992=DIRECTION('',(0.,0.,1.));
#993=DIRECTION('',(1.,0.,0.));
#994=DIRECTION('',(0.,0.,1.));
#995=DIRECTION('',(1.,0.,0.));
#996=DIRECTION('',(0.,0.,1.));
#997=DIRECTION('',(1.,0.,0.));
#998=DIRECTION('',(0.,0.,1.));
#999=DIRECTION('',(1.,0.,0.));
#1000=DIRECTION('',(0.,0.,1.));
#1001=DIRECTION('',(1.,0.,0.));
#1002=DIRECTION('',(0.,0.,-1.));
#1003=DIRECTION('',(-1.,0.,0.));
#1004=DIRECTION('',(1.,0.,0.));
#1005=DIRECTION('',(0.,1.,3.46944695195362E-16));
#1006=DIRECTION('',(0.,4.0003469446792E-12,-1.));
#1007=DIRECTION('',(0.,1.,4.0003469446792E-12));
#1008=DIRECTION('',(0.,2.60208521396521E-16,-1.));
#1009=DIRECTION('',(0.,1.,2.60208521396521E-16));
#1010=CARTESIAN_POINT('',(0.,0.,0.));
#1011=CARTESIAN_POINT('',(0.,0.,-0.012));
#1012=CARTESIAN_POINT('',(0.00112000000001,0.00024000000001,-0.01200000000001));
#1013=CARTESIAN_POINT('',(0.00112,0.00024,-0.012));
#1014=CARTESIAN_POINT('',(0.0016,0.00024,-0.012));
#1015=CARTESIAN_POINT('',(0.00160000000001,0.00024000000001,-0.01200000000001));
#1016=CARTESIAN_POINT('',(0.00160000000000984,-0.00024000000001,-0.012));
#1017=CARTESIAN_POINT('',(0.00160000000001,-0.00024000000001,-0.01200000000001));
#1018=CARTESIAN_POINT('',(0.00112,-0.00024,-0.012));
#1019=CARTESIAN_POINT('',(0.00112000000001,-0.00024000000001,-0.01200000000001));
#1020=CARTESIAN_POINT('',(0.,-0.00024,0.));
#1021=CARTESIAN_POINT('',(0.00160000000001,-0.00024000000001,0.00400000000001));
#1022=CARTESIAN_POINT('',(0.0016,-0.00024,0.004));
#1023=CARTESIAN_POINT('',(0.00140000000001,-0.00024000000001,0.00400000000001));
#1024=CARTESIAN_POINT('',(0.0014,-0.00024,0.004));
#1025=CARTESIAN_POINT('',(0.00022000000001,-0.00024000000001,0.00200000000001));
#1026=CARTESIAN_POINT('',(0.00022,-0.00024,0.002));
#1027=CARTESIAN_POINT('',(0.00112000000001,-0.00024000000001,0.00200000000001));
#1028=CARTESIAN_POINT('',(0.00112,-0.00024,0.002));
#1029=CARTESIAN_POINT('',(0.00112000000001,-0.00024000000001,0.));
#1030=CARTESIAN_POINT('',(0.0014,0.00024,0.004));
#1031=CARTESIAN_POINT('',(0.00160000000001,0.00024000000001,0.00400000000001));
#1032=CARTESIAN_POINT('',(0.0016,0.00024,0.004));
#1033=CARTESIAN_POINT('',(0.00140000000001,0.00024000000001,0.00400000000001));
#1034=CARTESIAN_POINT('',(0.0014,0.00024,0.004));
#1035=CARTESIAN_POINT('',(0.00140000000001,0.00024000000001,0.00400000000001));
#1036=CARTESIAN_POINT('',(0.00022,0.00024,0.002));
#1037=CARTESIAN_POINT('',(0.00022000000001,0.00024000000001,0.00200000000001));
#1038=CARTESIAN_POINT('',(0.00022,0.00024,0.002));
#1039=CARTESIAN_POINT('',(0.00022000000001,0.00024000000001,0.00200000000001));
#1040=CARTESIAN_POINT('',(0.00112,0.00024,0.002));
#1041=CARTESIAN_POINT('',(0.00112000000001,0.00024000000001,0.00200000000001));
#1042=CARTESIAN_POINT('',(0.00112,0.00024,0.002));
#1043=CARTESIAN_POINT('',(0.00112000000001,0.00024000000001,0.00200000000001));
#1044=CARTESIAN_POINT('',(0.,0.00024,0.));
#1045=CARTESIAN_POINT('',(0.00112000000001,0.00024000000001,0.));
#1046=CARTESIAN_POINT('',(0.00160000000001,0.00024000000001,0.00400000000001));
#1047=CARTESIAN_POINT('',(0.00112,0.00024,0.));
#1048=CARTESIAN_POINT('',(0.0016,0.00024,0.004));
#1049=CARTESIAN_POINT('',(0.,0.,0.));
#1050=CARTESIAN_POINT('',(0.,0.,-0.01));
#1051=CARTESIAN_POINT('',(-0.00112000000001,-0.00024000000001,-0.01000000000001));
#1052=CARTESIAN_POINT('',(-0.00112,0.00024,-0.01));
#1053=CARTESIAN_POINT('',(-0.00112,-0.00024,-0.01));
#1054=CARTESIAN_POINT('',(-0.00112000000001,-0.00024000000001,-0.01000000000001));
#1055=CARTESIAN_POINT('',(-0.0016000000000101,-0.00024000000001,-0.01));
#1056=CARTESIAN_POINT('',(-0.00160000000001,-0.00024000000001,-0.01000000000001));
#1057=CARTESIAN_POINT('',(-0.0016,0.00024,-0.01));
#1058=CARTESIAN_POINT('',(-0.00112000000001,0.00024000000001,-0.01000000000001));
#1059=CARTESIAN_POINT('',(-5.E-5,0.,0.0039));
#1060=CARTESIAN_POINT('',(-5.00000000099997E-5,0.,0.00390000000001));
#1061=CARTESIAN_POINT('',(0.00015,0.,0.00390000000001));
#1062=CARTESIAN_POINT('',(2.E-5,0.00024,0.002));
#1063=CARTESIAN_POINT('',(2.00000000099999E-5,-0.00024000000001,0.00200000000001));
#1064=CARTESIAN_POINT('',(2.E-5,-0.00024,0.002));
#1065=CARTESIAN_POINT('',(-0.00112,-0.00024,0.002));
#1066=CARTESIAN_POINT('',(-0.00112000000001,0.00024000000001,0.00200000000001));
#1067=CARTESIAN_POINT('',(-0.00112,0.00024,0.002));
#1068=CARTESIAN_POINT('',(2.00000000099999E-5,0.00024000000001,0.00200000000001));
#1069=CARTESIAN_POINT('',(2.E-5,0.00024,0.002));
#1070=CARTESIAN_POINT('',(2.00000000099999E-5,0.00024000000001,0.00200000000001));
#1071=CARTESIAN_POINT('',(0.0012,0.00024,0.004));
#1072=CARTESIAN_POINT('',(0.00120000000001,-0.00024000000001,0.00400000000001));
#1073=CARTESIAN_POINT('',(0.0012,-0.00024,0.004));
#1074=CARTESIAN_POINT('',(0.00120000000001,0.00024000000001,0.00400000000001));
#1075=CARTESIAN_POINT('',(0.0012,0.00024,0.004));
#1076=CARTESIAN_POINT('',(0.00120000000001,0.00024000000001,0.00400000000001));
#1077=CARTESIAN_POINT('',(-0.0016,0.00024,0.0035));
#1078=CARTESIAN_POINT('',(-0.00160000000001,-0.00024000000001,0.00350000000001));
#1079=CARTESIAN_POINT('',(-0.0016,-0.00024,0.0035));
#1080=CARTESIAN_POINT('',(-0.0013,-0.00024,0.004));
#1081=CARTESIAN_POINT('',(-0.00130000000001,0.00024000000001,0.00400000000001));
#1082=CARTESIAN_POINT('',(-0.0013,0.00024,0.004));
#1083=CARTESIAN_POINT('',(-0.00160000000001,0.00024000000001,0.00350000000001));
#1084=CARTESIAN_POINT('',(-0.0016,0.00024,0.0035));
#1085=CARTESIAN_POINT('',(-0.00160000000001,0.00024000000001,0.00350000000001));
#1086=CARTESIAN_POINT('',(0.,0.00024,0.));
#1087=CARTESIAN_POINT('',(-0.00160000000001,0.00024000000001,0.));
#1088=CARTESIAN_POINT('',(-0.00130000000001,0.00024000000001,0.00400000000001));
#1089=CARTESIAN_POINT('',(-0.000488634243989226,0.00024,0.004));
#1090=CARTESIAN_POINT('',(-5.00000000099997E-5,0.00024000000001,0.00426666666667666));
#1091=CARTESIAN_POINT('',(0.000388634243989227,0.00024,0.004));
#1092=CARTESIAN_POINT('',(-0.00130000000001,0.00024000000001,0.00400000000001));
#1093=CARTESIAN_POINT('',(-0.00112000000001,0.00024000000001,0.00200000000001));
#1094=CARTESIAN_POINT('',(-0.00055,0.,0.004));
#1095=CARTESIAN_POINT('',(-5.00000000099997E-5,0.,0.00400000000001));
#1096=CARTESIAN_POINT('',(0.00015,0.,0.00400000000001));
#1097=CARTESIAN_POINT('',(-5.00000000099997E-5,0.,0.00400000000001));
#1098=CARTESIAN_POINT('',(-0.00130000000001,-0.00024000000001,0.00400000000001));
#1099=CARTESIAN_POINT('',(-0.000488634243989226,-0.00024,0.004));
#1100=CARTESIAN_POINT('',(-5.00000000099997E-5,0.,0.00400000000001));
#1101=CARTESIAN_POINT('',(0.000388634243989227,-0.00024,0.004));
#1102=CARTESIAN_POINT('',(-0.00130000000001,-0.00024000000001,0.00400000000001));
#1103=CARTESIAN_POINT('',(-5.E-5,0.,0.00426666666666666));
#1104=CARTESIAN_POINT('',(-5.E-5,0.,0.00426666666666666));
#1105=CARTESIAN_POINT('',(-5.00000000099997E-5,-0.00024000000001,0.00426666666667666));
#1106=CARTESIAN_POINT('',(-5.E-5,0.,0.0039));
#1107=CARTESIAN_POINT('',(-0.0016,0.00024,0.));
#1108=CARTESIAN_POINT('',(-0.00160000000001,-0.00024000000001,0.));
#1109=CARTESIAN_POINT('',(-0.00112,0.00024,0.002));
#1110=CARTESIAN_POINT('',(-0.00112000000001,-0.00024000000001,0.00200000000001));
#1111=CARTESIAN_POINT('',(0.,-0.00024,0.));
#1112=CARTESIAN_POINT('',(0.,0.,0.));
#1113=CARTESIAN_POINT('',(0.,0.00024,0.));
#1114=CARTESIAN_POINT('',(-0.00160000000001,0.00024000000001,0.));
#1115=CARTESIAN_POINT('',(-0.00112,0.00024,0.));
#1116=CARTESIAN_POINT('',(-0.0016,0.00024,0.));
#1117=CARTESIAN_POINT('',(-0.00112000000001,0.00024000000001,0.));
#1118=CARTESIAN_POINT('',(-0.00112,0.00024,0.002));
#1119=CARTESIAN_POINT('',(-0.00112000000001,0.00024000000001,0.00200000000001));
#1120=CARTESIAN_POINT('',(2.E-5,0.00024,0.002));
#1121=CARTESIAN_POINT('',(2.00000000099999E-5,0.00024000000001,0.00200000000001));
#1122=CARTESIAN_POINT('',(0.0012,0.00024,0.004));
#1123=CARTESIAN_POINT('',(0.00120000000001,0.00024000000001,0.00400000000001));
#1124=CARTESIAN_POINT('',(-0.0013,0.00024,0.004));
#1125=CARTESIAN_POINT('',(-0.00130000000001,0.00024000000001,0.00400000000001));
#1126=CARTESIAN_POINT('',(-0.0016,0.00024,0.0035));
#1127=CARTESIAN_POINT('',(-0.00160000000001,0.00024000000001,0.));
#1128=CARTESIAN_POINT('',(0.,-0.00024,0.));
#1129=CARTESIAN_POINT('',(-0.00160000000001,-0.00024000000001,0.));
#1130=CARTESIAN_POINT('',(-0.00112,-0.00024,0.));
#1131=CARTESIAN_POINT('',(-0.0016,-0.00024,0.));
#1132=CARTESIAN_POINT('',(-0.00160000000001,-0.00024000000001,0.));
#1133=CARTESIAN_POINT('',(-0.0016,-0.00024,0.0035));
#1134=CARTESIAN_POINT('',(-0.00130000000001,-0.00024000000001,0.00400000000001));
#1135=CARTESIAN_POINT('',(-0.0013,-0.00024,0.004));
#1136=CARTESIAN_POINT('',(0.00120000000001,-0.00024000000001,0.00400000000001));
#1137=CARTESIAN_POINT('',(0.0012,-0.00024,0.004));
#1138=CARTESIAN_POINT('',(2.00000000099999E-5,-0.00024000000001,0.00200000000001));
#1139=CARTESIAN_POINT('',(2.E-5,-0.00024,0.002));
#1140=CARTESIAN_POINT('',(-0.00112000000001,-0.00024000000001,0.00200000000001));
#1141=CARTESIAN_POINT('',(-0.00112,-0.00024,0.002));
#1142=CARTESIAN_POINT('',(-0.00112000000001,-0.00024000000001,0.));
#1143=CARTESIAN_POINT('',(-0.0016,-0.00024,0.));
#1144=CARTESIAN_POINT('',(-0.00160000000001,-0.00024000000001,0.00350000000001));
#1145=CARTESIAN_POINT('',(-0.00160000000001,-0.00024000000001,0.));
#1146=CARTESIAN_POINT('',(-0.0013,-0.00024,0.004));
#1147=CARTESIAN_POINT('',(-0.00130000000001,-0.00024000000001,0.00400000000001));
#1148=CARTESIAN_POINT('',(0.0012,-0.00024,0.004));
#1149=CARTESIAN_POINT('',(0.00120000000001,-0.00024000000001,0.00400000000001));
#1150=CARTESIAN_POINT('',(2.E-5,-0.00024,0.002));
#1151=CARTESIAN_POINT('',(2.00000000099999E-5,-0.00024000000001,0.00200000000001));
#1152=CARTESIAN_POINT('',(-0.00112,-0.00024,0.002));
#1153=CARTESIAN_POINT('',(-0.00112000000001,-0.00024000000001,0.00200000000001));
#1154=CARTESIAN_POINT('',(-0.00112,-0.00024,0.));
#1155=CARTESIAN_POINT('',(-0.00112000000001,-0.00024000000001,0.));
#1156=CARTESIAN_POINT('',(0.,0.00024,0.));
#1157=CARTESIAN_POINT('',(0.00112000000001,0.00024000000001,0.));
#1158=CARTESIAN_POINT('',(0.0016,0.00024,0.));
#1159=CARTESIAN_POINT('',(0.00112,0.00024,0.));
#1160=CARTESIAN_POINT('',(0.00160000000001,0.00024000000001,0.));
#1161=CARTESIAN_POINT('',(0.0016,0.00024,0.004));
#1162=CARTESIAN_POINT('',(0.00160000000001,0.00024000000001,0.00400000000001));
#1163=CARTESIAN_POINT('',(0.0014,0.00024,0.004));
#1164=CARTESIAN_POINT('',(0.00140000000001,0.00024000000001,0.00400000000001));
#1165=CARTESIAN_POINT('',(0.00022,0.00024,0.002));
#1166=CARTESIAN_POINT('',(0.00022000000001,0.00024000000001,0.00200000000001));
#1167=CARTESIAN_POINT('',(0.00112,0.00024,0.002));
#1168=CARTESIAN_POINT('',(0.00112000000001,0.00024000000001,0.00200000000001));
#1169=CARTESIAN_POINT('',(0.,-0.00024,0.));
#1170=CARTESIAN_POINT('',(0.00112000000001,-0.00024000000001,0.));
#1171=CARTESIAN_POINT('',(0.0016,-0.00024,0.));
#1172=CARTESIAN_POINT('',(0.00112,-0.00024,0.));
#1173=CARTESIAN_POINT('',(0.00112000000001,-0.00024000000001,0.00200000000001));
#1174=CARTESIAN_POINT('',(0.00112,-0.00024,0.002));
#1175=CARTESIAN_POINT('',(0.00022000000001,-0.00024000000001,0.00200000000001));
#1176=CARTESIAN_POINT('',(0.00022,-0.00024,0.002));
#1177=CARTESIAN_POINT('',(0.00140000000001,-0.00024000000001,0.00400000000001));
#1178=CARTESIAN_POINT('',(0.0014,-0.00024,0.004));
#1179=CARTESIAN_POINT('',(0.00160000000001,-0.00024000000001,0.00400000000001));
#1180=CARTESIAN_POINT('',(0.0016,-0.00024,0.004));
#1181=CARTESIAN_POINT('',(0.00160000000001,-0.00024000000001,0.));
#1182=CARTESIAN_POINT('',(0.00112,-0.00024,0.002));
#1183=CARTESIAN_POINT('',(0.00112000000001,-0.00024000000001,0.00200000000001));
#1184=CARTESIAN_POINT('',(0.00112000000001,-0.00024000000001,0.));
#1185=CARTESIAN_POINT('',(0.00022,-0.00024,0.002));
#1186=CARTESIAN_POINT('',(0.00022000000001,-0.00024000000001,0.00200000000001));
#1187=CARTESIAN_POINT('',(0.0014,-0.00024,0.004));
#1188=CARTESIAN_POINT('',(0.00140000000001,-0.00024000000001,0.00400000000001));
#1189=CARTESIAN_POINT('',(0.0016,-0.00024,0.004));
#1190=CARTESIAN_POINT('',(0.00160000000001,-0.00024000000001,0.00400000000001));
#1191=CARTESIAN_POINT('',(0.0016,-0.00024,0.));
#1192=CARTESIAN_POINT('',(0.00160000000001,-0.00024000000001,0.));
#1193=CARTESIAN_POINT('',(-0.0025,0.0016583123951777,0.00435410196624969));
#1194=CARTESIAN_POINT('',(-0.00250000000001,0.0016583123951877,0.00435410196625969));
#1195=CARTESIAN_POINT('',(-0.0025,0.0016583123951777,0.001));
#1196=CARTESIAN_POINT('',(-0.0025,0.0016583123951777,0.));
#1197=CARTESIAN_POINT('',(-0.00250000000001,0.0016583123951877,0.));
#1198=CARTESIAN_POINT('',(-0.0025,-0.0016583123951777,0.));
#1199=CARTESIAN_POINT('',(-0.00250000000001,-0.0016583123951877,0.00435410196625969));
#1200=CARTESIAN_POINT('',(-0.0025,-0.0016583123951777,0.001));
#1201=CARTESIAN_POINT('',(-0.00250000000001,0.0016583123951877,0.00100000000001));
#1202=CARTESIAN_POINT('',(-0.0025,8.67361737988403E-19,0.001));
#1203=CARTESIAN_POINT('',(-0.00250000000001,0.0016583123951877,0.00100000000001));
#1204=CARTESIAN_POINT('',(0.,0.,0.));
#1205=CARTESIAN_POINT('',(0.,0.,0.));
#1206=CARTESIAN_POINT('',(0.,0.,0.001));
#1207=CARTESIAN_POINT('',(0.,0.,0.00100000000001));
#1208=CARTESIAN_POINT('',(0.,1.0000867361738E-14,0.00100000000001));
#1209=CARTESIAN_POINT('',(0.,0.,0.001));
#1210=CARTESIAN_POINT('',(0.,0.,0.0063));
#1211=CARTESIAN_POINT('',(0.,-1.00003710622465E-14,0.00630000000001));
#1212=CARTESIAN_POINT('',(0.,0.0025,0.00630000000002));
#1213=CARTESIAN_POINT('',(0.,8.67361737988403E-19,0.001));
#1214=MECHANICAL_DESIGN_GEOMETRIC_PRESENTATION_REPRESENTATION('',(#729),
#1217);
#1215=MECHANICAL_DESIGN_GEOMETRIC_PRESENTATION_REPRESENTATION('',(#730),
#1218);
#1216=MECHANICAL_DESIGN_GEOMETRIC_PRESENTATION_REPRESENTATION('',(#731),
#1219);
#1217=(
GEOMETRIC_REPRESENTATION_CONTEXT(3)
GLOBAL_UNCERTAINTY_ASSIGNED_CONTEXT((#1220))
GLOBAL_UNIT_ASSIGNED_CONTEXT((#1229,#1226,#1223))
REPRESENTATION_CONTEXT('LED 5mm','TOP_LEVEL_ASSEMBLY_PART')
);
#1218=(
GEOMETRIC_REPRESENTATION_CONTEXT(3)
GLOBAL_UNCERTAINTY_ASSIGNED_CONTEXT((#1221))
GLOBAL_UNIT_ASSIGNED_CONTEXT((#1230,#1227,#1224))
REPRESENTATION_CONTEXT('LED 5mm','TOP_LEVEL_ASSEMBLY_PART')
);
#1219=(
GEOMETRIC_REPRESENTATION_CONTEXT(3)
GLOBAL_UNCERTAINTY_ASSIGNED_CONTEXT((#1222))
GLOBAL_UNIT_ASSIGNED_CONTEXT((#1231,#1228,#1225))
REPRESENTATION_CONTEXT('LED 5mm','TOP_LEVEL_ASSEMBLY_PART')
);
#1220=UNCERTAINTY_MEASURE_WITH_UNIT(LENGTH_MEASURE(1.E-6),#1229,
'DISTANCE_ACCURACY_VALUE','Maximum Tolerance applied to model');
#1221=UNCERTAINTY_MEASURE_WITH_UNIT(LENGTH_MEASURE(1.E-6),#1230,
'DISTANCE_ACCURACY_VALUE','Maximum Tolerance applied to model');
#1222=UNCERTAINTY_MEASURE_WITH_UNIT(LENGTH_MEASURE(1.E-6),#1231,
'DISTANCE_ACCURACY_VALUE','Maximum Tolerance applied to model');
#1223=(
NAMED_UNIT(*)
SI_UNIT($,.STERADIAN.)
SOLID_ANGLE_UNIT()
);
#1224=(
NAMED_UNIT(*)
SI_UNIT($,.STERADIAN.)
SOLID_ANGLE_UNIT()
);
#1225=(
NAMED_UNIT(*)
SI_UNIT($,.STERADIAN.)
SOLID_ANGLE_UNIT()
);
#1226=(
NAMED_UNIT(*)
PLANE_ANGLE_UNIT()
SI_UNIT($,.RADIAN.)
);
#1227=(
NAMED_UNIT(*)
PLANE_ANGLE_UNIT()
SI_UNIT($,.RADIAN.)
);
#1228=(
NAMED_UNIT(*)
PLANE_ANGLE_UNIT()
SI_UNIT($,.RADIAN.)
);
#1229=(
LENGTH_UNIT()
NAMED_UNIT(*)
SI_UNIT($,.METRE.)
);
#1230=(
LENGTH_UNIT()
NAMED_UNIT(*)
SI_UNIT($,.METRE.)
);
#1231=(
LENGTH_UNIT()
NAMED_UNIT(*)
SI_UNIT($,.METRE.)
);
#1232=PRODUCT_DEFINITION_SHAPE('','',#1235);
#1233=PRODUCT_DEFINITION_SHAPE('','',#1236);
#1234=PRODUCT_DEFINITION_SHAPE('','',#1237);
#1235=PRODUCT_DEFINITION('','',#1241,#1238);
#1236=PRODUCT_DEFINITION('','',#1242,#1239);
#1237=PRODUCT_DEFINITION('','',#1243,#1240);
#1238=PRODUCT_DEFINITION_CONTEXT('',#1259,'design');
#1239=PRODUCT_DEFINITION_CONTEXT('',#1260,'design');
#1240=PRODUCT_DEFINITION_CONTEXT('',#1261,'design');
#1241=PRODUCT_DEFINITION_FORMATION_WITH_SPECIFIED_SOURCE('','',#1247,
 .NOT_KNOWN.);
#1242=PRODUCT_DEFINITION_FORMATION_WITH_SPECIFIED_SOURCE('','',#1248,
 .NOT_KNOWN.);
#1243=PRODUCT_DEFINITION_FORMATION_WITH_SPECIFIED_SOURCE('','',#1249,
 .NOT_KNOWN.);
#1244=PRODUCT_RELATED_PRODUCT_CATEGORY('','',(#1247));
#1245=PRODUCT_RELATED_PRODUCT_CATEGORY('','',(#1248));
#1246=PRODUCT_RELATED_PRODUCT_CATEGORY('','',(#1249));
#1247=PRODUCT('LED 5mm','LED 5mm','LED 5mm',(#1253));
#1248=PRODUCT('LED 5mm','LED 5mm','LED 5mm',(#1254));
#1249=PRODUCT('LED 5mm','LED 5mm','LED 5mm',(#1255));
#1250=PRODUCT_CATEGORY('','');
#1251=PRODUCT_CATEGORY('','');
#1252=PRODUCT_CATEGORY('','');
#1253=PRODUCT_CONTEXT('',#1259,'mechanical');
#1254=PRODUCT_CONTEXT('',#1260,'mechanical');
#1255=PRODUCT_CONTEXT('',#1261,'mechanical');
#1256=APPLICATION_PROTOCOL_DEFINITION('international standard',
'ap242_managed_model_based_3d_engineering',2020,#1259);
#1257=APPLICATION_PROTOCOL_DEFINITION('international standard',
'ap242_managed_model_based_3d_engineering',2020,#1260);
#1258=APPLICATION_PROTOCOL_DEFINITION('international standard',
'ap242_managed_model_based_3d_engineering',2020,#1261);
#1259=APPLICATION_CONTEXT('managed model based 3d engineering');
#1260=APPLICATION_CONTEXT('managed model based 3d engineering');
#1261=APPLICATION_CONTEXT('managed model based 3d engineering');
ENDSEC;
END-ISO-10303-21;
