ISO-10303-21;
HEADER;
/* Generated by software containing ST-Developer
 * from STEP Tools, Inc. (www.steptools.com) 
 */
/* OPTION: using custom renumber hook */

FILE_DESCRIPTION(
/* description */ ('STEP AP242 Edition 2',
'CAx-IF Rec.Pracs.---Representation and Presentation of Product Manufa
cturing Information (PMI)---4.0---2014-10-13',
'CAx-IF Rec.Pracs.---3D Tessellated Geometry---0.4---2014-09-14','2;1',
'CAx-IF Rec.Pracs.---User Defined Attributes---1.5---2016-08-15'),
/* implementation_level */ '2;1');

FILE_NAME(
/* name */ 'LM2596S (1) - LM2596S_Y000022',
/* time_stamp */ '2026-07-05T15:43:17Z',
/* author */ (''),
/* organization */ (''),
/* preprocessor_version */ 'ST-DEVELOPER v20',
/* originating_system */ 'ONSHAPE BY PTC INC, 1.217',
/* authorisation */ '  ');

FILE_SCHEMA (('AP242_MANAGED_MODEL_BASED_3D_ENGINEERING_MIM_LF { 1 0 10303 442 3 1 4 }'));
ENDSEC;

DATA;
#10=SHAPE_REPRESENTATION_RELATIONSHIP('','',#480,#11);
#11=ADVANCED_BREP_SHAPE_REPRESENTATION('',(#478),#803);
#12=CYLINDRICAL_SURFACE('',#507,0.0019);
#13=CYLINDRICAL_SURFACE('',#508,0.0019);
#14=CYLINDRICAL_SURFACE('',#509,0.0035);
#15=CYLINDRICAL_SURFACE('',#512,0.0035);
#16=CYLINDRICAL_SURFACE('',#521,0.0011);
#17=CYLINDRICAL_SURFACE('',#524,0.0005);
#18=CYLINDRICAL_SURFACE('',#527,0.0005);
#19=CYLINDRICAL_SURFACE('',#530,0.0005);
#20=CYLINDRICAL_SURFACE('',#533,0.0007);
#21=CYLINDRICAL_SURFACE('',#534,0.0007);
#22=CYLINDRICAL_SURFACE('',#535,0.0007);
#23=CYLINDRICAL_SURFACE('',#536,0.0007);
#24=LINE('',#682,#52);
#25=LINE('',#684,#53);
#26=LINE('',#686,#54);
#27=LINE('',#689,#55);
#28=LINE('',#691,#56);
#29=LINE('',#693,#57);
#30=LINE('',#695,#58);
#31=LINE('',#697,#59);
#32=LINE('',#699,#60);
#33=LINE('',#701,#61);
#34=LINE('',#703,#62);
#35=LINE('',#705,#63);
#36=LINE('',#707,#64);
#37=LINE('',#709,#65);
#38=LINE('',#711,#66);
#39=LINE('',#712,#67);
#40=LINE('',#722,#68);
#41=LINE('',#725,#69);
#42=LINE('',#727,#70);
#43=LINE('',#729,#71);
#44=LINE('',#766,#72);
#45=LINE('',#768,#73);
#46=LINE('',#770,#74);
#47=LINE('',#772,#75);
#48=LINE('',#773,#76);
#49=LINE('',#775,#77);
#50=LINE('',#777,#78);
#51=LINE('',#779,#79);
#52=VECTOR('',#543,1.);
#53=VECTOR('',#544,1.);
#54=VECTOR('',#547,1.);
#55=VECTOR('',#548,1.);
#56=VECTOR('',#549,1.);
#57=VECTOR('',#550,1.);
#58=VECTOR('',#551,1.);
#59=VECTOR('',#554,1.);
#60=VECTOR('',#555,1.);
#61=VECTOR('',#556,1.);
#62=VECTOR('',#559,1.);
#63=VECTOR('',#560,1.);
#64=VECTOR('',#561,1.);
#65=VECTOR('',#562,1.);
#66=VECTOR('',#565,1.);
#67=VECTOR('',#566,1.);
#68=VECTOR('',#577,1.);
#69=VECTOR('',#578,1.);
#70=VECTOR('',#579,1.);
#71=VECTOR('',#580,1.);
#72=VECTOR('',#627,1.);
#73=VECTOR('',#628,1.);
#74=VECTOR('',#629,1.);
#75=VECTOR('',#632,1.);
#76=VECTOR('',#633,1.);
#77=VECTOR('',#636,1.);
#78=VECTOR('',#637,1.);
#79=VECTOR('',#640,1.);
#80=ORIENTED_EDGE('',*,*,#186,.F.);
#81=ORIENTED_EDGE('',*,*,#187,.T.);
#82=ORIENTED_EDGE('',*,*,#188,.T.);
#83=ORIENTED_EDGE('',*,*,#189,.F.);
#84=ORIENTED_EDGE('',*,*,#190,.F.);
#85=ORIENTED_EDGE('',*,*,#191,.T.);
#86=ORIENTED_EDGE('',*,*,#192,.T.);
#87=ORIENTED_EDGE('',*,*,#193,.T.);
#88=ORIENTED_EDGE('',*,*,#194,.T.);
#89=ORIENTED_EDGE('',*,*,#195,.F.);
#90=ORIENTED_EDGE('',*,*,#196,.F.);
#91=ORIENTED_EDGE('',*,*,#190,.T.);
#92=ORIENTED_EDGE('',*,*,#197,.T.);
#93=ORIENTED_EDGE('',*,*,#198,.F.);
#94=ORIENTED_EDGE('',*,*,#199,.F.);
#95=ORIENTED_EDGE('',*,*,#200,.F.);
#96=ORIENTED_EDGE('',*,*,#195,.T.);
#97=ORIENTED_EDGE('',*,*,#201,.F.);
#98=ORIENTED_EDGE('',*,*,#193,.F.);
#99=ORIENTED_EDGE('',*,*,#202,.T.);
#100=ORIENTED_EDGE('',*,*,#198,.T.);
#101=ORIENTED_EDGE('',*,*,#203,.F.);
#102=ORIENTED_EDGE('',*,*,#204,.F.);
#103=ORIENTED_EDGE('',*,*,#205,.F.);
#104=ORIENTED_EDGE('',*,*,#206,.F.);
#105=ORIENTED_EDGE('',*,*,#207,.T.);
#106=ORIENTED_EDGE('',*,*,#208,.T.);
#107=ORIENTED_EDGE('',*,*,#209,.F.);
#108=ORIENTED_EDGE('',*,*,#210,.F.);
#109=ORIENTED_EDGE('',*,*,#211,.F.);
#110=ORIENTED_EDGE('',*,*,#212,.F.);
#111=ORIENTED_EDGE('',*,*,#192,.F.);
#112=ORIENTED_EDGE('',*,*,#213,.F.);
#113=ORIENTED_EDGE('',*,*,#191,.F.);
#114=ORIENTED_EDGE('',*,*,#196,.T.);
#115=ORIENTED_EDGE('',*,*,#200,.T.);
#116=ORIENTED_EDGE('',*,*,#214,.F.);
#117=ORIENTED_EDGE('',*,*,#199,.T.);
#118=ORIENTED_EDGE('',*,*,#202,.F.);
#119=ORIENTED_EDGE('',*,*,#215,.F.);
#120=ORIENTED_EDGE('',*,*,#216,.F.);
#121=ORIENTED_EDGE('',*,*,#217,.F.);
#122=ORIENTED_EDGE('',*,*,#218,.F.);
#123=ORIENTED_EDGE('',*,*,#219,.F.);
#124=ORIENTED_EDGE('',*,*,#220,.F.);
#125=ORIENTED_EDGE('',*,*,#221,.F.);
#126=ORIENTED_EDGE('',*,*,#222,.F.);
#127=ORIENTED_EDGE('',*,*,#223,.F.);
#128=ORIENTED_EDGE('',*,*,#189,.T.);
#129=ORIENTED_EDGE('',*,*,#201,.T.);
#130=ORIENTED_EDGE('',*,*,#197,.F.);
#131=ORIENTED_EDGE('',*,*,#194,.F.);
#132=ORIENTED_EDGE('',*,*,#223,.T.);
#133=ORIENTED_EDGE('',*,*,#212,.T.);
#134=ORIENTED_EDGE('',*,*,#222,.T.);
#135=ORIENTED_EDGE('',*,*,#211,.T.);
#136=ORIENTED_EDGE('',*,*,#224,.F.);
#137=ORIENTED_EDGE('',*,*,#214,.T.);
#138=ORIENTED_EDGE('',*,*,#224,.T.);
#139=ORIENTED_EDGE('',*,*,#225,.F.);
#140=ORIENTED_EDGE('',*,*,#213,.T.);
#141=ORIENTED_EDGE('',*,*,#225,.T.);
#142=ORIENTED_EDGE('',*,*,#207,.F.);
#143=ORIENTED_EDGE('',*,*,#226,.F.);
#144=ORIENTED_EDGE('',*,*,#227,.T.);
#145=ORIENTED_EDGE('',*,*,#228,.T.);
#146=ORIENTED_EDGE('',*,*,#210,.T.);
#147=ORIENTED_EDGE('',*,*,#229,.F.);
#148=ORIENTED_EDGE('',*,*,#187,.F.);
#149=ORIENTED_EDGE('',*,*,#230,.F.);
#150=ORIENTED_EDGE('',*,*,#226,.T.);
#151=ORIENTED_EDGE('',*,*,#209,.T.);
#152=ORIENTED_EDGE('',*,*,#231,.F.);
#153=ORIENTED_EDGE('',*,*,#232,.F.);
#154=ORIENTED_EDGE('',*,*,#188,.F.);
#155=ORIENTED_EDGE('',*,*,#229,.T.);
#156=ORIENTED_EDGE('',*,*,#208,.F.);
#157=ORIENTED_EDGE('',*,*,#228,.F.);
#158=ORIENTED_EDGE('',*,*,#233,.T.);
#159=ORIENTED_EDGE('',*,*,#231,.T.);
#160=ORIENTED_EDGE('',*,*,#234,.F.);
#161=ORIENTED_EDGE('',*,*,#232,.T.);
#162=ORIENTED_EDGE('',*,*,#233,.F.);
#163=ORIENTED_EDGE('',*,*,#227,.F.);
#164=ORIENTED_EDGE('',*,*,#230,.T.);
#165=ORIENTED_EDGE('',*,*,#235,.F.);
#166=ORIENTED_EDGE('',*,*,#186,.T.);
#167=ORIENTED_EDGE('',*,*,#234,.T.);
#168=ORIENTED_EDGE('',*,*,#235,.T.);
#169=ORIENTED_EDGE('',*,*,#236,.F.);
#170=ORIENTED_EDGE('',*,*,#221,.T.);
#171=ORIENTED_EDGE('',*,*,#236,.T.);
#172=ORIENTED_EDGE('',*,*,#237,.F.);
#173=ORIENTED_EDGE('',*,*,#220,.T.);
#174=ORIENTED_EDGE('',*,*,#237,.T.);
#175=ORIENTED_EDGE('',*,*,#238,.F.);
#176=ORIENTED_EDGE('',*,*,#219,.T.);
#177=ORIENTED_EDGE('',*,*,#238,.T.);
#178=ORIENTED_EDGE('',*,*,#218,.T.);
#179=ORIENTED_EDGE('',*,*,#206,.T.);
#180=ORIENTED_EDGE('',*,*,#217,.T.);
#181=ORIENTED_EDGE('',*,*,#205,.T.);
#182=ORIENTED_EDGE('',*,*,#216,.T.);
#183=ORIENTED_EDGE('',*,*,#204,.T.);
#184=ORIENTED_EDGE('',*,*,#215,.T.);
#185=ORIENTED_EDGE('',*,*,#203,.T.);
#186=EDGE_CURVE('',#239,#240,#280,.T.);
#187=EDGE_CURVE('',#239,#241,#24,.T.);
#188=EDGE_CURVE('',#241,#240,#25,.T.);
#189=EDGE_CURVE('',#242,#243,#26,.T.);
#190=EDGE_CURVE('',#244,#242,#27,.T.);
#191=EDGE_CURVE('',#244,#245,#28,.T.);
#192=EDGE_CURVE('',#245,#246,#29,.T.);
#193=EDGE_CURVE('',#246,#243,#30,.T.);
#194=EDGE_CURVE('',#242,#247,#31,.T.);
#195=EDGE_CURVE('',#248,#247,#32,.T.);
#196=EDGE_CURVE('',#244,#248,#33,.T.);
#197=EDGE_CURVE('',#247,#249,#34,.T.);
#198=EDGE_CURVE('',#250,#249,#35,.T.);
#199=EDGE_CURVE('',#251,#250,#36,.T.);
#200=EDGE_CURVE('',#248,#251,#37,.T.);
#201=EDGE_CURVE('',#243,#249,#38,.T.);
#202=EDGE_CURVE('',#246,#250,#39,.T.);
#203=EDGE_CURVE('',#252,#252,#281,.T.);
#204=EDGE_CURVE('',#253,#253,#282,.T.);
#205=EDGE_CURVE('',#254,#254,#283,.T.);
#206=EDGE_CURVE('',#255,#255,#284,.T.);
#207=EDGE_CURVE('',#256,#257,#40,.T.);
#208=EDGE_CURVE('',#257,#258,#41,.T.);
#209=EDGE_CURVE('',#259,#258,#42,.T.);
#210=EDGE_CURVE('',#256,#259,#43,.T.);
#211=EDGE_CURVE('',#260,#260,#285,.T.);
#212=EDGE_CURVE('',#261,#261,#286,.T.);
#213=EDGE_CURVE('',#245,#245,#287,.T.);
#214=EDGE_CURVE('',#251,#251,#288,.T.);
#215=EDGE_CURVE('',#262,#262,#289,.F.);
#216=EDGE_CURVE('',#263,#263,#290,.F.);
#217=EDGE_CURVE('',#264,#264,#291,.F.);
#218=EDGE_CURVE('',#265,#265,#292,.F.);
#219=EDGE_CURVE('',#266,#266,#293,.F.);
#220=EDGE_CURVE('',#267,#267,#294,.F.);
#221=EDGE_CURVE('',#268,#268,#295,.T.);
#222=EDGE_CURVE('',#269,#269,#296,.F.);
#223=EDGE_CURVE('',#270,#270,#297,.F.);
#224=EDGE_CURVE('',#271,#271,#298,.T.);
#225=EDGE_CURVE('',#272,#272,#299,.T.);
#226=EDGE_CURVE('',#273,#256,#44,.T.);
#227=EDGE_CURVE('',#273,#274,#45,.T.);
#228=EDGE_CURVE('',#274,#257,#46,.T.);
#229=EDGE_CURVE('',#241,#259,#47,.T.);
#230=EDGE_CURVE('',#273,#239,#48,.T.);
#231=EDGE_CURVE('',#275,#258,#49,.T.);
#232=EDGE_CURVE('',#240,#275,#50,.T.);
#233=EDGE_CURVE('',#274,#275,#51,.T.);
#234=EDGE_CURVE('',#240,#239,#300,.T.);
#235=EDGE_CURVE('',#276,#276,#301,.T.);
#236=EDGE_CURVE('',#277,#277,#302,.T.);
#237=EDGE_CURVE('',#278,#278,#303,.T.);
#238=EDGE_CURVE('',#279,#279,#304,.T.);
#239=VERTEX_POINT('',#680);
#240=VERTEX_POINT('',#681);
#241=VERTEX_POINT('',#683);
#242=VERTEX_POINT('',#687);
#243=VERTEX_POINT('',#688);
#244=VERTEX_POINT('',#690);
#245=VERTEX_POINT('',#692);
#246=VERTEX_POINT('',#694);
#247=VERTEX_POINT('',#698);
#248=VERTEX_POINT('',#700);
#249=VERTEX_POINT('',#704);
#250=VERTEX_POINT('',#706);
#251=VERTEX_POINT('',#708);
#252=VERTEX_POINT('',#715);
#253=VERTEX_POINT('',#717);
#254=VERTEX_POINT('',#719);
#255=VERTEX_POINT('',#721);
#256=VERTEX_POINT('',#723);
#257=VERTEX_POINT('',#724);
#258=VERTEX_POINT('',#726);
#259=VERTEX_POINT('',#728);
#260=VERTEX_POINT('',#731);
#261=VERTEX_POINT('',#733);
#262=VERTEX_POINT('',#738);
#263=VERTEX_POINT('',#740);
#264=VERTEX_POINT('',#742);
#265=VERTEX_POINT('',#744);
#266=VERTEX_POINT('',#746);
#267=VERTEX_POINT('',#748);
#268=VERTEX_POINT('',#750);
#269=VERTEX_POINT('',#752);
#270=VERTEX_POINT('',#754);
#271=VERTEX_POINT('',#759);
#272=VERTEX_POINT('',#763);
#273=VERTEX_POINT('',#767);
#274=VERTEX_POINT('',#769);
#275=VERTEX_POINT('',#776);
#276=VERTEX_POINT('',#784);
#277=VERTEX_POINT('',#788);
#278=VERTEX_POINT('',#792);
#279=VERTEX_POINT('',#796);
#280=CIRCLE('',#483,0.0011);
#281=CIRCLE('',#489,0.0007);
#282=CIRCLE('',#490,0.0007);
#283=CIRCLE('',#491,0.0007);
#284=CIRCLE('',#492,0.0007);
#285=CIRCLE('',#493,0.0019);
#286=CIRCLE('',#494,0.0019);
#287=CIRCLE('',#495,0.0035);
#288=CIRCLE('',#496,0.0035);
#289=CIRCLE('',#498,0.0007);
#290=CIRCLE('',#499,0.0007);
#291=CIRCLE('',#500,0.0007);
#292=CIRCLE('',#501,0.0007);
#293=CIRCLE('',#502,0.0005);
#294=CIRCLE('',#503,0.0005);
#295=CIRCLE('',#504,0.0005);
#296=CIRCLE('',#505,0.0019);
#297=CIRCLE('',#506,0.0019);
#298=CIRCLE('',#510,0.0035);
#299=CIRCLE('',#513,0.0035);
#300=CIRCLE('',#520,0.0011);
#301=CIRCLE('',#522,0.0011);
#302=CIRCLE('',#525,0.0005);
#303=CIRCLE('',#528,0.0005);
#304=CIRCLE('',#531,0.0005);
#305=EDGE_LOOP('',(#80,#81,#82));
#306=EDGE_LOOP('',(#83,#84,#85,#86,#87));
#307=EDGE_LOOP('',(#88,#89,#90,#91));
#308=EDGE_LOOP('',(#92,#93,#94,#95,#96));
#309=EDGE_LOOP('',(#97,#98,#99,#100));
#310=EDGE_LOOP('',(#101));
#311=EDGE_LOOP('',(#102));
#312=EDGE_LOOP('',(#103));
#313=EDGE_LOOP('',(#104));
#314=EDGE_LOOP('',(#105,#106,#107,#108));
#315=EDGE_LOOP('',(#109));
#316=EDGE_LOOP('',(#110));
#317=EDGE_LOOP('',(#111,#112,#113,#114,#115,#116,#117,#118));
#318=EDGE_LOOP('',(#119));
#319=EDGE_LOOP('',(#120));
#320=EDGE_LOOP('',(#121));
#321=EDGE_LOOP('',(#122));
#322=EDGE_LOOP('',(#123));
#323=EDGE_LOOP('',(#124));
#324=EDGE_LOOP('',(#125));
#325=EDGE_LOOP('',(#126));
#326=EDGE_LOOP('',(#127));
#327=EDGE_LOOP('',(#128,#129,#130,#131));
#328=EDGE_LOOP('',(#132));
#329=EDGE_LOOP('',(#133));
#330=EDGE_LOOP('',(#134));
#331=EDGE_LOOP('',(#135));
#332=EDGE_LOOP('',(#136));
#333=EDGE_LOOP('',(#137));
#334=EDGE_LOOP('',(#138));
#335=EDGE_LOOP('',(#139));
#336=EDGE_LOOP('',(#140));
#337=EDGE_LOOP('',(#141));
#338=EDGE_LOOP('',(#142,#143,#144,#145));
#339=EDGE_LOOP('',(#146,#147,#148,#149,#150));
#340=EDGE_LOOP('',(#151,#152,#153,#154,#155));
#341=EDGE_LOOP('',(#156,#157,#158,#159));
#342=EDGE_LOOP('',(#160,#161,#162,#163,#164));
#343=EDGE_LOOP('',(#165));
#344=EDGE_LOOP('',(#166,#167));
#345=EDGE_LOOP('',(#168));
#346=EDGE_LOOP('',(#169));
#347=EDGE_LOOP('',(#170));
#348=EDGE_LOOP('',(#171));
#349=EDGE_LOOP('',(#172));
#350=EDGE_LOOP('',(#173));
#351=EDGE_LOOP('',(#174));
#352=EDGE_LOOP('',(#175));
#353=EDGE_LOOP('',(#176));
#354=EDGE_LOOP('',(#177));
#355=EDGE_LOOP('',(#178));
#356=EDGE_LOOP('',(#179));
#357=EDGE_LOOP('',(#180));
#358=EDGE_LOOP('',(#181));
#359=EDGE_LOOP('',(#182));
#360=EDGE_LOOP('',(#183));
#361=EDGE_LOOP('',(#184));
#362=EDGE_LOOP('',(#185));
#363=FACE_BOUND('',#305,.T.);
#364=FACE_BOUND('',#306,.T.);
#365=FACE_BOUND('',#307,.T.);
#366=FACE_BOUND('',#308,.T.);
#367=FACE_BOUND('',#309,.T.);
#368=FACE_BOUND('',#310,.T.);
#369=FACE_BOUND('',#311,.T.);
#370=FACE_BOUND('',#312,.T.);
#371=FACE_BOUND('',#313,.T.);
#372=FACE_BOUND('',#314,.T.);
#373=FACE_BOUND('',#315,.T.);
#374=FACE_BOUND('',#316,.T.);
#375=FACE_BOUND('',#317,.T.);
#376=FACE_BOUND('',#318,.T.);
#377=FACE_BOUND('',#319,.T.);
#378=FACE_BOUND('',#320,.T.);
#379=FACE_BOUND('',#321,.T.);
#380=FACE_BOUND('',#322,.T.);
#381=FACE_BOUND('',#323,.T.);
#382=FACE_BOUND('',#324,.T.);
#383=FACE_BOUND('',#325,.T.);
#384=FACE_BOUND('',#326,.T.);
#385=FACE_BOUND('',#327,.T.);
#386=FACE_BOUND('',#328,.T.);
#387=FACE_BOUND('',#329,.T.);
#388=FACE_BOUND('',#330,.T.);
#389=FACE_BOUND('',#331,.T.);
#390=FACE_BOUND('',#332,.T.);
#391=FACE_BOUND('',#333,.T.);
#392=FACE_BOUND('',#334,.T.);
#393=FACE_BOUND('',#335,.T.);
#394=FACE_BOUND('',#336,.T.);
#395=FACE_BOUND('',#337,.T.);
#396=FACE_BOUND('',#338,.T.);
#397=FACE_BOUND('',#339,.T.);
#398=FACE_BOUND('',#340,.T.);
#399=FACE_BOUND('',#341,.T.);
#400=FACE_BOUND('',#342,.T.);
#401=FACE_BOUND('',#343,.T.);
#402=FACE_BOUND('',#344,.T.);
#403=FACE_BOUND('',#345,.T.);
#404=FACE_BOUND('',#346,.T.);
#405=FACE_BOUND('',#347,.T.);
#406=FACE_BOUND('',#348,.T.);
#407=FACE_BOUND('',#349,.T.);
#408=FACE_BOUND('',#350,.T.);
#409=FACE_BOUND('',#351,.T.);
#410=FACE_BOUND('',#352,.T.);
#411=FACE_BOUND('',#353,.T.);
#412=FACE_BOUND('',#354,.T.);
#413=FACE_BOUND('',#355,.T.);
#414=FACE_BOUND('',#356,.T.);
#415=FACE_BOUND('',#357,.T.);
#416=FACE_BOUND('',#358,.T.);
#417=FACE_BOUND('',#359,.T.);
#418=FACE_BOUND('',#360,.T.);
#419=FACE_BOUND('',#361,.T.);
#420=FACE_BOUND('',#362,.T.);
#421=PLANE('',#482);
#422=PLANE('',#484);
#423=PLANE('',#485);
#424=PLANE('',#486);
#425=PLANE('',#487);
#426=PLANE('',#488);
#427=PLANE('',#497);
#428=PLANE('',#511);
#429=PLANE('',#514);
#430=PLANE('',#515);
#431=PLANE('',#516);
#432=PLANE('',#517);
#433=PLANE('',#518);
#434=PLANE('',#519);
#435=PLANE('',#523);
#436=PLANE('',#526);
#437=PLANE('',#529);
#438=PLANE('',#532);
#439=ADVANCED_FACE('',(#363),#421,.T.);
#440=ADVANCED_FACE('',(#364),#422,.T.);
#441=ADVANCED_FACE('',(#365),#423,.F.);
#442=ADVANCED_FACE('',(#366),#424,.F.);
#443=ADVANCED_FACE('',(#367),#425,.T.);
#444=ADVANCED_FACE('',(#368,#369,#370,#371,#372,#373,#374,#375),#426,.T.);
#445=ADVANCED_FACE('',(#376,#377,#378,#379,#380,#381,#382,#383,#384,#385),
#427,.F.);
#446=ADVANCED_FACE('',(#386,#387),#12,.F.);
#447=ADVANCED_FACE('',(#388,#389),#13,.F.);
#448=ADVANCED_FACE('',(#390,#391),#14,.T.);
#449=ADVANCED_FACE('',(#392),#428,.T.);
#450=ADVANCED_FACE('',(#393,#394),#15,.T.);
#451=ADVANCED_FACE('',(#395),#429,.T.);
#452=ADVANCED_FACE('',(#396),#430,.T.);
#453=ADVANCED_FACE('',(#397),#431,.F.);
#454=ADVANCED_FACE('',(#398),#432,.F.);
#455=ADVANCED_FACE('',(#399),#433,.T.);
#456=ADVANCED_FACE('',(#400),#434,.T.);
#457=ADVANCED_FACE('',(#401,#402),#16,.T.);
#458=ADVANCED_FACE('',(#403),#435,.T.);
#459=ADVANCED_FACE('',(#404,#405),#17,.T.);
#460=ADVANCED_FACE('',(#406),#436,.T.);
#461=ADVANCED_FACE('',(#407,#408),#18,.T.);
#462=ADVANCED_FACE('',(#409),#437,.T.);
#463=ADVANCED_FACE('',(#410,#411),#19,.T.);
#464=ADVANCED_FACE('',(#412),#438,.T.);
#465=ADVANCED_FACE('',(#413,#414),#20,.F.);
#466=ADVANCED_FACE('',(#415,#416),#21,.F.);
#467=ADVANCED_FACE('',(#417,#418),#22,.F.);
#468=ADVANCED_FACE('',(#419,#420),#23,.F.);
#469=CLOSED_SHELL('',(#439,#440,#441,#442,#443,#444,#445,#446,#447,#448,
#449,#450,#451,#452,#453,#454,#455,#456,#457,#458,#459,#460,#461,#462,#463,
#464,#465,#466,#467,#468));
#470=STYLED_ITEM('',(#471),#478);
#471=PRESENTATION_STYLE_ASSIGNMENT((#472));
#472=SURFACE_STYLE_USAGE(.BOTH.,#473);
#473=SURFACE_SIDE_STYLE('',(#474));
#474=SURFACE_STYLE_FILL_AREA(#475);
#475=FILL_AREA_STYLE('',(#476));
#476=FILL_AREA_STYLE_COLOUR('',#477);
#477=COLOUR_RGB('',0.615686274509804,0.811764705882353,0.929411764705882);
#478=MANIFOLD_SOLID_BREP('LM2596S_Y000022',#469);
#479=SHAPE_DEFINITION_REPRESENTATION(#808,#480);
#480=SHAPE_REPRESENTATION('LM2596S_Y000022',(#481),#803);
#481=AXIS2_PLACEMENT_3D('',#677,#537,#538);
#482=AXIS2_PLACEMENT_3D('',#678,#539,#540);
#483=AXIS2_PLACEMENT_3D('',#679,#541,#542);
#484=AXIS2_PLACEMENT_3D('',#685,#545,#546);
#485=AXIS2_PLACEMENT_3D('',#696,#552,#553);
#486=AXIS2_PLACEMENT_3D('',#702,#557,#558);
#487=AXIS2_PLACEMENT_3D('',#710,#563,#564);
#488=AXIS2_PLACEMENT_3D('',#713,#567,#568);
#489=AXIS2_PLACEMENT_3D('',#714,#569,#570);
#490=AXIS2_PLACEMENT_3D('',#716,#571,#572);
#491=AXIS2_PLACEMENT_3D('',#718,#573,#574);
#492=AXIS2_PLACEMENT_3D('',#720,#575,#576);
#493=AXIS2_PLACEMENT_3D('',#730,#581,#582);
#494=AXIS2_PLACEMENT_3D('',#732,#583,#584);
#495=AXIS2_PLACEMENT_3D('',#734,#585,#586);
#496=AXIS2_PLACEMENT_3D('',#735,#587,#588);
#497=AXIS2_PLACEMENT_3D('',#736,#589,#590);
#498=AXIS2_PLACEMENT_3D('',#737,#591,#592);
#499=AXIS2_PLACEMENT_3D('',#739,#593,#594);
#500=AXIS2_PLACEMENT_3D('',#741,#595,#596);
#501=AXIS2_PLACEMENT_3D('',#743,#597,#598);
#502=AXIS2_PLACEMENT_3D('',#745,#599,#600);
#503=AXIS2_PLACEMENT_3D('',#747,#601,#602);
#504=AXIS2_PLACEMENT_3D('',#749,#603,#604);
#505=AXIS2_PLACEMENT_3D('',#751,#605,#606);
#506=AXIS2_PLACEMENT_3D('',#753,#607,#608);
#507=AXIS2_PLACEMENT_3D('',#755,#609,#610);
#508=AXIS2_PLACEMENT_3D('',#756,#611,#612);
#509=AXIS2_PLACEMENT_3D('',#757,#613,#614);
#510=AXIS2_PLACEMENT_3D('',#758,#615,#616);
#511=AXIS2_PLACEMENT_3D('',#760,#617,#618);
#512=AXIS2_PLACEMENT_3D('',#761,#619,#620);
#513=AXIS2_PLACEMENT_3D('',#762,#621,#622);
#514=AXIS2_PLACEMENT_3D('',#764,#623,#624);
#515=AXIS2_PLACEMENT_3D('',#765,#625,#626);
#516=AXIS2_PLACEMENT_3D('',#771,#630,#631);
#517=AXIS2_PLACEMENT_3D('',#774,#634,#635);
#518=AXIS2_PLACEMENT_3D('',#778,#638,#639);
#519=AXIS2_PLACEMENT_3D('',#780,#641,#642);
#520=AXIS2_PLACEMENT_3D('',#781,#643,#644);
#521=AXIS2_PLACEMENT_3D('',#782,#645,#646);
#522=AXIS2_PLACEMENT_3D('',#783,#647,#648);
#523=AXIS2_PLACEMENT_3D('',#785,#649,#650);
#524=AXIS2_PLACEMENT_3D('',#786,#651,#652);
#525=AXIS2_PLACEMENT_3D('',#787,#653,#654);
#526=AXIS2_PLACEMENT_3D('',#789,#655,#656);
#527=AXIS2_PLACEMENT_3D('',#790,#657,#658);
#528=AXIS2_PLACEMENT_3D('',#791,#659,#660);
#529=AXIS2_PLACEMENT_3D('',#793,#661,#662);
#530=AXIS2_PLACEMENT_3D('',#794,#663,#664);
#531=AXIS2_PLACEMENT_3D('',#795,#665,#666);
#532=AXIS2_PLACEMENT_3D('',#797,#667,#668);
#533=AXIS2_PLACEMENT_3D('',#798,#669,#670);
#534=AXIS2_PLACEMENT_3D('',#799,#671,#672);
#535=AXIS2_PLACEMENT_3D('',#800,#673,#674);
#536=AXIS2_PLACEMENT_3D('',#801,#675,#676);
#537=DIRECTION('',(0.,0.,1.));
#538=DIRECTION('',(1.,0.,0.));
#539=DIRECTION('',(0.,-1.,0.));
#540=DIRECTION('',(1.,0.,0.));
#541=DIRECTION('',(0.,-1.,0.));
#542=DIRECTION('',(1.,0.,0.));
#543=DIRECTION('',(-1.,0.,0.));
#544=DIRECTION('',(3.25260651745651E-16,0.,-1.));
#545=DIRECTION('',(1.,0.,3.2913831248967E-16));
#546=DIRECTION('',(-3.2913831248967E-16,0.,1.));
#547=DIRECTION('',(3.2913831248967E-16,0.,-1.));
#548=DIRECTION('',(0.,1.,0.));
#549=DIRECTION('',(3.2913831248967E-16,0.,-1.));
#550=DIRECTION('',(3.2913831248967E-16,0.,-1.));
#551=DIRECTION('',(0.,1.,0.));
#552=DIRECTION('',(0.,0.,-1.));
#553=DIRECTION('',(0.,1.,0.));
#554=DIRECTION('',(-1.,0.,0.));
#555=DIRECTION('',(0.,1.,0.));
#556=DIRECTION('',(-1.,0.,0.));
#557=DIRECTION('',(1.,0.,3.2913831248967E-16));
#558=DIRECTION('',(-3.2913831248967E-16,0.,1.));
#559=DIRECTION('',(3.2913831248967E-16,0.,-1.));
#560=DIRECTION('',(0.,1.,0.));
#561=DIRECTION('',(3.2913831248967E-16,0.,-1.));
#562=DIRECTION('',(3.2913831248967E-16,0.,-1.));
#563=DIRECTION('',(0.,0.,-1.));
#564=DIRECTION('',(0.,1.,0.));
#565=DIRECTION('',(-1.,0.,0.));
#566=DIRECTION('',(-1.,0.,0.));
#567=DIRECTION('',(0.,-1.,0.));
#568=DIRECTION('',(1.,0.,0.));
#569=DIRECTION('',(0.,-1.,0.));
#570=DIRECTION('',(1.,0.,0.));
#571=DIRECTION('',(0.,-1.,0.));
#572=DIRECTION('',(1.,0.,0.));
#573=DIRECTION('',(0.,-1.,0.));
#574=DIRECTION('',(1.,0.,0.));
#575=DIRECTION('',(0.,-1.,0.));
#576=DIRECTION('',(1.,0.,0.));
#577=DIRECTION('',(0.,0.,-1.));
#578=DIRECTION('',(-1.,0.,-1.92747052886312E-16));
#579=DIRECTION('',(3.25260651745651E-16,0.,-1.));
#580=DIRECTION('',(-1.,0.,0.));
#581=DIRECTION('',(0.,-1.,0.));
#582=DIRECTION('',(1.,0.,0.));
#583=DIRECTION('',(0.,-1.,0.));
#584=DIRECTION('',(1.,0.,0.));
#585=DIRECTION('',(0.,-1.,0.));
#586=DIRECTION('',(1.,0.,0.));
#587=DIRECTION('',(0.,-1.,0.));
#588=DIRECTION('',(1.,0.,0.));
#589=DIRECTION('',(0.,-1.,0.));
#590=DIRECTION('',(1.,0.,0.));
#591=DIRECTION('',(0.,-1.,0.));
#592=DIRECTION('',(1.,0.,0.));
#593=DIRECTION('',(0.,-1.,0.));
#594=DIRECTION('',(1.,0.,0.));
#595=DIRECTION('',(0.,-1.,0.));
#596=DIRECTION('',(1.,0.,0.));
#597=DIRECTION('',(0.,-1.,0.));
#598=DIRECTION('',(1.,0.,0.));
#599=DIRECTION('',(0.,-1.,0.));
#600=DIRECTION('',(1.,0.,0.));
#601=DIRECTION('',(0.,-1.,0.));
#602=DIRECTION('',(1.,0.,0.));
#603=DIRECTION('',(0.,1.,0.));
#604=DIRECTION('',(-1.,0.,0.));
#605=DIRECTION('',(0.,-1.,0.));
#606=DIRECTION('',(1.,0.,0.));
#607=DIRECTION('',(0.,-1.,0.));
#608=DIRECTION('',(1.,0.,0.));
#609=DIRECTION('',(0.,-1.,0.));
#610=DIRECTION('',(1.,0.,0.));
#611=DIRECTION('',(0.,-1.,0.));
#612=DIRECTION('',(1.,0.,0.));
#613=DIRECTION('',(0.,1.,0.));
#614=DIRECTION('',(-1.,0.,0.));
#615=DIRECTION('',(0.,-1.,0.));
#616=DIRECTION('',(1.,0.,0.));
#617=DIRECTION('',(0.,-1.,0.));
#618=DIRECTION('',(1.,0.,0.));
#619=DIRECTION('',(0.,1.,0.));
#620=DIRECTION('',(-1.,0.,0.));
#621=DIRECTION('',(0.,-1.,0.));
#622=DIRECTION('',(1.,0.,0.));
#623=DIRECTION('',(0.,-1.,0.));
#624=DIRECTION('',(1.,0.,0.));
#625=DIRECTION('',(1.,0.,0.));
#626=DIRECTION('',(0.,1.,0.));
#627=DIRECTION('',(0.,1.,0.));
#628=DIRECTION('',(0.,0.,-1.));
#629=DIRECTION('',(0.,1.,0.));
#630=DIRECTION('',(0.,0.,-1.));
#631=DIRECTION('',(0.,1.,0.));
#632=DIRECTION('',(0.,1.,0.));
#633=DIRECTION('',(-1.,0.,0.));
#634=DIRECTION('',(1.,0.,3.25260651745651E-16));
#635=DIRECTION('',(-3.25260651745651E-16,0.,1.));
#636=DIRECTION('',(0.,1.,0.));
#637=DIRECTION('',(3.25260651745651E-16,0.,-1.));
#638=DIRECTION('',(1.92747052886312E-16,0.,-1.));
#639=DIRECTION('',(1.,0.,1.92747052886312E-16));
#640=DIRECTION('',(-1.,0.,-1.92747052886312E-16));
#641=DIRECTION('',(0.,-1.,0.));
#642=DIRECTION('',(1.,0.,0.));
#643=DIRECTION('',(0.,-1.,0.));
#644=DIRECTION('',(1.,0.,0.));
#645=DIRECTION('',(0.,1.,0.));
#646=DIRECTION('',(-1.,0.,0.));
#647=DIRECTION('',(0.,-1.,0.));
#648=DIRECTION('',(1.,0.,0.));
#649=DIRECTION('',(0.,-1.,0.));
#650=DIRECTION('',(1.,0.,0.));
#651=DIRECTION('',(0.,-1.,0.));
#652=DIRECTION('',(1.,0.,0.));
#653=DIRECTION('',(0.,1.,0.));
#654=DIRECTION('',(-1.,0.,0.));
#655=DIRECTION('',(0.,1.,0.));
#656=DIRECTION('',(1.,0.,0.));
#657=DIRECTION('',(0.,-1.,0.));
#658=DIRECTION('',(1.,0.,0.));
#659=DIRECTION('',(0.,1.,0.));
#660=DIRECTION('',(-1.,0.,0.));
#661=DIRECTION('',(0.,1.,0.));
#662=DIRECTION('',(1.,0.,0.));
#663=DIRECTION('',(0.,-1.,0.));
#664=DIRECTION('',(1.,0.,0.));
#665=DIRECTION('',(0.,1.,0.));
#666=DIRECTION('',(-1.,0.,0.));
#667=DIRECTION('',(0.,1.,0.));
#668=DIRECTION('',(1.,0.,0.));
#669=DIRECTION('',(0.,-1.,0.));
#670=DIRECTION('',(1.,0.,0.));
#671=DIRECTION('',(0.,-1.,0.));
#672=DIRECTION('',(1.,0.,0.));
#673=DIRECTION('',(0.,-1.,0.));
#674=DIRECTION('',(1.,0.,0.));
#675=DIRECTION('',(0.,-1.,0.));
#676=DIRECTION('',(1.,0.,0.));
#677=CARTESIAN_POINT('',(0.,0.,0.));
#678=CARTESIAN_POINT('',(0.,-0.01115,0.));
#679=CARTESIAN_POINT('',(0.00369,-0.01115,0.008041));
#680=CARTESIAN_POINT('',(0.00369,-0.01115,0.009141));
#681=CARTESIAN_POINT('',(0.00259,-0.01115,0.008041));
#682=CARTESIAN_POINT('',(0.00709,-0.01115,0.009141));
#683=CARTESIAN_POINT('',(0.00259,-0.01115,0.009141));
#684=CARTESIAN_POINT('',(0.00259,-0.01115,0.007141));
#685=CARTESIAN_POINT('',(0.02159,-0.00065,1.7347234759768E-18));
#686=CARTESIAN_POINT('',(0.02159,0.00065,1.7347234759768E-18));
#687=CARTESIAN_POINT('',(0.02159,0.00065,0.010541));
#688=CARTESIAN_POINT('',(0.02159,0.00065,-0.010541));
#689=CARTESIAN_POINT('',(0.02159,-0.00065,0.010541));
#690=CARTESIAN_POINT('',(0.02159,-0.00065,0.010541));
#691=CARTESIAN_POINT('',(0.02159,-0.00065,1.7347234759768E-18));
#692=CARTESIAN_POINT('',(0.02159,-0.00065,1.29402045670408E-18));
#693=CARTESIAN_POINT('',(0.02159,-0.00065,1.7347234759768E-18));
#694=CARTESIAN_POINT('',(0.02159,-0.00065,-0.010541));
#695=CARTESIAN_POINT('',(0.02159,-0.00065,-0.010541));
#696=CARTESIAN_POINT('',(-1.7347234759768E-18,-0.00065,0.010541));
#697=CARTESIAN_POINT('',(-1.7347234759768E-18,0.00065,0.010541));
#698=CARTESIAN_POINT('',(-0.02159,0.00065,0.010541));
#699=CARTESIAN_POINT('',(-0.02159,-0.00065,0.010541));
#700=CARTESIAN_POINT('',(-0.02159,-0.00065,0.010541));
#701=CARTESIAN_POINT('',(-1.7347234759768E-18,-0.00065,0.010541));
#702=CARTESIAN_POINT('',(-0.02159,-0.00065,1.7347234759768E-18));
#703=CARTESIAN_POINT('',(-0.02159,0.00065,1.7347234759768E-18));
#704=CARTESIAN_POINT('',(-0.02159,0.00065,-0.010541));
#705=CARTESIAN_POINT('',(-0.02159,-0.00065,-0.010541));
#706=CARTESIAN_POINT('',(-0.02159,-0.00065,-0.010541));
#707=CARTESIAN_POINT('',(-0.02159,-0.00065,1.7347234759768E-18));
#708=CARTESIAN_POINT('',(-0.02159,-0.00065,-9.69823626945649E-19));
#709=CARTESIAN_POINT('',(-0.02159,-0.00065,1.7347234759768E-18));
#710=CARTESIAN_POINT('',(3.46944695195361E-18,-0.00065,-0.010541));
#711=CARTESIAN_POINT('',(3.46944695195361E-18,0.00065,-0.010541));
#712=CARTESIAN_POINT('',(3.46944695195361E-18,-0.00065,-0.010541));
#713=CARTESIAN_POINT('',(0.,-0.00065,0.));
#714=CARTESIAN_POINT('',(-0.0199735,-0.00065,-0.0085725));
#715=CARTESIAN_POINT('',(-0.0192735,-0.00065,-0.0085725));
#716=CARTESIAN_POINT('',(0.0195235,-0.00065,-0.0085725));
#717=CARTESIAN_POINT('',(0.0202235,-0.00065,-0.0085725));
#718=CARTESIAN_POINT('',(0.0195235,-0.00065,0.0085725));
#719=CARTESIAN_POINT('',(0.0202235,-0.00065,0.0085725));
#720=CARTESIAN_POINT('',(-0.0199735,-0.00065,0.0085725));
#721=CARTESIAN_POINT('',(-0.0192735,-0.00065,0.0085725));
#722=CARTESIAN_POINT('',(0.01159,-0.00065,0.007141));
#723=CARTESIAN_POINT('',(0.01159,-0.00065,0.009141));
#724=CARTESIAN_POINT('',(0.01159,-0.00065,0.005141));
#725=CARTESIAN_POINT('',(0.00709,-0.00065,0.005141));
#726=CARTESIAN_POINT('',(0.00259,-0.00065,0.005141));
#727=CARTESIAN_POINT('',(0.00259,-0.00065,0.007141));
#728=CARTESIAN_POINT('',(0.00259,-0.00065,0.009141));
#729=CARTESIAN_POINT('',(0.00709,-0.00065,0.009141));
#730=CARTESIAN_POINT('',(-0.014986,-0.00065,0.008001));
#731=CARTESIAN_POINT('',(-0.013086,-0.00065,0.008001));
#732=CARTESIAN_POINT('',(0.014986,-0.00065,-0.008001));
#733=CARTESIAN_POINT('',(0.016886,-0.00065,-0.008001));
#734=CARTESIAN_POINT('',(0.01809,-0.00065,1.42036362990232E-19));
#735=CARTESIAN_POINT('',(-0.01809,-0.00065,1.82160466768196E-19));
#736=CARTESIAN_POINT('',(0.,0.00065,0.));
#737=CARTESIAN_POINT('',(-0.0199735,0.00065,-0.0085725));
#738=CARTESIAN_POINT('',(-0.0192735,0.00065,-0.0085725));
#739=CARTESIAN_POINT('',(0.0195235,0.00065,-0.0085725));
#740=CARTESIAN_POINT('',(0.0202235,0.00065,-0.0085725));
#741=CARTESIAN_POINT('',(0.0195235,0.00065,0.0085725));
#742=CARTESIAN_POINT('',(0.0202235,0.00065,0.0085725));
#743=CARTESIAN_POINT('',(-0.0199735,0.00065,0.0085725));
#744=CARTESIAN_POINT('',(-0.0192735,0.00065,0.0085725));
#745=CARTESIAN_POINT('',(0.00455,0.00065,0.007141));
#746=CARTESIAN_POINT('',(0.00505,0.00065,0.007141));
#747=CARTESIAN_POINT('',(0.00709,0.00065,0.007141));
#748=CARTESIAN_POINT('',(0.00759,0.00065,0.007141));
#749=CARTESIAN_POINT('',(0.00963,0.00065,0.007141));
#750=CARTESIAN_POINT('',(0.00913,0.00065,0.007141));
#751=CARTESIAN_POINT('',(-0.014986,0.00065,0.008001));
#752=CARTESIAN_POINT('',(-0.013086,0.00065,0.008001));
#753=CARTESIAN_POINT('',(0.014986,0.00065,-0.008001));
#754=CARTESIAN_POINT('',(0.016886,0.00065,-0.008001));
#755=CARTESIAN_POINT('',(0.014986,0.000652,-0.008001));
#756=CARTESIAN_POINT('',(-0.014986,0.000652,0.008001));
#757=CARTESIAN_POINT('',(-0.01809,-0.01165,1.82160466768196E-19));
#758=CARTESIAN_POINT('',(-0.01809,-0.01165,1.82160466768196E-19));
#759=CARTESIAN_POINT('',(-0.01459,-0.01165,1.82160466768196E-19));
#760=CARTESIAN_POINT('',(0.,-0.01165,0.));
#761=CARTESIAN_POINT('',(0.01809,-0.01165,1.42036362990232E-19));
#762=CARTESIAN_POINT('',(0.01809,-0.01165,1.42036362990232E-19));
#763=CARTESIAN_POINT('',(0.02159,-0.01165,1.42036362990232E-19));
#764=CARTESIAN_POINT('',(0.,-0.01165,0.));
#765=CARTESIAN_POINT('',(0.01159,-0.01115,0.007141));
#766=CARTESIAN_POINT('',(0.01159,-0.01115,0.009141));
#767=CARTESIAN_POINT('',(0.01159,-0.01115,0.009141));
#768=CARTESIAN_POINT('',(0.01159,-0.01115,0.007141));
#769=CARTESIAN_POINT('',(0.01159,-0.01115,0.005141));
#770=CARTESIAN_POINT('',(0.01159,-0.01115,0.005141));
#771=CARTESIAN_POINT('',(0.00709,-0.01115,0.009141));
#772=CARTESIAN_POINT('',(0.00259,-0.01115,0.009141));
#773=CARTESIAN_POINT('',(0.00709,-0.01115,0.009141));
#774=CARTESIAN_POINT('',(0.00259,-0.01115,0.007141));
#775=CARTESIAN_POINT('',(0.00259,-0.01115,0.005141));
#776=CARTESIAN_POINT('',(0.00259,-0.01115,0.005141));
#777=CARTESIAN_POINT('',(0.00259,-0.01115,0.007141));
#778=CARTESIAN_POINT('',(0.00709,-0.01115,0.005141));
#779=CARTESIAN_POINT('',(0.00709,-0.01115,0.005141));
#780=CARTESIAN_POINT('',(0.,-0.01115,0.));
#781=CARTESIAN_POINT('',(0.00369,-0.01115,0.008041));
#782=CARTESIAN_POINT('',(0.00369,-0.01265,0.008041));
#783=CARTESIAN_POINT('',(0.00369,-0.01265,0.008041));
#784=CARTESIAN_POINT('',(0.00479,-0.01265,0.008041));
#785=CARTESIAN_POINT('',(0.00709,-0.01265,0.007141));
#786=CARTESIAN_POINT('',(0.00963,0.00165,0.007141));
#787=CARTESIAN_POINT('',(0.00963,0.00165,0.007141));
#788=CARTESIAN_POINT('',(0.00913,0.00165,0.007141));
#789=CARTESIAN_POINT('',(0.,0.00165,0.));
#790=CARTESIAN_POINT('',(0.00709,0.00165,0.007141));
#791=CARTESIAN_POINT('',(0.00709,0.00165,0.007141));
#792=CARTESIAN_POINT('',(0.00659,0.00165,0.007141));
#793=CARTESIAN_POINT('',(0.,0.00165,0.));
#794=CARTESIAN_POINT('',(0.00455,0.00165,0.007141));
#795=CARTESIAN_POINT('',(0.00455,0.00165,0.007141));
#796=CARTESIAN_POINT('',(0.00405,0.00165,0.007141));
#797=CARTESIAN_POINT('',(0.,0.00165,0.));
#798=CARTESIAN_POINT('',(-0.0199735,0.000652,0.0085725));
#799=CARTESIAN_POINT('',(0.0195235,0.000652,0.0085725));
#800=CARTESIAN_POINT('',(0.0195235,0.000652,-0.0085725));
#801=CARTESIAN_POINT('',(-0.0199735,0.000652,-0.0085725));
#802=MECHANICAL_DESIGN_GEOMETRIC_PRESENTATION_REPRESENTATION('',(#470),
#803);
#803=(
GEOMETRIC_REPRESENTATION_CONTEXT(3)
GLOBAL_UNCERTAINTY_ASSIGNED_CONTEXT((#804))
GLOBAL_UNIT_ASSIGNED_CONTEXT((#807,#806,#805))
REPRESENTATION_CONTEXT('LM2596S_Y000022','TOP_LEVEL_ASSEMBLY_PART')
);
#804=UNCERTAINTY_MEASURE_WITH_UNIT(LENGTH_MEASURE(1.E-8),#807,
'DISTANCE_ACCURACY_VALUE','Maximum Tolerance applied to model');
#805=(
NAMED_UNIT(*)
SI_UNIT($,.STERADIAN.)
SOLID_ANGLE_UNIT()
);
#806=(
NAMED_UNIT(*)
PLANE_ANGLE_UNIT()
SI_UNIT($,.RADIAN.)
);
#807=(
LENGTH_UNIT()
NAMED_UNIT(*)
SI_UNIT($,.METRE.)
);
#808=PRODUCT_DEFINITION_SHAPE('','',#809);
#809=PRODUCT_DEFINITION('','',#811,#810);
#810=PRODUCT_DEFINITION_CONTEXT('',#817,'design');
#811=PRODUCT_DEFINITION_FORMATION_WITH_SPECIFIED_SOURCE('','',#813,
 .NOT_KNOWN.);
#812=PRODUCT_RELATED_PRODUCT_CATEGORY('','',(#813));
#813=PRODUCT('LM2596S_Y000022','LM2596S_Y000022','LM2596S_Y000022',(#815));
#814=PRODUCT_CATEGORY('','');
#815=PRODUCT_CONTEXT('',#817,'mechanical');
#816=APPLICATION_PROTOCOL_DEFINITION('international standard',
'ap242_managed_model_based_3d_engineering',2020,#817);
#817=APPLICATION_CONTEXT('managed model based 3d engineering');
ENDSEC;
END-ISO-10303-21;
