ISO-10303-21;
HEADER;
/* Generated by software containing ST-Developer
 * from STEP Tools, Inc. (www.steptools.com) 
 */
/* OPTION: using custom renumber hook */

FILE_DESCRIPTION(
/* description */ ('STEP AP242 Edition 2',
'CAx-IF Rec.Pracs.---Representation and Presentation of Product Manufa
cturing Information (PMI)---4.0---2014-10-13',
'CAx-IF Rec.Pracs.---3D Tessellated Geometry---0.4---2014-09-14','2;1',
'CAx-IF Rec.Pracs.---User Defined Attributes---1.5---2016-08-15'),
/* implementation_level */ '2;1');

FILE_NAME(
/* name */ 'Part Studio 1 - LSM6DS3',
/* time_stamp */ '2026-06-22T13:07:33Z',
/* author */ (''),
/* organization */ (''),
/* preprocessor_version */ 'ST-DEVELOPER v20',
/* originating_system */ 'ONSHAPE BY PTC INC, 1.216',
/* authorisation */ '  ');

FILE_SCHEMA (('AP242_MANAGED_MODEL_BASED_3D_ENGINEERING_MIM_LF { 1 0 10303 442 3 1 4 }'));
ENDSEC;

DATA;
#10=SHAPE_REPRESENTATION_RELATIONSHIP('','',#355,#11);
#11=ADVANCED_BREP_SHAPE_REPRESENTATION('',(#353),#585);
#12=CIRCLE('',#361,0.00055);
#13=CIRCLE('',#362,0.00055);
#14=CIRCLE('',#364,0.00055);
#15=CIRCLE('',#365,0.00055);
#16=CIRCLE('',#367,0.00055);
#17=CIRCLE('',#368,0.00055);
#18=CIRCLE('',#370,0.00055);
#19=CIRCLE('',#371,0.00055);
#20=CIRCLE('',#374,0.00055);
#21=CIRCLE('',#375,0.00055);
#22=CIRCLE('',#377,0.00055);
#23=CIRCLE('',#378,0.00055);
#24=CIRCLE('',#380,0.00055);
#25=CIRCLE('',#381,0.00055);
#26=CIRCLE('',#383,0.00055);
#27=CIRCLE('',#384,0.00055);
#28=CIRCLE('',#386,0.00055);
#29=CIRCLE('',#387,0.00055);
#30=CIRCLE('',#389,0.00055);
#31=CIRCLE('',#390,0.00055);
#32=CIRCLE('',#392,0.00055);
#33=CIRCLE('',#393,0.00055);
#34=CIRCLE('',#395,0.00055);
#35=CIRCLE('',#396,0.00055);
#36=CYLINDRICAL_SURFACE('',#360,0.00055);
#37=CYLINDRICAL_SURFACE('',#363,0.00055);
#38=CYLINDRICAL_SURFACE('',#366,0.00055);
#39=CYLINDRICAL_SURFACE('',#369,0.00055);
#40=CYLINDRICAL_SURFACE('',#373,0.00055);
#41=CYLINDRICAL_SURFACE('',#376,0.00055);
#42=CYLINDRICAL_SURFACE('',#379,0.00055);
#43=CYLINDRICAL_SURFACE('',#382,0.00055);
#44=CYLINDRICAL_SURFACE('',#385,0.00055);
#45=CYLINDRICAL_SURFACE('',#388,0.00055);
#46=CYLINDRICAL_SURFACE('',#391,0.00055);
#47=CYLINDRICAL_SURFACE('',#394,0.00055);
#48=ORIENTED_EDGE('',*,*,#120,.F.);
#49=ORIENTED_EDGE('',*,*,#121,.F.);
#50=ORIENTED_EDGE('',*,*,#122,.T.);
#51=ORIENTED_EDGE('',*,*,#123,.T.);
#52=ORIENTED_EDGE('',*,*,#124,.T.);
#53=ORIENTED_EDGE('',*,*,#125,.F.);
#54=ORIENTED_EDGE('',*,*,#126,.F.);
#55=ORIENTED_EDGE('',*,*,#121,.T.);
#56=ORIENTED_EDGE('',*,*,#127,.T.);
#57=ORIENTED_EDGE('',*,*,#128,.F.);
#58=ORIENTED_EDGE('',*,*,#129,.F.);
#59=ORIENTED_EDGE('',*,*,#125,.T.);
#60=ORIENTED_EDGE('',*,*,#130,.T.);
#61=ORIENTED_EDGE('',*,*,#131,.F.);
#62=ORIENTED_EDGE('',*,*,#132,.T.);
#63=ORIENTED_EDGE('',*,*,#133,.F.);
#64=ORIENTED_EDGE('',*,*,#134,.T.);
#65=ORIENTED_EDGE('',*,*,#135,.F.);
#66=ORIENTED_EDGE('',*,*,#136,.T.);
#67=ORIENTED_EDGE('',*,*,#137,.F.);
#68=ORIENTED_EDGE('',*,*,#138,.F.);
#69=ORIENTED_EDGE('',*,*,#123,.F.);
#70=ORIENTED_EDGE('',*,*,#139,.T.);
#71=ORIENTED_EDGE('',*,*,#128,.T.);
#72=ORIENTED_EDGE('',*,*,#140,.T.);
#73=ORIENTED_EDGE('',*,*,#141,.F.);
#74=ORIENTED_EDGE('',*,*,#142,.T.);
#75=ORIENTED_EDGE('',*,*,#143,.F.);
#76=ORIENTED_EDGE('',*,*,#144,.T.);
#77=ORIENTED_EDGE('',*,*,#145,.F.);
#78=ORIENTED_EDGE('',*,*,#146,.T.);
#79=ORIENTED_EDGE('',*,*,#147,.F.);
#80=ORIENTED_EDGE('',*,*,#148,.T.);
#81=ORIENTED_EDGE('',*,*,#149,.F.);
#82=ORIENTED_EDGE('',*,*,#150,.T.);
#83=ORIENTED_EDGE('',*,*,#151,.F.);
#84=ORIENTED_EDGE('',*,*,#152,.T.);
#85=ORIENTED_EDGE('',*,*,#153,.F.);
#86=ORIENTED_EDGE('',*,*,#154,.T.);
#87=ORIENTED_EDGE('',*,*,#155,.F.);
#88=ORIENTED_EDGE('',*,*,#152,.F.);
#89=ORIENTED_EDGE('',*,*,#150,.F.);
#90=ORIENTED_EDGE('',*,*,#148,.F.);
#91=ORIENTED_EDGE('',*,*,#146,.F.);
#92=ORIENTED_EDGE('',*,*,#144,.F.);
#93=ORIENTED_EDGE('',*,*,#142,.F.);
#94=ORIENTED_EDGE('',*,*,#140,.F.);
#95=ORIENTED_EDGE('',*,*,#122,.F.);
#96=ORIENTED_EDGE('',*,*,#126,.T.);
#97=ORIENTED_EDGE('',*,*,#129,.T.);
#98=ORIENTED_EDGE('',*,*,#139,.F.);
#99=ORIENTED_EDGE('',*,*,#136,.F.);
#100=ORIENTED_EDGE('',*,*,#134,.F.);
#101=ORIENTED_EDGE('',*,*,#132,.F.);
#102=ORIENTED_EDGE('',*,*,#130,.F.);
#103=ORIENTED_EDGE('',*,*,#154,.F.);
#104=ORIENTED_EDGE('',*,*,#153,.T.);
#105=ORIENTED_EDGE('',*,*,#151,.T.);
#106=ORIENTED_EDGE('',*,*,#149,.T.);
#107=ORIENTED_EDGE('',*,*,#147,.T.);
#108=ORIENTED_EDGE('',*,*,#145,.T.);
#109=ORIENTED_EDGE('',*,*,#143,.T.);
#110=ORIENTED_EDGE('',*,*,#141,.T.);
#111=ORIENTED_EDGE('',*,*,#120,.T.);
#112=ORIENTED_EDGE('',*,*,#138,.T.);
#113=ORIENTED_EDGE('',*,*,#127,.F.);
#114=ORIENTED_EDGE('',*,*,#124,.F.);
#115=ORIENTED_EDGE('',*,*,#137,.T.);
#116=ORIENTED_EDGE('',*,*,#135,.T.);
#117=ORIENTED_EDGE('',*,*,#133,.T.);
#118=ORIENTED_EDGE('',*,*,#131,.T.);
#119=ORIENTED_EDGE('',*,*,#155,.T.);
#120=EDGE_CURVE('',#156,#157,#188,.T.);
#121=EDGE_CURVE('',#158,#156,#189,.T.);
#122=EDGE_CURVE('',#158,#159,#190,.T.);
#123=EDGE_CURVE('',#159,#157,#191,.T.);
#124=EDGE_CURVE('',#156,#160,#192,.T.);
#125=EDGE_CURVE('',#161,#160,#193,.T.);
#126=EDGE_CURVE('',#158,#161,#194,.T.);
#127=EDGE_CURVE('',#160,#162,#195,.T.);
#128=EDGE_CURVE('',#163,#162,#196,.T.);
#129=EDGE_CURVE('',#161,#163,#197,.T.);
#130=EDGE_CURVE('',#164,#164,#12,.T.);
#131=EDGE_CURVE('',#165,#165,#13,.T.);
#132=EDGE_CURVE('',#166,#166,#14,.T.);
#133=EDGE_CURVE('',#167,#167,#15,.T.);
#134=EDGE_CURVE('',#168,#168,#16,.T.);
#135=EDGE_CURVE('',#169,#169,#17,.T.);
#136=EDGE_CURVE('',#170,#170,#18,.T.);
#137=EDGE_CURVE('',#171,#171,#19,.T.);
#138=EDGE_CURVE('',#157,#162,#198,.T.);
#139=EDGE_CURVE('',#159,#163,#199,.T.);
#140=EDGE_CURVE('',#172,#172,#20,.T.);
#141=EDGE_CURVE('',#173,#173,#21,.T.);
#142=EDGE_CURVE('',#174,#174,#22,.T.);
#143=EDGE_CURVE('',#175,#175,#23,.T.);
#144=EDGE_CURVE('',#176,#176,#24,.T.);
#145=EDGE_CURVE('',#177,#177,#25,.T.);
#146=EDGE_CURVE('',#178,#178,#26,.T.);
#147=EDGE_CURVE('',#179,#179,#27,.T.);
#148=EDGE_CURVE('',#180,#180,#28,.T.);
#149=EDGE_CURVE('',#181,#181,#29,.T.);
#150=EDGE_CURVE('',#182,#182,#30,.T.);
#151=EDGE_CURVE('',#183,#183,#31,.T.);
#152=EDGE_CURVE('',#184,#184,#32,.T.);
#153=EDGE_CURVE('',#185,#185,#33,.T.);
#154=EDGE_CURVE('',#186,#186,#34,.T.);
#155=EDGE_CURVE('',#187,#187,#35,.T.);
#156=VERTEX_POINT('',#500);
#157=VERTEX_POINT('',#501);
#158=VERTEX_POINT('',#503);
#159=VERTEX_POINT('',#505);
#160=VERTEX_POINT('',#509);
#161=VERTEX_POINT('',#511);
#162=VERTEX_POINT('',#515);
#163=VERTEX_POINT('',#517);
#164=VERTEX_POINT('',#521);
#165=VERTEX_POINT('',#523);
#166=VERTEX_POINT('',#526);
#167=VERTEX_POINT('',#528);
#168=VERTEX_POINT('',#531);
#169=VERTEX_POINT('',#533);
#170=VERTEX_POINT('',#536);
#171=VERTEX_POINT('',#538);
#172=VERTEX_POINT('',#544);
#173=VERTEX_POINT('',#546);
#174=VERTEX_POINT('',#549);
#175=VERTEX_POINT('',#551);
#176=VERTEX_POINT('',#554);
#177=VERTEX_POINT('',#556);
#178=VERTEX_POINT('',#559);
#179=VERTEX_POINT('',#561);
#180=VERTEX_POINT('',#564);
#181=VERTEX_POINT('',#566);
#182=VERTEX_POINT('',#569);
#183=VERTEX_POINT('',#571);
#184=VERTEX_POINT('',#574);
#185=VERTEX_POINT('',#576);
#186=VERTEX_POINT('',#579);
#187=VERTEX_POINT('',#581);
#188=LINE('',#499,#200);
#189=LINE('',#502,#201);
#190=LINE('',#504,#202);
#191=LINE('',#506,#203);
#192=LINE('',#508,#204);
#193=LINE('',#510,#205);
#194=LINE('',#512,#206);
#195=LINE('',#514,#207);
#196=LINE('',#516,#208);
#197=LINE('',#518,#209);
#198=LINE('',#540,#210);
#199=LINE('',#541,#211);
#200=VECTOR('',#403,1.);
#201=VECTOR('',#404,1.);
#202=VECTOR('',#405,1.);
#203=VECTOR('',#406,1.);
#204=VECTOR('',#409,1.);
#205=VECTOR('',#410,1.);
#206=VECTOR('',#411,1.);
#207=VECTOR('',#414,1.);
#208=VECTOR('',#415,1.);
#209=VECTOR('',#416,1.);
#210=VECTOR('',#443,1.);
#211=VECTOR('',#444,1.);
#212=EDGE_LOOP('',(#48,#49,#50,#51));
#213=EDGE_LOOP('',(#52,#53,#54,#55));
#214=EDGE_LOOP('',(#56,#57,#58,#59));
#215=EDGE_LOOP('',(#60));
#216=EDGE_LOOP('',(#61));
#217=EDGE_LOOP('',(#62));
#218=EDGE_LOOP('',(#63));
#219=EDGE_LOOP('',(#64));
#220=EDGE_LOOP('',(#65));
#221=EDGE_LOOP('',(#66));
#222=EDGE_LOOP('',(#67));
#223=EDGE_LOOP('',(#68,#69,#70,#71));
#224=EDGE_LOOP('',(#72));
#225=EDGE_LOOP('',(#73));
#226=EDGE_LOOP('',(#74));
#227=EDGE_LOOP('',(#75));
#228=EDGE_LOOP('',(#76));
#229=EDGE_LOOP('',(#77));
#230=EDGE_LOOP('',(#78));
#231=EDGE_LOOP('',(#79));
#232=EDGE_LOOP('',(#80));
#233=EDGE_LOOP('',(#81));
#234=EDGE_LOOP('',(#82));
#235=EDGE_LOOP('',(#83));
#236=EDGE_LOOP('',(#84));
#237=EDGE_LOOP('',(#85));
#238=EDGE_LOOP('',(#86));
#239=EDGE_LOOP('',(#87));
#240=EDGE_LOOP('',(#88));
#241=EDGE_LOOP('',(#89));
#242=EDGE_LOOP('',(#90));
#243=EDGE_LOOP('',(#91));
#244=EDGE_LOOP('',(#92));
#245=EDGE_LOOP('',(#93));
#246=EDGE_LOOP('',(#94));
#247=EDGE_LOOP('',(#95,#96,#97,#98));
#248=EDGE_LOOP('',(#99));
#249=EDGE_LOOP('',(#100));
#250=EDGE_LOOP('',(#101));
#251=EDGE_LOOP('',(#102));
#252=EDGE_LOOP('',(#103));
#253=EDGE_LOOP('',(#104));
#254=EDGE_LOOP('',(#105));
#255=EDGE_LOOP('',(#106));
#256=EDGE_LOOP('',(#107));
#257=EDGE_LOOP('',(#108));
#258=EDGE_LOOP('',(#109));
#259=EDGE_LOOP('',(#110));
#260=EDGE_LOOP('',(#111,#112,#113,#114));
#261=EDGE_LOOP('',(#115));
#262=EDGE_LOOP('',(#116));
#263=EDGE_LOOP('',(#117));
#264=EDGE_LOOP('',(#118));
#265=EDGE_LOOP('',(#119));
#266=FACE_BOUND('',#212,.T.);
#267=FACE_BOUND('',#213,.T.);
#268=FACE_BOUND('',#214,.T.);
#269=FACE_BOUND('',#215,.T.);
#270=FACE_BOUND('',#216,.T.);
#271=FACE_BOUND('',#217,.T.);
#272=FACE_BOUND('',#218,.T.);
#273=FACE_BOUND('',#219,.T.);
#274=FACE_BOUND('',#220,.T.);
#275=FACE_BOUND('',#221,.T.);
#276=FACE_BOUND('',#222,.T.);
#277=FACE_BOUND('',#223,.T.);
#278=FACE_BOUND('',#224,.T.);
#279=FACE_BOUND('',#225,.T.);
#280=FACE_BOUND('',#226,.T.);
#281=FACE_BOUND('',#227,.T.);
#282=FACE_BOUND('',#228,.T.);
#283=FACE_BOUND('',#229,.T.);
#284=FACE_BOUND('',#230,.T.);
#285=FACE_BOUND('',#231,.T.);
#286=FACE_BOUND('',#232,.T.);
#287=FACE_BOUND('',#233,.T.);
#288=FACE_BOUND('',#234,.T.);
#289=FACE_BOUND('',#235,.T.);
#290=FACE_BOUND('',#236,.T.);
#291=FACE_BOUND('',#237,.T.);
#292=FACE_BOUND('',#238,.T.);
#293=FACE_BOUND('',#239,.T.);
#294=FACE_BOUND('',#240,.T.);
#295=FACE_BOUND('',#241,.T.);
#296=FACE_BOUND('',#242,.T.);
#297=FACE_BOUND('',#243,.T.);
#298=FACE_BOUND('',#244,.T.);
#299=FACE_BOUND('',#245,.T.);
#300=FACE_BOUND('',#246,.T.);
#301=FACE_BOUND('',#247,.T.);
#302=FACE_BOUND('',#248,.T.);
#303=FACE_BOUND('',#249,.T.);
#304=FACE_BOUND('',#250,.T.);
#305=FACE_BOUND('',#251,.T.);
#306=FACE_BOUND('',#252,.T.);
#307=FACE_BOUND('',#253,.T.);
#308=FACE_BOUND('',#254,.T.);
#309=FACE_BOUND('',#255,.T.);
#310=FACE_BOUND('',#256,.T.);
#311=FACE_BOUND('',#257,.T.);
#312=FACE_BOUND('',#258,.T.);
#313=FACE_BOUND('',#259,.T.);
#314=FACE_BOUND('',#260,.T.);
#315=FACE_BOUND('',#261,.T.);
#316=FACE_BOUND('',#262,.T.);
#317=FACE_BOUND('',#263,.T.);
#318=FACE_BOUND('',#264,.T.);
#319=FACE_BOUND('',#265,.T.);
#320=PLANE('',#357);
#321=PLANE('',#358);
#322=PLANE('',#359);
#323=PLANE('',#372);
#324=PLANE('',#397);
#325=PLANE('',#398);
#326=ADVANCED_FACE('',(#266),#320,.T.);
#327=ADVANCED_FACE('',(#267),#321,.F.);
#328=ADVANCED_FACE('',(#268),#322,.F.);
#329=ADVANCED_FACE('',(#269,#270),#36,.F.);
#330=ADVANCED_FACE('',(#271,#272),#37,.F.);
#331=ADVANCED_FACE('',(#273,#274),#38,.F.);
#332=ADVANCED_FACE('',(#275,#276),#39,.F.);
#333=ADVANCED_FACE('',(#277),#323,.T.);
#334=ADVANCED_FACE('',(#278,#279),#40,.F.);
#335=ADVANCED_FACE('',(#280,#281),#41,.F.);
#336=ADVANCED_FACE('',(#282,#283),#42,.F.);
#337=ADVANCED_FACE('',(#284,#285),#43,.F.);
#338=ADVANCED_FACE('',(#286,#287),#44,.F.);
#339=ADVANCED_FACE('',(#288,#289),#45,.F.);
#340=ADVANCED_FACE('',(#290,#291),#46,.F.);
#341=ADVANCED_FACE('',(#292,#293),#47,.F.);
#342=ADVANCED_FACE('',(#294,#295,#296,#297,#298,#299,#300,#301,#302,#303,
#304,#305,#306),#324,.T.);
#343=ADVANCED_FACE('',(#307,#308,#309,#310,#311,#312,#313,#314,#315,#316,
#317,#318,#319),#325,.F.);
#344=CLOSED_SHELL('',(#326,#327,#328,#329,#330,#331,#332,#333,#334,#335,
#336,#337,#338,#339,#340,#341,#342,#343));
#345=STYLED_ITEM('',(#346),#353);
#346=PRESENTATION_STYLE_ASSIGNMENT((#347));
#347=SURFACE_STYLE_USAGE(.BOTH.,#348);
#348=SURFACE_SIDE_STYLE('',(#349));
#349=SURFACE_STYLE_FILL_AREA(#350);
#350=FILL_AREA_STYLE('',(#351));
#351=FILL_AREA_STYLE_COLOUR('',#352);
#352=COLOUR_RGB('',0.615686274509804,0.811764705882353,0.929411764705882);
#353=MANIFOLD_SOLID_BREP('LSM6DS3',#344);
#354=SHAPE_DEFINITION_REPRESENTATION(#590,#355);
#355=SHAPE_REPRESENTATION('LSM6DS3',(#356),#585);
#356=AXIS2_PLACEMENT_3D('',#497,#399,#400);
#357=AXIS2_PLACEMENT_3D('',#498,#401,#402);
#358=AXIS2_PLACEMENT_3D('',#507,#407,#408);
#359=AXIS2_PLACEMENT_3D('',#513,#412,#413);
#360=AXIS2_PLACEMENT_3D('',#519,#417,#418);
#361=AXIS2_PLACEMENT_3D('',#520,#419,#420);
#362=AXIS2_PLACEMENT_3D('',#522,#421,#422);
#363=AXIS2_PLACEMENT_3D('',#524,#423,#424);
#364=AXIS2_PLACEMENT_3D('',#525,#425,#426);
#365=AXIS2_PLACEMENT_3D('',#527,#427,#428);
#366=AXIS2_PLACEMENT_3D('',#529,#429,#430);
#367=AXIS2_PLACEMENT_3D('',#530,#431,#432);
#368=AXIS2_PLACEMENT_3D('',#532,#433,#434);
#369=AXIS2_PLACEMENT_3D('',#534,#435,#436);
#370=AXIS2_PLACEMENT_3D('',#535,#437,#438);
#371=AXIS2_PLACEMENT_3D('',#537,#439,#440);
#372=AXIS2_PLACEMENT_3D('',#539,#441,#442);
#373=AXIS2_PLACEMENT_3D('',#542,#445,#446);
#374=AXIS2_PLACEMENT_3D('',#543,#447,#448);
#375=AXIS2_PLACEMENT_3D('',#545,#449,#450);
#376=AXIS2_PLACEMENT_3D('',#547,#451,#452);
#377=AXIS2_PLACEMENT_3D('',#548,#453,#454);
#378=AXIS2_PLACEMENT_3D('',#550,#455,#456);
#379=AXIS2_PLACEMENT_3D('',#552,#457,#458);
#380=AXIS2_PLACEMENT_3D('',#553,#459,#460);
#381=AXIS2_PLACEMENT_3D('',#555,#461,#462);
#382=AXIS2_PLACEMENT_3D('',#557,#463,#464);
#383=AXIS2_PLACEMENT_3D('',#558,#465,#466);
#384=AXIS2_PLACEMENT_3D('',#560,#467,#468);
#385=AXIS2_PLACEMENT_3D('',#562,#469,#470);
#386=AXIS2_PLACEMENT_3D('',#563,#471,#472);
#387=AXIS2_PLACEMENT_3D('',#565,#473,#474);
#388=AXIS2_PLACEMENT_3D('',#567,#475,#476);
#389=AXIS2_PLACEMENT_3D('',#568,#477,#478);
#390=AXIS2_PLACEMENT_3D('',#570,#479,#480);
#391=AXIS2_PLACEMENT_3D('',#572,#481,#482);
#392=AXIS2_PLACEMENT_3D('',#573,#483,#484);
#393=AXIS2_PLACEMENT_3D('',#575,#485,#486);
#394=AXIS2_PLACEMENT_3D('',#577,#487,#488);
#395=AXIS2_PLACEMENT_3D('',#578,#489,#490);
#396=AXIS2_PLACEMENT_3D('',#580,#491,#492);
#397=AXIS2_PLACEMENT_3D('',#582,#493,#494);
#398=AXIS2_PLACEMENT_3D('',#583,#495,#496);
#399=DIRECTION('',(0.,0.,1.));
#400=DIRECTION('',(1.,0.,0.));
#401=DIRECTION('',(1.,0.,0.));
#402=DIRECTION('',(0.,0.,-1.));
#403=DIRECTION('',(0.,0.,1.));
#404=DIRECTION('',(0.,-1.,0.));
#405=DIRECTION('',(0.,0.,1.));
#406=DIRECTION('',(0.,-1.,0.));
#407=DIRECTION('',(0.,0.,1.));
#408=DIRECTION('',(1.,0.,0.));
#409=DIRECTION('',(-1.,0.,0.));
#410=DIRECTION('',(0.,-1.,0.));
#411=DIRECTION('',(-1.,0.,0.));
#412=DIRECTION('',(1.,0.,0.));
#413=DIRECTION('',(0.,0.,-1.));
#414=DIRECTION('',(0.,0.,1.));
#415=DIRECTION('',(0.,-1.,0.));
#416=DIRECTION('',(0.,0.,1.));
#417=DIRECTION('',(0.,-1.,0.));
#418=DIRECTION('',(0.,0.,-1.));
#419=DIRECTION('',(0.,1.,0.));
#420=DIRECTION('',(0.,0.,1.));
#421=DIRECTION('',(0.,1.,0.));
#422=DIRECTION('',(0.,0.,1.));
#423=DIRECTION('',(0.,-1.,0.));
#424=DIRECTION('',(0.,0.,-1.));
#425=DIRECTION('',(0.,1.,0.));
#426=DIRECTION('',(0.,0.,1.));
#427=DIRECTION('',(0.,1.,0.));
#428=DIRECTION('',(0.,0.,1.));
#429=DIRECTION('',(0.,-1.,0.));
#430=DIRECTION('',(0.,0.,-1.));
#431=DIRECTION('',(0.,1.,0.));
#432=DIRECTION('',(0.,0.,1.));
#433=DIRECTION('',(0.,1.,0.));
#434=DIRECTION('',(0.,0.,1.));
#435=DIRECTION('',(0.,-1.,0.));
#436=DIRECTION('',(0.,0.,-1.));
#437=DIRECTION('',(0.,1.,0.));
#438=DIRECTION('',(0.,0.,1.));
#439=DIRECTION('',(0.,1.,0.));
#440=DIRECTION('',(0.,0.,1.));
#441=DIRECTION('',(0.,0.,1.));
#442=DIRECTION('',(1.,0.,0.));
#443=DIRECTION('',(-1.,0.,0.));
#444=DIRECTION('',(-1.,0.,0.));
#445=DIRECTION('',(0.,-1.,0.));
#446=DIRECTION('',(0.,0.,-1.));
#447=DIRECTION('',(0.,1.,0.));
#448=DIRECTION('',(0.,0.,1.));
#449=DIRECTION('',(0.,1.,0.));
#450=DIRECTION('',(0.,0.,1.));
#451=DIRECTION('',(0.,-1.,0.));
#452=DIRECTION('',(0.,0.,-1.));
#453=DIRECTION('',(0.,1.,0.));
#454=DIRECTION('',(0.,0.,1.));
#455=DIRECTION('',(0.,1.,0.));
#456=DIRECTION('',(0.,0.,1.));
#457=DIRECTION('',(0.,-1.,0.));
#458=DIRECTION('',(0.,0.,-1.));
#459=DIRECTION('',(0.,1.,0.));
#460=DIRECTION('',(0.,0.,1.));
#461=DIRECTION('',(0.,1.,0.));
#462=DIRECTION('',(0.,0.,1.));
#463=DIRECTION('',(0.,-1.,0.));
#464=DIRECTION('',(0.,0.,-1.));
#465=DIRECTION('',(0.,1.,0.));
#466=DIRECTION('',(0.,0.,1.));
#467=DIRECTION('',(0.,1.,0.));
#468=DIRECTION('',(0.,0.,1.));
#469=DIRECTION('',(0.,-1.,0.));
#470=DIRECTION('',(0.,0.,-1.));
#471=DIRECTION('',(0.,1.,0.));
#472=DIRECTION('',(0.,0.,1.));
#473=DIRECTION('',(0.,1.,0.));
#474=DIRECTION('',(0.,0.,1.));
#475=DIRECTION('',(0.,-1.,0.));
#476=DIRECTION('',(0.,0.,-1.));
#477=DIRECTION('',(0.,1.,0.));
#478=DIRECTION('',(0.,0.,1.));
#479=DIRECTION('',(0.,1.,0.));
#480=DIRECTION('',(0.,0.,1.));
#481=DIRECTION('',(0.,-1.,0.));
#482=DIRECTION('',(0.,0.,-1.));
#483=DIRECTION('',(0.,1.,0.));
#484=DIRECTION('',(0.,0.,1.));
#485=DIRECTION('',(0.,1.,0.));
#486=DIRECTION('',(0.,0.,1.));
#487=DIRECTION('',(0.,-1.,0.));
#488=DIRECTION('',(0.,0.,-1.));
#489=DIRECTION('',(0.,1.,0.));
#490=DIRECTION('',(0.,0.,1.));
#491=DIRECTION('',(0.,1.,0.));
#492=DIRECTION('',(0.,0.,1.));
#493=DIRECTION('',(0.,1.,0.));
#494=DIRECTION('',(-1.,0.,0.));
#495=DIRECTION('',(0.,1.,0.));
#496=DIRECTION('',(-1.,0.,0.));
#497=CARTESIAN_POINT('',(0.,0.,0.));
#498=CARTESIAN_POINT('',(0.0092,0.0032,0.0108));
#499=CARTESIAN_POINT('',(0.0092,0.0016,0.0108));
#500=CARTESIAN_POINT('',(0.0092,0.0016,0.0043));
#501=CARTESIAN_POINT('',(0.0092,0.0016,0.0173));
#502=CARTESIAN_POINT('',(0.0092,0.0032,0.0043));
#503=CARTESIAN_POINT('',(0.0092,0.0032,0.0043));
#504=CARTESIAN_POINT('',(0.0092,0.0032,0.0108));
#505=CARTESIAN_POINT('',(0.0092,0.0032,0.0173));
#506=CARTESIAN_POINT('',(0.0092,0.0032,0.0173));
#507=CARTESIAN_POINT('',(-1.7347234759768E-18,0.0032,0.0043));
#508=CARTESIAN_POINT('',(-1.7347234759768E-18,0.0016,0.0043));
#509=CARTESIAN_POINT('',(-0.0092,0.0016,0.0043));
#510=CARTESIAN_POINT('',(-0.0092,0.0032,0.0043));
#511=CARTESIAN_POINT('',(-0.0092,0.0032,0.0043));
#512=CARTESIAN_POINT('',(-1.7347234759768E-18,0.0032,0.0043));
#513=CARTESIAN_POINT('',(-0.0092,0.0032,0.0108));
#514=CARTESIAN_POINT('',(-0.0092,0.0016,0.0108));
#515=CARTESIAN_POINT('',(-0.0092,0.0016,0.0173));
#516=CARTESIAN_POINT('',(-0.0092,0.0032,0.0173));
#517=CARTESIAN_POINT('',(-0.0092,0.0032,0.0173));
#518=CARTESIAN_POINT('',(-0.0092,0.0032,0.0108));
#519=CARTESIAN_POINT('',(0.00254,0.0032,0.01588));
#520=CARTESIAN_POINT('',(0.00254,0.0032,0.01588));
#521=CARTESIAN_POINT('',(0.00254,0.0032,0.01643));
#522=CARTESIAN_POINT('',(0.00254,0.0016,0.01588));
#523=CARTESIAN_POINT('',(0.00254,0.0016,0.01643));
#524=CARTESIAN_POINT('',(-0.00508,0.0032,0.01588));
#525=CARTESIAN_POINT('',(-0.00508,0.0032,0.01588));
#526=CARTESIAN_POINT('',(-0.00508,0.0032,0.01643));
#527=CARTESIAN_POINT('',(-0.00508,0.0016,0.01588));
#528=CARTESIAN_POINT('',(-0.00508,0.0016,0.01643));
#529=CARTESIAN_POINT('',(-0.00254,0.0032,0.01588));
#530=CARTESIAN_POINT('',(-0.00254,0.0032,0.01588));
#531=CARTESIAN_POINT('',(-0.00254,0.0032,0.01643));
#532=CARTESIAN_POINT('',(-0.00254,0.0016,0.01588));
#533=CARTESIAN_POINT('',(-0.00254,0.0016,0.01643));
#534=CARTESIAN_POINT('',(-5.51703383015883E-19,0.0032,0.01588));
#535=CARTESIAN_POINT('',(-5.51703383015883E-19,0.0032,0.01588));
#536=CARTESIAN_POINT('',(-5.51703383015883E-19,0.0032,0.01643));
#537=CARTESIAN_POINT('',(-5.51703383015883E-19,0.0016,0.01588));
#538=CARTESIAN_POINT('',(-5.51703383015883E-19,0.0016,0.01643));
#539=CARTESIAN_POINT('',(-1.7347234759768E-18,0.0032,0.0173));
#540=CARTESIAN_POINT('',(-1.7347234759768E-18,0.0016,0.0173));
#541=CARTESIAN_POINT('',(-1.7347234759768E-18,0.0032,0.0173));
#542=CARTESIAN_POINT('',(-5.34702467408039E-19,0.0032,0.00572));
#543=CARTESIAN_POINT('',(-5.34702467408039E-19,0.0032,0.00572));
#544=CARTESIAN_POINT('',(-5.34702467408039E-19,0.0032,0.00627));
#545=CARTESIAN_POINT('',(-5.34702467408039E-19,0.0016,0.00572));
#546=CARTESIAN_POINT('',(-5.34702467408039E-19,0.0016,0.00627));
#547=CARTESIAN_POINT('',(-0.00254,0.0032,0.00572));
#548=CARTESIAN_POINT('',(-0.00254,0.0032,0.00572));
#549=CARTESIAN_POINT('',(-0.00254,0.0032,0.00627));
#550=CARTESIAN_POINT('',(-0.00254,0.0016,0.00572));
#551=CARTESIAN_POINT('',(-0.00254,0.0016,0.00627));
#552=CARTESIAN_POINT('',(-0.00508,0.0032,0.00572));
#553=CARTESIAN_POINT('',(-0.00508,0.0032,0.00572));
#554=CARTESIAN_POINT('',(-0.00508,0.0032,0.00627));
#555=CARTESIAN_POINT('',(-0.00508,0.0016,0.00572));
#556=CARTESIAN_POINT('',(-0.00508,0.0016,0.00627));
#557=CARTESIAN_POINT('',(-0.00762,0.0032,0.00572));
#558=CARTESIAN_POINT('',(-0.00762,0.0032,0.00572));
#559=CARTESIAN_POINT('',(-0.00762,0.0032,0.00627));
#560=CARTESIAN_POINT('',(-0.00762,0.0016,0.00572));
#561=CARTESIAN_POINT('',(-0.00762,0.0016,0.00627));
#562=CARTESIAN_POINT('',(0.00254,0.0032,0.00572));
#563=CARTESIAN_POINT('',(0.00254,0.0032,0.00572));
#564=CARTESIAN_POINT('',(0.00254,0.0032,0.00627));
#565=CARTESIAN_POINT('',(0.00254,0.0016,0.00572));
#566=CARTESIAN_POINT('',(0.00254,0.0016,0.00627));
#567=CARTESIAN_POINT('',(0.00508,0.0032,0.00572));
#568=CARTESIAN_POINT('',(0.00508,0.0032,0.00572));
#569=CARTESIAN_POINT('',(0.00508,0.0032,0.00627));
#570=CARTESIAN_POINT('',(0.00508,0.0016,0.00572));
#571=CARTESIAN_POINT('',(0.00508,0.0016,0.00627));
#572=CARTESIAN_POINT('',(0.00762,0.0032,0.00572));
#573=CARTESIAN_POINT('',(0.00762,0.0032,0.00572));
#574=CARTESIAN_POINT('',(0.00762,0.0032,0.00627));
#575=CARTESIAN_POINT('',(0.00762,0.0016,0.00572));
#576=CARTESIAN_POINT('',(0.00762,0.0016,0.00627));
#577=CARTESIAN_POINT('',(0.00508,0.0032,0.01588));
#578=CARTESIAN_POINT('',(0.00508,0.0032,0.01588));
#579=CARTESIAN_POINT('',(0.00508,0.0032,0.01643));
#580=CARTESIAN_POINT('',(0.00508,0.0016,0.01588));
#581=CARTESIAN_POINT('',(0.00508,0.0016,0.01643));
#582=CARTESIAN_POINT('',(-6.93889390390723E-18,0.0032,0.01325));
#583=CARTESIAN_POINT('',(-6.93889390390723E-18,0.0016,0.01325));
#584=MECHANICAL_DESIGN_GEOMETRIC_PRESENTATION_REPRESENTATION('',(#345),
#585);
#585=(
GEOMETRIC_REPRESENTATION_CONTEXT(3)
GLOBAL_UNCERTAINTY_ASSIGNED_CONTEXT((#586))
GLOBAL_UNIT_ASSIGNED_CONTEXT((#589,#588,#587))
REPRESENTATION_CONTEXT('LSM6DS3','TOP_LEVEL_ASSEMBLY_PART')
);
#586=UNCERTAINTY_MEASURE_WITH_UNIT(LENGTH_MEASURE(1.E-8),#589,
'DISTANCE_ACCURACY_VALUE','Maximum Tolerance applied to model');
#587=(
NAMED_UNIT(*)
SI_UNIT($,.STERADIAN.)
SOLID_ANGLE_UNIT()
);
#588=(
NAMED_UNIT(*)
PLANE_ANGLE_UNIT()
SI_UNIT($,.RADIAN.)
);
#589=(
LENGTH_UNIT()
NAMED_UNIT(*)
SI_UNIT($,.METRE.)
);
#590=PRODUCT_DEFINITION_SHAPE('','',#591);
#591=PRODUCT_DEFINITION('','',#593,#592);
#592=PRODUCT_DEFINITION_CONTEXT('',#599,'design');
#593=PRODUCT_DEFINITION_FORMATION_WITH_SPECIFIED_SOURCE('','',#595,
 .NOT_KNOWN.);
#594=PRODUCT_RELATED_PRODUCT_CATEGORY('','',(#595));
#595=PRODUCT('LSM6DS3','LSM6DS3','LSM6DS3',(#597));
#596=PRODUCT_CATEGORY('','');
#597=PRODUCT_CONTEXT('',#599,'mechanical');
#598=APPLICATION_PROTOCOL_DEFINITION('international standard',
'ap242_managed_model_based_3d_engineering',2020,#599);
#599=APPLICATION_CONTEXT('managed model based 3d engineering');
ENDSEC;
END-ISO-10303-21;
