ISO-10303-21;
HEADER;
/* Generated by software containing ST-Developer
 * from STEP Tools, Inc. (www.steptools.com) 
 */
/* OPTION: using custom renumber hook */

FILE_DESCRIPTION(
/* description */ ('STEP AP242 Edition 2',
'CAx-IF Rec.Pracs.---Representation and Presentation of Product Manufa
cturing Information (PMI)---4.0---2014-10-13',
'CAx-IF Rec.Pracs.---3D Tessellated Geometry---0.4---2014-09-14','2;1',
'CAx-IF Rec.Pracs.---User Defined Attributes---1.5---2016-08-15'),
/* implementation_level */ '2;1');

FILE_NAME(
/* name */ 'ST3250 - LX-16A',
/* time_stamp */ '2026-06-22T13:15:22Z',
/* author */ (''),
/* organization */ (''),
/* preprocessor_version */ 'ST-DEVELOPER v20',
/* originating_system */ 'ONSHAPE BY PTC INC, 1.216',
/* authorisation */ '  ');

FILE_SCHEMA (('AP242_MANAGED_MODEL_BASED_3D_ENGINEERING_MIM_LF { 1 0 10303 442 3 1 4 }'));
ENDSEC;

DATA;
#10=SHAPE_REPRESENTATION_RELATIONSHIP('','',#1077,#11);
#11=ADVANCED_BREP_SHAPE_REPRESENTATION('',(#1075),#1804);
#12=VERTEX_LOOP('',#788);
#13=CONICAL_SURFACE('',#1155,0.012,0.785398163397446);
#14=CONICAL_SURFACE('',#1158,0.012,0.785398163397449);
#15=CONICAL_SURFACE('',#1160,0.011,0.785398163397449);
#16=CONICAL_SURFACE('',#1161,0.011,0.785398163397449);
#17=CONICAL_SURFACE('',#1163,0.011,0.785398163397449);
#18=CONICAL_SURFACE('',#1173,0.00125,1.02974425867665);
#19=B_SPLINE_CURVE_WITH_KNOTS('',3,(#1676,#1677,#1678,#1679),
 .UNSPECIFIED.,.F.,.F.,(4,4),(0.,0.00161833848187999),.UNSPECIFIED.);
#20=B_SPLINE_CURVE_WITH_KNOTS('',3,(#1680,#1681,#1682,#1683),
 .UNSPECIFIED.,.F.,.F.,(4,4),(0.,0.00161833848187999),.UNSPECIFIED.);
#21=B_SPLINE_CURVE_WITH_KNOTS('',3,(#1685,#1686,#1687,#1688),
 .UNSPECIFIED.,.F.,.F.,(4,4),(0.,0.00161833848188007),.UNSPECIFIED.);
#22=B_SPLINE_CURVE_WITH_KNOTS('',3,(#1689,#1690,#1691,#1692),
 .UNSPECIFIED.,.F.,.F.,(4,4),(4.02325206901369E-17,0.00161833848188003),
 .UNSPECIFIED.);
#23=B_SPLINE_CURVE_WITH_KNOTS('',3,(#1753,#1754,#1755,#1756),
 .UNSPECIFIED.,.F.,.F.,(4,4),(1.07566844306291E-16,0.00149446038926639),
 .UNSPECIFIED.);
#24=B_SPLINE_CURVE_WITH_KNOTS('',3,(#1758,#1759,#1760,#1761),
 .UNSPECIFIED.,.F.,.F.,(4,4),(1.96904487488085E-16,0.00145752967371876),
 .UNSPECIFIED.);
#25=B_SPLINE_CURVE_WITH_KNOTS('',3,(#1764,#1765,#1766,#1767),
 .UNSPECIFIED.,.F.,.F.,(4,4),(0.,0.00149446038926649),.UNSPECIFIED.);
#26=B_SPLINE_CURVE_WITH_KNOTS('',3,(#1769,#1770,#1771,#1772),
 .UNSPECIFIED.,.F.,.F.,(4,4),(0.,0.00145752967371856),.UNSPECIFIED.);
#27=B_SPLINE_CURVE_WITH_KNOTS('',3,(#1776,#1777,#1778,#1779),
 .UNSPECIFIED.,.F.,.F.,(4,4),(0.,0.00145752967371856),.UNSPECIFIED.);
#28=B_SPLINE_CURVE_WITH_KNOTS('',3,(#1782,#1783,#1784,#1785),
 .UNSPECIFIED.,.F.,.F.,(4,4),(1.84797036400952E-16,0.00145752967371876),
 .UNSPECIFIED.);
#29=PLANE('',#1085);
#30=PLANE('',#1086);
#31=PLANE('',#1095);
#32=PLANE('',#1100);
#33=PLANE('',#1101);
#34=PLANE('',#1102);
#35=PLANE('',#1109);
#36=PLANE('',#1112);
#37=PLANE('',#1114);
#38=PLANE('',#1116);
#39=PLANE('',#1117);
#40=PLANE('',#1122);
#41=PLANE('',#1125);
#42=PLANE('',#1126);
#43=PLANE('',#1127);
#44=PLANE('',#1129);
#45=PLANE('',#1130);
#46=PLANE('',#1133);
#47=PLANE('',#1134);
#48=PLANE('',#1135);
#49=PLANE('',#1136);
#50=PLANE('',#1137);
#51=PLANE('',#1138);
#52=PLANE('',#1139);
#53=PLANE('',#1140);
#54=PLANE('',#1141);
#55=PLANE('',#1144);
#56=PLANE('',#1147);
#57=PLANE('',#1148);
#58=PLANE('',#1149);
#59=PLANE('',#1150);
#60=PLANE('',#1151);
#61=PLANE('',#1152);
#62=PLANE('',#1153);
#63=PLANE('',#1154);
#64=PLANE('',#1156);
#65=PLANE('',#1157);
#66=PLANE('',#1159);
#67=PLANE('',#1162);
#68=PLANE('',#1164);
#69=PLANE('',#1167);
#70=PLANE('',#1172);
#71=LINE('',#1476,#168);
#72=LINE('',#1481,#169);
#73=LINE('',#1485,#170);
#74=LINE('',#1488,#171);
#75=LINE('',#1490,#172);
#76=LINE('',#1492,#173);
#77=LINE('',#1494,#174);
#78=LINE('',#1496,#175);
#79=LINE('',#1498,#176);
#80=LINE('',#1500,#177);
#81=LINE('',#1502,#178);
#82=LINE('',#1504,#179);
#83=LINE('',#1506,#180);
#84=LINE('',#1511,#181);
#85=LINE('',#1513,#182);
#86=LINE('',#1517,#183);
#87=LINE('',#1518,#184);
#88=LINE('',#1520,#185);
#89=LINE('',#1522,#186);
#90=LINE('',#1524,#187);
#91=LINE('',#1526,#188);
#92=LINE('',#1528,#189);
#93=LINE('',#1530,#190);
#94=LINE('',#1531,#191);
#95=LINE('',#1535,#192);
#96=LINE('',#1537,#193);
#97=LINE('',#1553,#194);
#98=LINE('',#1558,#195);
#99=LINE('',#1560,#196);
#100=LINE('',#1564,#197);
#101=LINE('',#1566,#198);
#102=LINE('',#1569,#199);
#103=LINE('',#1571,#200);
#104=LINE('',#1573,#201);
#105=LINE('',#1575,#202);
#106=LINE('',#1576,#203);
#107=LINE('',#1578,#204);
#108=LINE('',#1580,#205);
#109=LINE('',#1582,#206);
#110=LINE('',#1584,#207);
#111=LINE('',#1586,#208);
#112=LINE('',#1588,#209);
#113=LINE('',#1590,#210);
#114=LINE('',#1591,#211);
#115=LINE('',#1593,#212);
#116=LINE('',#1595,#213);
#117=LINE('',#1597,#214);
#118=LINE('',#1599,#215);
#119=LINE('',#1610,#216);
#120=LINE('',#1613,#217);
#121=LINE('',#1614,#218);
#122=LINE('',#1616,#219);
#123=LINE('',#1618,#220);
#124=LINE('',#1620,#221);
#125=LINE('',#1622,#222);
#126=LINE('',#1624,#223);
#127=LINE('',#1626,#224);
#128=LINE('',#1631,#225);
#129=LINE('',#1632,#226);
#130=LINE('',#1633,#227);
#131=LINE('',#1637,#228);
#132=LINE('',#1639,#229);
#133=LINE('',#1640,#230);
#134=LINE('',#1641,#231);
#135=LINE('',#1642,#232);
#136=LINE('',#1646,#233);
#137=LINE('',#1647,#234);
#138=LINE('',#1649,#235);
#139=LINE('',#1651,#236);
#140=LINE('',#1653,#237);
#141=LINE('',#1655,#238);
#142=LINE('',#1659,#239);
#143=LINE('',#1663,#240);
#144=LINE('',#1668,#241);
#145=LINE('',#1672,#242);
#146=LINE('',#1674,#243);
#147=LINE('',#1694,#244);
#148=LINE('',#1698,#245);
#149=LINE('',#1700,#246);
#150=LINE('',#1702,#247);
#151=LINE('',#1704,#248);
#152=LINE('',#1708,#249);
#153=LINE('',#1710,#250);
#154=LINE('',#1711,#251);
#155=LINE('',#1713,#252);
#156=LINE('',#1715,#253);
#157=LINE('',#1717,#254);
#158=LINE('',#1719,#255);
#159=LINE('',#1721,#256);
#160=LINE('',#1722,#257);
#161=LINE('',#1726,#258);
#162=LINE('',#1728,#259);
#163=LINE('',#1730,#260);
#164=LINE('',#1732,#261);
#165=LINE('',#1733,#262);
#166=LINE('',#1747,#263);
#167=LINE('',#1749,#264);
#168=VECTOR('',#1186,1.);
#169=VECTOR('',#1189,1.);
#170=VECTOR('',#1194,1.);
#171=VECTOR('',#1195,1.);
#172=VECTOR('',#1196,1.);
#173=VECTOR('',#1197,1.);
#174=VECTOR('',#1198,1.);
#175=VECTOR('',#1199,1.);
#176=VECTOR('',#1200,1.);
#177=VECTOR('',#1201,1.);
#178=VECTOR('',#1202,1.);
#179=VECTOR('',#1203,1.);
#180=VECTOR('',#1206,1.);
#181=VECTOR('',#1209,1.);
#182=VECTOR('',#1210,1.);
#183=VECTOR('',#1213,1.);
#184=VECTOR('',#1214,1.);
#185=VECTOR('',#1215,1.);
#186=VECTOR('',#1216,1.);
#187=VECTOR('',#1217,1.);
#188=VECTOR('',#1218,1.);
#189=VECTOR('',#1219,1.);
#190=VECTOR('',#1220,1.);
#191=VECTOR('',#1221,1.);
#192=VECTOR('',#1224,1.);
#193=VECTOR('',#1225,1.);
#194=VECTOR('',#1242,1.);
#195=VECTOR('',#1245,1.);
#196=VECTOR('',#1246,1.);
#197=VECTOR('',#1249,1.);
#198=VECTOR('',#1252,1.);
#199=VECTOR('',#1253,1.);
#200=VECTOR('',#1254,1.);
#201=VECTOR('',#1255,1.);
#202=VECTOR('',#1258,1.);
#203=VECTOR('',#1259,1.);
#204=VECTOR('',#1260,1.);
#205=VECTOR('',#1261,1.);
#206=VECTOR('',#1262,1.);
#207=VECTOR('',#1263,1.);
#208=VECTOR('',#1264,1.);
#209=VECTOR('',#1265,1.);
#210=VECTOR('',#1268,1.);
#211=VECTOR('',#1269,1.);
#212=VECTOR('',#1270,1.);
#213=VECTOR('',#1271,1.);
#214=VECTOR('',#1272,1.);
#215=VECTOR('',#1273,1.);
#216=VECTOR('',#1288,1.);
#217=VECTOR('',#1289,1.);
#218=VECTOR('',#1290,1.);
#219=VECTOR('',#1291,1.);
#220=VECTOR('',#1292,1.);
#221=VECTOR('',#1293,1.);
#222=VECTOR('',#1294,1.);
#223=VECTOR('',#1295,1.);
#224=VECTOR('',#1296,1.);
#225=VECTOR('',#1303,1.);
#226=VECTOR('',#1304,1.);
#227=VECTOR('',#1305,1.);
#228=VECTOR('',#1308,1.);
#229=VECTOR('',#1311,1.);
#230=VECTOR('',#1312,1.);
#231=VECTOR('',#1313,1.);
#232=VECTOR('',#1314,1.);
#233=VECTOR('',#1317,1.);
#234=VECTOR('',#1318,1.);
#235=VECTOR('',#1321,1.);
#236=VECTOR('',#1322,1.);
#237=VECTOR('',#1325,1.);
#238=VECTOR('',#1326,1.);
#239=VECTOR('',#1331,1.);
#240=VECTOR('',#1334,1.);
#241=VECTOR('',#1341,1.);
#242=VECTOR('',#1344,1.);
#243=VECTOR('',#1347,1.);
#244=VECTOR('',#1350,1.);
#245=VECTOR('',#1357,1.);
#246=VECTOR('',#1358,1.);
#247=VECTOR('',#1361,1.);
#248=VECTOR('',#1364,1.);
#249=VECTOR('',#1369,1.);
#250=VECTOR('',#1370,1.);
#251=VECTOR('',#1371,1.);
#252=VECTOR('',#1372,1.);
#253=VECTOR('',#1375,1.);
#254=VECTOR('',#1376,1.);
#255=VECTOR('',#1377,1.);
#256=VECTOR('',#1380,1.);
#257=VECTOR('',#1381,1.);
#258=VECTOR('',#1388,1.);
#259=VECTOR('',#1389,1.);
#260=VECTOR('',#1390,1.);
#261=VECTOR('',#1393,1.);
#262=VECTOR('',#1394,1.);
#263=VECTOR('',#1417,1.);
#264=VECTOR('',#1420,1.);
#265=ORIENTED_EDGE('',*,*,#549,.T.);
#266=ORIENTED_EDGE('',*,*,#550,.T.);
#267=ORIENTED_EDGE('',*,*,#551,.F.);
#268=ORIENTED_EDGE('',*,*,#552,.T.);
#269=ORIENTED_EDGE('',*,*,#553,.F.);
#270=ORIENTED_EDGE('',*,*,#554,.F.);
#271=ORIENTED_EDGE('',*,*,#555,.T.);
#272=ORIENTED_EDGE('',*,*,#556,.T.);
#273=ORIENTED_EDGE('',*,*,#557,.F.);
#274=ORIENTED_EDGE('',*,*,#558,.F.);
#275=ORIENTED_EDGE('',*,*,#559,.T.);
#276=ORIENTED_EDGE('',*,*,#560,.T.);
#277=ORIENTED_EDGE('',*,*,#561,.T.);
#278=ORIENTED_EDGE('',*,*,#562,.F.);
#279=ORIENTED_EDGE('',*,*,#563,.F.);
#280=ORIENTED_EDGE('',*,*,#564,.T.);
#281=ORIENTED_EDGE('',*,*,#565,.F.);
#282=ORIENTED_EDGE('',*,*,#566,.T.);
#283=ORIENTED_EDGE('',*,*,#567,.F.);
#284=ORIENTED_EDGE('',*,*,#568,.T.);
#285=ORIENTED_EDGE('',*,*,#569,.T.);
#286=ORIENTED_EDGE('',*,*,#570,.T.);
#287=ORIENTED_EDGE('',*,*,#555,.F.);
#288=ORIENTED_EDGE('',*,*,#571,.T.);
#289=ORIENTED_EDGE('',*,*,#572,.T.);
#290=ORIENTED_EDGE('',*,*,#573,.T.);
#291=ORIENTED_EDGE('',*,*,#574,.F.);
#292=ORIENTED_EDGE('',*,*,#575,.F.);
#293=ORIENTED_EDGE('',*,*,#576,.T.);
#294=ORIENTED_EDGE('',*,*,#577,.F.);
#295=ORIENTED_EDGE('',*,*,#561,.F.);
#296=ORIENTED_EDGE('',*,*,#578,.T.);
#297=ORIENTED_EDGE('',*,*,#579,.T.);
#298=ORIENTED_EDGE('',*,*,#580,.T.);
#299=ORIENTED_EDGE('',*,*,#581,.T.);
#300=ORIENTED_EDGE('',*,*,#582,.T.);
#301=ORIENTED_EDGE('',*,*,#583,.F.);
#302=ORIENTED_EDGE('',*,*,#584,.F.);
#303=ORIENTED_EDGE('',*,*,#585,.T.);
#304=ORIENTED_EDGE('',*,*,#586,.T.);
#305=ORIENTED_EDGE('',*,*,#587,.F.);
#306=ORIENTED_EDGE('',*,*,#588,.F.);
#307=ORIENTED_EDGE('',*,*,#589,.T.);
#308=ORIENTED_EDGE('',*,*,#590,.T.);
#309=ORIENTED_EDGE('',*,*,#591,.T.);
#310=ORIENTED_EDGE('',*,*,#592,.T.);
#311=ORIENTED_EDGE('',*,*,#593,.T.);
#312=ORIENTED_EDGE('',*,*,#594,.T.);
#313=ORIENTED_EDGE('',*,*,#595,.T.);
#314=ORIENTED_EDGE('',*,*,#596,.T.);
#315=ORIENTED_EDGE('',*,*,#597,.F.);
#316=ORIENTED_EDGE('',*,*,#598,.T.);
#317=ORIENTED_EDGE('',*,*,#567,.T.);
#318=ORIENTED_EDGE('',*,*,#599,.T.);
#319=ORIENTED_EDGE('',*,*,#589,.F.);
#320=ORIENTED_EDGE('',*,*,#600,.T.);
#321=ORIENTED_EDGE('',*,*,#601,.T.);
#322=ORIENTED_EDGE('',*,*,#602,.F.);
#323=ORIENTED_EDGE('',*,*,#603,.T.);
#324=ORIENTED_EDGE('',*,*,#604,.T.);
#325=ORIENTED_EDGE('',*,*,#605,.F.);
#326=ORIENTED_EDGE('',*,*,#606,.T.);
#327=ORIENTED_EDGE('',*,*,#591,.F.);
#328=ORIENTED_EDGE('',*,*,#607,.T.);
#329=ORIENTED_EDGE('',*,*,#565,.T.);
#330=ORIENTED_EDGE('',*,*,#608,.T.);
#331=ORIENTED_EDGE('',*,*,#609,.F.);
#332=ORIENTED_EDGE('',*,*,#610,.F.);
#333=ORIENTED_EDGE('',*,*,#611,.F.);
#334=ORIENTED_EDGE('',*,*,#612,.T.);
#335=ORIENTED_EDGE('',*,*,#613,.F.);
#336=ORIENTED_EDGE('',*,*,#614,.T.);
#337=ORIENTED_EDGE('',*,*,#615,.F.);
#338=ORIENTED_EDGE('',*,*,#588,.T.);
#339=ORIENTED_EDGE('',*,*,#587,.T.);
#340=ORIENTED_EDGE('',*,*,#585,.F.);
#341=ORIENTED_EDGE('',*,*,#616,.T.);
#342=ORIENTED_EDGE('',*,*,#617,.T.);
#343=ORIENTED_EDGE('',*,*,#581,.F.);
#344=ORIENTED_EDGE('',*,*,#618,.T.);
#345=ORIENTED_EDGE('',*,*,#619,.T.);
#346=ORIENTED_EDGE('',*,*,#620,.F.);
#347=ORIENTED_EDGE('',*,*,#621,.T.);
#348=ORIENTED_EDGE('',*,*,#622,.T.);
#349=ORIENTED_EDGE('',*,*,#623,.F.);
#350=ORIENTED_EDGE('',*,*,#624,.T.);
#351=ORIENTED_EDGE('',*,*,#625,.T.);
#352=ORIENTED_EDGE('',*,*,#586,.F.);
#353=ORIENTED_EDGE('',*,*,#549,.F.);
#354=ORIENTED_EDGE('',*,*,#622,.F.);
#355=ORIENTED_EDGE('',*,*,#626,.T.);
#356=ORIENTED_EDGE('',*,*,#595,.F.);
#357=ORIENTED_EDGE('',*,*,#627,.T.);
#358=ORIENTED_EDGE('',*,*,#602,.T.);
#359=ORIENTED_EDGE('',*,*,#628,.F.);
#360=ORIENTED_EDGE('',*,*,#629,.T.);
#361=ORIENTED_EDGE('',*,*,#630,.T.);
#362=ORIENTED_EDGE('',*,*,#597,.T.);
#363=ORIENTED_EDGE('',*,*,#631,.T.);
#364=ORIENTED_EDGE('',*,*,#620,.T.);
#365=ORIENTED_EDGE('',*,*,#632,.T.);
#366=ORIENTED_EDGE('',*,*,#554,.T.);
#367=ORIENTED_EDGE('',*,*,#633,.F.);
#368=ORIENTED_EDGE('',*,*,#558,.T.);
#369=ORIENTED_EDGE('',*,*,#634,.F.);
#370=ORIENTED_EDGE('',*,*,#635,.T.);
#371=ORIENTED_EDGE('',*,*,#636,.F.);
#372=ORIENTED_EDGE('',*,*,#604,.F.);
#373=ORIENTED_EDGE('',*,*,#637,.T.);
#374=ORIENTED_EDGE('',*,*,#638,.F.);
#375=ORIENTED_EDGE('',*,*,#639,.T.);
#376=ORIENTED_EDGE('',*,*,#623,.T.);
#377=ORIENTED_EDGE('',*,*,#630,.F.);
#378=ORIENTED_EDGE('',*,*,#601,.F.);
#379=ORIENTED_EDGE('',*,*,#640,.T.);
#380=ORIENTED_EDGE('',*,*,#641,.T.);
#381=ORIENTED_EDGE('',*,*,#628,.T.);
#382=ORIENTED_EDGE('',*,*,#641,.F.);
#383=ORIENTED_EDGE('',*,*,#642,.T.);
#384=ORIENTED_EDGE('',*,*,#643,.T.);
#385=ORIENTED_EDGE('',*,*,#644,.T.);
#386=ORIENTED_EDGE('',*,*,#645,.T.);
#387=ORIENTED_EDGE('',*,*,#646,.T.);
#388=ORIENTED_EDGE('',*,*,#638,.T.);
#389=ORIENTED_EDGE('',*,*,#629,.F.);
#390=ORIENTED_EDGE('',*,*,#609,.T.);
#391=ORIENTED_EDGE('',*,*,#647,.T.);
#392=ORIENTED_EDGE('',*,*,#616,.F.);
#393=ORIENTED_EDGE('',*,*,#648,.T.);
#394=ORIENTED_EDGE('',*,*,#649,.T.);
#395=ORIENTED_EDGE('',*,*,#650,.F.);
#396=ORIENTED_EDGE('',*,*,#625,.F.);
#397=ORIENTED_EDGE('',*,*,#614,.F.);
#398=ORIENTED_EDGE('',*,*,#651,.F.);
#399=ORIENTED_EDGE('',*,*,#652,.T.);
#400=ORIENTED_EDGE('',*,*,#643,.F.);
#401=ORIENTED_EDGE('',*,*,#653,.T.);
#402=ORIENTED_EDGE('',*,*,#592,.F.);
#403=ORIENTED_EDGE('',*,*,#612,.F.);
#404=ORIENTED_EDGE('',*,*,#650,.T.);
#405=ORIENTED_EDGE('',*,*,#654,.T.);
#406=ORIENTED_EDGE('',*,*,#645,.F.);
#407=ORIENTED_EDGE('',*,*,#655,.T.);
#408=ORIENTED_EDGE('',*,*,#656,.T.);
#409=ORIENTED_EDGE('',*,*,#610,.T.);
#410=ORIENTED_EDGE('',*,*,#656,.F.);
#411=ORIENTED_EDGE('',*,*,#657,.T.);
#412=ORIENTED_EDGE('',*,*,#651,.T.);
#413=ORIENTED_EDGE('',*,*,#611,.T.);
#414=ORIENTED_EDGE('',*,*,#658,.F.);
#415=ORIENTED_EDGE('',*,*,#659,.T.);
#416=ORIENTED_EDGE('',*,*,#605,.T.);
#417=ORIENTED_EDGE('',*,*,#636,.T.);
#418=ORIENTED_EDGE('',*,*,#619,.F.);
#419=ORIENTED_EDGE('',*,*,#660,.T.);
#420=ORIENTED_EDGE('',*,*,#551,.T.);
#421=ORIENTED_EDGE('',*,*,#632,.F.);
#422=ORIENTED_EDGE('',*,*,#661,.T.);
#423=ORIENTED_EDGE('',*,*,#662,.T.);
#424=ORIENTED_EDGE('',*,*,#658,.T.);
#425=ORIENTED_EDGE('',*,*,#635,.F.);
#426=ORIENTED_EDGE('',*,*,#663,.F.);
#427=ORIENTED_EDGE('',*,*,#664,.F.);
#428=ORIENTED_EDGE('',*,*,#665,.T.);
#429=ORIENTED_EDGE('',*,*,#666,.T.);
#430=ORIENTED_EDGE('',*,*,#667,.T.);
#431=ORIENTED_EDGE('',*,*,#668,.F.);
#432=ORIENTED_EDGE('',*,*,#669,.F.);
#433=ORIENTED_EDGE('',*,*,#574,.T.);
#434=ORIENTED_EDGE('',*,*,#670,.T.);
#435=ORIENTED_EDGE('',*,*,#666,.F.);
#436=ORIENTED_EDGE('',*,*,#671,.F.);
#437=ORIENTED_EDGE('',*,*,#668,.T.);
#438=ORIENTED_EDGE('',*,*,#665,.F.);
#439=ORIENTED_EDGE('',*,*,#575,.T.);
#440=ORIENTED_EDGE('',*,*,#669,.T.);
#441=ORIENTED_EDGE('',*,*,#671,.T.);
#442=ORIENTED_EDGE('',*,*,#663,.T.);
#443=ORIENTED_EDGE('',*,*,#670,.F.);
#444=ORIENTED_EDGE('',*,*,#667,.F.);
#445=ORIENTED_EDGE('',*,*,#573,.F.);
#446=ORIENTED_EDGE('',*,*,#672,.T.);
#447=ORIENTED_EDGE('',*,*,#576,.F.);
#448=ORIENTED_EDGE('',*,*,#664,.T.);
#449=ORIENTED_EDGE('',*,*,#572,.F.);
#450=ORIENTED_EDGE('',*,*,#673,.F.);
#451=ORIENTED_EDGE('',*,*,#674,.T.);
#452=ORIENTED_EDGE('',*,*,#675,.T.);
#453=ORIENTED_EDGE('',*,*,#674,.F.);
#454=ORIENTED_EDGE('',*,*,#676,.F.);
#455=ORIENTED_EDGE('',*,*,#563,.T.);
#456=ORIENTED_EDGE('',*,*,#673,.T.);
#457=ORIENTED_EDGE('',*,*,#571,.F.);
#458=ORIENTED_EDGE('',*,*,#564,.F.);
#459=ORIENTED_EDGE('',*,*,#676,.T.);
#460=ORIENTED_EDGE('',*,*,#672,.F.);
#461=ORIENTED_EDGE('',*,*,#675,.F.);
#462=ORIENTED_EDGE('',*,*,#562,.T.);
#463=ORIENTED_EDGE('',*,*,#577,.T.);
#464=ORIENTED_EDGE('',*,*,#584,.T.);
#465=ORIENTED_EDGE('',*,*,#677,.T.);
#466=ORIENTED_EDGE('',*,*,#677,.F.);
#467=ORIENTED_EDGE('',*,*,#583,.T.);
#468=ORIENTED_EDGE('',*,*,#678,.T.);
#469=ORIENTED_EDGE('',*,*,#678,.F.);
#470=ORIENTED_EDGE('',*,*,#613,.T.);
#471=ORIENTED_EDGE('',*,*,#615,.T.);
#472=ORIENTED_EDGE('',*,*,#557,.T.);
#473=ORIENTED_EDGE('',*,*,#679,.T.);
#474=ORIENTED_EDGE('',*,*,#661,.F.);
#475=ORIENTED_EDGE('',*,*,#634,.T.);
#476=ORIENTED_EDGE('',*,*,#553,.T.);
#477=ORIENTED_EDGE('',*,*,#680,.T.);
#478=ORIENTED_EDGE('',*,*,#559,.F.);
#479=ORIENTED_EDGE('',*,*,#633,.T.);
#480=ORIENTED_EDGE('',*,*,#631,.F.);
#481=ORIENTED_EDGE('',*,*,#596,.F.);
#482=ORIENTED_EDGE('',*,*,#626,.F.);
#483=ORIENTED_EDGE('',*,*,#621,.F.);
#484=ORIENTED_EDGE('',*,*,#637,.F.);
#485=ORIENTED_EDGE('',*,*,#603,.F.);
#486=ORIENTED_EDGE('',*,*,#627,.F.);
#487=ORIENTED_EDGE('',*,*,#598,.F.);
#488=ORIENTED_EDGE('',*,*,#556,.F.);
#489=ORIENTED_EDGE('',*,*,#570,.F.);
#490=ORIENTED_EDGE('',*,*,#681,.F.);
#491=ORIENTED_EDGE('',*,*,#679,.F.);
#492=ORIENTED_EDGE('',*,*,#681,.T.);
#493=ORIENTED_EDGE('',*,*,#569,.F.);
#494=ORIENTED_EDGE('',*,*,#682,.F.);
#495=ORIENTED_EDGE('',*,*,#662,.F.);
#496=ORIENTED_EDGE('',*,*,#682,.T.);
#497=ORIENTED_EDGE('',*,*,#568,.F.);
#498=ORIENTED_EDGE('',*,*,#606,.F.);
#499=ORIENTED_EDGE('',*,*,#659,.F.);
#500=ORIENTED_EDGE('',*,*,#560,.F.);
#501=ORIENTED_EDGE('',*,*,#680,.F.);
#502=ORIENTED_EDGE('',*,*,#683,.F.);
#503=ORIENTED_EDGE('',*,*,#578,.F.);
#504=ORIENTED_EDGE('',*,*,#683,.T.);
#505=ORIENTED_EDGE('',*,*,#552,.F.);
#506=ORIENTED_EDGE('',*,*,#684,.F.);
#507=ORIENTED_EDGE('',*,*,#579,.F.);
#508=ORIENTED_EDGE('',*,*,#684,.T.);
#509=ORIENTED_EDGE('',*,*,#660,.F.);
#510=ORIENTED_EDGE('',*,*,#618,.F.);
#511=ORIENTED_EDGE('',*,*,#580,.F.);
#512=ORIENTED_EDGE('',*,*,#652,.F.);
#513=ORIENTED_EDGE('',*,*,#657,.F.);
#514=ORIENTED_EDGE('',*,*,#655,.F.);
#515=ORIENTED_EDGE('',*,*,#644,.F.);
#516=ORIENTED_EDGE('',*,*,#653,.F.);
#517=ORIENTED_EDGE('',*,*,#642,.F.);
#518=ORIENTED_EDGE('',*,*,#685,.F.);
#519=ORIENTED_EDGE('',*,*,#593,.F.);
#520=ORIENTED_EDGE('',*,*,#685,.T.);
#521=ORIENTED_EDGE('',*,*,#640,.F.);
#522=ORIENTED_EDGE('',*,*,#600,.F.);
#523=ORIENTED_EDGE('',*,*,#594,.F.);
#524=ORIENTED_EDGE('',*,*,#654,.F.);
#525=ORIENTED_EDGE('',*,*,#649,.F.);
#526=ORIENTED_EDGE('',*,*,#686,.F.);
#527=ORIENTED_EDGE('',*,*,#646,.F.);
#528=ORIENTED_EDGE('',*,*,#686,.T.);
#529=ORIENTED_EDGE('',*,*,#648,.F.);
#530=ORIENTED_EDGE('',*,*,#624,.F.);
#531=ORIENTED_EDGE('',*,*,#639,.F.);
#532=ORIENTED_EDGE('',*,*,#566,.F.);
#533=ORIENTED_EDGE('',*,*,#607,.F.);
#534=ORIENTED_EDGE('',*,*,#590,.F.);
#535=ORIENTED_EDGE('',*,*,#599,.F.);
#536=ORIENTED_EDGE('',*,*,#582,.F.);
#537=ORIENTED_EDGE('',*,*,#617,.F.);
#538=ORIENTED_EDGE('',*,*,#647,.F.);
#539=ORIENTED_EDGE('',*,*,#608,.F.);
#540=ORIENTED_EDGE('',*,*,#687,.F.);
#541=ORIENTED_EDGE('',*,*,#688,.T.);
#542=ORIENTED_EDGE('',*,*,#689,.F.);
#543=ORIENTED_EDGE('',*,*,#687,.T.);
#544=ORIENTED_EDGE('',*,*,#689,.T.);
#545=ORIENTED_EDGE('',*,*,#550,.F.);
#546=ORIENTED_EDGE('',*,*,#690,.F.);
#547=ORIENTED_EDGE('',*,*,#688,.F.);
#548=ORIENTED_EDGE('',*,*,#690,.T.);
#549=EDGE_CURVE('',#691,#691,#790,.T.);
#550=EDGE_CURVE('',#692,#692,#791,.T.);
#551=EDGE_CURVE('',#693,#694,#71,.T.);
#552=EDGE_CURVE('',#693,#695,#792,.T.);
#553=EDGE_CURVE('',#696,#695,#72,.T.);
#554=EDGE_CURVE('',#694,#696,#793,.T.);
#555=EDGE_CURVE('',#697,#698,#73,.T.);
#556=EDGE_CURVE('',#698,#699,#74,.T.);
#557=EDGE_CURVE('',#700,#699,#75,.T.);
#558=EDGE_CURVE('',#701,#700,#76,.T.);
#559=EDGE_CURVE('',#701,#702,#77,.T.);
#560=EDGE_CURVE('',#702,#703,#78,.T.);
#561=EDGE_CURVE('',#703,#704,#79,.T.);
#562=EDGE_CURVE('',#705,#704,#80,.T.);
#563=EDGE_CURVE('',#706,#705,#81,.T.);
#564=EDGE_CURVE('',#706,#697,#82,.T.);
#565=EDGE_CURVE('',#707,#708,#83,.T.);
#566=EDGE_CURVE('',#707,#709,#794,.T.);
#567=EDGE_CURVE('',#710,#709,#84,.T.);
#568=EDGE_CURVE('',#710,#711,#85,.T.);
#569=EDGE_CURVE('',#711,#712,#795,.F.);
#570=EDGE_CURVE('',#712,#698,#86,.T.);
#571=EDGE_CURVE('',#697,#713,#87,.T.);
#572=EDGE_CURVE('',#713,#714,#88,.T.);
#573=EDGE_CURVE('',#714,#715,#89,.T.);
#574=EDGE_CURVE('',#716,#715,#90,.T.);
#575=EDGE_CURVE('',#717,#716,#91,.T.);
#576=EDGE_CURVE('',#717,#718,#92,.T.);
#577=EDGE_CURVE('',#704,#718,#93,.T.);
#578=EDGE_CURVE('',#703,#719,#94,.T.);
#579=EDGE_CURVE('',#719,#720,#796,.F.);
#580=EDGE_CURVE('',#720,#721,#95,.T.);
#581=EDGE_CURVE('',#721,#722,#96,.T.);
#582=EDGE_CURVE('',#722,#708,#797,.T.);
#583=EDGE_CURVE('',#723,#723,#798,.T.);
#584=EDGE_CURVE('',#724,#724,#799,.T.);
#585=EDGE_CURVE('',#725,#725,#800,.F.);
#586=EDGE_CURVE('',#726,#726,#801,.F.);
#587=EDGE_CURVE('',#727,#727,#802,.T.);
#588=EDGE_CURVE('',#728,#728,#803,.T.);
#589=EDGE_CURVE('',#729,#730,#97,.T.);
#590=EDGE_CURVE('',#730,#731,#804,.T.);
#591=EDGE_CURVE('',#731,#732,#98,.T.);
#592=EDGE_CURVE('',#732,#733,#99,.T.);
#593=EDGE_CURVE('',#733,#734,#805,.F.);
#594=EDGE_CURVE('',#734,#729,#100,.T.);
#595=EDGE_CURVE('',#735,#736,#101,.T.);
#596=EDGE_CURVE('',#736,#737,#102,.T.);
#597=EDGE_CURVE('',#738,#737,#103,.T.);
#598=EDGE_CURVE('',#738,#735,#104,.T.);
#599=EDGE_CURVE('',#709,#730,#105,.T.);
#600=EDGE_CURVE('',#729,#739,#106,.T.);
#601=EDGE_CURVE('',#739,#740,#107,.T.);
#602=EDGE_CURVE('',#741,#740,#108,.T.);
#603=EDGE_CURVE('',#741,#742,#109,.T.);
#604=EDGE_CURVE('',#742,#743,#110,.T.);
#605=EDGE_CURVE('',#744,#743,#111,.T.);
#606=EDGE_CURVE('',#744,#710,#112,.F.);
#607=EDGE_CURVE('',#731,#707,#113,.F.);
#608=EDGE_CURVE('',#708,#745,#114,.T.);
#609=EDGE_CURVE('',#746,#745,#115,.T.);
#610=EDGE_CURVE('',#747,#746,#116,.T.);
#611=EDGE_CURVE('',#748,#747,#117,.T.);
#612=EDGE_CURVE('',#748,#732,#118,.T.);
#613=EDGE_CURVE('',#749,#749,#806,.T.);
#614=EDGE_CURVE('',#750,#750,#807,.T.);
#615=EDGE_CURVE('',#751,#751,#808,.T.);
#616=EDGE_CURVE('',#752,#753,#119,.T.);
#617=EDGE_CURVE('',#753,#722,#120,.F.);
#618=EDGE_CURVE('',#721,#754,#121,.T.);
#619=EDGE_CURVE('',#754,#755,#122,.T.);
#620=EDGE_CURVE('',#756,#755,#123,.T.);
#621=EDGE_CURVE('',#756,#757,#124,.T.);
#622=EDGE_CURVE('',#757,#758,#125,.T.);
#623=EDGE_CURVE('',#759,#758,#126,.T.);
#624=EDGE_CURVE('',#759,#752,#127,.F.);
#625=EDGE_CURVE('',#760,#760,#809,.T.);
#626=EDGE_CURVE('',#757,#736,#128,.F.);
#627=EDGE_CURVE('',#735,#741,#129,.T.);
#628=EDGE_CURVE('',#761,#740,#130,.T.);
#629=EDGE_CURVE('',#761,#762,#810,.T.);
#630=EDGE_CURVE('',#762,#758,#131,.T.);
#631=EDGE_CURVE('',#737,#756,#132,.F.);
#632=EDGE_CURVE('',#755,#694,#133,.T.);
#633=EDGE_CURVE('',#701,#696,#134,.T.);
#634=EDGE_CURVE('',#763,#700,#135,.T.);
#635=EDGE_CURVE('',#763,#764,#811,.T.);
#636=EDGE_CURVE('',#743,#764,#136,.T.);
#637=EDGE_CURVE('',#742,#738,#137,.T.);
#638=EDGE_CURVE('',#765,#762,#138,.T.);
#639=EDGE_CURVE('',#765,#759,#139,.T.);
#640=EDGE_CURVE('',#739,#766,#140,.T.);
#641=EDGE_CURVE('',#766,#761,#141,.T.);
#642=EDGE_CURVE('',#766,#767,#812,.T.);
#643=EDGE_CURVE('',#767,#768,#142,.F.);
#644=EDGE_CURVE('',#768,#769,#813,.T.);
#645=EDGE_CURVE('',#769,#770,#143,.T.);
#646=EDGE_CURVE('',#770,#765,#814,.T.);
#647=EDGE_CURVE('',#745,#753,#815,.T.);
#648=EDGE_CURVE('',#752,#771,#144,.T.);
#649=EDGE_CURVE('',#771,#772,#816,.F.);
#650=EDGE_CURVE('',#746,#772,#145,.T.);
#651=EDGE_CURVE('',#773,#748,#146,.T.);
#652=EDGE_CURVE('',#773,#768,#19,.T.);
#653=EDGE_CURVE('',#767,#733,#20,.T.);
#654=EDGE_CURVE('',#772,#770,#21,.T.);
#655=EDGE_CURVE('',#769,#774,#22,.T.);
#656=EDGE_CURVE('',#774,#747,#147,.T.);
#657=EDGE_CURVE('',#774,#773,#817,.F.);
#658=EDGE_CURVE('',#775,#764,#148,.T.);
#659=EDGE_CURVE('',#775,#744,#149,.T.);
#660=EDGE_CURVE('',#754,#693,#150,.T.);
#661=EDGE_CURVE('',#763,#776,#151,.T.);
#662=EDGE_CURVE('',#776,#775,#818,.T.);
#663=EDGE_CURVE('',#714,#777,#152,.T.);
#664=EDGE_CURVE('',#717,#714,#153,.T.);
#665=EDGE_CURVE('',#717,#778,#154,.T.);
#666=EDGE_CURVE('',#778,#777,#155,.T.);
#667=EDGE_CURVE('',#715,#779,#156,.T.);
#668=EDGE_CURVE('',#780,#779,#157,.T.);
#669=EDGE_CURVE('',#716,#780,#158,.T.);
#670=EDGE_CURVE('',#779,#777,#159,.T.);
#671=EDGE_CURVE('',#780,#778,#160,.T.);
#672=EDGE_CURVE('',#781,#718,#161,.T.);
#673=EDGE_CURVE('',#782,#713,#162,.T.);
#674=EDGE_CURVE('',#782,#781,#163,.T.);
#675=EDGE_CURVE('',#705,#781,#164,.T.);
#676=EDGE_CURVE('',#706,#782,#165,.T.);
#677=EDGE_CURVE('',#783,#783,#819,.T.);
#678=EDGE_CURVE('',#784,#784,#820,.T.);
#679=EDGE_CURVE('',#699,#776,#166,.T.);
#680=EDGE_CURVE('',#695,#702,#167,.T.);
#681=EDGE_CURVE('',#776,#712,#23,.F.);
#682=EDGE_CURVE('',#775,#711,#24,.F.);
#683=EDGE_CURVE('',#719,#695,#25,.F.);
#684=EDGE_CURVE('',#720,#693,#26,.F.);
#685=EDGE_CURVE('',#734,#766,#27,.F.);
#686=EDGE_CURVE('',#765,#771,#28,.F.);
#687=EDGE_CURVE('',#785,#785,#821,.T.);
#688=EDGE_CURVE('',#786,#786,#822,.T.);
#689=EDGE_CURVE('',#787,#787,#823,.T.);
#690=EDGE_CURVE('',#789,#789,#824,.T.);
#691=VERTEX_POINT('',#1472);
#692=VERTEX_POINT('',#1474);
#693=VERTEX_POINT('',#1477);
#694=VERTEX_POINT('',#1478);
#695=VERTEX_POINT('',#1480);
#696=VERTEX_POINT('',#1482);
#697=VERTEX_POINT('',#1486);
#698=VERTEX_POINT('',#1487);
#699=VERTEX_POINT('',#1489);
#700=VERTEX_POINT('',#1491);
#701=VERTEX_POINT('',#1493);
#702=VERTEX_POINT('',#1495);
#703=VERTEX_POINT('',#1497);
#704=VERTEX_POINT('',#1499);
#705=VERTEX_POINT('',#1501);
#706=VERTEX_POINT('',#1503);
#707=VERTEX_POINT('',#1507);
#708=VERTEX_POINT('',#1508);
#709=VERTEX_POINT('',#1510);
#710=VERTEX_POINT('',#1512);
#711=VERTEX_POINT('',#1514);
#712=VERTEX_POINT('',#1516);
#713=VERTEX_POINT('',#1519);
#714=VERTEX_POINT('',#1521);
#715=VERTEX_POINT('',#1523);
#716=VERTEX_POINT('',#1525);
#717=VERTEX_POINT('',#1527);
#718=VERTEX_POINT('',#1529);
#719=VERTEX_POINT('',#1532);
#720=VERTEX_POINT('',#1534);
#721=VERTEX_POINT('',#1536);
#722=VERTEX_POINT('',#1538);
#723=VERTEX_POINT('',#1541);
#724=VERTEX_POINT('',#1543);
#725=VERTEX_POINT('',#1545);
#726=VERTEX_POINT('',#1547);
#727=VERTEX_POINT('',#1550);
#728=VERTEX_POINT('',#1552);
#729=VERTEX_POINT('',#1554);
#730=VERTEX_POINT('',#1555);
#731=VERTEX_POINT('',#1557);
#732=VERTEX_POINT('',#1559);
#733=VERTEX_POINT('',#1561);
#734=VERTEX_POINT('',#1563);
#735=VERTEX_POINT('',#1567);
#736=VERTEX_POINT('',#1568);
#737=VERTEX_POINT('',#1570);
#738=VERTEX_POINT('',#1572);
#739=VERTEX_POINT('',#1577);
#740=VERTEX_POINT('',#1579);
#741=VERTEX_POINT('',#1581);
#742=VERTEX_POINT('',#1583);
#743=VERTEX_POINT('',#1585);
#744=VERTEX_POINT('',#1587);
#745=VERTEX_POINT('',#1592);
#746=VERTEX_POINT('',#1594);
#747=VERTEX_POINT('',#1596);
#748=VERTEX_POINT('',#1598);
#749=VERTEX_POINT('',#1602);
#750=VERTEX_POINT('',#1604);
#751=VERTEX_POINT('',#1607);
#752=VERTEX_POINT('',#1611);
#753=VERTEX_POINT('',#1612);
#754=VERTEX_POINT('',#1615);
#755=VERTEX_POINT('',#1617);
#756=VERTEX_POINT('',#1619);
#757=VERTEX_POINT('',#1621);
#758=VERTEX_POINT('',#1623);
#759=VERTEX_POINT('',#1625);
#760=VERTEX_POINT('',#1629);
#761=VERTEX_POINT('',#1634);
#762=VERTEX_POINT('',#1636);
#763=VERTEX_POINT('',#1643);
#764=VERTEX_POINT('',#1645);
#765=VERTEX_POINT('',#1650);
#766=VERTEX_POINT('',#1654);
#767=VERTEX_POINT('',#1658);
#768=VERTEX_POINT('',#1660);
#769=VERTEX_POINT('',#1662);
#770=VERTEX_POINT('',#1664);
#771=VERTEX_POINT('',#1669);
#772=VERTEX_POINT('',#1671);
#773=VERTEX_POINT('',#1675);
#774=VERTEX_POINT('',#1693);
#775=VERTEX_POINT('',#1699);
#776=VERTEX_POINT('',#1705);
#777=VERTEX_POINT('',#1709);
#778=VERTEX_POINT('',#1712);
#779=VERTEX_POINT('',#1716);
#780=VERTEX_POINT('',#1718);
#781=VERTEX_POINT('',#1727);
#782=VERTEX_POINT('',#1729);
#783=VERTEX_POINT('',#1738);
#784=VERTEX_POINT('',#1742);
#785=VERTEX_POINT('',#1791);
#786=VERTEX_POINT('',#1793);
#787=VERTEX_POINT('',#1796);
#788=VERTEX_POINT('',#1799);
#789=VERTEX_POINT('',#1801);
#790=CIRCLE('',#1080,0.002925);
#791=CIRCLE('',#1081,0.002925);
#792=CIRCLE('',#1083,0.011);
#793=CIRCLE('',#1084,0.011);
#794=CIRCLE('',#1087,0.001);
#795=CIRCLE('',#1088,0.012);
#796=CIRCLE('',#1089,0.012);
#797=CIRCLE('',#1090,0.001);
#798=CIRCLE('',#1091,0.00075);
#799=CIRCLE('',#1092,0.00075);
#800=CIRCLE('',#1093,0.00075);
#801=CIRCLE('',#1094,0.00075);
#802=CIRCLE('',#1096,0.00075);
#803=CIRCLE('',#1097,0.00075);
#804=CIRCLE('',#1098,0.001);
#805=CIRCLE('',#1099,0.012);
#806=CIRCLE('',#1104,0.00075);
#807=CIRCLE('',#1105,0.00075);
#808=CIRCLE('',#1107,0.00075);
#809=CIRCLE('',#1111,0.00075);
#810=CIRCLE('',#1113,0.011);
#811=CIRCLE('',#1115,0.011);
#812=CIRCLE('',#1119,0.011);
#813=CIRCLE('',#1120,0.011);
#814=CIRCLE('',#1121,0.011);
#815=CIRCLE('',#1123,0.001);
#816=CIRCLE('',#1124,0.012);
#817=CIRCLE('',#1128,0.012);
#818=CIRCLE('',#1132,0.011);
#819=CIRCLE('',#1143,0.00075);
#820=CIRCLE('',#1146,0.00075);
#821=CIRCLE('',#1168,0.002825);
#822=CIRCLE('',#1169,0.00125);
#823=CIRCLE('',#1171,0.002825);
#824=CIRCLE('',#1174,0.00125);
#825=EDGE_LOOP('',(#265));
#826=EDGE_LOOP('',(#266));
#827=EDGE_LOOP('',(#267,#268,#269,#270));
#828=EDGE_LOOP('',(#271,#272,#273,#274,#275,#276,#277,#278,#279,#280));
#829=EDGE_LOOP('',(#281,#282,#283,#284,#285,#286,#287,#288,#289,#290,#291,
#292,#293,#294,#295,#296,#297,#298,#299,#300));
#830=EDGE_LOOP('',(#301));
#831=EDGE_LOOP('',(#302));
#832=EDGE_LOOP('',(#303));
#833=EDGE_LOOP('',(#304));
#834=EDGE_LOOP('',(#305));
#835=EDGE_LOOP('',(#306));
#836=EDGE_LOOP('',(#307,#308,#309,#310,#311,#312));
#837=EDGE_LOOP('',(#313,#314,#315,#316));
#838=EDGE_LOOP('',(#317,#318,#319,#320,#321,#322,#323,#324,#325,#326));
#839=EDGE_LOOP('',(#327,#328,#329,#330,#331,#332,#333,#334));
#840=EDGE_LOOP('',(#335));
#841=EDGE_LOOP('',(#336));
#842=EDGE_LOOP('',(#337));
#843=EDGE_LOOP('',(#338));
#844=EDGE_LOOP('',(#339));
#845=EDGE_LOOP('',(#340));
#846=EDGE_LOOP('',(#341,#342,#343,#344,#345,#346,#347,#348,#349,#350));
#847=EDGE_LOOP('',(#351));
#848=EDGE_LOOP('',(#352));
#849=EDGE_LOOP('',(#353));
#850=EDGE_LOOP('',(#354,#355,#356,#357,#358,#359,#360,#361));
#851=EDGE_LOOP('',(#362,#363,#364,#365,#366,#367,#368,#369,#370,#371,#372,
#373));
#852=EDGE_LOOP('',(#374,#375,#376,#377));
#853=EDGE_LOOP('',(#378,#379,#380,#381));
#854=EDGE_LOOP('',(#382,#383,#384,#385,#386,#387,#388,#389));
#855=EDGE_LOOP('',(#390,#391,#392,#393,#394,#395));
#856=EDGE_LOOP('',(#396));
#857=EDGE_LOOP('',(#397));
#858=EDGE_LOOP('',(#398,#399,#400,#401,#402,#403));
#859=EDGE_LOOP('',(#404,#405,#406,#407,#408,#409));
#860=EDGE_LOOP('',(#410,#411,#412,#413));
#861=EDGE_LOOP('',(#414,#415,#416,#417));
#862=EDGE_LOOP('',(#418,#419,#420,#421));
#863=EDGE_LOOP('',(#422,#423,#424,#425));
#864=EDGE_LOOP('',(#426,#427,#428,#429));
#865=EDGE_LOOP('',(#430,#431,#432,#433));
#866=EDGE_LOOP('',(#434,#435,#436,#437));
#867=EDGE_LOOP('',(#438,#439,#440,#441));
#868=EDGE_LOOP('',(#442,#443,#444,#445));
#869=EDGE_LOOP('',(#446,#447,#448,#449,#450,#451));
#870=EDGE_LOOP('',(#452,#453,#454,#455));
#871=EDGE_LOOP('',(#456,#457,#458,#459));
#872=EDGE_LOOP('',(#460,#461,#462,#463));
#873=EDGE_LOOP('',(#464));
#874=EDGE_LOOP('',(#465));
#875=EDGE_LOOP('',(#466));
#876=EDGE_LOOP('',(#467));
#877=EDGE_LOOP('',(#468));
#878=EDGE_LOOP('',(#469));
#879=EDGE_LOOP('',(#470));
#880=EDGE_LOOP('',(#471));
#881=EDGE_LOOP('',(#472,#473,#474,#475));
#882=EDGE_LOOP('',(#476,#477,#478,#479));
#883=EDGE_LOOP('',(#480,#481,#482,#483));
#884=EDGE_LOOP('',(#484,#485,#486,#487));
#885=EDGE_LOOP('',(#488,#489,#490,#491));
#886=EDGE_LOOP('',(#492,#493,#494,#495));
#887=EDGE_LOOP('',(#496,#497,#498,#499));
#888=EDGE_LOOP('',(#500,#501,#502,#503));
#889=EDGE_LOOP('',(#504,#505,#506,#507));
#890=EDGE_LOOP('',(#508,#509,#510,#511));
#891=EDGE_LOOP('',(#512,#513,#514,#515));
#892=EDGE_LOOP('',(#516,#517,#518,#519));
#893=EDGE_LOOP('',(#520,#521,#522,#523));
#894=EDGE_LOOP('',(#524,#525,#526,#527));
#895=EDGE_LOOP('',(#528,#529,#530,#531));
#896=EDGE_LOOP('',(#532,#533,#534,#535));
#897=EDGE_LOOP('',(#536,#537,#538,#539));
#898=EDGE_LOOP('',(#540));
#899=EDGE_LOOP('',(#541));
#900=EDGE_LOOP('',(#542));
#901=EDGE_LOOP('',(#543));
#902=EDGE_LOOP('',(#544));
#903=EDGE_LOOP('',(#545));
#904=EDGE_LOOP('',(#546));
#905=EDGE_LOOP('',(#547));
#906=EDGE_LOOP('',(#548));
#907=FACE_BOUND('',#825,.T.);
#908=FACE_BOUND('',#826,.T.);
#909=FACE_BOUND('',#827,.T.);
#910=FACE_BOUND('',#828,.T.);
#911=FACE_BOUND('',#829,.T.);
#912=FACE_BOUND('',#830,.T.);
#913=FACE_BOUND('',#831,.T.);
#914=FACE_BOUND('',#832,.T.);
#915=FACE_BOUND('',#833,.T.);
#916=FACE_BOUND('',#834,.T.);
#917=FACE_BOUND('',#835,.T.);
#918=FACE_BOUND('',#836,.T.);
#919=FACE_BOUND('',#837,.T.);
#920=FACE_BOUND('',#838,.T.);
#921=FACE_BOUND('',#839,.T.);
#922=FACE_BOUND('',#840,.T.);
#923=FACE_BOUND('',#841,.T.);
#924=FACE_BOUND('',#842,.T.);
#925=FACE_BOUND('',#843,.T.);
#926=FACE_BOUND('',#844,.T.);
#927=FACE_BOUND('',#845,.T.);
#928=FACE_BOUND('',#846,.T.);
#929=FACE_BOUND('',#847,.T.);
#930=FACE_BOUND('',#848,.T.);
#931=FACE_BOUND('',#849,.T.);
#932=FACE_BOUND('',#850,.T.);
#933=FACE_BOUND('',#851,.T.);
#934=FACE_BOUND('',#852,.T.);
#935=FACE_BOUND('',#853,.T.);
#936=FACE_BOUND('',#854,.T.);
#937=FACE_BOUND('',#855,.T.);
#938=FACE_BOUND('',#856,.T.);
#939=FACE_BOUND('',#857,.T.);
#940=FACE_BOUND('',#858,.T.);
#941=FACE_BOUND('',#859,.T.);
#942=FACE_BOUND('',#860,.T.);
#943=FACE_BOUND('',#861,.T.);
#944=FACE_BOUND('',#862,.T.);
#945=FACE_BOUND('',#863,.T.);
#946=FACE_BOUND('',#864,.T.);
#947=FACE_BOUND('',#865,.T.);
#948=FACE_BOUND('',#866,.T.);
#949=FACE_BOUND('',#867,.T.);
#950=FACE_BOUND('',#868,.T.);
#951=FACE_BOUND('',#869,.T.);
#952=FACE_BOUND('',#870,.T.);
#953=FACE_BOUND('',#871,.T.);
#954=FACE_BOUND('',#872,.T.);
#955=FACE_BOUND('',#873,.T.);
#956=FACE_BOUND('',#874,.T.);
#957=FACE_BOUND('',#875,.T.);
#958=FACE_BOUND('',#876,.T.);
#959=FACE_BOUND('',#877,.T.);
#960=FACE_BOUND('',#878,.T.);
#961=FACE_BOUND('',#879,.T.);
#962=FACE_BOUND('',#880,.T.);
#963=FACE_BOUND('',#881,.T.);
#964=FACE_BOUND('',#882,.T.);
#965=FACE_BOUND('',#883,.T.);
#966=FACE_BOUND('',#884,.T.);
#967=FACE_BOUND('',#885,.T.);
#968=FACE_BOUND('',#886,.T.);
#969=FACE_BOUND('',#887,.T.);
#970=FACE_BOUND('',#888,.T.);
#971=FACE_BOUND('',#889,.T.);
#972=FACE_BOUND('',#890,.T.);
#973=FACE_BOUND('',#891,.T.);
#974=FACE_BOUND('',#892,.T.);
#975=FACE_BOUND('',#893,.T.);
#976=FACE_BOUND('',#894,.T.);
#977=FACE_BOUND('',#895,.T.);
#978=FACE_BOUND('',#896,.T.);
#979=FACE_BOUND('',#897,.T.);
#980=FACE_BOUND('',#898,.T.);
#981=FACE_BOUND('',#899,.T.);
#982=FACE_BOUND('',#900,.T.);
#983=FACE_BOUND('',#901,.T.);
#984=FACE_BOUND('',#902,.T.);
#985=FACE_BOUND('',#903,.T.);
#986=FACE_BOUND('',#12,.T.);
#987=FACE_BOUND('',#904,.T.);
#988=FACE_BOUND('',#905,.T.);
#989=FACE_BOUND('',#906,.T.);
#990=CYLINDRICAL_SURFACE('',#1079,0.002925);
#991=CYLINDRICAL_SURFACE('',#1082,0.011);
#992=CYLINDRICAL_SURFACE('',#1103,0.00075);
#993=CYLINDRICAL_SURFACE('',#1106,0.00075);
#994=CYLINDRICAL_SURFACE('',#1108,0.00075);
#995=CYLINDRICAL_SURFACE('',#1110,0.00075);
#996=CYLINDRICAL_SURFACE('',#1118,0.011);
#997=CYLINDRICAL_SURFACE('',#1131,0.011);
#998=CYLINDRICAL_SURFACE('',#1142,0.00075);
#999=CYLINDRICAL_SURFACE('',#1145,0.00075);
#1000=CYLINDRICAL_SURFACE('',#1165,0.001);
#1001=CYLINDRICAL_SURFACE('',#1166,0.001);
#1002=CYLINDRICAL_SURFACE('',#1170,0.002825);
#1003=CYLINDRICAL_SURFACE('',#1175,0.00125);
#1004=ADVANCED_FACE('',(#907,#908),#990,.T.);
#1005=ADVANCED_FACE('',(#909),#991,.F.);
#1006=ADVANCED_FACE('',(#910),#29,.T.);
#1007=ADVANCED_FACE('',(#911,#912,#913,#914,#915),#30,.T.);
#1008=ADVANCED_FACE('',(#916,#917,#918),#31,.T.);
#1009=ADVANCED_FACE('',(#919),#32,.F.);
#1010=ADVANCED_FACE('',(#920),#33,.T.);
#1011=ADVANCED_FACE('',(#921),#34,.T.);
#1012=ADVANCED_FACE('',(#922,#923),#992,.F.);
#1013=ADVANCED_FACE('',(#924,#925),#993,.F.);
#1014=ADVANCED_FACE('',(#926,#927),#994,.F.);
#1015=ADVANCED_FACE('',(#928),#35,.F.);
#1016=ADVANCED_FACE('',(#929,#930),#995,.F.);
#1017=ADVANCED_FACE('',(#931,#932),#36,.T.);
#1018=ADVANCED_FACE('',(#933),#37,.T.);
#1019=ADVANCED_FACE('',(#934),#38,.T.);
#1020=ADVANCED_FACE('',(#935),#39,.F.);
#1021=ADVANCED_FACE('',(#936),#996,.F.);
#1022=ADVANCED_FACE('',(#937,#938,#939),#40,.T.);
#1023=ADVANCED_FACE('',(#940),#41,.F.);
#1024=ADVANCED_FACE('',(#941),#42,.T.);
#1025=ADVANCED_FACE('',(#942),#43,.T.);
#1026=ADVANCED_FACE('',(#943),#44,.T.);
#1027=ADVANCED_FACE('',(#944),#45,.F.);
#1028=ADVANCED_FACE('',(#945),#997,.F.);
#1029=ADVANCED_FACE('',(#946),#46,.T.);
#1030=ADVANCED_FACE('',(#947),#47,.F.);
#1031=ADVANCED_FACE('',(#948),#48,.F.);
#1032=ADVANCED_FACE('',(#949),#49,.T.);
#1033=ADVANCED_FACE('',(#950),#50,.F.);
#1034=ADVANCED_FACE('',(#951),#51,.F.);
#1035=ADVANCED_FACE('',(#952),#52,.F.);
#1036=ADVANCED_FACE('',(#953),#53,.T.);
#1037=ADVANCED_FACE('',(#954),#54,.F.);
#1038=ADVANCED_FACE('',(#955,#956),#998,.F.);
#1039=ADVANCED_FACE('',(#957),#55,.F.);
#1040=ADVANCED_FACE('',(#958,#959),#999,.F.);
#1041=ADVANCED_FACE('',(#960),#56,.F.);
#1042=ADVANCED_FACE('',(#961),#57,.T.);
#1043=ADVANCED_FACE('',(#962),#58,.T.);
#1044=ADVANCED_FACE('',(#963),#59,.F.);
#1045=ADVANCED_FACE('',(#964),#60,.F.);
#1046=ADVANCED_FACE('',(#965),#61,.F.);
#1047=ADVANCED_FACE('',(#966),#62,.T.);
#1048=ADVANCED_FACE('',(#967),#63,.T.);
#1049=ADVANCED_FACE('',(#968),#13,.F.);
#1050=ADVANCED_FACE('',(#969),#64,.F.);
#1051=ADVANCED_FACE('',(#970),#65,.T.);
#1052=ADVANCED_FACE('',(#971),#14,.F.);
#1053=ADVANCED_FACE('',(#972),#66,.T.);
#1054=ADVANCED_FACE('',(#973),#15,.F.);
#1055=ADVANCED_FACE('',(#974),#16,.F.);
#1056=ADVANCED_FACE('',(#975),#67,.T.);
#1057=ADVANCED_FACE('',(#976),#17,.F.);
#1058=ADVANCED_FACE('',(#977),#68,.F.);
#1059=ADVANCED_FACE('',(#978),#1000,.T.);
#1060=ADVANCED_FACE('',(#979),#1001,.T.);
#1061=ADVANCED_FACE('',(#980,#981),#69,.F.);
#1062=ADVANCED_FACE('',(#982,#983),#1002,.T.);
#1063=ADVANCED_FACE('',(#984,#985),#70,.T.);
#1064=ADVANCED_FACE('',(#986,#987),#18,.F.);
#1065=ADVANCED_FACE('',(#988,#989),#1003,.F.);
#1066=CLOSED_SHELL('',(#1004,#1005,#1006,#1007,#1008,#1009,#1010,#1011,
#1012,#1013,#1014,#1015,#1016,#1017,#1018,#1019,#1020,#1021,#1022,#1023,
#1024,#1025,#1026,#1027,#1028,#1029,#1030,#1031,#1032,#1033,#1034,#1035,
#1036,#1037,#1038,#1039,#1040,#1041,#1042,#1043,#1044,#1045,#1046,#1047,
#1048,#1049,#1050,#1051,#1052,#1053,#1054,#1055,#1056,#1057,#1058,#1059,
#1060,#1061,#1062,#1063,#1064,#1065));
#1067=STYLED_ITEM('',(#1068),#1075);
#1068=PRESENTATION_STYLE_ASSIGNMENT((#1069));
#1069=SURFACE_STYLE_USAGE(.BOTH.,#1070);
#1070=SURFACE_SIDE_STYLE('',(#1071));
#1071=SURFACE_STYLE_FILL_AREA(#1072);
#1072=FILL_AREA_STYLE('',(#1073));
#1073=FILL_AREA_STYLE_COLOUR('',#1074);
#1074=COLOUR_RGB('',0.498039215686275,0.498039215686275,0.498039215686275);
#1075=MANIFOLD_SOLID_BREP('LX-16A',#1066);
#1076=SHAPE_DEFINITION_REPRESENTATION(#1809,#1077);
#1077=SHAPE_REPRESENTATION('LX-16A',(#1078),#1804);
#1078=AXIS2_PLACEMENT_3D('',#1469,#1176,#1177);
#1079=AXIS2_PLACEMENT_3D('',#1470,#1178,#1179);
#1080=AXIS2_PLACEMENT_3D('',#1471,#1180,#1181);
#1081=AXIS2_PLACEMENT_3D('',#1473,#1182,#1183);
#1082=AXIS2_PLACEMENT_3D('',#1475,#1184,#1185);
#1083=AXIS2_PLACEMENT_3D('',#1479,#1187,#1188);
#1084=AXIS2_PLACEMENT_3D('',#1483,#1190,#1191);
#1085=AXIS2_PLACEMENT_3D('',#1484,#1192,#1193);
#1086=AXIS2_PLACEMENT_3D('',#1505,#1204,#1205);
#1087=AXIS2_PLACEMENT_3D('',#1509,#1207,#1208);
#1088=AXIS2_PLACEMENT_3D('',#1515,#1211,#1212);
#1089=AXIS2_PLACEMENT_3D('',#1533,#1222,#1223);
#1090=AXIS2_PLACEMENT_3D('',#1539,#1226,#1227);
#1091=AXIS2_PLACEMENT_3D('',#1540,#1228,#1229);
#1092=AXIS2_PLACEMENT_3D('',#1542,#1230,#1231);
#1093=AXIS2_PLACEMENT_3D('',#1544,#1232,#1233);
#1094=AXIS2_PLACEMENT_3D('',#1546,#1234,#1235);
#1095=AXIS2_PLACEMENT_3D('',#1548,#1236,#1237);
#1096=AXIS2_PLACEMENT_3D('',#1549,#1238,#1239);
#1097=AXIS2_PLACEMENT_3D('',#1551,#1240,#1241);
#1098=AXIS2_PLACEMENT_3D('',#1556,#1243,#1244);
#1099=AXIS2_PLACEMENT_3D('',#1562,#1247,#1248);
#1100=AXIS2_PLACEMENT_3D('',#1565,#1250,#1251);
#1101=AXIS2_PLACEMENT_3D('',#1574,#1256,#1257);
#1102=AXIS2_PLACEMENT_3D('',#1589,#1266,#1267);
#1103=AXIS2_PLACEMENT_3D('',#1600,#1274,#1275);
#1104=AXIS2_PLACEMENT_3D('',#1601,#1276,#1277);
#1105=AXIS2_PLACEMENT_3D('',#1603,#1278,#1279);
#1106=AXIS2_PLACEMENT_3D('',#1605,#1280,#1281);
#1107=AXIS2_PLACEMENT_3D('',#1606,#1282,#1283);
#1108=AXIS2_PLACEMENT_3D('',#1608,#1284,#1285);
#1109=AXIS2_PLACEMENT_3D('',#1609,#1286,#1287);
#1110=AXIS2_PLACEMENT_3D('',#1627,#1297,#1298);
#1111=AXIS2_PLACEMENT_3D('',#1628,#1299,#1300);
#1112=AXIS2_PLACEMENT_3D('',#1630,#1301,#1302);
#1113=AXIS2_PLACEMENT_3D('',#1635,#1306,#1307);
#1114=AXIS2_PLACEMENT_3D('',#1638,#1309,#1310);
#1115=AXIS2_PLACEMENT_3D('',#1644,#1315,#1316);
#1116=AXIS2_PLACEMENT_3D('',#1648,#1319,#1320);
#1117=AXIS2_PLACEMENT_3D('',#1652,#1323,#1324);
#1118=AXIS2_PLACEMENT_3D('',#1656,#1327,#1328);
#1119=AXIS2_PLACEMENT_3D('',#1657,#1329,#1330);
#1120=AXIS2_PLACEMENT_3D('',#1661,#1332,#1333);
#1121=AXIS2_PLACEMENT_3D('',#1665,#1335,#1336);
#1122=AXIS2_PLACEMENT_3D('',#1666,#1337,#1338);
#1123=AXIS2_PLACEMENT_3D('',#1667,#1339,#1340);
#1124=AXIS2_PLACEMENT_3D('',#1670,#1342,#1343);
#1125=AXIS2_PLACEMENT_3D('',#1673,#1345,#1346);
#1126=AXIS2_PLACEMENT_3D('',#1684,#1348,#1349);
#1127=AXIS2_PLACEMENT_3D('',#1695,#1351,#1352);
#1128=AXIS2_PLACEMENT_3D('',#1696,#1353,#1354);
#1129=AXIS2_PLACEMENT_3D('',#1697,#1355,#1356);
#1130=AXIS2_PLACEMENT_3D('',#1701,#1359,#1360);
#1131=AXIS2_PLACEMENT_3D('',#1703,#1362,#1363);
#1132=AXIS2_PLACEMENT_3D('',#1706,#1365,#1366);
#1133=AXIS2_PLACEMENT_3D('',#1707,#1367,#1368);
#1134=AXIS2_PLACEMENT_3D('',#1714,#1373,#1374);
#1135=AXIS2_PLACEMENT_3D('',#1720,#1378,#1379);
#1136=AXIS2_PLACEMENT_3D('',#1723,#1382,#1383);
#1137=AXIS2_PLACEMENT_3D('',#1724,#1384,#1385);
#1138=AXIS2_PLACEMENT_3D('',#1725,#1386,#1387);
#1139=AXIS2_PLACEMENT_3D('',#1731,#1391,#1392);
#1140=AXIS2_PLACEMENT_3D('',#1734,#1395,#1396);
#1141=AXIS2_PLACEMENT_3D('',#1735,#1397,#1398);
#1142=AXIS2_PLACEMENT_3D('',#1736,#1399,#1400);
#1143=AXIS2_PLACEMENT_3D('',#1737,#1401,#1402);
#1144=AXIS2_PLACEMENT_3D('',#1739,#1403,#1404);
#1145=AXIS2_PLACEMENT_3D('',#1740,#1405,#1406);
#1146=AXIS2_PLACEMENT_3D('',#1741,#1407,#1408);
#1147=AXIS2_PLACEMENT_3D('',#1743,#1409,#1410);
#1148=AXIS2_PLACEMENT_3D('',#1744,#1411,#1412);
#1149=AXIS2_PLACEMENT_3D('',#1745,#1413,#1414);
#1150=AXIS2_PLACEMENT_3D('',#1746,#1415,#1416);
#1151=AXIS2_PLACEMENT_3D('',#1748,#1418,#1419);
#1152=AXIS2_PLACEMENT_3D('',#1750,#1421,#1422);
#1153=AXIS2_PLACEMENT_3D('',#1751,#1423,#1424);
#1154=AXIS2_PLACEMENT_3D('',#1752,#1425,#1426);
#1155=AXIS2_PLACEMENT_3D('',#1757,#1427,#1428);
#1156=AXIS2_PLACEMENT_3D('',#1762,#1429,#1430);
#1157=AXIS2_PLACEMENT_3D('',#1763,#1431,#1432);
#1158=AXIS2_PLACEMENT_3D('',#1768,#1433,#1434);
#1159=AXIS2_PLACEMENT_3D('',#1773,#1435,#1436);
#1160=AXIS2_PLACEMENT_3D('',#1774,#1437,#1438);
#1161=AXIS2_PLACEMENT_3D('',#1775,#1439,#1440);
#1162=AXIS2_PLACEMENT_3D('',#1780,#1441,#1442);
#1163=AXIS2_PLACEMENT_3D('',#1781,#1443,#1444);
#1164=AXIS2_PLACEMENT_3D('',#1786,#1445,#1446);
#1165=AXIS2_PLACEMENT_3D('',#1787,#1447,#1448);
#1166=AXIS2_PLACEMENT_3D('',#1788,#1449,#1450);
#1167=AXIS2_PLACEMENT_3D('',#1789,#1451,#1452);
#1168=AXIS2_PLACEMENT_3D('',#1790,#1453,#1454);
#1169=AXIS2_PLACEMENT_3D('',#1792,#1455,#1456);
#1170=AXIS2_PLACEMENT_3D('',#1794,#1457,#1458);
#1171=AXIS2_PLACEMENT_3D('',#1795,#1459,#1460);
#1172=AXIS2_PLACEMENT_3D('',#1797,#1461,#1462);
#1173=AXIS2_PLACEMENT_3D('',#1798,#1463,#1464);
#1174=AXIS2_PLACEMENT_3D('',#1800,#1465,#1466);
#1175=AXIS2_PLACEMENT_3D('',#1802,#1467,#1468);
#1176=DIRECTION('',(0.,0.,1.));
#1177=DIRECTION('',(1.,0.,0.));
#1178=DIRECTION('',(0.,0.,-1.));
#1179=DIRECTION('',(-1.,0.,0.));
#1180=DIRECTION('',(0.,0.,1.));
#1181=DIRECTION('',(1.,0.,0.));
#1182=DIRECTION('',(0.,0.,-1.));
#1183=DIRECTION('',(-1.,0.,0.));
#1184=DIRECTION('',(0.,0.,1.));
#1185=DIRECTION('',(1.,0.,0.));
#1186=DIRECTION('',(0.,0.,1.));
#1187=DIRECTION('',(0.,0.,-1.));
#1188=DIRECTION('',(-1.,0.,0.));
#1189=DIRECTION('',(0.,0.,-1.));
#1190=DIRECTION('',(0.,0.,-1.));
#1191=DIRECTION('',(-1.,0.,0.));
#1192=DIRECTION('',(0.,-1.,-3.46944695195362E-16));
#1193=DIRECTION('',(0.,3.46944695195362E-16,-1.));
#1194=DIRECTION('',(1.,0.,0.));
#1195=DIRECTION('',(0.707106781186547,-2.45326946669341E-16,0.707106781186549));
#1196=DIRECTION('',(0.,0.,-1.));
#1197=DIRECTION('',(-1.,0.,0.));
#1198=DIRECTION('',(0.,0.,-1.));
#1199=DIRECTION('',(0.707106781186548,2.4532694666934E-16,-0.707106781186547));
#1200=DIRECTION('',(1.,0.,0.));
#1201=DIRECTION('',(0.,3.46944695195362E-16,-1.));
#1202=DIRECTION('',(1.,0.,0.));
#1203=DIRECTION('',(0.,3.46944695195362E-16,-1.));
#1204=DIRECTION('',(0.,0.,-1.));
#1205=DIRECTION('',(1.,0.,0.));
#1206=DIRECTION('',(1.,0.,0.));
#1207=DIRECTION('',(0.,0.,-1.));
#1208=DIRECTION('',(-1.,0.,0.));
#1209=DIRECTION('',(5.67662658645569E-17,-1.,0.));
#1210=DIRECTION('',(0.939692620785909,-0.342020143325668,0.));
#1211=DIRECTION('',(0.,0.,-1.));
#1212=DIRECTION('',(-1.,0.,0.));
#1213=DIRECTION('',(0.,-1.,0.));
#1214=DIRECTION('',(0.,-1.,0.));
#1215=DIRECTION('',(1.,0.,0.));
#1216=DIRECTION('',(0.,-1.,0.));
#1217=DIRECTION('',(-1.,0.,0.));
#1218=DIRECTION('',(0.,-1.,0.));
#1219=DIRECTION('',(1.,0.,0.));
#1220=DIRECTION('',(0.,-1.,0.));
#1221=DIRECTION('',(0.,1.,0.));
#1222=DIRECTION('',(0.,0.,-1.));
#1223=DIRECTION('',(-1.,0.,0.));
#1224=DIRECTION('',(0.939692620785909,0.342020143325668,0.));
#1225=DIRECTION('',(5.67662658645569E-17,-1.,0.));
#1226=DIRECTION('',(0.,0.,-1.));
#1227=DIRECTION('',(-1.,0.,0.));
#1228=DIRECTION('',(0.,0.,-1.));
#1229=DIRECTION('',(-1.,0.,0.));
#1230=DIRECTION('',(0.,0.,-1.));
#1231=DIRECTION('',(-1.,0.,0.));
#1232=DIRECTION('',(0.,0.,-1.));
#1233=DIRECTION('',(-1.,0.,0.));
#1234=DIRECTION('',(0.,0.,-1.));
#1235=DIRECTION('',(-1.,0.,0.));
#1236=DIRECTION('',(0.,0.,1.));
#1237=DIRECTION('',(1.,0.,0.));
#1238=DIRECTION('',(0.,0.,1.));
#1239=DIRECTION('',(1.,0.,0.));
#1240=DIRECTION('',(0.,0.,1.));
#1241=DIRECTION('',(1.,0.,0.));
#1242=DIRECTION('',(5.67662658645569E-17,-1.,0.));
#1243=DIRECTION('',(0.,0.,1.));
#1244=DIRECTION('',(1.,0.,0.));
#1245=DIRECTION('',(1.,0.,0.));
#1246=DIRECTION('',(-2.59901047325823E-16,1.,0.));
#1247=DIRECTION('',(0.,0.,1.));
#1248=DIRECTION('',(1.,0.,0.));
#1249=DIRECTION('',(-0.939692620785909,0.342020143325668,0.));
#1250=DIRECTION('',(0.,-1.,0.));
#1251=DIRECTION('',(0.,0.,-1.));
#1252=DIRECTION('',(1.,0.,0.));
#1253=DIRECTION('',(0.,0.,-1.));
#1254=DIRECTION('',(1.,0.,0.));
#1255=DIRECTION('',(0.,0.,1.));
#1256=DIRECTION('',(-1.,-5.67662658645569E-17,0.));
#1257=DIRECTION('',(5.67662658645569E-17,-1.,0.));
#1258=DIRECTION('',(0.,0.,1.));
#1259=DIRECTION('',(-4.1367817070567E-17,0.728739444818684,-0.684791078771735));
#1260=DIRECTION('',(0.,0.,-1.));
#1261=DIRECTION('',(5.67662658645569E-17,-1.,0.));
#1262=DIRECTION('',(0.,0.,-1.));
#1263=DIRECTION('',(5.67662658645569E-17,-1.,0.));
#1264=DIRECTION('',(0.,0.,1.));
#1265=DIRECTION('',(-4.13678170705668E-17,0.728739444818681,0.684791078771738));
#1266=DIRECTION('',(0.,-1.,0.));
#1267=DIRECTION('',(0.,0.,-1.));
#1268=DIRECTION('',(0.,0.,1.));
#1269=DIRECTION('',(0.,0.,1.));
#1270=DIRECTION('',(1.,0.,0.));
#1271=DIRECTION('',(0.,0.,-1.));
#1272=DIRECTION('',(1.,0.,0.));
#1273=DIRECTION('',(0.,0.,-1.));
#1274=DIRECTION('',(0.,0.,1.));
#1275=DIRECTION('',(1.,0.,0.));
#1276=DIRECTION('',(0.,0.,1.));
#1277=DIRECTION('',(1.,0.,0.));
#1278=DIRECTION('',(0.,0.,1.));
#1279=DIRECTION('',(1.,0.,0.));
#1280=DIRECTION('',(0.,0.,1.));
#1281=DIRECTION('',(1.,0.,0.));
#1282=DIRECTION('',(0.,0.,1.));
#1283=DIRECTION('',(1.,0.,0.));
#1284=DIRECTION('',(0.,0.,1.));
#1285=DIRECTION('',(1.,0.,0.));
#1286=DIRECTION('',(-1.,-5.67662658645569E-17,0.));
#1287=DIRECTION('',(5.67662658645569E-17,-1.,0.));
#1288=DIRECTION('',(5.67662658645569E-17,-1.,0.));
#1289=DIRECTION('',(0.,0.,1.));
#1290=DIRECTION('',(-4.13678170705669E-17,0.728739444818683,0.684791078771736));
#1291=DIRECTION('',(0.,0.,1.));
#1292=DIRECTION('',(5.67662658645569E-17,-1.,0.));
#1293=DIRECTION('',(0.,0.,1.));
#1294=DIRECTION('',(5.67662658645569E-17,-1.,0.));
#1295=DIRECTION('',(0.,0.,-1.));
#1296=DIRECTION('',(-4.13678170705669E-17,0.728739444818683,-0.684791078771736));
#1297=DIRECTION('',(0.,0.,1.));
#1298=DIRECTION('',(1.,0.,0.));
#1299=DIRECTION('',(0.,0.,1.));
#1300=DIRECTION('',(1.,0.,0.));
#1301=DIRECTION('',(0.,0.,1.));
#1302=DIRECTION('',(1.,0.,0.));
#1303=DIRECTION('',(0.707106781186549,-0.707106781186547,0.));
#1304=DIRECTION('',(-0.707106781186547,-0.707106781186548,0.));
#1305=DIRECTION('',(-0.939692620785909,0.342020143325668,0.));
#1306=DIRECTION('',(0.,0.,1.));
#1307=DIRECTION('',(1.,0.,0.));
#1308=DIRECTION('',(0.939692620785909,0.342020143325668,0.));
#1309=DIRECTION('',(0.,0.,-1.));
#1310=DIRECTION('',(1.,0.,0.));
#1311=DIRECTION('',(-0.707106781186549,0.707106781186547,0.));
#1312=DIRECTION('',(-0.939692620785909,-0.342020143325668,0.));
#1313=DIRECTION('',(0.,1.,0.));
#1314=DIRECTION('',(0.,-1.,0.));
#1315=DIRECTION('',(0.,0.,-1.));
#1316=DIRECTION('',(-1.,0.,0.));
#1317=DIRECTION('',(0.939692620785909,-0.342020143325668,0.));
#1318=DIRECTION('',(0.707106781186547,0.707106781186548,0.));
#1319=DIRECTION('',(-0.342020143325668,0.939692620785909,0.));
#1320=DIRECTION('',(-0.939692620785909,-0.342020143325668,0.));
#1321=DIRECTION('',(0.,0.,-1.));
#1322=DIRECTION('',(0.939692620785909,0.342020143325668,0.));
#1323=DIRECTION('',(-0.342020143325668,-0.939692620785909,0.));
#1324=DIRECTION('',(0.939692620785909,-0.342020143325668,0.));
#1325=DIRECTION('',(0.939692620785909,-0.342020143325668,0.));
#1326=DIRECTION('',(0.,0.,-1.));
#1327=DIRECTION('',(0.,0.,-1.));
#1328=DIRECTION('',(-1.,0.,0.));
#1329=DIRECTION('',(0.,0.,1.));
#1330=DIRECTION('',(1.,0.,0.));
#1331=DIRECTION('',(0.,0.,-1.));
#1332=DIRECTION('',(0.,0.,1.));
#1333=DIRECTION('',(1.,0.,0.));
#1334=DIRECTION('',(0.,0.,-1.));
#1335=DIRECTION('',(0.,0.,1.));
#1336=DIRECTION('',(1.,0.,0.));
#1337=DIRECTION('',(0.,0.,1.));
#1338=DIRECTION('',(1.,0.,0.));
#1339=DIRECTION('',(0.,0.,1.));
#1340=DIRECTION('',(1.,0.,0.));
#1341=DIRECTION('',(-0.939692620785909,-0.342020143325668,0.));
#1342=DIRECTION('',(0.,0.,1.));
#1343=DIRECTION('',(1.,0.,0.));
#1344=DIRECTION('',(-1.29950523662911E-16,1.,0.));
#1345=DIRECTION('',(1.,2.59901047325823E-16,0.));
#1346=DIRECTION('',(-2.59901047325823E-16,1.,0.));
#1347=DIRECTION('',(2.59901047325823E-16,-1.,0.));
#1348=DIRECTION('',(1.,1.29950523662911E-16,0.));
#1349=DIRECTION('',(-1.29950523662911E-16,1.,0.));
#1350=DIRECTION('',(1.29950523662911E-16,-1.,0.));
#1351=DIRECTION('',(0.,0.,1.));
#1352=DIRECTION('',(1.,0.,0.));
#1353=DIRECTION('',(0.,0.,1.));
#1354=DIRECTION('',(1.,0.,0.));
#1355=DIRECTION('',(0.342020143325668,0.939692620785909,0.));
#1356=DIRECTION('',(-0.939692620785909,0.342020143325668,0.));
#1357=DIRECTION('',(0.,0.,1.));
#1358=DIRECTION('',(-0.939692620785909,0.342020143325668,0.));
#1359=DIRECTION('',(0.342020143325668,-0.939692620785909,0.));
#1360=DIRECTION('',(0.939692620785909,0.342020143325668,0.));
#1361=DIRECTION('',(-0.939692620785909,-0.342020143325668,0.));
#1362=DIRECTION('',(0.,0.,1.));
#1363=DIRECTION('',(1.,0.,0.));
#1364=DIRECTION('',(0.,0.,-1.));
#1365=DIRECTION('',(0.,0.,-1.));
#1366=DIRECTION('',(-1.,0.,0.));
#1367=DIRECTION('',(0.,0.6,-0.8));
#1368=DIRECTION('',(0.,0.8,0.6));
#1369=DIRECTION('',(0.,-0.8,-0.6));
#1370=DIRECTION('',(-1.,0.,0.));
#1371=DIRECTION('',(0.,-0.8,-0.6));
#1372=DIRECTION('',(-1.,0.,0.));
#1373=DIRECTION('',(0.,1.,4.81867632215778E-16));
#1374=DIRECTION('',(0.,-4.81867632215778E-16,1.));
#1375=DIRECTION('',(0.,4.81867632215778E-16,-1.));
#1376=DIRECTION('',(-1.,0.,0.));
#1377=DIRECTION('',(0.,4.81867632215778E-16,-1.));
#1378=DIRECTION('',(0.,0.,1.));
#1379=DIRECTION('',(1.,0.,0.));
#1380=DIRECTION('',(0.,1.,0.));
#1381=DIRECTION('',(0.,1.,0.));
#1382=DIRECTION('',(1.,0.,0.));
#1383=DIRECTION('',(0.,1.,0.));
#1384=DIRECTION('',(1.,0.,0.));
#1385=DIRECTION('',(0.,1.,0.));
#1386=DIRECTION('',(0.,-1.,-3.46944695195362E-16));
#1387=DIRECTION('',(0.,3.46944695195362E-16,-1.));
#1388=DIRECTION('',(0.,3.46944695195362E-16,-1.));
#1389=DIRECTION('',(0.,3.46944695195362E-16,-1.));
#1390=DIRECTION('',(1.,0.,0.));
#1391=DIRECTION('',(0.,0.,1.));
#1392=DIRECTION('',(1.,0.,0.));
#1393=DIRECTION('',(0.,-1.,0.));
#1394=DIRECTION('',(0.,-1.,0.));
#1395=DIRECTION('',(1.,0.,0.));
#1396=DIRECTION('',(0.,1.,0.));
#1397=DIRECTION('',(1.,0.,0.));
#1398=DIRECTION('',(0.,1.,0.));
#1399=DIRECTION('',(0.,0.,1.));
#1400=DIRECTION('',(1.,0.,0.));
#1401=DIRECTION('',(0.,0.,1.));
#1402=DIRECTION('',(1.,0.,0.));
#1403=DIRECTION('',(0.,0.,1.));
#1404=DIRECTION('',(1.,0.,0.));
#1405=DIRECTION('',(0.,0.,1.));
#1406=DIRECTION('',(1.,0.,0.));
#1407=DIRECTION('',(0.,0.,1.));
#1408=DIRECTION('',(1.,0.,0.));
#1409=DIRECTION('',(0.,0.,1.));
#1410=DIRECTION('',(1.,0.,0.));
#1411=DIRECTION('',(0.,0.,1.));
#1412=DIRECTION('',(1.,0.,0.));
#1413=DIRECTION('',(0.,0.,1.));
#1414=DIRECTION('',(1.,0.,0.));
#1415=DIRECTION('',(-1.,0.,0.));
#1416=DIRECTION('',(0.,0.,1.));
#1417=DIRECTION('',(0.,1.,0.));
#1418=DIRECTION('',(1.,0.,0.));
#1419=DIRECTION('',(0.,0.,-1.));
#1420=DIRECTION('',(0.,-1.,0.));
#1421=DIRECTION('',(-0.707106781186547,-0.707106781186549,0.));
#1422=DIRECTION('',(0.,0.,1.));
#1423=DIRECTION('',(-0.707106781186548,0.707106781186547,0.));
#1424=DIRECTION('',(0.,0.,-1.));
#1425=DIRECTION('',(0.707106781186549,0.,-0.707106781186547));
#1426=DIRECTION('',(0.,-1.,0.));
#1427=DIRECTION('',(0.,0.,-1.));
#1428=DIRECTION('',(-1.,0.,0.));
#1429=DIRECTION('',(-0.241844762647975,-0.664463024388676,0.707106781186546));
#1430=DIRECTION('',(-0.939692620785909,0.342020143325668,0.));
#1431=DIRECTION('',(-0.707106781186547,0.,-0.707106781186548));
#1432=DIRECTION('',(0.,1.,0.));
#1433=DIRECTION('',(0.,0.,-1.));
#1434=DIRECTION('',(-1.,0.,0.));
#1435=DIRECTION('',(-0.241844762647975,0.664463024388675,-0.707106781186547));
#1436=DIRECTION('',(-0.939692620785909,-0.342020143325668,0.));
#1437=DIRECTION('',(0.,0.,1.));
#1438=DIRECTION('',(1.,0.,0.));
#1439=DIRECTION('',(0.,0.,1.));
#1440=DIRECTION('',(1.,0.,0.));
#1441=DIRECTION('',(0.241844762647975,0.664463024388674,0.707106781186549));
#1442=DIRECTION('',(0.939692620785909,-0.342020143325668,0.));
#1443=DIRECTION('',(0.,0.,1.));
#1444=DIRECTION('',(1.,0.,0.));
#1445=DIRECTION('',(0.241844762647975,-0.664463024388675,-0.707106781186548));
#1446=DIRECTION('',(0.939692620785909,0.342020143325668,0.));
#1447=DIRECTION('',(0.,0.,1.));
#1448=DIRECTION('',(1.,0.,0.));
#1449=DIRECTION('',(0.,0.,-1.));
#1450=DIRECTION('',(-1.,0.,0.));
#1451=DIRECTION('',(0.,0.,-1.));
#1452=DIRECTION('',(-1.,0.,0.));
#1453=DIRECTION('',(0.,0.,-1.));
#1454=DIRECTION('',(-1.,0.,0.));
#1455=DIRECTION('',(0.,0.,-1.));
#1456=DIRECTION('',(-1.,0.,0.));
#1457=DIRECTION('',(0.,0.,-1.));
#1458=DIRECTION('',(-1.,0.,0.));
#1459=DIRECTION('',(0.,0.,-1.));
#1460=DIRECTION('',(-1.,0.,0.));
#1461=DIRECTION('',(0.,0.,1.));
#1462=DIRECTION('',(1.,0.,0.));
#1463=DIRECTION('',(0.,0.,1.));
#1464=DIRECTION('',(1.,0.,0.));
#1465=DIRECTION('',(0.,0.,-1.));
#1466=DIRECTION('',(-1.,0.,0.));
#1467=DIRECTION('',(0.,0.,-1.));
#1468=DIRECTION('',(-1.,0.,0.));
#1469=CARTESIAN_POINT('',(0.,0.,0.));
#1470=CARTESIAN_POINT('',(4.33680868994202E-19,0.0351,0.003502));
#1471=CARTESIAN_POINT('',(4.33680868994202E-19,0.0351,0.));
#1472=CARTESIAN_POINT('',(0.002925,0.0351,0.));
#1473=CARTESIAN_POINT('',(0.,0.0351,0.00205));
#1474=CARTESIAN_POINT('',(-0.002925,0.0351,0.00205));
#1475=CARTESIAN_POINT('',(2.60208521396521E-17,0.0351,-0.030502));
#1476=CARTESIAN_POINT('',(0.00950252258054536,0.0295590556214463,-0.030502));
#1477=CARTESIAN_POINT('',(0.00950252258054536,0.0295590556214463,-0.0295));
#1478=CARTESIAN_POINT('',(0.00950252258054536,0.0295590556214463,-0.0291));
#1479=CARTESIAN_POINT('',(2.60208521396521E-17,0.0351,-0.0295));
#1480=CARTESIAN_POINT('',(0.00665,0.0263377228986981,-0.0295));
#1481=CARTESIAN_POINT('',(0.00665,0.0263377228986981,-0.029098));
#1482=CARTESIAN_POINT('',(0.00665,0.0263377228986981,-0.0291));
#1483=CARTESIAN_POINT('',(2.60208521396521E-17,0.0351,-0.0291));
#1484=CARTESIAN_POINT('',(-0.01,0.02375,-0.0241));
#1485=CARTESIAN_POINT('',(-0.01,0.02375,-0.0305));
#1486=CARTESIAN_POINT('',(-0.01,0.02375,-0.0305));
#1487=CARTESIAN_POINT('',(-0.00765,0.02375,-0.0305));
#1488=CARTESIAN_POINT('',(-0.005625,0.02375,-0.028475));
#1489=CARTESIAN_POINT('',(-0.00665,0.02375,-0.0295));
#1490=CARTESIAN_POINT('',(-0.00665,0.02375,-0.029098));
#1491=CARTESIAN_POINT('',(-0.00665,0.02375,-0.0291));
#1492=CARTESIAN_POINT('',(-0.01,0.02375,-0.0291));
#1493=CARTESIAN_POINT('',(0.00665,0.02375,-0.0291));
#1494=CARTESIAN_POINT('',(0.00665,0.02375,-0.029098));
#1495=CARTESIAN_POINT('',(0.00665,0.02375,-0.0295));
#1496=CARTESIAN_POINT('',(-0.004375,0.02375,-0.018475));
#1497=CARTESIAN_POINT('',(0.00765,0.02375,-0.0305));
#1498=CARTESIAN_POINT('',(-0.01,0.02375,-0.0305));
#1499=CARTESIAN_POINT('',(0.01,0.02375,-0.0305));
#1500=CARTESIAN_POINT('',(0.01,0.02375,-0.0241));
#1501=CARTESIAN_POINT('',(0.01,0.02375,-0.0191));
#1502=CARTESIAN_POINT('',(-0.01,0.02375,-0.0191));
#1503=CARTESIAN_POINT('',(-0.01,0.02375,-0.0191));
#1504=CARTESIAN_POINT('',(-0.01,0.02375,-0.0241));
#1505=CARTESIAN_POINT('',(0.,0.,-0.0305));
#1506=CARTESIAN_POINT('',(-0.009675,0.,-0.0305));
#1507=CARTESIAN_POINT('',(-0.01125,0.,-0.0305));
#1508=CARTESIAN_POINT('',(0.01125,0.,-0.0305));
#1509=CARTESIAN_POINT('',(-0.01125,0.001,-0.0305));
#1510=CARTESIAN_POINT('',(-0.01225,0.001,-0.0305));
#1511=CARTESIAN_POINT('',(-0.01225,0.0152795278107232,-0.0305));
#1512=CARTESIAN_POINT('',(-0.01225,0.0294948778489704,-0.0305));
#1513=CARTESIAN_POINT('',(0.00804649322937182,0.0221075584534936,-0.0305));
#1514=CARTESIAN_POINT('',(-0.0101759662629389,0.0287399913038166,-0.0305));
#1515=CARTESIAN_POINT('',(2.60208521396521E-17,0.0351,-0.0305));
#1516=CARTESIAN_POINT('',(-0.00765,0.0258545957362589,-0.0305));
#1517=CARTESIAN_POINT('',(-0.00765,0.02375,-0.0305));
#1518=CARTESIAN_POINT('',(-0.01,0.021,-0.0305));
#1519=CARTESIAN_POINT('',(-0.01,0.01825,-0.0305));
#1520=CARTESIAN_POINT('',(-0.01,0.01825,-0.0305));
#1521=CARTESIAN_POINT('',(-0.00925,0.01825,-0.0305));
#1522=CARTESIAN_POINT('',(-0.00925,0.01705,-0.0305));
#1523=CARTESIAN_POINT('',(-0.00925,0.00475,-0.0305));
#1524=CARTESIAN_POINT('',(0.00925,0.00475,-0.0305));
#1525=CARTESIAN_POINT('',(0.00925,0.00475,-0.0305));
#1526=CARTESIAN_POINT('',(0.00925,0.01705,-0.0305));
#1527=CARTESIAN_POINT('',(0.00925,0.01825,-0.0305));
#1528=CARTESIAN_POINT('',(-0.01,0.01825,-0.0305));
#1529=CARTESIAN_POINT('',(0.01,0.01825,-0.0305));
#1530=CARTESIAN_POINT('',(0.01,0.021,-0.0305));
#1531=CARTESIAN_POINT('',(0.00765,0.0263377228986981,-0.0305));
#1532=CARTESIAN_POINT('',(0.00765,0.0258545957362589,-0.0305));
#1533=CARTESIAN_POINT('',(2.60208521396521E-17,0.0351,-0.0305));
#1534=CARTESIAN_POINT('',(0.010175966262939,0.0287399913038166,-0.0305));
#1535=CARTESIAN_POINT('',(0.0125920201433257,0.0296193630006605,-0.0305));
#1536=CARTESIAN_POINT('',(0.01225,0.0294948778489704,-0.0305));
#1537=CARTESIAN_POINT('',(0.01225,0.0152795278107232,-0.0305));
#1538=CARTESIAN_POINT('',(0.01225,0.001,-0.0305));
#1539=CARTESIAN_POINT('',(0.01125,0.001,-0.0305));
#1540=CARTESIAN_POINT('',(-0.0102,0.00233,-0.0305));
#1541=CARTESIAN_POINT('',(-0.01095,0.00233,-0.0305));
#1542=CARTESIAN_POINT('',(0.0102,0.00233,-0.0305));
#1543=CARTESIAN_POINT('',(0.00945,0.00233,-0.0305));
#1544=CARTESIAN_POINT('',(-0.0102,0.02665,-0.0305));
#1545=CARTESIAN_POINT('',(-0.01095,0.02665,-0.0305));
#1546=CARTESIAN_POINT('',(0.0102,0.02665,-0.0305));
#1547=CARTESIAN_POINT('',(0.00945,0.02665,-0.0305));
#1548=CARTESIAN_POINT('',(0.,0.0295590556214463,0.0015));
#1549=CARTESIAN_POINT('',(-0.0102,0.02665,0.0015));
#1550=CARTESIAN_POINT('',(-0.00945,0.02665,0.0015));
#1551=CARTESIAN_POINT('',(-0.0102,0.00585,0.0015));
#1552=CARTESIAN_POINT('',(-0.00945,0.00585,0.0015));
#1553=CARTESIAN_POINT('',(-0.01225,0.0152795278107232,0.0015));
#1554=CARTESIAN_POINT('',(-0.01225,0.0294948778489704,0.0015));
#1555=CARTESIAN_POINT('',(-0.01225,0.001,0.0015));
#1556=CARTESIAN_POINT('',(-0.01125,0.001,0.0015));
#1557=CARTESIAN_POINT('',(-0.01125,0.,0.0015));
#1558=CARTESIAN_POINT('',(-0.009675,0.,0.0015));
#1559=CARTESIAN_POINT('',(-0.0071,0.,0.0015));
#1560=CARTESIAN_POINT('',(-0.0071,0.0295590556214463,0.0015));
#1561=CARTESIAN_POINT('',(-0.0071,0.0254258075272404,0.0015));
#1562=CARTESIAN_POINT('',(2.60208521396521E-17,0.0351,0.0015));
#1563=CARTESIAN_POINT('',(-0.0101759662629389,0.0287399913038166,0.0015));
#1564=CARTESIAN_POINT('',(-0.0125920201433257,0.0296193630006605,0.0015));
#1565=CARTESIAN_POINT('',(-8.67361737988404E-18,0.0452,-0.029102));
#1566=CARTESIAN_POINT('',(-8.67361737988404E-18,0.0452,0.));
#1567=CARTESIAN_POINT('',(-0.01025,0.0452,0.));
#1568=CARTESIAN_POINT('',(0.01025,0.0452,0.));
#1569=CARTESIAN_POINT('',(0.01025,0.0452,-0.029102));
#1570=CARTESIAN_POINT('',(0.01025,0.0452,-0.0291));
#1571=CARTESIAN_POINT('',(-8.67361737988404E-18,0.0452,-0.0291));
#1572=CARTESIAN_POINT('',(-0.01025,0.0452,-0.0291));
#1573=CARTESIAN_POINT('',(-0.01025,0.0452,0.));
#1574=CARTESIAN_POINT('',(-0.01225,0.0152795278107232,-0.029102));
#1575=CARTESIAN_POINT('',(-0.01225,0.001,-0.029102));
#1576=CARTESIAN_POINT('',(-0.01225,0.0372171040535026,-0.00575651898043843));
#1577=CARTESIAN_POINT('',(-0.01225,0.0305590556214464,0.0005));
#1578=CARTESIAN_POINT('',(-0.01225,0.0305590556214464,0.001502));
#1579=CARTESIAN_POINT('',(-0.01225,0.0305590556214464,0.));
#1580=CARTESIAN_POINT('',(-0.01225,0.0152795278107232,0.));
#1581=CARTESIAN_POINT('',(-0.01225,0.0432,0.));
#1582=CARTESIAN_POINT('',(-0.01225,0.0432,-0.0291));
#1583=CARTESIAN_POINT('',(-0.01225,0.0432,-0.0291));
#1584=CARTESIAN_POINT('',(-0.01225,0.0152795278107232,-0.0291));
#1585=CARTESIAN_POINT('',(-0.01225,0.0305590556214464,-0.0291));
#1586=CARTESIAN_POINT('',(-0.01225,0.0305590556214464,-0.030502));
#1587=CARTESIAN_POINT('',(-0.01225,0.0305590556214464,-0.0295));
#1588=CARTESIAN_POINT('',(-0.01225,0.0226433072160421,-0.0369383703645563));
#1589=CARTESIAN_POINT('',(-0.009675,0.,-0.029102));
#1590=CARTESIAN_POINT('',(-0.01125,0.,-0.029102));
#1591=CARTESIAN_POINT('',(0.01125,0.,0.0015));
#1592=CARTESIAN_POINT('',(0.01125,0.,0.0015));
#1593=CARTESIAN_POINT('',(-0.009675,0.,0.0015));
#1594=CARTESIAN_POINT('',(0.0071,0.,0.0015));
#1595=CARTESIAN_POINT('',(0.0071,0.,0.002502));
#1596=CARTESIAN_POINT('',(0.0071,0.,0.0025));
#1597=CARTESIAN_POINT('',(8.67361737988404E-19,0.,0.0025));
#1598=CARTESIAN_POINT('',(-0.0071,0.,0.0025));
#1599=CARTESIAN_POINT('',(-0.0071,0.,0.002502));
#1600=CARTESIAN_POINT('',(0.0102,0.00585,-0.029102));
#1601=CARTESIAN_POINT('',(0.0102,0.00585,0.));
#1602=CARTESIAN_POINT('',(0.01095,0.00585,0.));
#1603=CARTESIAN_POINT('',(0.0102,0.00585,0.0015));
#1604=CARTESIAN_POINT('',(0.01095,0.00585,0.0015));
#1605=CARTESIAN_POINT('',(-0.0102,0.00585,-0.029102));
#1606=CARTESIAN_POINT('',(-0.0102,0.00585,0.));
#1607=CARTESIAN_POINT('',(-0.00945,0.00585,0.));
#1608=CARTESIAN_POINT('',(-0.0102,0.02665,-0.029102));
#1609=CARTESIAN_POINT('',(0.01225,0.0152795278107232,-0.029102));
#1610=CARTESIAN_POINT('',(0.01225,0.0152795278107232,0.0015));
#1611=CARTESIAN_POINT('',(0.01225,0.0294948778489704,0.0015));
#1612=CARTESIAN_POINT('',(0.01225,0.001,0.0015));
#1613=CARTESIAN_POINT('',(0.01225,0.001,-0.0305));
#1614=CARTESIAN_POINT('',(0.01225,0.0255717593053355,-0.0341865255459222));
#1615=CARTESIAN_POINT('',(0.01225,0.0305590556214464,-0.0295));
#1616=CARTESIAN_POINT('',(0.01225,0.0305590556214464,-0.030502));
#1617=CARTESIAN_POINT('',(0.01225,0.0305590556214464,-0.0291));
#1618=CARTESIAN_POINT('',(0.01225,0.0152795278107232,-0.0291));
#1619=CARTESIAN_POINT('',(0.01225,0.0432,-0.0291));
#1620=CARTESIAN_POINT('',(0.01225,0.0432,-0.029102));
#1621=CARTESIAN_POINT('',(0.01225,0.0432,0.));
#1622=CARTESIAN_POINT('',(0.01225,0.0152795278107232,0.));
#1623=CARTESIAN_POINT('',(0.01225,0.0305590556214464,0.));
#1624=CARTESIAN_POINT('',(0.01225,0.0305590556214464,0.001502));
#1625=CARTESIAN_POINT('',(0.01225,0.0305590556214464,0.000499999999999993));
#1626=CARTESIAN_POINT('',(0.01225,0.0302935250322291,0.000749517135280446));
#1627=CARTESIAN_POINT('',(0.0102,0.02665,-0.029102));
#1628=CARTESIAN_POINT('',(0.0102,0.02665,0.0015));
#1629=CARTESIAN_POINT('',(0.01095,0.02665,0.0015));
#1630=CARTESIAN_POINT('',(-3.46944695195361E-18,0.0226,0.));
#1631=CARTESIAN_POINT('',(0.016425,0.039025,0.));
#1632=CARTESIAN_POINT('',(-0.016425,0.039025,0.));
#1633=CARTESIAN_POINT('',(-0.0108762612902727,0.0300590556214464,0.));
#1634=CARTESIAN_POINT('',(-0.00950252258054537,0.0295590556214463,0.));
#1635=CARTESIAN_POINT('',(2.60208521396521E-17,0.0351,0.));
#1636=CARTESIAN_POINT('',(0.00950252258054536,0.0295590556214463,0.));
#1637=CARTESIAN_POINT('',(0.0108762612902727,0.0300590556214464,0.));
#1638=CARTESIAN_POINT('',(0.,0.04525,-0.0291));
#1639=CARTESIAN_POINT('',(0.0051,0.05035,-0.0291));
#1640=CARTESIAN_POINT('',(0.00615455629646045,0.0283404955487126,-0.0291));
#1641=CARTESIAN_POINT('',(0.00665,0.025043861449349,-0.0291));
#1642=CARTESIAN_POINT('',(-0.00665,0.025043861449349,-0.0291));
#1643=CARTESIAN_POINT('',(-0.00665,0.0263377228986981,-0.0291));
#1644=CARTESIAN_POINT('',(2.60208521396521E-17,0.0351,-0.0291));
#1645=CARTESIAN_POINT('',(-0.00950252258054537,0.0295590556214463,-0.0291));
#1646=CARTESIAN_POINT('',(-0.00615455629646045,0.0283404955487126,-0.0291));
#1647=CARTESIAN_POINT('',(-0.0051,0.05035,-0.0291));
#1648=CARTESIAN_POINT('',(0.0108762612902727,0.0300590556214464,0.001502));
#1649=CARTESIAN_POINT('',(0.00950252258054536,0.0295590556214463,0.001502));
#1650=CARTESIAN_POINT('',(0.00950252258054536,0.0295590556214463,0.000499999999999994));
#1651=CARTESIAN_POINT('',(0.0108762612902727,0.0300590556214464,0.000499999999999993));
#1652=CARTESIAN_POINT('',(-0.0108762612902727,0.0300590556214464,0.001502));
#1653=CARTESIAN_POINT('',(-0.00950252258054537,0.0295590556214463,0.0005));
#1654=CARTESIAN_POINT('',(-0.00950252258054537,0.0295590556214463,0.0005));
#1655=CARTESIAN_POINT('',(-0.00950252258054537,0.0295590556214463,0.001502));
#1656=CARTESIAN_POINT('',(2.60208521396521E-17,0.0351,0.001502));
#1657=CARTESIAN_POINT('',(2.60208521396521E-17,0.0351,0.0005));
#1658=CARTESIAN_POINT('',(-0.0071,0.026698214475482,0.0005));
#1659=CARTESIAN_POINT('',(-0.0071,0.026698214475482,0.002502));
#1660=CARTESIAN_POINT('',(-0.0071,0.026698214475482,0.0015));
#1661=CARTESIAN_POINT('',(2.60208521396521E-17,0.0351,0.0015));
#1662=CARTESIAN_POINT('',(0.0071,0.0266982144754821,0.0015));
#1663=CARTESIAN_POINT('',(0.0071,0.0266982144754821,0.002502));
#1664=CARTESIAN_POINT('',(0.0071,0.0266982144754821,0.000499999999999994));
#1665=CARTESIAN_POINT('',(2.60208521396521E-17,0.0351,0.000499999999999994));
#1666=CARTESIAN_POINT('',(0.,0.0295590556214463,0.0015));
#1667=CARTESIAN_POINT('',(0.01125,0.001,0.0015));
#1668=CARTESIAN_POINT('',(0.00145360412437865,0.0255653111128899,0.0015));
#1669=CARTESIAN_POINT('',(0.010175966262939,0.0287399913038166,0.0015));
#1670=CARTESIAN_POINT('',(2.60208521396521E-17,0.0351,0.0015));
#1671=CARTESIAN_POINT('',(0.0071,0.0254258075272403,0.0015));
#1672=CARTESIAN_POINT('',(0.0071,0.0295590556214463,0.0015));
#1673=CARTESIAN_POINT('',(-0.0071,0.013349107237741,0.002502));
#1674=CARTESIAN_POINT('',(-0.0071,0.013349107237741,0.0025));
#1675=CARTESIAN_POINT('',(-0.0071,0.0254258075272404,0.0025));
#1676=CARTESIAN_POINT('',(-0.0071,0.0254258075272404,0.0025));
#1677=CARTESIAN_POINT('',(-0.0071,0.0258458069623556,0.00216140371885371));
#1678=CARTESIAN_POINT('',(-0.0071,0.0262694726692513,0.00182747242739495));
#1679=CARTESIAN_POINT('',(-0.0071,0.026698214475482,0.00149999999999999));
#1680=CARTESIAN_POINT('',(-0.0071,0.026698214475482,0.0005));
#1681=CARTESIAN_POINT('',(-0.0071,0.0262694726692513,0.000827472427394959));
#1682=CARTESIAN_POINT('',(-0.0071,0.0258458069623556,0.00116140371885369));
#1683=CARTESIAN_POINT('',(-0.0071,0.0254258075272404,0.00149999999999998));
#1684=CARTESIAN_POINT('',(0.0071,0.013349107237741,0.002502));
#1685=CARTESIAN_POINT('',(0.0071,0.0254258075272403,0.0015));
#1686=CARTESIAN_POINT('',(0.0071,0.0258458069623556,0.00116140371885369));
#1687=CARTESIAN_POINT('',(0.0071,0.0262694726692513,0.000827472427394934));
#1688=CARTESIAN_POINT('',(0.0071,0.026698214475482,0.000499999999999956));
#1689=CARTESIAN_POINT('',(0.0071,0.026698214475482,0.0015));
#1690=CARTESIAN_POINT('',(0.0071,0.0262694726692513,0.00182747242739496));
#1691=CARTESIAN_POINT('',(0.0071,0.0258458069623556,0.00216140371885371));
#1692=CARTESIAN_POINT('',(0.0071,0.0254258075272403,0.0025));
#1693=CARTESIAN_POINT('',(0.0071,0.0254258075272403,0.0025));
#1694=CARTESIAN_POINT('',(0.0071,0.013349107237741,0.0025));
#1695=CARTESIAN_POINT('',(0.,0.,0.0025));
#1696=CARTESIAN_POINT('',(2.60208521396521E-17,0.0351,0.0025));
#1697=CARTESIAN_POINT('',(-0.0108762612902727,0.0300590556214464,-0.030502));
#1698=CARTESIAN_POINT('',(-0.00950252258054537,0.0295590556214463,-0.030502));
#1699=CARTESIAN_POINT('',(-0.00950252258054537,0.0295590556214463,-0.0295));
#1700=CARTESIAN_POINT('',(-0.0108762612902727,0.0300590556214464,-0.0295));
#1701=CARTESIAN_POINT('',(0.0108762612902727,0.0300590556214464,-0.030502));
#1702=CARTESIAN_POINT('',(0.00950252258054536,0.0295590556214463,-0.0295));
#1703=CARTESIAN_POINT('',(2.60208521396521E-17,0.0351,-0.030502));
#1704=CARTESIAN_POINT('',(-0.00665,0.0263377228986981,-0.029098));
#1705=CARTESIAN_POINT('',(-0.00665,0.0263377228986981,-0.0295));
#1706=CARTESIAN_POINT('',(2.60208521396521E-17,0.0351,-0.0295));
#1707=CARTESIAN_POINT('',(0.00925,0.01705,-0.0314));
#1708=CARTESIAN_POINT('',(-0.00925,0.01705,-0.0314));
#1709=CARTESIAN_POINT('',(-0.00925,0.01585,-0.0323));
#1710=CARTESIAN_POINT('',(0.00925,0.01825,-0.0305));
#1711=CARTESIAN_POINT('',(0.00925,0.01705,-0.0314));
#1712=CARTESIAN_POINT('',(0.00925,0.01585,-0.0323));
#1713=CARTESIAN_POINT('',(0.00925,0.01585,-0.0323));
#1714=CARTESIAN_POINT('',(0.00925,0.00475,-0.0314));
#1715=CARTESIAN_POINT('',(-0.00925,0.00475,-0.0314));
#1716=CARTESIAN_POINT('',(-0.00925,0.00475,-0.0323));
#1717=CARTESIAN_POINT('',(0.00925,0.00475,-0.0323));
#1718=CARTESIAN_POINT('',(0.00925,0.00475,-0.0323));
#1719=CARTESIAN_POINT('',(0.00925,0.00475,-0.0314));
#1720=CARTESIAN_POINT('',(0.00925,0.0103,-0.0323));
#1721=CARTESIAN_POINT('',(-0.00925,0.0103,-0.0323));
#1722=CARTESIAN_POINT('',(0.00925,0.0103,-0.0323));
#1723=CARTESIAN_POINT('',(0.00925,0.022625,-0.014175));
#1724=CARTESIAN_POINT('',(-0.00925,0.022625,-0.014175));
#1725=CARTESIAN_POINT('',(-0.01,0.01825,-0.0241));
#1726=CARTESIAN_POINT('',(0.01,0.01825,-0.0241));
#1727=CARTESIAN_POINT('',(0.01,0.01825,-0.0191));
#1728=CARTESIAN_POINT('',(-0.01,0.01825,-0.0241));
#1729=CARTESIAN_POINT('',(-0.01,0.01825,-0.0191));
#1730=CARTESIAN_POINT('',(-0.01,0.01825,-0.0191));
#1731=CARTESIAN_POINT('',(-0.01,0.021,-0.0191));
#1732=CARTESIAN_POINT('',(0.01,0.021,-0.0191));
#1733=CARTESIAN_POINT('',(-0.01,0.021,-0.0191));
#1734=CARTESIAN_POINT('',(-0.01,0.022625,-0.014175));
#1735=CARTESIAN_POINT('',(0.01,0.022625,-0.014175));
#1736=CARTESIAN_POINT('',(0.0102,0.00233,-0.0626592617673984));
#1737=CARTESIAN_POINT('',(0.0102,0.00233,0.));
#1738=CARTESIAN_POINT('',(0.01095,0.00233,0.));
#1739=CARTESIAN_POINT('',(3.46944695195361E-18,0.014115,0.));
#1740=CARTESIAN_POINT('',(-0.0102,0.00233,-0.0626592617673984));
#1741=CARTESIAN_POINT('',(-0.0102,0.00233,0.));
#1742=CARTESIAN_POINT('',(-0.00945,0.00233,0.));
#1743=CARTESIAN_POINT('',(3.46944695195361E-18,0.014115,0.));
#1744=CARTESIAN_POINT('',(-3.46944695195361E-18,0.0226,0.));
#1745=CARTESIAN_POINT('',(-3.46944695195361E-18,0.0226,0.));
#1746=CARTESIAN_POINT('',(-0.00665,0.025043861449349,-0.029098));
#1747=CARTESIAN_POINT('',(-0.00665,0.0263377228986981,-0.0295));
#1748=CARTESIAN_POINT('',(0.00665,0.025043861449349,-0.029098));
#1749=CARTESIAN_POINT('',(0.00665,0.02375,-0.0295));
#1750=CARTESIAN_POINT('',(0.01225,0.0432,-0.029102));
#1751=CARTESIAN_POINT('',(-0.01025,0.0452,-0.029102));
#1752=CARTESIAN_POINT('',(-0.00665,0.025043861449349,-0.0295));
#1753=CARTESIAN_POINT('',(-0.00764999999999984,0.0258545957362589,-0.0305));
#1754=CARTESIAN_POINT('',(-0.00731575397117983,0.0260118598410931,-0.03016575397118));
#1755=CARTESIAN_POINT('',(-0.0069823757031226,0.0261727162124368,-0.0298323757031227));
#1756=CARTESIAN_POINT('',(-0.00664999999999988,0.0263377228986976,-0.0295));
#1757=CARTESIAN_POINT('',(2.60208521396521E-17,0.0351,-0.0305));
#1758=CARTESIAN_POINT('',(-0.0101759662629391,0.0287399913038164,-0.0305));
#1759=CARTESIAN_POINT('',(-0.00995381180039678,0.0290143561609585,-0.0301662000672214));
#1760=CARTESIAN_POINT('',(-0.00972944024223647,0.0292874409205791,-0.0298328447412767));
#1761=CARTESIAN_POINT('',(-0.00950252258054586,0.0295590556214466,-0.0295));
#1762=CARTESIAN_POINT('',(-0.0108762612902727,0.0300590556214464,-0.0295));
#1763=CARTESIAN_POINT('',(0.00665,0.025043861449349,-0.0295));
#1764=CARTESIAN_POINT('',(0.00665,0.0263377228986981,-0.0295));
#1765=CARTESIAN_POINT('',(0.00698237570312277,0.0261727162124374,-0.0298323757031228));
#1766=CARTESIAN_POINT('',(0.00731575397117979,0.0260118598410925,-0.0301657539711799));
#1767=CARTESIAN_POINT('',(0.00764999999999984,0.0258545957362584,-0.0305));
#1768=CARTESIAN_POINT('',(2.60208521396521E-17,0.0351,-0.0305));
#1769=CARTESIAN_POINT('',(0.00950252258054536,0.0295590556214463,-0.0295));
#1770=CARTESIAN_POINT('',(0.00972944024223597,0.0292874409205788,-0.0298328447412767));
#1771=CARTESIAN_POINT('',(0.00995381180039704,0.0290143561609587,-0.0301662000672214));
#1772=CARTESIAN_POINT('',(0.0101759662629394,0.0287399913038166,-0.0305));
#1773=CARTESIAN_POINT('',(-0.00804649322937183,0.0221075584534936,-0.0305));
#1774=CARTESIAN_POINT('',(2.60208521396521E-17,0.0351,0.0015));
#1775=CARTESIAN_POINT('',(2.60208521396521E-17,0.0351,0.0005));
#1776=CARTESIAN_POINT('',(-0.00950252258054537,0.0295590556214463,0.0005));
#1777=CARTESIAN_POINT('',(-0.00972944024223598,0.0292874409205788,0.000832844741276719));
#1778=CARTESIAN_POINT('',(-0.00995381180039698,0.0290143561609586,0.00116620006722133));
#1779=CARTESIAN_POINT('',(-0.0101759662629393,0.0287399913038165,0.00149999999999996));
#1780=CARTESIAN_POINT('',(-0.00145360412437865,0.0255653111128899,0.0015));
#1781=CARTESIAN_POINT('',(2.60208521396521E-17,0.0351,0.000499999999999994));
#1782=CARTESIAN_POINT('',(0.0101759662629392,0.0287399913038165,0.0015));
#1783=CARTESIAN_POINT('',(0.00995381180039684,0.0290143561609586,0.00116620006722137));
#1784=CARTESIAN_POINT('',(0.00972944024223654,0.0292874409205792,0.000832844741276607));
#1785=CARTESIAN_POINT('',(0.00950252258054592,0.0295590556214467,0.000499999999999884));
#1786=CARTESIAN_POINT('',(0.0108762612902727,0.0300590556214464,0.000499999999999994));
#1787=CARTESIAN_POINT('',(-0.01125,0.001,-0.029102));
#1788=CARTESIAN_POINT('',(0.01125,0.001,-0.029102));
#1789=CARTESIAN_POINT('',(0.,0.0371375,0.00215));
#1790=CARTESIAN_POINT('',(0.,0.0351,0.00215));
#1791=CARTESIAN_POINT('',(-0.002825,0.0351,0.00215));
#1792=CARTESIAN_POINT('',(0.,0.0351,0.00215));
#1793=CARTESIAN_POINT('',(-0.00125,0.0351,0.00215));
#1794=CARTESIAN_POINT('',(0.,0.0351,0.00465));
#1795=CARTESIAN_POINT('',(0.,0.0351,0.00205));
#1796=CARTESIAN_POINT('',(-0.002825,0.0351,0.00205));
#1797=CARTESIAN_POINT('',(0.,0.037975,0.00205));
#1798=CARTESIAN_POINT('',(0.,0.0351,-0.01535));
#1799=CARTESIAN_POINT('',(0.,0.0351,-0.0161010757737844));
#1800=CARTESIAN_POINT('',(0.,0.0351,-0.01535));
#1801=CARTESIAN_POINT('',(-0.00125,0.0351,-0.01535));
#1802=CARTESIAN_POINT('',(0.,0.0351,0.00465));
#1803=MECHANICAL_DESIGN_GEOMETRIC_PRESENTATION_REPRESENTATION('',(#1067),
#1804);
#1804=(
GEOMETRIC_REPRESENTATION_CONTEXT(3)
GLOBAL_UNCERTAINTY_ASSIGNED_CONTEXT((#1805))
GLOBAL_UNIT_ASSIGNED_CONTEXT((#1808,#1807,#1806))
REPRESENTATION_CONTEXT('LX-16A','TOP_LEVEL_ASSEMBLY_PART')
);
#1805=UNCERTAINTY_MEASURE_WITH_UNIT(LENGTH_MEASURE(2.E-5),#1808,
'DISTANCE_ACCURACY_VALUE','Maximum Tolerance applied to model');
#1806=(
NAMED_UNIT(*)
SI_UNIT($,.STERADIAN.)
SOLID_ANGLE_UNIT()
);
#1807=(
NAMED_UNIT(*)
PLANE_ANGLE_UNIT()
SI_UNIT($,.RADIAN.)
);
#1808=(
LENGTH_UNIT()
NAMED_UNIT(*)
SI_UNIT($,.METRE.)
);
#1809=PRODUCT_DEFINITION_SHAPE('','',#1810);
#1810=PRODUCT_DEFINITION('','',#1812,#1811);
#1811=PRODUCT_DEFINITION_CONTEXT('',#1818,'design');
#1812=PRODUCT_DEFINITION_FORMATION_WITH_SPECIFIED_SOURCE('','',#1814,
 .NOT_KNOWN.);
#1813=PRODUCT_RELATED_PRODUCT_CATEGORY('','',(#1814));
#1814=PRODUCT('LX-16A','LX-16A','LX-16A',(#1816));
#1815=PRODUCT_CATEGORY('','');
#1816=PRODUCT_CONTEXT('',#1818,'mechanical');
#1817=APPLICATION_PROTOCOL_DEFINITION('international standard',
'ap242_managed_model_based_3d_engineering',2020,#1818);
#1818=APPLICATION_CONTEXT('managed model based 3d engineering');
ENDSEC;
END-ISO-10303-21;
