ISO-10303-21;
HEADER;
/* Generated by software containing ST-Developer
 * from STEP Tools, Inc. (www.steptools.com) 
 */
/* OPTION: using custom renumber hook */

FILE_DESCRIPTION(
/* description */ ('STEP AP242 Edition 2',
'CAx-IF Rec.Pracs.---Representation and Presentation of Product Manufa
cturing Information (PMI)---4.0---2014-10-13',
'CAx-IF Rec.Pracs.---3D Tessellated Geometry---0.4---2014-09-14','2;1',
'CAx-IF Rec.Pracs.---User Defined Attributes---1.5---2016-08-15'),
/* implementation_level */ '2;1');

FILE_NAME(
/* name */ 'MOS Module',
/* time_stamp */ '2026-07-05T15:35:07Z',
/* author */ (''),
/* organization */ (''),
/* preprocessor_version */ 'ST-DEVELOPER v20',
/* originating_system */ 'ONSHAPE BY PTC INC, 1.217',
/* authorisation */ '  ');

FILE_SCHEMA (('AP242_MANAGED_MODEL_BASED_3D_ENGINEERING_MIM_LF { 1 0 10303 442 3 1 4 }'));
ENDSEC;

DATA;
#10=SHAPE_REPRESENTATION_RELATIONSHIP('','',#736,#11);
#11=ADVANCED_BREP_SHAPE_REPRESENTATION('',(#734),#1180);
#12=CYLINDRICAL_SURFACE('',#755,0.0015);
#13=CYLINDRICAL_SURFACE('',#756,0.0015);
#14=CYLINDRICAL_SURFACE('',#775,0.000375);
#15=CYLINDRICAL_SURFACE('',#778,0.000375);
#16=CYLINDRICAL_SURFACE('',#781,0.000375);
#17=CYLINDRICAL_SURFACE('',#790,0.0015);
#18=CIRCLE('',#742,0.0015);
#19=CIRCLE('',#743,0.0015);
#20=CIRCLE('',#749,0.0015);
#21=CIRCLE('',#750,0.0015);
#22=CIRCLE('',#770,0.000375);
#23=CIRCLE('',#771,0.000375);
#24=CIRCLE('',#772,0.000375);
#25=CIRCLE('',#776,0.000375);
#26=CIRCLE('',#779,0.000375);
#27=CIRCLE('',#782,0.000375);
#28=CIRCLE('',#785,0.0015);
#29=CIRCLE('',#788,0.0015);
#30=ORIENTED_EDGE('',*,*,#216,.F.);
#31=ORIENTED_EDGE('',*,*,#217,.T.);
#32=ORIENTED_EDGE('',*,*,#218,.T.);
#33=ORIENTED_EDGE('',*,*,#219,.F.);
#34=ORIENTED_EDGE('',*,*,#220,.F.);
#35=ORIENTED_EDGE('',*,*,#221,.T.);
#36=ORIENTED_EDGE('',*,*,#219,.T.);
#37=ORIENTED_EDGE('',*,*,#222,.F.);
#38=ORIENTED_EDGE('',*,*,#223,.F.);
#39=ORIENTED_EDGE('',*,*,#224,.T.);
#40=ORIENTED_EDGE('',*,*,#225,.T.);
#41=ORIENTED_EDGE('',*,*,#226,.T.);
#42=ORIENTED_EDGE('',*,*,#224,.F.);
#43=ORIENTED_EDGE('',*,*,#227,.F.);
#44=ORIENTED_EDGE('',*,*,#228,.T.);
#45=ORIENTED_EDGE('',*,*,#222,.T.);
#46=ORIENTED_EDGE('',*,*,#218,.F.);
#47=ORIENTED_EDGE('',*,*,#229,.F.);
#48=ORIENTED_EDGE('',*,*,#230,.T.);
#49=ORIENTED_EDGE('',*,*,#231,.T.);
#50=ORIENTED_EDGE('',*,*,#232,.F.);
#51=ORIENTED_EDGE('',*,*,#233,.F.);
#52=ORIENTED_EDGE('',*,*,#234,.T.);
#53=ORIENTED_EDGE('',*,*,#235,.F.);
#54=ORIENTED_EDGE('',*,*,#236,.F.);
#55=ORIENTED_EDGE('',*,*,#237,.T.);
#56=ORIENTED_EDGE('',*,*,#238,.F.);
#57=ORIENTED_EDGE('',*,*,#239,.F.);
#58=ORIENTED_EDGE('',*,*,#240,.F.);
#59=ORIENTED_EDGE('',*,*,#241,.T.);
#60=ORIENTED_EDGE('',*,*,#242,.T.);
#61=ORIENTED_EDGE('',*,*,#243,.T.);
#62=ORIENTED_EDGE('',*,*,#244,.T.);
#63=ORIENTED_EDGE('',*,*,#245,.T.);
#64=ORIENTED_EDGE('',*,*,#246,.F.);
#65=ORIENTED_EDGE('',*,*,#247,.T.);
#66=ORIENTED_EDGE('',*,*,#248,.F.);
#67=ORIENTED_EDGE('',*,*,#249,.T.);
#68=ORIENTED_EDGE('',*,*,#250,.T.);
#69=ORIENTED_EDGE('',*,*,#251,.F.);
#70=ORIENTED_EDGE('',*,*,#252,.F.);
#71=ORIENTED_EDGE('',*,*,#253,.T.);
#72=ORIENTED_EDGE('',*,*,#240,.T.);
#73=ORIENTED_EDGE('',*,*,#254,.T.);
#74=ORIENTED_EDGE('',*,*,#242,.F.);
#75=ORIENTED_EDGE('',*,*,#255,.T.);
#76=ORIENTED_EDGE('',*,*,#256,.T.);
#77=ORIENTED_EDGE('',*,*,#257,.T.);
#78=ORIENTED_EDGE('',*,*,#244,.F.);
#79=ORIENTED_EDGE('',*,*,#258,.T.);
#80=ORIENTED_EDGE('',*,*,#259,.T.);
#81=ORIENTED_EDGE('',*,*,#260,.T.);
#82=ORIENTED_EDGE('',*,*,#246,.T.);
#83=ORIENTED_EDGE('',*,*,#261,.T.);
#84=ORIENTED_EDGE('',*,*,#262,.F.);
#85=ORIENTED_EDGE('',*,*,#263,.T.);
#86=ORIENTED_EDGE('',*,*,#264,.T.);
#87=ORIENTED_EDGE('',*,*,#265,.T.);
#88=ORIENTED_EDGE('',*,*,#256,.F.);
#89=ORIENTED_EDGE('',*,*,#266,.T.);
#90=ORIENTED_EDGE('',*,*,#252,.T.);
#91=ORIENTED_EDGE('',*,*,#267,.T.);
#92=ORIENTED_EDGE('',*,*,#262,.T.);
#93=ORIENTED_EDGE('',*,*,#268,.T.);
#94=ORIENTED_EDGE('',*,*,#259,.F.);
#95=ORIENTED_EDGE('',*,*,#269,.T.);
#96=ORIENTED_EDGE('',*,*,#241,.F.);
#97=ORIENTED_EDGE('',*,*,#253,.F.);
#98=ORIENTED_EDGE('',*,*,#266,.F.);
#99=ORIENTED_EDGE('',*,*,#255,.F.);
#100=ORIENTED_EDGE('',*,*,#243,.F.);
#101=ORIENTED_EDGE('',*,*,#257,.F.);
#102=ORIENTED_EDGE('',*,*,#269,.F.);
#103=ORIENTED_EDGE('',*,*,#258,.F.);
#104=ORIENTED_EDGE('',*,*,#245,.F.);
#105=ORIENTED_EDGE('',*,*,#260,.F.);
#106=ORIENTED_EDGE('',*,*,#268,.F.);
#107=ORIENTED_EDGE('',*,*,#261,.F.);
#108=ORIENTED_EDGE('',*,*,#247,.F.);
#109=ORIENTED_EDGE('',*,*,#263,.F.);
#110=ORIENTED_EDGE('',*,*,#267,.F.);
#111=ORIENTED_EDGE('',*,*,#254,.F.);
#112=ORIENTED_EDGE('',*,*,#239,.T.);
#113=ORIENTED_EDGE('',*,*,#265,.F.);
#114=ORIENTED_EDGE('',*,*,#238,.T.);
#115=ORIENTED_EDGE('',*,*,#264,.F.);
#116=ORIENTED_EDGE('',*,*,#249,.F.);
#117=ORIENTED_EDGE('',*,*,#270,.F.);
#118=ORIENTED_EDGE('',*,*,#271,.T.);
#119=ORIENTED_EDGE('',*,*,#272,.T.);
#120=ORIENTED_EDGE('',*,*,#248,.T.);
#121=ORIENTED_EDGE('',*,*,#273,.F.);
#122=ORIENTED_EDGE('',*,*,#274,.F.);
#123=ORIENTED_EDGE('',*,*,#270,.T.);
#124=ORIENTED_EDGE('',*,*,#251,.T.);
#125=ORIENTED_EDGE('',*,*,#275,.F.);
#126=ORIENTED_EDGE('',*,*,#276,.F.);
#127=ORIENTED_EDGE('',*,*,#273,.T.);
#128=ORIENTED_EDGE('',*,*,#250,.F.);
#129=ORIENTED_EDGE('',*,*,#272,.F.);
#130=ORIENTED_EDGE('',*,*,#277,.T.);
#131=ORIENTED_EDGE('',*,*,#275,.T.);
#132=ORIENTED_EDGE('',*,*,#271,.F.);
#133=ORIENTED_EDGE('',*,*,#274,.T.);
#134=ORIENTED_EDGE('',*,*,#276,.T.);
#135=ORIENTED_EDGE('',*,*,#277,.F.);
#136=ORIENTED_EDGE('',*,*,#234,.F.);
#137=ORIENTED_EDGE('',*,*,#278,.F.);
#138=ORIENTED_EDGE('',*,*,#279,.T.);
#139=ORIENTED_EDGE('',*,*,#280,.T.);
#140=ORIENTED_EDGE('',*,*,#237,.F.);
#141=ORIENTED_EDGE('',*,*,#281,.F.);
#142=ORIENTED_EDGE('',*,*,#282,.T.);
#143=ORIENTED_EDGE('',*,*,#278,.T.);
#144=ORIENTED_EDGE('',*,*,#236,.T.);
#145=ORIENTED_EDGE('',*,*,#283,.F.);
#146=ORIENTED_EDGE('',*,*,#284,.F.);
#147=ORIENTED_EDGE('',*,*,#281,.T.);
#148=ORIENTED_EDGE('',*,*,#235,.T.);
#149=ORIENTED_EDGE('',*,*,#280,.F.);
#150=ORIENTED_EDGE('',*,*,#285,.F.);
#151=ORIENTED_EDGE('',*,*,#283,.T.);
#152=ORIENTED_EDGE('',*,*,#279,.F.);
#153=ORIENTED_EDGE('',*,*,#282,.F.);
#154=ORIENTED_EDGE('',*,*,#284,.T.);
#155=ORIENTED_EDGE('',*,*,#285,.T.);
#156=ORIENTED_EDGE('',*,*,#230,.F.);
#157=ORIENTED_EDGE('',*,*,#286,.F.);
#158=ORIENTED_EDGE('',*,*,#287,.T.);
#159=ORIENTED_EDGE('',*,*,#288,.T.);
#160=ORIENTED_EDGE('',*,*,#233,.T.);
#161=ORIENTED_EDGE('',*,*,#289,.F.);
#162=ORIENTED_EDGE('',*,*,#290,.F.);
#163=ORIENTED_EDGE('',*,*,#286,.T.);
#164=ORIENTED_EDGE('',*,*,#291,.F.);
#165=ORIENTED_EDGE('',*,*,#292,.T.);
#166=ORIENTED_EDGE('',*,*,#293,.F.);
#167=ORIENTED_EDGE('',*,*,#294,.F.);
#168=ORIENTED_EDGE('',*,*,#295,.F.);
#169=ORIENTED_EDGE('',*,*,#296,.F.);
#170=ORIENTED_EDGE('',*,*,#297,.F.);
#171=ORIENTED_EDGE('',*,*,#289,.T.);
#172=ORIENTED_EDGE('',*,*,#232,.T.);
#173=ORIENTED_EDGE('',*,*,#298,.F.);
#174=ORIENTED_EDGE('',*,*,#231,.F.);
#175=ORIENTED_EDGE('',*,*,#288,.F.);
#176=ORIENTED_EDGE('',*,*,#299,.T.);
#177=ORIENTED_EDGE('',*,*,#298,.T.);
#178=ORIENTED_EDGE('',*,*,#287,.F.);
#179=ORIENTED_EDGE('',*,*,#290,.T.);
#180=ORIENTED_EDGE('',*,*,#297,.T.);
#181=ORIENTED_EDGE('',*,*,#295,.T.);
#182=ORIENTED_EDGE('',*,*,#293,.T.);
#183=ORIENTED_EDGE('',*,*,#291,.T.);
#184=ORIENTED_EDGE('',*,*,#299,.F.);
#185=ORIENTED_EDGE('',*,*,#300,.F.);
#186=ORIENTED_EDGE('',*,*,#296,.T.);
#187=ORIENTED_EDGE('',*,*,#300,.T.);
#188=ORIENTED_EDGE('',*,*,#301,.F.);
#189=ORIENTED_EDGE('',*,*,#294,.T.);
#190=ORIENTED_EDGE('',*,*,#301,.T.);
#191=ORIENTED_EDGE('',*,*,#302,.T.);
#192=ORIENTED_EDGE('',*,*,#292,.F.);
#193=ORIENTED_EDGE('',*,*,#302,.F.);
#194=ORIENTED_EDGE('',*,*,#303,.F.);
#195=ORIENTED_EDGE('',*,*,#228,.F.);
#196=ORIENTED_EDGE('',*,*,#304,.F.);
#197=ORIENTED_EDGE('',*,*,#227,.T.);
#198=ORIENTED_EDGE('',*,*,#223,.T.);
#199=ORIENTED_EDGE('',*,*,#305,.F.);
#200=ORIENTED_EDGE('',*,*,#306,.T.);
#201=ORIENTED_EDGE('',*,*,#225,.F.);
#202=ORIENTED_EDGE('',*,*,#304,.T.);
#203=ORIENTED_EDGE('',*,*,#229,.T.);
#204=ORIENTED_EDGE('',*,*,#217,.F.);
#205=ORIENTED_EDGE('',*,*,#307,.F.);
#206=ORIENTED_EDGE('',*,*,#226,.F.);
#207=ORIENTED_EDGE('',*,*,#306,.F.);
#208=ORIENTED_EDGE('',*,*,#308,.T.);
#209=ORIENTED_EDGE('',*,*,#220,.T.);
#210=ORIENTED_EDGE('',*,*,#308,.F.);
#211=ORIENTED_EDGE('',*,*,#305,.T.);
#212=ORIENTED_EDGE('',*,*,#216,.T.);
#213=ORIENTED_EDGE('',*,*,#221,.F.);
#214=ORIENTED_EDGE('',*,*,#303,.T.);
#215=ORIENTED_EDGE('',*,*,#307,.T.);
#216=EDGE_CURVE('',#309,#310,#373,.T.);
#217=EDGE_CURVE('',#309,#311,#374,.T.);
#218=EDGE_CURVE('',#311,#312,#375,.T.);
#219=EDGE_CURVE('',#310,#312,#376,.T.);
#220=EDGE_CURVE('',#313,#314,#377,.T.);
#221=EDGE_CURVE('',#313,#310,#378,.T.);
#222=EDGE_CURVE('',#315,#312,#379,.T.);
#223=EDGE_CURVE('',#316,#315,#380,.T.);
#224=EDGE_CURVE('',#316,#314,#381,.T.);
#225=EDGE_CURVE('',#317,#318,#382,.T.);
#226=EDGE_CURVE('',#318,#314,#383,.T.);
#227=EDGE_CURVE('',#317,#316,#384,.T.);
#228=EDGE_CURVE('',#319,#315,#385,.T.);
#229=EDGE_CURVE('',#319,#311,#386,.T.);
#230=EDGE_CURVE('',#320,#321,#387,.T.);
#231=EDGE_CURVE('',#321,#322,#388,.T.);
#232=EDGE_CURVE('',#323,#322,#389,.T.);
#233=EDGE_CURVE('',#320,#323,#390,.T.);
#234=EDGE_CURVE('',#324,#325,#391,.T.);
#235=EDGE_CURVE('',#326,#325,#392,.T.);
#236=EDGE_CURVE('',#327,#326,#393,.T.);
#237=EDGE_CURVE('',#327,#324,#394,.T.);
#238=EDGE_CURVE('',#328,#328,#18,.T.);
#239=EDGE_CURVE('',#329,#329,#19,.T.);
#240=EDGE_CURVE('',#330,#331,#395,.T.);
#241=EDGE_CURVE('',#330,#332,#396,.T.);
#242=EDGE_CURVE('',#332,#333,#397,.T.);
#243=EDGE_CURVE('',#333,#334,#398,.F.);
#244=EDGE_CURVE('',#334,#335,#399,.T.);
#245=EDGE_CURVE('',#335,#336,#400,.T.);
#246=EDGE_CURVE('',#337,#336,#401,.T.);
#247=EDGE_CURVE('',#337,#331,#402,.F.);
#248=EDGE_CURVE('',#338,#339,#403,.T.);
#249=EDGE_CURVE('',#338,#340,#404,.T.);
#250=EDGE_CURVE('',#340,#341,#405,.T.);
#251=EDGE_CURVE('',#339,#341,#406,.T.);
#252=EDGE_CURVE('',#342,#343,#407,.T.);
#253=EDGE_CURVE('',#342,#330,#408,.T.);
#254=EDGE_CURVE('',#331,#343,#409,.T.);
#255=EDGE_CURVE('',#332,#344,#410,.T.);
#256=EDGE_CURVE('',#344,#345,#411,.T.);
#257=EDGE_CURVE('',#345,#333,#412,.T.);
#258=EDGE_CURVE('',#334,#346,#413,.T.);
#259=EDGE_CURVE('',#346,#347,#414,.T.);
#260=EDGE_CURVE('',#347,#335,#415,.T.);
#261=EDGE_CURVE('',#336,#348,#416,.T.);
#262=EDGE_CURVE('',#349,#348,#417,.T.);
#263=EDGE_CURVE('',#349,#337,#418,.T.);
#264=EDGE_CURVE('',#350,#350,#20,.T.);
#265=EDGE_CURVE('',#351,#351,#21,.T.);
#266=EDGE_CURVE('',#344,#342,#419,.T.);
#267=EDGE_CURVE('',#343,#349,#420,.F.);
#268=EDGE_CURVE('',#348,#347,#421,.T.);
#269=EDGE_CURVE('',#346,#345,#422,.F.);
#270=EDGE_CURVE('',#352,#338,#423,.T.);
#271=EDGE_CURVE('',#352,#353,#424,.T.);
#272=EDGE_CURVE('',#353,#340,#425,.T.);
#273=EDGE_CURVE('',#354,#339,#426,.T.);
#274=EDGE_CURVE('',#352,#354,#427,.T.);
#275=EDGE_CURVE('',#355,#341,#428,.T.);
#276=EDGE_CURVE('',#354,#355,#429,.T.);
#277=EDGE_CURVE('',#353,#355,#430,.T.);
#278=EDGE_CURVE('',#356,#324,#431,.T.);
#279=EDGE_CURVE('',#356,#357,#432,.T.);
#280=EDGE_CURVE('',#357,#325,#433,.T.);
#281=EDGE_CURVE('',#358,#327,#434,.T.);
#282=EDGE_CURVE('',#358,#356,#435,.T.);
#283=EDGE_CURVE('',#359,#326,#436,.T.);
#284=EDGE_CURVE('',#358,#359,#437,.T.);
#285=EDGE_CURVE('',#359,#357,#438,.T.);
#286=EDGE_CURVE('',#360,#320,#439,.T.);
#287=EDGE_CURVE('',#360,#361,#440,.T.);
#288=EDGE_CURVE('',#361,#321,#441,.T.);
#289=EDGE_CURVE('',#362,#323,#442,.T.);
#290=EDGE_CURVE('',#360,#362,#443,.T.);
#291=EDGE_CURVE('',#363,#364,#444,.T.);
#292=EDGE_CURVE('',#363,#363,#22,.T.);
#293=EDGE_CURVE('',#365,#363,#445,.T.);
#294=EDGE_CURVE('',#365,#365,#23,.T.);
#295=EDGE_CURVE('',#366,#365,#446,.T.);
#296=EDGE_CURVE('',#366,#366,#24,.T.);
#297=EDGE_CURVE('',#362,#366,#447,.T.);
#298=EDGE_CURVE('',#364,#322,#448,.T.);
#299=EDGE_CURVE('',#361,#364,#449,.T.);
#300=EDGE_CURVE('',#367,#367,#25,.T.);
#301=EDGE_CURVE('',#368,#368,#26,.T.);
#302=EDGE_CURVE('',#369,#369,#27,.T.);
#303=EDGE_CURVE('',#370,#370,#28,.T.);
#304=EDGE_CURVE('',#317,#319,#450,.T.);
#305=EDGE_CURVE('',#371,#309,#451,.T.);
#306=EDGE_CURVE('',#371,#318,#452,.T.);
#307=EDGE_CURVE('',#372,#372,#29,.T.);
#308=EDGE_CURVE('',#371,#313,#453,.T.);
#309=VERTEX_POINT('',#983);
#310=VERTEX_POINT('',#984);
#311=VERTEX_POINT('',#986);
#312=VERTEX_POINT('',#988);
#313=VERTEX_POINT('',#992);
#314=VERTEX_POINT('',#993);
#315=VERTEX_POINT('',#996);
#316=VERTEX_POINT('',#998);
#317=VERTEX_POINT('',#1002);
#318=VERTEX_POINT('',#1003);
#319=VERTEX_POINT('',#1008);
#320=VERTEX_POINT('',#1011);
#321=VERTEX_POINT('',#1012);
#322=VERTEX_POINT('',#1014);
#323=VERTEX_POINT('',#1016);
#324=VERTEX_POINT('',#1019);
#325=VERTEX_POINT('',#1020);
#326=VERTEX_POINT('',#1022);
#327=VERTEX_POINT('',#1024);
#328=VERTEX_POINT('',#1027);
#329=VERTEX_POINT('',#1029);
#330=VERTEX_POINT('',#1031);
#331=VERTEX_POINT('',#1032);
#332=VERTEX_POINT('',#1034);
#333=VERTEX_POINT('',#1036);
#334=VERTEX_POINT('',#1038);
#335=VERTEX_POINT('',#1040);
#336=VERTEX_POINT('',#1042);
#337=VERTEX_POINT('',#1044);
#338=VERTEX_POINT('',#1047);
#339=VERTEX_POINT('',#1048);
#340=VERTEX_POINT('',#1050);
#341=VERTEX_POINT('',#1052);
#342=VERTEX_POINT('',#1056);
#343=VERTEX_POINT('',#1057);
#344=VERTEX_POINT('',#1062);
#345=VERTEX_POINT('',#1064);
#346=VERTEX_POINT('',#1068);
#347=VERTEX_POINT('',#1070);
#348=VERTEX_POINT('',#1074);
#349=VERTEX_POINT('',#1076);
#350=VERTEX_POINT('',#1080);
#351=VERTEX_POINT('',#1082);
#352=VERTEX_POINT('',#1095);
#353=VERTEX_POINT('',#1097);
#354=VERTEX_POINT('',#1101);
#355=VERTEX_POINT('',#1105);
#356=VERTEX_POINT('',#1112);
#357=VERTEX_POINT('',#1114);
#358=VERTEX_POINT('',#1118);
#359=VERTEX_POINT('',#1122);
#360=VERTEX_POINT('',#1129);
#361=VERTEX_POINT('',#1131);
#362=VERTEX_POINT('',#1135);
#363=VERTEX_POINT('',#1139);
#364=VERTEX_POINT('',#1140);
#365=VERTEX_POINT('',#1143);
#366=VERTEX_POINT('',#1146);
#367=VERTEX_POINT('',#1155);
#368=VERTEX_POINT('',#1159);
#369=VERTEX_POINT('',#1163);
#370=VERTEX_POINT('',#1167);
#371=VERTEX_POINT('',#1171);
#372=VERTEX_POINT('',#1175);
#373=LINE('',#982,#454);
#374=LINE('',#985,#455);
#375=LINE('',#987,#456);
#376=LINE('',#989,#457);
#377=LINE('',#991,#458);
#378=LINE('',#994,#459);
#379=LINE('',#995,#460);
#380=LINE('',#997,#461);
#381=LINE('',#999,#462);
#382=LINE('',#1001,#463);
#383=LINE('',#1004,#464);
#384=LINE('',#1005,#465);
#385=LINE('',#1007,#466);
#386=LINE('',#1009,#467);
#387=LINE('',#1010,#468);
#388=LINE('',#1013,#469);
#389=LINE('',#1015,#470);
#390=LINE('',#1017,#471);
#391=LINE('',#1018,#472);
#392=LINE('',#1021,#473);
#393=LINE('',#1023,#474);
#394=LINE('',#1025,#475);
#395=LINE('',#1030,#476);
#396=LINE('',#1033,#477);
#397=LINE('',#1035,#478);
#398=LINE('',#1037,#479);
#399=LINE('',#1039,#480);
#400=LINE('',#1041,#481);
#401=LINE('',#1043,#482);
#402=LINE('',#1045,#483);
#403=LINE('',#1046,#484);
#404=LINE('',#1049,#485);
#405=LINE('',#1051,#486);
#406=LINE('',#1053,#487);
#407=LINE('',#1055,#488);
#408=LINE('',#1058,#489);
#409=LINE('',#1059,#490);
#410=LINE('',#1061,#491);
#411=LINE('',#1063,#492);
#412=LINE('',#1065,#493);
#413=LINE('',#1067,#494);
#414=LINE('',#1069,#495);
#415=LINE('',#1071,#496);
#416=LINE('',#1073,#497);
#417=LINE('',#1075,#498);
#418=LINE('',#1077,#499);
#419=LINE('',#1083,#500);
#420=LINE('',#1084,#501);
#421=LINE('',#1085,#502);
#422=LINE('',#1086,#503);
#423=LINE('',#1094,#504);
#424=LINE('',#1096,#505);
#425=LINE('',#1098,#506);
#426=LINE('',#1100,#507);
#427=LINE('',#1102,#508);
#428=LINE('',#1104,#509);
#429=LINE('',#1106,#510);
#430=LINE('',#1108,#511);
#431=LINE('',#1111,#512);
#432=LINE('',#1113,#513);
#433=LINE('',#1115,#514);
#434=LINE('',#1117,#515);
#435=LINE('',#1119,#516);
#436=LINE('',#1121,#517);
#437=LINE('',#1123,#518);
#438=LINE('',#1125,#519);
#439=LINE('',#1128,#520);
#440=LINE('',#1130,#521);
#441=LINE('',#1132,#522);
#442=LINE('',#1134,#523);
#443=LINE('',#1136,#524);
#444=LINE('',#1138,#525);
#445=LINE('',#1142,#526);
#446=LINE('',#1145,#527);
#447=LINE('',#1148,#528);
#448=LINE('',#1149,#529);
#449=LINE('',#1151,#530);
#450=LINE('',#1168,#531);
#451=LINE('',#1170,#532);
#452=LINE('',#1172,#533);
#453=LINE('',#1176,#534);
#454=VECTOR('',#795,1.);
#455=VECTOR('',#796,1.);
#456=VECTOR('',#797,1.);
#457=VECTOR('',#798,1.);
#458=VECTOR('',#801,1.);
#459=VECTOR('',#802,1.);
#460=VECTOR('',#803,1.);
#461=VECTOR('',#804,1.);
#462=VECTOR('',#805,1.);
#463=VECTOR('',#808,1.);
#464=VECTOR('',#809,1.);
#465=VECTOR('',#810,1.);
#466=VECTOR('',#813,1.);
#467=VECTOR('',#814,1.);
#468=VECTOR('',#815,1.);
#469=VECTOR('',#816,1.);
#470=VECTOR('',#817,1.);
#471=VECTOR('',#818,1.);
#472=VECTOR('',#819,1.);
#473=VECTOR('',#820,1.);
#474=VECTOR('',#821,1.);
#475=VECTOR('',#822,1.);
#476=VECTOR('',#827,1.);
#477=VECTOR('',#828,1.);
#478=VECTOR('',#829,1.);
#479=VECTOR('',#830,1.);
#480=VECTOR('',#831,1.);
#481=VECTOR('',#832,1.);
#482=VECTOR('',#833,1.);
#483=VECTOR('',#834,1.);
#484=VECTOR('',#835,1.);
#485=VECTOR('',#836,1.);
#486=VECTOR('',#837,1.);
#487=VECTOR('',#838,1.);
#488=VECTOR('',#841,1.);
#489=VECTOR('',#842,1.);
#490=VECTOR('',#843,1.);
#491=VECTOR('',#846,1.);
#492=VECTOR('',#847,1.);
#493=VECTOR('',#848,1.);
#494=VECTOR('',#851,1.);
#495=VECTOR('',#852,1.);
#496=VECTOR('',#853,1.);
#497=VECTOR('',#856,1.);
#498=VECTOR('',#857,1.);
#499=VECTOR('',#858,1.);
#500=VECTOR('',#865,1.);
#501=VECTOR('',#866,1.);
#502=VECTOR('',#867,1.);
#503=VECTOR('',#868,1.);
#504=VECTOR('',#883,1.);
#505=VECTOR('',#884,1.);
#506=VECTOR('',#885,1.);
#507=VECTOR('',#888,1.);
#508=VECTOR('',#889,1.);
#509=VECTOR('',#892,1.);
#510=VECTOR('',#893,1.);
#511=VECTOR('',#896,1.);
#512=VECTOR('',#901,1.);
#513=VECTOR('',#902,1.);
#514=VECTOR('',#903,1.);
#515=VECTOR('',#906,1.);
#516=VECTOR('',#907,1.);
#517=VECTOR('',#910,1.);
#518=VECTOR('',#911,1.);
#519=VECTOR('',#914,1.);
#520=VECTOR('',#919,1.);
#521=VECTOR('',#920,1.);
#522=VECTOR('',#921,1.);
#523=VECTOR('',#924,1.);
#524=VECTOR('',#925,1.);
#525=VECTOR('',#928,1.);
#526=VECTOR('',#931,1.);
#527=VECTOR('',#934,1.);
#528=VECTOR('',#937,1.);
#529=VECTOR('',#938,1.);
#530=VECTOR('',#941,1.);
#531=VECTOR('',#966,1.);
#532=VECTOR('',#969,1.);
#533=VECTOR('',#970,1.);
#534=VECTOR('',#975,1.);
#535=EDGE_LOOP('',(#30,#31,#32,#33));
#536=EDGE_LOOP('',(#34,#35,#36,#37,#38,#39));
#537=EDGE_LOOP('',(#40,#41,#42,#43));
#538=EDGE_LOOP('',(#44,#45,#46,#47));
#539=EDGE_LOOP('',(#48,#49,#50,#51));
#540=EDGE_LOOP('',(#52,#53,#54,#55));
#541=EDGE_LOOP('',(#56));
#542=EDGE_LOOP('',(#57));
#543=EDGE_LOOP('',(#58,#59,#60,#61,#62,#63,#64,#65));
#544=EDGE_LOOP('',(#66,#67,#68,#69));
#545=EDGE_LOOP('',(#70,#71,#72,#73));
#546=EDGE_LOOP('',(#74,#75,#76,#77));
#547=EDGE_LOOP('',(#78,#79,#80,#81));
#548=EDGE_LOOP('',(#82,#83,#84,#85));
#549=EDGE_LOOP('',(#86));
#550=EDGE_LOOP('',(#87));
#551=EDGE_LOOP('',(#88,#89,#90,#91,#92,#93,#94,#95));
#552=EDGE_LOOP('',(#96,#97,#98,#99));
#553=EDGE_LOOP('',(#100,#101,#102,#103));
#554=EDGE_LOOP('',(#104,#105,#106,#107));
#555=EDGE_LOOP('',(#108,#109,#110,#111));
#556=EDGE_LOOP('',(#112));
#557=EDGE_LOOP('',(#113));
#558=EDGE_LOOP('',(#114));
#559=EDGE_LOOP('',(#115));
#560=EDGE_LOOP('',(#116,#117,#118,#119));
#561=EDGE_LOOP('',(#120,#121,#122,#123));
#562=EDGE_LOOP('',(#124,#125,#126,#127));
#563=EDGE_LOOP('',(#128,#129,#130,#131));
#564=EDGE_LOOP('',(#132,#133,#134,#135));
#565=EDGE_LOOP('',(#136,#137,#138,#139));
#566=EDGE_LOOP('',(#140,#141,#142,#143));
#567=EDGE_LOOP('',(#144,#145,#146,#147));
#568=EDGE_LOOP('',(#148,#149,#150,#151));
#569=EDGE_LOOP('',(#152,#153,#154,#155));
#570=EDGE_LOOP('',(#156,#157,#158,#159));
#571=EDGE_LOOP('',(#160,#161,#162,#163));
#572=EDGE_LOOP('',(#164,#165,#166,#167,#168,#169,#170,#171,#172,#173));
#573=EDGE_LOOP('',(#174,#175,#176,#177));
#574=EDGE_LOOP('',(#178,#179,#180,#181,#182,#183,#184));
#575=EDGE_LOOP('',(#185));
#576=EDGE_LOOP('',(#186));
#577=EDGE_LOOP('',(#187));
#578=EDGE_LOOP('',(#188));
#579=EDGE_LOOP('',(#189));
#580=EDGE_LOOP('',(#190));
#581=EDGE_LOOP('',(#191));
#582=EDGE_LOOP('',(#192));
#583=EDGE_LOOP('',(#193));
#584=EDGE_LOOP('',(#194));
#585=EDGE_LOOP('',(#195,#196,#197,#198));
#586=EDGE_LOOP('',(#199,#200,#201,#202,#203,#204));
#587=EDGE_LOOP('',(#205));
#588=EDGE_LOOP('',(#206,#207,#208,#209));
#589=EDGE_LOOP('',(#210,#211,#212,#213));
#590=EDGE_LOOP('',(#214));
#591=EDGE_LOOP('',(#215));
#592=FACE_BOUND('',#535,.T.);
#593=FACE_BOUND('',#536,.T.);
#594=FACE_BOUND('',#537,.T.);
#595=FACE_BOUND('',#538,.T.);
#596=FACE_BOUND('',#539,.T.);
#597=FACE_BOUND('',#540,.T.);
#598=FACE_BOUND('',#541,.T.);
#599=FACE_BOUND('',#542,.T.);
#600=FACE_BOUND('',#543,.T.);
#601=FACE_BOUND('',#544,.T.);
#602=FACE_BOUND('',#545,.T.);
#603=FACE_BOUND('',#546,.T.);
#604=FACE_BOUND('',#547,.T.);
#605=FACE_BOUND('',#548,.T.);
#606=FACE_BOUND('',#549,.T.);
#607=FACE_BOUND('',#550,.T.);
#608=FACE_BOUND('',#551,.T.);
#609=FACE_BOUND('',#552,.T.);
#610=FACE_BOUND('',#553,.T.);
#611=FACE_BOUND('',#554,.T.);
#612=FACE_BOUND('',#555,.T.);
#613=FACE_BOUND('',#556,.T.);
#614=FACE_BOUND('',#557,.T.);
#615=FACE_BOUND('',#558,.T.);
#616=FACE_BOUND('',#559,.T.);
#617=FACE_BOUND('',#560,.T.);
#618=FACE_BOUND('',#561,.T.);
#619=FACE_BOUND('',#562,.T.);
#620=FACE_BOUND('',#563,.T.);
#621=FACE_BOUND('',#564,.T.);
#622=FACE_BOUND('',#565,.T.);
#623=FACE_BOUND('',#566,.T.);
#624=FACE_BOUND('',#567,.T.);
#625=FACE_BOUND('',#568,.T.);
#626=FACE_BOUND('',#569,.T.);
#627=FACE_BOUND('',#570,.T.);
#628=FACE_BOUND('',#571,.T.);
#629=FACE_BOUND('',#572,.T.);
#630=FACE_BOUND('',#573,.T.);
#631=FACE_BOUND('',#574,.T.);
#632=FACE_BOUND('',#575,.T.);
#633=FACE_BOUND('',#576,.T.);
#634=FACE_BOUND('',#577,.T.);
#635=FACE_BOUND('',#578,.T.);
#636=FACE_BOUND('',#579,.T.);
#637=FACE_BOUND('',#580,.T.);
#638=FACE_BOUND('',#581,.T.);
#639=FACE_BOUND('',#582,.T.);
#640=FACE_BOUND('',#583,.T.);
#641=FACE_BOUND('',#584,.T.);
#642=FACE_BOUND('',#585,.T.);
#643=FACE_BOUND('',#586,.T.);
#644=FACE_BOUND('',#587,.T.);
#645=FACE_BOUND('',#588,.T.);
#646=FACE_BOUND('',#589,.T.);
#647=FACE_BOUND('',#590,.T.);
#648=FACE_BOUND('',#591,.T.);
#649=PLANE('',#738);
#650=PLANE('',#739);
#651=PLANE('',#740);
#652=PLANE('',#741);
#653=PLANE('',#744);
#654=PLANE('',#745);
#655=PLANE('',#746);
#656=PLANE('',#747);
#657=PLANE('',#748);
#658=PLANE('',#751);
#659=PLANE('',#752);
#660=PLANE('',#753);
#661=PLANE('',#754);
#662=PLANE('',#757);
#663=PLANE('',#758);
#664=PLANE('',#759);
#665=PLANE('',#760);
#666=PLANE('',#761);
#667=PLANE('',#762);
#668=PLANE('',#763);
#669=PLANE('',#764);
#670=PLANE('',#765);
#671=PLANE('',#766);
#672=PLANE('',#767);
#673=PLANE('',#768);
#674=PLANE('',#769);
#675=PLANE('',#773);
#676=PLANE('',#774);
#677=PLANE('',#777);
#678=PLANE('',#780);
#679=PLANE('',#783);
#680=PLANE('',#784);
#681=PLANE('',#786);
#682=PLANE('',#787);
#683=PLANE('',#789);
#684=ADVANCED_FACE('',(#592),#649,.F.);
#685=ADVANCED_FACE('',(#593),#650,.T.);
#686=ADVANCED_FACE('',(#594),#651,.T.);
#687=ADVANCED_FACE('',(#595,#596,#597,#598,#599,#600,#601),#652,.T.);
#688=ADVANCED_FACE('',(#602),#653,.T.);
#689=ADVANCED_FACE('',(#603),#654,.F.);
#690=ADVANCED_FACE('',(#604),#655,.F.);
#691=ADVANCED_FACE('',(#605),#656,.T.);
#692=ADVANCED_FACE('',(#606,#607,#608),#657,.F.);
#693=ADVANCED_FACE('',(#609),#658,.T.);
#694=ADVANCED_FACE('',(#610),#659,.F.);
#695=ADVANCED_FACE('',(#611),#660,.T.);
#696=ADVANCED_FACE('',(#612),#661,.F.);
#697=ADVANCED_FACE('',(#613,#614),#12,.F.);
#698=ADVANCED_FACE('',(#615,#616),#13,.F.);
#699=ADVANCED_FACE('',(#617),#662,.T.);
#700=ADVANCED_FACE('',(#618),#663,.F.);
#701=ADVANCED_FACE('',(#619),#664,.F.);
#702=ADVANCED_FACE('',(#620),#665,.T.);
#703=ADVANCED_FACE('',(#621),#666,.T.);
#704=ADVANCED_FACE('',(#622),#667,.T.);
#705=ADVANCED_FACE('',(#623),#668,.T.);
#706=ADVANCED_FACE('',(#624),#669,.F.);
#707=ADVANCED_FACE('',(#625),#670,.F.);
#708=ADVANCED_FACE('',(#626),#671,.T.);
#709=ADVANCED_FACE('',(#627),#672,.T.);
#710=ADVANCED_FACE('',(#628),#673,.F.);
#711=ADVANCED_FACE('',(#629),#674,.F.);
#712=ADVANCED_FACE('',(#630),#675,.T.);
#713=ADVANCED_FACE('',(#631),#676,.T.);
#714=ADVANCED_FACE('',(#632,#633),#14,.T.);
#715=ADVANCED_FACE('',(#634),#677,.T.);
#716=ADVANCED_FACE('',(#635,#636),#15,.T.);
#717=ADVANCED_FACE('',(#637),#678,.T.);
#718=ADVANCED_FACE('',(#638,#639),#16,.T.);
#719=ADVANCED_FACE('',(#640),#679,.T.);
#720=ADVANCED_FACE('',(#641,#642),#680,.T.);
#721=ADVANCED_FACE('',(#643),#681,.F.);
#722=ADVANCED_FACE('',(#644,#645),#682,.T.);
#723=ADVANCED_FACE('',(#646),#683,.T.);
#724=ADVANCED_FACE('',(#647,#648),#17,.F.);
#725=CLOSED_SHELL('',(#684,#685,#686,#687,#688,#689,#690,#691,#692,#693,
#694,#695,#696,#697,#698,#699,#700,#701,#702,#703,#704,#705,#706,#707,#708,
#709,#710,#711,#712,#713,#714,#715,#716,#717,#718,#719,#720,#721,#722,#723,
#724));
#726=STYLED_ITEM('',(#727),#734);
#727=PRESENTATION_STYLE_ASSIGNMENT((#728));
#728=SURFACE_STYLE_USAGE(.BOTH.,#729);
#729=SURFACE_SIDE_STYLE('',(#730));
#730=SURFACE_STYLE_FILL_AREA(#731);
#731=FILL_AREA_STYLE('',(#732));
#732=FILL_AREA_STYLE_COLOUR('',#733);
#733=COLOUR_RGB('',0.615686274509804,0.811764705882353,0.929411764705882);
#734=MANIFOLD_SOLID_BREP('Part 1',#725);
#735=SHAPE_DEFINITION_REPRESENTATION(#1185,#736);
#736=SHAPE_REPRESENTATION('Part 1',(#737),#1180);
#737=AXIS2_PLACEMENT_3D('',#980,#791,#792);
#738=AXIS2_PLACEMENT_3D('',#981,#793,#794);
#739=AXIS2_PLACEMENT_3D('',#990,#799,#800);
#740=AXIS2_PLACEMENT_3D('',#1000,#806,#807);
#741=AXIS2_PLACEMENT_3D('',#1006,#811,#812);
#742=AXIS2_PLACEMENT_3D('',#1026,#823,#824);
#743=AXIS2_PLACEMENT_3D('',#1028,#825,#826);
#744=AXIS2_PLACEMENT_3D('',#1054,#839,#840);
#745=AXIS2_PLACEMENT_3D('',#1060,#844,#845);
#746=AXIS2_PLACEMENT_3D('',#1066,#849,#850);
#747=AXIS2_PLACEMENT_3D('',#1072,#854,#855);
#748=AXIS2_PLACEMENT_3D('',#1078,#859,#860);
#749=AXIS2_PLACEMENT_3D('',#1079,#861,#862);
#750=AXIS2_PLACEMENT_3D('',#1081,#863,#864);
#751=AXIS2_PLACEMENT_3D('',#1087,#869,#870);
#752=AXIS2_PLACEMENT_3D('',#1088,#871,#872);
#753=AXIS2_PLACEMENT_3D('',#1089,#873,#874);
#754=AXIS2_PLACEMENT_3D('',#1090,#875,#876);
#755=AXIS2_PLACEMENT_3D('',#1091,#877,#878);
#756=AXIS2_PLACEMENT_3D('',#1092,#879,#880);
#757=AXIS2_PLACEMENT_3D('',#1093,#881,#882);
#758=AXIS2_PLACEMENT_3D('',#1099,#886,#887);
#759=AXIS2_PLACEMENT_3D('',#1103,#890,#891);
#760=AXIS2_PLACEMENT_3D('',#1107,#894,#895);
#761=AXIS2_PLACEMENT_3D('',#1109,#897,#898);
#762=AXIS2_PLACEMENT_3D('',#1110,#899,#900);
#763=AXIS2_PLACEMENT_3D('',#1116,#904,#905);
#764=AXIS2_PLACEMENT_3D('',#1120,#908,#909);
#765=AXIS2_PLACEMENT_3D('',#1124,#912,#913);
#766=AXIS2_PLACEMENT_3D('',#1126,#915,#916);
#767=AXIS2_PLACEMENT_3D('',#1127,#917,#918);
#768=AXIS2_PLACEMENT_3D('',#1133,#922,#923);
#769=AXIS2_PLACEMENT_3D('',#1137,#926,#927);
#770=AXIS2_PLACEMENT_3D('',#1141,#929,#930);
#771=AXIS2_PLACEMENT_3D('',#1144,#932,#933);
#772=AXIS2_PLACEMENT_3D('',#1147,#935,#936);
#773=AXIS2_PLACEMENT_3D('',#1150,#939,#940);
#774=AXIS2_PLACEMENT_3D('',#1152,#942,#943);
#775=AXIS2_PLACEMENT_3D('',#1153,#944,#945);
#776=AXIS2_PLACEMENT_3D('',#1154,#946,#947);
#777=AXIS2_PLACEMENT_3D('',#1156,#948,#949);
#778=AXIS2_PLACEMENT_3D('',#1157,#950,#951);
#779=AXIS2_PLACEMENT_3D('',#1158,#952,#953);
#780=AXIS2_PLACEMENT_3D('',#1160,#954,#955);
#781=AXIS2_PLACEMENT_3D('',#1161,#956,#957);
#782=AXIS2_PLACEMENT_3D('',#1162,#958,#959);
#783=AXIS2_PLACEMENT_3D('',#1164,#960,#961);
#784=AXIS2_PLACEMENT_3D('',#1165,#962,#963);
#785=AXIS2_PLACEMENT_3D('',#1166,#964,#965);
#786=AXIS2_PLACEMENT_3D('',#1169,#967,#968);
#787=AXIS2_PLACEMENT_3D('',#1173,#971,#972);
#788=AXIS2_PLACEMENT_3D('',#1174,#973,#974);
#789=AXIS2_PLACEMENT_3D('',#1177,#976,#977);
#790=AXIS2_PLACEMENT_3D('',#1178,#978,#979);
#791=DIRECTION('',(0.,0.,1.));
#792=DIRECTION('',(1.,0.,0.));
#793=DIRECTION('',(0.,-1.,0.));
#794=DIRECTION('',(0.,0.,-1.));
#795=DIRECTION('',(-1.,0.,0.));
#796=DIRECTION('',(0.,0.,-1.));
#797=DIRECTION('',(-1.,0.,0.));
#798=DIRECTION('',(0.,0.,-1.));
#799=DIRECTION('',(-1.,0.,0.));
#800=DIRECTION('',(0.,0.,1.));
#801=DIRECTION('',(0.,0.,1.));
#802=DIRECTION('',(0.,1.,0.));
#803=DIRECTION('',(0.,1.,0.));
#804=DIRECTION('',(0.,0.,-1.));
#805=DIRECTION('',(0.,1.,0.));
#806=DIRECTION('',(0.,0.,1.));
#807=DIRECTION('',(1.,0.,0.));
#808=DIRECTION('',(0.,1.,0.));
#809=DIRECTION('',(-1.,0.,0.));
#810=DIRECTION('',(-1.,0.,0.));
#811=DIRECTION('',(0.,0.,1.));
#812=DIRECTION('',(1.,0.,0.));
#813=DIRECTION('',(-1.,0.,0.));
#814=DIRECTION('',(0.,1.,0.));
#815=DIRECTION('',(-1.,0.,0.));
#816=DIRECTION('',(0.,1.,0.));
#817=DIRECTION('',(-1.,0.,0.));
#818=DIRECTION('',(0.,1.,0.));
#819=DIRECTION('',(-4.33680868994202E-16,-1.,0.));
#820=DIRECTION('',(1.,-1.3010426069826E-16,0.));
#821=DIRECTION('',(-4.33680868994202E-16,-1.,0.));
#822=DIRECTION('',(1.,-1.7347234759768E-16,0.));
#823=DIRECTION('',(0.,0.,1.));
#824=DIRECTION('',(1.,0.,0.));
#825=DIRECTION('',(0.,0.,1.));
#826=DIRECTION('',(1.,0.,0.));
#827=DIRECTION('',(0.,1.,0.));
#828=DIRECTION('',(0.707106781186548,-0.707106781186548,0.));
#829=DIRECTION('',(1.,0.,0.));
#830=DIRECTION('',(-0.707106781186548,-0.707106781186548,0.));
#831=DIRECTION('',(-2.66880534765662E-16,1.,0.));
#832=DIRECTION('',(-0.707106781186548,0.707106781186548,0.));
#833=DIRECTION('',(1.,0.,0.));
#834=DIRECTION('',(0.707106781186548,0.707106781186548,0.));
#835=DIRECTION('',(-1.,-1.7347234759768E-16,0.));
#836=DIRECTION('',(0.,-1.,0.));
#837=DIRECTION('',(-1.,-1.3010426069826E-16,0.));
#838=DIRECTION('',(0.,-1.,0.));
#839=DIRECTION('',(-1.,0.,0.));
#840=DIRECTION('',(0.,0.,1.));
#841=DIRECTION('',(0.,1.,0.));
#842=DIRECTION('',(0.,0.,1.));
#843=DIRECTION('',(0.,0.,-1.));
#844=DIRECTION('',(0.,1.,0.));
#845=DIRECTION('',(0.,0.,1.));
#846=DIRECTION('',(0.,0.,-1.));
#847=DIRECTION('',(1.,0.,0.));
#848=DIRECTION('',(0.,0.,1.));
#849=DIRECTION('',(-1.,-2.66880534765662E-16,0.));
#850=DIRECTION('',(2.66880534765662E-16,-1.,0.));
#851=DIRECTION('',(0.,0.,-1.));
#852=DIRECTION('',(-2.66880534765662E-16,1.,0.));
#853=DIRECTION('',(0.,0.,1.));
#854=DIRECTION('',(0.,1.,0.));
#855=DIRECTION('',(0.,0.,1.));
#856=DIRECTION('',(0.,0.,-1.));
#857=DIRECTION('',(1.,0.,0.));
#858=DIRECTION('',(0.,0.,1.));
#859=DIRECTION('',(0.,0.,1.));
#860=DIRECTION('',(1.,0.,0.));
#861=DIRECTION('',(0.,0.,1.));
#862=DIRECTION('',(1.,0.,0.));
#863=DIRECTION('',(0.,0.,1.));
#864=DIRECTION('',(1.,0.,0.));
#865=DIRECTION('',(-0.707106781186548,0.707106781186548,0.));
#866=DIRECTION('',(-0.707106781186548,-0.707106781186548,0.));
#867=DIRECTION('',(0.707106781186548,-0.707106781186548,0.));
#868=DIRECTION('',(0.707106781186548,0.707106781186548,0.));
#869=DIRECTION('',(-0.707106781186548,-0.707106781186548,0.));
#870=DIRECTION('',(0.,0.,1.));
#871=DIRECTION('',(-0.707106781186548,0.707106781186548,0.));
#872=DIRECTION('',(0.,0.,-1.));
#873=DIRECTION('',(0.707106781186548,0.707106781186548,0.));
#874=DIRECTION('',(0.,0.,1.));
#875=DIRECTION('',(0.707106781186548,-0.707106781186548,0.));
#876=DIRECTION('',(0.,0.,-1.));
#877=DIRECTION('',(0.,0.,1.));
#878=DIRECTION('',(1.,0.,0.));
#879=DIRECTION('',(0.,0.,1.));
#880=DIRECTION('',(1.,0.,0.));
#881=DIRECTION('',(1.,0.,0.));
#882=DIRECTION('',(0.,0.,-1.));
#883=DIRECTION('',(0.,0.,-1.));
#884=DIRECTION('',(0.,-1.,0.));
#885=DIRECTION('',(0.,0.,-1.));
#886=DIRECTION('',(1.7347234759768E-16,-1.,0.));
#887=DIRECTION('',(1.,1.7347234759768E-16,0.));
#888=DIRECTION('',(0.,0.,-1.));
#889=DIRECTION('',(-1.,-1.7347234759768E-16,0.));
#890=DIRECTION('',(1.,0.,0.));
#891=DIRECTION('',(0.,0.,-1.));
#892=DIRECTION('',(0.,0.,-1.));
#893=DIRECTION('',(0.,-1.,0.));
#894=DIRECTION('',(1.3010426069826E-16,-1.,0.));
#895=DIRECTION('',(1.,1.3010426069826E-16,0.));
#896=DIRECTION('',(-1.,-1.3010426069826E-16,0.));
#897=DIRECTION('',(0.,0.,1.));
#898=DIRECTION('',(1.,0.,0.));
#899=DIRECTION('',(1.,-4.33680868994202E-16,0.));
#900=DIRECTION('',(4.33680868994202E-16,1.,0.));
#901=DIRECTION('',(0.,0.,-1.));
#902=DIRECTION('',(-4.33680868994202E-16,-1.,0.));
#903=DIRECTION('',(0.,0.,-1.));
#904=DIRECTION('',(1.7347234759768E-16,1.,0.));
#905=DIRECTION('',(-1.,1.7347234759768E-16,0.));
#906=DIRECTION('',(0.,0.,-1.));
#907=DIRECTION('',(1.,-1.7347234759768E-16,0.));
#908=DIRECTION('',(1.,-4.33680868994202E-16,0.));
#909=DIRECTION('',(4.33680868994202E-16,1.,0.));
#910=DIRECTION('',(0.,0.,-1.));
#911=DIRECTION('',(-4.33680868994202E-16,-1.,0.));
#912=DIRECTION('',(1.3010426069826E-16,1.,0.));
#913=DIRECTION('',(-1.,1.3010426069826E-16,0.));
#914=DIRECTION('',(1.,-1.3010426069826E-16,0.));
#915=DIRECTION('',(0.,0.,1.));
#916=DIRECTION('',(1.,0.,0.));
#917=DIRECTION('',(0.,-1.,0.));
#918=DIRECTION('',(0.,0.,-1.));
#919=DIRECTION('',(0.,0.,-1.));
#920=DIRECTION('',(-1.,0.,0.));
#921=DIRECTION('',(0.,0.,-1.));
#922=DIRECTION('',(-1.,0.,0.));
#923=DIRECTION('',(0.,0.,1.));
#924=DIRECTION('',(0.,0.,-1.));
#925=DIRECTION('',(0.,1.,0.));
#926=DIRECTION('',(0.,-1.,0.));
#927=DIRECTION('',(0.,0.,-1.));
#928=DIRECTION('',(-1.,0.,0.));
#929=DIRECTION('',(0.,-1.,0.));
#930=DIRECTION('',(0.,0.,1.));
#931=DIRECTION('',(-1.,0.,0.));
#932=DIRECTION('',(0.,1.,0.));
#933=DIRECTION('',(0.,0.,1.));
#934=DIRECTION('',(-1.,0.,0.));
#935=DIRECTION('',(0.,1.,0.));
#936=DIRECTION('',(0.,0.,1.));
#937=DIRECTION('',(-1.,0.,0.));
#938=DIRECTION('',(0.,0.,-1.));
#939=DIRECTION('',(-1.,0.,0.));
#940=DIRECTION('',(0.,0.,1.));
#941=DIRECTION('',(0.,1.,0.));
#942=DIRECTION('',(0.,0.,1.));
#943=DIRECTION('',(1.,0.,0.));
#944=DIRECTION('',(0.,-1.,0.));
#945=DIRECTION('',(0.,0.,-1.));
#946=DIRECTION('',(0.,1.,0.));
#947=DIRECTION('',(0.,0.,1.));
#948=DIRECTION('',(0.,1.,0.));
#949=DIRECTION('',(-1.,0.,0.));
#950=DIRECTION('',(0.,-1.,0.));
#951=DIRECTION('',(0.,0.,-1.));
#952=DIRECTION('',(0.,1.,0.));
#953=DIRECTION('',(0.,0.,1.));
#954=DIRECTION('',(0.,1.,0.));
#955=DIRECTION('',(-1.,0.,0.));
#956=DIRECTION('',(0.,-1.,0.));
#957=DIRECTION('',(0.,0.,-1.));
#958=DIRECTION('',(0.,-1.,0.));
#959=DIRECTION('',(0.,0.,1.));
#960=DIRECTION('',(0.,1.,0.));
#961=DIRECTION('',(-1.,0.,0.));
#962=DIRECTION('',(0.,-1.,0.));
#963=DIRECTION('',(0.,0.,-1.));
#964=DIRECTION('',(0.,-1.,0.));
#965=DIRECTION('',(0.,0.,-1.));
#966=DIRECTION('',(0.,0.,-1.));
#967=DIRECTION('',(-1.,0.,0.));
#968=DIRECTION('',(0.,0.,1.));
#969=DIRECTION('',(0.,1.,0.));
#970=DIRECTION('',(0.,0.,1.));
#971=DIRECTION('',(0.,1.,0.));
#972=DIRECTION('',(0.,0.,1.));
#973=DIRECTION('',(0.,1.,0.));
#974=DIRECTION('',(0.,0.,1.));
#975=DIRECTION('',(-1.,0.,0.));
#976=DIRECTION('',(0.,0.,1.));
#977=DIRECTION('',(1.,0.,0.));
#978=DIRECTION('',(0.,1.,0.));
#979=DIRECTION('',(0.,0.,1.));
#980=CARTESIAN_POINT('',(0.,0.,0.));
#981=CARTESIAN_POINT('',(0.024,0.021,0.0235));
#982=CARTESIAN_POINT('',(0.024,0.021,0.0165));
#983=CARTESIAN_POINT('',(0.029,0.021,0.0165));
#984=CARTESIAN_POINT('',(0.019,0.021,0.0165));
#985=CARTESIAN_POINT('',(0.029,0.021,0.0235));
#986=CARTESIAN_POINT('',(0.029,0.021,0.0015));
#987=CARTESIAN_POINT('',(0.024,0.021,0.0015));
#988=CARTESIAN_POINT('',(0.019,0.021,0.0015));
#989=CARTESIAN_POINT('',(0.019,0.021,0.0235));
#990=CARTESIAN_POINT('',(0.019,0.01875,0.0235));
#991=CARTESIAN_POINT('',(0.019,0.018,0.0165));
#992=CARTESIAN_POINT('',(0.019,0.018,0.0165));
#993=CARTESIAN_POINT('',(0.019,0.018,0.0235));
#994=CARTESIAN_POINT('',(0.019,0.01875,0.0165));
#995=CARTESIAN_POINT('',(0.019,0.01875,0.0015));
#996=CARTESIAN_POINT('',(0.019,0.0165,0.0015));
#997=CARTESIAN_POINT('',(0.019,0.0165,0.0235));
#998=CARTESIAN_POINT('',(0.019,0.0165,0.0235));
#999=CARTESIAN_POINT('',(0.019,0.01875,0.0235));
#1000=CARTESIAN_POINT('',(0.017,0.013,0.0235));
#1001=CARTESIAN_POINT('',(0.029,0.01875,0.0235));
#1002=CARTESIAN_POINT('',(0.029,0.0165,0.0235));
#1003=CARTESIAN_POINT('',(0.029,0.018,0.0235));
#1004=CARTESIAN_POINT('',(0.024,0.018,0.0235));
#1005=CARTESIAN_POINT('',(0.024,0.0165,0.0235));
#1006=CARTESIAN_POINT('',(0.017,0.013,0.0015));
#1007=CARTESIAN_POINT('',(0.024,0.0165,0.0015));
#1008=CARTESIAN_POINT('',(0.029,0.0165,0.0015));
#1009=CARTESIAN_POINT('',(0.029,0.01875,0.0015));
#1010=CARTESIAN_POINT('',(0.00975,0.023,0.0015));
#1011=CARTESIAN_POINT('',(0.0135,0.023,0.0015));
#1012=CARTESIAN_POINT('',(0.006,0.023,0.0015));
#1013=CARTESIAN_POINT('',(0.006,0.02425,0.0015));
#1014=CARTESIAN_POINT('',(0.006,0.0255,0.0015));
#1015=CARTESIAN_POINT('',(0.00975,0.0255,0.0015));
#1016=CARTESIAN_POINT('',(0.0135,0.0255,0.0015));
#1017=CARTESIAN_POINT('',(0.0135,0.02425,0.0015));
#1018=CARTESIAN_POINT('',(0.015,0.007,0.0015));
#1019=CARTESIAN_POINT('',(0.015,0.011,0.0015));
#1020=CARTESIAN_POINT('',(0.015,0.003,0.0015));
#1021=CARTESIAN_POINT('',(0.01,0.003,0.0015));
#1022=CARTESIAN_POINT('',(0.005,0.003,0.0015));
#1023=CARTESIAN_POINT('',(0.005,0.007,0.0015));
#1024=CARTESIAN_POINT('',(0.005,0.011,0.0015));
#1025=CARTESIAN_POINT('',(0.01,0.011,0.0015));
#1026=CARTESIAN_POINT('',(0.0315,0.013,0.0015));
#1027=CARTESIAN_POINT('',(0.033,0.013,0.0015));
#1028=CARTESIAN_POINT('',(0.0025,0.013,0.0015));
#1029=CARTESIAN_POINT('',(0.004,0.013,0.0015));
#1030=CARTESIAN_POINT('',(0.,0.013,0.0015));
#1031=CARTESIAN_POINT('',(0.,0.001,0.0015));
#1032=CARTESIAN_POINT('',(0.,0.025,0.0015));
#1033=CARTESIAN_POINT('',(0.0025,-0.0015,0.0015));
#1034=CARTESIAN_POINT('',(0.001,0.,0.0015));
#1035=CARTESIAN_POINT('',(0.017,0.,0.0015));
#1036=CARTESIAN_POINT('',(0.033,0.,0.0015));
#1037=CARTESIAN_POINT('',(0.0315,-0.0015,0.0015));
#1038=CARTESIAN_POINT('',(0.034,0.001,0.0015));
#1039=CARTESIAN_POINT('',(0.034,0.013,0.0015));
#1040=CARTESIAN_POINT('',(0.034,0.025,0.0015));
#1041=CARTESIAN_POINT('',(0.0315,0.0275,0.0015));
#1042=CARTESIAN_POINT('',(0.033,0.026,0.0015));
#1043=CARTESIAN_POINT('',(0.017,0.026,0.0015));
#1044=CARTESIAN_POINT('',(0.001,0.026,0.0015));
#1045=CARTESIAN_POINT('',(0.0025,0.0275,0.0015));
#1046=CARTESIAN_POINT('',(0.024,0.011,0.0015));
#1047=CARTESIAN_POINT('',(0.029,0.011,0.0015));
#1048=CARTESIAN_POINT('',(0.019,0.011,0.0015));
#1049=CARTESIAN_POINT('',(0.029,0.007,0.0015));
#1050=CARTESIAN_POINT('',(0.029,0.003,0.0015));
#1051=CARTESIAN_POINT('',(0.024,0.003,0.0015));
#1052=CARTESIAN_POINT('',(0.019,0.003,0.0015));
#1053=CARTESIAN_POINT('',(0.019,0.007,0.0015));
#1054=CARTESIAN_POINT('',(0.,0.013,0.0015));
#1055=CARTESIAN_POINT('',(0.,0.013,0.));
#1056=CARTESIAN_POINT('',(0.,0.001,0.));
#1057=CARTESIAN_POINT('',(0.,0.025,0.));
#1058=CARTESIAN_POINT('',(0.,0.001,0.0015));
#1059=CARTESIAN_POINT('',(0.,0.025,0.0015));
#1060=CARTESIAN_POINT('',(0.017,0.,0.0015));
#1061=CARTESIAN_POINT('',(0.001,0.,0.));
#1062=CARTESIAN_POINT('',(0.001,0.,0.));
#1063=CARTESIAN_POINT('',(0.017,0.,0.));
#1064=CARTESIAN_POINT('',(0.033,0.,0.));
#1065=CARTESIAN_POINT('',(0.033,0.,0.0015));
#1066=CARTESIAN_POINT('',(0.034,0.013,0.0015));
#1067=CARTESIAN_POINT('',(0.034,0.001,0.0015));
#1068=CARTESIAN_POINT('',(0.034,0.001,0.));
#1069=CARTESIAN_POINT('',(0.034,0.013,0.));
#1070=CARTESIAN_POINT('',(0.034,0.025,0.));
#1071=CARTESIAN_POINT('',(0.034,0.025,0.0015));
#1072=CARTESIAN_POINT('',(0.017,0.026,0.0015));
#1073=CARTESIAN_POINT('',(0.033,0.026,0.));
#1074=CARTESIAN_POINT('',(0.033,0.026,0.));
#1075=CARTESIAN_POINT('',(0.017,0.026,0.));
#1076=CARTESIAN_POINT('',(0.001,0.026,0.));
#1077=CARTESIAN_POINT('',(0.001,0.026,0.0015));
#1078=CARTESIAN_POINT('',(0.017,0.013,0.));
#1079=CARTESIAN_POINT('',(0.0315,0.013,0.));
#1080=CARTESIAN_POINT('',(0.033,0.013,0.));
#1081=CARTESIAN_POINT('',(0.0025,0.013,0.));
#1082=CARTESIAN_POINT('',(0.004,0.013,0.));
#1083=CARTESIAN_POINT('',(0.001,0.,0.));
#1084=CARTESIAN_POINT('',(0.,0.025,0.));
#1085=CARTESIAN_POINT('',(0.033,0.026,0.));
#1086=CARTESIAN_POINT('',(0.034,0.001,0.));
#1087=CARTESIAN_POINT('',(0.001,0.,0.0015));
#1088=CARTESIAN_POINT('',(0.034,0.001,0.0015));
#1089=CARTESIAN_POINT('',(0.033,0.026,0.0015));
#1090=CARTESIAN_POINT('',(0.,0.025,0.0015));
#1091=CARTESIAN_POINT('',(0.0025,0.013,-0.0235));
#1092=CARTESIAN_POINT('',(0.0315,0.013,-0.0235));
#1093=CARTESIAN_POINT('',(0.029,0.007,0.0115));
#1094=CARTESIAN_POINT('',(0.029,0.011,0.0115));
#1095=CARTESIAN_POINT('',(0.029,0.011,0.0115));
#1096=CARTESIAN_POINT('',(0.029,0.007,0.0115));
#1097=CARTESIAN_POINT('',(0.029,0.003,0.0115));
#1098=CARTESIAN_POINT('',(0.029,0.003,0.0115));
#1099=CARTESIAN_POINT('',(0.024,0.011,0.0115));
#1100=CARTESIAN_POINT('',(0.019,0.011,0.0115));
#1101=CARTESIAN_POINT('',(0.019,0.011,0.0115));
#1102=CARTESIAN_POINT('',(0.024,0.011,0.0115));
#1103=CARTESIAN_POINT('',(0.019,0.007,0.0115));
#1104=CARTESIAN_POINT('',(0.019,0.003,0.0115));
#1105=CARTESIAN_POINT('',(0.019,0.003,0.0115));
#1106=CARTESIAN_POINT('',(0.019,0.007,0.0115));
#1107=CARTESIAN_POINT('',(0.024,0.003,0.0115));
#1108=CARTESIAN_POINT('',(0.024,0.003,0.0115));
#1109=CARTESIAN_POINT('',(0.017,0.013,0.0115));
#1110=CARTESIAN_POINT('',(0.015,0.007,0.0115));
#1111=CARTESIAN_POINT('',(0.015,0.011,0.0115));
#1112=CARTESIAN_POINT('',(0.015,0.011,0.0115));
#1113=CARTESIAN_POINT('',(0.015,0.007,0.0115));
#1114=CARTESIAN_POINT('',(0.015,0.003,0.0115));
#1115=CARTESIAN_POINT('',(0.015,0.003,0.0115));
#1116=CARTESIAN_POINT('',(0.01,0.011,0.0115));
#1117=CARTESIAN_POINT('',(0.005,0.011,0.0115));
#1118=CARTESIAN_POINT('',(0.005,0.011,0.0115));
#1119=CARTESIAN_POINT('',(0.01,0.011,0.0115));
#1120=CARTESIAN_POINT('',(0.005,0.007,0.0115));
#1121=CARTESIAN_POINT('',(0.005,0.003,0.0115));
#1122=CARTESIAN_POINT('',(0.005,0.003,0.0115));
#1123=CARTESIAN_POINT('',(0.005,0.007,0.0115));
#1124=CARTESIAN_POINT('',(0.01,0.003,0.0115));
#1125=CARTESIAN_POINT('',(0.01,0.003,0.0115));
#1126=CARTESIAN_POINT('',(0.017,0.013,0.0115));
#1127=CARTESIAN_POINT('',(0.00975,0.023,0.0075));
#1128=CARTESIAN_POINT('',(0.0135,0.023,0.0075));
#1129=CARTESIAN_POINT('',(0.0135,0.023,0.0075));
#1130=CARTESIAN_POINT('',(0.00975,0.023,0.0075));
#1131=CARTESIAN_POINT('',(0.006,0.023,0.0075));
#1132=CARTESIAN_POINT('',(0.006,0.023,0.0075));
#1133=CARTESIAN_POINT('',(0.0135,0.02425,0.0075));
#1134=CARTESIAN_POINT('',(0.0135,0.0255,0.0075));
#1135=CARTESIAN_POINT('',(0.0135,0.0255,0.0075));
#1136=CARTESIAN_POINT('',(0.0135,0.02425,0.0075));
#1137=CARTESIAN_POINT('',(0.00975,0.0255,0.0075));
#1138=CARTESIAN_POINT('',(0.00975,0.0255,0.0075));
#1139=CARTESIAN_POINT('',(0.00675,0.0255,0.0075));
#1140=CARTESIAN_POINT('',(0.006,0.0255,0.0075));
#1141=CARTESIAN_POINT('',(0.00675,0.0255,0.007125));
#1142=CARTESIAN_POINT('',(0.00975,0.0255,0.0075));
#1143=CARTESIAN_POINT('',(0.00975,0.0255,0.0075));
#1144=CARTESIAN_POINT('',(0.00975,0.0255,0.007125));
#1145=CARTESIAN_POINT('',(0.00975,0.0255,0.0075));
#1146=CARTESIAN_POINT('',(0.01275,0.0255,0.0075));
#1147=CARTESIAN_POINT('',(0.01275,0.0255,0.007125));
#1148=CARTESIAN_POINT('',(0.00975,0.0255,0.0075));
#1149=CARTESIAN_POINT('',(0.006,0.0255,0.0075));
#1150=CARTESIAN_POINT('',(0.006,0.02425,0.0075));
#1151=CARTESIAN_POINT('',(0.006,0.02425,0.0075));
#1152=CARTESIAN_POINT('',(0.017,0.013,0.0075));
#1153=CARTESIAN_POINT('',(0.01275,0.0325,0.007125));
#1154=CARTESIAN_POINT('',(0.01275,0.0325,0.007125));
#1155=CARTESIAN_POINT('',(0.01275,0.0325,0.0075));
#1156=CARTESIAN_POINT('',(0.00975,0.0325,0.00366438226425089));
#1157=CARTESIAN_POINT('',(0.00975,0.0325,0.007125));
#1158=CARTESIAN_POINT('',(0.00975,0.0325,0.007125));
#1159=CARTESIAN_POINT('',(0.00975,0.0325,0.0075));
#1160=CARTESIAN_POINT('',(0.00975,0.0325,0.00366438226425089));
#1161=CARTESIAN_POINT('',(0.00675,0.0325,0.007125));
#1162=CARTESIAN_POINT('',(0.00675,0.0325,0.007125));
#1163=CARTESIAN_POINT('',(0.00675,0.0325,0.0075));
#1164=CARTESIAN_POINT('',(0.00975,0.0325,0.00366438226425089));
#1165=CARTESIAN_POINT('',(0.024,0.0165,0.0235));
#1166=CARTESIAN_POINT('',(0.0241010205144336,0.0165,0.021));
#1167=CARTESIAN_POINT('',(0.0241010205144336,0.0165,0.0195));
#1168=CARTESIAN_POINT('',(0.029,0.0165,0.0235));
#1169=CARTESIAN_POINT('',(0.029,0.01875,0.0235));
#1170=CARTESIAN_POINT('',(0.029,0.01875,0.0165));
#1171=CARTESIAN_POINT('',(0.029,0.018,0.0165));
#1172=CARTESIAN_POINT('',(0.029,0.018,0.0165));
#1173=CARTESIAN_POINT('',(0.024,0.018,0.0165));
#1174=CARTESIAN_POINT('',(0.0241010205144336,0.018,0.021));
#1175=CARTESIAN_POINT('',(0.0241010205144336,0.018,0.0225));
#1176=CARTESIAN_POINT('',(0.024,0.018,0.0165));
#1177=CARTESIAN_POINT('',(0.024,0.01875,0.0165));
#1178=CARTESIAN_POINT('',(0.0241010205144336,-0.007,0.021));
#1179=MECHANICAL_DESIGN_GEOMETRIC_PRESENTATION_REPRESENTATION('',(#726),
#1180);
#1180=(
GEOMETRIC_REPRESENTATION_CONTEXT(3)
GLOBAL_UNCERTAINTY_ASSIGNED_CONTEXT((#1181))
GLOBAL_UNIT_ASSIGNED_CONTEXT((#1184,#1183,#1182))
REPRESENTATION_CONTEXT('Part 1','TOP_LEVEL_ASSEMBLY_PART')
);
#1181=UNCERTAINTY_MEASURE_WITH_UNIT(LENGTH_MEASURE(1.E-8),#1184,
'DISTANCE_ACCURACY_VALUE','Maximum Tolerance applied to model');
#1182=(
NAMED_UNIT(*)
SI_UNIT($,.STERADIAN.)
SOLID_ANGLE_UNIT()
);
#1183=(
NAMED_UNIT(*)
PLANE_ANGLE_UNIT()
SI_UNIT($,.RADIAN.)
);
#1184=(
LENGTH_UNIT()
NAMED_UNIT(*)
SI_UNIT($,.METRE.)
);
#1185=PRODUCT_DEFINITION_SHAPE('','',#1186);
#1186=PRODUCT_DEFINITION('','',#1188,#1187);
#1187=PRODUCT_DEFINITION_CONTEXT('',#1194,'design');
#1188=PRODUCT_DEFINITION_FORMATION_WITH_SPECIFIED_SOURCE('','',#1190,
 .NOT_KNOWN.);
#1189=PRODUCT_RELATED_PRODUCT_CATEGORY('','',(#1190));
#1190=PRODUCT('Part 1','Part 1','Part 1',(#1192));
#1191=PRODUCT_CATEGORY('','');
#1192=PRODUCT_CONTEXT('',#1194,'mechanical');
#1193=APPLICATION_PROTOCOL_DEFINITION('international standard',
'ap242_managed_model_based_3d_engineering',2020,#1194);
#1194=APPLICATION_CONTEXT('managed model based 3d engineering');
ENDSEC;
END-ISO-10303-21;
