ISO-10303-21;
HEADER;
/* Generated by software containing ST-Developer
 * from STEP Tools, Inc. (www.steptools.com) 
 */
/* OPTION: using custom renumber hook */

FILE_DESCRIPTION(
/* description */ ('STEP AP242 Edition 2',
'CAx-IF Rec.Pracs.---Representation and Presentation of Product Manufa
cturing Information (PMI)---4.0---2014-10-13',
'CAx-IF Rec.Pracs.---3D Tessellated Geometry---0.4---2014-09-14','2;1',
'CAx-IF Rec.Pracs.---User Defined Attributes---1.5---2016-08-15'),
/* implementation_level */ '2;1');

FILE_NAME(
/* name */ 'ws2812b led strip',
/* time_stamp */ '2026-06-22T12:46:11Z',
/* author */ (''),
/* organization */ (''),
/* preprocessor_version */ 'ST-DEVELOPER v20',
/* originating_system */ 'ONSHAPE BY PTC INC, 1.216',
/* authorisation */ '  ');

FILE_SCHEMA (('AP242_MANAGED_MODEL_BASED_3D_ENGINEERING_MIM_LF { 1 0 10303 442 3 1 4 }'));
ENDSEC;

DATA;
#10=SHAPE_REPRESENTATION_RELATIONSHIP('','',#1499,#11);
#11=ADVANCED_BREP_SHAPE_REPRESENTATION('',(#1497),#2357);
#12=CIRCLE('',#1505,0.0015);
#13=CIRCLE('',#1506,0.0015);
#14=CIRCLE('',#1509,0.0015);
#15=CIRCLE('',#1510,0.0015);
#16=CYLINDRICAL_SURFACE('',#1504,0.0015);
#17=CYLINDRICAL_SURFACE('',#1508,0.0015);
#18=ORIENTED_EDGE('',*,*,#434,.F.);
#19=ORIENTED_EDGE('',*,*,#435,.F.);
#20=ORIENTED_EDGE('',*,*,#436,.T.);
#21=ORIENTED_EDGE('',*,*,#437,.F.);
#22=ORIENTED_EDGE('',*,*,#438,.T.);
#23=ORIENTED_EDGE('',*,*,#439,.T.);
#24=ORIENTED_EDGE('',*,*,#440,.T.);
#25=ORIENTED_EDGE('',*,*,#441,.F.);
#26=ORIENTED_EDGE('',*,*,#442,.T.);
#27=ORIENTED_EDGE('',*,*,#443,.T.);
#28=ORIENTED_EDGE('',*,*,#444,.T.);
#29=ORIENTED_EDGE('',*,*,#445,.F.);
#30=ORIENTED_EDGE('',*,*,#446,.T.);
#31=ORIENTED_EDGE('',*,*,#447,.T.);
#32=ORIENTED_EDGE('',*,*,#448,.T.);
#33=ORIENTED_EDGE('',*,*,#449,.F.);
#34=ORIENTED_EDGE('',*,*,#450,.T.);
#35=ORIENTED_EDGE('',*,*,#451,.T.);
#36=ORIENTED_EDGE('',*,*,#452,.T.);
#37=ORIENTED_EDGE('',*,*,#453,.F.);
#38=ORIENTED_EDGE('',*,*,#454,.T.);
#39=ORIENTED_EDGE('',*,*,#455,.T.);
#40=ORIENTED_EDGE('',*,*,#456,.T.);
#41=ORIENTED_EDGE('',*,*,#457,.F.);
#42=ORIENTED_EDGE('',*,*,#458,.T.);
#43=ORIENTED_EDGE('',*,*,#459,.T.);
#44=ORIENTED_EDGE('',*,*,#460,.T.);
#45=ORIENTED_EDGE('',*,*,#461,.F.);
#46=ORIENTED_EDGE('',*,*,#462,.T.);
#47=ORIENTED_EDGE('',*,*,#463,.T.);
#48=ORIENTED_EDGE('',*,*,#464,.T.);
#49=ORIENTED_EDGE('',*,*,#465,.F.);
#50=ORIENTED_EDGE('',*,*,#466,.T.);
#51=ORIENTED_EDGE('',*,*,#467,.T.);
#52=ORIENTED_EDGE('',*,*,#468,.T.);
#53=ORIENTED_EDGE('',*,*,#469,.T.);
#54=ORIENTED_EDGE('',*,*,#470,.F.);
#55=ORIENTED_EDGE('',*,*,#471,.F.);
#56=ORIENTED_EDGE('',*,*,#472,.T.);
#57=ORIENTED_EDGE('',*,*,#435,.T.);
#58=ORIENTED_EDGE('',*,*,#473,.F.);
#59=ORIENTED_EDGE('',*,*,#474,.F.);
#60=ORIENTED_EDGE('',*,*,#475,.F.);
#61=ORIENTED_EDGE('',*,*,#476,.T.);
#62=ORIENTED_EDGE('',*,*,#477,.F.);
#63=ORIENTED_EDGE('',*,*,#478,.F.);
#64=ORIENTED_EDGE('',*,*,#479,.F.);
#65=ORIENTED_EDGE('',*,*,#480,.T.);
#66=ORIENTED_EDGE('',*,*,#481,.F.);
#67=ORIENTED_EDGE('',*,*,#482,.F.);
#68=ORIENTED_EDGE('',*,*,#483,.F.);
#69=ORIENTED_EDGE('',*,*,#484,.T.);
#70=ORIENTED_EDGE('',*,*,#485,.F.);
#71=ORIENTED_EDGE('',*,*,#486,.F.);
#72=ORIENTED_EDGE('',*,*,#487,.F.);
#73=ORIENTED_EDGE('',*,*,#488,.T.);
#74=ORIENTED_EDGE('',*,*,#489,.T.);
#75=ORIENTED_EDGE('',*,*,#490,.F.);
#76=ORIENTED_EDGE('',*,*,#491,.F.);
#77=ORIENTED_EDGE('',*,*,#471,.T.);
#78=ORIENTED_EDGE('',*,*,#492,.T.);
#79=ORIENTED_EDGE('',*,*,#493,.F.);
#80=ORIENTED_EDGE('',*,*,#494,.T.);
#81=ORIENTED_EDGE('',*,*,#495,.F.);
#82=ORIENTED_EDGE('',*,*,#496,.T.);
#83=ORIENTED_EDGE('',*,*,#497,.T.);
#84=ORIENTED_EDGE('',*,*,#498,.T.);
#85=ORIENTED_EDGE('',*,*,#499,.F.);
#86=ORIENTED_EDGE('',*,*,#500,.T.);
#87=ORIENTED_EDGE('',*,*,#501,.T.);
#88=ORIENTED_EDGE('',*,*,#502,.T.);
#89=ORIENTED_EDGE('',*,*,#503,.F.);
#90=ORIENTED_EDGE('',*,*,#504,.T.);
#91=ORIENTED_EDGE('',*,*,#505,.T.);
#92=ORIENTED_EDGE('',*,*,#506,.T.);
#93=ORIENTED_EDGE('',*,*,#507,.F.);
#94=ORIENTED_EDGE('',*,*,#508,.T.);
#95=ORIENTED_EDGE('',*,*,#509,.T.);
#96=ORIENTED_EDGE('',*,*,#510,.T.);
#97=ORIENTED_EDGE('',*,*,#469,.F.);
#98=ORIENTED_EDGE('',*,*,#511,.F.);
#99=ORIENTED_EDGE('',*,*,#490,.T.);
#100=ORIENTED_EDGE('',*,*,#512,.F.);
#101=ORIENTED_EDGE('',*,*,#513,.T.);
#102=ORIENTED_EDGE('',*,*,#468,.F.);
#103=ORIENTED_EDGE('',*,*,#514,.T.);
#104=ORIENTED_EDGE('',*,*,#515,.F.);
#105=ORIENTED_EDGE('',*,*,#516,.F.);
#106=ORIENTED_EDGE('',*,*,#464,.F.);
#107=ORIENTED_EDGE('',*,*,#517,.T.);
#108=ORIENTED_EDGE('',*,*,#518,.F.);
#109=ORIENTED_EDGE('',*,*,#519,.F.);
#110=ORIENTED_EDGE('',*,*,#460,.F.);
#111=ORIENTED_EDGE('',*,*,#520,.T.);
#112=ORIENTED_EDGE('',*,*,#521,.F.);
#113=ORIENTED_EDGE('',*,*,#522,.F.);
#114=ORIENTED_EDGE('',*,*,#456,.F.);
#115=ORIENTED_EDGE('',*,*,#523,.T.);
#116=ORIENTED_EDGE('',*,*,#524,.F.);
#117=ORIENTED_EDGE('',*,*,#525,.F.);
#118=ORIENTED_EDGE('',*,*,#452,.F.);
#119=ORIENTED_EDGE('',*,*,#526,.T.);
#120=ORIENTED_EDGE('',*,*,#527,.F.);
#121=ORIENTED_EDGE('',*,*,#528,.F.);
#122=ORIENTED_EDGE('',*,*,#448,.F.);
#123=ORIENTED_EDGE('',*,*,#529,.T.);
#124=ORIENTED_EDGE('',*,*,#530,.F.);
#125=ORIENTED_EDGE('',*,*,#531,.F.);
#126=ORIENTED_EDGE('',*,*,#444,.F.);
#127=ORIENTED_EDGE('',*,*,#532,.T.);
#128=ORIENTED_EDGE('',*,*,#533,.F.);
#129=ORIENTED_EDGE('',*,*,#534,.F.);
#130=ORIENTED_EDGE('',*,*,#440,.F.);
#131=ORIENTED_EDGE('',*,*,#535,.T.);
#132=ORIENTED_EDGE('',*,*,#536,.F.);
#133=ORIENTED_EDGE('',*,*,#537,.F.);
#134=ORIENTED_EDGE('',*,*,#436,.F.);
#135=ORIENTED_EDGE('',*,*,#472,.F.);
#136=ORIENTED_EDGE('',*,*,#491,.T.);
#137=ORIENTED_EDGE('',*,*,#511,.T.);
#138=ORIENTED_EDGE('',*,*,#492,.F.);
#139=ORIENTED_EDGE('',*,*,#512,.T.);
#140=ORIENTED_EDGE('',*,*,#481,.T.);
#141=ORIENTED_EDGE('',*,*,#538,.T.);
#142=ORIENTED_EDGE('',*,*,#539,.F.);
#143=ORIENTED_EDGE('',*,*,#540,.F.);
#144=ORIENTED_EDGE('',*,*,#477,.T.);
#145=ORIENTED_EDGE('',*,*,#541,.T.);
#146=ORIENTED_EDGE('',*,*,#542,.F.);
#147=ORIENTED_EDGE('',*,*,#543,.F.);
#148=ORIENTED_EDGE('',*,*,#473,.T.);
#149=ORIENTED_EDGE('',*,*,#434,.T.);
#150=ORIENTED_EDGE('',*,*,#510,.F.);
#151=ORIENTED_EDGE('',*,*,#544,.T.);
#152=ORIENTED_EDGE('',*,*,#545,.T.);
#153=ORIENTED_EDGE('',*,*,#546,.F.);
#154=ORIENTED_EDGE('',*,*,#506,.F.);
#155=ORIENTED_EDGE('',*,*,#547,.T.);
#156=ORIENTED_EDGE('',*,*,#548,.T.);
#157=ORIENTED_EDGE('',*,*,#549,.F.);
#158=ORIENTED_EDGE('',*,*,#502,.F.);
#159=ORIENTED_EDGE('',*,*,#550,.T.);
#160=ORIENTED_EDGE('',*,*,#551,.T.);
#161=ORIENTED_EDGE('',*,*,#552,.F.);
#162=ORIENTED_EDGE('',*,*,#498,.F.);
#163=ORIENTED_EDGE('',*,*,#553,.T.);
#164=ORIENTED_EDGE('',*,*,#554,.T.);
#165=ORIENTED_EDGE('',*,*,#555,.F.);
#166=ORIENTED_EDGE('',*,*,#494,.F.);
#167=ORIENTED_EDGE('',*,*,#489,.F.);
#168=ORIENTED_EDGE('',*,*,#470,.T.);
#169=ORIENTED_EDGE('',*,*,#556,.T.);
#170=ORIENTED_EDGE('',*,*,#557,.F.);
#171=ORIENTED_EDGE('',*,*,#558,.F.);
#172=ORIENTED_EDGE('',*,*,#485,.T.);
#173=ORIENTED_EDGE('',*,*,#559,.T.);
#174=ORIENTED_EDGE('',*,*,#560,.F.);
#175=ORIENTED_EDGE('',*,*,#561,.F.);
#176=ORIENTED_EDGE('',*,*,#493,.T.);
#177=ORIENTED_EDGE('',*,*,#513,.F.);
#178=ORIENTED_EDGE('',*,*,#516,.T.);
#179=ORIENTED_EDGE('',*,*,#562,.F.);
#180=ORIENTED_EDGE('',*,*,#563,.F.);
#181=ORIENTED_EDGE('',*,*,#465,.T.);
#182=ORIENTED_EDGE('',*,*,#515,.T.);
#183=ORIENTED_EDGE('',*,*,#564,.F.);
#184=ORIENTED_EDGE('',*,*,#565,.F.);
#185=ORIENTED_EDGE('',*,*,#562,.T.);
#186=ORIENTED_EDGE('',*,*,#564,.T.);
#187=ORIENTED_EDGE('',*,*,#514,.F.);
#188=ORIENTED_EDGE('',*,*,#467,.F.);
#189=ORIENTED_EDGE('',*,*,#566,.T.);
#190=ORIENTED_EDGE('',*,*,#466,.F.);
#191=ORIENTED_EDGE('',*,*,#563,.T.);
#192=ORIENTED_EDGE('',*,*,#565,.T.);
#193=ORIENTED_EDGE('',*,*,#566,.F.);
#194=ORIENTED_EDGE('',*,*,#519,.T.);
#195=ORIENTED_EDGE('',*,*,#567,.F.);
#196=ORIENTED_EDGE('',*,*,#568,.F.);
#197=ORIENTED_EDGE('',*,*,#461,.T.);
#198=ORIENTED_EDGE('',*,*,#518,.T.);
#199=ORIENTED_EDGE('',*,*,#569,.F.);
#200=ORIENTED_EDGE('',*,*,#570,.F.);
#201=ORIENTED_EDGE('',*,*,#567,.T.);
#202=ORIENTED_EDGE('',*,*,#569,.T.);
#203=ORIENTED_EDGE('',*,*,#517,.F.);
#204=ORIENTED_EDGE('',*,*,#463,.F.);
#205=ORIENTED_EDGE('',*,*,#571,.T.);
#206=ORIENTED_EDGE('',*,*,#462,.F.);
#207=ORIENTED_EDGE('',*,*,#568,.T.);
#208=ORIENTED_EDGE('',*,*,#570,.T.);
#209=ORIENTED_EDGE('',*,*,#571,.F.);
#210=ORIENTED_EDGE('',*,*,#522,.T.);
#211=ORIENTED_EDGE('',*,*,#572,.F.);
#212=ORIENTED_EDGE('',*,*,#573,.F.);
#213=ORIENTED_EDGE('',*,*,#457,.T.);
#214=ORIENTED_EDGE('',*,*,#521,.T.);
#215=ORIENTED_EDGE('',*,*,#574,.F.);
#216=ORIENTED_EDGE('',*,*,#575,.F.);
#217=ORIENTED_EDGE('',*,*,#572,.T.);
#218=ORIENTED_EDGE('',*,*,#574,.T.);
#219=ORIENTED_EDGE('',*,*,#520,.F.);
#220=ORIENTED_EDGE('',*,*,#459,.F.);
#221=ORIENTED_EDGE('',*,*,#576,.T.);
#222=ORIENTED_EDGE('',*,*,#458,.F.);
#223=ORIENTED_EDGE('',*,*,#573,.T.);
#224=ORIENTED_EDGE('',*,*,#575,.T.);
#225=ORIENTED_EDGE('',*,*,#576,.F.);
#226=ORIENTED_EDGE('',*,*,#525,.T.);
#227=ORIENTED_EDGE('',*,*,#577,.F.);
#228=ORIENTED_EDGE('',*,*,#578,.F.);
#229=ORIENTED_EDGE('',*,*,#453,.T.);
#230=ORIENTED_EDGE('',*,*,#524,.T.);
#231=ORIENTED_EDGE('',*,*,#579,.F.);
#232=ORIENTED_EDGE('',*,*,#580,.F.);
#233=ORIENTED_EDGE('',*,*,#577,.T.);
#234=ORIENTED_EDGE('',*,*,#579,.T.);
#235=ORIENTED_EDGE('',*,*,#523,.F.);
#236=ORIENTED_EDGE('',*,*,#455,.F.);
#237=ORIENTED_EDGE('',*,*,#581,.T.);
#238=ORIENTED_EDGE('',*,*,#454,.F.);
#239=ORIENTED_EDGE('',*,*,#578,.T.);
#240=ORIENTED_EDGE('',*,*,#580,.T.);
#241=ORIENTED_EDGE('',*,*,#581,.F.);
#242=ORIENTED_EDGE('',*,*,#528,.T.);
#243=ORIENTED_EDGE('',*,*,#582,.F.);
#244=ORIENTED_EDGE('',*,*,#583,.F.);
#245=ORIENTED_EDGE('',*,*,#449,.T.);
#246=ORIENTED_EDGE('',*,*,#527,.T.);
#247=ORIENTED_EDGE('',*,*,#584,.F.);
#248=ORIENTED_EDGE('',*,*,#585,.F.);
#249=ORIENTED_EDGE('',*,*,#582,.T.);
#250=ORIENTED_EDGE('',*,*,#584,.T.);
#251=ORIENTED_EDGE('',*,*,#526,.F.);
#252=ORIENTED_EDGE('',*,*,#451,.F.);
#253=ORIENTED_EDGE('',*,*,#586,.T.);
#254=ORIENTED_EDGE('',*,*,#450,.F.);
#255=ORIENTED_EDGE('',*,*,#583,.T.);
#256=ORIENTED_EDGE('',*,*,#585,.T.);
#257=ORIENTED_EDGE('',*,*,#586,.F.);
#258=ORIENTED_EDGE('',*,*,#531,.T.);
#259=ORIENTED_EDGE('',*,*,#587,.F.);
#260=ORIENTED_EDGE('',*,*,#588,.F.);
#261=ORIENTED_EDGE('',*,*,#445,.T.);
#262=ORIENTED_EDGE('',*,*,#530,.T.);
#263=ORIENTED_EDGE('',*,*,#589,.F.);
#264=ORIENTED_EDGE('',*,*,#590,.F.);
#265=ORIENTED_EDGE('',*,*,#587,.T.);
#266=ORIENTED_EDGE('',*,*,#589,.T.);
#267=ORIENTED_EDGE('',*,*,#529,.F.);
#268=ORIENTED_EDGE('',*,*,#447,.F.);
#269=ORIENTED_EDGE('',*,*,#591,.T.);
#270=ORIENTED_EDGE('',*,*,#446,.F.);
#271=ORIENTED_EDGE('',*,*,#588,.T.);
#272=ORIENTED_EDGE('',*,*,#590,.T.);
#273=ORIENTED_EDGE('',*,*,#591,.F.);
#274=ORIENTED_EDGE('',*,*,#534,.T.);
#275=ORIENTED_EDGE('',*,*,#592,.F.);
#276=ORIENTED_EDGE('',*,*,#593,.F.);
#277=ORIENTED_EDGE('',*,*,#441,.T.);
#278=ORIENTED_EDGE('',*,*,#533,.T.);
#279=ORIENTED_EDGE('',*,*,#594,.F.);
#280=ORIENTED_EDGE('',*,*,#595,.F.);
#281=ORIENTED_EDGE('',*,*,#592,.T.);
#282=ORIENTED_EDGE('',*,*,#594,.T.);
#283=ORIENTED_EDGE('',*,*,#532,.F.);
#284=ORIENTED_EDGE('',*,*,#443,.F.);
#285=ORIENTED_EDGE('',*,*,#596,.T.);
#286=ORIENTED_EDGE('',*,*,#442,.F.);
#287=ORIENTED_EDGE('',*,*,#593,.T.);
#288=ORIENTED_EDGE('',*,*,#595,.T.);
#289=ORIENTED_EDGE('',*,*,#596,.F.);
#290=ORIENTED_EDGE('',*,*,#537,.T.);
#291=ORIENTED_EDGE('',*,*,#597,.F.);
#292=ORIENTED_EDGE('',*,*,#598,.F.);
#293=ORIENTED_EDGE('',*,*,#437,.T.);
#294=ORIENTED_EDGE('',*,*,#536,.T.);
#295=ORIENTED_EDGE('',*,*,#599,.F.);
#296=ORIENTED_EDGE('',*,*,#600,.F.);
#297=ORIENTED_EDGE('',*,*,#597,.T.);
#298=ORIENTED_EDGE('',*,*,#599,.T.);
#299=ORIENTED_EDGE('',*,*,#535,.F.);
#300=ORIENTED_EDGE('',*,*,#439,.F.);
#301=ORIENTED_EDGE('',*,*,#601,.T.);
#302=ORIENTED_EDGE('',*,*,#438,.F.);
#303=ORIENTED_EDGE('',*,*,#598,.T.);
#304=ORIENTED_EDGE('',*,*,#600,.T.);
#305=ORIENTED_EDGE('',*,*,#601,.F.);
#306=ORIENTED_EDGE('',*,*,#543,.T.);
#307=ORIENTED_EDGE('',*,*,#602,.F.);
#308=ORIENTED_EDGE('',*,*,#603,.F.);
#309=ORIENTED_EDGE('',*,*,#474,.T.);
#310=ORIENTED_EDGE('',*,*,#542,.T.);
#311=ORIENTED_EDGE('',*,*,#604,.F.);
#312=ORIENTED_EDGE('',*,*,#605,.F.);
#313=ORIENTED_EDGE('',*,*,#602,.T.);
#314=ORIENTED_EDGE('',*,*,#541,.F.);
#315=ORIENTED_EDGE('',*,*,#476,.F.);
#316=ORIENTED_EDGE('',*,*,#606,.T.);
#317=ORIENTED_EDGE('',*,*,#604,.T.);
#318=ORIENTED_EDGE('',*,*,#475,.T.);
#319=ORIENTED_EDGE('',*,*,#603,.T.);
#320=ORIENTED_EDGE('',*,*,#605,.T.);
#321=ORIENTED_EDGE('',*,*,#606,.F.);
#322=ORIENTED_EDGE('',*,*,#546,.T.);
#323=ORIENTED_EDGE('',*,*,#607,.F.);
#324=ORIENTED_EDGE('',*,*,#608,.F.);
#325=ORIENTED_EDGE('',*,*,#507,.T.);
#326=ORIENTED_EDGE('',*,*,#545,.F.);
#327=ORIENTED_EDGE('',*,*,#609,.F.);
#328=ORIENTED_EDGE('',*,*,#610,.T.);
#329=ORIENTED_EDGE('',*,*,#607,.T.);
#330=ORIENTED_EDGE('',*,*,#544,.F.);
#331=ORIENTED_EDGE('',*,*,#509,.F.);
#332=ORIENTED_EDGE('',*,*,#611,.T.);
#333=ORIENTED_EDGE('',*,*,#609,.T.);
#334=ORIENTED_EDGE('',*,*,#508,.F.);
#335=ORIENTED_EDGE('',*,*,#608,.T.);
#336=ORIENTED_EDGE('',*,*,#610,.F.);
#337=ORIENTED_EDGE('',*,*,#611,.F.);
#338=ORIENTED_EDGE('',*,*,#549,.T.);
#339=ORIENTED_EDGE('',*,*,#612,.F.);
#340=ORIENTED_EDGE('',*,*,#613,.F.);
#341=ORIENTED_EDGE('',*,*,#503,.T.);
#342=ORIENTED_EDGE('',*,*,#548,.F.);
#343=ORIENTED_EDGE('',*,*,#614,.F.);
#344=ORIENTED_EDGE('',*,*,#615,.T.);
#345=ORIENTED_EDGE('',*,*,#612,.T.);
#346=ORIENTED_EDGE('',*,*,#547,.F.);
#347=ORIENTED_EDGE('',*,*,#505,.F.);
#348=ORIENTED_EDGE('',*,*,#616,.T.);
#349=ORIENTED_EDGE('',*,*,#614,.T.);
#350=ORIENTED_EDGE('',*,*,#504,.F.);
#351=ORIENTED_EDGE('',*,*,#613,.T.);
#352=ORIENTED_EDGE('',*,*,#615,.F.);
#353=ORIENTED_EDGE('',*,*,#616,.F.);
#354=ORIENTED_EDGE('',*,*,#550,.F.);
#355=ORIENTED_EDGE('',*,*,#501,.F.);
#356=ORIENTED_EDGE('',*,*,#617,.T.);
#357=ORIENTED_EDGE('',*,*,#618,.T.);
#358=ORIENTED_EDGE('',*,*,#552,.T.);
#359=ORIENTED_EDGE('',*,*,#619,.F.);
#360=ORIENTED_EDGE('',*,*,#620,.F.);
#361=ORIENTED_EDGE('',*,*,#499,.T.);
#362=ORIENTED_EDGE('',*,*,#551,.F.);
#363=ORIENTED_EDGE('',*,*,#618,.F.);
#364=ORIENTED_EDGE('',*,*,#621,.T.);
#365=ORIENTED_EDGE('',*,*,#619,.T.);
#366=ORIENTED_EDGE('',*,*,#617,.F.);
#367=ORIENTED_EDGE('',*,*,#500,.F.);
#368=ORIENTED_EDGE('',*,*,#620,.T.);
#369=ORIENTED_EDGE('',*,*,#621,.F.);
#370=ORIENTED_EDGE('',*,*,#553,.F.);
#371=ORIENTED_EDGE('',*,*,#497,.F.);
#372=ORIENTED_EDGE('',*,*,#622,.T.);
#373=ORIENTED_EDGE('',*,*,#623,.T.);
#374=ORIENTED_EDGE('',*,*,#555,.T.);
#375=ORIENTED_EDGE('',*,*,#624,.F.);
#376=ORIENTED_EDGE('',*,*,#625,.F.);
#377=ORIENTED_EDGE('',*,*,#495,.T.);
#378=ORIENTED_EDGE('',*,*,#554,.F.);
#379=ORIENTED_EDGE('',*,*,#623,.F.);
#380=ORIENTED_EDGE('',*,*,#626,.T.);
#381=ORIENTED_EDGE('',*,*,#624,.T.);
#382=ORIENTED_EDGE('',*,*,#622,.F.);
#383=ORIENTED_EDGE('',*,*,#496,.F.);
#384=ORIENTED_EDGE('',*,*,#625,.T.);
#385=ORIENTED_EDGE('',*,*,#626,.F.);
#386=ORIENTED_EDGE('',*,*,#556,.F.);
#387=ORIENTED_EDGE('',*,*,#488,.F.);
#388=ORIENTED_EDGE('',*,*,#627,.T.);
#389=ORIENTED_EDGE('',*,*,#628,.T.);
#390=ORIENTED_EDGE('',*,*,#558,.T.);
#391=ORIENTED_EDGE('',*,*,#629,.F.);
#392=ORIENTED_EDGE('',*,*,#630,.F.);
#393=ORIENTED_EDGE('',*,*,#486,.T.);
#394=ORIENTED_EDGE('',*,*,#557,.T.);
#395=ORIENTED_EDGE('',*,*,#628,.F.);
#396=ORIENTED_EDGE('',*,*,#631,.F.);
#397=ORIENTED_EDGE('',*,*,#629,.T.);
#398=ORIENTED_EDGE('',*,*,#627,.F.);
#399=ORIENTED_EDGE('',*,*,#487,.T.);
#400=ORIENTED_EDGE('',*,*,#630,.T.);
#401=ORIENTED_EDGE('',*,*,#631,.T.);
#402=ORIENTED_EDGE('',*,*,#559,.F.);
#403=ORIENTED_EDGE('',*,*,#484,.F.);
#404=ORIENTED_EDGE('',*,*,#632,.T.);
#405=ORIENTED_EDGE('',*,*,#633,.T.);
#406=ORIENTED_EDGE('',*,*,#561,.T.);
#407=ORIENTED_EDGE('',*,*,#634,.F.);
#408=ORIENTED_EDGE('',*,*,#635,.F.);
#409=ORIENTED_EDGE('',*,*,#482,.T.);
#410=ORIENTED_EDGE('',*,*,#560,.T.);
#411=ORIENTED_EDGE('',*,*,#633,.F.);
#412=ORIENTED_EDGE('',*,*,#636,.F.);
#413=ORIENTED_EDGE('',*,*,#634,.T.);
#414=ORIENTED_EDGE('',*,*,#632,.F.);
#415=ORIENTED_EDGE('',*,*,#483,.T.);
#416=ORIENTED_EDGE('',*,*,#635,.T.);
#417=ORIENTED_EDGE('',*,*,#636,.T.);
#418=ORIENTED_EDGE('',*,*,#538,.F.);
#419=ORIENTED_EDGE('',*,*,#480,.F.);
#420=ORIENTED_EDGE('',*,*,#637,.T.);
#421=ORIENTED_EDGE('',*,*,#638,.T.);
#422=ORIENTED_EDGE('',*,*,#540,.T.);
#423=ORIENTED_EDGE('',*,*,#639,.F.);
#424=ORIENTED_EDGE('',*,*,#640,.F.);
#425=ORIENTED_EDGE('',*,*,#478,.T.);
#426=ORIENTED_EDGE('',*,*,#539,.T.);
#427=ORIENTED_EDGE('',*,*,#638,.F.);
#428=ORIENTED_EDGE('',*,*,#641,.F.);
#429=ORIENTED_EDGE('',*,*,#639,.T.);
#430=ORIENTED_EDGE('',*,*,#637,.F.);
#431=ORIENTED_EDGE('',*,*,#479,.T.);
#432=ORIENTED_EDGE('',*,*,#640,.T.);
#433=ORIENTED_EDGE('',*,*,#641,.T.);
#434=EDGE_CURVE('',#642,#643,#782,.T.);
#435=EDGE_CURVE('',#644,#642,#783,.T.);
#436=EDGE_CURVE('',#644,#645,#784,.T.);
#437=EDGE_CURVE('',#646,#645,#785,.T.);
#438=EDGE_CURVE('',#646,#647,#786,.T.);
#439=EDGE_CURVE('',#647,#648,#787,.T.);
#440=EDGE_CURVE('',#648,#649,#788,.T.);
#441=EDGE_CURVE('',#650,#649,#789,.T.);
#442=EDGE_CURVE('',#650,#651,#790,.T.);
#443=EDGE_CURVE('',#651,#652,#791,.T.);
#444=EDGE_CURVE('',#652,#653,#792,.T.);
#445=EDGE_CURVE('',#654,#653,#793,.T.);
#446=EDGE_CURVE('',#654,#655,#794,.T.);
#447=EDGE_CURVE('',#655,#656,#795,.T.);
#448=EDGE_CURVE('',#656,#657,#796,.T.);
#449=EDGE_CURVE('',#658,#657,#797,.T.);
#450=EDGE_CURVE('',#658,#659,#798,.T.);
#451=EDGE_CURVE('',#659,#660,#799,.T.);
#452=EDGE_CURVE('',#660,#661,#800,.T.);
#453=EDGE_CURVE('',#662,#661,#801,.T.);
#454=EDGE_CURVE('',#662,#663,#802,.T.);
#455=EDGE_CURVE('',#663,#664,#803,.T.);
#456=EDGE_CURVE('',#664,#665,#804,.T.);
#457=EDGE_CURVE('',#666,#665,#805,.T.);
#458=EDGE_CURVE('',#666,#667,#806,.T.);
#459=EDGE_CURVE('',#667,#668,#807,.T.);
#460=EDGE_CURVE('',#668,#669,#808,.T.);
#461=EDGE_CURVE('',#670,#669,#809,.T.);
#462=EDGE_CURVE('',#670,#671,#810,.T.);
#463=EDGE_CURVE('',#671,#672,#811,.T.);
#464=EDGE_CURVE('',#672,#673,#812,.T.);
#465=EDGE_CURVE('',#674,#673,#813,.T.);
#466=EDGE_CURVE('',#674,#675,#814,.T.);
#467=EDGE_CURVE('',#675,#676,#815,.T.);
#468=EDGE_CURVE('',#676,#677,#816,.T.);
#469=EDGE_CURVE('',#677,#643,#817,.T.);
#470=EDGE_CURVE('',#678,#679,#818,.T.);
#471=EDGE_CURVE('',#680,#678,#819,.T.);
#472=EDGE_CURVE('',#680,#644,#820,.T.);
#473=EDGE_CURVE('',#681,#642,#821,.T.);
#474=EDGE_CURVE('',#682,#681,#822,.T.);
#475=EDGE_CURVE('',#683,#682,#823,.T.);
#476=EDGE_CURVE('',#683,#684,#824,.T.);
#477=EDGE_CURVE('',#685,#684,#825,.T.);
#478=EDGE_CURVE('',#686,#685,#826,.T.);
#479=EDGE_CURVE('',#687,#686,#827,.T.);
#480=EDGE_CURVE('',#687,#688,#828,.T.);
#481=EDGE_CURVE('',#689,#688,#829,.T.);
#482=EDGE_CURVE('',#690,#689,#830,.T.);
#483=EDGE_CURVE('',#691,#690,#831,.T.);
#484=EDGE_CURVE('',#691,#692,#832,.T.);
#485=EDGE_CURVE('',#693,#692,#833,.T.);
#486=EDGE_CURVE('',#694,#693,#834,.T.);
#487=EDGE_CURVE('',#695,#694,#835,.T.);
#488=EDGE_CURVE('',#695,#679,#836,.T.);
#489=EDGE_CURVE('',#678,#696,#837,.T.);
#490=EDGE_CURVE('',#697,#696,#838,.T.);
#491=EDGE_CURVE('',#680,#697,#839,.T.);
#492=EDGE_CURVE('',#698,#698,#12,.T.);
#493=EDGE_CURVE('',#699,#699,#13,.T.);
#494=EDGE_CURVE('',#696,#700,#840,.T.);
#495=EDGE_CURVE('',#701,#700,#841,.T.);
#496=EDGE_CURVE('',#701,#702,#842,.T.);
#497=EDGE_CURVE('',#702,#703,#843,.T.);
#498=EDGE_CURVE('',#703,#704,#844,.T.);
#499=EDGE_CURVE('',#705,#704,#845,.T.);
#500=EDGE_CURVE('',#705,#706,#846,.T.);
#501=EDGE_CURVE('',#706,#707,#847,.T.);
#502=EDGE_CURVE('',#707,#708,#848,.T.);
#503=EDGE_CURVE('',#709,#708,#849,.T.);
#504=EDGE_CURVE('',#709,#710,#850,.T.);
#505=EDGE_CURVE('',#710,#711,#851,.T.);
#506=EDGE_CURVE('',#711,#712,#852,.T.);
#507=EDGE_CURVE('',#713,#712,#853,.T.);
#508=EDGE_CURVE('',#713,#714,#854,.T.);
#509=EDGE_CURVE('',#714,#715,#855,.T.);
#510=EDGE_CURVE('',#715,#643,#856,.T.);
#511=EDGE_CURVE('',#697,#677,#857,.T.);
#512=EDGE_CURVE('',#716,#716,#14,.T.);
#513=EDGE_CURVE('',#717,#717,#15,.T.);
#514=EDGE_CURVE('',#676,#718,#858,.T.);
#515=EDGE_CURVE('',#719,#718,#859,.T.);
#516=EDGE_CURVE('',#673,#719,#860,.T.);
#517=EDGE_CURVE('',#672,#720,#861,.T.);
#518=EDGE_CURVE('',#721,#720,#862,.T.);
#519=EDGE_CURVE('',#669,#721,#863,.T.);
#520=EDGE_CURVE('',#668,#722,#864,.T.);
#521=EDGE_CURVE('',#723,#722,#865,.T.);
#522=EDGE_CURVE('',#665,#723,#866,.T.);
#523=EDGE_CURVE('',#664,#724,#867,.T.);
#524=EDGE_CURVE('',#725,#724,#868,.T.);
#525=EDGE_CURVE('',#661,#725,#869,.T.);
#526=EDGE_CURVE('',#660,#726,#870,.T.);
#527=EDGE_CURVE('',#727,#726,#871,.T.);
#528=EDGE_CURVE('',#657,#727,#872,.T.);
#529=EDGE_CURVE('',#656,#728,#873,.T.);
#530=EDGE_CURVE('',#729,#728,#874,.T.);
#531=EDGE_CURVE('',#653,#729,#875,.T.);
#532=EDGE_CURVE('',#652,#730,#876,.T.);
#533=EDGE_CURVE('',#731,#730,#877,.T.);
#534=EDGE_CURVE('',#649,#731,#878,.T.);
#535=EDGE_CURVE('',#648,#732,#879,.T.);
#536=EDGE_CURVE('',#733,#732,#880,.T.);
#537=EDGE_CURVE('',#645,#733,#881,.T.);
#538=EDGE_CURVE('',#688,#734,#882,.T.);
#539=EDGE_CURVE('',#735,#734,#883,.T.);
#540=EDGE_CURVE('',#685,#735,#884,.T.);
#541=EDGE_CURVE('',#684,#736,#885,.T.);
#542=EDGE_CURVE('',#737,#736,#886,.T.);
#543=EDGE_CURVE('',#681,#737,#887,.T.);
#544=EDGE_CURVE('',#715,#738,#888,.T.);
#545=EDGE_CURVE('',#738,#739,#889,.T.);
#546=EDGE_CURVE('',#712,#739,#890,.T.);
#547=EDGE_CURVE('',#711,#740,#891,.T.);
#548=EDGE_CURVE('',#740,#741,#892,.T.);
#549=EDGE_CURVE('',#708,#741,#893,.T.);
#550=EDGE_CURVE('',#707,#742,#894,.T.);
#551=EDGE_CURVE('',#742,#743,#895,.T.);
#552=EDGE_CURVE('',#704,#743,#896,.T.);
#553=EDGE_CURVE('',#703,#744,#897,.T.);
#554=EDGE_CURVE('',#744,#745,#898,.T.);
#555=EDGE_CURVE('',#700,#745,#899,.T.);
#556=EDGE_CURVE('',#679,#746,#900,.T.);
#557=EDGE_CURVE('',#747,#746,#901,.T.);
#558=EDGE_CURVE('',#693,#747,#902,.T.);
#559=EDGE_CURVE('',#692,#748,#903,.T.);
#560=EDGE_CURVE('',#749,#748,#904,.T.);
#561=EDGE_CURVE('',#689,#749,#905,.T.);
#562=EDGE_CURVE('',#750,#719,#906,.T.);
#563=EDGE_CURVE('',#674,#750,#907,.T.);
#564=EDGE_CURVE('',#751,#718,#908,.T.);
#565=EDGE_CURVE('',#750,#751,#909,.T.);
#566=EDGE_CURVE('',#675,#751,#910,.T.);
#567=EDGE_CURVE('',#752,#721,#911,.T.);
#568=EDGE_CURVE('',#670,#752,#912,.T.);
#569=EDGE_CURVE('',#753,#720,#913,.T.);
#570=EDGE_CURVE('',#752,#753,#914,.T.);
#571=EDGE_CURVE('',#671,#753,#915,.T.);
#572=EDGE_CURVE('',#754,#723,#916,.T.);
#573=EDGE_CURVE('',#666,#754,#917,.T.);
#574=EDGE_CURVE('',#755,#722,#918,.T.);
#575=EDGE_CURVE('',#754,#755,#919,.T.);
#576=EDGE_CURVE('',#667,#755,#920,.T.);
#577=EDGE_CURVE('',#756,#725,#921,.T.);
#578=EDGE_CURVE('',#662,#756,#922,.T.);
#579=EDGE_CURVE('',#757,#724,#923,.T.);
#580=EDGE_CURVE('',#756,#757,#924,.T.);
#581=EDGE_CURVE('',#663,#757,#925,.T.);
#582=EDGE_CURVE('',#758,#727,#926,.T.);
#583=EDGE_CURVE('',#658,#758,#927,.T.);
#584=EDGE_CURVE('',#759,#726,#928,.T.);
#585=EDGE_CURVE('',#758,#759,#929,.T.);
#586=EDGE_CURVE('',#659,#759,#930,.T.);
#587=EDGE_CURVE('',#760,#729,#931,.T.);
#588=EDGE_CURVE('',#654,#760,#932,.T.);
#589=EDGE_CURVE('',#761,#728,#933,.T.);
#590=EDGE_CURVE('',#760,#761,#934,.T.);
#591=EDGE_CURVE('',#655,#761,#935,.T.);
#592=EDGE_CURVE('',#762,#731,#936,.T.);
#593=EDGE_CURVE('',#650,#762,#937,.T.);
#594=EDGE_CURVE('',#763,#730,#938,.T.);
#595=EDGE_CURVE('',#762,#763,#939,.T.);
#596=EDGE_CURVE('',#651,#763,#940,.T.);
#597=EDGE_CURVE('',#764,#733,#941,.T.);
#598=EDGE_CURVE('',#646,#764,#942,.T.);
#599=EDGE_CURVE('',#765,#732,#943,.T.);
#600=EDGE_CURVE('',#764,#765,#944,.T.);
#601=EDGE_CURVE('',#647,#765,#945,.T.);
#602=EDGE_CURVE('',#766,#737,#946,.T.);
#603=EDGE_CURVE('',#682,#766,#947,.T.);
#604=EDGE_CURVE('',#767,#736,#948,.T.);
#605=EDGE_CURVE('',#766,#767,#949,.T.);
#606=EDGE_CURVE('',#683,#767,#950,.T.);
#607=EDGE_CURVE('',#768,#739,#951,.T.);
#608=EDGE_CURVE('',#713,#768,#952,.T.);
#609=EDGE_CURVE('',#769,#738,#953,.T.);
#610=EDGE_CURVE('',#769,#768,#954,.T.);
#611=EDGE_CURVE('',#714,#769,#955,.T.);
#612=EDGE_CURVE('',#770,#741,#956,.T.);
#613=EDGE_CURVE('',#709,#770,#957,.T.);
#614=EDGE_CURVE('',#771,#740,#958,.T.);
#615=EDGE_CURVE('',#771,#770,#959,.T.);
#616=EDGE_CURVE('',#710,#771,#960,.T.);
#617=EDGE_CURVE('',#706,#772,#961,.T.);
#618=EDGE_CURVE('',#772,#742,#962,.T.);
#619=EDGE_CURVE('',#773,#743,#963,.T.);
#620=EDGE_CURVE('',#705,#773,#964,.T.);
#621=EDGE_CURVE('',#772,#773,#965,.T.);
#622=EDGE_CURVE('',#702,#774,#966,.T.);
#623=EDGE_CURVE('',#774,#744,#967,.T.);
#624=EDGE_CURVE('',#775,#745,#968,.T.);
#625=EDGE_CURVE('',#701,#775,#969,.T.);
#626=EDGE_CURVE('',#774,#775,#970,.T.);
#627=EDGE_CURVE('',#695,#776,#971,.T.);
#628=EDGE_CURVE('',#776,#746,#972,.T.);
#629=EDGE_CURVE('',#777,#747,#973,.T.);
#630=EDGE_CURVE('',#694,#777,#974,.T.);
#631=EDGE_CURVE('',#777,#776,#975,.T.);
#632=EDGE_CURVE('',#691,#778,#976,.T.);
#633=EDGE_CURVE('',#778,#748,#977,.T.);
#634=EDGE_CURVE('',#779,#749,#978,.T.);
#635=EDGE_CURVE('',#690,#779,#979,.T.);
#636=EDGE_CURVE('',#779,#778,#980,.T.);
#637=EDGE_CURVE('',#687,#780,#981,.T.);
#638=EDGE_CURVE('',#780,#734,#982,.T.);
#639=EDGE_CURVE('',#781,#735,#983,.T.);
#640=EDGE_CURVE('',#686,#781,#984,.T.);
#641=EDGE_CURVE('',#781,#780,#985,.T.);
#642=VERTEX_POINT('',#1938);
#643=VERTEX_POINT('',#1939);
#644=VERTEX_POINT('',#1941);
#645=VERTEX_POINT('',#1943);
#646=VERTEX_POINT('',#1945);
#647=VERTEX_POINT('',#1947);
#648=VERTEX_POINT('',#1949);
#649=VERTEX_POINT('',#1951);
#650=VERTEX_POINT('',#1953);
#651=VERTEX_POINT('',#1955);
#652=VERTEX_POINT('',#1957);
#653=VERTEX_POINT('',#1959);
#654=VERTEX_POINT('',#1961);
#655=VERTEX_POINT('',#1963);
#656=VERTEX_POINT('',#1965);
#657=VERTEX_POINT('',#1967);
#658=VERTEX_POINT('',#1969);
#659=VERTEX_POINT('',#1971);
#660=VERTEX_POINT('',#1973);
#661=VERTEX_POINT('',#1975);
#662=VERTEX_POINT('',#1977);
#663=VERTEX_POINT('',#1979);
#664=VERTEX_POINT('',#1981);
#665=VERTEX_POINT('',#1983);
#666=VERTEX_POINT('',#1985);
#667=VERTEX_POINT('',#1987);
#668=VERTEX_POINT('',#1989);
#669=VERTEX_POINT('',#1991);
#670=VERTEX_POINT('',#1993);
#671=VERTEX_POINT('',#1995);
#672=VERTEX_POINT('',#1997);
#673=VERTEX_POINT('',#1999);
#674=VERTEX_POINT('',#2001);
#675=VERTEX_POINT('',#2003);
#676=VERTEX_POINT('',#2005);
#677=VERTEX_POINT('',#2007);
#678=VERTEX_POINT('',#2011);
#679=VERTEX_POINT('',#2012);
#680=VERTEX_POINT('',#2014);
#681=VERTEX_POINT('',#2017);
#682=VERTEX_POINT('',#2019);
#683=VERTEX_POINT('',#2021);
#684=VERTEX_POINT('',#2023);
#685=VERTEX_POINT('',#2025);
#686=VERTEX_POINT('',#2027);
#687=VERTEX_POINT('',#2029);
#688=VERTEX_POINT('',#2031);
#689=VERTEX_POINT('',#2033);
#690=VERTEX_POINT('',#2035);
#691=VERTEX_POINT('',#2037);
#692=VERTEX_POINT('',#2039);
#693=VERTEX_POINT('',#2041);
#694=VERTEX_POINT('',#2043);
#695=VERTEX_POINT('',#2045);
#696=VERTEX_POINT('',#2049);
#697=VERTEX_POINT('',#2051);
#698=VERTEX_POINT('',#2055);
#699=VERTEX_POINT('',#2057);
#700=VERTEX_POINT('',#2060);
#701=VERTEX_POINT('',#2062);
#702=VERTEX_POINT('',#2064);
#703=VERTEX_POINT('',#2066);
#704=VERTEX_POINT('',#2068);
#705=VERTEX_POINT('',#2070);
#706=VERTEX_POINT('',#2072);
#707=VERTEX_POINT('',#2074);
#708=VERTEX_POINT('',#2076);
#709=VERTEX_POINT('',#2078);
#710=VERTEX_POINT('',#2080);
#711=VERTEX_POINT('',#2082);
#712=VERTEX_POINT('',#2084);
#713=VERTEX_POINT('',#2086);
#714=VERTEX_POINT('',#2088);
#715=VERTEX_POINT('',#2090);
#716=VERTEX_POINT('',#2095);
#717=VERTEX_POINT('',#2097);
#718=VERTEX_POINT('',#2100);
#719=VERTEX_POINT('',#2102);
#720=VERTEX_POINT('',#2105);
#721=VERTEX_POINT('',#2107);
#722=VERTEX_POINT('',#2110);
#723=VERTEX_POINT('',#2112);
#724=VERTEX_POINT('',#2115);
#725=VERTEX_POINT('',#2117);
#726=VERTEX_POINT('',#2120);
#727=VERTEX_POINT('',#2122);
#728=VERTEX_POINT('',#2125);
#729=VERTEX_POINT('',#2127);
#730=VERTEX_POINT('',#2130);
#731=VERTEX_POINT('',#2132);
#732=VERTEX_POINT('',#2135);
#733=VERTEX_POINT('',#2137);
#734=VERTEX_POINT('',#2141);
#735=VERTEX_POINT('',#2143);
#736=VERTEX_POINT('',#2146);
#737=VERTEX_POINT('',#2148);
#738=VERTEX_POINT('',#2151);
#739=VERTEX_POINT('',#2153);
#740=VERTEX_POINT('',#2156);
#741=VERTEX_POINT('',#2158);
#742=VERTEX_POINT('',#2161);
#743=VERTEX_POINT('',#2163);
#744=VERTEX_POINT('',#2166);
#745=VERTEX_POINT('',#2168);
#746=VERTEX_POINT('',#2171);
#747=VERTEX_POINT('',#2173);
#748=VERTEX_POINT('',#2176);
#749=VERTEX_POINT('',#2178);
#750=VERTEX_POINT('',#2182);
#751=VERTEX_POINT('',#2186);
#752=VERTEX_POINT('',#2193);
#753=VERTEX_POINT('',#2197);
#754=VERTEX_POINT('',#2204);
#755=VERTEX_POINT('',#2208);
#756=VERTEX_POINT('',#2215);
#757=VERTEX_POINT('',#2219);
#758=VERTEX_POINT('',#2226);
#759=VERTEX_POINT('',#2230);
#760=VERTEX_POINT('',#2237);
#761=VERTEX_POINT('',#2241);
#762=VERTEX_POINT('',#2248);
#763=VERTEX_POINT('',#2252);
#764=VERTEX_POINT('',#2259);
#765=VERTEX_POINT('',#2263);
#766=VERTEX_POINT('',#2270);
#767=VERTEX_POINT('',#2274);
#768=VERTEX_POINT('',#2281);
#769=VERTEX_POINT('',#2285);
#770=VERTEX_POINT('',#2292);
#771=VERTEX_POINT('',#2296);
#772=VERTEX_POINT('',#2303);
#773=VERTEX_POINT('',#2307);
#774=VERTEX_POINT('',#2314);
#775=VERTEX_POINT('',#2318);
#776=VERTEX_POINT('',#2325);
#777=VERTEX_POINT('',#2329);
#778=VERTEX_POINT('',#2336);
#779=VERTEX_POINT('',#2340);
#780=VERTEX_POINT('',#2347);
#781=VERTEX_POINT('',#2351);
#782=LINE('',#1937,#986);
#783=LINE('',#1940,#987);
#784=LINE('',#1942,#988);
#785=LINE('',#1944,#989);
#786=LINE('',#1946,#990);
#787=LINE('',#1948,#991);
#788=LINE('',#1950,#992);
#789=LINE('',#1952,#993);
#790=LINE('',#1954,#994);
#791=LINE('',#1956,#995);
#792=LINE('',#1958,#996);
#793=LINE('',#1960,#997);
#794=LINE('',#1962,#998);
#795=LINE('',#1964,#999);
#796=LINE('',#1966,#1000);
#797=LINE('',#1968,#1001);
#798=LINE('',#1970,#1002);
#799=LINE('',#1972,#1003);
#800=LINE('',#1974,#1004);
#801=LINE('',#1976,#1005);
#802=LINE('',#1978,#1006);
#803=LINE('',#1980,#1007);
#804=LINE('',#1982,#1008);
#805=LINE('',#1984,#1009);
#806=LINE('',#1986,#1010);
#807=LINE('',#1988,#1011);
#808=LINE('',#1990,#1012);
#809=LINE('',#1992,#1013);
#810=LINE('',#1994,#1014);
#811=LINE('',#1996,#1015);
#812=LINE('',#1998,#1016);
#813=LINE('',#2000,#1017);
#814=LINE('',#2002,#1018);
#815=LINE('',#2004,#1019);
#816=LINE('',#2006,#1020);
#817=LINE('',#2008,#1021);
#818=LINE('',#2010,#1022);
#819=LINE('',#2013,#1023);
#820=LINE('',#2015,#1024);
#821=LINE('',#2016,#1025);
#822=LINE('',#2018,#1026);
#823=LINE('',#2020,#1027);
#824=LINE('',#2022,#1028);
#825=LINE('',#2024,#1029);
#826=LINE('',#2026,#1030);
#827=LINE('',#2028,#1031);
#828=LINE('',#2030,#1032);
#829=LINE('',#2032,#1033);
#830=LINE('',#2034,#1034);
#831=LINE('',#2036,#1035);
#832=LINE('',#2038,#1036);
#833=LINE('',#2040,#1037);
#834=LINE('',#2042,#1038);
#835=LINE('',#2044,#1039);
#836=LINE('',#2046,#1040);
#837=LINE('',#2048,#1041);
#838=LINE('',#2050,#1042);
#839=LINE('',#2052,#1043);
#840=LINE('',#2059,#1044);
#841=LINE('',#2061,#1045);
#842=LINE('',#2063,#1046);
#843=LINE('',#2065,#1047);
#844=LINE('',#2067,#1048);
#845=LINE('',#2069,#1049);
#846=LINE('',#2071,#1050);
#847=LINE('',#2073,#1051);
#848=LINE('',#2075,#1052);
#849=LINE('',#2077,#1053);
#850=LINE('',#2079,#1054);
#851=LINE('',#2081,#1055);
#852=LINE('',#2083,#1056);
#853=LINE('',#2085,#1057);
#854=LINE('',#2087,#1058);
#855=LINE('',#2089,#1059);
#856=LINE('',#2091,#1060);
#857=LINE('',#2092,#1061);
#858=LINE('',#2099,#1062);
#859=LINE('',#2101,#1063);
#860=LINE('',#2103,#1064);
#861=LINE('',#2104,#1065);
#862=LINE('',#2106,#1066);
#863=LINE('',#2108,#1067);
#864=LINE('',#2109,#1068);
#865=LINE('',#2111,#1069);
#866=LINE('',#2113,#1070);
#867=LINE('',#2114,#1071);
#868=LINE('',#2116,#1072);
#869=LINE('',#2118,#1073);
#870=LINE('',#2119,#1074);
#871=LINE('',#2121,#1075);
#872=LINE('',#2123,#1076);
#873=LINE('',#2124,#1077);
#874=LINE('',#2126,#1078);
#875=LINE('',#2128,#1079);
#876=LINE('',#2129,#1080);
#877=LINE('',#2131,#1081);
#878=LINE('',#2133,#1082);
#879=LINE('',#2134,#1083);
#880=LINE('',#2136,#1084);
#881=LINE('',#2138,#1085);
#882=LINE('',#2140,#1086);
#883=LINE('',#2142,#1087);
#884=LINE('',#2144,#1088);
#885=LINE('',#2145,#1089);
#886=LINE('',#2147,#1090);
#887=LINE('',#2149,#1091);
#888=LINE('',#2150,#1092);
#889=LINE('',#2152,#1093);
#890=LINE('',#2154,#1094);
#891=LINE('',#2155,#1095);
#892=LINE('',#2157,#1096);
#893=LINE('',#2159,#1097);
#894=LINE('',#2160,#1098);
#895=LINE('',#2162,#1099);
#896=LINE('',#2164,#1100);
#897=LINE('',#2165,#1101);
#898=LINE('',#2167,#1102);
#899=LINE('',#2169,#1103);
#900=LINE('',#2170,#1104);
#901=LINE('',#2172,#1105);
#902=LINE('',#2174,#1106);
#903=LINE('',#2175,#1107);
#904=LINE('',#2177,#1108);
#905=LINE('',#2179,#1109);
#906=LINE('',#2181,#1110);
#907=LINE('',#2183,#1111);
#908=LINE('',#2185,#1112);
#909=LINE('',#2187,#1113);
#910=LINE('',#2189,#1114);
#911=LINE('',#2192,#1115);
#912=LINE('',#2194,#1116);
#913=LINE('',#2196,#1117);
#914=LINE('',#2198,#1118);
#915=LINE('',#2200,#1119);
#916=LINE('',#2203,#1120);
#917=LINE('',#2205,#1121);
#918=LINE('',#2207,#1122);
#919=LINE('',#2209,#1123);
#920=LINE('',#2211,#1124);
#921=LINE('',#2214,#1125);
#922=LINE('',#2216,#1126);
#923=LINE('',#2218,#1127);
#924=LINE('',#2220,#1128);
#925=LINE('',#2222,#1129);
#926=LINE('',#2225,#1130);
#927=LINE('',#2227,#1131);
#928=LINE('',#2229,#1132);
#929=LINE('',#2231,#1133);
#930=LINE('',#2233,#1134);
#931=LINE('',#2236,#1135);
#932=LINE('',#2238,#1136);
#933=LINE('',#2240,#1137);
#934=LINE('',#2242,#1138);
#935=LINE('',#2244,#1139);
#936=LINE('',#2247,#1140);
#937=LINE('',#2249,#1141);
#938=LINE('',#2251,#1142);
#939=LINE('',#2253,#1143);
#940=LINE('',#2255,#1144);
#941=LINE('',#2258,#1145);
#942=LINE('',#2260,#1146);
#943=LINE('',#2262,#1147);
#944=LINE('',#2264,#1148);
#945=LINE('',#2266,#1149);
#946=LINE('',#2269,#1150);
#947=LINE('',#2271,#1151);
#948=LINE('',#2273,#1152);
#949=LINE('',#2275,#1153);
#950=LINE('',#2277,#1154);
#951=LINE('',#2280,#1155);
#952=LINE('',#2282,#1156);
#953=LINE('',#2284,#1157);
#954=LINE('',#2286,#1158);
#955=LINE('',#2288,#1159);
#956=LINE('',#2291,#1160);
#957=LINE('',#2293,#1161);
#958=LINE('',#2295,#1162);
#959=LINE('',#2297,#1163);
#960=LINE('',#2299,#1164);
#961=LINE('',#2302,#1165);
#962=LINE('',#2304,#1166);
#963=LINE('',#2306,#1167);
#964=LINE('',#2308,#1168);
#965=LINE('',#2310,#1169);
#966=LINE('',#2313,#1170);
#967=LINE('',#2315,#1171);
#968=LINE('',#2317,#1172);
#969=LINE('',#2319,#1173);
#970=LINE('',#2321,#1174);
#971=LINE('',#2324,#1175);
#972=LINE('',#2326,#1176);
#973=LINE('',#2328,#1177);
#974=LINE('',#2330,#1178);
#975=LINE('',#2332,#1179);
#976=LINE('',#2335,#1180);
#977=LINE('',#2337,#1181);
#978=LINE('',#2339,#1182);
#979=LINE('',#2341,#1183);
#980=LINE('',#2343,#1184);
#981=LINE('',#2346,#1185);
#982=LINE('',#2348,#1186);
#983=LINE('',#2350,#1187);
#984=LINE('',#2352,#1188);
#985=LINE('',#2354,#1189);
#986=VECTOR('',#1581,1.);
#987=VECTOR('',#1582,1.);
#988=VECTOR('',#1583,1.);
#989=VECTOR('',#1584,1.);
#990=VECTOR('',#1585,1.);
#991=VECTOR('',#1586,1.);
#992=VECTOR('',#1587,1.);
#993=VECTOR('',#1588,1.);
#994=VECTOR('',#1589,1.);
#995=VECTOR('',#1590,1.);
#996=VECTOR('',#1591,1.);
#997=VECTOR('',#1592,1.);
#998=VECTOR('',#1593,1.);
#999=VECTOR('',#1594,1.);
#1000=VECTOR('',#1595,1.);
#1001=VECTOR('',#1596,1.);
#1002=VECTOR('',#1597,1.);
#1003=VECTOR('',#1598,1.);
#1004=VECTOR('',#1599,1.);
#1005=VECTOR('',#1600,1.);
#1006=VECTOR('',#1601,1.);
#1007=VECTOR('',#1602,1.);
#1008=VECTOR('',#1603,1.);
#1009=VECTOR('',#1604,1.);
#1010=VECTOR('',#1605,1.);
#1011=VECTOR('',#1606,1.);
#1012=VECTOR('',#1607,1.);
#1013=VECTOR('',#1608,1.);
#1014=VECTOR('',#1609,1.);
#1015=VECTOR('',#1610,1.);
#1016=VECTOR('',#1611,1.);
#1017=VECTOR('',#1612,1.);
#1018=VECTOR('',#1613,1.);
#1019=VECTOR('',#1614,1.);
#1020=VECTOR('',#1615,1.);
#1021=VECTOR('',#1616,1.);
#1022=VECTOR('',#1619,1.);
#1023=VECTOR('',#1620,1.);
#1024=VECTOR('',#1621,1.);
#1025=VECTOR('',#1622,1.);
#1026=VECTOR('',#1623,1.);
#1027=VECTOR('',#1624,1.);
#1028=VECTOR('',#1625,1.);
#1029=VECTOR('',#1626,1.);
#1030=VECTOR('',#1627,1.);
#1031=VECTOR('',#1628,1.);
#1032=VECTOR('',#1629,1.);
#1033=VECTOR('',#1630,1.);
#1034=VECTOR('',#1631,1.);
#1035=VECTOR('',#1632,1.);
#1036=VECTOR('',#1633,1.);
#1037=VECTOR('',#1634,1.);
#1038=VECTOR('',#1635,1.);
#1039=VECTOR('',#1636,1.);
#1040=VECTOR('',#1637,1.);
#1041=VECTOR('',#1640,1.);
#1042=VECTOR('',#1641,1.);
#1043=VECTOR('',#1642,1.);
#1044=VECTOR('',#1651,1.);
#1045=VECTOR('',#1652,1.);
#1046=VECTOR('',#1653,1.);
#1047=VECTOR('',#1654,1.);
#1048=VECTOR('',#1655,1.);
#1049=VECTOR('',#1656,1.);
#1050=VECTOR('',#1657,1.);
#1051=VECTOR('',#1658,1.);
#1052=VECTOR('',#1659,1.);
#1053=VECTOR('',#1660,1.);
#1054=VECTOR('',#1661,1.);
#1055=VECTOR('',#1662,1.);
#1056=VECTOR('',#1663,1.);
#1057=VECTOR('',#1664,1.);
#1058=VECTOR('',#1665,1.);
#1059=VECTOR('',#1666,1.);
#1060=VECTOR('',#1667,1.);
#1061=VECTOR('',#1668,1.);
#1062=VECTOR('',#1677,1.);
#1063=VECTOR('',#1678,1.);
#1064=VECTOR('',#1679,1.);
#1065=VECTOR('',#1680,1.);
#1066=VECTOR('',#1681,1.);
#1067=VECTOR('',#1682,1.);
#1068=VECTOR('',#1683,1.);
#1069=VECTOR('',#1684,1.);
#1070=VECTOR('',#1685,1.);
#1071=VECTOR('',#1686,1.);
#1072=VECTOR('',#1687,1.);
#1073=VECTOR('',#1688,1.);
#1074=VECTOR('',#1689,1.);
#1075=VECTOR('',#1690,1.);
#1076=VECTOR('',#1691,1.);
#1077=VECTOR('',#1692,1.);
#1078=VECTOR('',#1693,1.);
#1079=VECTOR('',#1694,1.);
#1080=VECTOR('',#1695,1.);
#1081=VECTOR('',#1696,1.);
#1082=VECTOR('',#1697,1.);
#1083=VECTOR('',#1698,1.);
#1084=VECTOR('',#1699,1.);
#1085=VECTOR('',#1700,1.);
#1086=VECTOR('',#1703,1.);
#1087=VECTOR('',#1704,1.);
#1088=VECTOR('',#1705,1.);
#1089=VECTOR('',#1706,1.);
#1090=VECTOR('',#1707,1.);
#1091=VECTOR('',#1708,1.);
#1092=VECTOR('',#1709,1.);
#1093=VECTOR('',#1710,1.);
#1094=VECTOR('',#1711,1.);
#1095=VECTOR('',#1712,1.);
#1096=VECTOR('',#1713,1.);
#1097=VECTOR('',#1714,1.);
#1098=VECTOR('',#1715,1.);
#1099=VECTOR('',#1716,1.);
#1100=VECTOR('',#1717,1.);
#1101=VECTOR('',#1718,1.);
#1102=VECTOR('',#1719,1.);
#1103=VECTOR('',#1720,1.);
#1104=VECTOR('',#1721,1.);
#1105=VECTOR('',#1722,1.);
#1106=VECTOR('',#1723,1.);
#1107=VECTOR('',#1724,1.);
#1108=VECTOR('',#1725,1.);
#1109=VECTOR('',#1726,1.);
#1110=VECTOR('',#1729,1.);
#1111=VECTOR('',#1730,1.);
#1112=VECTOR('',#1733,1.);
#1113=VECTOR('',#1734,1.);
#1114=VECTOR('',#1737,1.);
#1115=VECTOR('',#1742,1.);
#1116=VECTOR('',#1743,1.);
#1117=VECTOR('',#1746,1.);
#1118=VECTOR('',#1747,1.);
#1119=VECTOR('',#1750,1.);
#1120=VECTOR('',#1755,1.);
#1121=VECTOR('',#1756,1.);
#1122=VECTOR('',#1759,1.);
#1123=VECTOR('',#1760,1.);
#1124=VECTOR('',#1763,1.);
#1125=VECTOR('',#1768,1.);
#1126=VECTOR('',#1769,1.);
#1127=VECTOR('',#1772,1.);
#1128=VECTOR('',#1773,1.);
#1129=VECTOR('',#1776,1.);
#1130=VECTOR('',#1781,1.);
#1131=VECTOR('',#1782,1.);
#1132=VECTOR('',#1785,1.);
#1133=VECTOR('',#1786,1.);
#1134=VECTOR('',#1789,1.);
#1135=VECTOR('',#1794,1.);
#1136=VECTOR('',#1795,1.);
#1137=VECTOR('',#1798,1.);
#1138=VECTOR('',#1799,1.);
#1139=VECTOR('',#1802,1.);
#1140=VECTOR('',#1807,1.);
#1141=VECTOR('',#1808,1.);
#1142=VECTOR('',#1811,1.);
#1143=VECTOR('',#1812,1.);
#1144=VECTOR('',#1815,1.);
#1145=VECTOR('',#1820,1.);
#1146=VECTOR('',#1821,1.);
#1147=VECTOR('',#1824,1.);
#1148=VECTOR('',#1825,1.);
#1149=VECTOR('',#1828,1.);
#1150=VECTOR('',#1833,1.);
#1151=VECTOR('',#1834,1.);
#1152=VECTOR('',#1837,1.);
#1153=VECTOR('',#1838,1.);
#1154=VECTOR('',#1841,1.);
#1155=VECTOR('',#1846,1.);
#1156=VECTOR('',#1847,1.);
#1157=VECTOR('',#1850,1.);
#1158=VECTOR('',#1851,1.);
#1159=VECTOR('',#1854,1.);
#1160=VECTOR('',#1859,1.);
#1161=VECTOR('',#1860,1.);
#1162=VECTOR('',#1863,1.);
#1163=VECTOR('',#1864,1.);
#1164=VECTOR('',#1867,1.);
#1165=VECTOR('',#1872,1.);
#1166=VECTOR('',#1873,1.);
#1167=VECTOR('',#1876,1.);
#1168=VECTOR('',#1877,1.);
#1169=VECTOR('',#1880,1.);
#1170=VECTOR('',#1885,1.);
#1171=VECTOR('',#1886,1.);
#1172=VECTOR('',#1889,1.);
#1173=VECTOR('',#1890,1.);
#1174=VECTOR('',#1893,1.);
#1175=VECTOR('',#1898,1.);
#1176=VECTOR('',#1899,1.);
#1177=VECTOR('',#1902,1.);
#1178=VECTOR('',#1903,1.);
#1179=VECTOR('',#1906,1.);
#1180=VECTOR('',#1911,1.);
#1181=VECTOR('',#1912,1.);
#1182=VECTOR('',#1915,1.);
#1183=VECTOR('',#1916,1.);
#1184=VECTOR('',#1919,1.);
#1185=VECTOR('',#1924,1.);
#1186=VECTOR('',#1925,1.);
#1187=VECTOR('',#1928,1.);
#1188=VECTOR('',#1929,1.);
#1189=VECTOR('',#1932,1.);
#1190=EDGE_LOOP('',(#18,#19,#20,#21,#22,#23,#24,#25,#26,#27,#28,#29,#30,
#31,#32,#33,#34,#35,#36,#37,#38,#39,#40,#41,#42,#43,#44,#45,#46,#47,#48,
#49,#50,#51,#52,#53));
#1191=EDGE_LOOP('',(#54,#55,#56,#57,#58,#59,#60,#61,#62,#63,#64,#65,#66,
#67,#68,#69,#70,#71,#72,#73));
#1192=EDGE_LOOP('',(#74,#75,#76,#77));
#1193=EDGE_LOOP('',(#78));
#1194=EDGE_LOOP('',(#79));
#1195=EDGE_LOOP('',(#80,#81,#82,#83,#84,#85,#86,#87,#88,#89,#90,#91,#92,
#93,#94,#95,#96,#97,#98,#99));
#1196=EDGE_LOOP('',(#100));
#1197=EDGE_LOOP('',(#101));
#1198=EDGE_LOOP('',(#102,#103,#104,#105,#106,#107,#108,#109,#110,#111,#112,
#113,#114,#115,#116,#117,#118,#119,#120,#121,#122,#123,#124,#125,#126,#127,
#128,#129,#130,#131,#132,#133,#134,#135,#136,#137));
#1199=EDGE_LOOP('',(#138));
#1200=EDGE_LOOP('',(#139));
#1201=EDGE_LOOP('',(#140,#141,#142,#143,#144,#145,#146,#147,#148,#149,#150,
#151,#152,#153,#154,#155,#156,#157,#158,#159,#160,#161,#162,#163,#164,#165,
#166,#167,#168,#169,#170,#171,#172,#173,#174,#175));
#1202=EDGE_LOOP('',(#176));
#1203=EDGE_LOOP('',(#177));
#1204=EDGE_LOOP('',(#178,#179,#180,#181));
#1205=EDGE_LOOP('',(#182,#183,#184,#185));
#1206=EDGE_LOOP('',(#186,#187,#188,#189));
#1207=EDGE_LOOP('',(#190,#191,#192,#193));
#1208=EDGE_LOOP('',(#194,#195,#196,#197));
#1209=EDGE_LOOP('',(#198,#199,#200,#201));
#1210=EDGE_LOOP('',(#202,#203,#204,#205));
#1211=EDGE_LOOP('',(#206,#207,#208,#209));
#1212=EDGE_LOOP('',(#210,#211,#212,#213));
#1213=EDGE_LOOP('',(#214,#215,#216,#217));
#1214=EDGE_LOOP('',(#218,#219,#220,#221));
#1215=EDGE_LOOP('',(#222,#223,#224,#225));
#1216=EDGE_LOOP('',(#226,#227,#228,#229));
#1217=EDGE_LOOP('',(#230,#231,#232,#233));
#1218=EDGE_LOOP('',(#234,#235,#236,#237));
#1219=EDGE_LOOP('',(#238,#239,#240,#241));
#1220=EDGE_LOOP('',(#242,#243,#244,#245));
#1221=EDGE_LOOP('',(#246,#247,#248,#249));
#1222=EDGE_LOOP('',(#250,#251,#252,#253));
#1223=EDGE_LOOP('',(#254,#255,#256,#257));
#1224=EDGE_LOOP('',(#258,#259,#260,#261));
#1225=EDGE_LOOP('',(#262,#263,#264,#265));
#1226=EDGE_LOOP('',(#266,#267,#268,#269));
#1227=EDGE_LOOP('',(#270,#271,#272,#273));
#1228=EDGE_LOOP('',(#274,#275,#276,#277));
#1229=EDGE_LOOP('',(#278,#279,#280,#281));
#1230=EDGE_LOOP('',(#282,#283,#284,#285));
#1231=EDGE_LOOP('',(#286,#287,#288,#289));
#1232=EDGE_LOOP('',(#290,#291,#292,#293));
#1233=EDGE_LOOP('',(#294,#295,#296,#297));
#1234=EDGE_LOOP('',(#298,#299,#300,#301));
#1235=EDGE_LOOP('',(#302,#303,#304,#305));
#1236=EDGE_LOOP('',(#306,#307,#308,#309));
#1237=EDGE_LOOP('',(#310,#311,#312,#313));
#1238=EDGE_LOOP('',(#314,#315,#316,#317));
#1239=EDGE_LOOP('',(#318,#319,#320,#321));
#1240=EDGE_LOOP('',(#322,#323,#324,#325));
#1241=EDGE_LOOP('',(#326,#327,#328,#329));
#1242=EDGE_LOOP('',(#330,#331,#332,#333));
#1243=EDGE_LOOP('',(#334,#335,#336,#337));
#1244=EDGE_LOOP('',(#338,#339,#340,#341));
#1245=EDGE_LOOP('',(#342,#343,#344,#345));
#1246=EDGE_LOOP('',(#346,#347,#348,#349));
#1247=EDGE_LOOP('',(#350,#351,#352,#353));
#1248=EDGE_LOOP('',(#354,#355,#356,#357));
#1249=EDGE_LOOP('',(#358,#359,#360,#361));
#1250=EDGE_LOOP('',(#362,#363,#364,#365));
#1251=EDGE_LOOP('',(#366,#367,#368,#369));
#1252=EDGE_LOOP('',(#370,#371,#372,#373));
#1253=EDGE_LOOP('',(#374,#375,#376,#377));
#1254=EDGE_LOOP('',(#378,#379,#380,#381));
#1255=EDGE_LOOP('',(#382,#383,#384,#385));
#1256=EDGE_LOOP('',(#386,#387,#388,#389));
#1257=EDGE_LOOP('',(#390,#391,#392,#393));
#1258=EDGE_LOOP('',(#394,#395,#396,#397));
#1259=EDGE_LOOP('',(#398,#399,#400,#401));
#1260=EDGE_LOOP('',(#402,#403,#404,#405));
#1261=EDGE_LOOP('',(#406,#407,#408,#409));
#1262=EDGE_LOOP('',(#410,#411,#412,#413));
#1263=EDGE_LOOP('',(#414,#415,#416,#417));
#1264=EDGE_LOOP('',(#418,#419,#420,#421));
#1265=EDGE_LOOP('',(#422,#423,#424,#425));
#1266=EDGE_LOOP('',(#426,#427,#428,#429));
#1267=EDGE_LOOP('',(#430,#431,#432,#433));
#1268=FACE_BOUND('',#1190,.T.);
#1269=FACE_BOUND('',#1191,.T.);
#1270=FACE_BOUND('',#1192,.T.);
#1271=FACE_BOUND('',#1193,.T.);
#1272=FACE_BOUND('',#1194,.T.);
#1273=FACE_BOUND('',#1195,.T.);
#1274=FACE_BOUND('',#1196,.T.);
#1275=FACE_BOUND('',#1197,.T.);
#1276=FACE_BOUND('',#1198,.T.);
#1277=FACE_BOUND('',#1199,.T.);
#1278=FACE_BOUND('',#1200,.T.);
#1279=FACE_BOUND('',#1201,.T.);
#1280=FACE_BOUND('',#1202,.T.);
#1281=FACE_BOUND('',#1203,.T.);
#1282=FACE_BOUND('',#1204,.T.);
#1283=FACE_BOUND('',#1205,.T.);
#1284=FACE_BOUND('',#1206,.T.);
#1285=FACE_BOUND('',#1207,.T.);
#1286=FACE_BOUND('',#1208,.T.);
#1287=FACE_BOUND('',#1209,.T.);
#1288=FACE_BOUND('',#1210,.T.);
#1289=FACE_BOUND('',#1211,.T.);
#1290=FACE_BOUND('',#1212,.T.);
#1291=FACE_BOUND('',#1213,.T.);
#1292=FACE_BOUND('',#1214,.T.);
#1293=FACE_BOUND('',#1215,.T.);
#1294=FACE_BOUND('',#1216,.T.);
#1295=FACE_BOUND('',#1217,.T.);
#1296=FACE_BOUND('',#1218,.T.);
#1297=FACE_BOUND('',#1219,.T.);
#1298=FACE_BOUND('',#1220,.T.);
#1299=FACE_BOUND('',#1221,.T.);
#1300=FACE_BOUND('',#1222,.T.);
#1301=FACE_BOUND('',#1223,.T.);
#1302=FACE_BOUND('',#1224,.T.);
#1303=FACE_BOUND('',#1225,.T.);
#1304=FACE_BOUND('',#1226,.T.);
#1305=FACE_BOUND('',#1227,.T.);
#1306=FACE_BOUND('',#1228,.T.);
#1307=FACE_BOUND('',#1229,.T.);
#1308=FACE_BOUND('',#1230,.T.);
#1309=FACE_BOUND('',#1231,.T.);
#1310=FACE_BOUND('',#1232,.T.);
#1311=FACE_BOUND('',#1233,.T.);
#1312=FACE_BOUND('',#1234,.T.);
#1313=FACE_BOUND('',#1235,.T.);
#1314=FACE_BOUND('',#1236,.T.);
#1315=FACE_BOUND('',#1237,.T.);
#1316=FACE_BOUND('',#1238,.T.);
#1317=FACE_BOUND('',#1239,.T.);
#1318=FACE_BOUND('',#1240,.T.);
#1319=FACE_BOUND('',#1241,.T.);
#1320=FACE_BOUND('',#1242,.T.);
#1321=FACE_BOUND('',#1243,.T.);
#1322=FACE_BOUND('',#1244,.T.);
#1323=FACE_BOUND('',#1245,.T.);
#1324=FACE_BOUND('',#1246,.T.);
#1325=FACE_BOUND('',#1247,.T.);
#1326=FACE_BOUND('',#1248,.T.);
#1327=FACE_BOUND('',#1249,.T.);
#1328=FACE_BOUND('',#1250,.T.);
#1329=FACE_BOUND('',#1251,.T.);
#1330=FACE_BOUND('',#1252,.T.);
#1331=FACE_BOUND('',#1253,.T.);
#1332=FACE_BOUND('',#1254,.T.);
#1333=FACE_BOUND('',#1255,.T.);
#1334=FACE_BOUND('',#1256,.T.);
#1335=FACE_BOUND('',#1257,.T.);
#1336=FACE_BOUND('',#1258,.T.);
#1337=FACE_BOUND('',#1259,.T.);
#1338=FACE_BOUND('',#1260,.T.);
#1339=FACE_BOUND('',#1261,.T.);
#1340=FACE_BOUND('',#1262,.T.);
#1341=FACE_BOUND('',#1263,.T.);
#1342=FACE_BOUND('',#1264,.T.);
#1343=FACE_BOUND('',#1265,.T.);
#1344=FACE_BOUND('',#1266,.T.);
#1345=FACE_BOUND('',#1267,.T.);
#1346=PLANE('',#1501);
#1347=PLANE('',#1502);
#1348=PLANE('',#1503);
#1349=PLANE('',#1507);
#1350=PLANE('',#1511);
#1351=PLANE('',#1512);
#1352=PLANE('',#1513);
#1353=PLANE('',#1514);
#1354=PLANE('',#1515);
#1355=PLANE('',#1516);
#1356=PLANE('',#1517);
#1357=PLANE('',#1518);
#1358=PLANE('',#1519);
#1359=PLANE('',#1520);
#1360=PLANE('',#1521);
#1361=PLANE('',#1522);
#1362=PLANE('',#1523);
#1363=PLANE('',#1524);
#1364=PLANE('',#1525);
#1365=PLANE('',#1526);
#1366=PLANE('',#1527);
#1367=PLANE('',#1528);
#1368=PLANE('',#1529);
#1369=PLANE('',#1530);
#1370=PLANE('',#1531);
#1371=PLANE('',#1532);
#1372=PLANE('',#1533);
#1373=PLANE('',#1534);
#1374=PLANE('',#1535);
#1375=PLANE('',#1536);
#1376=PLANE('',#1537);
#1377=PLANE('',#1538);
#1378=PLANE('',#1539);
#1379=PLANE('',#1540);
#1380=PLANE('',#1541);
#1381=PLANE('',#1542);
#1382=PLANE('',#1543);
#1383=PLANE('',#1544);
#1384=PLANE('',#1545);
#1385=PLANE('',#1546);
#1386=PLANE('',#1547);
#1387=PLANE('',#1548);
#1388=PLANE('',#1549);
#1389=PLANE('',#1550);
#1390=PLANE('',#1551);
#1391=PLANE('',#1552);
#1392=PLANE('',#1553);
#1393=PLANE('',#1554);
#1394=PLANE('',#1555);
#1395=PLANE('',#1556);
#1396=PLANE('',#1557);
#1397=PLANE('',#1558);
#1398=PLANE('',#1559);
#1399=PLANE('',#1560);
#1400=PLANE('',#1561);
#1401=PLANE('',#1562);
#1402=PLANE('',#1563);
#1403=PLANE('',#1564);
#1404=PLANE('',#1565);
#1405=PLANE('',#1566);
#1406=PLANE('',#1567);
#1407=PLANE('',#1568);
#1408=PLANE('',#1569);
#1409=PLANE('',#1570);
#1410=PLANE('',#1571);
#1411=PLANE('',#1572);
#1412=PLANE('',#1573);
#1413=PLANE('',#1574);
#1414=PLANE('',#1575);
#1415=PLANE('',#1576);
#1416=ADVANCED_FACE('',(#1268),#1346,.T.);
#1417=ADVANCED_FACE('',(#1269),#1347,.T.);
#1418=ADVANCED_FACE('',(#1270),#1348,.F.);
#1419=ADVANCED_FACE('',(#1271,#1272),#16,.F.);
#1420=ADVANCED_FACE('',(#1273),#1349,.F.);
#1421=ADVANCED_FACE('',(#1274,#1275),#17,.F.);
#1422=ADVANCED_FACE('',(#1276,#1277,#1278),#1350,.T.);
#1423=ADVANCED_FACE('',(#1279,#1280,#1281),#1351,.F.);
#1424=ADVANCED_FACE('',(#1282),#1352,.F.);
#1425=ADVANCED_FACE('',(#1283),#1353,.F.);
#1426=ADVANCED_FACE('',(#1284),#1354,.T.);
#1427=ADVANCED_FACE('',(#1285),#1355,.T.);
#1428=ADVANCED_FACE('',(#1286),#1356,.F.);
#1429=ADVANCED_FACE('',(#1287),#1357,.F.);
#1430=ADVANCED_FACE('',(#1288),#1358,.T.);
#1431=ADVANCED_FACE('',(#1289),#1359,.T.);
#1432=ADVANCED_FACE('',(#1290),#1360,.F.);
#1433=ADVANCED_FACE('',(#1291),#1361,.F.);
#1434=ADVANCED_FACE('',(#1292),#1362,.T.);
#1435=ADVANCED_FACE('',(#1293),#1363,.T.);
#1436=ADVANCED_FACE('',(#1294),#1364,.F.);
#1437=ADVANCED_FACE('',(#1295),#1365,.F.);
#1438=ADVANCED_FACE('',(#1296),#1366,.T.);
#1439=ADVANCED_FACE('',(#1297),#1367,.T.);
#1440=ADVANCED_FACE('',(#1298),#1368,.F.);
#1441=ADVANCED_FACE('',(#1299),#1369,.F.);
#1442=ADVANCED_FACE('',(#1300),#1370,.T.);
#1443=ADVANCED_FACE('',(#1301),#1371,.T.);
#1444=ADVANCED_FACE('',(#1302),#1372,.F.);
#1445=ADVANCED_FACE('',(#1303),#1373,.F.);
#1446=ADVANCED_FACE('',(#1304),#1374,.T.);
#1447=ADVANCED_FACE('',(#1305),#1375,.T.);
#1448=ADVANCED_FACE('',(#1306),#1376,.F.);
#1449=ADVANCED_FACE('',(#1307),#1377,.F.);
#1450=ADVANCED_FACE('',(#1308),#1378,.T.);
#1451=ADVANCED_FACE('',(#1309),#1379,.T.);
#1452=ADVANCED_FACE('',(#1310),#1380,.F.);
#1453=ADVANCED_FACE('',(#1311),#1381,.F.);
#1454=ADVANCED_FACE('',(#1312),#1382,.T.);
#1455=ADVANCED_FACE('',(#1313),#1383,.T.);
#1456=ADVANCED_FACE('',(#1314),#1384,.F.);
#1457=ADVANCED_FACE('',(#1315),#1385,.F.);
#1458=ADVANCED_FACE('',(#1316),#1386,.T.);
#1459=ADVANCED_FACE('',(#1317),#1387,.T.);
#1460=ADVANCED_FACE('',(#1318),#1388,.F.);
#1461=ADVANCED_FACE('',(#1319),#1389,.T.);
#1462=ADVANCED_FACE('',(#1320),#1390,.T.);
#1463=ADVANCED_FACE('',(#1321),#1391,.T.);
#1464=ADVANCED_FACE('',(#1322),#1392,.F.);
#1465=ADVANCED_FACE('',(#1323),#1393,.T.);
#1466=ADVANCED_FACE('',(#1324),#1394,.T.);
#1467=ADVANCED_FACE('',(#1325),#1395,.T.);
#1468=ADVANCED_FACE('',(#1326),#1396,.T.);
#1469=ADVANCED_FACE('',(#1327),#1397,.F.);
#1470=ADVANCED_FACE('',(#1328),#1398,.T.);
#1471=ADVANCED_FACE('',(#1329),#1399,.T.);
#1472=ADVANCED_FACE('',(#1330),#1400,.T.);
#1473=ADVANCED_FACE('',(#1331),#1401,.F.);
#1474=ADVANCED_FACE('',(#1332),#1402,.T.);
#1475=ADVANCED_FACE('',(#1333),#1403,.T.);
#1476=ADVANCED_FACE('',(#1334),#1404,.T.);
#1477=ADVANCED_FACE('',(#1335),#1405,.F.);
#1478=ADVANCED_FACE('',(#1336),#1406,.F.);
#1479=ADVANCED_FACE('',(#1337),#1407,.T.);
#1480=ADVANCED_FACE('',(#1338),#1408,.T.);
#1481=ADVANCED_FACE('',(#1339),#1409,.F.);
#1482=ADVANCED_FACE('',(#1340),#1410,.F.);
#1483=ADVANCED_FACE('',(#1341),#1411,.T.);
#1484=ADVANCED_FACE('',(#1342),#1412,.T.);
#1485=ADVANCED_FACE('',(#1343),#1413,.F.);
#1486=ADVANCED_FACE('',(#1344),#1414,.F.);
#1487=ADVANCED_FACE('',(#1345),#1415,.T.);
#1488=CLOSED_SHELL('',(#1416,#1417,#1418,#1419,#1420,#1421,#1422,#1423,
#1424,#1425,#1426,#1427,#1428,#1429,#1430,#1431,#1432,#1433,#1434,#1435,
#1436,#1437,#1438,#1439,#1440,#1441,#1442,#1443,#1444,#1445,#1446,#1447,
#1448,#1449,#1450,#1451,#1452,#1453,#1454,#1455,#1456,#1457,#1458,#1459,
#1460,#1461,#1462,#1463,#1464,#1465,#1466,#1467,#1468,#1469,#1470,#1471,
#1472,#1473,#1474,#1475,#1476,#1477,#1478,#1479,#1480,#1481,#1482,#1483,
#1484,#1485,#1486,#1487));
#1489=STYLED_ITEM('',(#1490),#1497);
#1490=PRESENTATION_STYLE_ASSIGNMENT((#1491));
#1491=SURFACE_STYLE_USAGE(.BOTH.,#1492);
#1492=SURFACE_SIDE_STYLE('',(#1493));
#1493=SURFACE_STYLE_FILL_AREA(#1494);
#1494=FILL_AREA_STYLE('',(#1495));
#1495=FILL_AREA_STYLE_COLOUR('',#1496);
#1496=COLOUR_RGB('',0.615686274509804,0.811764705882353,0.929411764705882);
#1497=MANIFOLD_SOLID_BREP('LED',#1488);
#1498=SHAPE_DEFINITION_REPRESENTATION(#2362,#1499);
#1499=SHAPE_REPRESENTATION('LED',(#1500),#2357);
#1500=AXIS2_PLACEMENT_3D('',#1935,#1577,#1578);
#1501=AXIS2_PLACEMENT_3D('',#1936,#1579,#1580);
#1502=AXIS2_PLACEMENT_3D('',#2009,#1617,#1618);
#1503=AXIS2_PLACEMENT_3D('',#2047,#1638,#1639);
#1504=AXIS2_PLACEMENT_3D('',#2053,#1643,#1644);
#1505=AXIS2_PLACEMENT_3D('',#2054,#1645,#1646);
#1506=AXIS2_PLACEMENT_3D('',#2056,#1647,#1648);
#1507=AXIS2_PLACEMENT_3D('',#2058,#1649,#1650);
#1508=AXIS2_PLACEMENT_3D('',#2093,#1669,#1670);
#1509=AXIS2_PLACEMENT_3D('',#2094,#1671,#1672);
#1510=AXIS2_PLACEMENT_3D('',#2096,#1673,#1674);
#1511=AXIS2_PLACEMENT_3D('',#2098,#1675,#1676);
#1512=AXIS2_PLACEMENT_3D('',#2139,#1701,#1702);
#1513=AXIS2_PLACEMENT_3D('',#2180,#1727,#1728);
#1514=AXIS2_PLACEMENT_3D('',#2184,#1731,#1732);
#1515=AXIS2_PLACEMENT_3D('',#2188,#1735,#1736);
#1516=AXIS2_PLACEMENT_3D('',#2190,#1738,#1739);
#1517=AXIS2_PLACEMENT_3D('',#2191,#1740,#1741);
#1518=AXIS2_PLACEMENT_3D('',#2195,#1744,#1745);
#1519=AXIS2_PLACEMENT_3D('',#2199,#1748,#1749);
#1520=AXIS2_PLACEMENT_3D('',#2201,#1751,#1752);
#1521=AXIS2_PLACEMENT_3D('',#2202,#1753,#1754);
#1522=AXIS2_PLACEMENT_3D('',#2206,#1757,#1758);
#1523=AXIS2_PLACEMENT_3D('',#2210,#1761,#1762);
#1524=AXIS2_PLACEMENT_3D('',#2212,#1764,#1765);
#1525=AXIS2_PLACEMENT_3D('',#2213,#1766,#1767);
#1526=AXIS2_PLACEMENT_3D('',#2217,#1770,#1771);
#1527=AXIS2_PLACEMENT_3D('',#2221,#1774,#1775);
#1528=AXIS2_PLACEMENT_3D('',#2223,#1777,#1778);
#1529=AXIS2_PLACEMENT_3D('',#2224,#1779,#1780);
#1530=AXIS2_PLACEMENT_3D('',#2228,#1783,#1784);
#1531=AXIS2_PLACEMENT_3D('',#2232,#1787,#1788);
#1532=AXIS2_PLACEMENT_3D('',#2234,#1790,#1791);
#1533=AXIS2_PLACEMENT_3D('',#2235,#1792,#1793);
#1534=AXIS2_PLACEMENT_3D('',#2239,#1796,#1797);
#1535=AXIS2_PLACEMENT_3D('',#2243,#1800,#1801);
#1536=AXIS2_PLACEMENT_3D('',#2245,#1803,#1804);
#1537=AXIS2_PLACEMENT_3D('',#2246,#1805,#1806);
#1538=AXIS2_PLACEMENT_3D('',#2250,#1809,#1810);
#1539=AXIS2_PLACEMENT_3D('',#2254,#1813,#1814);
#1540=AXIS2_PLACEMENT_3D('',#2256,#1816,#1817);
#1541=AXIS2_PLACEMENT_3D('',#2257,#1818,#1819);
#1542=AXIS2_PLACEMENT_3D('',#2261,#1822,#1823);
#1543=AXIS2_PLACEMENT_3D('',#2265,#1826,#1827);
#1544=AXIS2_PLACEMENT_3D('',#2267,#1829,#1830);
#1545=AXIS2_PLACEMENT_3D('',#2268,#1831,#1832);
#1546=AXIS2_PLACEMENT_3D('',#2272,#1835,#1836);
#1547=AXIS2_PLACEMENT_3D('',#2276,#1839,#1840);
#1548=AXIS2_PLACEMENT_3D('',#2278,#1842,#1843);
#1549=AXIS2_PLACEMENT_3D('',#2279,#1844,#1845);
#1550=AXIS2_PLACEMENT_3D('',#2283,#1848,#1849);
#1551=AXIS2_PLACEMENT_3D('',#2287,#1852,#1853);
#1552=AXIS2_PLACEMENT_3D('',#2289,#1855,#1856);
#1553=AXIS2_PLACEMENT_3D('',#2290,#1857,#1858);
#1554=AXIS2_PLACEMENT_3D('',#2294,#1861,#1862);
#1555=AXIS2_PLACEMENT_3D('',#2298,#1865,#1866);
#1556=AXIS2_PLACEMENT_3D('',#2300,#1868,#1869);
#1557=AXIS2_PLACEMENT_3D('',#2301,#1870,#1871);
#1558=AXIS2_PLACEMENT_3D('',#2305,#1874,#1875);
#1559=AXIS2_PLACEMENT_3D('',#2309,#1878,#1879);
#1560=AXIS2_PLACEMENT_3D('',#2311,#1881,#1882);
#1561=AXIS2_PLACEMENT_3D('',#2312,#1883,#1884);
#1562=AXIS2_PLACEMENT_3D('',#2316,#1887,#1888);
#1563=AXIS2_PLACEMENT_3D('',#2320,#1891,#1892);
#1564=AXIS2_PLACEMENT_3D('',#2322,#1894,#1895);
#1565=AXIS2_PLACEMENT_3D('',#2323,#1896,#1897);
#1566=AXIS2_PLACEMENT_3D('',#2327,#1900,#1901);
#1567=AXIS2_PLACEMENT_3D('',#2331,#1904,#1905);
#1568=AXIS2_PLACEMENT_3D('',#2333,#1907,#1908);
#1569=AXIS2_PLACEMENT_3D('',#2334,#1909,#1910);
#1570=AXIS2_PLACEMENT_3D('',#2338,#1913,#1914);
#1571=AXIS2_PLACEMENT_3D('',#2342,#1917,#1918);
#1572=AXIS2_PLACEMENT_3D('',#2344,#1920,#1921);
#1573=AXIS2_PLACEMENT_3D('',#2345,#1922,#1923);
#1574=AXIS2_PLACEMENT_3D('',#2349,#1926,#1927);
#1575=AXIS2_PLACEMENT_3D('',#2353,#1930,#1931);
#1576=AXIS2_PLACEMENT_3D('',#2355,#1933,#1934);
#1577=DIRECTION('',(0.,0.,1.));
#1578=DIRECTION('',(1.,0.,0.));
#1579=DIRECTION('',(0.,1.,0.));
#1580=DIRECTION('',(0.,0.,1.));
#1581=DIRECTION('',(1.,0.,0.));
#1582=DIRECTION('',(0.,0.,-1.));
#1583=DIRECTION('',(1.,0.,0.));
#1584=DIRECTION('',(0.,0.,-1.));
#1585=DIRECTION('',(1.,0.,0.));
#1586=DIRECTION('',(0.,0.,-1.));
#1587=DIRECTION('',(1.,0.,0.));
#1588=DIRECTION('',(0.,0.,-1.));
#1589=DIRECTION('',(1.,0.,0.));
#1590=DIRECTION('',(0.,0.,-1.));
#1591=DIRECTION('',(1.,0.,0.));
#1592=DIRECTION('',(0.,0.,-1.));
#1593=DIRECTION('',(1.,0.,0.));
#1594=DIRECTION('',(0.,0.,-1.));
#1595=DIRECTION('',(1.,0.,0.));
#1596=DIRECTION('',(0.,0.,-1.));
#1597=DIRECTION('',(1.,0.,0.));
#1598=DIRECTION('',(0.,0.,-1.));
#1599=DIRECTION('',(1.,0.,0.));
#1600=DIRECTION('',(0.,0.,-1.));
#1601=DIRECTION('',(1.,0.,0.));
#1602=DIRECTION('',(0.,0.,-1.));
#1603=DIRECTION('',(1.,0.,0.));
#1604=DIRECTION('',(0.,0.,-1.));
#1605=DIRECTION('',(1.,0.,0.));
#1606=DIRECTION('',(0.,0.,-1.));
#1607=DIRECTION('',(1.,0.,0.));
#1608=DIRECTION('',(0.,0.,-1.));
#1609=DIRECTION('',(1.,0.,0.));
#1610=DIRECTION('',(0.,0.,-1.));
#1611=DIRECTION('',(1.,0.,0.));
#1612=DIRECTION('',(0.,0.,-1.));
#1613=DIRECTION('',(1.,0.,0.));
#1614=DIRECTION('',(0.,0.,-1.));
#1615=DIRECTION('',(1.,0.,0.));
#1616=DIRECTION('',(0.,0.,-1.));
#1617=DIRECTION('',(-1.,0.,0.));
#1618=DIRECTION('',(0.,0.,1.));
#1619=DIRECTION('',(0.,1.,0.));
#1620=DIRECTION('',(0.,0.,-1.));
#1621=DIRECTION('',(0.,1.,0.));
#1622=DIRECTION('',(0.,1.,0.));
#1623=DIRECTION('',(0.,0.,1.));
#1624=DIRECTION('',(0.,1.,0.));
#1625=DIRECTION('',(0.,0.,1.));
#1626=DIRECTION('',(0.,1.,0.));
#1627=DIRECTION('',(0.,0.,1.));
#1628=DIRECTION('',(0.,1.,0.));
#1629=DIRECTION('',(0.,0.,1.));
#1630=DIRECTION('',(0.,1.,0.));
#1631=DIRECTION('',(0.,0.,1.));
#1632=DIRECTION('',(0.,1.,0.));
#1633=DIRECTION('',(0.,0.,1.));
#1634=DIRECTION('',(0.,1.,0.));
#1635=DIRECTION('',(0.,0.,1.));
#1636=DIRECTION('',(0.,1.,0.));
#1637=DIRECTION('',(0.,0.,1.));
#1638=DIRECTION('',(0.,1.,0.));
#1639=DIRECTION('',(0.,0.,1.));
#1640=DIRECTION('',(1.,0.,0.));
#1641=DIRECTION('',(0.,0.,-1.));
#1642=DIRECTION('',(1.,0.,0.));
#1643=DIRECTION('',(0.,0.,-1.));
#1644=DIRECTION('',(-1.,0.,0.));
#1645=DIRECTION('',(0.,0.,1.));
#1646=DIRECTION('',(1.,0.,0.));
#1647=DIRECTION('',(0.,0.,1.));
#1648=DIRECTION('',(1.,0.,0.));
#1649=DIRECTION('',(-1.,0.,0.));
#1650=DIRECTION('',(0.,0.,1.));
#1651=DIRECTION('',(0.,1.,0.));
#1652=DIRECTION('',(0.,0.,1.));
#1653=DIRECTION('',(0.,1.,0.));
#1654=DIRECTION('',(0.,0.,1.));
#1655=DIRECTION('',(0.,1.,0.));
#1656=DIRECTION('',(0.,0.,1.));
#1657=DIRECTION('',(0.,1.,0.));
#1658=DIRECTION('',(0.,0.,1.));
#1659=DIRECTION('',(0.,1.,0.));
#1660=DIRECTION('',(0.,0.,1.));
#1661=DIRECTION('',(0.,1.,0.));
#1662=DIRECTION('',(0.,0.,1.));
#1663=DIRECTION('',(0.,1.,0.));
#1664=DIRECTION('',(0.,0.,1.));
#1665=DIRECTION('',(0.,1.,0.));
#1666=DIRECTION('',(0.,0.,1.));
#1667=DIRECTION('',(0.,1.,0.));
#1668=DIRECTION('',(0.,1.,0.));
#1669=DIRECTION('',(0.,0.,-1.));
#1670=DIRECTION('',(-1.,0.,0.));
#1671=DIRECTION('',(0.,0.,-1.));
#1672=DIRECTION('',(1.,0.,0.));
#1673=DIRECTION('',(0.,0.,-1.));
#1674=DIRECTION('',(1.,0.,0.));
#1675=DIRECTION('',(0.,0.,1.));
#1676=DIRECTION('',(1.,0.,0.));
#1677=DIRECTION('',(0.,-1.,0.));
#1678=DIRECTION('',(1.,0.,0.));
#1679=DIRECTION('',(0.,-1.,0.));
#1680=DIRECTION('',(0.,-1.,0.));
#1681=DIRECTION('',(1.,0.,0.));
#1682=DIRECTION('',(0.,-1.,0.));
#1683=DIRECTION('',(0.,-1.,0.));
#1684=DIRECTION('',(1.,0.,0.));
#1685=DIRECTION('',(0.,-1.,0.));
#1686=DIRECTION('',(0.,-1.,0.));
#1687=DIRECTION('',(1.,0.,0.));
#1688=DIRECTION('',(0.,-1.,0.));
#1689=DIRECTION('',(0.,-1.,0.));
#1690=DIRECTION('',(1.,0.,0.));
#1691=DIRECTION('',(0.,-1.,0.));
#1692=DIRECTION('',(0.,-1.,0.));
#1693=DIRECTION('',(1.,0.,0.));
#1694=DIRECTION('',(0.,-1.,0.));
#1695=DIRECTION('',(3.46944695195362E-16,-1.,0.));
#1696=DIRECTION('',(1.,0.,0.));
#1697=DIRECTION('',(3.46944695195362E-16,-1.,0.));
#1698=DIRECTION('',(3.46944695195362E-16,-1.,0.));
#1699=DIRECTION('',(1.,0.,0.));
#1700=DIRECTION('',(3.03576608295942E-16,-1.,0.));
#1701=DIRECTION('',(0.,0.,1.));
#1702=DIRECTION('',(1.,0.,0.));
#1703=DIRECTION('',(1.,0.,0.));
#1704=DIRECTION('',(0.,-1.,0.));
#1705=DIRECTION('',(1.,0.,0.));
#1706=DIRECTION('',(1.,0.,0.));
#1707=DIRECTION('',(0.,-1.,0.));
#1708=DIRECTION('',(1.,0.,0.));
#1709=DIRECTION('',(-1.,-8.67361737988404E-16,0.));
#1710=DIRECTION('',(0.,-1.,0.));
#1711=DIRECTION('',(-1.,8.673617379884E-16,0.));
#1712=DIRECTION('',(-1.,4.33680868994202E-16,0.));
#1713=DIRECTION('',(0.,-1.,0.));
#1714=DIRECTION('',(-1.,4.336808689942E-16,0.));
#1715=DIRECTION('',(-1.,4.33680868994202E-16,0.));
#1716=DIRECTION('',(0.,-1.,0.));
#1717=DIRECTION('',(-1.,6.505213034913E-16,0.));
#1718=DIRECTION('',(-1.,6.50521303491303E-16,0.));
#1719=DIRECTION('',(0.,-1.,0.));
#1720=DIRECTION('',(-1.,6.09863722023094E-16,0.));
#1721=DIRECTION('',(1.,0.,0.));
#1722=DIRECTION('',(0.,-1.,0.));
#1723=DIRECTION('',(1.,0.,0.));
#1724=DIRECTION('',(1.,0.,0.));
#1725=DIRECTION('',(0.,-1.,0.));
#1726=DIRECTION('',(1.,0.,0.));
#1727=DIRECTION('',(1.,0.,0.));
#1728=DIRECTION('',(0.,0.,-1.));
#1729=DIRECTION('',(0.,0.,-1.));
#1730=DIRECTION('',(0.,-1.,0.));
#1731=DIRECTION('',(0.,1.,0.));
#1732=DIRECTION('',(0.,0.,1.));
#1733=DIRECTION('',(0.,0.,-1.));
#1734=DIRECTION('',(1.,0.,0.));
#1735=DIRECTION('',(1.,0.,0.));
#1736=DIRECTION('',(0.,0.,-1.));
#1737=DIRECTION('',(0.,-1.,0.));
#1738=DIRECTION('',(0.,0.,1.));
#1739=DIRECTION('',(1.,0.,0.));
#1740=DIRECTION('',(1.,0.,0.));
#1741=DIRECTION('',(0.,0.,-1.));
#1742=DIRECTION('',(0.,0.,-1.));
#1743=DIRECTION('',(0.,-1.,0.));
#1744=DIRECTION('',(0.,1.,0.));
#1745=DIRECTION('',(0.,0.,1.));
#1746=DIRECTION('',(0.,0.,-1.));
#1747=DIRECTION('',(1.,0.,0.));
#1748=DIRECTION('',(1.,0.,0.));
#1749=DIRECTION('',(0.,0.,-1.));
#1750=DIRECTION('',(0.,-1.,0.));
#1751=DIRECTION('',(0.,0.,1.));
#1752=DIRECTION('',(1.,0.,0.));
#1753=DIRECTION('',(1.,0.,0.));
#1754=DIRECTION('',(0.,0.,-1.));
#1755=DIRECTION('',(0.,0.,-1.));
#1756=DIRECTION('',(0.,-1.,0.));
#1757=DIRECTION('',(0.,1.,0.));
#1758=DIRECTION('',(0.,0.,1.));
#1759=DIRECTION('',(0.,0.,-1.));
#1760=DIRECTION('',(1.,0.,0.));
#1761=DIRECTION('',(1.,0.,0.));
#1762=DIRECTION('',(0.,0.,-1.));
#1763=DIRECTION('',(0.,-1.,0.));
#1764=DIRECTION('',(0.,0.,1.));
#1765=DIRECTION('',(1.,0.,0.));
#1766=DIRECTION('',(1.,0.,0.));
#1767=DIRECTION('',(0.,0.,-1.));
#1768=DIRECTION('',(0.,0.,-1.));
#1769=DIRECTION('',(0.,-1.,0.));
#1770=DIRECTION('',(0.,1.,0.));
#1771=DIRECTION('',(0.,0.,1.));
#1772=DIRECTION('',(0.,0.,-1.));
#1773=DIRECTION('',(1.,0.,0.));
#1774=DIRECTION('',(1.,0.,0.));
#1775=DIRECTION('',(0.,0.,-1.));
#1776=DIRECTION('',(0.,-1.,0.));
#1777=DIRECTION('',(0.,0.,1.));
#1778=DIRECTION('',(1.,0.,0.));
#1779=DIRECTION('',(1.,0.,0.));
#1780=DIRECTION('',(0.,0.,-1.));
#1781=DIRECTION('',(0.,0.,-1.));
#1782=DIRECTION('',(0.,-1.,0.));
#1783=DIRECTION('',(0.,1.,0.));
#1784=DIRECTION('',(0.,0.,1.));
#1785=DIRECTION('',(0.,0.,-1.));
#1786=DIRECTION('',(1.,0.,0.));
#1787=DIRECTION('',(1.,0.,0.));
#1788=DIRECTION('',(0.,0.,-1.));
#1789=DIRECTION('',(0.,-1.,0.));
#1790=DIRECTION('',(0.,0.,1.));
#1791=DIRECTION('',(1.,0.,0.));
#1792=DIRECTION('',(1.,0.,0.));
#1793=DIRECTION('',(0.,0.,-1.));
#1794=DIRECTION('',(0.,0.,-1.));
#1795=DIRECTION('',(0.,-1.,0.));
#1796=DIRECTION('',(0.,1.,0.));
#1797=DIRECTION('',(0.,0.,1.));
#1798=DIRECTION('',(0.,0.,-1.));
#1799=DIRECTION('',(1.,0.,0.));
#1800=DIRECTION('',(1.,0.,0.));
#1801=DIRECTION('',(0.,0.,-1.));
#1802=DIRECTION('',(0.,-1.,0.));
#1803=DIRECTION('',(0.,0.,1.));
#1804=DIRECTION('',(1.,0.,0.));
#1805=DIRECTION('',(1.,3.46944695195362E-16,0.));
#1806=DIRECTION('',(-3.46944695195362E-16,1.,0.));
#1807=DIRECTION('',(0.,0.,-1.));
#1808=DIRECTION('',(3.46944695195362E-16,-1.,0.));
#1809=DIRECTION('',(0.,1.,0.));
#1810=DIRECTION('',(0.,0.,1.));
#1811=DIRECTION('',(0.,0.,-1.));
#1812=DIRECTION('',(1.,0.,0.));
#1813=DIRECTION('',(1.,3.46944695195362E-16,0.));
#1814=DIRECTION('',(-3.46944695195362E-16,1.,0.));
#1815=DIRECTION('',(3.46944695195362E-16,-1.,0.));
#1816=DIRECTION('',(0.,0.,1.));
#1817=DIRECTION('',(1.,0.,0.));
#1818=DIRECTION('',(1.,3.03576608295942E-16,0.));
#1819=DIRECTION('',(-3.03576608295942E-16,1.,0.));
#1820=DIRECTION('',(0.,0.,-1.));
#1821=DIRECTION('',(3.03576608295942E-16,-1.,0.));
#1822=DIRECTION('',(0.,1.,0.));
#1823=DIRECTION('',(0.,0.,1.));
#1824=DIRECTION('',(0.,0.,-1.));
#1825=DIRECTION('',(1.,0.,0.));
#1826=DIRECTION('',(1.,3.46944695195362E-16,0.));
#1827=DIRECTION('',(-3.46944695195362E-16,1.,0.));
#1828=DIRECTION('',(3.46944695195362E-16,-1.,0.));
#1829=DIRECTION('',(0.,0.,1.));
#1830=DIRECTION('',(1.,0.,0.));
#1831=DIRECTION('',(0.,-1.,0.));
#1832=DIRECTION('',(0.,0.,-1.));
#1833=DIRECTION('',(0.,0.,1.));
#1834=DIRECTION('',(1.,0.,0.));
#1835=DIRECTION('',(-1.,0.,0.));
#1836=DIRECTION('',(0.,0.,1.));
#1837=DIRECTION('',(0.,0.,1.));
#1838=DIRECTION('',(0.,-1.,0.));
#1839=DIRECTION('',(0.,-1.,0.));
#1840=DIRECTION('',(0.,0.,-1.));
#1841=DIRECTION('',(1.,0.,0.));
#1842=DIRECTION('',(0.,0.,-1.));
#1843=DIRECTION('',(1.,0.,0.));
#1844=DIRECTION('',(8.673617379884E-16,1.,0.));
#1845=DIRECTION('',(-1.,8.673617379884E-16,0.));
#1846=DIRECTION('',(0.,0.,1.));
#1847=DIRECTION('',(-1.,8.673617379884E-16,0.));
#1848=DIRECTION('',(-1.,0.,0.));
#1849=DIRECTION('',(0.,0.,1.));
#1850=DIRECTION('',(0.,0.,1.));
#1851=DIRECTION('',(0.,-1.,0.));
#1852=DIRECTION('',(-8.67361737988404E-16,1.,0.));
#1853=DIRECTION('',(-1.,-8.67361737988404E-16,0.));
#1854=DIRECTION('',(-1.,-8.67361737988404E-16,0.));
#1855=DIRECTION('',(0.,0.,-1.));
#1856=DIRECTION('',(1.,0.,0.));
#1857=DIRECTION('',(4.336808689942E-16,1.,0.));
#1858=DIRECTION('',(-1.,4.336808689942E-16,0.));
#1859=DIRECTION('',(0.,0.,1.));
#1860=DIRECTION('',(-1.,4.336808689942E-16,0.));
#1861=DIRECTION('',(-1.,0.,0.));
#1862=DIRECTION('',(0.,0.,1.));
#1863=DIRECTION('',(0.,0.,1.));
#1864=DIRECTION('',(0.,-1.,0.));
#1865=DIRECTION('',(4.33680868994202E-16,1.,0.));
#1866=DIRECTION('',(-1.,4.33680868994202E-16,0.));
#1867=DIRECTION('',(-1.,4.33680868994202E-16,0.));
#1868=DIRECTION('',(0.,0.,-1.));
#1869=DIRECTION('',(1.,0.,0.));
#1870=DIRECTION('',(4.33680868994202E-16,1.,0.));
#1871=DIRECTION('',(-1.,4.33680868994202E-16,0.));
#1872=DIRECTION('',(-1.,4.33680868994202E-16,0.));
#1873=DIRECTION('',(0.,0.,1.));
#1874=DIRECTION('',(6.505213034913E-16,1.,0.));
#1875=DIRECTION('',(-1.,6.505213034913E-16,0.));
#1876=DIRECTION('',(0.,0.,1.));
#1877=DIRECTION('',(-1.,6.505213034913E-16,0.));
#1878=DIRECTION('',(-1.,0.,0.));
#1879=DIRECTION('',(0.,0.,1.));
#1880=DIRECTION('',(0.,-1.,0.));
#1881=DIRECTION('',(0.,0.,-1.));
#1882=DIRECTION('',(1.,0.,0.));
#1883=DIRECTION('',(6.50521303491303E-16,1.,0.));
#1884=DIRECTION('',(-1.,6.50521303491303E-16,0.));
#1885=DIRECTION('',(-1.,6.50521303491303E-16,0.));
#1886=DIRECTION('',(0.,0.,1.));
#1887=DIRECTION('',(6.09863722023094E-16,1.,0.));
#1888=DIRECTION('',(-1.,6.09863722023094E-16,0.));
#1889=DIRECTION('',(0.,0.,1.));
#1890=DIRECTION('',(-1.,6.09863722023094E-16,0.));
#1891=DIRECTION('',(-1.,0.,0.));
#1892=DIRECTION('',(0.,0.,1.));
#1893=DIRECTION('',(0.,-1.,0.));
#1894=DIRECTION('',(0.,0.,-1.));
#1895=DIRECTION('',(1.,0.,0.));
#1896=DIRECTION('',(0.,-1.,0.));
#1897=DIRECTION('',(0.,0.,-1.));
#1898=DIRECTION('',(1.,0.,0.));
#1899=DIRECTION('',(0.,0.,1.));
#1900=DIRECTION('',(0.,-1.,0.));
#1901=DIRECTION('',(0.,0.,-1.));
#1902=DIRECTION('',(0.,0.,1.));
#1903=DIRECTION('',(1.,0.,0.));
#1904=DIRECTION('',(-1.,0.,0.));
#1905=DIRECTION('',(0.,0.,1.));
#1906=DIRECTION('',(0.,-1.,0.));
#1907=DIRECTION('',(0.,0.,-1.));
#1908=DIRECTION('',(1.,0.,0.));
#1909=DIRECTION('',(0.,-1.,0.));
#1910=DIRECTION('',(0.,0.,-1.));
#1911=DIRECTION('',(1.,0.,0.));
#1912=DIRECTION('',(0.,0.,1.));
#1913=DIRECTION('',(0.,-1.,0.));
#1914=DIRECTION('',(0.,0.,-1.));
#1915=DIRECTION('',(0.,0.,1.));
#1916=DIRECTION('',(1.,0.,0.));
#1917=DIRECTION('',(-1.,0.,0.));
#1918=DIRECTION('',(0.,0.,1.));
#1919=DIRECTION('',(0.,-1.,0.));
#1920=DIRECTION('',(0.,0.,-1.));
#1921=DIRECTION('',(1.,0.,0.));
#1922=DIRECTION('',(0.,-1.,0.));
#1923=DIRECTION('',(0.,0.,-1.));
#1924=DIRECTION('',(1.,0.,0.));
#1925=DIRECTION('',(0.,0.,1.));
#1926=DIRECTION('',(0.,-1.,0.));
#1927=DIRECTION('',(0.,0.,-1.));
#1928=DIRECTION('',(0.,0.,1.));
#1929=DIRECTION('',(1.,0.,0.));
#1930=DIRECTION('',(-1.,0.,0.));
#1931=DIRECTION('',(0.,0.,1.));
#1932=DIRECTION('',(0.,-1.,0.));
#1933=DIRECTION('',(0.,0.,-1.));
#1934=DIRECTION('',(1.,0.,0.));
#1935=CARTESIAN_POINT('',(0.,0.,0.));
#1936=CARTESIAN_POINT('',(0.000875,0.0105,0.001));
#1937=CARTESIAN_POINT('',(0.000875,0.0105,0.));
#1938=CARTESIAN_POINT('',(0.,0.0105,0.));
#1939=CARTESIAN_POINT('',(0.0575,0.0105,0.));
#1940=CARTESIAN_POINT('',(0.,0.0105,0.001));
#1941=CARTESIAN_POINT('',(0.,0.0105,0.001));
#1942=CARTESIAN_POINT('',(0.000875,0.0105,0.001));
#1943=CARTESIAN_POINT('',(0.00175,0.0105,0.001));
#1944=CARTESIAN_POINT('',(0.00175,0.0105,0.00275));
#1945=CARTESIAN_POINT('',(0.00175,0.0105,0.00275));
#1946=CARTESIAN_POINT('',(0.00425,0.0105,0.00275));
#1947=CARTESIAN_POINT('',(0.00675,0.0105,0.00275));
#1948=CARTESIAN_POINT('',(0.00675,0.0105,0.00275));
#1949=CARTESIAN_POINT('',(0.00675,0.0105,0.001));
#1950=CARTESIAN_POINT('',(0.00775,0.0105,0.001));
#1951=CARTESIAN_POINT('',(0.00875,0.0105,0.001));
#1952=CARTESIAN_POINT('',(0.00875,0.0105,0.00275));
#1953=CARTESIAN_POINT('',(0.00875,0.0105,0.00275));
#1954=CARTESIAN_POINT('',(0.01125,0.0105,0.00275));
#1955=CARTESIAN_POINT('',(0.01375,0.0105,0.00275));
#1956=CARTESIAN_POINT('',(0.01375,0.0105,0.00275));
#1957=CARTESIAN_POINT('',(0.01375,0.0105,0.001));
#1958=CARTESIAN_POINT('',(0.01475,0.0105,0.001));
#1959=CARTESIAN_POINT('',(0.01575,0.0105,0.001));
#1960=CARTESIAN_POINT('',(0.01575,0.0105,0.00275));
#1961=CARTESIAN_POINT('',(0.01575,0.0105,0.00275));
#1962=CARTESIAN_POINT('',(0.01825,0.0105,0.00275));
#1963=CARTESIAN_POINT('',(0.02075,0.0105,0.00275));
#1964=CARTESIAN_POINT('',(0.02075,0.0105,0.00275));
#1965=CARTESIAN_POINT('',(0.02075,0.0105,0.001));
#1966=CARTESIAN_POINT('',(0.02175,0.0105,0.001));
#1967=CARTESIAN_POINT('',(0.02275,0.0105,0.001));
#1968=CARTESIAN_POINT('',(0.02275,0.0105,0.00275));
#1969=CARTESIAN_POINT('',(0.02275,0.0105,0.00275));
#1970=CARTESIAN_POINT('',(0.02525,0.0105,0.00275));
#1971=CARTESIAN_POINT('',(0.02775,0.0105,0.00275));
#1972=CARTESIAN_POINT('',(0.02775,0.0105,0.00275));
#1973=CARTESIAN_POINT('',(0.02775,0.0105,0.001));
#1974=CARTESIAN_POINT('',(0.02875,0.0105,0.001));
#1975=CARTESIAN_POINT('',(0.02975,0.0105,0.001));
#1976=CARTESIAN_POINT('',(0.02975,0.0105,0.00275));
#1977=CARTESIAN_POINT('',(0.02975,0.0105,0.00275));
#1978=CARTESIAN_POINT('',(0.03225,0.0105,0.00275));
#1979=CARTESIAN_POINT('',(0.03475,0.0105,0.00275));
#1980=CARTESIAN_POINT('',(0.03475,0.0105,0.00275));
#1981=CARTESIAN_POINT('',(0.03475,0.0105,0.001));
#1982=CARTESIAN_POINT('',(0.03575,0.0105,0.001));
#1983=CARTESIAN_POINT('',(0.03675,0.0105,0.001));
#1984=CARTESIAN_POINT('',(0.03675,0.0105,0.00275));
#1985=CARTESIAN_POINT('',(0.03675,0.0105,0.00275));
#1986=CARTESIAN_POINT('',(0.03925,0.0105,0.00275));
#1987=CARTESIAN_POINT('',(0.04175,0.0105,0.00275));
#1988=CARTESIAN_POINT('',(0.04175,0.0105,0.00275));
#1989=CARTESIAN_POINT('',(0.04175,0.0105,0.001));
#1990=CARTESIAN_POINT('',(0.04275,0.0105,0.001));
#1991=CARTESIAN_POINT('',(0.04375,0.0105,0.001));
#1992=CARTESIAN_POINT('',(0.04375,0.0105,0.00275));
#1993=CARTESIAN_POINT('',(0.04375,0.0105,0.00275));
#1994=CARTESIAN_POINT('',(0.04625,0.0105,0.00275));
#1995=CARTESIAN_POINT('',(0.04875,0.0105,0.00275));
#1996=CARTESIAN_POINT('',(0.04875,0.0105,0.00275));
#1997=CARTESIAN_POINT('',(0.04875,0.0105,0.001));
#1998=CARTESIAN_POINT('',(0.04975,0.0105,0.001));
#1999=CARTESIAN_POINT('',(0.05075,0.0105,0.001));
#2000=CARTESIAN_POINT('',(0.05075,0.0105,0.00275));
#2001=CARTESIAN_POINT('',(0.05075,0.0105,0.00275));
#2002=CARTESIAN_POINT('',(0.05325,0.0105,0.00275));
#2003=CARTESIAN_POINT('',(0.05575,0.0105,0.00275));
#2004=CARTESIAN_POINT('',(0.05575,0.0105,0.00275));
#2005=CARTESIAN_POINT('',(0.05575,0.0105,0.001));
#2006=CARTESIAN_POINT('',(0.056625,0.0105,0.001));
#2007=CARTESIAN_POINT('',(0.0575,0.0105,0.001));
#2008=CARTESIAN_POINT('',(0.0575,0.0105,0.001));
#2009=CARTESIAN_POINT('',(0.,0.00525,0.001));
#2010=CARTESIAN_POINT('',(0.,0.00525,0.));
#2011=CARTESIAN_POINT('',(0.,0.,0.));
#2012=CARTESIAN_POINT('',(0.,0.000125,0.));
#2013=CARTESIAN_POINT('',(0.,0.,0.001));
#2014=CARTESIAN_POINT('',(0.,0.,0.001));
#2015=CARTESIAN_POINT('',(0.,0.00525,0.001));
#2016=CARTESIAN_POINT('',(0.,0.00525,0.));
#2017=CARTESIAN_POINT('',(0.,0.010375,0.));
#2018=CARTESIAN_POINT('',(0.,0.010375,-0.0001));
#2019=CARTESIAN_POINT('',(0.,0.010375,-0.0001));
#2020=CARTESIAN_POINT('',(0.,0.00525,-0.0001));
#2021=CARTESIAN_POINT('',(0.,0.008375,-0.0001));
#2022=CARTESIAN_POINT('',(0.,0.008375,-0.0001));
#2023=CARTESIAN_POINT('',(0.,0.008375,0.));
#2024=CARTESIAN_POINT('',(0.,0.00525,0.));
#2025=CARTESIAN_POINT('',(0.,0.007625,0.));
#2026=CARTESIAN_POINT('',(0.,0.007625,-0.0001));
#2027=CARTESIAN_POINT('',(0.,0.007625,-0.0001));
#2028=CARTESIAN_POINT('',(0.,0.00525,-0.0001));
#2029=CARTESIAN_POINT('',(0.,0.005625,-0.0001));
#2030=CARTESIAN_POINT('',(0.,0.005625,-0.0001));
#2031=CARTESIAN_POINT('',(0.,0.005625,0.));
#2032=CARTESIAN_POINT('',(0.,0.00525,0.));
#2033=CARTESIAN_POINT('',(0.,0.004875,0.));
#2034=CARTESIAN_POINT('',(0.,0.004875,-0.0001));
#2035=CARTESIAN_POINT('',(0.,0.004875,-0.0001));
#2036=CARTESIAN_POINT('',(0.,0.00525,-0.0001));
#2037=CARTESIAN_POINT('',(0.,0.002875,-0.0001));
#2038=CARTESIAN_POINT('',(0.,0.002875,-0.0001));
#2039=CARTESIAN_POINT('',(0.,0.002875,0.));
#2040=CARTESIAN_POINT('',(0.,0.00525,0.));
#2041=CARTESIAN_POINT('',(0.,0.002125,0.));
#2042=CARTESIAN_POINT('',(0.,0.002125,-0.0001));
#2043=CARTESIAN_POINT('',(0.,0.002125,-0.0001));
#2044=CARTESIAN_POINT('',(0.,0.00525,-0.0001));
#2045=CARTESIAN_POINT('',(0.,0.000125,-0.0001));
#2046=CARTESIAN_POINT('',(0.,0.000125,-0.0001));
#2047=CARTESIAN_POINT('',(0.02875,0.,0.001));
#2048=CARTESIAN_POINT('',(0.02875,0.,0.));
#2049=CARTESIAN_POINT('',(0.0575,0.,0.));
#2050=CARTESIAN_POINT('',(0.0575,0.,0.001));
#2051=CARTESIAN_POINT('',(0.0575,0.,0.001));
#2052=CARTESIAN_POINT('',(0.02875,0.,0.001));
#2053=CARTESIAN_POINT('',(0.0145,0.0025,0.001));
#2054=CARTESIAN_POINT('',(0.0145,0.0025,0.001));
#2055=CARTESIAN_POINT('',(0.016,0.0025,0.001));
#2056=CARTESIAN_POINT('',(0.0145,0.0025,0.));
#2057=CARTESIAN_POINT('',(0.016,0.0025,0.));
#2058=CARTESIAN_POINT('',(0.0575,0.00525,0.001));
#2059=CARTESIAN_POINT('',(0.0575,0.00525,0.));
#2060=CARTESIAN_POINT('',(0.0575,0.000124999999999984,0.));
#2061=CARTESIAN_POINT('',(0.0575,0.000124999999999983,-0.0001));
#2062=CARTESIAN_POINT('',(0.0575,0.000124999999999983,-0.0001));
#2063=CARTESIAN_POINT('',(0.0575,0.00525,-0.0001));
#2064=CARTESIAN_POINT('',(0.0575,0.002125,-0.0001));
#2065=CARTESIAN_POINT('',(0.0575,0.002125,-0.0001));
#2066=CARTESIAN_POINT('',(0.0575,0.002125,0.));
#2067=CARTESIAN_POINT('',(0.0575,0.00525,0.));
#2068=CARTESIAN_POINT('',(0.0575,0.002875,0.));
#2069=CARTESIAN_POINT('',(0.0575,0.002875,-0.0001));
#2070=CARTESIAN_POINT('',(0.0575,0.002875,-0.0001));
#2071=CARTESIAN_POINT('',(0.0575,0.00525,-0.0001));
#2072=CARTESIAN_POINT('',(0.0575,0.004875,-0.0001));
#2073=CARTESIAN_POINT('',(0.0575,0.004875,-0.0001));
#2074=CARTESIAN_POINT('',(0.0575,0.004875,0.));
#2075=CARTESIAN_POINT('',(0.0575,0.00525,0.));
#2076=CARTESIAN_POINT('',(0.0575,0.005625,0.));
#2077=CARTESIAN_POINT('',(0.0575,0.005625,-0.0001));
#2078=CARTESIAN_POINT('',(0.0575,0.005625,-0.0001));
#2079=CARTESIAN_POINT('',(0.0575,0.00525,-0.0001));
#2080=CARTESIAN_POINT('',(0.0575,0.007625,-0.0001));
#2081=CARTESIAN_POINT('',(0.0575,0.007625,-0.0001));
#2082=CARTESIAN_POINT('',(0.0575,0.007625,0.));
#2083=CARTESIAN_POINT('',(0.0575,0.00525,0.));
#2084=CARTESIAN_POINT('',(0.0575,0.008375,0.));
#2085=CARTESIAN_POINT('',(0.0575,0.008375,-0.0001));
#2086=CARTESIAN_POINT('',(0.0575,0.008375,-0.0001));
#2087=CARTESIAN_POINT('',(0.0575,0.00525,-0.0001));
#2088=CARTESIAN_POINT('',(0.0575,0.010375,-0.0001));
#2089=CARTESIAN_POINT('',(0.0575,0.010375,-0.0001));
#2090=CARTESIAN_POINT('',(0.0575,0.010375,0.));
#2091=CARTESIAN_POINT('',(0.0575,0.00525,0.));
#2092=CARTESIAN_POINT('',(0.0575,0.00525,0.001));
#2093=CARTESIAN_POINT('',(0.043,0.0025,0.001));
#2094=CARTESIAN_POINT('',(0.043,0.0025,0.001));
#2095=CARTESIAN_POINT('',(0.0445,0.0025,0.001));
#2096=CARTESIAN_POINT('',(0.043,0.0025,0.));
#2097=CARTESIAN_POINT('',(0.0445,0.0025,0.));
#2098=CARTESIAN_POINT('',(0.02875,0.00525,0.001));
#2099=CARTESIAN_POINT('',(0.05575,0.008,0.001));
#2100=CARTESIAN_POINT('',(0.05575,0.0055,0.001));
#2101=CARTESIAN_POINT('',(0.05325,0.0055,0.001));
#2102=CARTESIAN_POINT('',(0.05075,0.0055,0.001));
#2103=CARTESIAN_POINT('',(0.05075,0.008,0.001));
#2104=CARTESIAN_POINT('',(0.04875,0.008,0.001));
#2105=CARTESIAN_POINT('',(0.04875,0.0055,0.001));
#2106=CARTESIAN_POINT('',(0.04625,0.0055,0.001));
#2107=CARTESIAN_POINT('',(0.04375,0.0055,0.001));
#2108=CARTESIAN_POINT('',(0.04375,0.008,0.001));
#2109=CARTESIAN_POINT('',(0.04175,0.008,0.001));
#2110=CARTESIAN_POINT('',(0.04175,0.0055,0.001));
#2111=CARTESIAN_POINT('',(0.03925,0.0055,0.001));
#2112=CARTESIAN_POINT('',(0.03675,0.0055,0.001));
#2113=CARTESIAN_POINT('',(0.03675,0.008,0.001));
#2114=CARTESIAN_POINT('',(0.03475,0.008,0.001));
#2115=CARTESIAN_POINT('',(0.03475,0.0055,0.001));
#2116=CARTESIAN_POINT('',(0.03225,0.0055,0.001));
#2117=CARTESIAN_POINT('',(0.02975,0.0055,0.001));
#2118=CARTESIAN_POINT('',(0.02975,0.008,0.001));
#2119=CARTESIAN_POINT('',(0.02775,0.008,0.001));
#2120=CARTESIAN_POINT('',(0.02775,0.0055,0.001));
#2121=CARTESIAN_POINT('',(0.02525,0.0055,0.001));
#2122=CARTESIAN_POINT('',(0.02275,0.0055,0.001));
#2123=CARTESIAN_POINT('',(0.02275,0.008,0.001));
#2124=CARTESIAN_POINT('',(0.02075,0.008,0.001));
#2125=CARTESIAN_POINT('',(0.02075,0.0055,0.001));
#2126=CARTESIAN_POINT('',(0.01825,0.0055,0.001));
#2127=CARTESIAN_POINT('',(0.01575,0.0055,0.001));
#2128=CARTESIAN_POINT('',(0.01575,0.008,0.001));
#2129=CARTESIAN_POINT('',(0.01375,0.008,0.001));
#2130=CARTESIAN_POINT('',(0.01375,0.0055,0.001));
#2131=CARTESIAN_POINT('',(0.01125,0.0055,0.001));
#2132=CARTESIAN_POINT('',(0.00875,0.0055,0.001));
#2133=CARTESIAN_POINT('',(0.00875,0.008,0.001));
#2134=CARTESIAN_POINT('',(0.00675,0.008,0.001));
#2135=CARTESIAN_POINT('',(0.00675,0.0055,0.001));
#2136=CARTESIAN_POINT('',(0.00425,0.0055,0.001));
#2137=CARTESIAN_POINT('',(0.00175,0.0055,0.001));
#2138=CARTESIAN_POINT('',(0.00175,0.008,0.001));
#2139=CARTESIAN_POINT('',(0.02875,0.00525,0.));
#2140=CARTESIAN_POINT('',(0.002,0.005625,0.));
#2141=CARTESIAN_POINT('',(0.004,0.005625,0.));
#2142=CARTESIAN_POINT('',(0.004,0.006625,0.));
#2143=CARTESIAN_POINT('',(0.004,0.007625,0.));
#2144=CARTESIAN_POINT('',(0.002,0.007625,0.));
#2145=CARTESIAN_POINT('',(0.002,0.008375,0.));
#2146=CARTESIAN_POINT('',(0.004,0.008375,0.));
#2147=CARTESIAN_POINT('',(0.004,0.009375,0.));
#2148=CARTESIAN_POINT('',(0.004,0.010375,0.));
#2149=CARTESIAN_POINT('',(0.002,0.010375,0.));
#2150=CARTESIAN_POINT('',(0.0555,0.010375,0.));
#2151=CARTESIAN_POINT('',(0.0535,0.010375,0.));
#2152=CARTESIAN_POINT('',(0.0535,0.009375,0.));
#2153=CARTESIAN_POINT('',(0.0535,0.008375,0.));
#2154=CARTESIAN_POINT('',(0.0555,0.008375,0.));
#2155=CARTESIAN_POINT('',(0.0555,0.007625,0.));
#2156=CARTESIAN_POINT('',(0.0535,0.007625,0.));
#2157=CARTESIAN_POINT('',(0.0535,0.006625,0.));
#2158=CARTESIAN_POINT('',(0.0535,0.005625,0.));
#2159=CARTESIAN_POINT('',(0.0555,0.005625,0.));
#2160=CARTESIAN_POINT('',(0.0555,0.004875,0.));
#2161=CARTESIAN_POINT('',(0.0535,0.004875,0.));
#2162=CARTESIAN_POINT('',(0.0535,0.003875,0.));
#2163=CARTESIAN_POINT('',(0.0535,0.002875,0.));
#2164=CARTESIAN_POINT('',(0.0555,0.002875,0.));
#2165=CARTESIAN_POINT('',(0.0555,0.002125,0.));
#2166=CARTESIAN_POINT('',(0.0535,0.002125,0.));
#2167=CARTESIAN_POINT('',(0.0535,0.001125,0.));
#2168=CARTESIAN_POINT('',(0.0535,0.000124999999999985,0.));
#2169=CARTESIAN_POINT('',(0.0555,0.000124999999999984,0.));
#2170=CARTESIAN_POINT('',(0.002,0.000125,0.));
#2171=CARTESIAN_POINT('',(0.004,0.000125,0.));
#2172=CARTESIAN_POINT('',(0.004,0.001125,0.));
#2173=CARTESIAN_POINT('',(0.004,0.002125,0.));
#2174=CARTESIAN_POINT('',(0.002,0.002125,0.));
#2175=CARTESIAN_POINT('',(0.002,0.002875,0.));
#2176=CARTESIAN_POINT('',(0.004,0.002875,0.));
#2177=CARTESIAN_POINT('',(0.004,0.003875,0.));
#2178=CARTESIAN_POINT('',(0.004,0.004875,0.));
#2179=CARTESIAN_POINT('',(0.002,0.004875,0.));
#2180=CARTESIAN_POINT('',(0.05075,0.008,0.00275));
#2181=CARTESIAN_POINT('',(0.05075,0.0055,0.00275));
#2182=CARTESIAN_POINT('',(0.05075,0.0055,0.00275));
#2183=CARTESIAN_POINT('',(0.05075,0.008,0.00275));
#2184=CARTESIAN_POINT('',(0.05325,0.0055,0.00275));
#2185=CARTESIAN_POINT('',(0.05575,0.0055,0.00275));
#2186=CARTESIAN_POINT('',(0.05575,0.0055,0.00275));
#2187=CARTESIAN_POINT('',(0.05325,0.0055,0.00275));
#2188=CARTESIAN_POINT('',(0.05575,0.008,0.00275));
#2189=CARTESIAN_POINT('',(0.05575,0.008,0.00275));
#2190=CARTESIAN_POINT('',(0.02875,0.00525,0.00275));
#2191=CARTESIAN_POINT('',(0.04375,0.008,0.00275));
#2192=CARTESIAN_POINT('',(0.04375,0.0055,0.00275));
#2193=CARTESIAN_POINT('',(0.04375,0.0055,0.00275));
#2194=CARTESIAN_POINT('',(0.04375,0.008,0.00275));
#2195=CARTESIAN_POINT('',(0.04625,0.0055,0.00275));
#2196=CARTESIAN_POINT('',(0.04875,0.0055,0.00275));
#2197=CARTESIAN_POINT('',(0.04875,0.0055,0.00275));
#2198=CARTESIAN_POINT('',(0.04625,0.0055,0.00275));
#2199=CARTESIAN_POINT('',(0.04875,0.008,0.00275));
#2200=CARTESIAN_POINT('',(0.04875,0.008,0.00275));
#2201=CARTESIAN_POINT('',(0.02875,0.00525,0.00275));
#2202=CARTESIAN_POINT('',(0.03675,0.008,0.00275));
#2203=CARTESIAN_POINT('',(0.03675,0.0055,0.00275));
#2204=CARTESIAN_POINT('',(0.03675,0.0055,0.00275));
#2205=CARTESIAN_POINT('',(0.03675,0.008,0.00275));
#2206=CARTESIAN_POINT('',(0.03925,0.0055,0.00275));
#2207=CARTESIAN_POINT('',(0.04175,0.0055,0.00275));
#2208=CARTESIAN_POINT('',(0.04175,0.0055,0.00275));
#2209=CARTESIAN_POINT('',(0.03925,0.0055,0.00275));
#2210=CARTESIAN_POINT('',(0.04175,0.008,0.00275));
#2211=CARTESIAN_POINT('',(0.04175,0.008,0.00275));
#2212=CARTESIAN_POINT('',(0.02875,0.00525,0.00275));
#2213=CARTESIAN_POINT('',(0.02975,0.008,0.00275));
#2214=CARTESIAN_POINT('',(0.02975,0.0055,0.00275));
#2215=CARTESIAN_POINT('',(0.02975,0.0055,0.00275));
#2216=CARTESIAN_POINT('',(0.02975,0.008,0.00275));
#2217=CARTESIAN_POINT('',(0.03225,0.0055,0.00275));
#2218=CARTESIAN_POINT('',(0.03475,0.0055,0.00275));
#2219=CARTESIAN_POINT('',(0.03475,0.0055,0.00275));
#2220=CARTESIAN_POINT('',(0.03225,0.0055,0.00275));
#2221=CARTESIAN_POINT('',(0.03475,0.008,0.00275));
#2222=CARTESIAN_POINT('',(0.03475,0.008,0.00275));
#2223=CARTESIAN_POINT('',(0.02875,0.00525,0.00275));
#2224=CARTESIAN_POINT('',(0.02275,0.008,0.00275));
#2225=CARTESIAN_POINT('',(0.02275,0.0055,0.00275));
#2226=CARTESIAN_POINT('',(0.02275,0.0055,0.00275));
#2227=CARTESIAN_POINT('',(0.02275,0.008,0.00275));
#2228=CARTESIAN_POINT('',(0.02525,0.0055,0.00275));
#2229=CARTESIAN_POINT('',(0.02775,0.0055,0.00275));
#2230=CARTESIAN_POINT('',(0.02775,0.0055,0.00275));
#2231=CARTESIAN_POINT('',(0.02525,0.0055,0.00275));
#2232=CARTESIAN_POINT('',(0.02775,0.008,0.00275));
#2233=CARTESIAN_POINT('',(0.02775,0.008,0.00275));
#2234=CARTESIAN_POINT('',(0.02875,0.00525,0.00275));
#2235=CARTESIAN_POINT('',(0.01575,0.008,0.00275));
#2236=CARTESIAN_POINT('',(0.01575,0.0055,0.00275));
#2237=CARTESIAN_POINT('',(0.01575,0.0055,0.00275));
#2238=CARTESIAN_POINT('',(0.01575,0.008,0.00275));
#2239=CARTESIAN_POINT('',(0.01825,0.0055,0.00275));
#2240=CARTESIAN_POINT('',(0.02075,0.0055,0.00275));
#2241=CARTESIAN_POINT('',(0.02075,0.0055,0.00275));
#2242=CARTESIAN_POINT('',(0.01825,0.0055,0.00275));
#2243=CARTESIAN_POINT('',(0.02075,0.008,0.00275));
#2244=CARTESIAN_POINT('',(0.02075,0.008,0.00275));
#2245=CARTESIAN_POINT('',(0.02875,0.00525,0.00275));
#2246=CARTESIAN_POINT('',(0.00875,0.008,0.00275));
#2247=CARTESIAN_POINT('',(0.00875,0.0055,0.00275));
#2248=CARTESIAN_POINT('',(0.00875,0.0055,0.00275));
#2249=CARTESIAN_POINT('',(0.00875,0.008,0.00275));
#2250=CARTESIAN_POINT('',(0.01125,0.0055,0.00275));
#2251=CARTESIAN_POINT('',(0.01375,0.0055,0.00275));
#2252=CARTESIAN_POINT('',(0.01375,0.0055,0.00275));
#2253=CARTESIAN_POINT('',(0.01125,0.0055,0.00275));
#2254=CARTESIAN_POINT('',(0.01375,0.008,0.00275));
#2255=CARTESIAN_POINT('',(0.01375,0.008,0.00275));
#2256=CARTESIAN_POINT('',(0.02875,0.00525,0.00275));
#2257=CARTESIAN_POINT('',(0.00175,0.008,0.00275));
#2258=CARTESIAN_POINT('',(0.00175,0.0055,0.00275));
#2259=CARTESIAN_POINT('',(0.00175,0.0055,0.00275));
#2260=CARTESIAN_POINT('',(0.00175,0.008,0.00275));
#2261=CARTESIAN_POINT('',(0.00425,0.0055,0.00275));
#2262=CARTESIAN_POINT('',(0.00675,0.0055,0.00275));
#2263=CARTESIAN_POINT('',(0.00675,0.0055,0.00275));
#2264=CARTESIAN_POINT('',(0.00425,0.0055,0.00275));
#2265=CARTESIAN_POINT('',(0.00675,0.008,0.00275));
#2266=CARTESIAN_POINT('',(0.00675,0.008,0.00275));
#2267=CARTESIAN_POINT('',(0.02875,0.00525,0.00275));
#2268=CARTESIAN_POINT('',(0.002,0.010375,-0.0001));
#2269=CARTESIAN_POINT('',(0.004,0.010375,-0.0001));
#2270=CARTESIAN_POINT('',(0.004,0.010375,-0.0001));
#2271=CARTESIAN_POINT('',(0.002,0.010375,-0.0001));
#2272=CARTESIAN_POINT('',(0.004,0.009375,-0.0001));
#2273=CARTESIAN_POINT('',(0.004,0.008375,-0.0001));
#2274=CARTESIAN_POINT('',(0.004,0.008375,-0.0001));
#2275=CARTESIAN_POINT('',(0.004,0.009375,-0.0001));
#2276=CARTESIAN_POINT('',(0.002,0.008375,-0.0001));
#2277=CARTESIAN_POINT('',(0.002,0.008375,-0.0001));
#2278=CARTESIAN_POINT('',(0.02875,0.00525,-0.0001));
#2279=CARTESIAN_POINT('',(0.0555,0.008375,-0.0001));
#2280=CARTESIAN_POINT('',(0.0535,0.008375,-0.0001));
#2281=CARTESIAN_POINT('',(0.0535,0.008375,-0.0001));
#2282=CARTESIAN_POINT('',(0.0555,0.008375,-0.0001));
#2283=CARTESIAN_POINT('',(0.0535,0.009375,-0.0001));
#2284=CARTESIAN_POINT('',(0.0535,0.010375,-0.0001));
#2285=CARTESIAN_POINT('',(0.0535,0.010375,-0.0001));
#2286=CARTESIAN_POINT('',(0.0535,0.009375,-0.0001));
#2287=CARTESIAN_POINT('',(0.0555,0.010375,-0.0001));
#2288=CARTESIAN_POINT('',(0.0555,0.010375,-0.0001));
#2289=CARTESIAN_POINT('',(0.02875,0.00525,-0.0001));
#2290=CARTESIAN_POINT('',(0.0555,0.005625,-0.0001));
#2291=CARTESIAN_POINT('',(0.0535,0.005625,-0.0001));
#2292=CARTESIAN_POINT('',(0.0535,0.005625,-0.0001));
#2293=CARTESIAN_POINT('',(0.0555,0.005625,-0.0001));
#2294=CARTESIAN_POINT('',(0.0535,0.006625,-0.0001));
#2295=CARTESIAN_POINT('',(0.0535,0.007625,-0.0001));
#2296=CARTESIAN_POINT('',(0.0535,0.007625,-0.0001));
#2297=CARTESIAN_POINT('',(0.0535,0.006625,-0.0001));
#2298=CARTESIAN_POINT('',(0.0555,0.007625,-0.0001));
#2299=CARTESIAN_POINT('',(0.0555,0.007625,-0.0001));
#2300=CARTESIAN_POINT('',(0.02875,0.00525,-0.0001));
#2301=CARTESIAN_POINT('',(0.0555,0.004875,-0.0001));
#2302=CARTESIAN_POINT('',(0.0555,0.004875,-0.0001));
#2303=CARTESIAN_POINT('',(0.0535,0.004875,-0.0001));
#2304=CARTESIAN_POINT('',(0.0535,0.004875,-0.0001));
#2305=CARTESIAN_POINT('',(0.0555,0.002875,-0.0001));
#2306=CARTESIAN_POINT('',(0.0535,0.002875,-0.0001));
#2307=CARTESIAN_POINT('',(0.0535,0.002875,-0.0001));
#2308=CARTESIAN_POINT('',(0.0555,0.002875,-0.0001));
#2309=CARTESIAN_POINT('',(0.0535,0.003875,-0.0001));
#2310=CARTESIAN_POINT('',(0.0535,0.003875,-0.0001));
#2311=CARTESIAN_POINT('',(0.02875,0.00525,-0.0001));
#2312=CARTESIAN_POINT('',(0.0555,0.002125,-0.0001));
#2313=CARTESIAN_POINT('',(0.0555,0.002125,-0.0001));
#2314=CARTESIAN_POINT('',(0.0535,0.002125,-0.0001));
#2315=CARTESIAN_POINT('',(0.0535,0.002125,-0.0001));
#2316=CARTESIAN_POINT('',(0.0555,0.000124999999999984,-0.0001));
#2317=CARTESIAN_POINT('',(0.0535,0.000124999999999985,-0.0001));
#2318=CARTESIAN_POINT('',(0.0535,0.000124999999999985,-0.0001));
#2319=CARTESIAN_POINT('',(0.0555,0.000124999999999984,-0.0001));
#2320=CARTESIAN_POINT('',(0.0535,0.001125,-0.0001));
#2321=CARTESIAN_POINT('',(0.0535,0.001125,-0.0001));
#2322=CARTESIAN_POINT('',(0.02875,0.00525,-0.0001));
#2323=CARTESIAN_POINT('',(0.002,0.000125,-0.0001));
#2324=CARTESIAN_POINT('',(0.002,0.000125,-0.0001));
#2325=CARTESIAN_POINT('',(0.004,0.000125,-0.0001));
#2326=CARTESIAN_POINT('',(0.004,0.000125,-0.0001));
#2327=CARTESIAN_POINT('',(0.002,0.002125,-0.0001));
#2328=CARTESIAN_POINT('',(0.004,0.002125,-0.0001));
#2329=CARTESIAN_POINT('',(0.004,0.002125,-0.0001));
#2330=CARTESIAN_POINT('',(0.002,0.002125,-0.0001));
#2331=CARTESIAN_POINT('',(0.004,0.001125,-0.0001));
#2332=CARTESIAN_POINT('',(0.004,0.001125,-0.0001));
#2333=CARTESIAN_POINT('',(0.02875,0.00525,-0.0001));
#2334=CARTESIAN_POINT('',(0.002,0.002875,-0.0001));
#2335=CARTESIAN_POINT('',(0.002,0.002875,-0.0001));
#2336=CARTESIAN_POINT('',(0.004,0.002875,-0.0001));
#2337=CARTESIAN_POINT('',(0.004,0.002875,-0.0001));
#2338=CARTESIAN_POINT('',(0.002,0.004875,-0.0001));
#2339=CARTESIAN_POINT('',(0.004,0.004875,-0.0001));
#2340=CARTESIAN_POINT('',(0.004,0.004875,-0.0001));
#2341=CARTESIAN_POINT('',(0.002,0.004875,-0.0001));
#2342=CARTESIAN_POINT('',(0.004,0.003875,-0.0001));
#2343=CARTESIAN_POINT('',(0.004,0.003875,-0.0001));
#2344=CARTESIAN_POINT('',(0.02875,0.00525,-0.0001));
#2345=CARTESIAN_POINT('',(0.002,0.005625,-0.0001));
#2346=CARTESIAN_POINT('',(0.002,0.005625,-0.0001));
#2347=CARTESIAN_POINT('',(0.004,0.005625,-0.0001));
#2348=CARTESIAN_POINT('',(0.004,0.005625,-0.0001));
#2349=CARTESIAN_POINT('',(0.002,0.007625,-0.0001));
#2350=CARTESIAN_POINT('',(0.004,0.007625,-0.0001));
#2351=CARTESIAN_POINT('',(0.004,0.007625,-0.0001));
#2352=CARTESIAN_POINT('',(0.002,0.007625,-0.0001));
#2353=CARTESIAN_POINT('',(0.004,0.006625,-0.0001));
#2354=CARTESIAN_POINT('',(0.004,0.006625,-0.0001));
#2355=CARTESIAN_POINT('',(0.02875,0.00525,-0.0001));
#2356=MECHANICAL_DESIGN_GEOMETRIC_PRESENTATION_REPRESENTATION('',(#1489),
#2357);
#2357=(
GEOMETRIC_REPRESENTATION_CONTEXT(3)
GLOBAL_UNCERTAINTY_ASSIGNED_CONTEXT((#2358))
GLOBAL_UNIT_ASSIGNED_CONTEXT((#2361,#2360,#2359))
REPRESENTATION_CONTEXT('LED','TOP_LEVEL_ASSEMBLY_PART')
);
#2358=UNCERTAINTY_MEASURE_WITH_UNIT(LENGTH_MEASURE(1.E-8),#2361,
'DISTANCE_ACCURACY_VALUE','Maximum Tolerance applied to model');
#2359=(
NAMED_UNIT(*)
SI_UNIT($,.STERADIAN.)
SOLID_ANGLE_UNIT()
);
#2360=(
NAMED_UNIT(*)
PLANE_ANGLE_UNIT()
SI_UNIT($,.RADIAN.)
);
#2361=(
LENGTH_UNIT()
NAMED_UNIT(*)
SI_UNIT($,.METRE.)
);
#2362=PRODUCT_DEFINITION_SHAPE('','',#2363);
#2363=PRODUCT_DEFINITION('','',#2365,#2364);
#2364=PRODUCT_DEFINITION_CONTEXT('',#2371,'design');
#2365=PRODUCT_DEFINITION_FORMATION_WITH_SPECIFIED_SOURCE('','',#2367,
 .NOT_KNOWN.);
#2366=PRODUCT_RELATED_PRODUCT_CATEGORY('','',(#2367));
#2367=PRODUCT('LED','LED','LED',(#2369));
#2368=PRODUCT_CATEGORY('','');
#2369=PRODUCT_CONTEXT('',#2371,'mechanical');
#2370=APPLICATION_PROTOCOL_DEFINITION('international standard',
'ap242_managed_model_based_3d_engineering',2020,#2371);
#2371=APPLICATION_CONTEXT('managed model based 3d engineering');
ENDSEC;
END-ISO-10303-21;
