ISO-10303-21;
HEADER;
/* Generated by software containing ST-Developer
 * from STEP Tools, Inc. (www.steptools.com) 
 */
/* OPTION: using custom renumber hook */

FILE_DESCRIPTION(
/* description */ ('STEP AP242 Edition 2',
'CAx-IF Rec.Pracs.---Representation and Presentation of Product Manufa
cturing Information (PMI)---4.0---2014-10-13',
'CAx-IF Rec.Pracs.---3D Tessellated Geometry---0.4---2014-09-14','2;1',
'CAx-IF Rec.Pracs.---User Defined Attributes---1.5---2016-08-15'),
/* implementation_level */ '2;1');

FILE_NAME(
/* name */ 'drzak_loziska',
/* time_stamp */ '2026-09-10T17:47:03Z',
/* author */ (''),
/* organization */ (''),
/* preprocessor_version */ 'ST-DEVELOPER v20',
/* originating_system */ 'ONSHAPE BY PTC INC, 1.220',
/* authorisation */ '  ');

FILE_SCHEMA (('AP242_MANAGED_MODEL_BASED_3D_ENGINEERING_MIM_LF { 1 0 10303 442 3 1 4 }'));
ENDSEC;

DATA;
#10=SHAPE_REPRESENTATION_RELATIONSHIP('','',#429,#11);
#11=ADVANCED_BREP_SHAPE_REPRESENTATION('',(#427),#705);
#12=CYLINDRICAL_SURFACE('',#437,0.0016);
#13=CYLINDRICAL_SURFACE('',#440,0.0016);
#14=CYLINDRICAL_SURFACE('',#443,0.0016);
#15=CYLINDRICAL_SURFACE('',#452,0.0023);
#16=CYLINDRICAL_SURFACE('',#454,0.0023);
#17=CYLINDRICAL_SURFACE('',#458,0.003);
#18=CYLINDRICAL_SURFACE('',#461,0.003);
#19=CYLINDRICAL_SURFACE('',#464,0.003);
#20=CYLINDRICAL_SURFACE('',#470,0.0025);
#21=LINE('',#604,#51);
#22=LINE('',#607,#52);
#23=LINE('',#609,#53);
#24=LINE('',#611,#54);
#25=LINE('',#613,#55);
#26=LINE('',#615,#56);
#27=LINE('',#617,#57);
#28=LINE('',#619,#58);
#29=LINE('',#636,#59);
#30=LINE('',#638,#60);
#31=LINE('',#640,#61);
#32=LINE('',#642,#62);
#33=LINE('',#644,#63);
#34=LINE('',#646,#64);
#35=LINE('',#648,#65);
#36=LINE('',#650,#66);
#37=LINE('',#652,#67);
#38=LINE('',#656,#68);
#39=LINE('',#658,#69);
#40=LINE('',#660,#70);
#41=LINE('',#662,#71);
#42=LINE('',#670,#72);
#43=LINE('',#671,#73);
#44=LINE('',#673,#74);
#45=LINE('',#675,#75);
#46=LINE('',#690,#76);
#47=LINE('',#692,#77);
#48=LINE('',#694,#78);
#49=LINE('',#696,#79);
#50=LINE('',#697,#80);
#51=VECTOR('',#488,1.);
#52=VECTOR('',#489,1.);
#53=VECTOR('',#490,1.);
#54=VECTOR('',#491,1.);
#55=VECTOR('',#492,1.);
#56=VECTOR('',#493,1.);
#57=VECTOR('',#494,1.);
#58=VECTOR('',#495,1.);
#59=VECTOR('',#516,1.);
#60=VECTOR('',#517,1.);
#61=VECTOR('',#518,1.);
#62=VECTOR('',#521,1.);
#63=VECTOR('',#522,1.);
#64=VECTOR('',#525,1.);
#65=VECTOR('',#526,1.);
#66=VECTOR('',#529,1.);
#67=VECTOR('',#530,1.);
#68=VECTOR('',#535,1.);
#69=VECTOR('',#536,1.);
#70=VECTOR('',#537,1.);
#71=VECTOR('',#538,1.);
#72=VECTOR('',#549,1.);
#73=VECTOR('',#550,1.);
#74=VECTOR('',#551,1.);
#75=VECTOR('',#552,1.);
#76=VECTOR('',#575,1.);
#77=VECTOR('',#576,1.);
#78=VECTOR('',#577,1.);
#79=VECTOR('',#580,1.);
#80=VECTOR('',#581,1.);
#81=ORIENTED_EDGE('',*,*,#177,.T.);
#82=ORIENTED_EDGE('',*,*,#178,.T.);
#83=ORIENTED_EDGE('',*,*,#179,.F.);
#84=ORIENTED_EDGE('',*,*,#180,.F.);
#85=ORIENTED_EDGE('',*,*,#181,.F.);
#86=ORIENTED_EDGE('',*,*,#182,.T.);
#87=ORIENTED_EDGE('',*,*,#183,.T.);
#88=ORIENTED_EDGE('',*,*,#184,.F.);
#89=ORIENTED_EDGE('',*,*,#185,.T.);
#90=ORIENTED_EDGE('',*,*,#186,.F.);
#91=ORIENTED_EDGE('',*,*,#187,.F.);
#92=ORIENTED_EDGE('',*,*,#188,.T.);
#93=ORIENTED_EDGE('',*,*,#189,.T.);
#94=ORIENTED_EDGE('',*,*,#190,.T.);
#95=ORIENTED_EDGE('',*,*,#191,.T.);
#96=ORIENTED_EDGE('',*,*,#192,.T.);
#97=ORIENTED_EDGE('',*,*,#193,.T.);
#98=ORIENTED_EDGE('',*,*,#194,.T.);
#99=ORIENTED_EDGE('',*,*,#195,.T.);
#100=ORIENTED_EDGE('',*,*,#189,.F.);
#101=ORIENTED_EDGE('',*,*,#196,.F.);
#102=ORIENTED_EDGE('',*,*,#197,.T.);
#103=ORIENTED_EDGE('',*,*,#198,.T.);
#104=ORIENTED_EDGE('',*,*,#188,.F.);
#105=ORIENTED_EDGE('',*,*,#199,.F.);
#106=ORIENTED_EDGE('',*,*,#200,.T.);
#107=ORIENTED_EDGE('',*,*,#196,.T.);
#108=ORIENTED_EDGE('',*,*,#187,.T.);
#109=ORIENTED_EDGE('',*,*,#201,.F.);
#110=ORIENTED_EDGE('',*,*,#202,.F.);
#111=ORIENTED_EDGE('',*,*,#199,.T.);
#112=ORIENTED_EDGE('',*,*,#186,.T.);
#113=ORIENTED_EDGE('',*,*,#203,.F.);
#114=ORIENTED_EDGE('',*,*,#204,.F.);
#115=ORIENTED_EDGE('',*,*,#201,.T.);
#116=ORIENTED_EDGE('',*,*,#205,.F.);
#117=ORIENTED_EDGE('',*,*,#185,.F.);
#118=ORIENTED_EDGE('',*,*,#206,.F.);
#119=ORIENTED_EDGE('',*,*,#207,.T.);
#120=ORIENTED_EDGE('',*,*,#208,.F.);
#121=ORIENTED_EDGE('',*,*,#209,.T.);
#122=ORIENTED_EDGE('',*,*,#203,.T.);
#123=ORIENTED_EDGE('',*,*,#210,.T.);
#124=ORIENTED_EDGE('',*,*,#177,.F.);
#125=ORIENTED_EDGE('',*,*,#211,.T.);
#126=ORIENTED_EDGE('',*,*,#178,.F.);
#127=ORIENTED_EDGE('',*,*,#182,.F.);
#128=ORIENTED_EDGE('',*,*,#198,.F.);
#129=ORIENTED_EDGE('',*,*,#212,.T.);
#130=ORIENTED_EDGE('',*,*,#208,.T.);
#131=ORIENTED_EDGE('',*,*,#213,.T.);
#132=ORIENTED_EDGE('',*,*,#214,.T.);
#133=ORIENTED_EDGE('',*,*,#215,.T.);
#134=ORIENTED_EDGE('',*,*,#197,.F.);
#135=ORIENTED_EDGE('',*,*,#200,.F.);
#136=ORIENTED_EDGE('',*,*,#202,.T.);
#137=ORIENTED_EDGE('',*,*,#204,.T.);
#138=ORIENTED_EDGE('',*,*,#209,.F.);
#139=ORIENTED_EDGE('',*,*,#212,.F.);
#140=ORIENTED_EDGE('',*,*,#211,.F.);
#141=ORIENTED_EDGE('',*,*,#210,.F.);
#142=ORIENTED_EDGE('',*,*,#192,.F.);
#143=ORIENTED_EDGE('',*,*,#190,.F.);
#144=ORIENTED_EDGE('',*,*,#194,.F.);
#145=ORIENTED_EDGE('',*,*,#216,.F.);
#146=ORIENTED_EDGE('',*,*,#179,.T.);
#147=ORIENTED_EDGE('',*,*,#191,.F.);
#148=ORIENTED_EDGE('',*,*,#216,.T.);
#149=ORIENTED_EDGE('',*,*,#217,.F.);
#150=ORIENTED_EDGE('',*,*,#180,.T.);
#151=ORIENTED_EDGE('',*,*,#195,.F.);
#152=ORIENTED_EDGE('',*,*,#217,.T.);
#153=ORIENTED_EDGE('',*,*,#218,.F.);
#154=ORIENTED_EDGE('',*,*,#181,.T.);
#155=ORIENTED_EDGE('',*,*,#193,.F.);
#156=ORIENTED_EDGE('',*,*,#218,.T.);
#157=ORIENTED_EDGE('',*,*,#184,.T.);
#158=ORIENTED_EDGE('',*,*,#219,.T.);
#159=ORIENTED_EDGE('',*,*,#220,.F.);
#160=ORIENTED_EDGE('',*,*,#221,.F.);
#161=ORIENTED_EDGE('',*,*,#206,.T.);
#162=ORIENTED_EDGE('',*,*,#220,.T.);
#163=ORIENTED_EDGE('',*,*,#222,.T.);
#164=ORIENTED_EDGE('',*,*,#214,.F.);
#165=ORIENTED_EDGE('',*,*,#223,.F.);
#166=ORIENTED_EDGE('',*,*,#207,.F.);
#167=ORIENTED_EDGE('',*,*,#221,.T.);
#168=ORIENTED_EDGE('',*,*,#223,.T.);
#169=ORIENTED_EDGE('',*,*,#213,.F.);
#170=ORIENTED_EDGE('',*,*,#224,.F.);
#171=ORIENTED_EDGE('',*,*,#205,.T.);
#172=ORIENTED_EDGE('',*,*,#224,.T.);
#173=ORIENTED_EDGE('',*,*,#219,.F.);
#174=ORIENTED_EDGE('',*,*,#183,.F.);
#175=ORIENTED_EDGE('',*,*,#215,.F.);
#176=ORIENTED_EDGE('',*,*,#222,.F.);
#177=EDGE_CURVE('',#225,#225,#263,.T.);
#178=EDGE_CURVE('',#226,#226,#264,.T.);
#179=EDGE_CURVE('',#227,#227,#265,.T.);
#180=EDGE_CURVE('',#228,#228,#266,.T.);
#181=EDGE_CURVE('',#229,#229,#267,.T.);
#182=EDGE_CURVE('',#230,#231,#21,.T.);
#183=EDGE_CURVE('',#231,#232,#22,.T.);
#184=EDGE_CURVE('',#233,#232,#23,.T.);
#185=EDGE_CURVE('',#233,#234,#24,.T.);
#186=EDGE_CURVE('',#235,#234,#25,.T.);
#187=EDGE_CURVE('',#236,#235,#26,.T.);
#188=EDGE_CURVE('',#236,#237,#27,.T.);
#189=EDGE_CURVE('',#237,#230,#28,.T.);
#190=EDGE_CURVE('',#238,#238,#268,.T.);
#191=EDGE_CURVE('',#239,#239,#269,.T.);
#192=EDGE_CURVE('',#240,#240,#270,.T.);
#193=EDGE_CURVE('',#241,#241,#271,.T.);
#194=EDGE_CURVE('',#242,#242,#272,.T.);
#195=EDGE_CURVE('',#243,#243,#273,.T.);
#196=EDGE_CURVE('',#244,#237,#29,.T.);
#197=EDGE_CURVE('',#244,#245,#30,.T.);
#198=EDGE_CURVE('',#245,#230,#31,.T.);
#199=EDGE_CURVE('',#246,#236,#32,.T.);
#200=EDGE_CURVE('',#246,#244,#33,.T.);
#201=EDGE_CURVE('',#247,#235,#34,.T.);
#202=EDGE_CURVE('',#246,#247,#35,.T.);
#203=EDGE_CURVE('',#248,#234,#36,.T.);
#204=EDGE_CURVE('',#247,#248,#37,.T.);
#205=EDGE_CURVE('',#249,#249,#274,.T.);
#206=EDGE_CURVE('',#250,#233,#38,.T.);
#207=EDGE_CURVE('',#250,#251,#39,.T.);
#208=EDGE_CURVE('',#252,#251,#40,.T.);
#209=EDGE_CURVE('',#252,#248,#41,.T.);
#210=EDGE_CURVE('',#253,#253,#275,.T.);
#211=EDGE_CURVE('',#254,#254,#276,.T.);
#212=EDGE_CURVE('',#245,#252,#42,.T.);
#213=EDGE_CURVE('',#251,#255,#43,.T.);
#214=EDGE_CURVE('',#255,#256,#44,.T.);
#215=EDGE_CURVE('',#256,#231,#45,.F.);
#216=EDGE_CURVE('',#257,#257,#277,.T.);
#217=EDGE_CURVE('',#258,#258,#278,.T.);
#218=EDGE_CURVE('',#259,#259,#279,.T.);
#219=EDGE_CURVE('',#232,#260,#46,.F.);
#220=EDGE_CURVE('',#261,#260,#47,.T.);
#221=EDGE_CURVE('',#250,#261,#48,.T.);
#222=EDGE_CURVE('',#260,#256,#49,.T.);
#223=EDGE_CURVE('',#261,#255,#50,.T.);
#224=EDGE_CURVE('',#262,#262,#280,.T.);
#225=VERTEX_POINT('',#595);
#226=VERTEX_POINT('',#597);
#227=VERTEX_POINT('',#599);
#228=VERTEX_POINT('',#601);
#229=VERTEX_POINT('',#603);
#230=VERTEX_POINT('',#605);
#231=VERTEX_POINT('',#606);
#232=VERTEX_POINT('',#608);
#233=VERTEX_POINT('',#610);
#234=VERTEX_POINT('',#612);
#235=VERTEX_POINT('',#614);
#236=VERTEX_POINT('',#616);
#237=VERTEX_POINT('',#618);
#238=VERTEX_POINT('',#622);
#239=VERTEX_POINT('',#624);
#240=VERTEX_POINT('',#627);
#241=VERTEX_POINT('',#629);
#242=VERTEX_POINT('',#632);
#243=VERTEX_POINT('',#634);
#244=VERTEX_POINT('',#637);
#245=VERTEX_POINT('',#639);
#246=VERTEX_POINT('',#643);
#247=VERTEX_POINT('',#647);
#248=VERTEX_POINT('',#651);
#249=VERTEX_POINT('',#655);
#250=VERTEX_POINT('',#657);
#251=VERTEX_POINT('',#659);
#252=VERTEX_POINT('',#661);
#253=VERTEX_POINT('',#665);
#254=VERTEX_POINT('',#668);
#255=VERTEX_POINT('',#672);
#256=VERTEX_POINT('',#674);
#257=VERTEX_POINT('',#679);
#258=VERTEX_POINT('',#683);
#259=VERTEX_POINT('',#687);
#260=VERTEX_POINT('',#691);
#261=VERTEX_POINT('',#693);
#262=VERTEX_POINT('',#701);
#263=CIRCLE('',#432,0.0023);
#264=CIRCLE('',#433,0.0023);
#265=CIRCLE('',#434,0.003);
#266=CIRCLE('',#435,0.003);
#267=CIRCLE('',#436,0.003);
#268=CIRCLE('',#438,0.0016);
#269=CIRCLE('',#439,0.0016);
#270=CIRCLE('',#441,0.0016);
#271=CIRCLE('',#442,0.0016);
#272=CIRCLE('',#444,0.0016);
#273=CIRCLE('',#445,0.0016);
#274=CIRCLE('',#451,0.0025);
#275=CIRCLE('',#453,0.0023);
#276=CIRCLE('',#455,0.0023);
#277=CIRCLE('',#459,0.003);
#278=CIRCLE('',#462,0.003);
#279=CIRCLE('',#465,0.003);
#280=CIRCLE('',#471,0.0025);
#281=EDGE_LOOP('',(#81));
#282=EDGE_LOOP('',(#82));
#283=EDGE_LOOP('',(#83));
#284=EDGE_LOOP('',(#84));
#285=EDGE_LOOP('',(#85));
#286=EDGE_LOOP('',(#86,#87,#88,#89,#90,#91,#92,#93));
#287=EDGE_LOOP('',(#94));
#288=EDGE_LOOP('',(#95));
#289=EDGE_LOOP('',(#96));
#290=EDGE_LOOP('',(#97));
#291=EDGE_LOOP('',(#98));
#292=EDGE_LOOP('',(#99));
#293=EDGE_LOOP('',(#100,#101,#102,#103));
#294=EDGE_LOOP('',(#104,#105,#106,#107));
#295=EDGE_LOOP('',(#108,#109,#110,#111));
#296=EDGE_LOOP('',(#112,#113,#114,#115));
#297=EDGE_LOOP('',(#116));
#298=EDGE_LOOP('',(#117,#118,#119,#120,#121,#122));
#299=EDGE_LOOP('',(#123));
#300=EDGE_LOOP('',(#124));
#301=EDGE_LOOP('',(#125));
#302=EDGE_LOOP('',(#126));
#303=EDGE_LOOP('',(#127,#128,#129,#130,#131,#132,#133));
#304=EDGE_LOOP('',(#134,#135,#136,#137,#138,#139));
#305=EDGE_LOOP('',(#140));
#306=EDGE_LOOP('',(#141));
#307=EDGE_LOOP('',(#142));
#308=EDGE_LOOP('',(#143));
#309=EDGE_LOOP('',(#144));
#310=EDGE_LOOP('',(#145));
#311=EDGE_LOOP('',(#146));
#312=EDGE_LOOP('',(#147));
#313=EDGE_LOOP('',(#148));
#314=EDGE_LOOP('',(#149));
#315=EDGE_LOOP('',(#150));
#316=EDGE_LOOP('',(#151));
#317=EDGE_LOOP('',(#152));
#318=EDGE_LOOP('',(#153));
#319=EDGE_LOOP('',(#154));
#320=EDGE_LOOP('',(#155));
#321=EDGE_LOOP('',(#156));
#322=EDGE_LOOP('',(#157,#158,#159,#160,#161));
#323=EDGE_LOOP('',(#162,#163,#164,#165));
#324=EDGE_LOOP('',(#166,#167,#168,#169));
#325=EDGE_LOOP('',(#170));
#326=EDGE_LOOP('',(#171));
#327=EDGE_LOOP('',(#172));
#328=EDGE_LOOP('',(#173,#174,#175,#176));
#329=FACE_BOUND('',#281,.T.);
#330=FACE_BOUND('',#282,.T.);
#331=FACE_BOUND('',#283,.T.);
#332=FACE_BOUND('',#284,.T.);
#333=FACE_BOUND('',#285,.T.);
#334=FACE_BOUND('',#286,.T.);
#335=FACE_BOUND('',#287,.T.);
#336=FACE_BOUND('',#288,.T.);
#337=FACE_BOUND('',#289,.T.);
#338=FACE_BOUND('',#290,.T.);
#339=FACE_BOUND('',#291,.T.);
#340=FACE_BOUND('',#292,.T.);
#341=FACE_BOUND('',#293,.T.);
#342=FACE_BOUND('',#294,.T.);
#343=FACE_BOUND('',#295,.T.);
#344=FACE_BOUND('',#296,.T.);
#345=FACE_BOUND('',#297,.T.);
#346=FACE_BOUND('',#298,.T.);
#347=FACE_BOUND('',#299,.T.);
#348=FACE_BOUND('',#300,.T.);
#349=FACE_BOUND('',#301,.T.);
#350=FACE_BOUND('',#302,.T.);
#351=FACE_BOUND('',#303,.T.);
#352=FACE_BOUND('',#304,.T.);
#353=FACE_BOUND('',#305,.T.);
#354=FACE_BOUND('',#306,.T.);
#355=FACE_BOUND('',#307,.T.);
#356=FACE_BOUND('',#308,.T.);
#357=FACE_BOUND('',#309,.T.);
#358=FACE_BOUND('',#310,.T.);
#359=FACE_BOUND('',#311,.T.);
#360=FACE_BOUND('',#312,.T.);
#361=FACE_BOUND('',#313,.T.);
#362=FACE_BOUND('',#314,.T.);
#363=FACE_BOUND('',#315,.T.);
#364=FACE_BOUND('',#316,.T.);
#365=FACE_BOUND('',#317,.T.);
#366=FACE_BOUND('',#318,.T.);
#367=FACE_BOUND('',#319,.T.);
#368=FACE_BOUND('',#320,.T.);
#369=FACE_BOUND('',#321,.T.);
#370=FACE_BOUND('',#322,.T.);
#371=FACE_BOUND('',#323,.T.);
#372=FACE_BOUND('',#324,.T.);
#373=FACE_BOUND('',#325,.T.);
#374=FACE_BOUND('',#326,.T.);
#375=FACE_BOUND('',#327,.T.);
#376=FACE_BOUND('',#328,.T.);
#377=PLANE('',#431);
#378=PLANE('',#446);
#379=PLANE('',#447);
#380=PLANE('',#448);
#381=PLANE('',#449);
#382=PLANE('',#450);
#383=PLANE('',#456);
#384=PLANE('',#457);
#385=PLANE('',#460);
#386=PLANE('',#463);
#387=PLANE('',#466);
#388=PLANE('',#467);
#389=PLANE('',#468);
#390=PLANE('',#469);
#391=PLANE('',#472);
#392=PLANE('',#473);
#393=ADVANCED_FACE('',(#329,#330,#331,#332,#333,#334),#377,.F.);
#394=ADVANCED_FACE('',(#335,#336),#12,.F.);
#395=ADVANCED_FACE('',(#337,#338),#13,.F.);
#396=ADVANCED_FACE('',(#339,#340),#14,.F.);
#397=ADVANCED_FACE('',(#341),#378,.T.);
#398=ADVANCED_FACE('',(#342),#379,.T.);
#399=ADVANCED_FACE('',(#343),#380,.F.);
#400=ADVANCED_FACE('',(#344),#381,.F.);
#401=ADVANCED_FACE('',(#345,#346),#382,.T.);
#402=ADVANCED_FACE('',(#347,#348),#15,.F.);
#403=ADVANCED_FACE('',(#349,#350),#16,.F.);
#404=ADVANCED_FACE('',(#351),#383,.T.);
#405=ADVANCED_FACE('',(#352,#353,#354,#355,#356,#357),#384,.T.);
#406=ADVANCED_FACE('',(#358,#359),#17,.F.);
#407=ADVANCED_FACE('',(#360,#361),#385,.T.);
#408=ADVANCED_FACE('',(#362,#363),#18,.F.);
#409=ADVANCED_FACE('',(#364,#365),#386,.T.);
#410=ADVANCED_FACE('',(#366,#367),#19,.F.);
#411=ADVANCED_FACE('',(#368,#369),#387,.T.);
#412=ADVANCED_FACE('',(#370),#388,.F.);
#413=ADVANCED_FACE('',(#371),#389,.F.);
#414=ADVANCED_FACE('',(#372),#390,.T.);
#415=ADVANCED_FACE('',(#373,#374),#20,.F.);
#416=ADVANCED_FACE('',(#375),#391,.T.);
#417=ADVANCED_FACE('',(#376),#392,.T.);
#418=CLOSED_SHELL('',(#393,#394,#395,#396,#397,#398,#399,#400,#401,#402,
#403,#404,#405,#406,#407,#408,#409,#410,#411,#412,#413,#414,#415,#416,#417));
#419=STYLED_ITEM('',(#420),#427);
#420=PRESENTATION_STYLE_ASSIGNMENT((#421));
#421=SURFACE_STYLE_USAGE(.BOTH.,#422);
#422=SURFACE_SIDE_STYLE('',(#423));
#423=SURFACE_STYLE_FILL_AREA(#424);
#424=FILL_AREA_STYLE('',(#425));
#425=FILL_AREA_STYLE_COLOUR('',#426);
#426=COLOUR_RGB('',0.372549019607843,0.654901960784314,0.23921568627451);
#427=MANIFOLD_SOLID_BREP('Part 1',#418);
#428=SHAPE_DEFINITION_REPRESENTATION(#710,#429);
#429=SHAPE_REPRESENTATION('Part 1',(#430),#705);
#430=AXIS2_PLACEMENT_3D('',#592,#474,#475);
#431=AXIS2_PLACEMENT_3D('',#593,#476,#477);
#432=AXIS2_PLACEMENT_3D('',#594,#478,#479);
#433=AXIS2_PLACEMENT_3D('',#596,#480,#481);
#434=AXIS2_PLACEMENT_3D('',#598,#482,#483);
#435=AXIS2_PLACEMENT_3D('',#600,#484,#485);
#436=AXIS2_PLACEMENT_3D('',#602,#486,#487);
#437=AXIS2_PLACEMENT_3D('',#620,#496,#497);
#438=AXIS2_PLACEMENT_3D('',#621,#498,#499);
#439=AXIS2_PLACEMENT_3D('',#623,#500,#501);
#440=AXIS2_PLACEMENT_3D('',#625,#502,#503);
#441=AXIS2_PLACEMENT_3D('',#626,#504,#505);
#442=AXIS2_PLACEMENT_3D('',#628,#506,#507);
#443=AXIS2_PLACEMENT_3D('',#630,#508,#509);
#444=AXIS2_PLACEMENT_3D('',#631,#510,#511);
#445=AXIS2_PLACEMENT_3D('',#633,#512,#513);
#446=AXIS2_PLACEMENT_3D('',#635,#514,#515);
#447=AXIS2_PLACEMENT_3D('',#641,#519,#520);
#448=AXIS2_PLACEMENT_3D('',#645,#523,#524);
#449=AXIS2_PLACEMENT_3D('',#649,#527,#528);
#450=AXIS2_PLACEMENT_3D('',#653,#531,#532);
#451=AXIS2_PLACEMENT_3D('',#654,#533,#534);
#452=AXIS2_PLACEMENT_3D('',#663,#539,#540);
#453=AXIS2_PLACEMENT_3D('',#664,#541,#542);
#454=AXIS2_PLACEMENT_3D('',#666,#543,#544);
#455=AXIS2_PLACEMENT_3D('',#667,#545,#546);
#456=AXIS2_PLACEMENT_3D('',#669,#547,#548);
#457=AXIS2_PLACEMENT_3D('',#676,#553,#554);
#458=AXIS2_PLACEMENT_3D('',#677,#555,#556);
#459=AXIS2_PLACEMENT_3D('',#678,#557,#558);
#460=AXIS2_PLACEMENT_3D('',#680,#559,#560);
#461=AXIS2_PLACEMENT_3D('',#681,#561,#562);
#462=AXIS2_PLACEMENT_3D('',#682,#563,#564);
#463=AXIS2_PLACEMENT_3D('',#684,#565,#566);
#464=AXIS2_PLACEMENT_3D('',#685,#567,#568);
#465=AXIS2_PLACEMENT_3D('',#686,#569,#570);
#466=AXIS2_PLACEMENT_3D('',#688,#571,#572);
#467=AXIS2_PLACEMENT_3D('',#689,#573,#574);
#468=AXIS2_PLACEMENT_3D('',#695,#578,#579);
#469=AXIS2_PLACEMENT_3D('',#698,#582,#583);
#470=AXIS2_PLACEMENT_3D('',#699,#584,#585);
#471=AXIS2_PLACEMENT_3D('',#700,#586,#587);
#472=AXIS2_PLACEMENT_3D('',#702,#588,#589);
#473=AXIS2_PLACEMENT_3D('',#703,#590,#591);
#474=DIRECTION('',(0.,0.,1.));
#475=DIRECTION('',(1.,0.,0.));
#476=DIRECTION('',(0.,0.,1.));
#477=DIRECTION('',(1.,0.,0.));
#478=DIRECTION('',(0.,0.,1.));
#479=DIRECTION('',(1.,0.,0.));
#480=DIRECTION('',(0.,0.,1.));
#481=DIRECTION('',(1.,0.,0.));
#482=DIRECTION('',(0.,0.,-1.));
#483=DIRECTION('',(-1.,0.,0.));
#484=DIRECTION('',(0.,0.,-1.));
#485=DIRECTION('',(-1.,0.,0.));
#486=DIRECTION('',(0.,0.,-1.));
#487=DIRECTION('',(-1.,0.,0.));
#488=DIRECTION('',(-1.7347234759768E-16,1.,0.));
#489=DIRECTION('',(1.,-1.92747052886312E-16,0.));
#490=DIRECTION('',(-2.16840434497101E-16,-1.,0.));
#491=DIRECTION('',(1.,0.,0.));
#492=DIRECTION('',(-3.46944695195362E-16,1.,0.));
#493=DIRECTION('',(-1.,-1.11917643611407E-16,0.));
#494=DIRECTION('',(2.77555756156289E-16,-1.,0.));
#495=DIRECTION('',(-1.,-1.11917643611407E-16,0.));
#496=DIRECTION('',(0.,0.,-1.));
#497=DIRECTION('',(-1.,0.,0.));
#498=DIRECTION('',(0.,0.,1.));
#499=DIRECTION('',(1.,0.,0.));
#500=DIRECTION('',(0.,0.,-1.));
#501=DIRECTION('',(-1.,0.,0.));
#502=DIRECTION('',(0.,0.,-1.));
#503=DIRECTION('',(-1.,0.,0.));
#504=DIRECTION('',(0.,0.,1.));
#505=DIRECTION('',(1.,0.,0.));
#506=DIRECTION('',(0.,0.,-1.));
#507=DIRECTION('',(-1.,0.,0.));
#508=DIRECTION('',(0.,0.,-1.));
#509=DIRECTION('',(-1.,0.,0.));
#510=DIRECTION('',(0.,0.,1.));
#511=DIRECTION('',(1.,0.,0.));
#512=DIRECTION('',(0.,0.,-1.));
#513=DIRECTION('',(-1.,0.,0.));
#514=DIRECTION('',(1.11917643611407E-16,-1.,0.));
#515=DIRECTION('',(1.,1.11917643611407E-16,0.));
#516=DIRECTION('',(0.,0.,-1.));
#517=DIRECTION('',(-1.,-1.11917643611407E-16,0.));
#518=DIRECTION('',(0.,0.,-1.));
#519=DIRECTION('',(1.,2.77555756156289E-16,0.));
#520=DIRECTION('',(-2.77555756156289E-16,1.,0.));
#521=DIRECTION('',(0.,0.,-1.));
#522=DIRECTION('',(2.77555756156289E-16,-1.,0.));
#523=DIRECTION('',(1.11917643611407E-16,-1.,0.));
#524=DIRECTION('',(1.,1.11917643611407E-16,0.));
#525=DIRECTION('',(0.,0.,-1.));
#526=DIRECTION('',(-1.,-1.11917643611407E-16,0.));
#527=DIRECTION('',(-1.,-3.46944695195362E-16,0.));
#528=DIRECTION('',(3.46944695195362E-16,-1.,0.));
#529=DIRECTION('',(0.,0.,-1.));
#530=DIRECTION('',(-3.46944695195362E-16,1.,0.));
#531=DIRECTION('',(0.,1.,0.));
#532=DIRECTION('',(0.,0.,1.));
#533=DIRECTION('',(0.,1.,0.));
#534=DIRECTION('',(0.,0.,1.));
#535=DIRECTION('',(0.,0.,1.));
#536=DIRECTION('',(-1.,0.,0.));
#537=DIRECTION('',(0.,0.,-1.));
#538=DIRECTION('',(1.,0.,0.));
#539=DIRECTION('',(0.,0.,-1.));
#540=DIRECTION('',(-1.,0.,0.));
#541=DIRECTION('',(0.,0.,1.));
#542=DIRECTION('',(1.,0.,0.));
#543=DIRECTION('',(0.,0.,-1.));
#544=DIRECTION('',(-1.,0.,0.));
#545=DIRECTION('',(0.,0.,1.));
#546=DIRECTION('',(1.,0.,0.));
#547=DIRECTION('',(-1.,-1.73472347597681E-16,0.));
#548=DIRECTION('',(1.73472347597681E-16,-1.,0.));
#549=DIRECTION('',(-1.7347234759768E-16,1.,0.));
#550=DIRECTION('',(0.,-1.,0.));
#551=DIRECTION('',(0.,0.,1.));
#552=DIRECTION('',(-1.2266347333467E-16,0.707106781186548,-0.707106781186548));
#553=DIRECTION('',(0.,0.,1.));
#554=DIRECTION('',(1.,0.,0.));
#555=DIRECTION('',(0.,0.,-1.));
#556=DIRECTION('',(-1.,0.,0.));
#557=DIRECTION('',(0.,0.,-1.));
#558=DIRECTION('',(-1.,0.,0.));
#559=DIRECTION('',(0.,0.,-1.));
#560=DIRECTION('',(1.,0.,0.));
#561=DIRECTION('',(0.,0.,-1.));
#562=DIRECTION('',(-1.,0.,0.));
#563=DIRECTION('',(0.,0.,-1.));
#564=DIRECTION('',(-1.,0.,0.));
#565=DIRECTION('',(0.,0.,-1.));
#566=DIRECTION('',(1.,0.,0.));
#567=DIRECTION('',(0.,0.,-1.));
#568=DIRECTION('',(-1.,0.,0.));
#569=DIRECTION('',(0.,0.,-1.));
#570=DIRECTION('',(-1.,0.,0.));
#571=DIRECTION('',(0.,0.,-1.));
#572=DIRECTION('',(1.,0.,0.));
#573=DIRECTION('',(-1.,2.16840434497101E-16,0.));
#574=DIRECTION('',(-2.16840434497101E-16,-1.,0.));
#575=DIRECTION('',(-1.53329341668337E-16,-0.707106781186548,0.707106781186548));
#576=DIRECTION('',(0.,0.,1.));
#577=DIRECTION('',(-2.16840434497101E-16,-1.,0.));
#578=DIRECTION('',(1.92747052886312E-16,1.,0.));
#579=DIRECTION('',(-1.,1.92747052886312E-16,0.));
#580=DIRECTION('',(-1.,1.92747052886312E-16,0.));
#581=DIRECTION('',(-1.,1.92747052886312E-16,0.));
#582=DIRECTION('',(0.,0.,-1.));
#583=DIRECTION('',(1.,0.,0.));
#584=DIRECTION('',(0.,1.,0.));
#585=DIRECTION('',(0.,0.,1.));
#586=DIRECTION('',(0.,1.,0.));
#587=DIRECTION('',(0.,0.,1.));
#588=DIRECTION('',(0.,1.,0.));
#589=DIRECTION('',(-1.,0.,0.));
#590=DIRECTION('',(-1.36292748149633E-16,-0.707106781186548,-0.707106781186548));
#591=DIRECTION('',(1.,-1.92747052886312E-16,0.));
#592=CARTESIAN_POINT('',(0.,0.,0.));
#593=CARTESIAN_POINT('',(0.021,0.0055,0.));
#594=CARTESIAN_POINT('',(0.042,-7.94709002379758E-18,0.));
#595=CARTESIAN_POINT('',(0.0443,-7.94709002379758E-18,0.));
#596=CARTESIAN_POINT('',(-6.93889390390723E-18,1.00819611989035E-18,0.));
#597=CARTESIAN_POINT('',(0.00229999999999999,1.00819611989035E-18,0.));
#598=CARTESIAN_POINT('',(0.0120000000000003,-0.01,0.));
#599=CARTESIAN_POINT('',(0.0090000000000003,-0.01,0.));
#600=CARTESIAN_POINT('',(0.042,-0.01,0.));
#601=CARTESIAN_POINT('',(0.039,-0.01,0.));
#602=CARTESIAN_POINT('',(0.0120000000000003,0.02,0.));
#603=CARTESIAN_POINT('',(0.0090000000000003,0.02,0.));
#604=CARTESIAN_POINT('',(-0.01,0.018,0.));
#605=CARTESIAN_POINT('',(-0.01,-0.017,0.));
#606=CARTESIAN_POINT('',(-0.01,0.007,0.));
#607=CARTESIAN_POINT('',(0.008,0.007,0.));
#608=CARTESIAN_POINT('',(0.008,0.007,0.));
#609=CARTESIAN_POINT('',(0.008,0.02,0.));
#610=CARTESIAN_POINT('',(0.008,0.028,0.));
#611=CARTESIAN_POINT('',(0.0055,0.028,0.));
#612=CARTESIAN_POINT('',(0.021,0.028,0.));
#613=CARTESIAN_POINT('',(0.021,0.018,0.));
#614=CARTESIAN_POINT('',(0.021,0.008,0.));
#615=CARTESIAN_POINT('',(0.0365,0.008,0.));
#616=CARTESIAN_POINT('',(0.052,0.008,0.));
#617=CARTESIAN_POINT('',(0.052,-0.0045,0.));
#618=CARTESIAN_POINT('',(0.052,-0.017,0.));
#619=CARTESIAN_POINT('',(0.021,-0.017,0.));
#620=CARTESIAN_POINT('',(0.0120000000000003,-0.01,0.005));
#621=CARTESIAN_POINT('',(0.0120000000000003,-0.01,0.005));
#622=CARTESIAN_POINT('',(0.0136000000000003,-0.01,0.005));
#623=CARTESIAN_POINT('',(0.0120000000000003,-0.01,0.001));
#624=CARTESIAN_POINT('',(0.0104000000000003,-0.01,0.001));
#625=CARTESIAN_POINT('',(0.0120000000000003,0.02,0.005));
#626=CARTESIAN_POINT('',(0.0120000000000003,0.02,0.005));
#627=CARTESIAN_POINT('',(0.0136000000000003,0.02,0.005));
#628=CARTESIAN_POINT('',(0.0120000000000003,0.02,0.001));
#629=CARTESIAN_POINT('',(0.0104000000000003,0.02,0.001));
#630=CARTESIAN_POINT('',(0.042,-0.01,0.005));
#631=CARTESIAN_POINT('',(0.042,-0.01,0.005));
#632=CARTESIAN_POINT('',(0.0436,-0.01,0.005));
#633=CARTESIAN_POINT('',(0.042,-0.01,0.001));
#634=CARTESIAN_POINT('',(0.0404,-0.01,0.001));
#635=CARTESIAN_POINT('',(0.021,-0.017,0.005));
#636=CARTESIAN_POINT('',(0.052,-0.017,0.005));
#637=CARTESIAN_POINT('',(0.052,-0.017,0.005));
#638=CARTESIAN_POINT('',(0.021,-0.017,0.005));
#639=CARTESIAN_POINT('',(-0.01,-0.017,0.005));
#640=CARTESIAN_POINT('',(-0.01,-0.017,0.005));
#641=CARTESIAN_POINT('',(0.052,-0.0045,0.005));
#642=CARTESIAN_POINT('',(0.052,0.008,0.005));
#643=CARTESIAN_POINT('',(0.052,0.008,0.005));
#644=CARTESIAN_POINT('',(0.052,-0.0045,0.005));
#645=CARTESIAN_POINT('',(0.0365,0.008,0.005));
#646=CARTESIAN_POINT('',(0.021,0.008,0.005));
#647=CARTESIAN_POINT('',(0.021,0.008,0.005));
#648=CARTESIAN_POINT('',(0.0365,0.008,0.005));
#649=CARTESIAN_POINT('',(0.021,0.018,0.005));
#650=CARTESIAN_POINT('',(0.021,0.028,0.005));
#651=CARTESIAN_POINT('',(0.021,0.028,0.005));
#652=CARTESIAN_POINT('',(0.021,0.018,0.005));
#653=CARTESIAN_POINT('',(0.0055,0.028,0.005));
#654=CARTESIAN_POINT('',(0.,0.028,-0.011));
#655=CARTESIAN_POINT('',(0.,0.028,-0.0085));
#656=CARTESIAN_POINT('',(0.008,0.028,-0.018));
#657=CARTESIAN_POINT('',(0.008,0.028,-0.018));
#658=CARTESIAN_POINT('',(-0.001,0.028,-0.018));
#659=CARTESIAN_POINT('',(-0.01,0.028,-0.018));
#660=CARTESIAN_POINT('',(-0.01,0.028,0.005));
#661=CARTESIAN_POINT('',(-0.01,0.028,0.005));
#662=CARTESIAN_POINT('',(0.0055,0.028,0.005));
#663=CARTESIAN_POINT('',(0.042,-7.94709002379758E-18,0.005));
#664=CARTESIAN_POINT('',(0.042,-7.94709002379758E-18,0.005));
#665=CARTESIAN_POINT('',(0.0443,-7.94709002379758E-18,0.005));
#666=CARTESIAN_POINT('',(-6.93889390390723E-18,1.00819611989035E-18,0.005));
#667=CARTESIAN_POINT('',(-6.93889390390723E-18,1.00819611989035E-18,0.005));
#668=CARTESIAN_POINT('',(0.00229999999999999,1.00819611989035E-18,0.005));
#669=CARTESIAN_POINT('',(-0.01,0.018,0.005));
#670=CARTESIAN_POINT('',(-0.01,0.018,0.005));
#671=CARTESIAN_POINT('',(-0.01,0.02,-0.018));
#672=CARTESIAN_POINT('',(-0.01,0.012,-0.018));
#673=CARTESIAN_POINT('',(-0.01,0.012,-0.018));
#674=CARTESIAN_POINT('',(-0.01,0.012,-0.005));
#675=CARTESIAN_POINT('',(-0.01,0.012,-0.005));
#676=CARTESIAN_POINT('',(0.021,0.0055,0.005));
#677=CARTESIAN_POINT('',(0.0120000000000003,-0.01,0.001));
#678=CARTESIAN_POINT('',(0.0120000000000003,-0.01,0.001));
#679=CARTESIAN_POINT('',(0.0090000000000003,-0.01,0.001));
#680=CARTESIAN_POINT('',(0.027,0.00500000000000007,0.001));
#681=CARTESIAN_POINT('',(0.042,-0.01,0.001));
#682=CARTESIAN_POINT('',(0.042,-0.01,0.001));
#683=CARTESIAN_POINT('',(0.039,-0.01,0.001));
#684=CARTESIAN_POINT('',(0.027,0.00500000000000007,0.001));
#685=CARTESIAN_POINT('',(0.0120000000000003,0.02,0.001));
#686=CARTESIAN_POINT('',(0.0120000000000003,0.02,0.001));
#687=CARTESIAN_POINT('',(0.0090000000000003,0.02,0.001));
#688=CARTESIAN_POINT('',(0.027,0.00500000000000007,0.001));
#689=CARTESIAN_POINT('',(0.008,0.02,-0.018));
#690=CARTESIAN_POINT('',(0.008,0.0225,-0.0155));
#691=CARTESIAN_POINT('',(0.008,0.012,-0.005));
#692=CARTESIAN_POINT('',(0.008,0.012,-0.018));
#693=CARTESIAN_POINT('',(0.008,0.012,-0.018));
#694=CARTESIAN_POINT('',(0.008,0.02,-0.018));
#695=CARTESIAN_POINT('',(-0.001,0.012,-0.018));
#696=CARTESIAN_POINT('',(-0.01,0.012,-0.005));
#697=CARTESIAN_POINT('',(-0.001,0.012,-0.018));
#698=CARTESIAN_POINT('',(-0.001,0.02,-0.018));
#699=CARTESIAN_POINT('',(0.,0.018,-0.011));
#700=CARTESIAN_POINT('',(0.,0.018,-0.011));
#701=CARTESIAN_POINT('',(0.,0.018,-0.0085));
#702=CARTESIAN_POINT('',(0.,0.018,-0.011));
#703=CARTESIAN_POINT('',(-0.001,0.012,-0.005));
#704=MECHANICAL_DESIGN_GEOMETRIC_PRESENTATION_REPRESENTATION('',(#419),
#705);
#705=(
GEOMETRIC_REPRESENTATION_CONTEXT(3)
GLOBAL_UNCERTAINTY_ASSIGNED_CONTEXT((#706))
GLOBAL_UNIT_ASSIGNED_CONTEXT((#709,#708,#707))
REPRESENTATION_CONTEXT('Part 1','TOP_LEVEL_ASSEMBLY_PART')
);
#706=UNCERTAINTY_MEASURE_WITH_UNIT(LENGTH_MEASURE(1.E-8),#709,
'DISTANCE_ACCURACY_VALUE','Maximum Tolerance applied to model');
#707=(
NAMED_UNIT(*)
SI_UNIT($,.STERADIAN.)
SOLID_ANGLE_UNIT()
);
#708=(
NAMED_UNIT(*)
PLANE_ANGLE_UNIT()
SI_UNIT($,.RADIAN.)
);
#709=(
LENGTH_UNIT()
NAMED_UNIT(*)
SI_UNIT($,.METRE.)
);
#710=PRODUCT_DEFINITION_SHAPE('','',#711);
#711=PRODUCT_DEFINITION('','',#713,#712);
#712=PRODUCT_DEFINITION_CONTEXT('',#719,'design');
#713=PRODUCT_DEFINITION_FORMATION_WITH_SPECIFIED_SOURCE('','',#715,
 .NOT_KNOWN.);
#714=PRODUCT_RELATED_PRODUCT_CATEGORY('','',(#715));
#715=PRODUCT('Part 1','Part 1','Part 1',(#717));
#716=PRODUCT_CATEGORY('','');
#717=PRODUCT_CONTEXT('',#719,'mechanical');
#718=APPLICATION_PROTOCOL_DEFINITION('international standard',
'ap242_managed_model_based_3d_engineering',2020,#719);
#719=APPLICATION_CONTEXT('managed model based 3d engineering');
ENDSEC;
END-ISO-10303-21;
