ISO-10303-21;
HEADER;
/* Generated by software containing ST-Developer
 * from STEP Tools, Inc. (www.steptools.com) 
 */
/* OPTION: using custom renumber hook */

FILE_DESCRIPTION(
/* description */ ('STEP AP242 Edition 2',
'CAx-IF Rec.Pracs.---Representation and Presentation of Product Manufa
cturing Information (PMI)---4.0---2014-10-13',
'CAx-IF Rec.Pracs.---3D Tessellated Geometry---0.4---2014-09-14','2;1',
'CAx-IF Rec.Pracs.---User Defined Attributes---1.5---2016-08-15'),
/* implementation_level */ '2;1');

FILE_NAME(
/* name */ 'drzak_s3',
/* time_stamp */ '2026-07-10T22:08:14Z',
/* author */ (''),
/* organization */ (''),
/* preprocessor_version */ 'ST-DEVELOPER v20',
/* originating_system */ 'ONSHAPE BY PTC INC, 1.217',
/* authorisation */ '  ');

FILE_SCHEMA (('AP242_MANAGED_MODEL_BASED_3D_ENGINEERING_MIM_LF { 1 0 10303 442 3 1 4 }'));
ENDSEC;

DATA;
#10=SHAPE_REPRESENTATION_RELATIONSHIP('','',#1135,#11);
#11=ADVANCED_BREP_SHAPE_REPRESENTATION('',(#1133),#1867);
#12=PLANE('',#1151);
#13=PLANE('',#1152);
#14=PLANE('',#1153);
#15=PLANE('',#1154);
#16=PLANE('',#1155);
#17=PLANE('',#1180);
#18=PLANE('',#1185);
#19=PLANE('',#1190);
#20=PLANE('',#1191);
#21=PLANE('',#1192);
#22=PLANE('',#1193);
#23=PLANE('',#1194);
#24=PLANE('',#1196);
#25=PLANE('',#1197);
#26=PLANE('',#1198);
#27=PLANE('',#1200);
#28=PLANE('',#1201);
#29=PLANE('',#1202);
#30=PLANE('',#1204);
#31=PLANE('',#1205);
#32=PLANE('',#1206);
#33=PLANE('',#1212);
#34=PLANE('',#1213);
#35=PLANE('',#1214);
#36=PLANE('',#1217);
#37=PLANE('',#1218);
#38=PLANE('',#1219);
#39=PLANE('',#1222);
#40=PLANE('',#1225);
#41=PLANE('',#1228);
#42=PLANE('',#1229);
#43=PLANE('',#1230);
#44=PLANE('',#1231);
#45=PLANE('',#1232);
#46=PLANE('',#1233);
#47=PLANE('',#1234);
#48=PLANE('',#1235);
#49=PLANE('',#1236);
#50=PLANE('',#1237);
#51=ELLIPSE('',#1139,0.00424264068711939,0.003);
#52=ELLIPSE('',#1143,0.00424264068711939,0.003);
#53=LINE('',#1555,#161);
#54=LINE('',#1559,#162);
#55=LINE('',#1566,#163);
#56=LINE('',#1570,#164);
#57=LINE('',#1584,#165);
#58=LINE('',#1587,#166);
#59=LINE('',#1589,#167);
#60=LINE('',#1591,#168);
#61=LINE('',#1593,#169);
#62=LINE('',#1596,#170);
#63=LINE('',#1598,#171);
#64=LINE('',#1600,#172);
#65=LINE('',#1602,#173);
#66=LINE('',#1603,#174);
#67=LINE('',#1605,#175);
#68=LINE('',#1607,#176);
#69=LINE('',#1609,#177);
#70=LINE('',#1611,#178);
#71=LINE('',#1613,#179);
#72=LINE('',#1617,#180);
#73=LINE('',#1620,#181);
#74=LINE('',#1624,#182);
#75=LINE('',#1626,#183);
#76=LINE('',#1628,#184);
#77=LINE('',#1632,#185);
#78=LINE('',#1633,#186);
#79=LINE('',#1637,#187);
#80=LINE('',#1639,#188);
#81=LINE('',#1641,#189);
#82=LINE('',#1645,#190);
#83=LINE('',#1647,#191);
#84=LINE('',#1649,#192);
#85=LINE('',#1653,#193);
#86=LINE('',#1655,#194);
#87=LINE('',#1657,#195);
#88=LINE('',#1661,#196);
#89=LINE('',#1663,#197);
#90=LINE('',#1697,#198);
#91=LINE('',#1699,#199);
#92=LINE('',#1701,#200);
#93=LINE('',#1705,#201);
#94=LINE('',#1707,#202);
#95=LINE('',#1709,#203);
#96=LINE('',#1713,#204);
#97=LINE('',#1715,#205);
#98=LINE('',#1717,#206);
#99=LINE('',#1718,#207);
#100=LINE('',#1724,#208);
#101=LINE('',#1726,#209);
#102=LINE('',#1728,#210);
#103=LINE('',#1730,#211);
#104=LINE('',#1732,#212);
#105=LINE('',#1734,#213);
#106=LINE('',#1736,#214);
#107=LINE('',#1740,#215);
#108=LINE('',#1742,#216);
#109=LINE('',#1744,#217);
#110=LINE('',#1748,#218);
#111=LINE('',#1750,#219);
#112=LINE('',#1751,#220);
#113=LINE('',#1753,#221);
#114=LINE('',#1755,#222);
#115=LINE('',#1757,#223);
#116=LINE('',#1758,#224);
#117=LINE('',#1760,#225);
#118=LINE('',#1762,#226);
#119=LINE('',#1764,#227);
#120=LINE('',#1766,#228);
#121=LINE('',#1768,#229);
#122=LINE('',#1770,#230);
#123=LINE('',#1772,#231);
#124=LINE('',#1774,#232);
#125=LINE('',#1776,#233);
#126=LINE('',#1778,#234);
#127=LINE('',#1780,#235);
#128=LINE('',#1781,#236);
#129=LINE('',#1783,#237);
#130=LINE('',#1785,#238);
#131=LINE('',#1787,#239);
#132=LINE('',#1789,#240);
#133=LINE('',#1791,#241);
#134=LINE('',#1793,#242);
#135=LINE('',#1801,#243);
#136=LINE('',#1803,#244);
#137=LINE('',#1805,#245);
#138=LINE('',#1807,#246);
#139=LINE('',#1811,#247);
#140=LINE('',#1813,#248);
#141=LINE('',#1815,#249);
#142=LINE('',#1817,#250);
#143=LINE('',#1819,#251);
#144=LINE('',#1821,#252);
#145=LINE('',#1823,#253);
#146=LINE('',#1824,#254);
#147=LINE('',#1826,#255);
#148=LINE('',#1831,#256);
#149=LINE('',#1833,#257);
#150=LINE('',#1837,#258);
#151=LINE('',#1839,#259);
#152=LINE('',#1841,#260);
#153=LINE('',#1845,#261);
#154=LINE('',#1847,#262);
#155=LINE('',#1849,#263);
#156=LINE('',#1851,#264);
#157=LINE('',#1853,#265);
#158=LINE('',#1855,#266);
#159=LINE('',#1857,#267);
#160=LINE('',#1858,#268);
#161=VECTOR('',#1244,1.);
#162=VECTOR('',#1247,1.);
#163=VECTOR('',#1254,1.);
#164=VECTOR('',#1257,1.);
#165=VECTOR('',#1274,1.);
#166=VECTOR('',#1275,1.);
#167=VECTOR('',#1276,1.);
#168=VECTOR('',#1277,1.);
#169=VECTOR('',#1280,1.);
#170=VECTOR('',#1281,1.);
#171=VECTOR('',#1282,1.);
#172=VECTOR('',#1283,1.);
#173=VECTOR('',#1286,1.);
#174=VECTOR('',#1287,1.);
#175=VECTOR('',#1290,1.);
#176=VECTOR('',#1291,1.);
#177=VECTOR('',#1292,1.);
#178=VECTOR('',#1293,1.);
#179=VECTOR('',#1294,1.);
#180=VECTOR('',#1299,1.);
#181=VECTOR('',#1302,1.);
#182=VECTOR('',#1305,1.);
#183=VECTOR('',#1306,1.);
#184=VECTOR('',#1307,1.);
#185=VECTOR('',#1310,1.);
#186=VECTOR('',#1311,1.);
#187=VECTOR('',#1314,1.);
#188=VECTOR('',#1315,1.);
#189=VECTOR('',#1316,1.);
#190=VECTOR('',#1319,1.);
#191=VECTOR('',#1320,1.);
#192=VECTOR('',#1321,1.);
#193=VECTOR('',#1324,1.);
#194=VECTOR('',#1325,1.);
#195=VECTOR('',#1326,1.);
#196=VECTOR('',#1329,1.);
#197=VECTOR('',#1330,1.);
#198=VECTOR('',#1369,1.);
#199=VECTOR('',#1370,1.);
#200=VECTOR('',#1371,1.);
#201=VECTOR('',#1374,1.);
#202=VECTOR('',#1375,1.);
#203=VECTOR('',#1376,1.);
#204=VECTOR('',#1379,1.);
#205=VECTOR('',#1380,1.);
#206=VECTOR('',#1381,1.);
#207=VECTOR('',#1382,1.);
#208=VECTOR('',#1389,1.);
#209=VECTOR('',#1390,1.);
#210=VECTOR('',#1391,1.);
#211=VECTOR('',#1392,1.);
#212=VECTOR('',#1393,1.);
#213=VECTOR('',#1394,1.);
#214=VECTOR('',#1395,1.);
#215=VECTOR('',#1398,1.);
#216=VECTOR('',#1399,1.);
#217=VECTOR('',#1400,1.);
#218=VECTOR('',#1403,1.);
#219=VECTOR('',#1406,1.);
#220=VECTOR('',#1407,1.);
#221=VECTOR('',#1410,1.);
#222=VECTOR('',#1413,1.);
#223=VECTOR('',#1416,1.);
#224=VECTOR('',#1417,1.);
#225=VECTOR('',#1418,1.);
#226=VECTOR('',#1421,1.);
#227=VECTOR('',#1424,1.);
#228=VECTOR('',#1427,1.);
#229=VECTOR('',#1430,1.);
#230=VECTOR('',#1433,1.);
#231=VECTOR('',#1436,1.);
#232=VECTOR('',#1439,1.);
#233=VECTOR('',#1442,1.);
#234=VECTOR('',#1443,1.);
#235=VECTOR('',#1444,1.);
#236=VECTOR('',#1445,1.);
#237=VECTOR('',#1448,1.);
#238=VECTOR('',#1451,1.);
#239=VECTOR('',#1454,1.);
#240=VECTOR('',#1457,1.);
#241=VECTOR('',#1460,1.);
#242=VECTOR('',#1463,1.);
#243=VECTOR('',#1478,1.);
#244=VECTOR('',#1479,1.);
#245=VECTOR('',#1480,1.);
#246=VECTOR('',#1483,1.);
#247=VECTOR('',#1488,1.);
#248=VECTOR('',#1489,1.);
#249=VECTOR('',#1490,1.);
#250=VECTOR('',#1493,1.);
#251=VECTOR('',#1494,1.);
#252=VECTOR('',#1495,1.);
#253=VECTOR('',#1498,1.);
#254=VECTOR('',#1499,1.);
#255=VECTOR('',#1500,1.);
#256=VECTOR('',#1509,1.);
#257=VECTOR('',#1510,1.);
#258=VECTOR('',#1515,1.);
#259=VECTOR('',#1516,1.);
#260=VECTOR('',#1519,1.);
#261=VECTOR('',#1524,1.);
#262=VECTOR('',#1525,1.);
#263=VECTOR('',#1526,1.);
#264=VECTOR('',#1529,1.);
#265=VECTOR('',#1530,1.);
#266=VECTOR('',#1531,1.);
#267=VECTOR('',#1534,1.);
#268=VECTOR('',#1535,1.);
#269=ORIENTED_EDGE('',*,*,#569,.T.);
#270=ORIENTED_EDGE('',*,*,#570,.T.);
#271=ORIENTED_EDGE('',*,*,#571,.F.);
#272=ORIENTED_EDGE('',*,*,#572,.T.);
#273=ORIENTED_EDGE('',*,*,#573,.F.);
#274=ORIENTED_EDGE('',*,*,#574,.T.);
#275=ORIENTED_EDGE('',*,*,#575,.T.);
#276=ORIENTED_EDGE('',*,*,#576,.F.);
#277=ORIENTED_EDGE('',*,*,#577,.T.);
#278=ORIENTED_EDGE('',*,*,#578,.F.);
#279=ORIENTED_EDGE('',*,*,#579,.T.);
#280=ORIENTED_EDGE('',*,*,#580,.F.);
#281=ORIENTED_EDGE('',*,*,#581,.T.);
#282=ORIENTED_EDGE('',*,*,#582,.F.);
#283=ORIENTED_EDGE('',*,*,#583,.F.);
#284=ORIENTED_EDGE('',*,*,#584,.T.);
#285=ORIENTED_EDGE('',*,*,#585,.T.);
#286=ORIENTED_EDGE('',*,*,#586,.T.);
#287=ORIENTED_EDGE('',*,*,#587,.T.);
#288=ORIENTED_EDGE('',*,*,#588,.T.);
#289=ORIENTED_EDGE('',*,*,#589,.F.);
#290=ORIENTED_EDGE('',*,*,#590,.F.);
#291=ORIENTED_EDGE('',*,*,#577,.F.);
#292=ORIENTED_EDGE('',*,*,#591,.T.);
#293=ORIENTED_EDGE('',*,*,#570,.F.);
#294=ORIENTED_EDGE('',*,*,#592,.F.);
#295=ORIENTED_EDGE('',*,*,#572,.F.);
#296=ORIENTED_EDGE('',*,*,#593,.T.);
#297=ORIENTED_EDGE('',*,*,#594,.T.);
#298=ORIENTED_EDGE('',*,*,#595,.T.);
#299=ORIENTED_EDGE('',*,*,#596,.T.);
#300=ORIENTED_EDGE('',*,*,#597,.F.);
#301=ORIENTED_EDGE('',*,*,#598,.F.);
#302=ORIENTED_EDGE('',*,*,#583,.T.);
#303=ORIENTED_EDGE('',*,*,#599,.T.);
#304=ORIENTED_EDGE('',*,*,#588,.F.);
#305=ORIENTED_EDGE('',*,*,#600,.F.);
#306=ORIENTED_EDGE('',*,*,#601,.F.);
#307=ORIENTED_EDGE('',*,*,#602,.F.);
#308=ORIENTED_EDGE('',*,*,#603,.F.);
#309=ORIENTED_EDGE('',*,*,#604,.F.);
#310=ORIENTED_EDGE('',*,*,#605,.T.);
#311=ORIENTED_EDGE('',*,*,#606,.F.);
#312=ORIENTED_EDGE('',*,*,#607,.T.);
#313=ORIENTED_EDGE('',*,*,#574,.F.);
#314=ORIENTED_EDGE('',*,*,#592,.T.);
#315=ORIENTED_EDGE('',*,*,#569,.F.);
#316=ORIENTED_EDGE('',*,*,#597,.T.);
#317=ORIENTED_EDGE('',*,*,#608,.T.);
#318=ORIENTED_EDGE('',*,*,#609,.F.);
#319=ORIENTED_EDGE('',*,*,#610,.T.);
#320=ORIENTED_EDGE('',*,*,#611,.T.);
#321=ORIENTED_EDGE('',*,*,#612,.T.);
#322=ORIENTED_EDGE('',*,*,#613,.F.);
#323=ORIENTED_EDGE('',*,*,#614,.T.);
#324=ORIENTED_EDGE('',*,*,#615,.F.);
#325=ORIENTED_EDGE('',*,*,#616,.F.);
#326=ORIENTED_EDGE('',*,*,#617,.T.);
#327=ORIENTED_EDGE('',*,*,#618,.F.);
#328=ORIENTED_EDGE('',*,*,#619,.F.);
#329=ORIENTED_EDGE('',*,*,#620,.F.);
#330=ORIENTED_EDGE('',*,*,#621,.T.);
#331=ORIENTED_EDGE('',*,*,#622,.F.);
#332=ORIENTED_EDGE('',*,*,#623,.T.);
#333=ORIENTED_EDGE('',*,*,#579,.F.);
#334=ORIENTED_EDGE('',*,*,#624,.F.);
#335=ORIENTED_EDGE('',*,*,#625,.F.);
#336=ORIENTED_EDGE('',*,*,#626,.T.);
#337=ORIENTED_EDGE('',*,*,#627,.T.);
#338=ORIENTED_EDGE('',*,*,#581,.F.);
#339=ORIENTED_EDGE('',*,*,#628,.T.);
#340=ORIENTED_EDGE('',*,*,#629,.T.);
#341=ORIENTED_EDGE('',*,*,#630,.T.);
#342=ORIENTED_EDGE('',*,*,#631,.T.);
#343=ORIENTED_EDGE('',*,*,#632,.T.);
#344=ORIENTED_EDGE('',*,*,#633,.T.);
#345=ORIENTED_EDGE('',*,*,#634,.F.);
#346=ORIENTED_EDGE('',*,*,#635,.F.);
#347=ORIENTED_EDGE('',*,*,#636,.T.);
#348=ORIENTED_EDGE('',*,*,#637,.T.);
#349=ORIENTED_EDGE('',*,*,#585,.F.);
#350=ORIENTED_EDGE('',*,*,#638,.T.);
#351=ORIENTED_EDGE('',*,*,#639,.F.);
#352=ORIENTED_EDGE('',*,*,#640,.T.);
#353=ORIENTED_EDGE('',*,*,#641,.F.);
#354=ORIENTED_EDGE('',*,*,#642,.T.);
#355=ORIENTED_EDGE('',*,*,#643,.T.);
#356=ORIENTED_EDGE('',*,*,#644,.T.);
#357=ORIENTED_EDGE('',*,*,#645,.F.);
#358=ORIENTED_EDGE('',*,*,#646,.T.);
#359=ORIENTED_EDGE('',*,*,#647,.T.);
#360=ORIENTED_EDGE('',*,*,#648,.F.);
#361=ORIENTED_EDGE('',*,*,#590,.T.);
#362=ORIENTED_EDGE('',*,*,#649,.F.);
#363=ORIENTED_EDGE('',*,*,#650,.F.);
#364=ORIENTED_EDGE('',*,*,#651,.F.);
#365=ORIENTED_EDGE('',*,*,#595,.F.);
#366=ORIENTED_EDGE('',*,*,#652,.T.);
#367=ORIENTED_EDGE('',*,*,#653,.F.);
#368=ORIENTED_EDGE('',*,*,#654,.T.);
#369=ORIENTED_EDGE('',*,*,#655,.T.);
#370=ORIENTED_EDGE('',*,*,#656,.F.);
#371=ORIENTED_EDGE('',*,*,#657,.T.);
#372=ORIENTED_EDGE('',*,*,#658,.F.);
#373=ORIENTED_EDGE('',*,*,#659,.T.);
#374=ORIENTED_EDGE('',*,*,#660,.F.);
#375=ORIENTED_EDGE('',*,*,#661,.F.);
#376=ORIENTED_EDGE('',*,*,#662,.F.);
#377=ORIENTED_EDGE('',*,*,#663,.T.);
#378=ORIENTED_EDGE('',*,*,#664,.F.);
#379=ORIENTED_EDGE('',*,*,#665,.T.);
#380=ORIENTED_EDGE('',*,*,#605,.F.);
#381=ORIENTED_EDGE('',*,*,#666,.F.);
#382=ORIENTED_EDGE('',*,*,#653,.T.);
#383=ORIENTED_EDGE('',*,*,#604,.T.);
#384=ORIENTED_EDGE('',*,*,#667,.F.);
#385=ORIENTED_EDGE('',*,*,#654,.F.);
#386=ORIENTED_EDGE('',*,*,#666,.T.);
#387=ORIENTED_EDGE('',*,*,#603,.T.);
#388=ORIENTED_EDGE('',*,*,#668,.T.);
#389=ORIENTED_EDGE('',*,*,#655,.F.);
#390=ORIENTED_EDGE('',*,*,#667,.T.);
#391=ORIENTED_EDGE('',*,*,#575,.F.);
#392=ORIENTED_EDGE('',*,*,#623,.F.);
#393=ORIENTED_EDGE('',*,*,#669,.F.);
#394=ORIENTED_EDGE('',*,*,#639,.T.);
#395=ORIENTED_EDGE('',*,*,#670,.T.);
#396=ORIENTED_EDGE('',*,*,#671,.T.);
#397=ORIENTED_EDGE('',*,*,#622,.T.);
#398=ORIENTED_EDGE('',*,*,#672,.F.);
#399=ORIENTED_EDGE('',*,*,#640,.F.);
#400=ORIENTED_EDGE('',*,*,#669,.T.);
#401=ORIENTED_EDGE('',*,*,#621,.F.);
#402=ORIENTED_EDGE('',*,*,#673,.F.);
#403=ORIENTED_EDGE('',*,*,#641,.T.);
#404=ORIENTED_EDGE('',*,*,#672,.T.);
#405=ORIENTED_EDGE('',*,*,#620,.T.);
#406=ORIENTED_EDGE('',*,*,#674,.F.);
#407=ORIENTED_EDGE('',*,*,#642,.F.);
#408=ORIENTED_EDGE('',*,*,#673,.T.);
#409=ORIENTED_EDGE('',*,*,#619,.T.);
#410=ORIENTED_EDGE('',*,*,#675,.F.);
#411=ORIENTED_EDGE('',*,*,#643,.F.);
#412=ORIENTED_EDGE('',*,*,#674,.T.);
#413=ORIENTED_EDGE('',*,*,#618,.T.);
#414=ORIENTED_EDGE('',*,*,#676,.F.);
#415=ORIENTED_EDGE('',*,*,#644,.F.);
#416=ORIENTED_EDGE('',*,*,#675,.T.);
#417=ORIENTED_EDGE('',*,*,#617,.F.);
#418=ORIENTED_EDGE('',*,*,#677,.F.);
#419=ORIENTED_EDGE('',*,*,#645,.T.);
#420=ORIENTED_EDGE('',*,*,#676,.T.);
#421=ORIENTED_EDGE('',*,*,#616,.T.);
#422=ORIENTED_EDGE('',*,*,#678,.F.);
#423=ORIENTED_EDGE('',*,*,#646,.F.);
#424=ORIENTED_EDGE('',*,*,#677,.T.);
#425=ORIENTED_EDGE('',*,*,#657,.F.);
#426=ORIENTED_EDGE('',*,*,#679,.T.);
#427=ORIENTED_EDGE('',*,*,#680,.T.);
#428=ORIENTED_EDGE('',*,*,#681,.T.);
#429=ORIENTED_EDGE('',*,*,#647,.F.);
#430=ORIENTED_EDGE('',*,*,#678,.T.);
#431=ORIENTED_EDGE('',*,*,#615,.T.);
#432=ORIENTED_EDGE('',*,*,#682,.F.);
#433=ORIENTED_EDGE('',*,*,#614,.F.);
#434=ORIENTED_EDGE('',*,*,#683,.F.);
#435=ORIENTED_EDGE('',*,*,#658,.T.);
#436=ORIENTED_EDGE('',*,*,#682,.T.);
#437=ORIENTED_EDGE('',*,*,#613,.T.);
#438=ORIENTED_EDGE('',*,*,#684,.F.);
#439=ORIENTED_EDGE('',*,*,#659,.F.);
#440=ORIENTED_EDGE('',*,*,#683,.T.);
#441=ORIENTED_EDGE('',*,*,#612,.F.);
#442=ORIENTED_EDGE('',*,*,#685,.F.);
#443=ORIENTED_EDGE('',*,*,#660,.T.);
#444=ORIENTED_EDGE('',*,*,#684,.T.);
#445=ORIENTED_EDGE('',*,*,#611,.F.);
#446=ORIENTED_EDGE('',*,*,#686,.F.);
#447=ORIENTED_EDGE('',*,*,#661,.T.);
#448=ORIENTED_EDGE('',*,*,#685,.T.);
#449=ORIENTED_EDGE('',*,*,#610,.F.);
#450=ORIENTED_EDGE('',*,*,#687,.F.);
#451=ORIENTED_EDGE('',*,*,#662,.T.);
#452=ORIENTED_EDGE('',*,*,#686,.T.);
#453=ORIENTED_EDGE('',*,*,#609,.T.);
#454=ORIENTED_EDGE('',*,*,#688,.F.);
#455=ORIENTED_EDGE('',*,*,#663,.F.);
#456=ORIENTED_EDGE('',*,*,#687,.T.);
#457=ORIENTED_EDGE('',*,*,#650,.T.);
#458=ORIENTED_EDGE('',*,*,#627,.F.);
#459=ORIENTED_EDGE('',*,*,#651,.T.);
#460=ORIENTED_EDGE('',*,*,#626,.F.);
#461=ORIENTED_EDGE('',*,*,#637,.F.);
#462=ORIENTED_EDGE('',*,*,#625,.T.);
#463=ORIENTED_EDGE('',*,*,#636,.F.);
#464=ORIENTED_EDGE('',*,*,#624,.T.);
#465=ORIENTED_EDGE('',*,*,#608,.F.);
#466=ORIENTED_EDGE('',*,*,#596,.F.);
#467=ORIENTED_EDGE('',*,*,#664,.T.);
#468=ORIENTED_EDGE('',*,*,#688,.T.);
#469=ORIENTED_EDGE('',*,*,#599,.F.);
#470=ORIENTED_EDGE('',*,*,#586,.F.);
#471=ORIENTED_EDGE('',*,*,#649,.T.);
#472=ORIENTED_EDGE('',*,*,#589,.T.);
#473=ORIENTED_EDGE('',*,*,#689,.T.);
#474=ORIENTED_EDGE('',*,*,#601,.T.);
#475=ORIENTED_EDGE('',*,*,#690,.F.);
#476=ORIENTED_EDGE('',*,*,#691,.T.);
#477=ORIENTED_EDGE('',*,*,#600,.T.);
#478=ORIENTED_EDGE('',*,*,#587,.F.);
#479=ORIENTED_EDGE('',*,*,#692,.F.);
#480=ORIENTED_EDGE('',*,*,#693,.F.);
#481=ORIENTED_EDGE('',*,*,#690,.T.);
#482=ORIENTED_EDGE('',*,*,#648,.T.);
#483=ORIENTED_EDGE('',*,*,#681,.F.);
#484=ORIENTED_EDGE('',*,*,#694,.T.);
#485=ORIENTED_EDGE('',*,*,#695,.F.);
#486=ORIENTED_EDGE('',*,*,#696,.F.);
#487=ORIENTED_EDGE('',*,*,#692,.T.);
#488=ORIENTED_EDGE('',*,*,#695,.T.);
#489=ORIENTED_EDGE('',*,*,#697,.T.);
#490=ORIENTED_EDGE('',*,*,#698,.F.);
#491=ORIENTED_EDGE('',*,*,#699,.F.);
#492=ORIENTED_EDGE('',*,*,#698,.T.);
#493=ORIENTED_EDGE('',*,*,#700,.T.);
#494=ORIENTED_EDGE('',*,*,#679,.F.);
#495=ORIENTED_EDGE('',*,*,#656,.T.);
#496=ORIENTED_EDGE('',*,*,#701,.F.);
#497=ORIENTED_EDGE('',*,*,#702,.F.);
#498=ORIENTED_EDGE('',*,*,#701,.T.);
#499=ORIENTED_EDGE('',*,*,#668,.F.);
#500=ORIENTED_EDGE('',*,*,#602,.T.);
#501=ORIENTED_EDGE('',*,*,#689,.F.);
#502=ORIENTED_EDGE('',*,*,#703,.T.);
#503=ORIENTED_EDGE('',*,*,#691,.F.);
#504=ORIENTED_EDGE('',*,*,#693,.T.);
#505=ORIENTED_EDGE('',*,*,#696,.T.);
#506=ORIENTED_EDGE('',*,*,#699,.T.);
#507=ORIENTED_EDGE('',*,*,#702,.T.);
#508=ORIENTED_EDGE('',*,*,#703,.F.);
#509=ORIENTED_EDGE('',*,*,#631,.F.);
#510=ORIENTED_EDGE('',*,*,#629,.F.);
#511=ORIENTED_EDGE('',*,*,#704,.T.);
#512=ORIENTED_EDGE('',*,*,#584,.F.);
#513=ORIENTED_EDGE('',*,*,#598,.T.);
#514=ORIENTED_EDGE('',*,*,#705,.F.);
#515=ORIENTED_EDGE('',*,*,#706,.T.);
#516=ORIENTED_EDGE('',*,*,#705,.T.);
#517=ORIENTED_EDGE('',*,*,#607,.F.);
#518=ORIENTED_EDGE('',*,*,#707,.F.);
#519=ORIENTED_EDGE('',*,*,#708,.F.);
#520=ORIENTED_EDGE('',*,*,#606,.T.);
#521=ORIENTED_EDGE('',*,*,#665,.F.);
#522=ORIENTED_EDGE('',*,*,#709,.F.);
#523=ORIENTED_EDGE('',*,*,#710,.F.);
#524=ORIENTED_EDGE('',*,*,#707,.T.);
#525=ORIENTED_EDGE('',*,*,#652,.F.);
#526=ORIENTED_EDGE('',*,*,#594,.F.);
#527=ORIENTED_EDGE('',*,*,#711,.T.);
#528=ORIENTED_EDGE('',*,*,#712,.F.);
#529=ORIENTED_EDGE('',*,*,#713,.T.);
#530=ORIENTED_EDGE('',*,*,#709,.T.);
#531=ORIENTED_EDGE('',*,*,#712,.T.);
#532=ORIENTED_EDGE('',*,*,#714,.T.);
#533=ORIENTED_EDGE('',*,*,#715,.F.);
#534=ORIENTED_EDGE('',*,*,#716,.T.);
#535=ORIENTED_EDGE('',*,*,#638,.F.);
#536=ORIENTED_EDGE('',*,*,#704,.F.);
#537=ORIENTED_EDGE('',*,*,#717,.T.);
#538=ORIENTED_EDGE('',*,*,#715,.T.);
#539=ORIENTED_EDGE('',*,*,#718,.T.);
#540=ORIENTED_EDGE('',*,*,#670,.F.);
#541=ORIENTED_EDGE('',*,*,#706,.F.);
#542=ORIENTED_EDGE('',*,*,#708,.T.);
#543=ORIENTED_EDGE('',*,*,#710,.T.);
#544=ORIENTED_EDGE('',*,*,#713,.F.);
#545=ORIENTED_EDGE('',*,*,#716,.F.);
#546=ORIENTED_EDGE('',*,*,#717,.F.);
#547=ORIENTED_EDGE('',*,*,#635,.T.);
#548=ORIENTED_EDGE('',*,*,#633,.F.);
#549=ORIENTED_EDGE('',*,*,#694,.F.);
#550=ORIENTED_EDGE('',*,*,#680,.F.);
#551=ORIENTED_EDGE('',*,*,#700,.F.);
#552=ORIENTED_EDGE('',*,*,#697,.F.);
#553=ORIENTED_EDGE('',*,*,#591,.F.);
#554=ORIENTED_EDGE('',*,*,#576,.T.);
#555=ORIENTED_EDGE('',*,*,#671,.F.);
#556=ORIENTED_EDGE('',*,*,#718,.F.);
#557=ORIENTED_EDGE('',*,*,#714,.F.);
#558=ORIENTED_EDGE('',*,*,#711,.F.);
#559=ORIENTED_EDGE('',*,*,#593,.F.);
#560=ORIENTED_EDGE('',*,*,#571,.T.);
#561=ORIENTED_EDGE('',*,*,#632,.F.);
#562=ORIENTED_EDGE('',*,*,#573,.T.);
#563=ORIENTED_EDGE('',*,*,#634,.T.);
#564=ORIENTED_EDGE('',*,*,#578,.T.);
#565=ORIENTED_EDGE('',*,*,#628,.F.);
#566=ORIENTED_EDGE('',*,*,#580,.T.);
#567=ORIENTED_EDGE('',*,*,#630,.F.);
#568=ORIENTED_EDGE('',*,*,#582,.T.);
#569=EDGE_CURVE('',#719,#720,#825,.T.);
#570=EDGE_CURVE('',#720,#721,#53,.F.);
#571=EDGE_CURVE('',#722,#721,#51,.T.);
#572=EDGE_CURVE('',#722,#719,#54,.T.);
#573=EDGE_CURVE('',#723,#723,#826,.T.);
#574=EDGE_CURVE('',#724,#725,#827,.T.);
#575=EDGE_CURVE('',#725,#726,#55,.F.);
#576=EDGE_CURVE('',#727,#726,#52,.T.);
#577=EDGE_CURVE('',#727,#724,#56,.T.);
#578=EDGE_CURVE('',#728,#728,#828,.T.);
#579=EDGE_CURVE('',#729,#729,#829,.T.);
#580=EDGE_CURVE('',#730,#730,#830,.T.);
#581=EDGE_CURVE('',#731,#731,#831,.T.);
#582=EDGE_CURVE('',#732,#732,#832,.T.);
#583=EDGE_CURVE('',#733,#734,#57,.T.);
#584=EDGE_CURVE('',#733,#735,#58,.F.);
#585=EDGE_CURVE('',#735,#736,#59,.T.);
#586=EDGE_CURVE('',#736,#734,#60,.T.);
#587=EDGE_CURVE('',#737,#738,#61,.T.);
#588=EDGE_CURVE('',#738,#739,#62,.T.);
#589=EDGE_CURVE('',#740,#739,#63,.T.);
#590=EDGE_CURVE('',#737,#740,#64,.T.);
#591=EDGE_CURVE('',#727,#721,#65,.T.);
#592=EDGE_CURVE('',#724,#720,#66,.T.);
#593=EDGE_CURVE('',#722,#741,#67,.T.);
#594=EDGE_CURVE('',#741,#742,#68,.T.);
#595=EDGE_CURVE('',#742,#743,#69,.T.);
#596=EDGE_CURVE('',#743,#744,#70,.T.);
#597=EDGE_CURVE('',#719,#744,#71,.T.);
#598=EDGE_CURVE('',#733,#745,#833,.T.);
#599=EDGE_CURVE('',#734,#739,#72,.T.);
#600=EDGE_CURVE('',#746,#738,#834,.T.);
#601=EDGE_CURVE('',#747,#746,#73,.T.);
#602=EDGE_CURVE('',#748,#747,#835,.T.);
#603=EDGE_CURVE('',#749,#748,#74,.T.);
#604=EDGE_CURVE('',#750,#749,#75,.T.);
#605=EDGE_CURVE('',#750,#751,#76,.T.);
#606=EDGE_CURVE('',#752,#751,#836,.T.);
#607=EDGE_CURVE('',#752,#745,#77,.T.);
#608=EDGE_CURVE('',#744,#753,#78,.T.);
#609=EDGE_CURVE('',#754,#753,#837,.T.);
#610=EDGE_CURVE('',#754,#755,#79,.T.);
#611=EDGE_CURVE('',#755,#756,#80,.T.);
#612=EDGE_CURVE('',#756,#757,#81,.T.);
#613=EDGE_CURVE('',#758,#757,#838,.T.);
#614=EDGE_CURVE('',#758,#759,#82,.T.);
#615=EDGE_CURVE('',#760,#759,#83,.T.);
#616=EDGE_CURVE('',#761,#760,#84,.T.);
#617=EDGE_CURVE('',#761,#762,#839,.T.);
#618=EDGE_CURVE('',#763,#762,#85,.T.);
#619=EDGE_CURVE('',#764,#763,#86,.T.);
#620=EDGE_CURVE('',#765,#764,#87,.T.);
#621=EDGE_CURVE('',#765,#766,#840,.T.);
#622=EDGE_CURVE('',#767,#766,#88,.T.);
#623=EDGE_CURVE('',#767,#725,#89,.T.);
#624=EDGE_CURVE('',#768,#768,#841,.T.);
#625=EDGE_CURVE('',#769,#769,#842,.T.);
#626=EDGE_CURVE('',#770,#770,#843,.T.);
#627=EDGE_CURVE('',#771,#771,#844,.T.);
#628=EDGE_CURVE('',#772,#772,#845,.T.);
#629=EDGE_CURVE('',#773,#773,#846,.T.);
#630=EDGE_CURVE('',#774,#774,#847,.T.);
#631=EDGE_CURVE('',#775,#775,#848,.T.);
#632=EDGE_CURVE('',#776,#776,#849,.T.);
#633=EDGE_CURVE('',#777,#777,#850,.T.);
#634=EDGE_CURVE('',#778,#778,#851,.F.);
#635=EDGE_CURVE('',#779,#779,#852,.T.);
#636=EDGE_CURVE('',#780,#780,#853,.T.);
#637=EDGE_CURVE('',#781,#781,#854,.T.);
#638=EDGE_CURVE('',#735,#782,#90,.T.);
#639=EDGE_CURVE('',#783,#782,#91,.T.);
#640=EDGE_CURVE('',#783,#784,#92,.T.);
#641=EDGE_CURVE('',#785,#784,#855,.T.);
#642=EDGE_CURVE('',#785,#786,#93,.T.);
#643=EDGE_CURVE('',#786,#787,#94,.T.);
#644=EDGE_CURVE('',#787,#788,#95,.T.);
#645=EDGE_CURVE('',#789,#788,#856,.T.);
#646=EDGE_CURVE('',#789,#790,#96,.T.);
#647=EDGE_CURVE('',#790,#791,#97,.T.);
#648=EDGE_CURVE('',#737,#791,#98,.T.);
#649=EDGE_CURVE('',#736,#740,#99,.T.);
#650=EDGE_CURVE('',#792,#792,#857,.T.);
#651=EDGE_CURVE('',#793,#793,#858,.T.);
#652=EDGE_CURVE('',#742,#794,#100,.T.);
#653=EDGE_CURVE('',#795,#794,#101,.T.);
#654=EDGE_CURVE('',#795,#796,#102,.T.);
#655=EDGE_CURVE('',#796,#797,#103,.T.);
#656=EDGE_CURVE('',#798,#797,#104,.T.);
#657=EDGE_CURVE('',#798,#799,#105,.T.);
#658=EDGE_CURVE('',#800,#799,#106,.T.);
#659=EDGE_CURVE('',#800,#801,#859,.T.);
#660=EDGE_CURVE('',#802,#801,#107,.T.);
#661=EDGE_CURVE('',#803,#802,#108,.T.);
#662=EDGE_CURVE('',#804,#803,#109,.T.);
#663=EDGE_CURVE('',#804,#805,#860,.T.);
#664=EDGE_CURVE('',#743,#805,#110,.T.);
#665=EDGE_CURVE('',#794,#751,#111,.T.);
#666=EDGE_CURVE('',#795,#750,#112,.T.);
#667=EDGE_CURVE('',#796,#749,#113,.T.);
#668=EDGE_CURVE('',#748,#797,#114,.F.);
#669=EDGE_CURVE('',#783,#767,#115,.T.);
#670=EDGE_CURVE('',#782,#806,#116,.T.);
#671=EDGE_CURVE('',#806,#726,#117,.T.);
#672=EDGE_CURVE('',#784,#766,#118,.T.);
#673=EDGE_CURVE('',#785,#765,#119,.T.);
#674=EDGE_CURVE('',#786,#764,#120,.T.);
#675=EDGE_CURVE('',#787,#763,#121,.T.);
#676=EDGE_CURVE('',#788,#762,#122,.T.);
#677=EDGE_CURVE('',#789,#761,#123,.T.);
#678=EDGE_CURVE('',#790,#760,#124,.T.);
#679=EDGE_CURVE('',#798,#807,#125,.T.);
#680=EDGE_CURVE('',#807,#808,#126,.T.);
#681=EDGE_CURVE('',#808,#791,#127,.T.);
#682=EDGE_CURVE('',#799,#759,#128,.T.);
#683=EDGE_CURVE('',#800,#758,#129,.T.);
#684=EDGE_CURVE('',#801,#757,#130,.T.);
#685=EDGE_CURVE('',#802,#756,#131,.T.);
#686=EDGE_CURVE('',#803,#755,#132,.T.);
#687=EDGE_CURVE('',#804,#754,#133,.T.);
#688=EDGE_CURVE('',#805,#753,#134,.T.);
#689=EDGE_CURVE('',#809,#747,#135,.T.);
#690=EDGE_CURVE('',#810,#746,#136,.T.);
#691=EDGE_CURVE('',#810,#809,#137,.T.);
#692=EDGE_CURVE('',#811,#737,#138,.T.);
#693=EDGE_CURVE('',#810,#811,#861,.T.);
#694=EDGE_CURVE('',#808,#812,#139,.F.);
#695=EDGE_CURVE('',#813,#812,#140,.T.);
#696=EDGE_CURVE('',#811,#813,#141,.T.);
#697=EDGE_CURVE('',#812,#814,#142,.F.);
#698=EDGE_CURVE('',#815,#814,#143,.T.);
#699=EDGE_CURVE('',#813,#815,#144,.T.);
#700=EDGE_CURVE('',#814,#807,#145,.F.);
#701=EDGE_CURVE('',#816,#797,#146,.T.);
#702=EDGE_CURVE('',#815,#816,#147,.T.);
#703=EDGE_CURVE('',#809,#816,#862,.T.);
#704=EDGE_CURVE('',#817,#735,#148,.T.);
#705=EDGE_CURVE('',#818,#745,#149,.T.);
#706=EDGE_CURVE('',#818,#817,#863,.T.);
#707=EDGE_CURVE('',#819,#752,#150,.T.);
#708=EDGE_CURVE('',#818,#819,#151,.T.);
#709=EDGE_CURVE('',#820,#794,#152,.T.);
#710=EDGE_CURVE('',#819,#820,#864,.T.);
#711=EDGE_CURVE('',#741,#821,#153,.T.);
#712=EDGE_CURVE('',#822,#821,#154,.T.);
#713=EDGE_CURVE('',#822,#820,#155,.T.);
#714=EDGE_CURVE('',#821,#823,#156,.T.);
#715=EDGE_CURVE('',#824,#823,#157,.T.);
#716=EDGE_CURVE('',#824,#822,#158,.T.);
#717=EDGE_CURVE('',#817,#824,#159,.T.);
#718=EDGE_CURVE('',#823,#806,#160,.T.);
#719=VERTEX_POINT('',#1553);
#720=VERTEX_POINT('',#1554);
#721=VERTEX_POINT('',#1556);
#722=VERTEX_POINT('',#1558);
#723=VERTEX_POINT('',#1561);
#724=VERTEX_POINT('',#1564);
#725=VERTEX_POINT('',#1565);
#726=VERTEX_POINT('',#1567);
#727=VERTEX_POINT('',#1569);
#728=VERTEX_POINT('',#1572);
#729=VERTEX_POINT('',#1575);
#730=VERTEX_POINT('',#1577);
#731=VERTEX_POINT('',#1580);
#732=VERTEX_POINT('',#1582);
#733=VERTEX_POINT('',#1585);
#734=VERTEX_POINT('',#1586);
#735=VERTEX_POINT('',#1588);
#736=VERTEX_POINT('',#1590);
#737=VERTEX_POINT('',#1594);
#738=VERTEX_POINT('',#1595);
#739=VERTEX_POINT('',#1597);
#740=VERTEX_POINT('',#1599);
#741=VERTEX_POINT('',#1606);
#742=VERTEX_POINT('',#1608);
#743=VERTEX_POINT('',#1610);
#744=VERTEX_POINT('',#1612);
#745=VERTEX_POINT('',#1616);
#746=VERTEX_POINT('',#1619);
#747=VERTEX_POINT('',#1621);
#748=VERTEX_POINT('',#1623);
#749=VERTEX_POINT('',#1625);
#750=VERTEX_POINT('',#1627);
#751=VERTEX_POINT('',#1629);
#752=VERTEX_POINT('',#1631);
#753=VERTEX_POINT('',#1634);
#754=VERTEX_POINT('',#1636);
#755=VERTEX_POINT('',#1638);
#756=VERTEX_POINT('',#1640);
#757=VERTEX_POINT('',#1642);
#758=VERTEX_POINT('',#1644);
#759=VERTEX_POINT('',#1646);
#760=VERTEX_POINT('',#1648);
#761=VERTEX_POINT('',#1650);
#762=VERTEX_POINT('',#1652);
#763=VERTEX_POINT('',#1654);
#764=VERTEX_POINT('',#1656);
#765=VERTEX_POINT('',#1658);
#766=VERTEX_POINT('',#1660);
#767=VERTEX_POINT('',#1662);
#768=VERTEX_POINT('',#1665);
#769=VERTEX_POINT('',#1667);
#770=VERTEX_POINT('',#1669);
#771=VERTEX_POINT('',#1671);
#772=VERTEX_POINT('',#1674);
#773=VERTEX_POINT('',#1676);
#774=VERTEX_POINT('',#1679);
#775=VERTEX_POINT('',#1681);
#776=VERTEX_POINT('',#1684);
#777=VERTEX_POINT('',#1686);
#778=VERTEX_POINT('',#1689);
#779=VERTEX_POINT('',#1691);
#780=VERTEX_POINT('',#1694);
#781=VERTEX_POINT('',#1696);
#782=VERTEX_POINT('',#1698);
#783=VERTEX_POINT('',#1700);
#784=VERTEX_POINT('',#1702);
#785=VERTEX_POINT('',#1704);
#786=VERTEX_POINT('',#1706);
#787=VERTEX_POINT('',#1708);
#788=VERTEX_POINT('',#1710);
#789=VERTEX_POINT('',#1712);
#790=VERTEX_POINT('',#1714);
#791=VERTEX_POINT('',#1716);
#792=VERTEX_POINT('',#1721);
#793=VERTEX_POINT('',#1723);
#794=VERTEX_POINT('',#1725);
#795=VERTEX_POINT('',#1727);
#796=VERTEX_POINT('',#1729);
#797=VERTEX_POINT('',#1731);
#798=VERTEX_POINT('',#1733);
#799=VERTEX_POINT('',#1735);
#800=VERTEX_POINT('',#1737);
#801=VERTEX_POINT('',#1739);
#802=VERTEX_POINT('',#1741);
#803=VERTEX_POINT('',#1743);
#804=VERTEX_POINT('',#1745);
#805=VERTEX_POINT('',#1747);
#806=VERTEX_POINT('',#1759);
#807=VERTEX_POINT('',#1777);
#808=VERTEX_POINT('',#1779);
#809=VERTEX_POINT('',#1802);
#810=VERTEX_POINT('',#1804);
#811=VERTEX_POINT('',#1808);
#812=VERTEX_POINT('',#1812);
#813=VERTEX_POINT('',#1814);
#814=VERTEX_POINT('',#1818);
#815=VERTEX_POINT('',#1820);
#816=VERTEX_POINT('',#1825);
#817=VERTEX_POINT('',#1832);
#818=VERTEX_POINT('',#1834);
#819=VERTEX_POINT('',#1838);
#820=VERTEX_POINT('',#1842);
#821=VERTEX_POINT('',#1846);
#822=VERTEX_POINT('',#1848);
#823=VERTEX_POINT('',#1852);
#824=VERTEX_POINT('',#1854);
#825=CIRCLE('',#1138,0.003);
#826=CIRCLE('',#1140,0.003);
#827=CIRCLE('',#1142,0.003);
#828=CIRCLE('',#1144,0.003);
#829=CIRCLE('',#1146,0.003);
#830=CIRCLE('',#1147,0.003);
#831=CIRCLE('',#1149,0.003);
#832=CIRCLE('',#1150,0.003);
#833=CIRCLE('',#1156,0.00799999999999974);
#834=CIRCLE('',#1157,0.00799999999999821);
#835=CIRCLE('',#1158,0.00799999999999985);
#836=CIRCLE('',#1159,0.00800000000000149);
#837=CIRCLE('',#1160,0.00299999999999987);
#838=CIRCLE('',#1161,0.003);
#839=CIRCLE('',#1162,0.003);
#840=CIRCLE('',#1163,0.00299999999999994);
#841=CIRCLE('',#1164,0.00140000000000002);
#842=CIRCLE('',#1165,0.00140000000000002);
#843=CIRCLE('',#1166,0.0014);
#844=CIRCLE('',#1167,0.0014);
#845=CIRCLE('',#1169,0.0016);
#846=CIRCLE('',#1170,0.0016);
#847=CIRCLE('',#1172,0.0016);
#848=CIRCLE('',#1173,0.0016);
#849=CIRCLE('',#1175,0.00159999999999997);
#850=CIRCLE('',#1176,0.00159999999999997);
#851=CIRCLE('',#1178,0.0016);
#852=CIRCLE('',#1179,0.0016);
#853=CIRCLE('',#1181,0.00140000000000002);
#854=CIRCLE('',#1182,0.00140000000000002);
#855=CIRCLE('',#1183,0.00299999999999994);
#856=CIRCLE('',#1184,0.003);
#857=CIRCLE('',#1186,0.0014);
#858=CIRCLE('',#1187,0.0014);
#859=CIRCLE('',#1188,0.003);
#860=CIRCLE('',#1189,0.00299999999999987);
#861=CIRCLE('',#1216,0.008);
#862=CIRCLE('',#1221,0.00799999999999975);
#863=CIRCLE('',#1224,0.00799999999999968);
#864=CIRCLE('',#1227,0.00799999999999961);
#865=EDGE_LOOP('',(#269,#270,#271,#272));
#866=EDGE_LOOP('',(#273));
#867=EDGE_LOOP('',(#274,#275,#276,#277));
#868=EDGE_LOOP('',(#278));
#869=EDGE_LOOP('',(#279));
#870=EDGE_LOOP('',(#280));
#871=EDGE_LOOP('',(#281));
#872=EDGE_LOOP('',(#282));
#873=EDGE_LOOP('',(#283,#284,#285,#286));
#874=EDGE_LOOP('',(#287,#288,#289,#290));
#875=EDGE_LOOP('',(#291,#292,#293,#294));
#876=EDGE_LOOP('',(#295,#296,#297,#298,#299,#300));
#877=EDGE_LOOP('',(#301,#302,#303,#304,#305,#306,#307,#308,#309,#310,#311,
#312));
#878=EDGE_LOOP('',(#313,#314,#315,#316,#317,#318,#319,#320,#321,#322,#323,
#324,#325,#326,#327,#328,#329,#330,#331,#332));
#879=EDGE_LOOP('',(#333));
#880=EDGE_LOOP('',(#334));
#881=EDGE_LOOP('',(#335));
#882=EDGE_LOOP('',(#336));
#883=EDGE_LOOP('',(#337));
#884=EDGE_LOOP('',(#338));
#885=EDGE_LOOP('',(#339));
#886=EDGE_LOOP('',(#340));
#887=EDGE_LOOP('',(#341));
#888=EDGE_LOOP('',(#342));
#889=EDGE_LOOP('',(#343));
#890=EDGE_LOOP('',(#344));
#891=EDGE_LOOP('',(#345));
#892=EDGE_LOOP('',(#346));
#893=EDGE_LOOP('',(#347));
#894=EDGE_LOOP('',(#348));
#895=EDGE_LOOP('',(#349,#350,#351,#352,#353,#354,#355,#356,#357,#358,#359,
#360,#361,#362));
#896=EDGE_LOOP('',(#363));
#897=EDGE_LOOP('',(#364));
#898=EDGE_LOOP('',(#365,#366,#367,#368,#369,#370,#371,#372,#373,#374,#375,
#376,#377,#378));
#899=EDGE_LOOP('',(#379,#380,#381,#382));
#900=EDGE_LOOP('',(#383,#384,#385,#386));
#901=EDGE_LOOP('',(#387,#388,#389,#390));
#902=EDGE_LOOP('',(#391,#392,#393,#394,#395,#396));
#903=EDGE_LOOP('',(#397,#398,#399,#400));
#904=EDGE_LOOP('',(#401,#402,#403,#404));
#905=EDGE_LOOP('',(#405,#406,#407,#408));
#906=EDGE_LOOP('',(#409,#410,#411,#412));
#907=EDGE_LOOP('',(#413,#414,#415,#416));
#908=EDGE_LOOP('',(#417,#418,#419,#420));
#909=EDGE_LOOP('',(#421,#422,#423,#424));
#910=EDGE_LOOP('',(#425,#426,#427,#428,#429,#430,#431,#432));
#911=EDGE_LOOP('',(#433,#434,#435,#436));
#912=EDGE_LOOP('',(#437,#438,#439,#440));
#913=EDGE_LOOP('',(#441,#442,#443,#444));
#914=EDGE_LOOP('',(#445,#446,#447,#448));
#915=EDGE_LOOP('',(#449,#450,#451,#452));
#916=EDGE_LOOP('',(#453,#454,#455,#456));
#917=EDGE_LOOP('',(#457));
#918=EDGE_LOOP('',(#458));
#919=EDGE_LOOP('',(#459));
#920=EDGE_LOOP('',(#460));
#921=EDGE_LOOP('',(#461));
#922=EDGE_LOOP('',(#462));
#923=EDGE_LOOP('',(#463));
#924=EDGE_LOOP('',(#464));
#925=EDGE_LOOP('',(#465,#466,#467,#468));
#926=EDGE_LOOP('',(#469,#470,#471,#472));
#927=EDGE_LOOP('',(#473,#474,#475,#476));
#928=EDGE_LOOP('',(#477,#478,#479,#480,#481));
#929=EDGE_LOOP('',(#482,#483,#484,#485,#486,#487));
#930=EDGE_LOOP('',(#488,#489,#490,#491));
#931=EDGE_LOOP('',(#492,#493,#494,#495,#496,#497));
#932=EDGE_LOOP('',(#498,#499,#500,#501,#502));
#933=EDGE_LOOP('',(#503,#504,#505,#506,#507,#508));
#934=EDGE_LOOP('',(#509));
#935=EDGE_LOOP('',(#510));
#936=EDGE_LOOP('',(#511,#512,#513,#514,#515));
#937=EDGE_LOOP('',(#516,#517,#518,#519));
#938=EDGE_LOOP('',(#520,#521,#522,#523,#524));
#939=EDGE_LOOP('',(#525,#526,#527,#528,#529,#530));
#940=EDGE_LOOP('',(#531,#532,#533,#534));
#941=EDGE_LOOP('',(#535,#536,#537,#538,#539,#540));
#942=EDGE_LOOP('',(#541,#542,#543,#544,#545,#546));
#943=EDGE_LOOP('',(#547));
#944=EDGE_LOOP('',(#548));
#945=EDGE_LOOP('',(#549,#550,#551,#552));
#946=EDGE_LOOP('',(#553,#554,#555,#556,#557,#558,#559,#560));
#947=EDGE_LOOP('',(#561));
#948=EDGE_LOOP('',(#562));
#949=EDGE_LOOP('',(#563));
#950=EDGE_LOOP('',(#564));
#951=EDGE_LOOP('',(#565));
#952=EDGE_LOOP('',(#566));
#953=EDGE_LOOP('',(#567));
#954=EDGE_LOOP('',(#568));
#955=FACE_BOUND('',#865,.T.);
#956=FACE_BOUND('',#866,.T.);
#957=FACE_BOUND('',#867,.T.);
#958=FACE_BOUND('',#868,.T.);
#959=FACE_BOUND('',#869,.T.);
#960=FACE_BOUND('',#870,.T.);
#961=FACE_BOUND('',#871,.T.);
#962=FACE_BOUND('',#872,.T.);
#963=FACE_BOUND('',#873,.T.);
#964=FACE_BOUND('',#874,.T.);
#965=FACE_BOUND('',#875,.T.);
#966=FACE_BOUND('',#876,.T.);
#967=FACE_BOUND('',#877,.T.);
#968=FACE_BOUND('',#878,.T.);
#969=FACE_BOUND('',#879,.T.);
#970=FACE_BOUND('',#880,.T.);
#971=FACE_BOUND('',#881,.T.);
#972=FACE_BOUND('',#882,.T.);
#973=FACE_BOUND('',#883,.T.);
#974=FACE_BOUND('',#884,.T.);
#975=FACE_BOUND('',#885,.T.);
#976=FACE_BOUND('',#886,.T.);
#977=FACE_BOUND('',#887,.T.);
#978=FACE_BOUND('',#888,.T.);
#979=FACE_BOUND('',#889,.T.);
#980=FACE_BOUND('',#890,.T.);
#981=FACE_BOUND('',#891,.T.);
#982=FACE_BOUND('',#892,.T.);
#983=FACE_BOUND('',#893,.T.);
#984=FACE_BOUND('',#894,.T.);
#985=FACE_BOUND('',#895,.T.);
#986=FACE_BOUND('',#896,.T.);
#987=FACE_BOUND('',#897,.T.);
#988=FACE_BOUND('',#898,.T.);
#989=FACE_BOUND('',#899,.T.);
#990=FACE_BOUND('',#900,.T.);
#991=FACE_BOUND('',#901,.T.);
#992=FACE_BOUND('',#902,.T.);
#993=FACE_BOUND('',#903,.T.);
#994=FACE_BOUND('',#904,.T.);
#995=FACE_BOUND('',#905,.T.);
#996=FACE_BOUND('',#906,.T.);
#997=FACE_BOUND('',#907,.T.);
#998=FACE_BOUND('',#908,.T.);
#999=FACE_BOUND('',#909,.T.);
#1000=FACE_BOUND('',#910,.T.);
#1001=FACE_BOUND('',#911,.T.);
#1002=FACE_BOUND('',#912,.T.);
#1003=FACE_BOUND('',#913,.T.);
#1004=FACE_BOUND('',#914,.T.);
#1005=FACE_BOUND('',#915,.T.);
#1006=FACE_BOUND('',#916,.T.);
#1007=FACE_BOUND('',#917,.T.);
#1008=FACE_BOUND('',#918,.T.);
#1009=FACE_BOUND('',#919,.T.);
#1010=FACE_BOUND('',#920,.T.);
#1011=FACE_BOUND('',#921,.T.);
#1012=FACE_BOUND('',#922,.T.);
#1013=FACE_BOUND('',#923,.T.);
#1014=FACE_BOUND('',#924,.T.);
#1015=FACE_BOUND('',#925,.T.);
#1016=FACE_BOUND('',#926,.T.);
#1017=FACE_BOUND('',#927,.T.);
#1018=FACE_BOUND('',#928,.T.);
#1019=FACE_BOUND('',#929,.T.);
#1020=FACE_BOUND('',#930,.T.);
#1021=FACE_BOUND('',#931,.T.);
#1022=FACE_BOUND('',#932,.T.);
#1023=FACE_BOUND('',#933,.T.);
#1024=FACE_BOUND('',#934,.T.);
#1025=FACE_BOUND('',#935,.T.);
#1026=FACE_BOUND('',#936,.T.);
#1027=FACE_BOUND('',#937,.T.);
#1028=FACE_BOUND('',#938,.T.);
#1029=FACE_BOUND('',#939,.T.);
#1030=FACE_BOUND('',#940,.T.);
#1031=FACE_BOUND('',#941,.T.);
#1032=FACE_BOUND('',#942,.T.);
#1033=FACE_BOUND('',#943,.T.);
#1034=FACE_BOUND('',#944,.T.);
#1035=FACE_BOUND('',#945,.T.);
#1036=FACE_BOUND('',#946,.T.);
#1037=FACE_BOUND('',#947,.T.);
#1038=FACE_BOUND('',#948,.T.);
#1039=FACE_BOUND('',#949,.T.);
#1040=FACE_BOUND('',#950,.T.);
#1041=FACE_BOUND('',#951,.T.);
#1042=FACE_BOUND('',#952,.T.);
#1043=FACE_BOUND('',#953,.T.);
#1044=FACE_BOUND('',#954,.T.);
#1045=CYLINDRICAL_SURFACE('',#1137,0.003);
#1046=CYLINDRICAL_SURFACE('',#1141,0.003);
#1047=CYLINDRICAL_SURFACE('',#1145,0.003);
#1048=CYLINDRICAL_SURFACE('',#1148,0.003);
#1049=CYLINDRICAL_SURFACE('',#1168,0.0016);
#1050=CYLINDRICAL_SURFACE('',#1171,0.0016);
#1051=CYLINDRICAL_SURFACE('',#1174,0.00159999999999997);
#1052=CYLINDRICAL_SURFACE('',#1177,0.0016);
#1053=CYLINDRICAL_SURFACE('',#1195,0.00299999999999994);
#1054=CYLINDRICAL_SURFACE('',#1199,0.003);
#1055=CYLINDRICAL_SURFACE('',#1203,0.003);
#1056=CYLINDRICAL_SURFACE('',#1207,0.00299999999999987);
#1057=CYLINDRICAL_SURFACE('',#1208,0.0014);
#1058=CYLINDRICAL_SURFACE('',#1209,0.0014);
#1059=CYLINDRICAL_SURFACE('',#1210,0.00140000000000002);
#1060=CYLINDRICAL_SURFACE('',#1211,0.00140000000000002);
#1061=CYLINDRICAL_SURFACE('',#1215,0.008);
#1062=CYLINDRICAL_SURFACE('',#1220,0.00799999999999975);
#1063=CYLINDRICAL_SURFACE('',#1223,0.00799999999999968);
#1064=CYLINDRICAL_SURFACE('',#1226,0.00799999999999961);
#1065=ADVANCED_FACE('',(#955,#956),#1045,.F.);
#1066=ADVANCED_FACE('',(#957,#958),#1046,.F.);
#1067=ADVANCED_FACE('',(#959,#960),#1047,.F.);
#1068=ADVANCED_FACE('',(#961,#962),#1048,.F.);
#1069=ADVANCED_FACE('',(#963),#12,.T.);
#1070=ADVANCED_FACE('',(#964),#13,.F.);
#1071=ADVANCED_FACE('',(#965),#14,.T.);
#1072=ADVANCED_FACE('',(#966),#15,.T.);
#1073=ADVANCED_FACE('',(#967,#968,#969,#970,#971,#972,#973,#974),#16,.F.);
#1074=ADVANCED_FACE('',(#975,#976),#1049,.F.);
#1075=ADVANCED_FACE('',(#977,#978),#1050,.F.);
#1076=ADVANCED_FACE('',(#979,#980),#1051,.F.);
#1077=ADVANCED_FACE('',(#981,#982),#1052,.F.);
#1078=ADVANCED_FACE('',(#983,#984,#985),#17,.T.);
#1079=ADVANCED_FACE('',(#986,#987,#988),#18,.T.);
#1080=ADVANCED_FACE('',(#989),#19,.T.);
#1081=ADVANCED_FACE('',(#990),#20,.F.);
#1082=ADVANCED_FACE('',(#991),#21,.F.);
#1083=ADVANCED_FACE('',(#992),#22,.T.);
#1084=ADVANCED_FACE('',(#993),#23,.F.);
#1085=ADVANCED_FACE('',(#994),#1053,.T.);
#1086=ADVANCED_FACE('',(#995),#24,.F.);
#1087=ADVANCED_FACE('',(#996),#25,.F.);
#1088=ADVANCED_FACE('',(#997),#26,.F.);
#1089=ADVANCED_FACE('',(#998),#1054,.T.);
#1090=ADVANCED_FACE('',(#999),#27,.F.);
#1091=ADVANCED_FACE('',(#1000),#28,.F.);
#1092=ADVANCED_FACE('',(#1001),#29,.T.);
#1093=ADVANCED_FACE('',(#1002),#1055,.T.);
#1094=ADVANCED_FACE('',(#1003),#30,.T.);
#1095=ADVANCED_FACE('',(#1004),#31,.T.);
#1096=ADVANCED_FACE('',(#1005),#32,.T.);
#1097=ADVANCED_FACE('',(#1006),#1056,.T.);
#1098=ADVANCED_FACE('',(#1007,#1008),#1057,.F.);
#1099=ADVANCED_FACE('',(#1009,#1010),#1058,.F.);
#1100=ADVANCED_FACE('',(#1011,#1012),#1059,.F.);
#1101=ADVANCED_FACE('',(#1013,#1014),#1060,.F.);
#1102=ADVANCED_FACE('',(#1015),#33,.T.);
#1103=ADVANCED_FACE('',(#1016),#34,.T.);
#1104=ADVANCED_FACE('',(#1017),#35,.T.);
#1105=ADVANCED_FACE('',(#1018),#1061,.T.);
#1106=ADVANCED_FACE('',(#1019),#36,.F.);
#1107=ADVANCED_FACE('',(#1020),#37,.F.);
#1108=ADVANCED_FACE('',(#1021),#38,.F.);
#1109=ADVANCED_FACE('',(#1022),#1062,.T.);
#1110=ADVANCED_FACE('',(#1023,#1024,#1025),#39,.T.);
#1111=ADVANCED_FACE('',(#1026),#1063,.T.);
#1112=ADVANCED_FACE('',(#1027),#40,.F.);
#1113=ADVANCED_FACE('',(#1028),#1064,.T.);
#1114=ADVANCED_FACE('',(#1029),#41,.T.);
#1115=ADVANCED_FACE('',(#1030),#42,.T.);
#1116=ADVANCED_FACE('',(#1031),#43,.T.);
#1117=ADVANCED_FACE('',(#1032,#1033,#1034),#44,.T.);
#1118=ADVANCED_FACE('',(#1035),#45,.T.);
#1119=ADVANCED_FACE('',(#1036),#46,.F.);
#1120=ADVANCED_FACE('',(#1037,#1038),#47,.T.);
#1121=ADVANCED_FACE('',(#1039,#1040),#48,.T.);
#1122=ADVANCED_FACE('',(#1041,#1042),#49,.T.);
#1123=ADVANCED_FACE('',(#1043,#1044),#50,.T.);
#1124=CLOSED_SHELL('',(#1065,#1066,#1067,#1068,#1069,#1070,#1071,#1072,
#1073,#1074,#1075,#1076,#1077,#1078,#1079,#1080,#1081,#1082,#1083,#1084,
#1085,#1086,#1087,#1088,#1089,#1090,#1091,#1092,#1093,#1094,#1095,#1096,
#1097,#1098,#1099,#1100,#1101,#1102,#1103,#1104,#1105,#1106,#1107,#1108,
#1109,#1110,#1111,#1112,#1113,#1114,#1115,#1116,#1117,#1118,#1119,#1120,
#1121,#1122,#1123));
#1125=STYLED_ITEM('',(#1126),#1133);
#1126=PRESENTATION_STYLE_ASSIGNMENT((#1127));
#1127=SURFACE_STYLE_USAGE(.BOTH.,#1128);
#1128=SURFACE_SIDE_STYLE('',(#1129));
#1129=SURFACE_STYLE_FILL_AREA(#1130);
#1130=FILL_AREA_STYLE('',(#1131));
#1131=FILL_AREA_STYLE_COLOUR('',#1132);
#1132=COLOUR_RGB('',0.372549019607843,0.654901960784314,0.23921568627451);
#1133=MANIFOLD_SOLID_BREP('Part 1',#1124);
#1134=SHAPE_DEFINITION_REPRESENTATION(#1872,#1135);
#1135=SHAPE_REPRESENTATION('Part 1',(#1136),#1867);
#1136=AXIS2_PLACEMENT_3D('',#1550,#1238,#1239);
#1137=AXIS2_PLACEMENT_3D('',#1551,#1240,#1241);
#1138=AXIS2_PLACEMENT_3D('',#1552,#1242,#1243);
#1139=AXIS2_PLACEMENT_3D('',#1557,#1245,#1246);
#1140=AXIS2_PLACEMENT_3D('',#1560,#1248,#1249);
#1141=AXIS2_PLACEMENT_3D('',#1562,#1250,#1251);
#1142=AXIS2_PLACEMENT_3D('',#1563,#1252,#1253);
#1143=AXIS2_PLACEMENT_3D('',#1568,#1255,#1256);
#1144=AXIS2_PLACEMENT_3D('',#1571,#1258,#1259);
#1145=AXIS2_PLACEMENT_3D('',#1573,#1260,#1261);
#1146=AXIS2_PLACEMENT_3D('',#1574,#1262,#1263);
#1147=AXIS2_PLACEMENT_3D('',#1576,#1264,#1265);
#1148=AXIS2_PLACEMENT_3D('',#1578,#1266,#1267);
#1149=AXIS2_PLACEMENT_3D('',#1579,#1268,#1269);
#1150=AXIS2_PLACEMENT_3D('',#1581,#1270,#1271);
#1151=AXIS2_PLACEMENT_3D('',#1583,#1272,#1273);
#1152=AXIS2_PLACEMENT_3D('',#1592,#1278,#1279);
#1153=AXIS2_PLACEMENT_3D('',#1601,#1284,#1285);
#1154=AXIS2_PLACEMENT_3D('',#1604,#1288,#1289);
#1155=AXIS2_PLACEMENT_3D('',#1614,#1295,#1296);
#1156=AXIS2_PLACEMENT_3D('',#1615,#1297,#1298);
#1157=AXIS2_PLACEMENT_3D('',#1618,#1300,#1301);
#1158=AXIS2_PLACEMENT_3D('',#1622,#1303,#1304);
#1159=AXIS2_PLACEMENT_3D('',#1630,#1308,#1309);
#1160=AXIS2_PLACEMENT_3D('',#1635,#1312,#1313);
#1161=AXIS2_PLACEMENT_3D('',#1643,#1317,#1318);
#1162=AXIS2_PLACEMENT_3D('',#1651,#1322,#1323);
#1163=AXIS2_PLACEMENT_3D('',#1659,#1327,#1328);
#1164=AXIS2_PLACEMENT_3D('',#1664,#1331,#1332);
#1165=AXIS2_PLACEMENT_3D('',#1666,#1333,#1334);
#1166=AXIS2_PLACEMENT_3D('',#1668,#1335,#1336);
#1167=AXIS2_PLACEMENT_3D('',#1670,#1337,#1338);
#1168=AXIS2_PLACEMENT_3D('',#1672,#1339,#1340);
#1169=AXIS2_PLACEMENT_3D('',#1673,#1341,#1342);
#1170=AXIS2_PLACEMENT_3D('',#1675,#1343,#1344);
#1171=AXIS2_PLACEMENT_3D('',#1677,#1345,#1346);
#1172=AXIS2_PLACEMENT_3D('',#1678,#1347,#1348);
#1173=AXIS2_PLACEMENT_3D('',#1680,#1349,#1350);
#1174=AXIS2_PLACEMENT_3D('',#1682,#1351,#1352);
#1175=AXIS2_PLACEMENT_3D('',#1683,#1353,#1354);
#1176=AXIS2_PLACEMENT_3D('',#1685,#1355,#1356);
#1177=AXIS2_PLACEMENT_3D('',#1687,#1357,#1358);
#1178=AXIS2_PLACEMENT_3D('',#1688,#1359,#1360);
#1179=AXIS2_PLACEMENT_3D('',#1690,#1361,#1362);
#1180=AXIS2_PLACEMENT_3D('',#1692,#1363,#1364);
#1181=AXIS2_PLACEMENT_3D('',#1693,#1365,#1366);
#1182=AXIS2_PLACEMENT_3D('',#1695,#1367,#1368);
#1183=AXIS2_PLACEMENT_3D('',#1703,#1372,#1373);
#1184=AXIS2_PLACEMENT_3D('',#1711,#1377,#1378);
#1185=AXIS2_PLACEMENT_3D('',#1719,#1383,#1384);
#1186=AXIS2_PLACEMENT_3D('',#1720,#1385,#1386);
#1187=AXIS2_PLACEMENT_3D('',#1722,#1387,#1388);
#1188=AXIS2_PLACEMENT_3D('',#1738,#1396,#1397);
#1189=AXIS2_PLACEMENT_3D('',#1746,#1401,#1402);
#1190=AXIS2_PLACEMENT_3D('',#1749,#1404,#1405);
#1191=AXIS2_PLACEMENT_3D('',#1752,#1408,#1409);
#1192=AXIS2_PLACEMENT_3D('',#1754,#1411,#1412);
#1193=AXIS2_PLACEMENT_3D('',#1756,#1414,#1415);
#1194=AXIS2_PLACEMENT_3D('',#1761,#1419,#1420);
#1195=AXIS2_PLACEMENT_3D('',#1763,#1422,#1423);
#1196=AXIS2_PLACEMENT_3D('',#1765,#1425,#1426);
#1197=AXIS2_PLACEMENT_3D('',#1767,#1428,#1429);
#1198=AXIS2_PLACEMENT_3D('',#1769,#1431,#1432);
#1199=AXIS2_PLACEMENT_3D('',#1771,#1434,#1435);
#1200=AXIS2_PLACEMENT_3D('',#1773,#1437,#1438);
#1201=AXIS2_PLACEMENT_3D('',#1775,#1440,#1441);
#1202=AXIS2_PLACEMENT_3D('',#1782,#1446,#1447);
#1203=AXIS2_PLACEMENT_3D('',#1784,#1449,#1450);
#1204=AXIS2_PLACEMENT_3D('',#1786,#1452,#1453);
#1205=AXIS2_PLACEMENT_3D('',#1788,#1455,#1456);
#1206=AXIS2_PLACEMENT_3D('',#1790,#1458,#1459);
#1207=AXIS2_PLACEMENT_3D('',#1792,#1461,#1462);
#1208=AXIS2_PLACEMENT_3D('',#1794,#1464,#1465);
#1209=AXIS2_PLACEMENT_3D('',#1795,#1466,#1467);
#1210=AXIS2_PLACEMENT_3D('',#1796,#1468,#1469);
#1211=AXIS2_PLACEMENT_3D('',#1797,#1470,#1471);
#1212=AXIS2_PLACEMENT_3D('',#1798,#1472,#1473);
#1213=AXIS2_PLACEMENT_3D('',#1799,#1474,#1475);
#1214=AXIS2_PLACEMENT_3D('',#1800,#1476,#1477);
#1215=AXIS2_PLACEMENT_3D('',#1806,#1481,#1482);
#1216=AXIS2_PLACEMENT_3D('',#1809,#1484,#1485);
#1217=AXIS2_PLACEMENT_3D('',#1810,#1486,#1487);
#1218=AXIS2_PLACEMENT_3D('',#1816,#1491,#1492);
#1219=AXIS2_PLACEMENT_3D('',#1822,#1496,#1497);
#1220=AXIS2_PLACEMENT_3D('',#1827,#1501,#1502);
#1221=AXIS2_PLACEMENT_3D('',#1828,#1503,#1504);
#1222=AXIS2_PLACEMENT_3D('',#1829,#1505,#1506);
#1223=AXIS2_PLACEMENT_3D('',#1830,#1507,#1508);
#1224=AXIS2_PLACEMENT_3D('',#1835,#1511,#1512);
#1225=AXIS2_PLACEMENT_3D('',#1836,#1513,#1514);
#1226=AXIS2_PLACEMENT_3D('',#1840,#1517,#1518);
#1227=AXIS2_PLACEMENT_3D('',#1843,#1520,#1521);
#1228=AXIS2_PLACEMENT_3D('',#1844,#1522,#1523);
#1229=AXIS2_PLACEMENT_3D('',#1850,#1527,#1528);
#1230=AXIS2_PLACEMENT_3D('',#1856,#1532,#1533);
#1231=AXIS2_PLACEMENT_3D('',#1859,#1536,#1537);
#1232=AXIS2_PLACEMENT_3D('',#1860,#1538,#1539);
#1233=AXIS2_PLACEMENT_3D('',#1861,#1540,#1541);
#1234=AXIS2_PLACEMENT_3D('',#1862,#1542,#1543);
#1235=AXIS2_PLACEMENT_3D('',#1863,#1544,#1545);
#1236=AXIS2_PLACEMENT_3D('',#1864,#1546,#1547);
#1237=AXIS2_PLACEMENT_3D('',#1865,#1548,#1549);
#1238=DIRECTION('',(0.,0.,1.));
#1239=DIRECTION('',(1.,0.,0.));
#1240=DIRECTION('',(-0.00119241932761382,-0.519352673653157,0.854559172032847));
#1241=DIRECTION('',(0.,-0.854559779566893,-0.519353042877948));
#1242=DIRECTION('',(-0.00119241932761382,-0.519352673653157,0.854559172032847));
#1243=DIRECTION('',(0.,-0.854559779566893,-0.519353042877947));
#1244=DIRECTION('',(-0.00119241932761382,-0.519352673653157,0.854559172032847));
#1245=DIRECTION('',(0.707945650572618,0.368779808410885,-0.602340774598353));
#1246=DIRECTION('',(0.70625931498743,-0.365695786324138,0.606188396340822));
#1247=DIRECTION('',(-0.00119241932761382,-0.519352673653157,0.854559172032847));
#1248=DIRECTION('',(-0.00119241932761382,-0.519352673653157,0.854559172032847));
#1249=DIRECTION('',(0.,-0.854559779566893,-0.519353042877947));
#1250=DIRECTION('',(-0.00119241932761382,-0.519352673653157,0.854559172032847));
#1251=DIRECTION('',(0.,-0.854559779566893,-0.519353042877948));
#1252=DIRECTION('',(-0.00119241932761382,-0.519352673653157,0.854559172032847));
#1253=DIRECTION('',(0.,-0.854559779566893,-0.519353042877947));
#1254=DIRECTION('',(-0.00119241932761382,-0.519352673653157,0.854559172032847));
#1255=DIRECTION('',(0.707945650572618,0.368779808410885,-0.602340774598353));
#1256=DIRECTION('',(0.70625931498743,-0.365695786324138,0.606188396340822));
#1257=DIRECTION('',(-0.00119241932761382,-0.519352673653157,0.854559172032847));
#1258=DIRECTION('',(-0.00119241932761382,-0.519352673653157,0.854559172032847));
#1259=DIRECTION('',(0.,-0.854559779566893,-0.519353042877947));
#1260=DIRECTION('',(-0.00119241932761382,-0.519352673653157,0.854559172032847));
#1261=DIRECTION('',(0.,-0.854559779566893,-0.519353042877948));
#1262=DIRECTION('',(-0.00119241932761382,-0.519352673653157,0.854559172032847));
#1263=DIRECTION('',(0.,-0.854559779566893,-0.519353042877947));
#1264=DIRECTION('',(-0.00119241932761382,-0.519352673653157,0.854559172032847));
#1265=DIRECTION('',(0.,-0.854559779566893,-0.519353042877947));
#1266=DIRECTION('',(-0.00119241932761382,-0.519352673653157,0.854559172032847));
#1267=DIRECTION('',(0.,-0.854559779566893,-0.519353042877948));
#1268=DIRECTION('',(-0.00119241932761382,-0.519352673653157,0.854559172032847));
#1269=DIRECTION('',(0.,-0.854559779566893,-0.519353042877947));
#1270=DIRECTION('',(-0.00119241932761382,-0.519352673653157,0.854559172032847));
#1271=DIRECTION('',(0.,-0.854559779566893,-0.519353042877947));
#1272=DIRECTION('',(0.999993921135197,0.00218073293088186,0.00272067942551503));
#1273=DIRECTION('',(0.00272068589476435,0.,-0.999996298927282));
#1274=DIRECTION('',(-0.00327655746163353,0.854557221473906,0.519346916230374));
#1275=DIRECTION('',(-0.00119241932761382,-0.519352673653157,0.854559172032847));
#1276=DIRECTION('',(-0.00327655746163353,0.854557221473906,0.519346916230374));
#1277=DIRECTION('',(-0.00119241932761382,-0.519352673653157,0.854559172032847));
#1278=DIRECTION('',(0.999993921135197,0.00218073293088187,0.00272067942551504));
#1279=DIRECTION('',(0.00272068589476437,0.,-0.999996298927282));
#1280=DIRECTION('',(-0.00119241932761382,-0.519352673653157,0.854559172032847));
#1281=DIRECTION('',(-0.00327655746163355,0.854557221473906,0.519346916230374));
#1282=DIRECTION('',(-0.00119241932761382,-0.519352673653157,0.854559172032847));
#1283=DIRECTION('',(-0.00327655746163355,0.854557221473906,0.519346916230374));
#1284=DIRECTION('',(-0.999993921135197,-0.00218073293088288,-0.00272067942551565));
#1285=DIRECTION('',(-0.00272068589476498,0.,0.999996298927282));
#1286=DIRECTION('',(0.00327655746163473,-0.854557221473906,-0.519346916230374));
#1287=DIRECTION('',(0.00327655746163473,-0.854557221473906,-0.519346916230374));
#1288=DIRECTION('',(-0.999993921135197,-0.00218073293088288,-0.00272067942551565));
#1289=DIRECTION('',(-0.00272068589476498,0.,0.999996298927282));
#1290=DIRECTION('',(0.00327655746163473,-0.854557221473906,-0.519346916230374));
#1291=DIRECTION('',(0.00119241932761382,0.519352673653157,-0.854559172032847));
#1292=DIRECTION('',(0.00327655746163473,-0.854557221473906,-0.519346916230374));
#1293=DIRECTION('',(-0.00119241932761382,-0.519352673653157,0.854559172032847));
#1294=DIRECTION('',(0.00327655746163473,-0.854557221473906,-0.519346916230374));
#1295=DIRECTION('',(0.00119241932761382,0.519352673653157,-0.854559172032847));
#1296=DIRECTION('',(0.999999289067821,-0.000619286606182715,0.00101899359775697));
#1297=DIRECTION('',(0.00119241932761382,0.519352673653157,-0.854559172032847));
#1298=DIRECTION('',(0.,0.854559779566893,0.519353042877947));
#1299=DIRECTION('',(-0.999993921135198,-0.00218073293088185,-0.00272067942551502));
#1300=DIRECTION('',(0.00119241932761382,0.519352673653157,-0.854559172032847));
#1301=DIRECTION('',(0.,0.854559779566893,0.519353042877947));
#1302=DIRECTION('',(-0.0032765574616326,0.854557221473906,0.519346916230374));
#1303=DIRECTION('',(0.00119241932761382,0.519352673653157,-0.854559172032847));
#1304=DIRECTION('',(0.,0.854559779566893,0.519353042877947));
#1305=DIRECTION('',(-0.00327655746163355,0.854557221473906,0.519346916230374));
#1306=DIRECTION('',(-0.999993921135198,-0.00218073293088158,-0.00272067942551485));
#1307=DIRECTION('',(-0.00327655746163353,0.854557221473906,0.519346916230374));
#1308=DIRECTION('',(0.00119241932761382,0.519352673653157,-0.854559172032847));
#1309=DIRECTION('',(0.,0.854559779566893,0.519353042877947));
#1310=DIRECTION('',(-0.00327655746163446,0.854557221473906,0.519346916230374));
#1311=DIRECTION('',(-0.999999289067821,0.00061928660618335,-0.00101899359775659));
#1312=DIRECTION('',(0.00119241932761382,0.519352673653157,-0.854559172032847));
#1313=DIRECTION('',(0.,0.854559779566893,0.519353042877947));
#1314=DIRECTION('',(-2.84628049392857E-18,-0.854559779566893,-0.519353042877948));
#1315=DIRECTION('',(-0.999993921135198,-0.00218073293088204,-0.00272067942551514));
#1316=DIRECTION('',(-0.00327655746163869,0.854557221473906,0.519346916230374));
#1317=DIRECTION('',(0.00119241932761382,0.519352673653157,-0.854559172032847));
#1318=DIRECTION('',(0.,0.854559779566893,0.519353042877947));
#1319=DIRECTION('',(-0.999993921135198,-0.00218073293086686,-0.00272067942550591));
#1320=DIRECTION('',(0.00327655746163399,-0.854557221473906,-0.519346916230374));
#1321=DIRECTION('',(-0.999993921135198,-0.00218073293086686,-0.00272067942550591));
#1322=DIRECTION('',(-0.00119241932761382,-0.519352673653157,0.854559172032847));
#1323=DIRECTION('',(0.,0.854559779566893,0.519353042877947));
#1324=DIRECTION('',(0.00327655746163869,-0.854557221473906,-0.519346916230374));
#1325=DIRECTION('',(-0.999993921135198,-0.00218073293088205,-0.00272067942551514));
#1326=DIRECTION('',(-0.00655307974655314,0.854545488963221,0.519335213940327));
#1327=DIRECTION('',(-0.00119241932761382,-0.519352673653157,0.854559172032847));
#1328=DIRECTION('',(0.,0.854559779566893,0.519353042877947));
#1329=DIRECTION('',(-0.999977817394957,-0.00498072905587841,-0.00442233604440675));
#1330=DIRECTION('',(0.00327655746163473,-0.854557221473906,-0.519346916230374));
#1331=DIRECTION('',(-0.00119241932761382,-0.519352673653157,0.854559172032847));
#1332=DIRECTION('',(0.,0.854559779566893,0.519353042877947));
#1333=DIRECTION('',(-0.00119241932761382,-0.519352673653157,0.854559172032847));
#1334=DIRECTION('',(0.,0.854559779566893,0.519353042877947));
#1335=DIRECTION('',(0.00119241932761382,0.519352673653157,-0.854559172032847));
#1336=DIRECTION('',(0.,0.854559779566893,0.519353042877947));
#1337=DIRECTION('',(0.00119241932761382,0.519352673653157,-0.854559172032847));
#1338=DIRECTION('',(0.,0.854559779566893,0.519353042877947));
#1339=DIRECTION('',(-0.00119241932761382,-0.519352673653157,0.854559172032847));
#1340=DIRECTION('',(0.,-0.854559779566893,-0.519353042877948));
#1341=DIRECTION('',(-0.00119241932761382,-0.519352673653157,0.854559172032847));
#1342=DIRECTION('',(0.,-0.854559779566893,-0.519353042877947));
#1343=DIRECTION('',(0.00119241932761382,0.519352673653157,-0.854559172032847));
#1344=DIRECTION('',(0.,0.854559779566893,0.519353042877947));
#1345=DIRECTION('',(-0.00119241932761382,-0.519352673653157,0.854559172032847));
#1346=DIRECTION('',(0.,-0.854559779566893,-0.519353042877948));
#1347=DIRECTION('',(-0.00119241932761382,-0.519352673653157,0.854559172032847));
#1348=DIRECTION('',(0.,-0.854559779566893,-0.519353042877947));
#1349=DIRECTION('',(0.00119241932761382,0.519352673653157,-0.854559172032847));
#1350=DIRECTION('',(0.,0.854559779566893,0.519353042877947));
#1351=DIRECTION('',(-0.00119241932761382,-0.519352673653157,0.854559172032847));
#1352=DIRECTION('',(0.,-0.854559779566893,-0.519353042877948));
#1353=DIRECTION('',(-0.00119241932761382,-0.519352673653157,0.854559172032847));
#1354=DIRECTION('',(0.,-0.854559779566893,-0.519353042877947));
#1355=DIRECTION('',(0.00119241932761382,0.519352673653157,-0.854559172032847));
#1356=DIRECTION('',(0.,0.854559779566893,0.519353042877947));
#1357=DIRECTION('',(-0.00119241932761382,-0.519352673653157,0.854559172032847));
#1358=DIRECTION('',(0.,-0.854559779566893,-0.519353042877948));
#1359=DIRECTION('',(-0.00119241932761382,-0.519352673653157,0.854559172032847));
#1360=DIRECTION('',(0.,-0.854559779566893,-0.519353042877947));
#1361=DIRECTION('',(-0.00119241932761382,-0.519352673653157,0.854559172032847));
#1362=DIRECTION('',(0.,0.854559779566893,0.519353042877947));
#1363=DIRECTION('',(0.00119241932761382,0.519352673653157,-0.854559172032847));
#1364=DIRECTION('',(0.999999289067821,-0.000619286606182715,0.00101899359775697));
#1365=DIRECTION('',(-0.00119241932761382,-0.519352673653157,0.854559172032847));
#1366=DIRECTION('',(0.,0.854559779566893,0.519353042877947));
#1367=DIRECTION('',(-0.00119241932761382,-0.519352673653157,0.854559172032847));
#1368=DIRECTION('',(0.,0.854559779566893,0.519353042877947));
#1369=DIRECTION('',(-0.999993921135198,-0.00218073293088006,-0.00272067942551393));
#1370=DIRECTION('',(0.00327655746163473,-0.854557221473906,-0.519346916230374));
#1371=DIRECTION('',(-0.999977817394957,-0.00498072905587841,-0.00442233604440675));
#1372=DIRECTION('',(-0.00119241932761382,-0.519352673653157,0.854559172032847));
#1373=DIRECTION('',(0.,0.854559779566893,0.519353042877947));
#1374=DIRECTION('',(-0.00655307974655314,0.854545488963221,0.519335213940327));
#1375=DIRECTION('',(-0.999993921135198,-0.00218073293088205,-0.00272067942551514));
#1376=DIRECTION('',(0.00327655746163869,-0.854557221473906,-0.519346916230374));
#1377=DIRECTION('',(-0.00119241932761382,-0.519352673653157,0.854559172032847));
#1378=DIRECTION('',(0.,0.854559779566893,0.519353042877947));
#1379=DIRECTION('',(-0.999993921135198,-0.00218073293086686,-0.00272067942550591));
#1380=DIRECTION('',(0.00327655746163399,-0.854557221473906,-0.519346916230374));
#1381=DIRECTION('',(0.999993921135198,0.00218073293087516,0.00272067942551096));
#1382=DIRECTION('',(-0.999993921135198,-0.00218073293088185,-0.00272067942551502));
#1383=DIRECTION('',(0.00119241932761382,0.519352673653157,-0.854559172032847));
#1384=DIRECTION('',(0.999999289067821,-0.000619286606182715,0.00101899359775697));
#1385=DIRECTION('',(0.00119241932761382,0.519352673653157,-0.854559172032847));
#1386=DIRECTION('',(0.,0.854559779566893,0.519353042877947));
#1387=DIRECTION('',(0.00119241932761382,0.519352673653157,-0.854559172032847));
#1388=DIRECTION('',(0.,0.854559779566893,0.519353042877947));
#1389=DIRECTION('',(0.999993921135198,0.00218073293089634,0.00272067942552383));
#1390=DIRECTION('',(-0.00327655746163353,0.854557221473906,0.519346916230374));
#1391=DIRECTION('',(-0.999993921135198,-0.00218073293088158,-0.00272067942551485));
#1392=DIRECTION('',(-0.00327655746163355,0.854557221473906,0.519346916230374));
#1393=DIRECTION('',(-0.999993921135198,-0.00218073293089634,-0.00272067942552383));
#1394=DIRECTION('',(0.00327655746163399,-0.854557221473906,-0.519346916230374));
#1395=DIRECTION('',(-0.999993921135198,-0.00218073293086686,-0.00272067942550591));
#1396=DIRECTION('',(0.00119241932761382,0.519352673653157,-0.854559172032847));
#1397=DIRECTION('',(0.,0.854559779566893,0.519353042877947));
#1398=DIRECTION('',(-0.00327655746163869,0.854557221473906,0.519346916230374));
#1399=DIRECTION('',(-0.999993921135198,-0.00218073293088204,-0.00272067942551514));
#1400=DIRECTION('',(-2.84628049392857E-18,-0.854559779566893,-0.519353042877948));
#1401=DIRECTION('',(0.00119241932761382,0.519352673653157,-0.854559172032847));
#1402=DIRECTION('',(0.,0.854559779566893,0.519353042877947));
#1403=DIRECTION('',(-0.999999289067821,0.00061928660618335,-0.00101899359775659));
#1404=DIRECTION('',(0.999993921135197,0.00218073293088186,0.00272067942551503));
#1405=DIRECTION('',(0.00272068589476435,0.,-0.999996298927282));
#1406=DIRECTION('',(-0.00119241932761382,-0.519352673653157,0.854559172032847));
#1407=DIRECTION('',(-0.00119241932761382,-0.519352673653157,0.854559172032847));
#1408=DIRECTION('',(-0.0032765574616332,0.854557221473905,0.519346916230374));
#1409=DIRECTION('',(0.,-0.519349704062611,0.854561808700856));
#1410=DIRECTION('',(-0.00119241932761382,-0.519352673653157,0.854559172032847));
#1411=DIRECTION('',(0.999993921135197,0.00218073293088187,0.00272067942551504));
#1412=DIRECTION('',(0.00272068589476437,0.,-0.999996298927282));
#1413=DIRECTION('',(-0.00119241932761382,-0.519352673653157,0.854559172032847));
#1414=DIRECTION('',(-0.999993921135197,-0.00218073293088288,-0.00272067942551565));
#1415=DIRECTION('',(-0.00272068589476498,0.,0.999996298927282));
#1416=DIRECTION('',(-0.00119241932761382,-0.519352673653157,0.854559172032847));
#1417=DIRECTION('',(-0.00119241932761382,-0.519352673653157,0.854559172032847));
#1418=DIRECTION('',(0.00327655746163473,-0.854557221473906,-0.519346916230374));
#1419=DIRECTION('',(-0.00655307974656677,0.85454548896322,0.519335213940327));
#1420=DIRECTION('',(0.,-0.519346365167655,0.854563837865343));
#1421=DIRECTION('',(-0.00119241932761382,-0.519352673653157,0.854559172032847));
#1422=DIRECTION('',(-0.00119241932761382,-0.519352673653157,0.854559172032847));
#1423=DIRECTION('',(0.,-0.854559779566893,-0.519353042877948));
#1424=DIRECTION('',(-0.00119241932761382,-0.519352673653157,0.854559172032847));
#1425=DIRECTION('',(0.999977817394957,0.00498072905586676,0.00442233604439967));
#1426=DIRECTION('',(-0.00498077776077991,0.999987595849517,0.));
#1427=DIRECTION('',(-0.00119241932761382,-0.519352673653157,0.854559172032847));
#1428=DIRECTION('',(-0.00327655746163375,0.854557221473905,0.519346916230374));
#1429=DIRECTION('',(0.,-0.519349704062611,0.854561808700856));
#1430=DIRECTION('',(-0.00119241932761382,-0.519352673653157,0.854559172032847));
#1431=DIRECTION('',(-0.999993921135197,-0.00218073293088627,-0.00272067942551771));
#1432=DIRECTION('',(-0.00272068589476703,0.,0.999996298927282));
#1433=DIRECTION('',(-0.00119241932761382,-0.519352673653157,0.854559172032847));
#1434=DIRECTION('',(-0.00119241932761382,-0.519352673653157,0.854559172032847));
#1435=DIRECTION('',(0.,-0.854559779566893,-0.519353042877948));
#1436=DIRECTION('',(-0.00119241932761382,-0.519352673653157,0.854559172032847));
#1437=DIRECTION('',(-0.00327655746161597,0.854557221473906,0.519346916230374));
#1438=DIRECTION('',(0.,-0.519349704062611,0.854561808700856));
#1439=DIRECTION('',(-0.00119241932761382,-0.519352673653157,0.854559172032847));
#1440=DIRECTION('',(-0.999993921135197,-0.00218073293088226,-0.00272067942551527));
#1441=DIRECTION('',(-0.00272068589476459,0.,0.999996298927282));
#1442=DIRECTION('',(-0.00119241932761382,-0.519352673653157,0.854559172032847));
#1443=DIRECTION('',(-0.003276557461634,0.854557221473906,0.519346916230374));
#1444=DIRECTION('',(0.00119241932761382,0.519352673653157,-0.854559172032847));
#1445=DIRECTION('',(-0.00119241932761382,-0.519352673653157,0.854559172032847));
#1446=DIRECTION('',(-0.00327655746161597,0.854557221473906,0.519346916230374));
#1447=DIRECTION('',(0.,-0.519349704062611,0.854561808700856));
#1448=DIRECTION('',(-0.00119241932761382,-0.519352673653157,0.854559172032847));
#1449=DIRECTION('',(-0.00119241932761382,-0.519352673653157,0.854559172032847));
#1450=DIRECTION('',(0.,-0.854559779566893,-0.519353042877948));
#1451=DIRECTION('',(-0.00119241932761382,-0.519352673653157,0.854559172032847));
#1452=DIRECTION('',(0.999993921135197,0.00218073293088627,0.00272067942551771));
#1453=DIRECTION('',(0.00272068589476703,0.,-0.999996298927282));
#1454=DIRECTION('',(-0.00119241932761382,-0.519352673653157,0.854559172032847));
#1455=DIRECTION('',(-0.00327655746163374,0.854557221473905,0.519346916230374));
#1456=DIRECTION('',(0.,-0.519349704062611,0.854561808700856));
#1457=DIRECTION('',(-0.00119241932761382,-0.519352673653157,0.854559172032847));
#1458=DIRECTION('',(-0.999999289067821,0.000619286606182717,-0.00101899359775697));
#1459=DIRECTION('',(-0.00101899379315715,0.,0.99999948082569));
#1460=DIRECTION('',(-0.00119241932761382,-0.519352673653157,0.854559172032847));
#1461=DIRECTION('',(-0.00119241932761382,-0.519352673653157,0.854559172032847));
#1462=DIRECTION('',(0.,-0.854559779566893,-0.519353042877948));
#1463=DIRECTION('',(-0.00119241932761382,-0.519352673653157,0.854559172032847));
#1464=DIRECTION('',(-0.00119241932761382,-0.519352673653157,0.854559172032847));
#1465=DIRECTION('',(0.,-0.854559779566893,-0.519353042877948));
#1466=DIRECTION('',(-0.00119241932761382,-0.519352673653157,0.854559172032847));
#1467=DIRECTION('',(0.,-0.854559779566893,-0.519353042877948));
#1468=DIRECTION('',(-0.00119241932761382,-0.519352673653157,0.854559172032847));
#1469=DIRECTION('',(0.,-0.854559779566893,-0.519353042877948));
#1470=DIRECTION('',(-0.00119241932761382,-0.519352673653157,0.854559172032847));
#1471=DIRECTION('',(0.,-0.854559779566893,-0.519353042877948));
#1472=DIRECTION('',(7.43130239057773E-16,0.854559779566893,0.519353042877948));
#1473=DIRECTION('',(0.,-0.519353042877948,0.854559779566893));
#1474=DIRECTION('',(-0.00327655746163351,0.854557221473905,0.519346916230374));
#1475=DIRECTION('',(0.,-0.519349704062611,0.854561808700856));
#1476=DIRECTION('',(-0.999993921135197,-0.00218073293088106,-0.00272067942551454));
#1477=DIRECTION('',(-0.00272068589476387,0.,0.999996298927282));
#1478=DIRECTION('',(-0.00119241932761382,-0.519352673653157,0.854559172032847));
#1479=DIRECTION('',(-0.00119241932761382,-0.519352673653157,0.854559172032847));
#1480=DIRECTION('',(0.00327655746163259,-0.854557221473906,-0.519346916230374));
#1481=DIRECTION('',(-0.00119241932761382,-0.519352673653157,0.854559172032847));
#1482=DIRECTION('',(0.,-0.854559779566893,-0.519353042877948));
#1483=DIRECTION('',(-0.00119241932761382,-0.519352673653157,0.854559172032847));
#1484=DIRECTION('',(0.00119241932761382,0.519352673653157,-0.854559172032847));
#1485=DIRECTION('',(0.,0.854559779566893,0.519353042877947));
#1486=DIRECTION('',(0.00327655746162569,-0.854557221473905,-0.519346916230374));
#1487=DIRECTION('',(0.,0.519349704062611,-0.854561808700856));
#1488=DIRECTION('',(-0.707945650572567,-0.368779808410906,0.6023407745984));
#1489=DIRECTION('',(-0.00119241932761382,-0.519352673653157,0.854559172032847));
#1490=DIRECTION('',(0.999993921135198,0.00218073293087516,0.00272067942551096));
#1491=DIRECTION('',(-0.999993921135197,-0.00218073293088084,-0.00272067942551441));
#1492=DIRECTION('',(-0.00272068589476373,0.,0.999996298927282));
#1493=DIRECTION('',(-0.00327655746163231,0.854557221473907,0.519346916230372));
#1494=DIRECTION('',(-0.00119241932761382,-0.519352673653157,0.854559172032847));
#1495=DIRECTION('',(0.00327655746163234,-0.854557221473906,-0.519346916230374));
#1496=DIRECTION('',(-0.00327655746165047,0.854557221473905,0.519346916230374));
#1497=DIRECTION('',(0.,-0.519349704062611,0.854561808700856));
#1498=DIRECTION('',(0.707945650572567,0.368779808410921,-0.602340774598391));
#1499=DIRECTION('',(-0.00119241932761382,-0.519352673653157,0.854559172032847));
#1500=DIRECTION('',(-0.999993921135198,-0.00218073293089634,-0.00272067942552383));
#1501=DIRECTION('',(-0.00119241932761382,-0.519352673653157,0.854559172032847));
#1502=DIRECTION('',(0.,-0.854559779566893,-0.519353042877948));
#1503=DIRECTION('',(-0.00119241932761382,-0.519352673653157,0.854559172032847));
#1504=DIRECTION('',(0.,0.854559779566893,0.519353042877947));
#1505=DIRECTION('',(0.00119241932761382,0.519352673653157,-0.854559172032847));
#1506=DIRECTION('',(0.999999289067821,-0.000619286606182715,0.00101899359775697));
#1507=DIRECTION('',(-0.00119241932761382,-0.519352673653157,0.854559172032847));
#1508=DIRECTION('',(0.,-0.854559779566893,-0.519353042877948));
#1509=DIRECTION('',(-0.00119241932761382,-0.519352673653157,0.854559172032847));
#1510=DIRECTION('',(-0.00119241932761382,-0.519352673653157,0.854559172032847));
#1511=DIRECTION('',(-0.00119241932761382,-0.519352673653157,0.854559172032847));
#1512=DIRECTION('',(0.,0.854559779566893,0.519353042877947));
#1513=DIRECTION('',(-0.999993921135197,-0.00218073293088265,-0.00272067942551551));
#1514=DIRECTION('',(-0.00272068589476483,0.,0.999996298927282));
#1515=DIRECTION('',(-0.00119241932761382,-0.519352673653157,0.854559172032847));
#1516=DIRECTION('',(0.00327655746163445,-0.854557221473906,-0.519346916230374));
#1517=DIRECTION('',(-0.00119241932761382,-0.519352673653157,0.854559172032847));
#1518=DIRECTION('',(0.,-0.854559779566893,-0.519353042877948));
#1519=DIRECTION('',(-0.00119241932761382,-0.519352673653157,0.854559172032847));
#1520=DIRECTION('',(0.00119241932761382,0.519352673653157,-0.854559172032847));
#1521=DIRECTION('',(0.,0.854559779566893,0.519353042877947));
#1522=DIRECTION('',(0.00327655746165047,-0.854557221473905,-0.519346916230374));
#1523=DIRECTION('',(0.,0.519349704062611,-0.854561808700856));
#1524=DIRECTION('',(-0.70625931498743,0.365695786324128,-0.606188396340827));
#1525=DIRECTION('',(-0.00119241932761382,-0.519352673653157,0.854559172032847));
#1526=DIRECTION('',(0.999993921135198,0.00218073293089634,0.00272067942552383));
#1527=DIRECTION('',(-0.999993921135197,-0.00218073293088301,-0.00272067942551573));
#1528=DIRECTION('',(-0.00272068589476505,0.,0.999996298927282));
#1529=DIRECTION('',(-0.00327655746163487,0.854557221473906,0.519346916230374));
#1530=DIRECTION('',(-0.00119241932761382,-0.519352673653157,0.854559172032847));
#1531=DIRECTION('',(0.00327655746163487,-0.854557221473906,-0.519346916230374));
#1532=DIRECTION('',(-0.00327655746163142,0.854557221473905,0.519346916230374));
#1533=DIRECTION('',(0.,-0.519349704062611,0.854561808700856));
#1534=DIRECTION('',(-0.999993921135198,-0.00218073293088006,-0.00272067942551393));
#1535=DIRECTION('',(0.70625931498743,-0.36569578632414,0.60618839634082));
#1536=DIRECTION('',(0.00119241932761382,0.519352673653157,-0.854559172032847));
#1537=DIRECTION('',(0.999999289067821,-0.000619286606182715,0.00101899359775697));
#1538=DIRECTION('',(0.706259314987481,-0.365695786324112,0.606188396340778));
#1539=DIRECTION('',(-0.003276557461634,0.854557221473906,0.519346916230374));
#1540=DIRECTION('',(0.707945650572618,0.368779808410885,-0.602340774598353));
#1541=DIRECTION('',(0.00327655746163473,-0.854557221473906,-0.519346916230374));
#1542=DIRECTION('',(-0.00119241932761382,-0.519352673653157,0.854559172032847));
#1543=DIRECTION('',(0.999999289067821,-0.000619286606182715,0.00101899359775697));
#1544=DIRECTION('',(-0.00119241932761382,-0.519352673653157,0.854559172032847));
#1545=DIRECTION('',(0.999999289067821,-0.000619286606182715,0.00101899359775697));
#1546=DIRECTION('',(-0.00119241932761382,-0.519352673653157,0.854559172032847));
#1547=DIRECTION('',(0.999999289067821,-0.000619286606182715,0.00101899359775697));
#1548=DIRECTION('',(-0.00119241932761382,-0.519352673653157,0.854559172032847));
#1549=DIRECTION('',(0.999999289067821,-0.000619286606182715,0.00101899359775697));
#1550=CARTESIAN_POINT('',(0.,0.,0.));
#1551=CARTESIAN_POINT('',(-0.379643442471581,0.663180413682812,0.346704159632473));
#1552=CARTESIAN_POINT('',(-0.379645827310236,0.662141708335506,0.348413277976539));
#1553=CARTESIAN_POINT('',(-0.3824785343522,0.66129932387406,0.347897371751024));
#1554=CARTESIAN_POINT('',(-0.382484946696415,0.662971723983093,0.34891375288678));
#1555=CARTESIAN_POINT('',(-0.38248256185776,0.664010429330399,0.347204634542713));
#1556=CARTESIAN_POINT('',(-0.382483754277088,0.663491076656746,0.348059193714746));
#1557=CARTESIAN_POINT('',(-0.379648016509193,0.661188212945938,0.349982189184628));
#1558=CARTESIAN_POINT('',(-0.382477341932873,0.661818676547713,0.347042812578991));
#1559=CARTESIAN_POINT('',(-0.382476149513545,0.662338029221367,0.346188253406959));
#1560=CARTESIAN_POINT('',(-0.379643442471581,0.663180413682812,0.346704159632473));
#1561=CARTESIAN_POINT('',(-0.379643442471581,0.660616734344111,0.345146100503839));
#1562=CARTESIAN_POINT('',(-0.379643442471581,0.688817207069819,0.362284750918811));
#1563=CARTESIAN_POINT('',(-0.379645827310236,0.687778501722513,0.363993869262877));
#1564=CARTESIAN_POINT('',(-0.382577989696739,0.687238219768493,0.363661425058022));
#1565=CARTESIAN_POINT('',(-0.382582083744274,0.688305986144564,0.36431034728433));
#1566=CARTESIAN_POINT('',(-0.382579698905619,0.68934469149187,0.362601228940264));
#1567=CARTESIAN_POINT('',(-0.382580891324946,0.688825338818217,0.363455788112297));
#1568=CARTESIAN_POINT('',(-0.37964813372019,0.686773955630309,0.365646780897632));
#1569=CARTESIAN_POINT('',(-0.382576797277411,0.687757572442146,0.362806865885989));
#1570=CARTESIAN_POINT('',(-0.382575604858083,0.6882769251158,0.361952306713956));
#1571=CARTESIAN_POINT('',(-0.379643442471581,0.688817207069819,0.362284750918811));
#1572=CARTESIAN_POINT('',(-0.379643442471581,0.686253527731118,0.360726691790177));
#1573=CARTESIAN_POINT('',(-0.469643378487608,0.688872942864375,0.362193041495013));
#1574=CARTESIAN_POINT('',(-0.469645763326264,0.687834237517069,0.363902159839078));
#1575=CARTESIAN_POINT('',(-0.469645763326264,0.685270558178368,0.362344100710445));
#1576=CARTESIAN_POINT('',(-0.469643378487608,0.688872942864375,0.362193041495013));
#1577=CARTESIAN_POINT('',(-0.469643378487608,0.686309263525674,0.360634982366379));
#1578=CARTESIAN_POINT('',(-0.469643378487619,0.663236149477369,0.346612450208675));
#1579=CARTESIAN_POINT('',(-0.469645763326274,0.662197444130062,0.34832156855274));
#1580=CARTESIAN_POINT('',(-0.469645763326274,0.659633764791361,0.346763509424106));
#1581=CARTESIAN_POINT('',(-0.469643378487619,0.663236149477369,0.346612450208675));
#1582=CARTESIAN_POINT('',(-0.469643378487619,0.660672470138668,0.345054391080041));
#1583=CARTESIAN_POINT('',(-0.378583519653778,0.691173906960379,0.362548304653866));
#1584=CARTESIAN_POINT('',(-0.378587096911761,0.689615848939419,0.365111982169964));
#1585=CARTESIAN_POINT('',(-0.37860319925593,0.693815492819764,0.367664265438673));
#1586=CARTESIAN_POINT('',(-0.37864607494607,0.70499787892595,0.37446022666211));
#1587=CARTESIAN_POINT('',(-0.378602006836603,0.694334845493417,0.366809706266641));
#1588=CARTESIAN_POINT('',(-0.378599621997947,0.695373550840723,0.365100587922574));
#1589=CARTESIAN_POINT('',(-0.378583519653778,0.691173906960379,0.362548304653866));
#1590=CARTESIAN_POINT('',(-0.378642497688087,0.706555936946909,0.371896549146012));
#1591=CARTESIAN_POINT('',(-0.378642497688087,0.706555936946909,0.371896549146012));
#1592=CARTESIAN_POINT('',(-0.470465004329598,0.660209219557677,0.343601513162425));
#1593=CARTESIAN_POINT('',(-0.470599062742386,0.695172923411082,0.364850285415428));
#1594=CARTESIAN_POINT('',(-0.470599062742386,0.695172923411082,0.364850285415428));
#1595=CARTESIAN_POINT('',(-0.470602640000369,0.693614865390123,0.367413962931526));
#1596=CARTESIAN_POINT('',(-0.470468581587581,0.658651161536718,0.346165190678523));
#1597=CARTESIAN_POINT('',(-0.470645515690509,0.704797251496309,0.374209924154964));
#1598=CARTESIAN_POINT('',(-0.470641938432526,0.706355309517268,0.371646246638865));
#1599=CARTESIAN_POINT('',(-0.470641938432526,0.706355309517268,0.371646246638865));
#1600=CARTESIAN_POINT('',(-0.470465004329598,0.660209219557677,0.343601513162425));
#1601=CARTESIAN_POINT('',(-0.382483930924257,0.665197841769366,0.346756080691629));
#1602=CARTESIAN_POINT('',(-0.382486315762913,0.66415913642206,0.348465199035695));
#1603=CARTESIAN_POINT('',(-0.38248750818224,0.663639783748407,0.349319758207728));
#1604=CARTESIAN_POINT('',(-0.382483930924257,0.665197841769366,0.346756080691629));
#1605=CARTESIAN_POINT('',(-0.382486315762913,0.66415913642206,0.348465199035695));
#1606=CARTESIAN_POINT('',(-0.382458284485314,0.656848313712935,0.344022134096705));
#1607=CARTESIAN_POINT('',(-0.382452322388676,0.659445077081201,0.339749338236541));
#1608=CARTESIAN_POINT('',(-0.382455899646659,0.657887019060241,0.34231301575264));
#1609=CARTESIAN_POINT('',(-0.382483930924257,0.665197841769366,0.346756080691629));
#1610=CARTESIAN_POINT('',(-0.382443344544505,0.654612529496607,0.340322983939242));
#1611=CARTESIAN_POINT('',(-0.382443344544505,0.654612529496607,0.340322983939242));
#1612=CARTESIAN_POINT('',(-0.382446921802488,0.653054471475647,0.34288666145534));
#1613=CARTESIAN_POINT('',(-0.38248750818224,0.663639783748407,0.349319758207728));
#1614=CARTESIAN_POINT('',(-0.432113707205053,0.674138203067829,0.355630856467868));
#1615=CARTESIAN_POINT('',(-0.382580474284481,0.68788622378577,0.36405524173831));
#1616=CARTESIAN_POINT('',(-0.3745805229154,0.687903669649217,0.364077007173714));
#1617=CARTESIAN_POINT('',(-0.424645795318289,0.704897565211129,0.374335075408537));
#1618=CARTESIAN_POINT('',(-0.466579963659839,0.687703042219577,0.363826704666568));
#1619=CARTESIAN_POINT('',(-0.474579915028919,0.687685596356129,0.363804939231163));
#1620=CARTESIAN_POINT('',(-0.474530766666995,0.67486723803402,0.356014735487708));
#1621=CARTESIAN_POINT('',(-0.47448161830507,0.662048879711911,0.348224531744252));
#1622=CARTESIAN_POINT('',(-0.466481666935989,0.662066325575359,0.348246297179656));
#1623=CARTESIAN_POINT('',(-0.47045894196454,0.656137056541364,0.344637273479293));
#1624=CARTESIAN_POINT('',(-0.470468581587581,0.658651161536718,0.346165190678523));
#1625=CARTESIAN_POINT('',(-0.470409603553271,0.643269131550188,0.336816946186377));
#1626=CARTESIAN_POINT('',(-0.424409883181052,0.643369445265008,0.33694209743995));
#1627=CARTESIAN_POINT('',(-0.378410162808833,0.643469758979829,0.337067248693524));
#1628=CARTESIAN_POINT('',(-0.378587096911761,0.689615848939419,0.365111982169964));
#1629=CARTESIAN_POINT('',(-0.378459501220101,0.656337683971005,0.34488757598644));
#1630=CARTESIAN_POINT('',(-0.382482177560633,0.662249507141553,0.3484748342514));
#1631=CARTESIAN_POINT('',(-0.37448222619155,0.662266953004999,0.348496599686804));
#1632=CARTESIAN_POINT('',(-0.374531374553475,0.675085311327108,0.356286803430259));
#1633=CARTESIAN_POINT('',(-0.384571920291757,0.653055787459685,0.342884496093945));
#1634=CARTESIAN_POINT('',(-0.386696918781026,0.653057103443724,0.34288233073255));
#1635=CARTESIAN_POINT('',(-0.386696918781026,0.650493424105023,0.341324271603916));
#1636=CARTESIAN_POINT('',(-0.389696916648229,0.650495281964842,0.341321214623123));
#1637=CARTESIAN_POINT('',(-0.389696916648229,0.648679342433262,0.340217589407007));
#1638=CARTESIAN_POINT('',(-0.389696916648229,0.646863402901682,0.339113964190892));
#1639=CARTESIAN_POINT('',(-0.424434847409288,0.646787648291619,0.339019452842864));
#1640=CARTESIAN_POINT('',(-0.459172778170347,0.646711893681556,0.338924941494835));
#1641=CARTESIAN_POINT('',(-0.459179740854953,0.648527827777188,0.340028553691824));
#1642=CARTESIAN_POINT('',(-0.459186703539559,0.65034376187282,0.341132165888814));
#1643=CARTESIAN_POINT('',(-0.462186685302964,0.650337219674027,0.341124003850537));
#1644=CARTESIAN_POINT('',(-0.462196514975349,0.652900891338449,0.342682044599229));
#1645=CARTESIAN_POINT('',(-0.464321502057761,0.652896257280971,0.342676263155449));
#1646=CARTESIAN_POINT('',(-0.466446489140174,0.652891623223493,0.34267048171167));
#1647=CARTESIAN_POINT('',(-0.466568131335937,0.684617060070711,0.361951235976723));
#1648=CARTESIAN_POINT('',(-0.466608678734525,0.695192205686451,0.368378154065074));
#1649=CARTESIAN_POINT('',(-0.464483691652112,0.695196839743929,0.368383935508853));
#1650=CARTESIAN_POINT('',(-0.4623587045697,0.695201473801407,0.368389716952632));
#1651=CARTESIAN_POINT('',(-0.462368534242085,0.697765145465829,0.369947757701323));
#1652=CARTESIAN_POINT('',(-0.459368552478679,0.697771687664621,0.3699559197396));
#1653=CARTESIAN_POINT('',(-0.459375515163285,0.699587621760253,0.371059531936589));
#1654=CARTESIAN_POINT('',(-0.459382477847891,0.701403555855885,0.372163144133579));
#1655=CARTESIAN_POINT('',(-0.424644547086832,0.701479310465949,0.372257655481607));
#1656=CARTESIAN_POINT('',(-0.389906616325774,0.701555065076012,0.372352166829636));
#1657=CARTESIAN_POINT('',(-0.389892691031312,0.699739155911965,0.371248579500012));
#1658=CARTESIAN_POINT('',(-0.389878765736851,0.697923246747918,0.370144992170389));
#1659=CARTESIAN_POINT('',(-0.386878832284666,0.697938188935086,0.370158259178522));
#1660=CARTESIAN_POINT('',(-0.386859173045426,0.695374552468197,0.368600253536702));
#1661=CARTESIAN_POINT('',(-0.384734220183462,0.69538513651744,0.368609651000795));
#1662=CARTESIAN_POINT('',(-0.382609267321497,0.695395720566684,0.36861904846489));
#1663=CARTESIAN_POINT('',(-0.38248750818224,0.663639783748407,0.349319758207728));
#1664=CARTESIAN_POINT('',(-0.386878832284666,0.697938188935086,0.370158259178522));
#1665=CARTESIAN_POINT('',(-0.386878832284666,0.69913457262648,0.370885353438552));
#1666=CARTESIAN_POINT('',(-0.462368534242085,0.697765145465829,0.369947757701323));
#1667=CARTESIAN_POINT('',(-0.462368534242085,0.698961529157223,0.370674851961352));
#1668=CARTESIAN_POINT('',(-0.462186685302964,0.650337219674027,0.341124003850537));
#1669=CARTESIAN_POINT('',(-0.462186685302964,0.651533603365421,0.341851098110567));
#1670=CARTESIAN_POINT('',(-0.386696918781026,0.650493424105023,0.341324271603916));
#1671=CARTESIAN_POINT('',(-0.386696918781026,0.651689807796417,0.342051365863945));
#1672=CARTESIAN_POINT('',(-0.469638608810378,0.690950353558988,0.358774804806882));
#1673=CARTESIAN_POINT('',(-0.469643378487688,0.688872942864375,0.362193041495013));
#1674=CARTESIAN_POINT('',(-0.469643378487688,0.687505647217068,0.361362076626408));
#1675=CARTESIAN_POINT('',(-0.469638608810378,0.690950353558988,0.358774804806882));
#1676=CARTESIAN_POINT('',(-0.469638608810378,0.692317649206295,0.359605769675486));
#1677=CARTESIAN_POINT('',(-0.469638608810376,0.665313560171981,0.343194213520543));
#1678=CARTESIAN_POINT('',(-0.469643378487686,0.663236149477368,0.346612450208675));
#1679=CARTESIAN_POINT('',(-0.469643378487686,0.661868853830061,0.34578148534007));
#1680=CARTESIAN_POINT('',(-0.469638608810376,0.665313560171981,0.343194213520543));
#1681=CARTESIAN_POINT('',(-0.469638608810376,0.666680855819288,0.344025178389148));
#1682=CARTESIAN_POINT('',(-0.37963867279427,0.665257824377425,0.343285922944342));
#1683=CARTESIAN_POINT('',(-0.379643442471581,0.663180413682812,0.346704159632473));
#1684=CARTESIAN_POINT('',(-0.379643442471581,0.661813118035505,0.345873194763868));
#1685=CARTESIAN_POINT('',(-0.37963867279427,0.665257824377425,0.343285922944342));
#1686=CARTESIAN_POINT('',(-0.37963867279427,0.666625120024732,0.344116887812946));
#1687=CARTESIAN_POINT('',(-0.37963867279427,0.690894617764432,0.35886651423068));
#1688=CARTESIAN_POINT('',(-0.379643442471581,0.688817207069819,0.362284750918811));
#1689=CARTESIAN_POINT('',(-0.379643442471581,0.687449911422512,0.361453786050206));
#1690=CARTESIAN_POINT('',(-0.37963867279427,0.690894617764432,0.35886651423068));
#1691=CARTESIAN_POINT('',(-0.37963867279427,0.692261913411739,0.359697479099284));
#1692=CARTESIAN_POINT('',(-0.43211012994707,0.675696261088789,0.353067178951769));
#1693=CARTESIAN_POINT('',(-0.386875255026683,0.699496246956046,0.367594581662423));
#1694=CARTESIAN_POINT('',(-0.386875255026683,0.70069263064744,0.368321675922453));
#1695=CARTESIAN_POINT('',(-0.462364956984102,0.699323203486788,0.367384080185225));
#1696=CARTESIAN_POINT('',(-0.462364956984102,0.700519587178182,0.368111174445254));
#1697=CARTESIAN_POINT('',(-0.381099606800785,0.695368099008396,0.365093786224011));
#1698=CARTESIAN_POINT('',(-0.382599597682489,0.695364827909,0.365089705204872));
#1699=CARTESIAN_POINT('',(-0.382483930924257,0.665197841769366,0.346756080691629));
#1700=CARTESIAN_POINT('',(-0.382605690063515,0.696953778587643,0.366055370948791));
#1701=CARTESIAN_POINT('',(-0.384730642925479,0.6969431945384,0.366045973484697));
#1702=CARTESIAN_POINT('',(-0.386855595787443,0.696932610489156,0.366036576020603));
#1703=CARTESIAN_POINT('',(-0.386875255026683,0.699496246956045,0.367594581662423));
#1704=CARTESIAN_POINT('',(-0.389875188478868,0.699481304768878,0.367581314654291));
#1705=CARTESIAN_POINT('',(-0.38988911377333,0.701297213932925,0.368684901983914));
#1706=CARTESIAN_POINT('',(-0.389903039067791,0.703113123096972,0.369788489313537));
#1707=CARTESIAN_POINT('',(-0.424640969828849,0.703037368486908,0.369693977965509));
#1708=CARTESIAN_POINT('',(-0.459378900589908,0.702961613876845,0.36959946661748));
#1709=CARTESIAN_POINT('',(-0.459371937905302,0.701145679781213,0.36849585442049));
#1710=CARTESIAN_POINT('',(-0.459364975220696,0.699329745685581,0.367392242223501));
#1711=CARTESIAN_POINT('',(-0.462364956984102,0.699323203486788,0.367384080185225));
#1712=CARTESIAN_POINT('',(-0.462355127311717,0.696759531822366,0.365826039436533));
#1713=CARTESIAN_POINT('',(-0.46448011439413,0.696754897764888,0.365820257992754));
#1714=CARTESIAN_POINT('',(-0.466605101476542,0.69675026370741,0.365814476548975));
#1715=CARTESIAN_POINT('',(-0.466564554077954,0.68617511809167,0.359387558460624));
#1716=CARTESIAN_POINT('',(-0.466599087057845,0.695181646342806,0.36486116813313));
#1717=CARTESIAN_POINT('',(-0.468099077939548,0.695178375243409,0.364857087113991));
#1718=CARTESIAN_POINT('',(-0.424642218060307,0.706455623232089,0.371771397892439));
#1719=CARTESIAN_POINT('',(-0.43211012994707,0.675696261088789,0.353067178951769));
#1720=CARTESIAN_POINT('',(-0.386693341523043,0.652051482125982,0.338760594087818));
#1721=CARTESIAN_POINT('',(-0.386693341523043,0.653247865817376,0.339487688347847));
#1722=CARTESIAN_POINT('',(-0.462183108044981,0.651895277694987,0.338560326334439));
#1723=CARTESIAN_POINT('',(-0.462183108044981,0.653091661386381,0.339287420594468));
#1724=CARTESIAN_POINT('',(-0.380955908764956,0.657890290159638,0.342317096771778));
#1725=CARTESIAN_POINT('',(-0.378455923962119,0.657895741991965,0.342323898470342));
#1726=CARTESIAN_POINT('',(-0.378583519653778,0.691173906960379,0.362548304653866));
#1727=CARTESIAN_POINT('',(-0.37840658555085,0.645027817000788,0.334503571177426));
#1728=CARTESIAN_POINT('',(-0.424406305923069,0.644927503285968,0.334378419923851));
#1729=CARTESIAN_POINT('',(-0.470406026295288,0.644827189571147,0.334253268670278));
#1730=CARTESIAN_POINT('',(-0.470465004329598,0.660209219557677,0.343601513162425));
#1731=CARTESIAN_POINT('',(-0.470455364706557,0.657695114562324,0.342073595963195));
#1732=CARTESIAN_POINT('',(-0.467955379903719,0.657700566394651,0.342080397661758));
#1733=CARTESIAN_POINT('',(-0.466455389022016,0.657703837494047,0.342084478680897));
#1734=CARTESIAN_POINT('',(-0.466564554077954,0.68617511809167,0.359387558460624));
#1735=CARTESIAN_POINT('',(-0.466442911882191,0.654449681244452,0.340106804195571));
#1736=CARTESIAN_POINT('',(-0.464317924799779,0.65445431530193,0.340112585639351));
#1737=CARTESIAN_POINT('',(-0.462192937717366,0.654458949359408,0.34011836708313));
#1738=CARTESIAN_POINT('',(-0.462183108044981,0.651895277694987,0.338560326334439));
#1739=CARTESIAN_POINT('',(-0.459183126281576,0.651901819893779,0.338568488372716));
#1740=CARTESIAN_POINT('',(-0.45917616359697,0.650085885798147,0.337464876175726));
#1741=CARTESIAN_POINT('',(-0.459169200912364,0.648269951702515,0.336361263978737));
#1742=CARTESIAN_POINT('',(-0.424431270151305,0.648345706312579,0.336455775326765));
#1743=CARTESIAN_POINT('',(-0.389693339390247,0.648421460922642,0.336550286674793));
#1744=CARTESIAN_POINT('',(-0.389693339390247,0.650237400454221,0.337653911890908));
#1745=CARTESIAN_POINT('',(-0.389693339390247,0.652053339985801,0.338757537107024));
#1746=CARTESIAN_POINT('',(-0.386693341523043,0.652051482125983,0.338760594087818));
#1747=CARTESIAN_POINT('',(-0.386693341523043,0.654615161464683,0.340318653216452));
#1748=CARTESIAN_POINT('',(-0.384568343033774,0.654613845480645,0.340320818577847));
#1749=CARTESIAN_POINT('',(-0.378583519653778,0.691173906960379,0.362548304653866));
#1750=CARTESIAN_POINT('',(-0.378455923962119,0.657895741991965,0.342323898470342));
#1751=CARTESIAN_POINT('',(-0.37840658555085,0.645027817000788,0.334503571177426));
#1752=CARTESIAN_POINT('',(-0.424406305923069,0.644927503285968,0.334378419923851));
#1753=CARTESIAN_POINT('',(-0.470406026295288,0.644827189571147,0.334253268670278));
#1754=CARTESIAN_POINT('',(-0.470465004329598,0.660209219557677,0.343601513162425));
#1755=CARTESIAN_POINT('',(-0.470457749545212,0.656656409215017,0.34378271430726));
#1756=CARTESIAN_POINT('',(-0.382483930924257,0.665197841769366,0.346756080691629));
#1757=CARTESIAN_POINT('',(-0.382605690063515,0.696953778587643,0.366055370948791));
#1758=CARTESIAN_POINT('',(-0.382596020424505,0.696922885929959,0.362526027688774));
#1759=CARTESIAN_POINT('',(-0.382601982521144,0.694326122561694,0.366798823548939));
#1760=CARTESIAN_POINT('',(-0.382486315762913,0.66415913642206,0.348465199035695));
#1761=CARTESIAN_POINT('',(-0.384730642925479,0.6969431945384,0.366045973484697));
#1762=CARTESIAN_POINT('',(-0.386855595787443,0.696932610489156,0.366036576020603));
#1763=CARTESIAN_POINT('',(-0.386875255026683,0.699496246956045,0.367594581662423));
#1764=CARTESIAN_POINT('',(-0.389875188478868,0.699481304768878,0.367581314654291));
#1765=CARTESIAN_POINT('',(-0.38988911377333,0.701297213932925,0.368684901983914));
#1766=CARTESIAN_POINT('',(-0.389903039067791,0.703113123096972,0.369788489313537));
#1767=CARTESIAN_POINT('',(-0.424640969828849,0.703037368486908,0.369693977965509));
#1768=CARTESIAN_POINT('',(-0.459378900589908,0.702961613876845,0.36959946661748));
#1769=CARTESIAN_POINT('',(-0.459371937905302,0.701145679781213,0.36849585442049));
#1770=CARTESIAN_POINT('',(-0.459364975220696,0.699329745685581,0.367392242223501));
#1771=CARTESIAN_POINT('',(-0.462364956984102,0.699323203486788,0.367384080185225));
#1772=CARTESIAN_POINT('',(-0.462355127311717,0.696759531822366,0.365826039436533));
#1773=CARTESIAN_POINT('',(-0.46448011439413,0.696754897764888,0.365820257992754));
#1774=CARTESIAN_POINT('',(-0.466605101476542,0.69675026370741,0.365814476548975));
#1775=CARTESIAN_POINT('',(-0.466564554077954,0.68617511809167,0.359387558460624));
#1776=CARTESIAN_POINT('',(-0.466451811764033,0.659261895515007,0.339520801164798));
#1777=CARTESIAN_POINT('',(-0.466457773860671,0.656665132146741,0.343793597024962));
#1778=CARTESIAN_POINT('',(-0.4666014718965,0.694142940995499,0.366570286477196));
#1779=CARTESIAN_POINT('',(-0.4666014718965,0.694142940995499,0.366570286477195));
#1780=CARTESIAN_POINT('',(-0.466595509799862,0.696739704363765,0.362297490617031));
#1781=CARTESIAN_POINT('',(-0.466442911882191,0.654449681244452,0.340106804195571));
#1782=CARTESIAN_POINT('',(-0.464317924799779,0.65445431530193,0.340112585639351));
#1783=CARTESIAN_POINT('',(-0.462192937717366,0.654458949359408,0.34011836708313));
#1784=CARTESIAN_POINT('',(-0.462183108044981,0.651895277694987,0.338560326334439));
#1785=CARTESIAN_POINT('',(-0.459183126281576,0.651901819893779,0.338568488372716));
#1786=CARTESIAN_POINT('',(-0.45917616359697,0.650085885798147,0.337464876175726));
#1787=CARTESIAN_POINT('',(-0.459169200912364,0.648269951702515,0.336361263978737));
#1788=CARTESIAN_POINT('',(-0.424431270151305,0.648345706312579,0.336455775326765));
#1789=CARTESIAN_POINT('',(-0.389693339390247,0.648421460922642,0.336550286674793));
#1790=CARTESIAN_POINT('',(-0.389693339390247,0.650237400454221,0.337653911890908));
#1791=CARTESIAN_POINT('',(-0.389693339390247,0.652053339985801,0.338757537107024));
#1792=CARTESIAN_POINT('',(-0.386693341523043,0.652051482125983,0.338760594087818));
#1793=CARTESIAN_POINT('',(-0.386693341523043,0.654615161464683,0.340318653216452));
#1794=CARTESIAN_POINT('',(-0.386693341523043,0.652051482125982,0.338760594087818));
#1795=CARTESIAN_POINT('',(-0.462183108044981,0.651895277694987,0.338560326334439));
#1796=CARTESIAN_POINT('',(-0.462364956984102,0.699323203486788,0.367384080185225));
#1797=CARTESIAN_POINT('',(-0.386875255026683,0.699496246956046,0.367594581662423));
#1798=CARTESIAN_POINT('',(-0.384568343033774,0.654613845480645,0.340320818577847));
#1799=CARTESIAN_POINT('',(-0.424642218060307,0.706455623232089,0.371771397892439));
#1800=CARTESIAN_POINT('',(-0.474523612151029,0.677983354075939,0.350887380455511));
#1801=CARTESIAN_POINT('',(-0.474474463789105,0.66516499575383,0.343097176712055));
#1802=CARTESIAN_POINT('',(-0.474474463789105,0.66516499575383,0.343097176712055));
#1803=CARTESIAN_POINT('',(-0.474572760512954,0.690801712398048,0.358677584198966));
#1804=CARTESIAN_POINT('',(-0.474572760512954,0.690801712398048,0.358677584198966));
#1805=CARTESIAN_POINT('',(-0.474523612151029,0.677983354075939,0.350887380455511));
#1806=CARTESIAN_POINT('',(-0.466572809143872,0.690819158261495,0.35869934963437));
#1807=CARTESIAN_POINT('',(-0.470595485484403,0.696730981432042,0.362286607899329));
#1808=CARTESIAN_POINT('',(-0.470595485484403,0.696730981432042,0.362286607899329));
#1809=CARTESIAN_POINT('',(-0.466572809143872,0.690819158261495,0.35869934963437));
#1810=CARTESIAN_POINT('',(-0.468095500681565,0.696736433264369,0.362293409597893));
#1811=CARTESIAN_POINT('',(-0.46484939580069,0.695055624457021,0.365079569115132));
#1812=CARTESIAN_POINT('',(-0.465600285556037,0.694664474402083,0.365718447984588));
#1813=CARTESIAN_POINT('',(-0.465595515878727,0.696741885096696,0.362300211296457));
#1814=CARTESIAN_POINT('',(-0.465595515878727,0.696741885096696,0.362300211296457));
#1815=CARTESIAN_POINT('',(-0.468095500681565,0.696736433264369,0.362293409597893));
#1816=CARTESIAN_POINT('',(-0.465523666860812,0.678002980672317,0.35091186657034));
#1817=CARTESIAN_POINT('',(-0.465528436538123,0.675925569977704,0.354330103258472));
#1818=CARTESIAN_POINT('',(-0.465456587520209,0.657186665553325,0.342941758532355));
#1819=CARTESIAN_POINT('',(-0.465451817842898,0.659264076247938,0.339523521844224));
#1820=CARTESIAN_POINT('',(-0.465451817842898,0.659264076247938,0.339523521844224));
#1821=CARTESIAN_POINT('',(-0.465523666860812,0.678002980672317,0.35091186657034));
#1822=CARTESIAN_POINT('',(-0.467951802645736,0.65925862441561,0.339516720145659));
#1823=CARTESIAN_POINT('',(-0.464705697764861,0.657577815608263,0.3423028796629));
#1824=CARTESIAN_POINT('',(-0.470451787448574,0.659253172583283,0.339509918447096));
#1825=CARTESIAN_POINT('',(-0.470451787448574,0.659253172583283,0.339509918447096));
#1826=CARTESIAN_POINT('',(-0.467951802645736,0.65925862441561,0.339516720145659));
#1827=CARTESIAN_POINT('',(-0.466474512420023,0.665182441617277,0.343118942147459));
#1828=CARTESIAN_POINT('',(-0.466474512420023,0.665182441617277,0.343118942147459));
#1829=CARTESIAN_POINT('',(-0.423460993539777,0.677248965026958,0.350512311211357));
#1830=CARTESIAN_POINT('',(-0.382573319768515,0.691002339827689,0.358927886706113));
#1831=CARTESIAN_POINT('',(-0.378596044739964,0.696931608861683,0.362536910406476));
#1832=CARTESIAN_POINT('',(-0.378596044739964,0.696931608861683,0.362536910406476));
#1833=CARTESIAN_POINT('',(-0.374573368399434,0.691019785691136,0.358949652141518));
#1834=CARTESIAN_POINT('',(-0.374573368399434,0.691019785691136,0.358949652141518));
#1835=CARTESIAN_POINT('',(-0.382573319768515,0.691002339827689,0.358927886706113));
#1836=CARTESIAN_POINT('',(-0.37452422003751,0.678201427369027,0.351159448398062));
#1837=CARTESIAN_POINT('',(-0.374475071675585,0.665383069046918,0.343369244654606));
#1838=CARTESIAN_POINT('',(-0.374475071675585,0.665383069046918,0.343369244654606));
#1839=CARTESIAN_POINT('',(-0.37452422003751,0.678201427369027,0.351159448398062));
#1840=CARTESIAN_POINT('',(-0.382475023044666,0.665365623183471,0.343347479219202));
#1841=CARTESIAN_POINT('',(-0.378452346704136,0.659453800012924,0.339760220954244));
#1842=CARTESIAN_POINT('',(-0.378452346704136,0.659453800012924,0.339760220954244));
#1843=CARTESIAN_POINT('',(-0.382475023044666,0.665365623183471,0.343347479219202));
#1844=CARTESIAN_POINT('',(-0.380952331506974,0.659448348180597,0.339753419255679));
#1845=CARTESIAN_POINT('',(-0.382458284485314,0.656848313712935,0.344022134096705));
#1846=CARTESIAN_POINT('',(-0.383457085987122,0.657365485653657,0.343164854245247));
#1847=CARTESIAN_POINT('',(-0.383452316309812,0.65944289634827,0.339746617557115));
#1848=CARTESIAN_POINT('',(-0.383452316309812,0.65944289634827,0.339746617557115));
#1849=CARTESIAN_POINT('',(-0.380952331506974,0.659448348180597,0.339753419255679));
#1850=CARTESIAN_POINT('',(-0.383524165327726,0.678181800772649,0.351134962283232));
#1851=CARTESIAN_POINT('',(-0.38348511726472,0.664676308362782,0.347607919184237));
#1852=CARTESIAN_POINT('',(-0.383600784022951,0.694843294502416,0.36594154369748));
#1853=CARTESIAN_POINT('',(-0.383596014345641,0.696920705197028,0.362523307009349));
#1854=CARTESIAN_POINT('',(-0.383596014345641,0.696920705197028,0.362523307009349));
#1855=CARTESIAN_POINT('',(-0.383524165327726,0.678181800772649,0.351134962283232));
#1856=CARTESIAN_POINT('',(-0.381096029542803,0.696926157029356,0.362530108707913));
#1857=CARTESIAN_POINT('',(-0.381096029542803,0.696926157029356,0.362530108707913));
#1858=CARTESIAN_POINT('',(-0.382601982521144,0.694326122561694,0.366798823548939));
#1859=CARTESIAN_POINT('',(-0.423460993539777,0.677248965026958,0.350512311211357));
#1860=CARTESIAN_POINT('',(-0.464524007460416,0.675601366796042,0.352964278483832));
#1861=CARTESIAN_POINT('',(-0.382486315762913,0.66415913642206,0.348465199035695));
#1862=CARTESIAN_POINT('',(-0.4246434104796,0.676026678273594,0.354448600563743));
#1863=CARTESIAN_POINT('',(-0.4246434104796,0.676026678273594,0.354448600563743));
#1864=CARTESIAN_POINT('',(-0.4246434104796,0.676026678273594,0.354448600563743));
#1865=CARTESIAN_POINT('',(-0.4246434104796,0.676026678273594,0.354448600563743));
#1866=MECHANICAL_DESIGN_GEOMETRIC_PRESENTATION_REPRESENTATION('',(#1125),
#1867);
#1867=(
GEOMETRIC_REPRESENTATION_CONTEXT(3)
GLOBAL_UNCERTAINTY_ASSIGNED_CONTEXT((#1868))
GLOBAL_UNIT_ASSIGNED_CONTEXT((#1871,#1870,#1869))
REPRESENTATION_CONTEXT('Part 1','TOP_LEVEL_ASSEMBLY_PART')
);
#1868=UNCERTAINTY_MEASURE_WITH_UNIT(LENGTH_MEASURE(1.E-8),#1871,
'DISTANCE_ACCURACY_VALUE','Maximum Tolerance applied to model');
#1869=(
NAMED_UNIT(*)
SI_UNIT($,.STERADIAN.)
SOLID_ANGLE_UNIT()
);
#1870=(
NAMED_UNIT(*)
PLANE_ANGLE_UNIT()
SI_UNIT($,.RADIAN.)
);
#1871=(
LENGTH_UNIT()
NAMED_UNIT(*)
SI_UNIT($,.METRE.)
);
#1872=PRODUCT_DEFINITION_SHAPE('','',#1873);
#1873=PRODUCT_DEFINITION('','',#1875,#1874);
#1874=PRODUCT_DEFINITION_CONTEXT('',#1881,'design');
#1875=PRODUCT_DEFINITION_FORMATION_WITH_SPECIFIED_SOURCE('','',#1877,
 .NOT_KNOWN.);
#1876=PRODUCT_RELATED_PRODUCT_CATEGORY('','',(#1877));
#1877=PRODUCT('Part 1','Part 1','Part 1',(#1879));
#1878=PRODUCT_CATEGORY('','');
#1879=PRODUCT_CONTEXT('',#1881,'mechanical');
#1880=APPLICATION_PROTOCOL_DEFINITION('international standard',
'ap242_managed_model_based_3d_engineering',2020,#1881);
#1881=APPLICATION_CONTEXT('managed model based 3d engineering');
ENDSEC;
END-ISO-10303-21;
