ISO-10303-21;
HEADER;
/* Generated by software containing ST-Developer
 * from STEP Tools, Inc. (www.steptools.com) 
 */
/* OPTION: using custom renumber hook */

FILE_DESCRIPTION(
/* description */ ('STEP AP242 Edition 2',
'CAx-IF Rec.Pracs.---Representation and Presentation of Product Manufa
cturing Information (PMI)---4.0---2014-10-13',
'CAx-IF Rec.Pracs.---3D Tessellated Geometry---0.4---2014-09-14','2;1',
'CAx-IF Rec.Pracs.---User Defined Attributes---1.5---2016-08-15'),
/* implementation_level */ '2;1');

FILE_NAME(
/* name */ 'drzak_plex_s3',
/* time_stamp */ '2026-07-10T22:08:23Z',
/* author */ (''),
/* organization */ (''),
/* preprocessor_version */ 'ST-DEVELOPER v20',
/* originating_system */ 'ONSHAPE BY PTC INC, 1.217',
/* authorisation */ '  ');

FILE_SCHEMA (('AP242_MANAGED_MODEL_BASED_3D_ENGINEERING_MIM_LF { 1 0 10303 442 3 1 4 }'));
ENDSEC;

DATA;
#10=SHAPE_REPRESENTATION_RELATIONSHIP('','',#1091,#11);
#11=ADVANCED_BREP_SHAPE_REPRESENTATION('',(#1089),#1837);
#12=PLANE('',#1105);
#13=PLANE('',#1118);
#14=PLANE('',#1123);
#15=PLANE('',#1126);
#16=PLANE('',#1131);
#17=PLANE('',#1134);
#18=PLANE('',#1139);
#19=PLANE('',#1142);
#20=PLANE('',#1147);
#21=PLANE('',#1150);
#22=PLANE('',#1151);
#23=PLANE('',#1152);
#24=PLANE('',#1153);
#25=PLANE('',#1154);
#26=PLANE('',#1155);
#27=PLANE('',#1156);
#28=PLANE('',#1157);
#29=PLANE('',#1158);
#30=PLANE('',#1159);
#31=PLANE('',#1160);
#32=PLANE('',#1161);
#33=PLANE('',#1162);
#34=PLANE('',#1163);
#35=PLANE('',#1164);
#36=PLANE('',#1165);
#37=PLANE('',#1166);
#38=PLANE('',#1179);
#39=PLANE('',#1182);
#40=PLANE('',#1183);
#41=PLANE('',#1186);
#42=PLANE('',#1187);
#43=PLANE('',#1188);
#44=PLANE('',#1191);
#45=PLANE('',#1192);
#46=PLANE('',#1193);
#47=PLANE('',#1194);
#48=PLANE('',#1197);
#49=PLANE('',#1198);
#50=PLANE('',#1201);
#51=PLANE('',#1204);
#52=PLANE('',#1207);
#53=PLANE('',#1210);
#54=LINE('',#1537,#138);
#55=LINE('',#1542,#139);
#56=LINE('',#1548,#140);
#57=LINE('',#1553,#141);
#58=LINE('',#1557,#142);
#59=LINE('',#1562,#143);
#60=LINE('',#1568,#144);
#61=LINE('',#1570,#145);
#62=LINE('',#1573,#146);
#63=LINE('',#1576,#147);
#64=LINE('',#1578,#148);
#65=LINE('',#1580,#149);
#66=LINE('',#1581,#150);
#67=LINE('',#1586,#151);
#68=LINE('',#1588,#152);
#69=LINE('',#1590,#153);
#70=LINE('',#1594,#154);
#71=LINE('',#1596,#155);
#72=LINE('',#1598,#156);
#73=LINE('',#1602,#157);
#74=LINE('',#1604,#158);
#75=LINE('',#1606,#159);
#76=LINE('',#1610,#160);
#77=LINE('',#1612,#161);
#78=LINE('',#1616,#162);
#79=LINE('',#1617,#163);
#80=LINE('',#1618,#164);
#81=LINE('',#1623,#165);
#82=LINE('',#1626,#166);
#83=LINE('',#1628,#167);
#84=LINE('',#1632,#168);
#85=LINE('',#1636,#169);
#86=LINE('',#1688,#170);
#87=LINE('',#1691,#171);
#88=LINE('',#1692,#172);
#89=LINE('',#1694,#173);
#90=LINE('',#1696,#174);
#91=LINE('',#1698,#175);
#92=LINE('',#1700,#176);
#93=LINE('',#1702,#177);
#94=LINE('',#1705,#178);
#95=LINE('',#1706,#179);
#96=LINE('',#1708,#180);
#97=LINE('',#1710,#181);
#98=LINE('',#1712,#182);
#99=LINE('',#1714,#183);
#100=LINE('',#1716,#184);
#101=LINE('',#1719,#185);
#102=LINE('',#1720,#186);
#103=LINE('',#1722,#187);
#104=LINE('',#1724,#188);
#105=LINE('',#1726,#189);
#106=LINE('',#1728,#190);
#107=LINE('',#1730,#191);
#108=LINE('',#1733,#192);
#109=LINE('',#1734,#193);
#110=LINE('',#1736,#194);
#111=LINE('',#1738,#195);
#112=LINE('',#1740,#196);
#113=LINE('',#1742,#197);
#114=LINE('',#1744,#198);
#115=LINE('',#1746,#199);
#116=LINE('',#1748,#200);
#117=LINE('',#1750,#201);
#118=LINE('',#1752,#202);
#119=LINE('',#1754,#203);
#120=LINE('',#1756,#204);
#121=LINE('',#1758,#205);
#122=LINE('',#1777,#206);
#123=LINE('',#1779,#207);
#124=LINE('',#1781,#208);
#125=LINE('',#1785,#209);
#126=LINE('',#1788,#210);
#127=LINE('',#1792,#211);
#128=LINE('',#1794,#212);
#129=LINE('',#1796,#213);
#130=LINE('',#1799,#214);
#131=LINE('',#1803,#215);
#132=LINE('',#1805,#216);
#133=LINE('',#1807,#217);
#134=LINE('',#1810,#218);
#135=LINE('',#1812,#219);
#136=LINE('',#1814,#220);
#137=LINE('',#1818,#221);
#138=VECTOR('',#1217,1.);
#139=VECTOR('',#1220,1.);
#140=VECTOR('',#1227,1.);
#141=VECTOR('',#1230,1.);
#142=VECTOR('',#1235,1.);
#143=VECTOR('',#1238,1.);
#144=VECTOR('',#1245,1.);
#145=VECTOR('',#1246,1.);
#146=VECTOR('',#1249,1.);
#147=VECTOR('',#1250,1.);
#148=VECTOR('',#1251,1.);
#149=VECTOR('',#1252,1.);
#150=VECTOR('',#1253,1.);
#151=VECTOR('',#1256,1.);
#152=VECTOR('',#1257,1.);
#153=VECTOR('',#1258,1.);
#154=VECTOR('',#1261,1.);
#155=VECTOR('',#1262,1.);
#156=VECTOR('',#1263,1.);
#157=VECTOR('',#1266,1.);
#158=VECTOR('',#1267,1.);
#159=VECTOR('',#1268,1.);
#160=VECTOR('',#1271,1.);
#161=VECTOR('',#1272,1.);
#162=VECTOR('',#1275,1.);
#163=VECTOR('',#1276,1.);
#164=VECTOR('',#1277,1.);
#165=VECTOR('',#1280,1.);
#166=VECTOR('',#1283,1.);
#167=VECTOR('',#1284,1.);
#168=VECTOR('',#1289,1.);
#169=VECTOR('',#1292,1.);
#170=VECTOR('',#1361,1.);
#171=VECTOR('',#1362,1.);
#172=VECTOR('',#1363,1.);
#173=VECTOR('',#1366,1.);
#174=VECTOR('',#1367,1.);
#175=VECTOR('',#1370,1.);
#176=VECTOR('',#1371,1.);
#177=VECTOR('',#1374,1.);
#178=VECTOR('',#1375,1.);
#179=VECTOR('',#1376,1.);
#180=VECTOR('',#1379,1.);
#181=VECTOR('',#1380,1.);
#182=VECTOR('',#1383,1.);
#183=VECTOR('',#1384,1.);
#184=VECTOR('',#1387,1.);
#185=VECTOR('',#1388,1.);
#186=VECTOR('',#1389,1.);
#187=VECTOR('',#1392,1.);
#188=VECTOR('',#1393,1.);
#189=VECTOR('',#1396,1.);
#190=VECTOR('',#1397,1.);
#191=VECTOR('',#1400,1.);
#192=VECTOR('',#1401,1.);
#193=VECTOR('',#1402,1.);
#194=VECTOR('',#1405,1.);
#195=VECTOR('',#1406,1.);
#196=VECTOR('',#1409,1.);
#197=VECTOR('',#1410,1.);
#198=VECTOR('',#1411,1.);
#199=VECTOR('',#1414,1.);
#200=VECTOR('',#1415,1.);
#201=VECTOR('',#1418,1.);
#202=VECTOR('',#1419,1.);
#203=VECTOR('',#1422,1.);
#204=VECTOR('',#1423,1.);
#205=VECTOR('',#1426,1.);
#206=VECTOR('',#1455,1.);
#207=VECTOR('',#1456,1.);
#208=VECTOR('',#1459,1.);
#209=VECTOR('',#1464,1.);
#210=VECTOR('',#1469,1.);
#211=VECTOR('',#1472,1.);
#212=VECTOR('',#1475,1.);
#213=VECTOR('',#1478,1.);
#214=VECTOR('',#1483,1.);
#215=VECTOR('',#1486,1.);
#216=VECTOR('',#1489,1.);
#217=VECTOR('',#1492,1.);
#218=VECTOR('',#1497,1.);
#219=VECTOR('',#1498,1.);
#220=VECTOR('',#1501,1.);
#221=VECTOR('',#1506,1.);
#222=ORIENTED_EDGE('',*,*,#494,.T.);
#223=ORIENTED_EDGE('',*,*,#495,.F.);
#224=ORIENTED_EDGE('',*,*,#496,.F.);
#225=ORIENTED_EDGE('',*,*,#497,.T.);
#226=ORIENTED_EDGE('',*,*,#498,.F.);
#227=ORIENTED_EDGE('',*,*,#499,.T.);
#228=ORIENTED_EDGE('',*,*,#500,.F.);
#229=ORIENTED_EDGE('',*,*,#501,.T.);
#230=ORIENTED_EDGE('',*,*,#502,.T.);
#231=ORIENTED_EDGE('',*,*,#503,.F.);
#232=ORIENTED_EDGE('',*,*,#504,.T.);
#233=ORIENTED_EDGE('',*,*,#505,.F.);
#234=ORIENTED_EDGE('',*,*,#506,.F.);
#235=ORIENTED_EDGE('',*,*,#507,.F.);
#236=ORIENTED_EDGE('',*,*,#508,.T.);
#237=ORIENTED_EDGE('',*,*,#509,.F.);
#238=ORIENTED_EDGE('',*,*,#503,.T.);
#239=ORIENTED_EDGE('',*,*,#510,.F.);
#240=ORIENTED_EDGE('',*,*,#511,.F.);
#241=ORIENTED_EDGE('',*,*,#512,.T.);
#242=ORIENTED_EDGE('',*,*,#513,.T.);
#243=ORIENTED_EDGE('',*,*,#514,.F.);
#244=ORIENTED_EDGE('',*,*,#515,.F.);
#245=ORIENTED_EDGE('',*,*,#516,.F.);
#246=ORIENTED_EDGE('',*,*,#517,.T.);
#247=ORIENTED_EDGE('',*,*,#518,.F.);
#248=ORIENTED_EDGE('',*,*,#519,.T.);
#249=ORIENTED_EDGE('',*,*,#520,.T.);
#250=ORIENTED_EDGE('',*,*,#521,.T.);
#251=ORIENTED_EDGE('',*,*,#522,.T.);
#252=ORIENTED_EDGE('',*,*,#523,.T.);
#253=ORIENTED_EDGE('',*,*,#524,.T.);
#254=ORIENTED_EDGE('',*,*,#525,.T.);
#255=ORIENTED_EDGE('',*,*,#526,.T.);
#256=ORIENTED_EDGE('',*,*,#527,.F.);
#257=ORIENTED_EDGE('',*,*,#528,.F.);
#258=ORIENTED_EDGE('',*,*,#529,.T.);
#259=ORIENTED_EDGE('',*,*,#530,.F.);
#260=ORIENTED_EDGE('',*,*,#531,.F.);
#261=ORIENTED_EDGE('',*,*,#532,.T.);
#262=ORIENTED_EDGE('',*,*,#533,.T.);
#263=ORIENTED_EDGE('',*,*,#498,.T.);
#264=ORIENTED_EDGE('',*,*,#534,.T.);
#265=ORIENTED_EDGE('',*,*,#535,.F.);
#266=ORIENTED_EDGE('',*,*,#536,.T.);
#267=ORIENTED_EDGE('',*,*,#537,.T.);
#268=ORIENTED_EDGE('',*,*,#538,.F.);
#269=ORIENTED_EDGE('',*,*,#539,.F.);
#270=ORIENTED_EDGE('',*,*,#505,.T.);
#271=ORIENTED_EDGE('',*,*,#540,.T.);
#272=ORIENTED_EDGE('',*,*,#541,.T.);
#273=ORIENTED_EDGE('',*,*,#542,.F.);
#274=ORIENTED_EDGE('',*,*,#543,.T.);
#275=ORIENTED_EDGE('',*,*,#544,.T.);
#276=ORIENTED_EDGE('',*,*,#536,.F.);
#277=ORIENTED_EDGE('',*,*,#545,.T.);
#278=ORIENTED_EDGE('',*,*,#546,.F.);
#279=ORIENTED_EDGE('',*,*,#547,.T.);
#280=ORIENTED_EDGE('',*,*,#546,.T.);
#281=ORIENTED_EDGE('',*,*,#548,.F.);
#282=ORIENTED_EDGE('',*,*,#548,.T.);
#283=ORIENTED_EDGE('',*,*,#508,.F.);
#284=ORIENTED_EDGE('',*,*,#547,.F.);
#285=ORIENTED_EDGE('',*,*,#549,.T.);
#286=ORIENTED_EDGE('',*,*,#550,.F.);
#287=ORIENTED_EDGE('',*,*,#551,.T.);
#288=ORIENTED_EDGE('',*,*,#550,.T.);
#289=ORIENTED_EDGE('',*,*,#552,.F.);
#290=ORIENTED_EDGE('',*,*,#552,.T.);
#291=ORIENTED_EDGE('',*,*,#494,.F.);
#292=ORIENTED_EDGE('',*,*,#551,.F.);
#293=ORIENTED_EDGE('',*,*,#553,.T.);
#294=ORIENTED_EDGE('',*,*,#554,.F.);
#295=ORIENTED_EDGE('',*,*,#555,.T.);
#296=ORIENTED_EDGE('',*,*,#554,.T.);
#297=ORIENTED_EDGE('',*,*,#556,.F.);
#298=ORIENTED_EDGE('',*,*,#556,.T.);
#299=ORIENTED_EDGE('',*,*,#545,.F.);
#300=ORIENTED_EDGE('',*,*,#555,.F.);
#301=ORIENTED_EDGE('',*,*,#557,.T.);
#302=ORIENTED_EDGE('',*,*,#558,.F.);
#303=ORIENTED_EDGE('',*,*,#559,.T.);
#304=ORIENTED_EDGE('',*,*,#558,.T.);
#305=ORIENTED_EDGE('',*,*,#560,.F.);
#306=ORIENTED_EDGE('',*,*,#560,.T.);
#307=ORIENTED_EDGE('',*,*,#499,.F.);
#308=ORIENTED_EDGE('',*,*,#559,.F.);
#309=ORIENTED_EDGE('',*,*,#561,.T.);
#310=ORIENTED_EDGE('',*,*,#562,.T.);
#311=ORIENTED_EDGE('',*,*,#563,.T.);
#312=ORIENTED_EDGE('',*,*,#524,.F.);
#313=ORIENTED_EDGE('',*,*,#564,.F.);
#314=ORIENTED_EDGE('',*,*,#523,.F.);
#315=ORIENTED_EDGE('',*,*,#565,.F.);
#316=ORIENTED_EDGE('',*,*,#566,.T.);
#317=ORIENTED_EDGE('',*,*,#564,.T.);
#318=ORIENTED_EDGE('',*,*,#522,.F.);
#319=ORIENTED_EDGE('',*,*,#567,.T.);
#320=ORIENTED_EDGE('',*,*,#568,.T.);
#321=ORIENTED_EDGE('',*,*,#565,.T.);
#322=ORIENTED_EDGE('',*,*,#569,.T.);
#323=ORIENTED_EDGE('',*,*,#570,.T.);
#324=ORIENTED_EDGE('',*,*,#520,.F.);
#325=ORIENTED_EDGE('',*,*,#571,.F.);
#326=ORIENTED_EDGE('',*,*,#519,.F.);
#327=ORIENTED_EDGE('',*,*,#572,.F.);
#328=ORIENTED_EDGE('',*,*,#573,.T.);
#329=ORIENTED_EDGE('',*,*,#571,.T.);
#330=ORIENTED_EDGE('',*,*,#518,.T.);
#331=ORIENTED_EDGE('',*,*,#574,.T.);
#332=ORIENTED_EDGE('',*,*,#575,.F.);
#333=ORIENTED_EDGE('',*,*,#572,.T.);
#334=ORIENTED_EDGE('',*,*,#576,.F.);
#335=ORIENTED_EDGE('',*,*,#577,.T.);
#336=ORIENTED_EDGE('',*,*,#516,.T.);
#337=ORIENTED_EDGE('',*,*,#578,.F.);
#338=ORIENTED_EDGE('',*,*,#531,.T.);
#339=ORIENTED_EDGE('',*,*,#579,.F.);
#340=ORIENTED_EDGE('',*,*,#580,.F.);
#341=ORIENTED_EDGE('',*,*,#578,.T.);
#342=ORIENTED_EDGE('',*,*,#530,.T.);
#343=ORIENTED_EDGE('',*,*,#581,.T.);
#344=ORIENTED_EDGE('',*,*,#582,.F.);
#345=ORIENTED_EDGE('',*,*,#579,.T.);
#346=ORIENTED_EDGE('',*,*,#583,.F.);
#347=ORIENTED_EDGE('',*,*,#584,.T.);
#348=ORIENTED_EDGE('',*,*,#528,.T.);
#349=ORIENTED_EDGE('',*,*,#585,.F.);
#350=ORIENTED_EDGE('',*,*,#527,.T.);
#351=ORIENTED_EDGE('',*,*,#586,.F.);
#352=ORIENTED_EDGE('',*,*,#587,.F.);
#353=ORIENTED_EDGE('',*,*,#585,.T.);
#354=ORIENTED_EDGE('',*,*,#512,.F.);
#355=ORIENTED_EDGE('',*,*,#588,.F.);
#356=ORIENTED_EDGE('',*,*,#589,.T.);
#357=ORIENTED_EDGE('',*,*,#590,.T.);
#358=ORIENTED_EDGE('',*,*,#515,.T.);
#359=ORIENTED_EDGE('',*,*,#591,.F.);
#360=ORIENTED_EDGE('',*,*,#592,.F.);
#361=ORIENTED_EDGE('',*,*,#588,.T.);
#362=ORIENTED_EDGE('',*,*,#514,.T.);
#363=ORIENTED_EDGE('',*,*,#593,.F.);
#364=ORIENTED_EDGE('',*,*,#594,.F.);
#365=ORIENTED_EDGE('',*,*,#591,.T.);
#366=ORIENTED_EDGE('',*,*,#526,.F.);
#367=ORIENTED_EDGE('',*,*,#595,.T.);
#368=ORIENTED_EDGE('',*,*,#596,.T.);
#369=ORIENTED_EDGE('',*,*,#586,.T.);
#370=ORIENTED_EDGE('',*,*,#513,.F.);
#371=ORIENTED_EDGE('',*,*,#590,.F.);
#372=ORIENTED_EDGE('',*,*,#597,.T.);
#373=ORIENTED_EDGE('',*,*,#593,.T.);
#374=ORIENTED_EDGE('',*,*,#598,.F.);
#375=ORIENTED_EDGE('',*,*,#599,.F.);
#376=ORIENTED_EDGE('',*,*,#600,.F.);
#377=ORIENTED_EDGE('',*,*,#601,.F.);
#378=ORIENTED_EDGE('',*,*,#589,.F.);
#379=ORIENTED_EDGE('',*,*,#592,.T.);
#380=ORIENTED_EDGE('',*,*,#594,.T.);
#381=ORIENTED_EDGE('',*,*,#597,.F.);
#382=ORIENTED_EDGE('',*,*,#575,.T.);
#383=ORIENTED_EDGE('',*,*,#602,.T.);
#384=ORIENTED_EDGE('',*,*,#576,.T.);
#385=ORIENTED_EDGE('',*,*,#580,.T.);
#386=ORIENTED_EDGE('',*,*,#582,.T.);
#387=ORIENTED_EDGE('',*,*,#603,.T.);
#388=ORIENTED_EDGE('',*,*,#583,.T.);
#389=ORIENTED_EDGE('',*,*,#587,.T.);
#390=ORIENTED_EDGE('',*,*,#596,.F.);
#391=ORIENTED_EDGE('',*,*,#604,.T.);
#392=ORIENTED_EDGE('',*,*,#562,.F.);
#393=ORIENTED_EDGE('',*,*,#566,.F.);
#394=ORIENTED_EDGE('',*,*,#568,.F.);
#395=ORIENTED_EDGE('',*,*,#605,.T.);
#396=ORIENTED_EDGE('',*,*,#569,.F.);
#397=ORIENTED_EDGE('',*,*,#573,.F.);
#398=ORIENTED_EDGE('',*,*,#549,.F.);
#399=ORIENTED_EDGE('',*,*,#553,.F.);
#400=ORIENTED_EDGE('',*,*,#561,.F.);
#401=ORIENTED_EDGE('',*,*,#557,.F.);
#402=ORIENTED_EDGE('',*,*,#602,.F.);
#403=ORIENTED_EDGE('',*,*,#574,.F.);
#404=ORIENTED_EDGE('',*,*,#517,.F.);
#405=ORIENTED_EDGE('',*,*,#577,.F.);
#406=ORIENTED_EDGE('',*,*,#603,.F.);
#407=ORIENTED_EDGE('',*,*,#581,.F.);
#408=ORIENTED_EDGE('',*,*,#529,.F.);
#409=ORIENTED_EDGE('',*,*,#584,.F.);
#410=ORIENTED_EDGE('',*,*,#605,.F.);
#411=ORIENTED_EDGE('',*,*,#567,.F.);
#412=ORIENTED_EDGE('',*,*,#521,.F.);
#413=ORIENTED_EDGE('',*,*,#570,.F.);
#414=ORIENTED_EDGE('',*,*,#604,.F.);
#415=ORIENTED_EDGE('',*,*,#595,.F.);
#416=ORIENTED_EDGE('',*,*,#525,.F.);
#417=ORIENTED_EDGE('',*,*,#563,.F.);
#418=ORIENTED_EDGE('',*,*,#535,.T.);
#419=ORIENTED_EDGE('',*,*,#606,.F.);
#420=ORIENTED_EDGE('',*,*,#607,.F.);
#421=ORIENTED_EDGE('',*,*,#542,.T.);
#422=ORIENTED_EDGE('',*,*,#538,.T.);
#423=ORIENTED_EDGE('',*,*,#608,.F.);
#424=ORIENTED_EDGE('',*,*,#609,.F.);
#425=ORIENTED_EDGE('',*,*,#606,.T.);
#426=ORIENTED_EDGE('',*,*,#537,.F.);
#427=ORIENTED_EDGE('',*,*,#544,.F.);
#428=ORIENTED_EDGE('',*,*,#610,.T.);
#429=ORIENTED_EDGE('',*,*,#608,.T.);
#430=ORIENTED_EDGE('',*,*,#607,.T.);
#431=ORIENTED_EDGE('',*,*,#609,.T.);
#432=ORIENTED_EDGE('',*,*,#610,.F.);
#433=ORIENTED_EDGE('',*,*,#543,.F.);
#434=ORIENTED_EDGE('',*,*,#541,.F.);
#435=ORIENTED_EDGE('',*,*,#611,.F.);
#436=ORIENTED_EDGE('',*,*,#612,.T.);
#437=ORIENTED_EDGE('',*,*,#613,.T.);
#438=ORIENTED_EDGE('',*,*,#540,.F.);
#439=ORIENTED_EDGE('',*,*,#504,.F.);
#440=ORIENTED_EDGE('',*,*,#614,.T.);
#441=ORIENTED_EDGE('',*,*,#611,.T.);
#442=ORIENTED_EDGE('',*,*,#539,.T.);
#443=ORIENTED_EDGE('',*,*,#613,.F.);
#444=ORIENTED_EDGE('',*,*,#615,.F.);
#445=ORIENTED_EDGE('',*,*,#506,.T.);
#446=ORIENTED_EDGE('',*,*,#612,.F.);
#447=ORIENTED_EDGE('',*,*,#614,.F.);
#448=ORIENTED_EDGE('',*,*,#507,.T.);
#449=ORIENTED_EDGE('',*,*,#615,.T.);
#450=ORIENTED_EDGE('',*,*,#511,.T.);
#451=ORIENTED_EDGE('',*,*,#616,.F.);
#452=ORIENTED_EDGE('',*,*,#617,.F.);
#453=ORIENTED_EDGE('',*,*,#618,.T.);
#454=ORIENTED_EDGE('',*,*,#510,.T.);
#455=ORIENTED_EDGE('',*,*,#502,.F.);
#456=ORIENTED_EDGE('',*,*,#619,.F.);
#457=ORIENTED_EDGE('',*,*,#616,.T.);
#458=ORIENTED_EDGE('',*,*,#509,.T.);
#459=ORIENTED_EDGE('',*,*,#618,.F.);
#460=ORIENTED_EDGE('',*,*,#620,.F.);
#461=ORIENTED_EDGE('',*,*,#500,.T.);
#462=ORIENTED_EDGE('',*,*,#617,.T.);
#463=ORIENTED_EDGE('',*,*,#619,.T.);
#464=ORIENTED_EDGE('',*,*,#501,.F.);
#465=ORIENTED_EDGE('',*,*,#620,.T.);
#466=ORIENTED_EDGE('',*,*,#533,.F.);
#467=ORIENTED_EDGE('',*,*,#621,.F.);
#468=ORIENTED_EDGE('',*,*,#622,.T.);
#469=ORIENTED_EDGE('',*,*,#495,.T.);
#470=ORIENTED_EDGE('',*,*,#532,.F.);
#471=ORIENTED_EDGE('',*,*,#623,.F.);
#472=ORIENTED_EDGE('',*,*,#624,.T.);
#473=ORIENTED_EDGE('',*,*,#621,.T.);
#474=ORIENTED_EDGE('',*,*,#534,.F.);
#475=ORIENTED_EDGE('',*,*,#497,.F.);
#476=ORIENTED_EDGE('',*,*,#625,.T.);
#477=ORIENTED_EDGE('',*,*,#623,.T.);
#478=ORIENTED_EDGE('',*,*,#622,.F.);
#479=ORIENTED_EDGE('',*,*,#624,.F.);
#480=ORIENTED_EDGE('',*,*,#625,.F.);
#481=ORIENTED_EDGE('',*,*,#496,.T.);
#482=ORIENTED_EDGE('',*,*,#626,.F.);
#483=ORIENTED_EDGE('',*,*,#601,.T.);
#484=ORIENTED_EDGE('',*,*,#626,.T.);
#485=ORIENTED_EDGE('',*,*,#627,.F.);
#486=ORIENTED_EDGE('',*,*,#600,.T.);
#487=ORIENTED_EDGE('',*,*,#627,.T.);
#488=ORIENTED_EDGE('',*,*,#628,.F.);
#489=ORIENTED_EDGE('',*,*,#599,.T.);
#490=ORIENTED_EDGE('',*,*,#628,.T.);
#491=ORIENTED_EDGE('',*,*,#629,.F.);
#492=ORIENTED_EDGE('',*,*,#598,.T.);
#493=ORIENTED_EDGE('',*,*,#629,.T.);
#494=EDGE_CURVE('',#630,#630,#730,.T.);
#495=EDGE_CURVE('',#631,#632,#54,.T.);
#496=EDGE_CURVE('',#633,#631,#731,.T.);
#497=EDGE_CURVE('',#633,#634,#55,.T.);
#498=EDGE_CURVE('',#632,#634,#732,.T.);
#499=EDGE_CURVE('',#635,#635,#733,.T.);
#500=EDGE_CURVE('',#636,#637,#56,.T.);
#501=EDGE_CURVE('',#636,#638,#734,.T.);
#502=EDGE_CURVE('',#638,#639,#57,.T.);
#503=EDGE_CURVE('',#637,#639,#735,.T.);
#504=EDGE_CURVE('',#640,#641,#58,.T.);
#505=EDGE_CURVE('',#642,#641,#736,.T.);
#506=EDGE_CURVE('',#643,#642,#59,.T.);
#507=EDGE_CURVE('',#640,#643,#737,.T.);
#508=EDGE_CURVE('',#644,#644,#738,.T.);
#509=EDGE_CURVE('',#637,#645,#60,.T.);
#510=EDGE_CURVE('',#646,#639,#61,.T.);
#511=EDGE_CURVE('',#645,#646,#739,.T.);
#512=EDGE_CURVE('',#647,#648,#62,.T.);
#513=EDGE_CURVE('',#648,#649,#63,.T.);
#514=EDGE_CURVE('',#650,#649,#64,.T.);
#515=EDGE_CURVE('',#647,#650,#65,.T.);
#516=EDGE_CURVE('',#651,#652,#66,.T.);
#517=EDGE_CURVE('',#651,#653,#740,.F.);
#518=EDGE_CURVE('',#654,#653,#67,.T.);
#519=EDGE_CURVE('',#654,#655,#68,.T.);
#520=EDGE_CURVE('',#655,#656,#69,.T.);
#521=EDGE_CURVE('',#656,#657,#741,.F.);
#522=EDGE_CURVE('',#657,#658,#70,.T.);
#523=EDGE_CURVE('',#658,#659,#71,.T.);
#524=EDGE_CURVE('',#659,#660,#72,.T.);
#525=EDGE_CURVE('',#660,#661,#742,.F.);
#526=EDGE_CURVE('',#661,#662,#73,.T.);
#527=EDGE_CURVE('',#663,#662,#74,.T.);
#528=EDGE_CURVE('',#664,#663,#75,.T.);
#529=EDGE_CURVE('',#664,#665,#743,.F.);
#530=EDGE_CURVE('',#666,#665,#76,.T.);
#531=EDGE_CURVE('',#652,#666,#77,.T.);
#532=EDGE_CURVE('',#667,#668,#744,.T.);
#533=EDGE_CURVE('',#668,#632,#78,.T.);
#534=EDGE_CURVE('',#634,#667,#79,.T.);
#535=EDGE_CURVE('',#669,#670,#80,.T.);
#536=EDGE_CURVE('',#669,#671,#745,.T.);
#537=EDGE_CURVE('',#671,#672,#81,.T.);
#538=EDGE_CURVE('',#670,#672,#746,.T.);
#539=EDGE_CURVE('',#642,#673,#82,.T.);
#540=EDGE_CURVE('',#641,#674,#83,.T.);
#541=EDGE_CURVE('',#674,#673,#747,.T.);
#542=EDGE_CURVE('',#675,#669,#84,.T.);
#543=EDGE_CURVE('',#675,#676,#748,.T.);
#544=EDGE_CURVE('',#676,#671,#85,.T.);
#545=EDGE_CURVE('',#677,#677,#749,.T.);
#546=EDGE_CURVE('',#678,#678,#750,.T.);
#547=EDGE_CURVE('',#679,#679,#751,.T.);
#548=EDGE_CURVE('',#680,#680,#752,.T.);
#549=EDGE_CURVE('',#681,#681,#753,.T.);
#550=EDGE_CURVE('',#682,#682,#754,.T.);
#551=EDGE_CURVE('',#683,#683,#755,.T.);
#552=EDGE_CURVE('',#684,#684,#756,.T.);
#553=EDGE_CURVE('',#685,#685,#757,.T.);
#554=EDGE_CURVE('',#686,#686,#758,.T.);
#555=EDGE_CURVE('',#687,#687,#759,.T.);
#556=EDGE_CURVE('',#688,#688,#760,.T.);
#557=EDGE_CURVE('',#689,#689,#761,.T.);
#558=EDGE_CURVE('',#690,#690,#762,.T.);
#559=EDGE_CURVE('',#691,#691,#763,.T.);
#560=EDGE_CURVE('',#692,#692,#764,.T.);
#561=EDGE_CURVE('',#693,#693,#765,.T.);
#562=EDGE_CURVE('',#694,#695,#86,.T.);
#563=EDGE_CURVE('',#695,#660,#87,.T.);
#564=EDGE_CURVE('',#694,#659,#88,.T.);
#565=EDGE_CURVE('',#696,#658,#89,.T.);
#566=EDGE_CURVE('',#696,#694,#90,.T.);
#567=EDGE_CURVE('',#657,#697,#91,.F.);
#568=EDGE_CURVE('',#697,#696,#92,.T.);
#569=EDGE_CURVE('',#698,#699,#93,.T.);
#570=EDGE_CURVE('',#699,#656,#94,.T.);
#571=EDGE_CURVE('',#698,#655,#95,.T.);
#572=EDGE_CURVE('',#700,#654,#96,.T.);
#573=EDGE_CURVE('',#700,#698,#97,.T.);
#574=EDGE_CURVE('',#653,#701,#98,.F.);
#575=EDGE_CURVE('',#700,#701,#99,.T.);
#576=EDGE_CURVE('',#702,#703,#100,.T.);
#577=EDGE_CURVE('',#702,#651,#101,.T.);
#578=EDGE_CURVE('',#703,#652,#102,.T.);
#579=EDGE_CURVE('',#704,#666,#103,.T.);
#580=EDGE_CURVE('',#703,#704,#104,.T.);
#581=EDGE_CURVE('',#665,#705,#105,.F.);
#582=EDGE_CURVE('',#704,#705,#106,.T.);
#583=EDGE_CURVE('',#706,#707,#107,.T.);
#584=EDGE_CURVE('',#706,#664,#108,.T.);
#585=EDGE_CURVE('',#707,#663,#109,.T.);
#586=EDGE_CURVE('',#708,#662,#110,.T.);
#587=EDGE_CURVE('',#707,#708,#111,.T.);
#588=EDGE_CURVE('',#709,#647,#112,.T.);
#589=EDGE_CURVE('',#709,#710,#113,.T.);
#590=EDGE_CURVE('',#710,#648,#114,.T.);
#591=EDGE_CURVE('',#711,#650,#115,.T.);
#592=EDGE_CURVE('',#709,#711,#116,.T.);
#593=EDGE_CURVE('',#712,#649,#117,.T.);
#594=EDGE_CURVE('',#711,#712,#118,.T.);
#595=EDGE_CURVE('',#661,#713,#119,.F.);
#596=EDGE_CURVE('',#713,#708,#120,.T.);
#597=EDGE_CURVE('',#710,#712,#121,.T.);
#598=EDGE_CURVE('',#714,#714,#766,.T.);
#599=EDGE_CURVE('',#715,#715,#767,.T.);
#600=EDGE_CURVE('',#716,#716,#768,.T.);
#601=EDGE_CURVE('',#717,#717,#769,.T.);
#602=EDGE_CURVE('',#701,#702,#770,.T.);
#603=EDGE_CURVE('',#705,#706,#771,.T.);
#604=EDGE_CURVE('',#713,#695,#772,.T.);
#605=EDGE_CURVE('',#697,#699,#773,.T.);
#606=EDGE_CURVE('',#718,#670,#122,.T.);
#607=EDGE_CURVE('',#675,#718,#123,.T.);
#608=EDGE_CURVE('',#719,#672,#124,.T.);
#609=EDGE_CURVE('',#718,#719,#774,.T.);
#610=EDGE_CURVE('',#676,#719,#125,.T.);
#611=EDGE_CURVE('',#720,#674,#126,.T.);
#612=EDGE_CURVE('',#720,#721,#775,.T.);
#613=EDGE_CURVE('',#721,#673,#127,.T.);
#614=EDGE_CURVE('',#640,#720,#128,.T.);
#615=EDGE_CURVE('',#643,#721,#129,.T.);
#616=EDGE_CURVE('',#722,#646,#130,.T.);
#617=EDGE_CURVE('',#723,#722,#776,.T.);
#618=EDGE_CURVE('',#723,#645,#131,.T.);
#619=EDGE_CURVE('',#722,#638,#132,.T.);
#620=EDGE_CURVE('',#636,#723,#133,.T.);
#621=EDGE_CURVE('',#724,#668,#134,.T.);
#622=EDGE_CURVE('',#724,#631,#135,.T.);
#623=EDGE_CURVE('',#725,#667,#136,.T.);
#624=EDGE_CURVE('',#725,#724,#777,.T.);
#625=EDGE_CURVE('',#633,#725,#137,.T.);
#626=EDGE_CURVE('',#726,#726,#778,.T.);
#627=EDGE_CURVE('',#727,#727,#779,.T.);
#628=EDGE_CURVE('',#728,#728,#780,.T.);
#629=EDGE_CURVE('',#729,#729,#781,.T.);
#630=VERTEX_POINT('',#1536);
#631=VERTEX_POINT('',#1538);
#632=VERTEX_POINT('',#1539);
#633=VERTEX_POINT('',#1541);
#634=VERTEX_POINT('',#1543);
#635=VERTEX_POINT('',#1547);
#636=VERTEX_POINT('',#1549);
#637=VERTEX_POINT('',#1550);
#638=VERTEX_POINT('',#1552);
#639=VERTEX_POINT('',#1554);
#640=VERTEX_POINT('',#1558);
#641=VERTEX_POINT('',#1559);
#642=VERTEX_POINT('',#1561);
#643=VERTEX_POINT('',#1563);
#644=VERTEX_POINT('',#1566);
#645=VERTEX_POINT('',#1569);
#646=VERTEX_POINT('',#1571);
#647=VERTEX_POINT('',#1574);
#648=VERTEX_POINT('',#1575);
#649=VERTEX_POINT('',#1577);
#650=VERTEX_POINT('',#1579);
#651=VERTEX_POINT('',#1582);
#652=VERTEX_POINT('',#1583);
#653=VERTEX_POINT('',#1585);
#654=VERTEX_POINT('',#1587);
#655=VERTEX_POINT('',#1589);
#656=VERTEX_POINT('',#1591);
#657=VERTEX_POINT('',#1593);
#658=VERTEX_POINT('',#1595);
#659=VERTEX_POINT('',#1597);
#660=VERTEX_POINT('',#1599);
#661=VERTEX_POINT('',#1601);
#662=VERTEX_POINT('',#1603);
#663=VERTEX_POINT('',#1605);
#664=VERTEX_POINT('',#1607);
#665=VERTEX_POINT('',#1609);
#666=VERTEX_POINT('',#1611);
#667=VERTEX_POINT('',#1614);
#668=VERTEX_POINT('',#1615);
#669=VERTEX_POINT('',#1619);
#670=VERTEX_POINT('',#1620);
#671=VERTEX_POINT('',#1622);
#672=VERTEX_POINT('',#1624);
#673=VERTEX_POINT('',#1627);
#674=VERTEX_POINT('',#1629);
#675=VERTEX_POINT('',#1633);
#676=VERTEX_POINT('',#1635);
#677=VERTEX_POINT('',#1638);
#678=VERTEX_POINT('',#1641);
#679=VERTEX_POINT('',#1643);
#680=VERTEX_POINT('',#1646);
#681=VERTEX_POINT('',#1650);
#682=VERTEX_POINT('',#1653);
#683=VERTEX_POINT('',#1655);
#684=VERTEX_POINT('',#1658);
#685=VERTEX_POINT('',#1662);
#686=VERTEX_POINT('',#1665);
#687=VERTEX_POINT('',#1667);
#688=VERTEX_POINT('',#1670);
#689=VERTEX_POINT('',#1674);
#690=VERTEX_POINT('',#1677);
#691=VERTEX_POINT('',#1679);
#692=VERTEX_POINT('',#1682);
#693=VERTEX_POINT('',#1686);
#694=VERTEX_POINT('',#1689);
#695=VERTEX_POINT('',#1690);
#696=VERTEX_POINT('',#1695);
#697=VERTEX_POINT('',#1699);
#698=VERTEX_POINT('',#1703);
#699=VERTEX_POINT('',#1704);
#700=VERTEX_POINT('',#1709);
#701=VERTEX_POINT('',#1713);
#702=VERTEX_POINT('',#1717);
#703=VERTEX_POINT('',#1718);
#704=VERTEX_POINT('',#1723);
#705=VERTEX_POINT('',#1727);
#706=VERTEX_POINT('',#1731);
#707=VERTEX_POINT('',#1732);
#708=VERTEX_POINT('',#1737);
#709=VERTEX_POINT('',#1741);
#710=VERTEX_POINT('',#1743);
#711=VERTEX_POINT('',#1747);
#712=VERTEX_POINT('',#1751);
#713=VERTEX_POINT('',#1755);
#714=VERTEX_POINT('',#1761);
#715=VERTEX_POINT('',#1763);
#716=VERTEX_POINT('',#1765);
#717=VERTEX_POINT('',#1767);
#718=VERTEX_POINT('',#1778);
#719=VERTEX_POINT('',#1782);
#720=VERTEX_POINT('',#1789);
#721=VERTEX_POINT('',#1791);
#722=VERTEX_POINT('',#1800);
#723=VERTEX_POINT('',#1802);
#724=VERTEX_POINT('',#1811);
#725=VERTEX_POINT('',#1815);
#726=VERTEX_POINT('',#1822);
#727=VERTEX_POINT('',#1826);
#728=VERTEX_POINT('',#1830);
#729=VERTEX_POINT('',#1834);
#730=CIRCLE('',#1094,0.006);
#731=CIRCLE('',#1095,0.006);
#732=CIRCLE('',#1096,0.006);
#733=CIRCLE('',#1098,0.006);
#734=CIRCLE('',#1099,0.006);
#735=CIRCLE('',#1100,0.006);
#736=CIRCLE('',#1102,0.006);
#737=CIRCLE('',#1103,0.006);
#738=CIRCLE('',#1104,0.006);
#739=CIRCLE('',#1106,0.004);
#740=CIRCLE('',#1107,0.007);
#741=CIRCLE('',#1108,0.007);
#742=CIRCLE('',#1109,0.007);
#743=CIRCLE('',#1110,0.007);
#744=CIRCLE('',#1111,0.004);
#745=CIRCLE('',#1112,0.006);
#746=CIRCLE('',#1113,0.004);
#747=CIRCLE('',#1114,0.004);
#748=CIRCLE('',#1116,0.006);
#749=CIRCLE('',#1117,0.006);
#750=CIRCLE('',#1119,0.0016);
#751=CIRCLE('',#1120,0.003);
#752=CIRCLE('',#1122,0.0016);
#753=CIRCLE('',#1125,0.003);
#754=CIRCLE('',#1127,0.0016);
#755=CIRCLE('',#1128,0.003);
#756=CIRCLE('',#1130,0.0016);
#757=CIRCLE('',#1133,0.003);
#758=CIRCLE('',#1135,0.0016);
#759=CIRCLE('',#1136,0.003);
#760=CIRCLE('',#1138,0.0016);
#761=CIRCLE('',#1141,0.003);
#762=CIRCLE('',#1143,0.0016);
#763=CIRCLE('',#1144,0.003);
#764=CIRCLE('',#1146,0.0016);
#765=CIRCLE('',#1149,0.003);
#766=CIRCLE('',#1167,0.002);
#767=CIRCLE('',#1168,0.002);
#768=CIRCLE('',#1169,0.002);
#769=CIRCLE('',#1170,0.002);
#770=CIRCLE('',#1171,0.007);
#771=CIRCLE('',#1172,0.007);
#772=CIRCLE('',#1173,0.007);
#773=CIRCLE('',#1174,0.007);
#774=CIRCLE('',#1181,0.004);
#775=CIRCLE('',#1185,0.004);
#776=CIRCLE('',#1190,0.004);
#777=CIRCLE('',#1196,0.004);
#778=CIRCLE('',#1200,0.002);
#779=CIRCLE('',#1203,0.002);
#780=CIRCLE('',#1206,0.002);
#781=CIRCLE('',#1209,0.002);
#782=EDGE_LOOP('',(#222));
#783=EDGE_LOOP('',(#223,#224,#225,#226));
#784=EDGE_LOOP('',(#227));
#785=EDGE_LOOP('',(#228,#229,#230,#231));
#786=EDGE_LOOP('',(#232,#233,#234,#235));
#787=EDGE_LOOP('',(#236));
#788=EDGE_LOOP('',(#237,#238,#239,#240));
#789=EDGE_LOOP('',(#241,#242,#243,#244));
#790=EDGE_LOOP('',(#245,#246,#247,#248,#249,#250,#251,#252,#253,#254,#255,
#256,#257,#258,#259,#260));
#791=EDGE_LOOP('',(#261,#262,#263,#264));
#792=EDGE_LOOP('',(#265,#266,#267,#268));
#793=EDGE_LOOP('',(#269,#270,#271,#272));
#794=EDGE_LOOP('',(#273,#274,#275,#276));
#795=EDGE_LOOP('',(#277));
#796=EDGE_LOOP('',(#278));
#797=EDGE_LOOP('',(#279));
#798=EDGE_LOOP('',(#280));
#799=EDGE_LOOP('',(#281));
#800=EDGE_LOOP('',(#282));
#801=EDGE_LOOP('',(#283));
#802=EDGE_LOOP('',(#284));
#803=EDGE_LOOP('',(#285));
#804=EDGE_LOOP('',(#286));
#805=EDGE_LOOP('',(#287));
#806=EDGE_LOOP('',(#288));
#807=EDGE_LOOP('',(#289));
#808=EDGE_LOOP('',(#290));
#809=EDGE_LOOP('',(#291));
#810=EDGE_LOOP('',(#292));
#811=EDGE_LOOP('',(#293));
#812=EDGE_LOOP('',(#294));
#813=EDGE_LOOP('',(#295));
#814=EDGE_LOOP('',(#296));
#815=EDGE_LOOP('',(#297));
#816=EDGE_LOOP('',(#298));
#817=EDGE_LOOP('',(#299));
#818=EDGE_LOOP('',(#300));
#819=EDGE_LOOP('',(#301));
#820=EDGE_LOOP('',(#302));
#821=EDGE_LOOP('',(#303));
#822=EDGE_LOOP('',(#304));
#823=EDGE_LOOP('',(#305));
#824=EDGE_LOOP('',(#306));
#825=EDGE_LOOP('',(#307));
#826=EDGE_LOOP('',(#308));
#827=EDGE_LOOP('',(#309));
#828=EDGE_LOOP('',(#310,#311,#312,#313));
#829=EDGE_LOOP('',(#314,#315,#316,#317));
#830=EDGE_LOOP('',(#318,#319,#320,#321));
#831=EDGE_LOOP('',(#322,#323,#324,#325));
#832=EDGE_LOOP('',(#326,#327,#328,#329));
#833=EDGE_LOOP('',(#330,#331,#332,#333));
#834=EDGE_LOOP('',(#334,#335,#336,#337));
#835=EDGE_LOOP('',(#338,#339,#340,#341));
#836=EDGE_LOOP('',(#342,#343,#344,#345));
#837=EDGE_LOOP('',(#346,#347,#348,#349));
#838=EDGE_LOOP('',(#350,#351,#352,#353));
#839=EDGE_LOOP('',(#354,#355,#356,#357));
#840=EDGE_LOOP('',(#358,#359,#360,#361));
#841=EDGE_LOOP('',(#362,#363,#364,#365));
#842=EDGE_LOOP('',(#366,#367,#368,#369));
#843=EDGE_LOOP('',(#370,#371,#372,#373));
#844=EDGE_LOOP('',(#374));
#845=EDGE_LOOP('',(#375));
#846=EDGE_LOOP('',(#376));
#847=EDGE_LOOP('',(#377));
#848=EDGE_LOOP('',(#378,#379,#380,#381));
#849=EDGE_LOOP('',(#382,#383,#384,#385,#386,#387,#388,#389,#390,#391,#392,
#393,#394,#395,#396,#397));
#850=EDGE_LOOP('',(#398));
#851=EDGE_LOOP('',(#399));
#852=EDGE_LOOP('',(#400));
#853=EDGE_LOOP('',(#401));
#854=EDGE_LOOP('',(#402,#403,#404,#405));
#855=EDGE_LOOP('',(#406,#407,#408,#409));
#856=EDGE_LOOP('',(#410,#411,#412,#413));
#857=EDGE_LOOP('',(#414,#415,#416,#417));
#858=EDGE_LOOP('',(#418,#419,#420,#421));
#859=EDGE_LOOP('',(#422,#423,#424,#425));
#860=EDGE_LOOP('',(#426,#427,#428,#429));
#861=EDGE_LOOP('',(#430,#431,#432,#433));
#862=EDGE_LOOP('',(#434,#435,#436,#437));
#863=EDGE_LOOP('',(#438,#439,#440,#441));
#864=EDGE_LOOP('',(#442,#443,#444,#445));
#865=EDGE_LOOP('',(#446,#447,#448,#449));
#866=EDGE_LOOP('',(#450,#451,#452,#453));
#867=EDGE_LOOP('',(#454,#455,#456,#457));
#868=EDGE_LOOP('',(#458,#459,#460,#461));
#869=EDGE_LOOP('',(#462,#463,#464,#465));
#870=EDGE_LOOP('',(#466,#467,#468,#469));
#871=EDGE_LOOP('',(#470,#471,#472,#473));
#872=EDGE_LOOP('',(#474,#475,#476,#477));
#873=EDGE_LOOP('',(#478,#479,#480,#481));
#874=EDGE_LOOP('',(#482));
#875=EDGE_LOOP('',(#483));
#876=EDGE_LOOP('',(#484));
#877=EDGE_LOOP('',(#485));
#878=EDGE_LOOP('',(#486));
#879=EDGE_LOOP('',(#487));
#880=EDGE_LOOP('',(#488));
#881=EDGE_LOOP('',(#489));
#882=EDGE_LOOP('',(#490));
#883=EDGE_LOOP('',(#491));
#884=EDGE_LOOP('',(#492));
#885=EDGE_LOOP('',(#493));
#886=FACE_BOUND('',#782,.T.);
#887=FACE_BOUND('',#783,.T.);
#888=FACE_BOUND('',#784,.T.);
#889=FACE_BOUND('',#785,.T.);
#890=FACE_BOUND('',#786,.T.);
#891=FACE_BOUND('',#787,.T.);
#892=FACE_BOUND('',#788,.T.);
#893=FACE_BOUND('',#789,.T.);
#894=FACE_BOUND('',#790,.T.);
#895=FACE_BOUND('',#791,.T.);
#896=FACE_BOUND('',#792,.T.);
#897=FACE_BOUND('',#793,.T.);
#898=FACE_BOUND('',#794,.T.);
#899=FACE_BOUND('',#795,.T.);
#900=FACE_BOUND('',#796,.T.);
#901=FACE_BOUND('',#797,.T.);
#902=FACE_BOUND('',#798,.T.);
#903=FACE_BOUND('',#799,.T.);
#904=FACE_BOUND('',#800,.T.);
#905=FACE_BOUND('',#801,.T.);
#906=FACE_BOUND('',#802,.T.);
#907=FACE_BOUND('',#803,.T.);
#908=FACE_BOUND('',#804,.T.);
#909=FACE_BOUND('',#805,.T.);
#910=FACE_BOUND('',#806,.T.);
#911=FACE_BOUND('',#807,.T.);
#912=FACE_BOUND('',#808,.T.);
#913=FACE_BOUND('',#809,.T.);
#914=FACE_BOUND('',#810,.T.);
#915=FACE_BOUND('',#811,.T.);
#916=FACE_BOUND('',#812,.T.);
#917=FACE_BOUND('',#813,.T.);
#918=FACE_BOUND('',#814,.T.);
#919=FACE_BOUND('',#815,.T.);
#920=FACE_BOUND('',#816,.T.);
#921=FACE_BOUND('',#817,.T.);
#922=FACE_BOUND('',#818,.T.);
#923=FACE_BOUND('',#819,.T.);
#924=FACE_BOUND('',#820,.T.);
#925=FACE_BOUND('',#821,.T.);
#926=FACE_BOUND('',#822,.T.);
#927=FACE_BOUND('',#823,.T.);
#928=FACE_BOUND('',#824,.T.);
#929=FACE_BOUND('',#825,.T.);
#930=FACE_BOUND('',#826,.T.);
#931=FACE_BOUND('',#827,.T.);
#932=FACE_BOUND('',#828,.T.);
#933=FACE_BOUND('',#829,.T.);
#934=FACE_BOUND('',#830,.T.);
#935=FACE_BOUND('',#831,.T.);
#936=FACE_BOUND('',#832,.T.);
#937=FACE_BOUND('',#833,.T.);
#938=FACE_BOUND('',#834,.T.);
#939=FACE_BOUND('',#835,.T.);
#940=FACE_BOUND('',#836,.T.);
#941=FACE_BOUND('',#837,.T.);
#942=FACE_BOUND('',#838,.T.);
#943=FACE_BOUND('',#839,.T.);
#944=FACE_BOUND('',#840,.T.);
#945=FACE_BOUND('',#841,.T.);
#946=FACE_BOUND('',#842,.T.);
#947=FACE_BOUND('',#843,.T.);
#948=FACE_BOUND('',#844,.T.);
#949=FACE_BOUND('',#845,.T.);
#950=FACE_BOUND('',#846,.T.);
#951=FACE_BOUND('',#847,.T.);
#952=FACE_BOUND('',#848,.T.);
#953=FACE_BOUND('',#849,.T.);
#954=FACE_BOUND('',#850,.T.);
#955=FACE_BOUND('',#851,.T.);
#956=FACE_BOUND('',#852,.T.);
#957=FACE_BOUND('',#853,.T.);
#958=FACE_BOUND('',#854,.T.);
#959=FACE_BOUND('',#855,.T.);
#960=FACE_BOUND('',#856,.T.);
#961=FACE_BOUND('',#857,.T.);
#962=FACE_BOUND('',#858,.T.);
#963=FACE_BOUND('',#859,.T.);
#964=FACE_BOUND('',#860,.T.);
#965=FACE_BOUND('',#861,.T.);
#966=FACE_BOUND('',#862,.T.);
#967=FACE_BOUND('',#863,.T.);
#968=FACE_BOUND('',#864,.T.);
#969=FACE_BOUND('',#865,.T.);
#970=FACE_BOUND('',#866,.T.);
#971=FACE_BOUND('',#867,.T.);
#972=FACE_BOUND('',#868,.T.);
#973=FACE_BOUND('',#869,.T.);
#974=FACE_BOUND('',#870,.T.);
#975=FACE_BOUND('',#871,.T.);
#976=FACE_BOUND('',#872,.T.);
#977=FACE_BOUND('',#873,.T.);
#978=FACE_BOUND('',#874,.T.);
#979=FACE_BOUND('',#875,.T.);
#980=FACE_BOUND('',#876,.T.);
#981=FACE_BOUND('',#877,.T.);
#982=FACE_BOUND('',#878,.T.);
#983=FACE_BOUND('',#879,.T.);
#984=FACE_BOUND('',#880,.T.);
#985=FACE_BOUND('',#881,.T.);
#986=FACE_BOUND('',#882,.T.);
#987=FACE_BOUND('',#883,.T.);
#988=FACE_BOUND('',#884,.T.);
#989=FACE_BOUND('',#885,.T.);
#990=CYLINDRICAL_SURFACE('',#1093,0.006);
#991=CYLINDRICAL_SURFACE('',#1097,0.006);
#992=CYLINDRICAL_SURFACE('',#1101,0.006);
#993=CYLINDRICAL_SURFACE('',#1115,0.006);
#994=CYLINDRICAL_SURFACE('',#1121,0.0016);
#995=CYLINDRICAL_SURFACE('',#1124,0.003);
#996=CYLINDRICAL_SURFACE('',#1129,0.0016);
#997=CYLINDRICAL_SURFACE('',#1132,0.003);
#998=CYLINDRICAL_SURFACE('',#1137,0.0016);
#999=CYLINDRICAL_SURFACE('',#1140,0.003);
#1000=CYLINDRICAL_SURFACE('',#1145,0.0016);
#1001=CYLINDRICAL_SURFACE('',#1148,0.003);
#1002=CYLINDRICAL_SURFACE('',#1175,0.007);
#1003=CYLINDRICAL_SURFACE('',#1176,0.007);
#1004=CYLINDRICAL_SURFACE('',#1177,0.007);
#1005=CYLINDRICAL_SURFACE('',#1178,0.007);
#1006=CYLINDRICAL_SURFACE('',#1180,0.004);
#1007=CYLINDRICAL_SURFACE('',#1184,0.004);
#1008=CYLINDRICAL_SURFACE('',#1189,0.004);
#1009=CYLINDRICAL_SURFACE('',#1195,0.004);
#1010=CYLINDRICAL_SURFACE('',#1199,0.002);
#1011=CYLINDRICAL_SURFACE('',#1202,0.002);
#1012=CYLINDRICAL_SURFACE('',#1205,0.002);
#1013=CYLINDRICAL_SURFACE('',#1208,0.002);
#1014=ADVANCED_FACE('',(#886,#887),#990,.T.);
#1015=ADVANCED_FACE('',(#888,#889),#991,.T.);
#1016=ADVANCED_FACE('',(#890,#891),#992,.T.);
#1017=ADVANCED_FACE('',(#892,#893,#894,#895,#896,#897),#12,.F.);
#1018=ADVANCED_FACE('',(#898,#899),#993,.T.);
#1019=ADVANCED_FACE('',(#900,#901),#13,.T.);
#1020=ADVANCED_FACE('',(#902,#903),#994,.F.);
#1021=ADVANCED_FACE('',(#904,#905),#14,.F.);
#1022=ADVANCED_FACE('',(#906,#907),#995,.F.);
#1023=ADVANCED_FACE('',(#908,#909),#15,.T.);
#1024=ADVANCED_FACE('',(#910,#911),#996,.F.);
#1025=ADVANCED_FACE('',(#912,#913),#16,.F.);
#1026=ADVANCED_FACE('',(#914,#915),#997,.F.);
#1027=ADVANCED_FACE('',(#916,#917),#17,.T.);
#1028=ADVANCED_FACE('',(#918,#919),#998,.F.);
#1029=ADVANCED_FACE('',(#920,#921),#18,.F.);
#1030=ADVANCED_FACE('',(#922,#923),#999,.F.);
#1031=ADVANCED_FACE('',(#924,#925),#19,.T.);
#1032=ADVANCED_FACE('',(#926,#927),#1000,.F.);
#1033=ADVANCED_FACE('',(#928,#929),#20,.F.);
#1034=ADVANCED_FACE('',(#930,#931),#1001,.F.);
#1035=ADVANCED_FACE('',(#932),#21,.T.);
#1036=ADVANCED_FACE('',(#933),#22,.T.);
#1037=ADVANCED_FACE('',(#934),#23,.T.);
#1038=ADVANCED_FACE('',(#935),#24,.T.);
#1039=ADVANCED_FACE('',(#936),#25,.T.);
#1040=ADVANCED_FACE('',(#937),#26,.F.);
#1041=ADVANCED_FACE('',(#938),#27,.F.);
#1042=ADVANCED_FACE('',(#939),#28,.F.);
#1043=ADVANCED_FACE('',(#940),#29,.F.);
#1044=ADVANCED_FACE('',(#941),#30,.F.);
#1045=ADVANCED_FACE('',(#942),#31,.F.);
#1046=ADVANCED_FACE('',(#943),#32,.T.);
#1047=ADVANCED_FACE('',(#944),#33,.F.);
#1048=ADVANCED_FACE('',(#945),#34,.F.);
#1049=ADVANCED_FACE('',(#946),#35,.T.);
#1050=ADVANCED_FACE('',(#947),#36,.T.);
#1051=ADVANCED_FACE('',(#948,#949,#950,#951,#952,#953,#954,#955,#956,#957),
#37,.T.);
#1052=ADVANCED_FACE('',(#958),#1002,.T.);
#1053=ADVANCED_FACE('',(#959),#1003,.T.);
#1054=ADVANCED_FACE('',(#960),#1004,.T.);
#1055=ADVANCED_FACE('',(#961),#1005,.T.);
#1056=ADVANCED_FACE('',(#962),#38,.F.);
#1057=ADVANCED_FACE('',(#963),#1006,.T.);
#1058=ADVANCED_FACE('',(#964),#39,.T.);
#1059=ADVANCED_FACE('',(#965),#40,.T.);
#1060=ADVANCED_FACE('',(#966),#1007,.T.);
#1061=ADVANCED_FACE('',(#967),#41,.T.);
#1062=ADVANCED_FACE('',(#968),#42,.F.);
#1063=ADVANCED_FACE('',(#969),#43,.T.);
#1064=ADVANCED_FACE('',(#970),#1008,.T.);
#1065=ADVANCED_FACE('',(#971),#44,.F.);
#1066=ADVANCED_FACE('',(#972),#45,.F.);
#1067=ADVANCED_FACE('',(#973),#46,.T.);
#1068=ADVANCED_FACE('',(#974),#47,.T.);
#1069=ADVANCED_FACE('',(#975),#1009,.T.);
#1070=ADVANCED_FACE('',(#976),#48,.T.);
#1071=ADVANCED_FACE('',(#977),#49,.T.);
#1072=ADVANCED_FACE('',(#978,#979),#1010,.F.);
#1073=ADVANCED_FACE('',(#980),#50,.T.);
#1074=ADVANCED_FACE('',(#981,#982),#1011,.F.);
#1075=ADVANCED_FACE('',(#983),#51,.T.);
#1076=ADVANCED_FACE('',(#984,#985),#1012,.F.);
#1077=ADVANCED_FACE('',(#986),#52,.T.);
#1078=ADVANCED_FACE('',(#987,#988),#1013,.F.);
#1079=ADVANCED_FACE('',(#989),#53,.T.);
#1080=CLOSED_SHELL('',(#1014,#1015,#1016,#1017,#1018,#1019,#1020,#1021,
#1022,#1023,#1024,#1025,#1026,#1027,#1028,#1029,#1030,#1031,#1032,#1033,
#1034,#1035,#1036,#1037,#1038,#1039,#1040,#1041,#1042,#1043,#1044,#1045,
#1046,#1047,#1048,#1049,#1050,#1051,#1052,#1053,#1054,#1055,#1056,#1057,
#1058,#1059,#1060,#1061,#1062,#1063,#1064,#1065,#1066,#1067,#1068,#1069,
#1070,#1071,#1072,#1073,#1074,#1075,#1076,#1077,#1078,#1079));
#1081=STYLED_ITEM('',(#1082),#1089);
#1082=PRESENTATION_STYLE_ASSIGNMENT((#1083));
#1083=SURFACE_STYLE_USAGE(.BOTH.,#1084);
#1084=SURFACE_SIDE_STYLE('',(#1085));
#1085=SURFACE_STYLE_FILL_AREA(#1086);
#1086=FILL_AREA_STYLE('',(#1087));
#1087=FILL_AREA_STYLE_COLOUR('',#1088);
#1088=COLOUR_RGB('',0.372549019607843,0.654901960784314,0.23921568627451);
#1089=MANIFOLD_SOLID_BREP('Part 1',#1080);
#1090=SHAPE_DEFINITION_REPRESENTATION(#1842,#1091);
#1091=SHAPE_REPRESENTATION('Part 1',(#1092),#1837);
#1092=AXIS2_PLACEMENT_3D('',#1533,#1211,#1212);
#1093=AXIS2_PLACEMENT_3D('',#1534,#1213,#1214);
#1094=AXIS2_PLACEMENT_3D('',#1535,#1215,#1216);
#1095=AXIS2_PLACEMENT_3D('',#1540,#1218,#1219);
#1096=AXIS2_PLACEMENT_3D('',#1544,#1221,#1222);
#1097=AXIS2_PLACEMENT_3D('',#1545,#1223,#1224);
#1098=AXIS2_PLACEMENT_3D('',#1546,#1225,#1226);
#1099=AXIS2_PLACEMENT_3D('',#1551,#1228,#1229);
#1100=AXIS2_PLACEMENT_3D('',#1555,#1231,#1232);
#1101=AXIS2_PLACEMENT_3D('',#1556,#1233,#1234);
#1102=AXIS2_PLACEMENT_3D('',#1560,#1236,#1237);
#1103=AXIS2_PLACEMENT_3D('',#1564,#1239,#1240);
#1104=AXIS2_PLACEMENT_3D('',#1565,#1241,#1242);
#1105=AXIS2_PLACEMENT_3D('',#1567,#1243,#1244);
#1106=AXIS2_PLACEMENT_3D('',#1572,#1247,#1248);
#1107=AXIS2_PLACEMENT_3D('',#1584,#1254,#1255);
#1108=AXIS2_PLACEMENT_3D('',#1592,#1259,#1260);
#1109=AXIS2_PLACEMENT_3D('',#1600,#1264,#1265);
#1110=AXIS2_PLACEMENT_3D('',#1608,#1269,#1270);
#1111=AXIS2_PLACEMENT_3D('',#1613,#1273,#1274);
#1112=AXIS2_PLACEMENT_3D('',#1621,#1278,#1279);
#1113=AXIS2_PLACEMENT_3D('',#1625,#1281,#1282);
#1114=AXIS2_PLACEMENT_3D('',#1630,#1285,#1286);
#1115=AXIS2_PLACEMENT_3D('',#1631,#1287,#1288);
#1116=AXIS2_PLACEMENT_3D('',#1634,#1290,#1291);
#1117=AXIS2_PLACEMENT_3D('',#1637,#1293,#1294);
#1118=AXIS2_PLACEMENT_3D('',#1639,#1295,#1296);
#1119=AXIS2_PLACEMENT_3D('',#1640,#1297,#1298);
#1120=AXIS2_PLACEMENT_3D('',#1642,#1299,#1300);
#1121=AXIS2_PLACEMENT_3D('',#1644,#1301,#1302);
#1122=AXIS2_PLACEMENT_3D('',#1645,#1303,#1304);
#1123=AXIS2_PLACEMENT_3D('',#1647,#1305,#1306);
#1124=AXIS2_PLACEMENT_3D('',#1648,#1307,#1308);
#1125=AXIS2_PLACEMENT_3D('',#1649,#1309,#1310);
#1126=AXIS2_PLACEMENT_3D('',#1651,#1311,#1312);
#1127=AXIS2_PLACEMENT_3D('',#1652,#1313,#1314);
#1128=AXIS2_PLACEMENT_3D('',#1654,#1315,#1316);
#1129=AXIS2_PLACEMENT_3D('',#1656,#1317,#1318);
#1130=AXIS2_PLACEMENT_3D('',#1657,#1319,#1320);
#1131=AXIS2_PLACEMENT_3D('',#1659,#1321,#1322);
#1132=AXIS2_PLACEMENT_3D('',#1660,#1323,#1324);
#1133=AXIS2_PLACEMENT_3D('',#1661,#1325,#1326);
#1134=AXIS2_PLACEMENT_3D('',#1663,#1327,#1328);
#1135=AXIS2_PLACEMENT_3D('',#1664,#1329,#1330);
#1136=AXIS2_PLACEMENT_3D('',#1666,#1331,#1332);
#1137=AXIS2_PLACEMENT_3D('',#1668,#1333,#1334);
#1138=AXIS2_PLACEMENT_3D('',#1669,#1335,#1336);
#1139=AXIS2_PLACEMENT_3D('',#1671,#1337,#1338);
#1140=AXIS2_PLACEMENT_3D('',#1672,#1339,#1340);
#1141=AXIS2_PLACEMENT_3D('',#1673,#1341,#1342);
#1142=AXIS2_PLACEMENT_3D('',#1675,#1343,#1344);
#1143=AXIS2_PLACEMENT_3D('',#1676,#1345,#1346);
#1144=AXIS2_PLACEMENT_3D('',#1678,#1347,#1348);
#1145=AXIS2_PLACEMENT_3D('',#1680,#1349,#1350);
#1146=AXIS2_PLACEMENT_3D('',#1681,#1351,#1352);
#1147=AXIS2_PLACEMENT_3D('',#1683,#1353,#1354);
#1148=AXIS2_PLACEMENT_3D('',#1684,#1355,#1356);
#1149=AXIS2_PLACEMENT_3D('',#1685,#1357,#1358);
#1150=AXIS2_PLACEMENT_3D('',#1687,#1359,#1360);
#1151=AXIS2_PLACEMENT_3D('',#1693,#1364,#1365);
#1152=AXIS2_PLACEMENT_3D('',#1697,#1368,#1369);
#1153=AXIS2_PLACEMENT_3D('',#1701,#1372,#1373);
#1154=AXIS2_PLACEMENT_3D('',#1707,#1377,#1378);
#1155=AXIS2_PLACEMENT_3D('',#1711,#1381,#1382);
#1156=AXIS2_PLACEMENT_3D('',#1715,#1385,#1386);
#1157=AXIS2_PLACEMENT_3D('',#1721,#1390,#1391);
#1158=AXIS2_PLACEMENT_3D('',#1725,#1394,#1395);
#1159=AXIS2_PLACEMENT_3D('',#1729,#1398,#1399);
#1160=AXIS2_PLACEMENT_3D('',#1735,#1403,#1404);
#1161=AXIS2_PLACEMENT_3D('',#1739,#1407,#1408);
#1162=AXIS2_PLACEMENT_3D('',#1745,#1412,#1413);
#1163=AXIS2_PLACEMENT_3D('',#1749,#1416,#1417);
#1164=AXIS2_PLACEMENT_3D('',#1753,#1420,#1421);
#1165=AXIS2_PLACEMENT_3D('',#1757,#1424,#1425);
#1166=AXIS2_PLACEMENT_3D('',#1759,#1427,#1428);
#1167=AXIS2_PLACEMENT_3D('',#1760,#1429,#1430);
#1168=AXIS2_PLACEMENT_3D('',#1762,#1431,#1432);
#1169=AXIS2_PLACEMENT_3D('',#1764,#1433,#1434);
#1170=AXIS2_PLACEMENT_3D('',#1766,#1435,#1436);
#1171=AXIS2_PLACEMENT_3D('',#1768,#1437,#1438);
#1172=AXIS2_PLACEMENT_3D('',#1769,#1439,#1440);
#1173=AXIS2_PLACEMENT_3D('',#1770,#1441,#1442);
#1174=AXIS2_PLACEMENT_3D('',#1771,#1443,#1444);
#1175=AXIS2_PLACEMENT_3D('',#1772,#1445,#1446);
#1176=AXIS2_PLACEMENT_3D('',#1773,#1447,#1448);
#1177=AXIS2_PLACEMENT_3D('',#1774,#1449,#1450);
#1178=AXIS2_PLACEMENT_3D('',#1775,#1451,#1452);
#1179=AXIS2_PLACEMENT_3D('',#1776,#1453,#1454);
#1180=AXIS2_PLACEMENT_3D('',#1780,#1457,#1458);
#1181=AXIS2_PLACEMENT_3D('',#1783,#1460,#1461);
#1182=AXIS2_PLACEMENT_3D('',#1784,#1462,#1463);
#1183=AXIS2_PLACEMENT_3D('',#1786,#1465,#1466);
#1184=AXIS2_PLACEMENT_3D('',#1787,#1467,#1468);
#1185=AXIS2_PLACEMENT_3D('',#1790,#1470,#1471);
#1186=AXIS2_PLACEMENT_3D('',#1793,#1473,#1474);
#1187=AXIS2_PLACEMENT_3D('',#1795,#1476,#1477);
#1188=AXIS2_PLACEMENT_3D('',#1797,#1479,#1480);
#1189=AXIS2_PLACEMENT_3D('',#1798,#1481,#1482);
#1190=AXIS2_PLACEMENT_3D('',#1801,#1484,#1485);
#1191=AXIS2_PLACEMENT_3D('',#1804,#1487,#1488);
#1192=AXIS2_PLACEMENT_3D('',#1806,#1490,#1491);
#1193=AXIS2_PLACEMENT_3D('',#1808,#1493,#1494);
#1194=AXIS2_PLACEMENT_3D('',#1809,#1495,#1496);
#1195=AXIS2_PLACEMENT_3D('',#1813,#1499,#1500);
#1196=AXIS2_PLACEMENT_3D('',#1816,#1502,#1503);
#1197=AXIS2_PLACEMENT_3D('',#1817,#1504,#1505);
#1198=AXIS2_PLACEMENT_3D('',#1819,#1507,#1508);
#1199=AXIS2_PLACEMENT_3D('',#1820,#1509,#1510);
#1200=AXIS2_PLACEMENT_3D('',#1821,#1511,#1512);
#1201=AXIS2_PLACEMENT_3D('',#1823,#1513,#1514);
#1202=AXIS2_PLACEMENT_3D('',#1824,#1515,#1516);
#1203=AXIS2_PLACEMENT_3D('',#1825,#1517,#1518);
#1204=AXIS2_PLACEMENT_3D('',#1827,#1519,#1520);
#1205=AXIS2_PLACEMENT_3D('',#1828,#1521,#1522);
#1206=AXIS2_PLACEMENT_3D('',#1829,#1523,#1524);
#1207=AXIS2_PLACEMENT_3D('',#1831,#1525,#1526);
#1208=AXIS2_PLACEMENT_3D('',#1832,#1527,#1528);
#1209=AXIS2_PLACEMENT_3D('',#1833,#1529,#1530);
#1210=AXIS2_PLACEMENT_3D('',#1835,#1531,#1532);
#1211=DIRECTION('',(0.,0.,1.));
#1212=DIRECTION('',(1.,0.,0.));
#1213=DIRECTION('',(1.70002900645725E-16,1.8762769116165E-14,-1.));
#1214=DIRECTION('',(0.,1.,1.8762769116165E-14));
#1215=DIRECTION('',(-1.70002900645725E-16,-1.8762769116165E-14,1.));
#1216=DIRECTION('',(0.,-1.,-1.8762769116165E-14));
#1217=DIRECTION('',(-1.70002900645725E-16,-1.8762769116165E-14,1.));
#1218=DIRECTION('',(-1.70002900645725E-16,-1.8762769116165E-14,1.));
#1219=DIRECTION('',(0.,1.,1.8762769116165E-14));
#1220=DIRECTION('',(-1.70002900645725E-16,-1.8762769116165E-14,1.));
#1221=DIRECTION('',(-1.70002900645725E-16,-1.8762769116165E-14,1.));
#1222=DIRECTION('',(0.,-1.,-1.8762769116165E-14));
#1223=DIRECTION('',(1.70002900645725E-16,1.8762769116165E-14,-1.));
#1224=DIRECTION('',(0.,1.,1.8762769116165E-14));
#1225=DIRECTION('',(-1.70002900645725E-16,-1.8762769116165E-14,1.));
#1226=DIRECTION('',(0.,-1.,-1.8762769116165E-14));
#1227=DIRECTION('',(-1.70002900645725E-16,-1.8762769116165E-14,1.));
#1228=DIRECTION('',(1.70002900645725E-16,1.8762769116165E-14,-1.));
#1229=DIRECTION('',(0.,1.,1.8762769116165E-14));
#1230=DIRECTION('',(-1.70002900645725E-16,-1.8762769116165E-14,1.));
#1231=DIRECTION('',(-1.70002900645725E-16,-1.8762769116165E-14,1.));
#1232=DIRECTION('',(0.,-1.,-1.8762769116165E-14));
#1233=DIRECTION('',(1.70002900645725E-16,1.8762769116165E-14,-1.));
#1234=DIRECTION('',(0.,1.,1.8762769116165E-14));
#1235=DIRECTION('',(-1.70002900645725E-16,-1.8762769116165E-14,1.));
#1236=DIRECTION('',(-1.70002900645725E-16,-1.8762769116165E-14,1.));
#1237=DIRECTION('',(0.,-1.,-1.8762769116165E-14));
#1238=DIRECTION('',(-1.70002900645725E-16,-1.8762769116165E-14,1.));
#1239=DIRECTION('',(-1.70002900645725E-16,-1.8762769116165E-14,1.));
#1240=DIRECTION('',(0.,1.,1.8762769116165E-14));
#1241=DIRECTION('',(-1.70002900645725E-16,-1.8762769116165E-14,1.));
#1242=DIRECTION('',(0.,-1.,-1.8762769116165E-14));
#1243=DIRECTION('',(-1.70002900645725E-16,-1.8762769116165E-14,1.));
#1244=DIRECTION('',(1.,-3.18972517389408E-30,1.70002900645725E-16));
#1245=DIRECTION('',(0.561707064961912,-0.827336191141107,-1.54276261054712E-14));
#1246=DIRECTION('',(-0.827817521306571,0.56099746115098,1.03851344585031E-14));
#1247=DIRECTION('',(1.70002900645725E-16,1.8762769116165E-14,-1.));
#1248=DIRECTION('',(0.,1.,1.8762769116165E-14));
#1249=DIRECTION('',(-2.32848788721711E-17,-1.,-1.8762769116165E-14));
#1250=DIRECTION('',(-1.,-6.51102645138699E-16,-1.70002900645737E-16));
#1251=DIRECTION('',(5.58837092932106E-16,-1.,-1.8762769116165E-14));
#1252=DIRECTION('',(-1.,4.83423906096394E-32,-1.70002900645725E-16));
#1253=DIRECTION('',(1.,-3.18972517389408E-30,1.70002900645725E-16));
#1254=DIRECTION('',(-1.70002900645725E-16,-1.8762769116165E-14,1.));
#1255=DIRECTION('',(0.,-1.,-1.8762769116165E-14));
#1256=DIRECTION('',(1.15648231731787E-16,-1.,-1.8762769116165E-14));
#1257=DIRECTION('',(-1.,-2.49331617366056E-31,-1.70002900645725E-16));
#1258=DIRECTION('',(4.71852836371596E-33,-1.,-1.8762769116165E-14));
#1259=DIRECTION('',(-1.70002900645725E-16,-1.8762769116165E-14,1.));
#1260=DIRECTION('',(0.,-1.,-1.8762769116165E-14));
#1261=DIRECTION('',(-1.,-2.01798939572896E-30,-1.70002900645725E-16));
#1262=DIRECTION('',(2.64338815386929E-16,-1.,-1.8762769116165E-14));
#1263=DIRECTION('',(1.,4.85722573273508E-16,1.70002900645734E-16));
#1264=DIRECTION('',(-1.70002900645725E-16,-1.8762769116165E-14,1.));
#1265=DIRECTION('',(0.,-1.,-1.8762769116165E-14));
#1266=DIRECTION('',(4.71852836371596E-33,-1.,-1.8762769116165E-14));
#1267=DIRECTION('',(-1.,-1.24376400164362E-16,-1.70002900645727E-16));
#1268=DIRECTION('',(1.15648231731787E-16,-1.,-1.8762769116165E-14));
#1269=DIRECTION('',(-1.70002900645725E-16,-1.8762769116165E-14,1.));
#1270=DIRECTION('',(0.,-1.,-1.8762769116165E-14));
#1271=DIRECTION('',(-1.,-3.46944695195363E-16,-1.70002900645732E-16));
#1272=DIRECTION('',(3.05641755291137E-16,-1.,-1.8762769116165E-14));
#1273=DIRECTION('',(-1.70002900645725E-16,-1.8762769116165E-14,1.));
#1274=DIRECTION('',(0.,1.,1.8762769116165E-14));
#1275=DIRECTION('',(-0.82781752130657,-0.560997461150981,-1.0666597218158E-14));
#1276=DIRECTION('',(0.561707064961911,0.827336191141108,1.56186097661847E-14));
#1277=DIRECTION('',(-0.953307469810577,-0.302001437088229,-5.8284482719115E-15));
#1278=DIRECTION('',(-1.70002900645725E-16,-1.8762769116165E-14,1.));
#1279=DIRECTION('',(0.,-1.,-1.8762769116165E-14));
#1280=DIRECTION('',(-0.845216255269155,-0.534424439774966,-1.01709715886022E-14));
#1281=DIRECTION('',(1.70002900645725E-16,1.8762769116165E-14,-1.));
#1282=DIRECTION('',(0.,1.,1.8762769116165E-14));
#1283=DIRECTION('',(-0.845216255269156,0.534424439774965,9.8835931584648E-15));
#1284=DIRECTION('',(-0.953307469810577,0.302001437088229,5.50431820176142E-15));
#1285=DIRECTION('',(-1.70002900645725E-16,-1.8762769116165E-14,1.));
#1286=DIRECTION('',(0.,1.,1.8762769116165E-14));
#1287=DIRECTION('',(1.70002900645725E-16,1.8762769116165E-14,-1.));
#1288=DIRECTION('',(0.,1.,1.8762769116165E-14));
#1289=DIRECTION('',(-1.70002900645725E-16,-1.8762769116165E-14,1.));
#1290=DIRECTION('',(1.70002900645725E-16,1.8762769116165E-14,-1.));
#1291=DIRECTION('',(0.,1.,1.8762769116165E-14));
#1292=DIRECTION('',(-1.70002900645725E-16,-1.8762769116165E-14,1.));
#1293=DIRECTION('',(-1.70002900645725E-16,-1.8762769116165E-14,1.));
#1294=DIRECTION('',(0.,-1.,-1.8762769116165E-14));
#1295=DIRECTION('',(-1.70002900645725E-16,-1.8762769116165E-14,1.));
#1296=DIRECTION('',(1.,-3.18972517389408E-30,1.70002900645725E-16));
#1297=DIRECTION('',(-1.70002900645725E-16,-1.8762769116165E-14,1.));
#1298=DIRECTION('',(0.,-1.,-1.8762769116165E-14));
#1299=DIRECTION('',(-1.70002900645725E-16,-1.8762769116165E-14,1.));
#1300=DIRECTION('',(0.,-1.,-1.8762769116165E-14));
#1301=DIRECTION('',(1.70002900645725E-16,1.8762769116165E-14,-1.));
#1302=DIRECTION('',(0.,1.,1.8762769116165E-14));
#1303=DIRECTION('',(-1.70002900645725E-16,-1.8762769116165E-14,1.));
#1304=DIRECTION('',(0.,-1.,-1.8762769116165E-14));
#1305=DIRECTION('',(-1.70002900645725E-16,-1.8762769116165E-14,1.));
#1306=DIRECTION('',(1.,-3.18972517389408E-30,1.70002900645725E-16));
#1307=DIRECTION('',(1.70002900645725E-16,1.8762769116165E-14,-1.));
#1308=DIRECTION('',(0.,1.,1.8762769116165E-14));
#1309=DIRECTION('',(-1.70002900645725E-16,-1.8762769116165E-14,1.));
#1310=DIRECTION('',(0.,-1.,-1.8762769116165E-14));
#1311=DIRECTION('',(-1.70002900645725E-16,-1.8762769116165E-14,1.));
#1312=DIRECTION('',(1.,-3.18972517389408E-30,1.70002900645725E-16));
#1313=DIRECTION('',(-1.70002900645725E-16,-1.8762769116165E-14,1.));
#1314=DIRECTION('',(0.,-1.,-1.8762769116165E-14));
#1315=DIRECTION('',(-1.70002900645725E-16,-1.8762769116165E-14,1.));
#1316=DIRECTION('',(0.,-1.,-1.8762769116165E-14));
#1317=DIRECTION('',(1.70002900645725E-16,1.8762769116165E-14,-1.));
#1318=DIRECTION('',(0.,1.,1.8762769116165E-14));
#1319=DIRECTION('',(-1.70002900645725E-16,-1.8762769116165E-14,1.));
#1320=DIRECTION('',(0.,-1.,-1.8762769116165E-14));
#1321=DIRECTION('',(-1.70002900645725E-16,-1.8762769116165E-14,1.));
#1322=DIRECTION('',(1.,-3.18972517389408E-30,1.70002900645725E-16));
#1323=DIRECTION('',(1.70002900645725E-16,1.8762769116165E-14,-1.));
#1324=DIRECTION('',(0.,1.,1.8762769116165E-14));
#1325=DIRECTION('',(-1.70002900645725E-16,-1.8762769116165E-14,1.));
#1326=DIRECTION('',(0.,-1.,-1.8762769116165E-14));
#1327=DIRECTION('',(-1.70002900645725E-16,-1.8762769116165E-14,1.));
#1328=DIRECTION('',(1.,-3.18972517389408E-30,1.70002900645725E-16));
#1329=DIRECTION('',(-1.70002900645725E-16,-1.8762769116165E-14,1.));
#1330=DIRECTION('',(0.,-1.,-1.8762769116165E-14));
#1331=DIRECTION('',(-1.70002900645725E-16,-1.8762769116165E-14,1.));
#1332=DIRECTION('',(0.,-1.,-1.8762769116165E-14));
#1333=DIRECTION('',(1.70002900645725E-16,1.8762769116165E-14,-1.));
#1334=DIRECTION('',(0.,1.,1.8762769116165E-14));
#1335=DIRECTION('',(-1.70002900645725E-16,-1.8762769116165E-14,1.));
#1336=DIRECTION('',(0.,-1.,-1.8762769116165E-14));
#1337=DIRECTION('',(-1.70002900645725E-16,-1.8762769116165E-14,1.));
#1338=DIRECTION('',(1.,-3.18972517389408E-30,1.70002900645725E-16));
#1339=DIRECTION('',(1.70002900645725E-16,1.8762769116165E-14,-1.));
#1340=DIRECTION('',(0.,1.,1.8762769116165E-14));
#1341=DIRECTION('',(-1.70002900645725E-16,-1.8762769116165E-14,1.));
#1342=DIRECTION('',(0.,-1.,-1.8762769116165E-14));
#1343=DIRECTION('',(-1.70002900645725E-16,-1.8762769116165E-14,1.));
#1344=DIRECTION('',(1.,-3.18972517389408E-30,1.70002900645725E-16));
#1345=DIRECTION('',(-1.70002900645725E-16,-1.8762769116165E-14,1.));
#1346=DIRECTION('',(0.,-1.,-1.8762769116165E-14));
#1347=DIRECTION('',(-1.70002900645725E-16,-1.8762769116165E-14,1.));
#1348=DIRECTION('',(0.,-1.,-1.8762769116165E-14));
#1349=DIRECTION('',(1.70002900645725E-16,1.8762769116165E-14,-1.));
#1350=DIRECTION('',(0.,1.,1.8762769116165E-14));
#1351=DIRECTION('',(-1.70002900645725E-16,-1.8762769116165E-14,1.));
#1352=DIRECTION('',(0.,-1.,-1.8762769116165E-14));
#1353=DIRECTION('',(-1.70002900645725E-16,-1.8762769116165E-14,1.));
#1354=DIRECTION('',(1.,-3.18972517389408E-30,1.70002900645725E-16));
#1355=DIRECTION('',(1.70002900645725E-16,1.8762769116165E-14,-1.));
#1356=DIRECTION('',(0.,1.,1.8762769116165E-14));
#1357=DIRECTION('',(-1.70002900645725E-16,-1.8762769116165E-14,1.));
#1358=DIRECTION('',(0.,-1.,-1.8762769116165E-14));
#1359=DIRECTION('',(-4.85722573273511E-16,1.,1.8762769116165E-14));
#1360=DIRECTION('',(0.,-1.8762769116165E-14,1.));
#1361=DIRECTION('',(1.,4.85722573273508E-16,1.70002900645734E-16));
#1362=DIRECTION('',(1.70002900645725E-16,1.8762769116165E-14,-1.));
#1363=DIRECTION('',(1.70002900645725E-16,1.8762769116165E-14,-1.));
#1364=DIRECTION('',(1.,2.64338815386925E-16,1.7000290064573E-16));
#1365=DIRECTION('',(-2.64338815386925E-16,1.,0.));
#1366=DIRECTION('',(1.70002900645725E-16,1.8762769116165E-14,-1.));
#1367=DIRECTION('',(2.64338815386929E-16,-1.,-1.8762769116165E-14));
#1368=DIRECTION('',(5.20771456962303E-30,-1.,-1.8762769116165E-14));
#1369=DIRECTION('',(0.,1.8762769116165E-14,-1.));
#1370=DIRECTION('',(1.70002900645725E-16,1.8762769116165E-14,-1.));
#1371=DIRECTION('',(-1.,-2.01798939572896E-30,-1.70002900645725E-16));
#1372=DIRECTION('',(1.,-3.18500664553036E-30,1.70002900645725E-16));
#1373=DIRECTION('',(1.70002900645725E-16,0.,-1.));
#1374=DIRECTION('',(4.71852836371596E-33,-1.,-1.8762769116165E-14));
#1375=DIRECTION('',(1.70002900645725E-16,1.8762769116165E-14,-1.));
#1376=DIRECTION('',(1.70002900645725E-16,1.8762769116165E-14,-1.));
#1377=DIRECTION('',(3.43905679126013E-30,-1.,-1.8762769116165E-14));
#1378=DIRECTION('',(0.,1.8762769116165E-14,-1.));
#1379=DIRECTION('',(1.70002900645725E-16,1.8762769116165E-14,-1.));
#1380=DIRECTION('',(-1.,-2.49331617366056E-31,-1.70002900645725E-16));
#1381=DIRECTION('',(1.,1.15648231731784E-16,1.70002900645727E-16));
#1382=DIRECTION('',(1.70002900645727E-16,0.,-1.));
#1383=DIRECTION('',(1.70002900645725E-16,1.8762769116165E-14,-1.));
#1384=DIRECTION('',(1.15648231731787E-16,-1.,-1.8762769116165E-14));
#1385=DIRECTION('',(0.,1.,1.8762769116165E-14));
#1386=DIRECTION('',(0.,-1.8762769116165E-14,1.));
#1387=DIRECTION('',(1.,-3.18972517389408E-30,1.70002900645725E-16));
#1388=DIRECTION('',(1.70002900645725E-16,1.8762769116165E-14,-1.));
#1389=DIRECTION('',(1.70002900645725E-16,1.8762769116165E-14,-1.));
#1390=DIRECTION('',(1.,3.05641755291134E-16,1.70002900645731E-16));
#1391=DIRECTION('',(-3.05641755291134E-16,1.,0.));
#1392=DIRECTION('',(1.70002900645725E-16,1.8762769116165E-14,-1.));
#1393=DIRECTION('',(3.05641755291137E-16,-1.,-1.8762769116165E-14));
#1394=DIRECTION('',(3.46944695195366E-16,-1.,-1.8762769116165E-14));
#1395=DIRECTION('',(0.,1.8762769116165E-14,-1.));
#1396=DIRECTION('',(1.70002900645725E-16,1.8762769116165E-14,-1.));
#1397=DIRECTION('',(-1.,-3.46944695195363E-16,-1.70002900645732E-16));
#1398=DIRECTION('',(1.,1.15648231731784E-16,1.70002900645727E-16));
#1399=DIRECTION('',(1.70002900645727E-16,0.,-1.));
#1400=DIRECTION('',(1.15648231731787E-16,-1.,-1.8762769116165E-14));
#1401=DIRECTION('',(1.70002900645725E-16,1.8762769116165E-14,-1.));
#1402=DIRECTION('',(1.70002900645725E-16,1.8762769116165E-14,-1.));
#1403=DIRECTION('',(1.24376400164365E-16,-1.,-1.8762769116165E-14));
#1404=DIRECTION('',(0.,1.8762769116165E-14,-1.));
#1405=DIRECTION('',(1.70002900645725E-16,1.8762769116165E-14,-1.));
#1406=DIRECTION('',(-1.,-1.24376400164362E-16,-1.70002900645727E-16));
#1407=DIRECTION('',(1.,-2.32848788721743E-17,1.70002900645725E-16));
#1408=DIRECTION('',(1.70002900645725E-16,0.,-1.));
#1409=DIRECTION('',(1.70002900645725E-16,1.8762769116165E-14,-1.));
#1410=DIRECTION('',(-2.32848788721711E-17,-1.,-1.8762769116165E-14));
#1411=DIRECTION('',(1.70002900645725E-16,1.8762769116165E-14,-1.));
#1412=DIRECTION('',(3.14138278328444E-30,-1.,-1.8762769116165E-14));
#1413=DIRECTION('',(0.,1.8762769116165E-14,-1.));
#1414=DIRECTION('',(1.70002900645725E-16,1.8762769116165E-14,-1.));
#1415=DIRECTION('',(-1.,4.83423906096394E-32,-1.70002900645725E-16));
#1416=DIRECTION('',(1.,5.58837092932103E-16,1.70002900645736E-16));
#1417=DIRECTION('',(-5.58837092932103E-16,1.,0.));
#1418=DIRECTION('',(1.70002900645725E-16,1.8762769116165E-14,-1.));
#1419=DIRECTION('',(5.58837092932106E-16,-1.,-1.8762769116165E-14));
#1420=DIRECTION('',(1.,-3.18500664553036E-30,1.70002900645725E-16));
#1421=DIRECTION('',(1.70002900645725E-16,0.,-1.));
#1422=DIRECTION('',(1.70002900645725E-16,1.8762769116165E-14,-1.));
#1423=DIRECTION('',(4.71852836371596E-33,-1.,-1.8762769116165E-14));
#1424=DIRECTION('',(6.51102645138702E-16,-1.,-1.8762769116165E-14));
#1425=DIRECTION('',(0.,1.8762769116165E-14,-1.));
#1426=DIRECTION('',(-1.,-6.51102645138699E-16,-1.70002900645737E-16));
#1427=DIRECTION('',(-1.70002900645725E-16,-1.8762769116165E-14,1.));
#1428=DIRECTION('',(1.,-3.18972517389408E-30,1.70002900645725E-16));
#1429=DIRECTION('',(-1.70002900645725E-16,-1.8762769116165E-14,1.));
#1430=DIRECTION('',(0.,-1.,-1.8762769116165E-14));
#1431=DIRECTION('',(-1.70002900645725E-16,-1.8762769116165E-14,1.));
#1432=DIRECTION('',(0.,-1.,-1.8762769116165E-14));
#1433=DIRECTION('',(-1.70002900645725E-16,-1.8762769116165E-14,1.));
#1434=DIRECTION('',(0.,-1.,-1.8762769116165E-14));
#1435=DIRECTION('',(-1.70002900645725E-16,-1.8762769116165E-14,1.));
#1436=DIRECTION('',(0.,-1.,-1.8762769116165E-14));
#1437=DIRECTION('',(-1.70002900645725E-16,-1.8762769116165E-14,1.));
#1438=DIRECTION('',(0.,-1.,-1.8762769116165E-14));
#1439=DIRECTION('',(-1.70002900645725E-16,-1.8762769116165E-14,1.));
#1440=DIRECTION('',(0.,-1.,-1.8762769116165E-14));
#1441=DIRECTION('',(-1.70002900645725E-16,-1.8762769116165E-14,1.));
#1442=DIRECTION('',(0.,-1.,-1.8762769116165E-14));
#1443=DIRECTION('',(-1.70002900645725E-16,-1.8762769116165E-14,1.));
#1444=DIRECTION('',(0.,-1.,-1.8762769116165E-14));
#1445=DIRECTION('',(1.70002900645725E-16,1.8762769116165E-14,-1.));
#1446=DIRECTION('',(0.,1.,1.8762769116165E-14));
#1447=DIRECTION('',(1.70002900645725E-16,1.8762769116165E-14,-1.));
#1448=DIRECTION('',(0.,1.,1.8762769116165E-14));
#1449=DIRECTION('',(1.70002900645725E-16,1.8762769116165E-14,-1.));
#1450=DIRECTION('',(0.,1.,1.8762769116165E-14));
#1451=DIRECTION('',(1.70002900645725E-16,1.8762769116165E-14,-1.));
#1452=DIRECTION('',(0.,1.,1.8762769116165E-14));
#1453=DIRECTION('',(-0.302001437088229,0.953307469810577,1.78353468324671E-14));
#1454=DIRECTION('',(-0.953307469810577,-0.302001437088229,0.));
#1455=DIRECTION('',(-1.70002900645725E-16,-1.8762769116165E-14,1.));
#1456=DIRECTION('',(-0.953307469810577,-0.302001437088229,-5.8284482719115E-15));
#1457=DIRECTION('',(-1.70002900645725E-16,-1.8762769116165E-14,1.));
#1458=DIRECTION('',(0.,-1.,-1.8762769116165E-14));
#1459=DIRECTION('',(-1.70002900645725E-16,-1.8762769116165E-14,1.));
#1460=DIRECTION('',(1.70002900645725E-16,1.8762769116165E-14,-1.));
#1461=DIRECTION('',(0.,1.,1.8762769116165E-14));
#1462=DIRECTION('',(-0.534424439774966,0.845216255269155,1.5767743745907E-14));
#1463=DIRECTION('',(-0.845216255269155,-0.534424439774966,0.));
#1464=DIRECTION('',(-0.845216255269155,-0.534424439774966,-1.01709715886022E-14));
#1465=DIRECTION('',(1.70002900645725E-16,1.8762769116165E-14,-1.));
#1466=DIRECTION('',(1.,-3.18972517389408E-30,1.70002900645725E-16));
#1467=DIRECTION('',(-1.70002900645725E-16,-1.8762769116165E-14,1.));
#1468=DIRECTION('',(0.,-1.,-1.8762769116165E-14));
#1469=DIRECTION('',(-1.70002900645725E-16,-1.8762769116165E-14,1.));
#1470=DIRECTION('',(-1.70002900645725E-16,-1.8762769116165E-14,1.));
#1471=DIRECTION('',(0.,1.,1.8762769116165E-14));
#1472=DIRECTION('',(-1.70002900645725E-16,-1.8762769116165E-14,1.));
#1473=DIRECTION('',(0.302001437088229,0.953307469810577,1.79380290730755E-14));
#1474=DIRECTION('',(-0.953307469810577,0.302001437088229,0.));
#1475=DIRECTION('',(-0.953307469810577,0.302001437088229,5.50431820176142E-15));
#1476=DIRECTION('',(0.534424439774965,0.845216255269156,1.59494511557824E-14));
#1477=DIRECTION('',(-0.845216255269156,0.534424439774965,0.));
#1478=DIRECTION('',(-0.845216255269156,0.534424439774965,9.8835931584648E-15));
#1479=DIRECTION('',(1.70002900645725E-16,1.8762769116165E-14,-1.));
#1480=DIRECTION('',(1.,-3.18972517389408E-30,1.70002900645725E-16));
#1481=DIRECTION('',(-1.70002900645725E-16,-1.8762769116165E-14,1.));
#1482=DIRECTION('',(0.,-1.,-1.8762769116165E-14));
#1483=DIRECTION('',(-1.70002900645725E-16,-1.8762769116165E-14,1.));
#1484=DIRECTION('',(1.70002900645725E-16,1.8762769116165E-14,-1.));
#1485=DIRECTION('',(0.,1.,1.8762769116165E-14));
#1486=DIRECTION('',(-1.70002900645725E-16,-1.8762769116165E-14,1.));
#1487=DIRECTION('',(0.56099746115098,0.827817521306571,1.56275202182417E-14));
#1488=DIRECTION('',(-0.827817521306571,0.56099746115098,0.));
#1489=DIRECTION('',(-0.827817521306571,0.56099746115098,1.03851344585031E-14));
#1490=DIRECTION('',(-0.827336191141107,-0.561707064961912,-1.06798295231022E-14));
#1491=DIRECTION('',(0.561707064961912,-0.827336191141107,0.));
#1492=DIRECTION('',(0.561707064961912,-0.827336191141107,-1.54276261054712E-14));
#1493=DIRECTION('',(1.70002900645725E-16,1.8762769116165E-14,-1.));
#1494=DIRECTION('',(1.,-3.18972517389408E-30,1.70002900645725E-16));
#1495=DIRECTION('',(-0.560997461150981,0.82781752130657,1.54367778269406E-14));
#1496=DIRECTION('',(-0.82781752130657,-0.560997461150981,0.));
#1497=DIRECTION('',(-1.70002900645725E-16,-1.8762769116165E-14,1.));
#1498=DIRECTION('',(-0.82781752130657,-0.560997461150981,-1.0666597218158E-14));
#1499=DIRECTION('',(-1.70002900645725E-16,-1.8762769116165E-14,1.));
#1500=DIRECTION('',(0.,-1.,-1.8762769116165E-14));
#1501=DIRECTION('',(-1.70002900645725E-16,-1.8762769116165E-14,1.));
#1502=DIRECTION('',(-1.70002900645725E-16,-1.8762769116165E-14,1.));
#1503=DIRECTION('',(0.,1.,1.8762769116165E-14));
#1504=DIRECTION('',(0.827336191141108,-0.561707064961911,-1.03985304184958E-14));
#1505=DIRECTION('',(0.561707064961911,0.827336191141108,0.));
#1506=DIRECTION('',(0.561707064961911,0.827336191141108,1.56186097661847E-14));
#1507=DIRECTION('',(1.70002900645725E-16,1.8762769116165E-14,-1.));
#1508=DIRECTION('',(1.,-3.18972517389408E-30,1.70002900645725E-16));
#1509=DIRECTION('',(-1.70002900645725E-16,-1.8762769116165E-14,1.));
#1510=DIRECTION('',(0.,-1.,-1.8762769116165E-14));
#1511=DIRECTION('',(-1.70002900645725E-16,-1.8762769116165E-14,1.));
#1512=DIRECTION('',(0.,-1.,-1.8762769116165E-14));
#1513=DIRECTION('',(-1.70002900645725E-16,-1.8762769116165E-14,1.));
#1514=DIRECTION('',(1.,-3.18972517389408E-30,1.70002900645725E-16));
#1515=DIRECTION('',(-1.70002900645725E-16,-1.8762769116165E-14,1.));
#1516=DIRECTION('',(0.,-1.,-1.8762769116165E-14));
#1517=DIRECTION('',(-1.70002900645725E-16,-1.8762769116165E-14,1.));
#1518=DIRECTION('',(0.,-1.,-1.8762769116165E-14));
#1519=DIRECTION('',(-1.70002900645725E-16,-1.8762769116165E-14,1.));
#1520=DIRECTION('',(1.,-3.18972517389408E-30,1.70002900645725E-16));
#1521=DIRECTION('',(-1.70002900645725E-16,-1.8762769116165E-14,1.));
#1522=DIRECTION('',(0.,-1.,-1.8762769116165E-14));
#1523=DIRECTION('',(-1.70002900645725E-16,-1.8762769116165E-14,1.));
#1524=DIRECTION('',(0.,-1.,-1.8762769116165E-14));
#1525=DIRECTION('',(-1.70002900645725E-16,-1.8762769116165E-14,1.));
#1526=DIRECTION('',(1.,-3.18972517389408E-30,1.70002900645725E-16));
#1527=DIRECTION('',(-1.70002900645725E-16,-1.8762769116165E-14,1.));
#1528=DIRECTION('',(0.,-1.,-1.8762769116165E-14));
#1529=DIRECTION('',(-1.70002900645725E-16,-1.8762769116165E-14,1.));
#1530=DIRECTION('',(0.,-1.,-1.8762769116165E-14));
#1531=DIRECTION('',(-1.70002900645725E-16,-1.8762769116165E-14,1.));
#1532=DIRECTION('',(1.,-3.18972517389408E-30,1.70002900645725E-16));
#1533=CARTESIAN_POINT('',(0.,0.,0.));
#1534=CARTESIAN_POINT('',(-1.16590591348054E-14,0.120000000000005,0.00999999999999894));
#1535=CARTESIAN_POINT('',(-1.16582091203021E-14,0.120000000000005,0.00499999999999894));
#1536=CARTESIAN_POINT('',(-1.16582091203021E-14,0.114000000000005,0.00499999999999883));
#1537=CARTESIAN_POINT('',(-0.00336598476691809,0.124966905127839,0.023999999999999));
#1538=CARTESIAN_POINT('',(-0.00336598476691809,0.124966905127839,0.023999999999999));
#1539=CARTESIAN_POINT('',(-0.00336598476691809,0.124966905127839,0.027999999999999));
#1540=CARTESIAN_POINT('',(-1.21970281097283E-14,0.12,0.0239999999999989));
#1541=CARTESIAN_POINT('',(0.00512916951596388,0.116886863305867,0.0239999999999989));
#1542=CARTESIAN_POINT('',(0.00512916951598517,0.116886863305898,0.0239999999999989));
#1543=CARTESIAN_POINT('',(0.00512916951598517,0.116886863305898,0.0279999999999989));
#1544=CARTESIAN_POINT('',(-1.19119367147924E-14,0.120000000000004,0.0279999999999989));
#1545=CARTESIAN_POINT('',(-1.21586594958867E-14,4.80874331369136E-15,0.00999999999999669));
#1546=CARTESIAN_POINT('',(-1.21578094813834E-14,4.90255715927219E-15,0.00499999999999669));
#1547=CARTESIAN_POINT('',(-1.21578094813834E-14,-0.0059999999999951,0.00499999999999658));
#1548=CARTESIAN_POINT('',(0.00512916951598522,0.00311313669410637,0.0239999999999967));
#1549=CARTESIAN_POINT('',(0.00512916951598522,0.00311313669410637,0.0239999999999967));
#1550=CARTESIAN_POINT('',(0.00512916951598522,0.00311313669410629,0.0279999999999967));
#1551=CARTESIAN_POINT('',(-1.21731756619337E-14,4.53545881407003E-15,0.0239999999999967));
#1552=CARTESIAN_POINT('',(-0.00336598476691804,-0.00496690512783488,0.0239999999999966));
#1553=CARTESIAN_POINT('',(-0.00336598476691804,-0.00496690512783488,0.0239999999999966));
#1554=CARTESIAN_POINT('',(-0.00336598476691804,-0.00496690512783496,0.0279999999999966));
#1555=CARTESIAN_POINT('',(-1.19119367147924E-14,4.47101346960039E-15,0.0279999999999967));
#1556=CARTESIAN_POINT('',(-0.150000000000012,0.120000000000005,0.00999999999999891));
#1557=CARTESIAN_POINT('',(-0.148783050648839,0.125875290144042,0.023999999999999));
#1558=CARTESIAN_POINT('',(-0.148783050648839,0.125875290144042,0.023999999999999));
#1559=CARTESIAN_POINT('',(-0.148783050648839,0.125875290144042,0.027999999999999));
#1560=CARTESIAN_POINT('',(-0.150000000000012,0.120000000000004,0.0279999999999989));
#1561=CARTESIAN_POINT('',(-0.153520242264329,0.115141204429026,0.0279999999999988));
#1562=CARTESIAN_POINT('',(-0.153520242264329,0.115141204429026,0.0239999999999988));
#1563=CARTESIAN_POINT('',(-0.153520242264329,0.115141204429026,0.0239999999999988));
#1564=CARTESIAN_POINT('',(-0.150000000000012,0.12,0.0239999999999989));
#1565=CARTESIAN_POINT('',(-0.150000000000012,0.120000000000005,0.00499999999999891));
#1566=CARTESIAN_POINT('',(-0.150000000000012,0.114000000000005,0.0049999999999988));
#1567=CARTESIAN_POINT('',(-0.0787500000000067,0.0600000000000021,0.0279999999999978));
#1568=CARTESIAN_POINT('',(0.00796925714027496,-0.00107001752302323,0.0279999999999966));
#1569=CARTESIAN_POINT('',(0.0108093447645647,-0.00525317174015276,0.0279999999999966));
#1570=CARTESIAN_POINT('',(0.000905629729097007,-0.00786170358957554,0.0279999999999965));
#1571=CARTESIAN_POINT('',(0.00517724422511229,-0.0107565020513163,0.0279999999999965));
#1572=CARTESIAN_POINT('',(0.00750000000000027,-0.00750000000000041,0.0279999999999965));
#1573=CARTESIAN_POINT('',(0.0145000000000003,0.0600000000000021,0.0279999999999978));
#1574=CARTESIAN_POINT('',(0.0145000000000002,0.134500000000005,0.0279999999999992));
#1575=CARTESIAN_POINT('',(0.0145000000000003,-0.0145000000000004,0.0279999999999964));
#1576=CARTESIAN_POINT('',(-0.0787500000000067,-0.0145000000000005,0.0279999999999964));
#1577=CARTESIAN_POINT('',(-0.172000000000013,-0.0145000000000005,0.0279999999999964));
#1578=CARTESIAN_POINT('',(-0.172000000000013,0.0600000000000021,0.0279999999999978));
#1579=CARTESIAN_POINT('',(-0.172000000000014,0.134500000000005,0.0279999999999992));
#1580=CARTESIAN_POINT('',(-0.0787500000000068,0.134500000000005,0.0279999999999992));
#1581=CARTESIAN_POINT('',(2.4459601011273E-16,0.112500000000005,0.0279999999999988));
#1582=CARTESIAN_POINT('',(-0.000499999999999757,0.112500000000005,0.0279999999999988));
#1583=CARTESIAN_POINT('',(0.00750000000000025,0.112500000000005,0.0279999999999988));
#1584=CARTESIAN_POINT('',(-0.000499999999999757,0.119500000000005,0.0279999999999989));
#1585=CARTESIAN_POINT('',(-0.00749999999999976,0.119500000000005,0.0279999999999989));
#1586=CARTESIAN_POINT('',(-0.00749999999999976,0.120000000000005,0.0279999999999989));
#1587=CARTESIAN_POINT('',(-0.00749999999999976,0.127500000000005,0.0279999999999991));
#1588=CARTESIAN_POINT('',(-0.0737500000000067,0.127500000000005,0.027999999999999));
#1589=CARTESIAN_POINT('',(-0.140000000000014,0.127500000000005,0.027999999999999));
#1590=CARTESIAN_POINT('',(-0.140000000000014,0.120000000000005,0.0279999999999989));
#1591=CARTESIAN_POINT('',(-0.140000000000014,0.119500000000005,0.0279999999999989));
#1592=CARTESIAN_POINT('',(-0.147000000000014,0.119500000000005,0.0279999999999989));
#1593=CARTESIAN_POINT('',(-0.147000000000014,0.112500000000005,0.0279999999999987));
#1594=CARTESIAN_POINT('',(-0.152500000000013,0.112500000000005,0.0279999999999987));
#1595=CARTESIAN_POINT('',(-0.165000000000014,0.112500000000005,0.0279999999999987));
#1596=CARTESIAN_POINT('',(-0.165000000000014,0.0600000000000021,0.0279999999999978));
#1597=CARTESIAN_POINT('',(-0.165000000000013,0.00749999999999952,0.0279999999999968));
#1598=CARTESIAN_POINT('',(-0.152500000000013,0.00749999999999953,0.0279999999999968));
#1599=CARTESIAN_POINT('',(-0.147000000000014,0.00749999999999953,0.0279999999999968));
#1600=CARTESIAN_POINT('',(-0.147000000000014,0.000499999999999533,0.0279999999999967));
#1601=CARTESIAN_POINT('',(-0.140000000000014,0.000499999999999533,0.0279999999999967));
#1602=CARTESIAN_POINT('',(-0.140000000000014,-4.64038529823796E-16,0.0279999999999966));
#1603=CARTESIAN_POINT('',(-0.140000000000014,-0.00750000000000047,0.0279999999999965));
#1604=CARTESIAN_POINT('',(-0.0737500000000067,-0.00750000000000046,0.0279999999999965));
#1605=CARTESIAN_POINT('',(-0.00749999999999972,-0.00750000000000045,0.0279999999999965));
#1606=CARTESIAN_POINT('',(-0.00749999999999972,-4.48859699408999E-16,0.0279999999999967));
#1607=CARTESIAN_POINT('',(-0.00749999999999972,0.000499999999999552,0.0279999999999967));
#1608=CARTESIAN_POINT('',(-0.000499999999999718,0.000499999999999553,0.0279999999999967));
#1609=CARTESIAN_POINT('',(-0.00049999999999972,0.00749999999999955,0.0279999999999969));
#1610=CARTESIAN_POINT('',(2.80157841370254E-16,0.00749999999999955,0.0279999999999969));
#1611=CARTESIAN_POINT('',(0.00750000000000028,0.00749999999999956,0.0279999999999969));
#1612=CARTESIAN_POINT('',(0.00750000000000026,0.0600000000000022,0.0279999999999978));
#1613=CARTESIAN_POINT('',(0.00750000000000021,0.127500000000005,0.0279999999999991));
#1614=CARTESIAN_POINT('',(0.0108093447645646,0.125253171740157,0.027999999999999));
#1615=CARTESIAN_POINT('',(0.0051772442251122,0.130756502051321,0.0279999999999992));
#1616=CARTESIAN_POINT('',(0.000905629729096945,0.12786170358958,0.0279999999999991));
#1617=CARTESIAN_POINT('',(0.0079692571402749,0.121070017523028,0.0279999999999989));
#1618=CARTESIAN_POINT('',(-0.155787522450249,-0.00809426001164026,0.0279999999999965));
#1619=CARTESIAN_POINT('',(-0.148783050648839,-0.00587529014403771,0.0279999999999965));
#1620=CARTESIAN_POINT('',(-0.162791994251661,-0.0103132298792428,0.0279999999999964));
#1621=CARTESIAN_POINT('',(-0.150000000000012,4.47101346960039E-15,0.0279999999999966));
#1622=CARTESIAN_POINT('',(-0.153520242264329,0.00485879557097816,0.0279999999999967));
#1623=CARTESIAN_POINT('',(-0.159828970011721,0.000869830296027127,0.0279999999999967));
#1624=CARTESIAN_POINT('',(-0.166137697759113,-0.0031191349789239,0.0279999999999966));
#1625=CARTESIAN_POINT('',(-0.164000000000013,-0.00650000000000054,0.0279999999999965));
#1626=CARTESIAN_POINT('',(-0.159828970011721,0.119130169703977,0.0279999999999989));
#1627=CARTESIAN_POINT('',(-0.166137697759113,0.123119134978928,0.0279999999999989));
#1628=CARTESIAN_POINT('',(-0.15578752245025,0.128094260011644,0.027999999999999));
#1629=CARTESIAN_POINT('',(-0.162791994251661,0.130313229879247,0.0279999999999991));
#1630=CARTESIAN_POINT('',(-0.164000000000013,0.126500000000005,0.027999999999999));
#1631=CARTESIAN_POINT('',(-0.150000000000012,4.80874331369136E-15,0.00999999999999666));
#1632=CARTESIAN_POINT('',(-0.148783050648839,-0.00587529014403764,0.0239999999999965));
#1633=CARTESIAN_POINT('',(-0.148783050648839,-0.00587529014403764,0.0239999999999965));
#1634=CARTESIAN_POINT('',(-0.150000000000012,4.55627549578175E-15,0.0239999999999966));
#1635=CARTESIAN_POINT('',(-0.153520242264329,0.00485879557097827,0.0239999999999967));
#1636=CARTESIAN_POINT('',(-0.153520242264329,0.00485879557097823,0.0239999999999967));
#1637=CARTESIAN_POINT('',(-0.150000000000012,4.90255715927219E-15,0.00499999999999666));
#1638=CARTESIAN_POINT('',(-0.150000000000012,-0.0059999999999951,0.00499999999999655));
#1639=CARTESIAN_POINT('',(-0.0750000000000118,0.0600000000000048,0.0099999999999978));
#1640=CARTESIAN_POINT('',(-0.150000000000012,0.120000000000005,0.00999999999999891));
#1641=CARTESIAN_POINT('',(-0.150000000000012,0.118400000000005,0.00999999999999888));
#1642=CARTESIAN_POINT('',(-0.150000000000012,0.120000000000005,0.00999999999999891));
#1643=CARTESIAN_POINT('',(-0.150000000000012,0.117000000000005,0.00999999999999885));
#1644=CARTESIAN_POINT('',(-0.150000000000012,0.120000000000005,0.00999999999999891));
#1645=CARTESIAN_POINT('',(-0.150000000000012,0.120000000000005,0.00499999999999891));
#1646=CARTESIAN_POINT('',(-0.150000000000012,0.118400000000005,0.00499999999999888));
#1647=CARTESIAN_POINT('',(-0.0750000000000118,0.0600000000000049,0.0049999999999978));
#1648=CARTESIAN_POINT('',(-0.150000000000012,0.120000000000004,0.0279999999999989));
#1649=CARTESIAN_POINT('',(-0.150000000000012,0.120000000000004,0.0329999999999989));
#1650=CARTESIAN_POINT('',(-0.150000000000012,0.117000000000004,0.0329999999999988));
#1651=CARTESIAN_POINT('',(-0.0750000000000118,0.0600000000000048,0.0099999999999978));
#1652=CARTESIAN_POINT('',(-1.16590591348054E-14,0.120000000000005,0.00999999999999894));
#1653=CARTESIAN_POINT('',(-1.16590591348054E-14,0.118400000000005,0.00999999999999891));
#1654=CARTESIAN_POINT('',(-1.19088766625808E-14,0.120000000000005,0.00999999999999894));
#1655=CARTESIAN_POINT('',(-1.19088766625808E-14,0.117000000000005,0.00999999999999888));
#1656=CARTESIAN_POINT('',(-1.16590591348054E-14,0.120000000000005,0.00999999999999894));
#1657=CARTESIAN_POINT('',(-1.16582091203021E-14,0.120000000000005,0.00499999999999894));
#1658=CARTESIAN_POINT('',(-1.16582091203021E-14,0.118400000000005,0.00499999999999891));
#1659=CARTESIAN_POINT('',(-0.0750000000000118,0.0600000000000049,0.0049999999999978));
#1660=CARTESIAN_POINT('',(-1.19119367147924E-14,0.120000000000004,0.0279999999999989));
#1661=CARTESIAN_POINT('',(-1.1912762443167E-14,0.120000000000004,0.0329999999999989));
#1662=CARTESIAN_POINT('',(-1.1912762443167E-14,0.117000000000004,0.0329999999999989));
#1663=CARTESIAN_POINT('',(-0.0750000000000118,0.0600000000000048,0.0099999999999978));
#1664=CARTESIAN_POINT('',(-0.150000000000012,4.80847389139555E-15,0.00999999999999666));
#1665=CARTESIAN_POINT('',(-0.150000000000012,-0.00159999999999519,0.00999999999999663));
#1666=CARTESIAN_POINT('',(-0.150000000000012,4.80855961667149E-15,0.00999999999999666));
#1667=CARTESIAN_POINT('',(-0.150000000000012,-0.00299999999999519,0.0099999999999966));
#1668=CARTESIAN_POINT('',(-0.150000000000012,4.80847389139555E-15,0.00999999999999666));
#1669=CARTESIAN_POINT('',(-0.150000000000012,4.90228773697638E-15,0.00499999999999666));
#1670=CARTESIAN_POINT('',(-0.150000000000012,-0.0015999999999951,0.00499999999999663));
#1671=CARTESIAN_POINT('',(-0.0750000000000118,0.0600000000000049,0.0049999999999978));
#1672=CARTESIAN_POINT('',(-0.150000000000012,4.47082977258052E-15,0.0279999999999966));
#1673=CARTESIAN_POINT('',(-0.150000000000012,4.37719962401957E-15,0.0329999999999967));
#1674=CARTESIAN_POINT('',(-0.150000000000012,-0.00299999999999562,0.0329999999999966));
#1675=CARTESIAN_POINT('',(-0.0750000000000118,0.0600000000000048,0.0099999999999978));
#1676=CARTESIAN_POINT('',(-1.21586594958867E-14,4.80847389139555E-15,0.00999999999999669));
#1677=CARTESIAN_POINT('',(-1.21586594958867E-14,-0.00159999999999519,0.00999999999999666));
#1678=CARTESIAN_POINT('',(-1.19088766625808E-14,4.80855961667149E-15,0.00999999999999669));
#1679=CARTESIAN_POINT('',(-1.19088766625808E-14,-0.00299999999999519,0.00999999999999663));
#1680=CARTESIAN_POINT('',(-1.21586594958867E-14,4.80847389139555E-15,0.00999999999999669));
#1681=CARTESIAN_POINT('',(-1.21578094813834E-14,4.90228773697637E-15,0.00499999999999669));
#1682=CARTESIAN_POINT('',(-1.21578094813834E-14,-0.0015999999999951,0.00499999999999666));
#1683=CARTESIAN_POINT('',(-0.0750000000000118,0.0600000000000049,0.0049999999999978));
#1684=CARTESIAN_POINT('',(-1.19119367147924E-14,4.47082977258052E-15,0.0279999999999967));
#1685=CARTESIAN_POINT('',(-1.1912762443167E-14,4.37719962401957E-15,0.0329999999999967));
#1686=CARTESIAN_POINT('',(-1.1912762443167E-14,-0.00299999999999562,0.0329999999999966));
#1687=CARTESIAN_POINT('',(-0.152500000000013,0.00749999999999944,0.0329999999999968));
#1688=CARTESIAN_POINT('',(-0.152500000000013,0.00749999999999944,0.0329999999999968));
#1689=CARTESIAN_POINT('',(-0.165000000000013,0.00749999999999943,0.0329999999999968));
#1690=CARTESIAN_POINT('',(-0.147000000000014,0.00749999999999944,0.0329999999999968));
#1691=CARTESIAN_POINT('',(-0.147000000000014,0.00749999999999944,0.0329999999999968));
#1692=CARTESIAN_POINT('',(-0.165000000000013,0.00749999999999943,0.0329999999999968));
#1693=CARTESIAN_POINT('',(-0.165000000000014,0.060000000000002,0.0329999999999978));
#1694=CARTESIAN_POINT('',(-0.165000000000014,0.112500000000005,0.0329999999999988));
#1695=CARTESIAN_POINT('',(-0.165000000000014,0.112500000000005,0.0329999999999988));
#1696=CARTESIAN_POINT('',(-0.165000000000014,0.060000000000002,0.0329999999999978));
#1697=CARTESIAN_POINT('',(-0.152500000000013,0.112500000000005,0.0329999999999988));
#1698=CARTESIAN_POINT('',(-0.147000000000014,0.112500000000005,0.0329999999999988));
#1699=CARTESIAN_POINT('',(-0.147000000000014,0.112500000000005,0.0329999999999988));
#1700=CARTESIAN_POINT('',(-0.152500000000013,0.112500000000005,0.0329999999999988));
#1701=CARTESIAN_POINT('',(-0.140000000000014,0.120000000000005,0.0329999999999989));
#1702=CARTESIAN_POINT('',(-0.140000000000014,0.120000000000005,0.0329999999999989));
#1703=CARTESIAN_POINT('',(-0.140000000000014,0.127500000000005,0.0329999999999991));
#1704=CARTESIAN_POINT('',(-0.140000000000014,0.119500000000005,0.0329999999999989));
#1705=CARTESIAN_POINT('',(-0.140000000000014,0.119500000000005,0.0329999999999989));
#1706=CARTESIAN_POINT('',(-0.140000000000014,0.127500000000005,0.0329999999999991));
#1707=CARTESIAN_POINT('',(-0.0737500000000067,0.127500000000005,0.0329999999999991));
#1708=CARTESIAN_POINT('',(-0.00749999999999976,0.127500000000005,0.0329999999999991));
#1709=CARTESIAN_POINT('',(-0.00749999999999976,0.127500000000005,0.0329999999999991));
#1710=CARTESIAN_POINT('',(-0.0737500000000067,0.127500000000005,0.0329999999999991));
#1711=CARTESIAN_POINT('',(-0.00749999999999976,0.120000000000005,0.0329999999999989));
#1712=CARTESIAN_POINT('',(-0.00749999999999976,0.119500000000005,0.0329999999999989));
#1713=CARTESIAN_POINT('',(-0.00749999999999976,0.119500000000005,0.0329999999999989));
#1714=CARTESIAN_POINT('',(-0.00749999999999976,0.120000000000005,0.0329999999999989));
#1715=CARTESIAN_POINT('',(2.43745995609501E-16,0.112500000000005,0.0329999999999988));
#1716=CARTESIAN_POINT('',(2.43745995609501E-16,0.112500000000005,0.0329999999999988));
#1717=CARTESIAN_POINT('',(-0.000499999999999758,0.112500000000005,0.0329999999999988));
#1718=CARTESIAN_POINT('',(0.00750000000000025,0.112500000000005,0.0329999999999988));
#1719=CARTESIAN_POINT('',(-0.000499999999999758,0.112500000000005,0.0329999999999988));
#1720=CARTESIAN_POINT('',(0.00750000000000025,0.112500000000005,0.0329999999999988));
#1721=CARTESIAN_POINT('',(0.00750000000000026,0.0600000000000021,0.0329999999999978));
#1722=CARTESIAN_POINT('',(0.00750000000000028,0.00749999999999947,0.0329999999999969));
#1723=CARTESIAN_POINT('',(0.00750000000000028,0.00749999999999947,0.0329999999999969));
#1724=CARTESIAN_POINT('',(0.00750000000000026,0.0600000000000021,0.0329999999999978));
#1725=CARTESIAN_POINT('',(2.79307826867025E-16,0.00749999999999946,0.0329999999999969));
#1726=CARTESIAN_POINT('',(-0.000499999999999721,0.00749999999999946,0.0329999999999969));
#1727=CARTESIAN_POINT('',(-0.000499999999999721,0.00749999999999946,0.0329999999999969));
#1728=CARTESIAN_POINT('',(2.79307826867025E-16,0.00749999999999946,0.0329999999999969));
#1729=CARTESIAN_POINT('',(-0.00749999999999972,-5.42673544989824E-16,0.0329999999999967));
#1730=CARTESIAN_POINT('',(-0.00749999999999972,-5.42673544989824E-16,0.0329999999999967));
#1731=CARTESIAN_POINT('',(-0.00749999999999972,0.000499999999999458,0.0329999999999967));
#1732=CARTESIAN_POINT('',(-0.00749999999999972,-0.00750000000000054,0.0329999999999966));
#1733=CARTESIAN_POINT('',(-0.00749999999999972,0.000499999999999458,0.0329999999999967));
#1734=CARTESIAN_POINT('',(-0.00749999999999972,-0.00750000000000054,0.0329999999999966));
#1735=CARTESIAN_POINT('',(-0.0737500000000067,-0.00750000000000055,0.0329999999999966));
#1736=CARTESIAN_POINT('',(-0.140000000000014,-0.00750000000000056,0.0329999999999966));
#1737=CARTESIAN_POINT('',(-0.140000000000014,-0.00750000000000056,0.0329999999999966));
#1738=CARTESIAN_POINT('',(-0.0737500000000067,-0.00750000000000055,0.0329999999999966));
#1739=CARTESIAN_POINT('',(0.0145000000000003,0.060000000000002,0.0329999999999978));
#1740=CARTESIAN_POINT('',(0.0145000000000002,0.134500000000005,0.0329999999999992));
#1741=CARTESIAN_POINT('',(0.0145000000000002,0.134500000000005,0.0329999999999992));
#1742=CARTESIAN_POINT('',(0.0145000000000003,0.060000000000002,0.0329999999999978));
#1743=CARTESIAN_POINT('',(0.0145000000000003,-0.0145000000000005,0.0329999999999964));
#1744=CARTESIAN_POINT('',(0.0145000000000003,-0.0145000000000005,0.0329999999999964));
#1745=CARTESIAN_POINT('',(-0.0787500000000068,0.134500000000005,0.0329999999999992));
#1746=CARTESIAN_POINT('',(-0.172000000000014,0.134500000000005,0.0329999999999992));
#1747=CARTESIAN_POINT('',(-0.172000000000014,0.134500000000005,0.0329999999999992));
#1748=CARTESIAN_POINT('',(-0.0787500000000068,0.134500000000005,0.0329999999999992));
#1749=CARTESIAN_POINT('',(-0.172000000000013,0.060000000000002,0.0329999999999978));
#1750=CARTESIAN_POINT('',(-0.172000000000013,-0.0145000000000006,0.0329999999999964));
#1751=CARTESIAN_POINT('',(-0.172000000000013,-0.0145000000000006,0.0329999999999964));
#1752=CARTESIAN_POINT('',(-0.172000000000013,0.060000000000002,0.0329999999999978));
#1753=CARTESIAN_POINT('',(-0.140000000000014,-5.57852375404621E-16,0.0329999999999967));
#1754=CARTESIAN_POINT('',(-0.140000000000014,0.000499999999999439,0.0329999999999967));
#1755=CARTESIAN_POINT('',(-0.140000000000014,0.000499999999999439,0.0329999999999967));
#1756=CARTESIAN_POINT('',(-0.140000000000014,-5.57852375404621E-16,0.0329999999999967));
#1757=CARTESIAN_POINT('',(-0.0787500000000067,-0.0145000000000006,0.0329999999999964));
#1758=CARTESIAN_POINT('',(-0.0787500000000067,-0.0145000000000006,0.0329999999999964));
#1759=CARTESIAN_POINT('',(-0.0787500000000067,0.060000000000002,0.0329999999999978));
#1760=CARTESIAN_POINT('',(0.00750000000000027,-0.0075000000000005,0.0329999999999966));
#1761=CARTESIAN_POINT('',(0.00750000000000027,-0.0095000000000005,0.0329999999999965));
#1762=CARTESIAN_POINT('',(0.00750000000000021,0.127500000000005,0.0329999999999991));
#1763=CARTESIAN_POINT('',(0.00750000000000021,0.125500000000005,0.0329999999999991));
#1764=CARTESIAN_POINT('',(-0.164000000000013,0.126500000000005,0.0329999999999991));
#1765=CARTESIAN_POINT('',(-0.164000000000013,0.124500000000005,0.032999999999999));
#1766=CARTESIAN_POINT('',(-0.164000000000013,-0.00650000000000063,0.0329999999999966));
#1767=CARTESIAN_POINT('',(-0.164000000000013,-0.00850000000000063,0.0329999999999965));
#1768=CARTESIAN_POINT('',(-0.000499999999999758,0.119500000000005,0.0329999999999989));
#1769=CARTESIAN_POINT('',(-0.000499999999999719,0.000499999999999459,0.0329999999999967));
#1770=CARTESIAN_POINT('',(-0.147000000000014,0.000499999999999439,0.0329999999999967));
#1771=CARTESIAN_POINT('',(-0.147000000000014,0.119500000000005,0.0329999999999989));
#1772=CARTESIAN_POINT('',(-0.000499999999999758,0.119500000000005,0.0329999999999989));
#1773=CARTESIAN_POINT('',(-0.000499999999999719,0.000499999999999459,0.0329999999999967));
#1774=CARTESIAN_POINT('',(-0.147000000000014,0.119500000000005,0.0329999999999989));
#1775=CARTESIAN_POINT('',(-0.147000000000014,0.000499999999999439,0.0329999999999967));
#1776=CARTESIAN_POINT('',(-0.155787522450249,-0.00809426001164019,0.0239999999999965));
#1777=CARTESIAN_POINT('',(-0.162791994251661,-0.0103132298792427,0.0239999999999964));
#1778=CARTESIAN_POINT('',(-0.162791994251661,-0.0103132298792427,0.0239999999999964));
#1779=CARTESIAN_POINT('',(-0.155787522450249,-0.00809426001164019,0.0239999999999965));
#1780=CARTESIAN_POINT('',(-0.164000000000013,-0.00650000000000046,0.0239999999999965));
#1781=CARTESIAN_POINT('',(-0.166137697759113,-0.00311913497892382,0.0239999999999966));
#1782=CARTESIAN_POINT('',(-0.166137697759113,-0.00311913497892382,0.0239999999999966));
#1783=CARTESIAN_POINT('',(-0.164000000000013,-0.00650000000000046,0.0239999999999965));
#1784=CARTESIAN_POINT('',(-0.159828970011721,0.000869830296027202,0.0239999999999967));
#1785=CARTESIAN_POINT('',(-0.159828970011721,0.000869830296027202,0.0239999999999967));
#1786=CARTESIAN_POINT('',(-0.0787500000000067,0.0600000000000022,0.0239999999999978));
#1787=CARTESIAN_POINT('',(-0.164000000000013,0.126500000000005,0.023999999999999));
#1788=CARTESIAN_POINT('',(-0.162791994251661,0.130313229879247,0.0239999999999991));
#1789=CARTESIAN_POINT('',(-0.162791994251661,0.130313229879247,0.0239999999999991));
#1790=CARTESIAN_POINT('',(-0.164000000000013,0.126500000000005,0.023999999999999));
#1791=CARTESIAN_POINT('',(-0.166137697759113,0.123119134978928,0.0239999999999989));
#1792=CARTESIAN_POINT('',(-0.166137697759113,0.123119134978928,0.0239999999999989));
#1793=CARTESIAN_POINT('',(-0.15578752245025,0.128094260011644,0.023999999999999));
#1794=CARTESIAN_POINT('',(-0.15578752245025,0.128094260011644,0.023999999999999));
#1795=CARTESIAN_POINT('',(-0.159828970011721,0.119130169703977,0.0239999999999989));
#1796=CARTESIAN_POINT('',(-0.159828970011721,0.119130169703977,0.0239999999999989));
#1797=CARTESIAN_POINT('',(-0.0787500000000067,0.0600000000000022,0.0239999999999978));
#1798=CARTESIAN_POINT('',(0.00750000000000027,-0.00750000000000033,0.0239999999999965));
#1799=CARTESIAN_POINT('',(0.00517724422511229,-0.0107565020513162,0.0239999999999965));
#1800=CARTESIAN_POINT('',(0.00517724422511229,-0.0107565020513162,0.0239999999999965));
#1801=CARTESIAN_POINT('',(0.00750000000000027,-0.00750000000000033,0.0239999999999965));
#1802=CARTESIAN_POINT('',(0.0108093447645647,-0.00525317174015268,0.0239999999999966));
#1803=CARTESIAN_POINT('',(0.0108093447645647,-0.00525317174015268,0.0239999999999966));
#1804=CARTESIAN_POINT('',(0.000905629729097007,-0.00786170358957547,0.0239999999999965));
#1805=CARTESIAN_POINT('',(0.000905629729097007,-0.00786170358957547,0.0239999999999965));
#1806=CARTESIAN_POINT('',(0.00796925714027496,-0.00107001752302316,0.0239999999999966));
#1807=CARTESIAN_POINT('',(0.00796925714027496,-0.00107001752302316,0.0239999999999966));
#1808=CARTESIAN_POINT('',(-0.0787500000000067,0.0600000000000022,0.0239999999999978));
#1809=CARTESIAN_POINT('',(0.000905629729096946,0.12786170358958,0.0239999999999991));
#1810=CARTESIAN_POINT('',(0.0051772442251122,0.130756502051321,0.0239999999999992));
#1811=CARTESIAN_POINT('',(0.0051772442251122,0.130756502051321,0.0239999999999992));
#1812=CARTESIAN_POINT('',(0.000905629729096946,0.12786170358958,0.0239999999999991));
#1813=CARTESIAN_POINT('',(0.00750000000000021,0.127500000000005,0.0239999999999991));
#1814=CARTESIAN_POINT('',(0.0108093447645646,0.125253171740157,0.023999999999999));
#1815=CARTESIAN_POINT('',(0.0108093447645646,0.125253171740157,0.023999999999999));
#1816=CARTESIAN_POINT('',(0.00750000000000021,0.127500000000005,0.0239999999999991));
#1817=CARTESIAN_POINT('',(0.0079692571402749,0.121070017523028,0.0239999999999989));
#1818=CARTESIAN_POINT('',(0.0079692571402749,0.121070017523028,0.0239999999999989));
#1819=CARTESIAN_POINT('',(-0.0787500000000067,0.0600000000000022,0.0239999999999978));
#1820=CARTESIAN_POINT('',(-0.164000000000013,-0.00650000000000052,0.0269999999999965));
#1821=CARTESIAN_POINT('',(-0.164000000000013,-0.00650000000000052,0.0269999999999965));
#1822=CARTESIAN_POINT('',(-0.164000000000013,-0.00850000000000052,0.0269999999999965));
#1823=CARTESIAN_POINT('',(-0.0782500000000067,0.0600000000000022,0.0269999999999978));
#1824=CARTESIAN_POINT('',(-0.164000000000013,0.126500000000005,0.026999999999999));
#1825=CARTESIAN_POINT('',(-0.164000000000013,0.126500000000005,0.026999999999999));
#1826=CARTESIAN_POINT('',(-0.164000000000013,0.124500000000005,0.026999999999999));
#1827=CARTESIAN_POINT('',(-0.0782500000000067,0.0600000000000022,0.0269999999999978));
#1828=CARTESIAN_POINT('',(0.00750000000000021,0.127500000000005,0.0269999999999991));
#1829=CARTESIAN_POINT('',(0.00750000000000021,0.127500000000005,0.0269999999999991));
#1830=CARTESIAN_POINT('',(0.00750000000000021,0.125500000000005,0.0269999999999991));
#1831=CARTESIAN_POINT('',(-0.0782500000000067,0.0600000000000022,0.0269999999999978));
#1832=CARTESIAN_POINT('',(0.00750000000000027,-0.00750000000000039,0.0269999999999965));
#1833=CARTESIAN_POINT('',(0.00750000000000027,-0.00750000000000039,0.0269999999999965));
#1834=CARTESIAN_POINT('',(0.00750000000000027,-0.00950000000000039,0.0269999999999965));
#1835=CARTESIAN_POINT('',(-0.0782500000000067,0.0600000000000022,0.0269999999999978));
#1836=MECHANICAL_DESIGN_GEOMETRIC_PRESENTATION_REPRESENTATION('',(#1081),
#1837);
#1837=(
GEOMETRIC_REPRESENTATION_CONTEXT(3)
GLOBAL_UNCERTAINTY_ASSIGNED_CONTEXT((#1838))
GLOBAL_UNIT_ASSIGNED_CONTEXT((#1841,#1840,#1839))
REPRESENTATION_CONTEXT('Part 1','TOP_LEVEL_ASSEMBLY_PART')
);
#1838=UNCERTAINTY_MEASURE_WITH_UNIT(LENGTH_MEASURE(1.E-8),#1841,
'DISTANCE_ACCURACY_VALUE','Maximum Tolerance applied to model');
#1839=(
NAMED_UNIT(*)
SI_UNIT($,.STERADIAN.)
SOLID_ANGLE_UNIT()
);
#1840=(
NAMED_UNIT(*)
PLANE_ANGLE_UNIT()
SI_UNIT($,.RADIAN.)
);
#1841=(
LENGTH_UNIT()
NAMED_UNIT(*)
SI_UNIT($,.METRE.)
);
#1842=PRODUCT_DEFINITION_SHAPE('','',#1843);
#1843=PRODUCT_DEFINITION('','',#1845,#1844);
#1844=PRODUCT_DEFINITION_CONTEXT('',#1851,'design');
#1845=PRODUCT_DEFINITION_FORMATION_WITH_SPECIFIED_SOURCE('','',#1847,
 .NOT_KNOWN.);
#1846=PRODUCT_RELATED_PRODUCT_CATEGORY('','',(#1847));
#1847=PRODUCT('Part 1','Part 1','Part 1',(#1849));
#1848=PRODUCT_CATEGORY('','');
#1849=PRODUCT_CONTEXT('',#1851,'mechanical');
#1850=APPLICATION_PROTOCOL_DEFINITION('international standard',
'ap242_managed_model_based_3d_engineering',2020,#1851);
#1851=APPLICATION_CONTEXT('managed model based 3d engineering');
ENDSEC;
END-ISO-10303-21;
