ISO-10303-21;
HEADER;
/* Generated by software containing ST-Developer
 * from STEP Tools, Inc. (www.steptools.com) 
 */
/* OPTION: using custom renumber hook */

FILE_DESCRIPTION(
/* description */ ('STEP AP242 Edition 2',
'CAx-IF Rec.Pracs.---Representation and Presentation of Product Manufa
cturing Information (PMI)---4.0---2014-10-13',
'CAx-IF Rec.Pracs.---3D Tessellated Geometry---0.4---2014-09-14','2;1',
'CAx-IF Rec.Pracs.---User Defined Attributes---1.5---2016-08-15'),
/* implementation_level */ '2;1');

FILE_NAME(
/* name */ 'drzak_pot',
/* time_stamp */ '2026-07-22T21:00:17Z',
/* author */ (''),
/* organization */ (''),
/* preprocessor_version */ 'ST-DEVELOPER v20',
/* originating_system */ 'ONSHAPE BY PTC INC, 1.218',
/* authorisation */ '  ');

FILE_SCHEMA (('AP242_MANAGED_MODEL_BASED_3D_ENGINEERING_MIM_LF { 1 0 10303 442 3 1 4 }'));
ENDSEC;

DATA;
#10=SHAPE_REPRESENTATION_RELATIONSHIP('','',#1186,#11);
#11=ADVANCED_BREP_SHAPE_REPRESENTATION('',(#1184),#1999);
#12=CONICAL_SURFACE('',#1307,0.006,0.785398163397449);
#13=CONICAL_SURFACE('',#1308,0.006,0.785398163397448);
#14=CONICAL_SURFACE('',#1309,0.006,0.78539816339745);
#15=CONICAL_SURFACE('',#1310,0.006,0.785398163397449);
#16=B_SPLINE_CURVE_WITH_KNOTS('',3,(#1937,#1938,#1939,#1940),
 .UNSPECIFIED.,.F.,.F.,(4,4),(0.,0.0042885949754545),.UNSPECIFIED.);
#17=B_SPLINE_CURVE_WITH_KNOTS('',3,(#1941,#1942,#1943,#1944),
 .UNSPECIFIED.,.F.,.F.,(4,4),(0.,0.00428859497545448),.UNSPECIFIED.);
#18=B_SPLINE_CURVE_WITH_KNOTS('',3,(#1946,#1947,#1948,#1949),
 .UNSPECIFIED.,.F.,.F.,(4,4),(0.,0.00428859497545448),.UNSPECIFIED.);
#19=B_SPLINE_CURVE_WITH_KNOTS('',3,(#1954,#1955,#1956,#1957),
 .UNSPECIFIED.,.F.,.F.,(4,4),(0.,0.00428859497545454),.UNSPECIFIED.);
#20=B_SPLINE_CURVE_WITH_KNOTS('',3,(#1959,#1960,#1961,#1962),
 .UNSPECIFIED.,.F.,.F.,(4,4),(0.,0.00428859497545452),.UNSPECIFIED.);
#21=B_SPLINE_CURVE_WITH_KNOTS('',3,(#1963,#1964,#1965,#1966),
 .UNSPECIFIED.,.F.,.F.,(4,4),(0.,0.00428859497545448),.UNSPECIFIED.);
#22=B_SPLINE_CURVE_WITH_KNOTS('',3,(#1974,#1975,#1976,#1977),
 .UNSPECIFIED.,.F.,.F.,(4,4),(0.,0.00513432618909597),.UNSPECIFIED.);
#23=B_SPLINE_CURVE_WITH_KNOTS('',3,(#1982,#1983,#1984,#1985),
 .UNSPECIFIED.,.F.,.F.,(4,4),(0.,0.00513432618909589),.UNSPECIFIED.);
#24=CYLINDRICAL_SURFACE('',#1203,0.006);
#25=CYLINDRICAL_SURFACE('',#1207,0.006);
#26=CYLINDRICAL_SURFACE('',#1211,0.006);
#27=CYLINDRICAL_SURFACE('',#1235,0.00355000000000027);
#28=CYLINDRICAL_SURFACE('',#1236,0.00354999999999945);
#29=CYLINDRICAL_SURFACE('',#1240,0.0085);
#30=CYLINDRICAL_SURFACE('',#1252,0.0011);
#31=CYLINDRICAL_SURFACE('',#1255,0.0011);
#32=CYLINDRICAL_SURFACE('',#1262,0.00100000000000005);
#33=CYLINDRICAL_SURFACE('',#1263,0.00100000000000005);
#34=CYLINDRICAL_SURFACE('',#1264,0.004);
#35=CYLINDRICAL_SURFACE('',#1266,0.004);
#36=CYLINDRICAL_SURFACE('',#1268,0.004);
#37=CYLINDRICAL_SURFACE('',#1270,0.004);
#38=CYLINDRICAL_SURFACE('',#1272,0.00100000000000005);
#39=CYLINDRICAL_SURFACE('',#1273,0.00100000000000005);
#40=CYLINDRICAL_SURFACE('',#1277,0.0016);
#41=CYLINDRICAL_SURFACE('',#1283,0.0016);
#42=CYLINDRICAL_SURFACE('',#1289,0.0016);
#43=CYLINDRICAL_SURFACE('',#1292,0.003);
#44=CYLINDRICAL_SURFACE('',#1293,0.003);
#45=CYLINDRICAL_SURFACE('',#1294,0.003);
#46=LINE('',#1653,#134);
#47=LINE('',#1656,#135);
#48=LINE('',#1660,#136);
#49=LINE('',#1663,#137);
#50=LINE('',#1666,#138);
#51=LINE('',#1668,#139);
#52=LINE('',#1670,#140);
#53=LINE('',#1671,#141);
#54=LINE('',#1674,#142);
#55=LINE('',#1676,#143);
#56=LINE('',#1678,#144);
#57=LINE('',#1679,#145);
#58=LINE('',#1682,#146);
#59=LINE('',#1684,#147);
#60=LINE('',#1686,#148);
#61=LINE('',#1691,#149);
#62=LINE('',#1696,#150);
#63=LINE('',#1700,#151);
#64=LINE('',#1704,#152);
#65=LINE('',#1707,#153);
#66=LINE('',#1712,#154);
#67=LINE('',#1716,#155);
#68=LINE('',#1718,#156);
#69=LINE('',#1720,#157);
#70=LINE('',#1724,#158);
#71=LINE('',#1728,#159);
#72=LINE('',#1730,#160);
#73=LINE('',#1732,#161);
#74=LINE('',#1734,#162);
#75=LINE('',#1779,#163);
#76=LINE('',#1782,#164);
#77=LINE('',#1784,#165);
#78=LINE('',#1786,#166);
#79=LINE('',#1790,#167);
#80=LINE('',#1794,#168);
#81=LINE('',#1798,#169);
#82=LINE('',#1802,#170);
#83=LINE('',#1804,#171);
#84=LINE('',#1805,#172);
#85=LINE('',#1807,#173);
#86=LINE('',#1809,#174);
#87=LINE('',#1816,#175);
#88=LINE('',#1818,#176);
#89=LINE('',#1820,#177);
#90=LINE('',#1822,#178);
#91=LINE('',#1824,#179);
#92=LINE('',#1826,#180);
#93=LINE('',#1830,#181);
#94=LINE('',#1833,#182);
#95=LINE('',#1835,#183);
#96=LINE('',#1837,#184);
#97=LINE('',#1839,#185);
#98=LINE('',#1841,#186);
#99=LINE('',#1843,#187);
#100=LINE('',#1845,#188);
#101=LINE('',#1847,#189);
#102=LINE('',#1850,#190);
#103=LINE('',#1852,#191);
#104=LINE('',#1854,#192);
#105=LINE('',#1856,#193);
#106=LINE('',#1858,#194);
#107=LINE('',#1860,#195);
#108=LINE('',#1862,#196);
#109=LINE('',#1874,#197);
#110=LINE('',#1881,#198);
#111=LINE('',#1882,#199);
#112=LINE('',#1884,#200);
#113=LINE('',#1886,#201);
#114=LINE('',#1888,#202);
#115=LINE('',#1890,#203);
#116=LINE('',#1892,#204);
#117=LINE('',#1894,#205);
#118=LINE('',#1929,#206);
#119=LINE('',#1930,#207);
#120=LINE('',#1932,#208);
#121=LINE('',#1934,#209);
#122=LINE('',#1935,#210);
#123=LINE('',#1950,#211);
#124=LINE('',#1952,#212);
#125=LINE('',#1968,#213);
#126=LINE('',#1970,#214);
#127=LINE('',#1972,#215);
#128=LINE('',#1978,#216);
#129=LINE('',#1980,#217);
#130=LINE('',#1986,#218);
#131=LINE('',#1988,#219);
#132=LINE('',#1990,#220);
#133=LINE('',#1992,#221);
#134=VECTOR('',#1319,1.);
#135=VECTOR('',#1320,1.);
#136=VECTOR('',#1323,1.);
#137=VECTOR('',#1326,1.);
#138=VECTOR('',#1327,1.);
#139=VECTOR('',#1328,1.);
#140=VECTOR('',#1329,1.);
#141=VECTOR('',#1330,1.);
#142=VECTOR('',#1331,1.);
#143=VECTOR('',#1332,1.);
#144=VECTOR('',#1333,1.);
#145=VECTOR('',#1334,1.);
#146=VECTOR('',#1335,1.);
#147=VECTOR('',#1336,1.);
#148=VECTOR('',#1337,1.);
#149=VECTOR('',#1342,1.);
#150=VECTOR('',#1345,1.);
#151=VECTOR('',#1348,1.);
#152=VECTOR('',#1351,1.);
#153=VECTOR('',#1354,1.);
#154=VECTOR('',#1357,1.);
#155=VECTOR('',#1360,1.);
#156=VECTOR('',#1361,1.);
#157=VECTOR('',#1362,1.);
#158=VECTOR('',#1365,1.);
#159=VECTOR('',#1368,1.);
#160=VECTOR('',#1369,1.);
#161=VECTOR('',#1370,1.);
#162=VECTOR('',#1371,1.);
#163=VECTOR('',#1420,1.);
#164=VECTOR('',#1421,1.);
#165=VECTOR('',#1422,1.);
#166=VECTOR('',#1423,1.);
#167=VECTOR('',#1426,1.);
#168=VECTOR('',#1429,1.);
#169=VECTOR('',#1432,1.);
#170=VECTOR('',#1435,1.);
#171=VECTOR('',#1438,1.);
#172=VECTOR('',#1439,1.);
#173=VECTOR('',#1442,1.);
#174=VECTOR('',#1445,1.);
#175=VECTOR('',#1456,1.);
#176=VECTOR('',#1457,1.);
#177=VECTOR('',#1458,1.);
#178=VECTOR('',#1461,1.);
#179=VECTOR('',#1462,1.);
#180=VECTOR('',#1465,1.);
#181=VECTOR('',#1470,1.);
#182=VECTOR('',#1475,1.);
#183=VECTOR('',#1476,1.);
#184=VECTOR('',#1477,1.);
#185=VECTOR('',#1480,1.);
#186=VECTOR('',#1481,1.);
#187=VECTOR('',#1484,1.);
#188=VECTOR('',#1485,1.);
#189=VECTOR('',#1488,1.);
#190=VECTOR('',#1493,1.);
#191=VECTOR('',#1494,1.);
#192=VECTOR('',#1495,1.);
#193=VECTOR('',#1498,1.);
#194=VECTOR('',#1499,1.);
#195=VECTOR('',#1502,1.);
#196=VECTOR('',#1503,1.);
#197=VECTOR('',#1518,1.);
#198=VECTOR('',#1531,1.);
#199=VECTOR('',#1532,1.);
#200=VECTOR('',#1535,1.);
#201=VECTOR('',#1538,1.);
#202=VECTOR('',#1541,1.);
#203=VECTOR('',#1544,1.);
#204=VECTOR('',#1547,1.);
#205=VECTOR('',#1550,1.);
#206=VECTOR('',#1601,1.);
#207=VECTOR('',#1602,1.);
#208=VECTOR('',#1603,1.);
#209=VECTOR('',#1604,1.);
#210=VECTOR('',#1605,1.);
#211=VECTOR('',#1610,1.);
#212=VECTOR('',#1613,1.);
#213=VECTOR('',#1620,1.);
#214=VECTOR('',#1621,1.);
#215=VECTOR('',#1622,1.);
#216=VECTOR('',#1625,1.);
#217=VECTOR('',#1628,1.);
#218=VECTOR('',#1629,1.);
#219=VECTOR('',#1632,1.);
#220=VECTOR('',#1633,1.);
#221=VECTOR('',#1636,1.);
#222=ORIENTED_EDGE('',*,*,#520,.F.);
#223=ORIENTED_EDGE('',*,*,#521,.F.);
#224=ORIENTED_EDGE('',*,*,#522,.T.);
#225=ORIENTED_EDGE('',*,*,#523,.T.);
#226=ORIENTED_EDGE('',*,*,#524,.F.);
#227=ORIENTED_EDGE('',*,*,#525,.T.);
#228=ORIENTED_EDGE('',*,*,#526,.F.);
#229=ORIENTED_EDGE('',*,*,#527,.T.);
#230=ORIENTED_EDGE('',*,*,#528,.T.);
#231=ORIENTED_EDGE('',*,*,#529,.F.);
#232=ORIENTED_EDGE('',*,*,#530,.F.);
#233=ORIENTED_EDGE('',*,*,#531,.F.);
#234=ORIENTED_EDGE('',*,*,#532,.T.);
#235=ORIENTED_EDGE('',*,*,#533,.T.);
#236=ORIENTED_EDGE('',*,*,#534,.F.);
#237=ORIENTED_EDGE('',*,*,#535,.F.);
#238=ORIENTED_EDGE('',*,*,#536,.T.);
#239=ORIENTED_EDGE('',*,*,#537,.T.);
#240=ORIENTED_EDGE('',*,*,#538,.F.);
#241=ORIENTED_EDGE('',*,*,#539,.F.);
#242=ORIENTED_EDGE('',*,*,#540,.F.);
#243=ORIENTED_EDGE('',*,*,#541,.T.);
#244=ORIENTED_EDGE('',*,*,#542,.F.);
#245=ORIENTED_EDGE('',*,*,#543,.T.);
#246=ORIENTED_EDGE('',*,*,#544,.T.);
#247=ORIENTED_EDGE('',*,*,#545,.F.);
#248=ORIENTED_EDGE('',*,*,#546,.T.);
#249=ORIENTED_EDGE('',*,*,#547,.F.);
#250=ORIENTED_EDGE('',*,*,#548,.F.);
#251=ORIENTED_EDGE('',*,*,#549,.F.);
#252=ORIENTED_EDGE('',*,*,#550,.T.);
#253=ORIENTED_EDGE('',*,*,#551,.F.);
#254=ORIENTED_EDGE('',*,*,#552,.T.);
#255=ORIENTED_EDGE('',*,*,#553,.F.);
#256=ORIENTED_EDGE('',*,*,#554,.F.);
#257=ORIENTED_EDGE('',*,*,#555,.F.);
#258=ORIENTED_EDGE('',*,*,#556,.T.);
#259=ORIENTED_EDGE('',*,*,#557,.F.);
#260=ORIENTED_EDGE('',*,*,#558,.T.);
#261=ORIENTED_EDGE('',*,*,#559,.F.);
#262=ORIENTED_EDGE('',*,*,#560,.T.);
#263=ORIENTED_EDGE('',*,*,#561,.T.);
#264=ORIENTED_EDGE('',*,*,#562,.F.);
#265=ORIENTED_EDGE('',*,*,#563,.F.);
#266=ORIENTED_EDGE('',*,*,#564,.T.);
#267=ORIENTED_EDGE('',*,*,#565,.T.);
#268=ORIENTED_EDGE('',*,*,#566,.F.);
#269=ORIENTED_EDGE('',*,*,#567,.T.);
#270=ORIENTED_EDGE('',*,*,#568,.T.);
#271=ORIENTED_EDGE('',*,*,#569,.F.);
#272=ORIENTED_EDGE('',*,*,#570,.T.);
#273=ORIENTED_EDGE('',*,*,#571,.T.);
#274=ORIENTED_EDGE('',*,*,#572,.T.);
#275=ORIENTED_EDGE('',*,*,#573,.T.);
#276=ORIENTED_EDGE('',*,*,#574,.T.);
#277=ORIENTED_EDGE('',*,*,#575,.T.);
#278=ORIENTED_EDGE('',*,*,#576,.T.);
#279=ORIENTED_EDGE('',*,*,#577,.F.);
#280=ORIENTED_EDGE('',*,*,#578,.F.);
#281=ORIENTED_EDGE('',*,*,#579,.F.);
#282=ORIENTED_EDGE('',*,*,#580,.F.);
#283=ORIENTED_EDGE('',*,*,#581,.T.);
#284=ORIENTED_EDGE('',*,*,#582,.T.);
#285=ORIENTED_EDGE('',*,*,#583,.F.);
#286=ORIENTED_EDGE('',*,*,#584,.T.);
#287=ORIENTED_EDGE('',*,*,#585,.T.);
#288=ORIENTED_EDGE('',*,*,#586,.F.);
#289=ORIENTED_EDGE('',*,*,#587,.F.);
#290=ORIENTED_EDGE('',*,*,#588,.T.);
#291=ORIENTED_EDGE('',*,*,#589,.F.);
#292=ORIENTED_EDGE('',*,*,#590,.F.);
#293=ORIENTED_EDGE('',*,*,#591,.T.);
#294=ORIENTED_EDGE('',*,*,#592,.F.);
#295=ORIENTED_EDGE('',*,*,#593,.T.);
#296=ORIENTED_EDGE('',*,*,#594,.T.);
#297=ORIENTED_EDGE('',*,*,#583,.T.);
#298=ORIENTED_EDGE('',*,*,#595,.F.);
#299=ORIENTED_EDGE('',*,*,#527,.F.);
#300=ORIENTED_EDGE('',*,*,#596,.T.);
#301=ORIENTED_EDGE('',*,*,#584,.F.);
#302=ORIENTED_EDGE('',*,*,#596,.F.);
#303=ORIENTED_EDGE('',*,*,#530,.T.);
#304=ORIENTED_EDGE('',*,*,#597,.T.);
#305=ORIENTED_EDGE('',*,*,#585,.F.);
#306=ORIENTED_EDGE('',*,*,#597,.F.);
#307=ORIENTED_EDGE('',*,*,#529,.T.);
#308=ORIENTED_EDGE('',*,*,#598,.T.);
#309=ORIENTED_EDGE('',*,*,#586,.T.);
#310=ORIENTED_EDGE('',*,*,#598,.F.);
#311=ORIENTED_EDGE('',*,*,#528,.F.);
#312=ORIENTED_EDGE('',*,*,#595,.T.);
#313=ORIENTED_EDGE('',*,*,#526,.T.);
#314=ORIENTED_EDGE('',*,*,#582,.F.);
#315=ORIENTED_EDGE('',*,*,#581,.F.);
#316=ORIENTED_EDGE('',*,*,#599,.T.);
#317=ORIENTED_EDGE('',*,*,#522,.F.);
#318=ORIENTED_EDGE('',*,*,#600,.F.);
#319=ORIENTED_EDGE('',*,*,#601,.T.);
#320=ORIENTED_EDGE('',*,*,#602,.T.);
#321=ORIENTED_EDGE('',*,*,#525,.F.);
#322=ORIENTED_EDGE('',*,*,#603,.F.);
#323=ORIENTED_EDGE('',*,*,#604,.T.);
#324=ORIENTED_EDGE('',*,*,#600,.T.);
#325=ORIENTED_EDGE('',*,*,#524,.T.);
#326=ORIENTED_EDGE('',*,*,#605,.F.);
#327=ORIENTED_EDGE('',*,*,#606,.F.);
#328=ORIENTED_EDGE('',*,*,#603,.T.);
#329=ORIENTED_EDGE('',*,*,#523,.F.);
#330=ORIENTED_EDGE('',*,*,#602,.F.);
#331=ORIENTED_EDGE('',*,*,#607,.T.);
#332=ORIENTED_EDGE('',*,*,#605,.T.);
#333=ORIENTED_EDGE('',*,*,#601,.F.);
#334=ORIENTED_EDGE('',*,*,#604,.F.);
#335=ORIENTED_EDGE('',*,*,#606,.T.);
#336=ORIENTED_EDGE('',*,*,#607,.F.);
#337=ORIENTED_EDGE('',*,*,#532,.F.);
#338=ORIENTED_EDGE('',*,*,#608,.F.);
#339=ORIENTED_EDGE('',*,*,#609,.T.);
#340=ORIENTED_EDGE('',*,*,#610,.T.);
#341=ORIENTED_EDGE('',*,*,#531,.T.);
#342=ORIENTED_EDGE('',*,*,#611,.F.);
#343=ORIENTED_EDGE('',*,*,#612,.F.);
#344=ORIENTED_EDGE('',*,*,#608,.T.);
#345=ORIENTED_EDGE('',*,*,#534,.T.);
#346=ORIENTED_EDGE('',*,*,#613,.F.);
#347=ORIENTED_EDGE('',*,*,#614,.F.);
#348=ORIENTED_EDGE('',*,*,#611,.T.);
#349=ORIENTED_EDGE('',*,*,#533,.F.);
#350=ORIENTED_EDGE('',*,*,#610,.F.);
#351=ORIENTED_EDGE('',*,*,#615,.T.);
#352=ORIENTED_EDGE('',*,*,#613,.T.);
#353=ORIENTED_EDGE('',*,*,#599,.F.);
#354=ORIENTED_EDGE('',*,*,#609,.F.);
#355=ORIENTED_EDGE('',*,*,#612,.T.);
#356=ORIENTED_EDGE('',*,*,#614,.T.);
#357=ORIENTED_EDGE('',*,*,#615,.F.);
#358=ORIENTED_EDGE('',*,*,#536,.F.);
#359=ORIENTED_EDGE('',*,*,#616,.F.);
#360=ORIENTED_EDGE('',*,*,#617,.T.);
#361=ORIENTED_EDGE('',*,*,#618,.T.);
#362=ORIENTED_EDGE('',*,*,#535,.T.);
#363=ORIENTED_EDGE('',*,*,#619,.F.);
#364=ORIENTED_EDGE('',*,*,#620,.F.);
#365=ORIENTED_EDGE('',*,*,#616,.T.);
#366=ORIENTED_EDGE('',*,*,#538,.T.);
#367=ORIENTED_EDGE('',*,*,#621,.F.);
#368=ORIENTED_EDGE('',*,*,#622,.F.);
#369=ORIENTED_EDGE('',*,*,#619,.T.);
#370=ORIENTED_EDGE('',*,*,#623,.T.);
#371=ORIENTED_EDGE('',*,*,#624,.F.);
#372=ORIENTED_EDGE('',*,*,#625,.T.);
#373=ORIENTED_EDGE('',*,*,#626,.F.);
#374=ORIENTED_EDGE('',*,*,#537,.F.);
#375=ORIENTED_EDGE('',*,*,#618,.F.);
#376=ORIENTED_EDGE('',*,*,#627,.T.);
#377=ORIENTED_EDGE('',*,*,#621,.T.);
#378=ORIENTED_EDGE('',*,*,#625,.F.);
#379=ORIENTED_EDGE('',*,*,#623,.F.);
#380=ORIENTED_EDGE('',*,*,#617,.F.);
#381=ORIENTED_EDGE('',*,*,#620,.T.);
#382=ORIENTED_EDGE('',*,*,#622,.T.);
#383=ORIENTED_EDGE('',*,*,#627,.F.);
#384=ORIENTED_EDGE('',*,*,#626,.T.);
#385=ORIENTED_EDGE('',*,*,#624,.T.);
#386=ORIENTED_EDGE('',*,*,#539,.T.);
#387=ORIENTED_EDGE('',*,*,#580,.T.);
#388=ORIENTED_EDGE('',*,*,#540,.T.);
#389=ORIENTED_EDGE('',*,*,#579,.T.);
#390=ORIENTED_EDGE('',*,*,#548,.T.);
#391=ORIENTED_EDGE('',*,*,#628,.T.);
#392=ORIENTED_EDGE('',*,*,#589,.T.);
#393=ORIENTED_EDGE('',*,*,#629,.F.);
#394=ORIENTED_EDGE('',*,*,#547,.T.);
#395=ORIENTED_EDGE('',*,*,#630,.T.);
#396=ORIENTED_EDGE('',*,*,#590,.T.);
#397=ORIENTED_EDGE('',*,*,#628,.F.);
#398=ORIENTED_EDGE('',*,*,#631,.T.);
#399=ORIENTED_EDGE('',*,*,#591,.F.);
#400=ORIENTED_EDGE('',*,*,#630,.F.);
#401=ORIENTED_EDGE('',*,*,#546,.F.);
#402=ORIENTED_EDGE('',*,*,#545,.T.);
#403=ORIENTED_EDGE('',*,*,#632,.T.);
#404=ORIENTED_EDGE('',*,*,#592,.T.);
#405=ORIENTED_EDGE('',*,*,#631,.F.);
#406=ORIENTED_EDGE('',*,*,#633,.T.);
#407=ORIENTED_EDGE('',*,*,#593,.F.);
#408=ORIENTED_EDGE('',*,*,#632,.F.);
#409=ORIENTED_EDGE('',*,*,#544,.F.);
#410=ORIENTED_EDGE('',*,*,#634,.T.);
#411=ORIENTED_EDGE('',*,*,#594,.F.);
#412=ORIENTED_EDGE('',*,*,#633,.F.);
#413=ORIENTED_EDGE('',*,*,#543,.F.);
#414=ORIENTED_EDGE('',*,*,#542,.T.);
#415=ORIENTED_EDGE('',*,*,#635,.T.);
#416=ORIENTED_EDGE('',*,*,#587,.T.);
#417=ORIENTED_EDGE('',*,*,#634,.F.);
#418=ORIENTED_EDGE('',*,*,#629,.T.);
#419=ORIENTED_EDGE('',*,*,#588,.F.);
#420=ORIENTED_EDGE('',*,*,#635,.F.);
#421=ORIENTED_EDGE('',*,*,#541,.F.);
#422=ORIENTED_EDGE('',*,*,#521,.T.);
#423=ORIENTED_EDGE('',*,*,#578,.T.);
#424=ORIENTED_EDGE('',*,*,#520,.T.);
#425=ORIENTED_EDGE('',*,*,#577,.T.);
#426=ORIENTED_EDGE('',*,*,#636,.T.);
#427=ORIENTED_EDGE('',*,*,#637,.F.);
#428=ORIENTED_EDGE('',*,*,#638,.T.);
#429=ORIENTED_EDGE('',*,*,#636,.F.);
#430=ORIENTED_EDGE('',*,*,#638,.F.);
#431=ORIENTED_EDGE('',*,*,#569,.T.);
#432=ORIENTED_EDGE('',*,*,#639,.T.);
#433=ORIENTED_EDGE('',*,*,#640,.F.);
#434=ORIENTED_EDGE('',*,*,#641,.T.);
#435=ORIENTED_EDGE('',*,*,#639,.F.);
#436=ORIENTED_EDGE('',*,*,#641,.F.);
#437=ORIENTED_EDGE('',*,*,#566,.T.);
#438=ORIENTED_EDGE('',*,*,#642,.T.);
#439=ORIENTED_EDGE('',*,*,#643,.F.);
#440=ORIENTED_EDGE('',*,*,#644,.T.);
#441=ORIENTED_EDGE('',*,*,#642,.F.);
#442=ORIENTED_EDGE('',*,*,#644,.F.);
#443=ORIENTED_EDGE('',*,*,#563,.T.);
#444=ORIENTED_EDGE('',*,*,#637,.T.);
#445=ORIENTED_EDGE('',*,*,#574,.F.);
#446=ORIENTED_EDGE('',*,*,#640,.T.);
#447=ORIENTED_EDGE('',*,*,#576,.F.);
#448=ORIENTED_EDGE('',*,*,#643,.T.);
#449=ORIENTED_EDGE('',*,*,#575,.F.);
#450=ORIENTED_EDGE('',*,*,#570,.F.);
#451=ORIENTED_EDGE('',*,*,#645,.T.);
#452=ORIENTED_EDGE('',*,*,#567,.F.);
#453=ORIENTED_EDGE('',*,*,#646,.T.);
#454=ORIENTED_EDGE('',*,*,#647,.T.);
#455=ORIENTED_EDGE('',*,*,#648,.T.);
#456=ORIENTED_EDGE('',*,*,#564,.F.);
#457=ORIENTED_EDGE('',*,*,#649,.T.);
#458=ORIENTED_EDGE('',*,*,#645,.F.);
#459=ORIENTED_EDGE('',*,*,#650,.T.);
#460=ORIENTED_EDGE('',*,*,#557,.T.);
#461=ORIENTED_EDGE('',*,*,#651,.T.);
#462=ORIENTED_EDGE('',*,*,#646,.F.);
#463=ORIENTED_EDGE('',*,*,#652,.T.);
#464=ORIENTED_EDGE('',*,*,#555,.T.);
#465=ORIENTED_EDGE('',*,*,#653,.F.);
#466=ORIENTED_EDGE('',*,*,#554,.T.);
#467=ORIENTED_EDGE('',*,*,#654,.F.);
#468=ORIENTED_EDGE('',*,*,#647,.F.);
#469=ORIENTED_EDGE('',*,*,#653,.T.);
#470=ORIENTED_EDGE('',*,*,#553,.T.);
#471=ORIENTED_EDGE('',*,*,#655,.T.);
#472=ORIENTED_EDGE('',*,*,#648,.F.);
#473=ORIENTED_EDGE('',*,*,#654,.T.);
#474=ORIENTED_EDGE('',*,*,#551,.T.);
#475=ORIENTED_EDGE('',*,*,#656,.T.);
#476=ORIENTED_EDGE('',*,*,#649,.F.);
#477=ORIENTED_EDGE('',*,*,#657,.T.);
#478=ORIENTED_EDGE('',*,*,#560,.F.);
#479=ORIENTED_EDGE('',*,*,#658,.F.);
#480=ORIENTED_EDGE('',*,*,#659,.T.);
#481=ORIENTED_EDGE('',*,*,#660,.T.);
#482=ORIENTED_EDGE('',*,*,#559,.T.);
#483=ORIENTED_EDGE('',*,*,#661,.T.);
#484=ORIENTED_EDGE('',*,*,#662,.F.);
#485=ORIENTED_EDGE('',*,*,#658,.T.);
#486=ORIENTED_EDGE('',*,*,#663,.F.);
#487=ORIENTED_EDGE('',*,*,#664,.T.);
#488=ORIENTED_EDGE('',*,*,#549,.T.);
#489=ORIENTED_EDGE('',*,*,#665,.F.);
#490=ORIENTED_EDGE('',*,*,#562,.T.);
#491=ORIENTED_EDGE('',*,*,#666,.F.);
#492=ORIENTED_EDGE('',*,*,#667,.F.);
#493=ORIENTED_EDGE('',*,*,#665,.T.);
#494=ORIENTED_EDGE('',*,*,#561,.F.);
#495=ORIENTED_EDGE('',*,*,#660,.F.);
#496=ORIENTED_EDGE('',*,*,#668,.T.);
#497=ORIENTED_EDGE('',*,*,#666,.T.);
#498=ORIENTED_EDGE('',*,*,#659,.F.);
#499=ORIENTED_EDGE('',*,*,#662,.T.);
#500=ORIENTED_EDGE('',*,*,#572,.F.);
#501=ORIENTED_EDGE('',*,*,#663,.T.);
#502=ORIENTED_EDGE('',*,*,#667,.T.);
#503=ORIENTED_EDGE('',*,*,#668,.F.);
#504=ORIENTED_EDGE('',*,*,#656,.F.);
#505=ORIENTED_EDGE('',*,*,#550,.F.);
#506=ORIENTED_EDGE('',*,*,#664,.F.);
#507=ORIENTED_EDGE('',*,*,#571,.F.);
#508=ORIENTED_EDGE('',*,*,#661,.F.);
#509=ORIENTED_EDGE('',*,*,#558,.F.);
#510=ORIENTED_EDGE('',*,*,#650,.F.);
#511=ORIENTED_EDGE('',*,*,#573,.F.);
#512=ORIENTED_EDGE('',*,*,#655,.F.);
#513=ORIENTED_EDGE('',*,*,#552,.F.);
#514=ORIENTED_EDGE('',*,*,#657,.F.);
#515=ORIENTED_EDGE('',*,*,#565,.F.);
#516=ORIENTED_EDGE('',*,*,#651,.F.);
#517=ORIENTED_EDGE('',*,*,#556,.F.);
#518=ORIENTED_EDGE('',*,*,#652,.F.);
#519=ORIENTED_EDGE('',*,*,#568,.F.);
#520=EDGE_CURVE('',#669,#669,#776,.F.);
#521=EDGE_CURVE('',#670,#670,#777,.F.);
#522=EDGE_CURVE('',#671,#672,#46,.T.);
#523=EDGE_CURVE('',#672,#673,#47,.T.);
#524=EDGE_CURVE('',#674,#673,#778,.T.);
#525=EDGE_CURVE('',#674,#671,#48,.T.);
#526=EDGE_CURVE('',#675,#675,#779,.T.);
#527=EDGE_CURVE('',#676,#677,#49,.T.);
#528=EDGE_CURVE('',#677,#678,#50,.T.);
#529=EDGE_CURVE('',#679,#678,#51,.T.);
#530=EDGE_CURVE('',#676,#679,#52,.T.);
#531=EDGE_CURVE('',#680,#681,#53,.T.);
#532=EDGE_CURVE('',#680,#682,#54,.T.);
#533=EDGE_CURVE('',#682,#683,#55,.T.);
#534=EDGE_CURVE('',#681,#683,#56,.T.);
#535=EDGE_CURVE('',#684,#685,#57,.T.);
#536=EDGE_CURVE('',#684,#686,#58,.T.);
#537=EDGE_CURVE('',#686,#687,#59,.T.);
#538=EDGE_CURVE('',#685,#687,#60,.T.);
#539=EDGE_CURVE('',#688,#688,#780,.F.);
#540=EDGE_CURVE('',#689,#689,#781,.F.);
#541=EDGE_CURVE('',#690,#691,#61,.T.);
#542=EDGE_CURVE('',#692,#691,#782,.T.);
#543=EDGE_CURVE('',#692,#693,#62,.T.);
#544=EDGE_CURVE('',#693,#694,#783,.F.);
#545=EDGE_CURVE('',#695,#694,#63,.T.);
#546=EDGE_CURVE('',#695,#696,#784,.F.);
#547=EDGE_CURVE('',#697,#696,#64,.T.);
#548=EDGE_CURVE('',#690,#697,#785,.T.);
#549=EDGE_CURVE('',#698,#699,#65,.T.);
#550=EDGE_CURVE('',#698,#700,#786,.T.);
#551=EDGE_CURVE('',#701,#700,#66,.T.);
#552=EDGE_CURVE('',#701,#702,#787,.T.);
#553=EDGE_CURVE('',#703,#702,#67,.T.);
#554=EDGE_CURVE('',#704,#703,#68,.T.);
#555=EDGE_CURVE('',#705,#704,#69,.T.);
#556=EDGE_CURVE('',#705,#706,#788,.T.);
#557=EDGE_CURVE('',#707,#706,#70,.T.);
#558=EDGE_CURVE('',#707,#708,#789,.T.);
#559=EDGE_CURVE('',#709,#708,#71,.T.);
#560=EDGE_CURVE('',#709,#710,#72,.T.);
#561=EDGE_CURVE('',#710,#711,#73,.T.);
#562=EDGE_CURVE('',#699,#711,#74,.T.);
#563=EDGE_CURVE('',#712,#712,#790,.T.);
#564=EDGE_CURVE('',#713,#714,#791,.T.);
#565=EDGE_CURVE('',#714,#713,#792,.F.);
#566=EDGE_CURVE('',#715,#715,#793,.T.);
#567=EDGE_CURVE('',#716,#717,#794,.T.);
#568=EDGE_CURVE('',#717,#716,#795,.F.);
#569=EDGE_CURVE('',#718,#718,#796,.T.);
#570=EDGE_CURVE('',#719,#720,#797,.T.);
#571=EDGE_CURVE('',#720,#721,#798,.F.);
#572=EDGE_CURVE('',#721,#722,#799,.T.);
#573=EDGE_CURVE('',#722,#719,#800,.F.);
#574=EDGE_CURVE('',#723,#723,#801,.F.);
#575=EDGE_CURVE('',#724,#724,#802,.F.);
#576=EDGE_CURVE('',#725,#725,#803,.F.);
#577=EDGE_CURVE('',#726,#726,#804,.T.);
#578=EDGE_CURVE('',#727,#727,#805,.T.);
#579=EDGE_CURVE('',#728,#728,#806,.T.);
#580=EDGE_CURVE('',#729,#729,#807,.T.);
#581=EDGE_CURVE('',#730,#730,#808,.F.);
#582=EDGE_CURVE('',#731,#731,#809,.F.);
#583=EDGE_CURVE('',#732,#733,#75,.T.);
#584=EDGE_CURVE('',#732,#734,#76,.T.);
#585=EDGE_CURVE('',#734,#735,#77,.T.);
#586=EDGE_CURVE('',#733,#735,#78,.T.);
#587=EDGE_CURVE('',#736,#737,#810,.T.);
#588=EDGE_CURVE('',#736,#738,#79,.T.);
#589=EDGE_CURVE('',#739,#738,#811,.T.);
#590=EDGE_CURVE('',#740,#739,#80,.T.);
#591=EDGE_CURVE('',#740,#741,#812,.T.);
#592=EDGE_CURVE('',#742,#741,#81,.T.);
#593=EDGE_CURVE('',#742,#743,#813,.T.);
#594=EDGE_CURVE('',#743,#737,#82,.T.);
#595=EDGE_CURVE('',#677,#733,#83,.T.);
#596=EDGE_CURVE('',#676,#732,#84,.T.);
#597=EDGE_CURVE('',#679,#734,#85,.T.);
#598=EDGE_CURVE('',#678,#735,#86,.T.);
#599=EDGE_CURVE('',#744,#744,#814,.T.);
#600=EDGE_CURVE('',#745,#671,#87,.T.);
#601=EDGE_CURVE('',#745,#746,#88,.T.);
#602=EDGE_CURVE('',#746,#672,#89,.T.);
#603=EDGE_CURVE('',#747,#674,#90,.T.);
#604=EDGE_CURVE('',#747,#745,#91,.T.);
#605=EDGE_CURVE('',#748,#673,#92,.T.);
#606=EDGE_CURVE('',#747,#748,#815,.T.);
#607=EDGE_CURVE('',#746,#748,#93,.T.);
#608=EDGE_CURVE('',#749,#680,#94,.T.);
#609=EDGE_CURVE('',#749,#750,#95,.T.);
#610=EDGE_CURVE('',#750,#682,#96,.T.);
#611=EDGE_CURVE('',#751,#681,#97,.T.);
#612=EDGE_CURVE('',#749,#751,#98,.T.);
#613=EDGE_CURVE('',#752,#683,#99,.T.);
#614=EDGE_CURVE('',#751,#752,#100,.T.);
#615=EDGE_CURVE('',#750,#752,#101,.T.);
#616=EDGE_CURVE('',#753,#684,#102,.T.);
#617=EDGE_CURVE('',#753,#754,#103,.T.);
#618=EDGE_CURVE('',#754,#686,#104,.T.);
#619=EDGE_CURVE('',#755,#685,#105,.T.);
#620=EDGE_CURVE('',#753,#755,#106,.T.);
#621=EDGE_CURVE('',#756,#687,#107,.T.);
#622=EDGE_CURVE('',#755,#756,#108,.T.);
#623=EDGE_CURVE('',#757,#757,#816,.T.);
#624=EDGE_CURVE('',#758,#758,#817,.T.);
#625=EDGE_CURVE('',#759,#759,#818,.T.);
#626=EDGE_CURVE('',#760,#760,#819,.T.);
#627=EDGE_CURVE('',#754,#756,#109,.T.);
#628=EDGE_CURVE('',#697,#739,#110,.T.);
#629=EDGE_CURVE('',#690,#738,#111,.T.);
#630=EDGE_CURVE('',#696,#740,#112,.T.);
#631=EDGE_CURVE('',#695,#741,#113,.T.);
#632=EDGE_CURVE('',#694,#742,#114,.T.);
#633=EDGE_CURVE('',#693,#743,#115,.T.);
#634=EDGE_CURVE('',#692,#737,#116,.T.);
#635=EDGE_CURVE('',#691,#736,#117,.T.);
#636=EDGE_CURVE('',#761,#761,#820,.T.);
#637=EDGE_CURVE('',#762,#762,#821,.T.);
#638=EDGE_CURVE('',#763,#763,#822,.T.);
#639=EDGE_CURVE('',#764,#764,#823,.T.);
#640=EDGE_CURVE('',#765,#765,#824,.T.);
#641=EDGE_CURVE('',#766,#766,#825,.T.);
#642=EDGE_CURVE('',#767,#767,#826,.T.);
#643=EDGE_CURVE('',#768,#768,#827,.T.);
#644=EDGE_CURVE('',#769,#769,#828,.T.);
#645=EDGE_CURVE('',#719,#717,#118,.T.);
#646=EDGE_CURVE('',#716,#770,#119,.T.);
#647=EDGE_CURVE('',#770,#771,#120,.T.);
#648=EDGE_CURVE('',#771,#714,#121,.T.);
#649=EDGE_CURVE('',#713,#720,#122,.T.);
#650=EDGE_CURVE('',#719,#707,#16,.T.);
#651=EDGE_CURVE('',#706,#717,#17,.T.);
#652=EDGE_CURVE('',#716,#705,#18,.T.);
#653=EDGE_CURVE('',#770,#704,#123,.T.);
#654=EDGE_CURVE('',#771,#703,#124,.T.);
#655=EDGE_CURVE('',#702,#714,#19,.T.);
#656=EDGE_CURVE('',#700,#720,#20,.T.);
#657=EDGE_CURVE('',#713,#701,#21,.T.);
#658=EDGE_CURVE('',#772,#709,#125,.T.);
#659=EDGE_CURVE('',#772,#773,#126,.T.);
#660=EDGE_CURVE('',#773,#710,#127,.T.);
#661=EDGE_CURVE('',#708,#722,#22,.T.);
#662=EDGE_CURVE('',#772,#722,#128,.T.);
#663=EDGE_CURVE('',#721,#774,#129,.T.);
#664=EDGE_CURVE('',#721,#698,#23,.T.);
#665=EDGE_CURVE('',#774,#699,#130,.T.);
#666=EDGE_CURVE('',#775,#711,#131,.T.);
#667=EDGE_CURVE('',#774,#775,#132,.T.);
#668=EDGE_CURVE('',#773,#775,#133,.T.);
#669=VERTEX_POINT('',#1650);
#670=VERTEX_POINT('',#1652);
#671=VERTEX_POINT('',#1654);
#672=VERTEX_POINT('',#1655);
#673=VERTEX_POINT('',#1657);
#674=VERTEX_POINT('',#1659);
#675=VERTEX_POINT('',#1662);
#676=VERTEX_POINT('',#1664);
#677=VERTEX_POINT('',#1665);
#678=VERTEX_POINT('',#1667);
#679=VERTEX_POINT('',#1669);
#680=VERTEX_POINT('',#1672);
#681=VERTEX_POINT('',#1673);
#682=VERTEX_POINT('',#1675);
#683=VERTEX_POINT('',#1677);
#684=VERTEX_POINT('',#1680);
#685=VERTEX_POINT('',#1681);
#686=VERTEX_POINT('',#1683);
#687=VERTEX_POINT('',#1685);
#688=VERTEX_POINT('',#1688);
#689=VERTEX_POINT('',#1690);
#690=VERTEX_POINT('',#1692);
#691=VERTEX_POINT('',#1693);
#692=VERTEX_POINT('',#1695);
#693=VERTEX_POINT('',#1697);
#694=VERTEX_POINT('',#1699);
#695=VERTEX_POINT('',#1701);
#696=VERTEX_POINT('',#1703);
#697=VERTEX_POINT('',#1705);
#698=VERTEX_POINT('',#1708);
#699=VERTEX_POINT('',#1709);
#700=VERTEX_POINT('',#1711);
#701=VERTEX_POINT('',#1713);
#702=VERTEX_POINT('',#1715);
#703=VERTEX_POINT('',#1717);
#704=VERTEX_POINT('',#1719);
#705=VERTEX_POINT('',#1721);
#706=VERTEX_POINT('',#1723);
#707=VERTEX_POINT('',#1725);
#708=VERTEX_POINT('',#1727);
#709=VERTEX_POINT('',#1729);
#710=VERTEX_POINT('',#1731);
#711=VERTEX_POINT('',#1733);
#712=VERTEX_POINT('',#1737);
#713=VERTEX_POINT('',#1739);
#714=VERTEX_POINT('',#1740);
#715=VERTEX_POINT('',#1744);
#716=VERTEX_POINT('',#1746);
#717=VERTEX_POINT('',#1747);
#718=VERTEX_POINT('',#1751);
#719=VERTEX_POINT('',#1753);
#720=VERTEX_POINT('',#1754);
#721=VERTEX_POINT('',#1756);
#722=VERTEX_POINT('',#1758);
#723=VERTEX_POINT('',#1762);
#724=VERTEX_POINT('',#1764);
#725=VERTEX_POINT('',#1766);
#726=VERTEX_POINT('',#1768);
#727=VERTEX_POINT('',#1770);
#728=VERTEX_POINT('',#1772);
#729=VERTEX_POINT('',#1774);
#730=VERTEX_POINT('',#1776);
#731=VERTEX_POINT('',#1778);
#732=VERTEX_POINT('',#1780);
#733=VERTEX_POINT('',#1781);
#734=VERTEX_POINT('',#1783);
#735=VERTEX_POINT('',#1785);
#736=VERTEX_POINT('',#1788);
#737=VERTEX_POINT('',#1789);
#738=VERTEX_POINT('',#1791);
#739=VERTEX_POINT('',#1793);
#740=VERTEX_POINT('',#1795);
#741=VERTEX_POINT('',#1797);
#742=VERTEX_POINT('',#1799);
#743=VERTEX_POINT('',#1801);
#744=VERTEX_POINT('',#1814);
#745=VERTEX_POINT('',#1817);
#746=VERTEX_POINT('',#1819);
#747=VERTEX_POINT('',#1823);
#748=VERTEX_POINT('',#1827);
#749=VERTEX_POINT('',#1834);
#750=VERTEX_POINT('',#1836);
#751=VERTEX_POINT('',#1840);
#752=VERTEX_POINT('',#1844);
#753=VERTEX_POINT('',#1851);
#754=VERTEX_POINT('',#1853);
#755=VERTEX_POINT('',#1857);
#756=VERTEX_POINT('',#1861);
#757=VERTEX_POINT('',#1865);
#758=VERTEX_POINT('',#1867);
#759=VERTEX_POINT('',#1870);
#760=VERTEX_POINT('',#1872);
#761=VERTEX_POINT('',#1900);
#762=VERTEX_POINT('',#1902);
#763=VERTEX_POINT('',#1905);
#764=VERTEX_POINT('',#1909);
#765=VERTEX_POINT('',#1911);
#766=VERTEX_POINT('',#1914);
#767=VERTEX_POINT('',#1918);
#768=VERTEX_POINT('',#1920);
#769=VERTEX_POINT('',#1923);
#770=VERTEX_POINT('',#1931);
#771=VERTEX_POINT('',#1933);
#772=VERTEX_POINT('',#1969);
#773=VERTEX_POINT('',#1971);
#774=VERTEX_POINT('',#1981);
#775=VERTEX_POINT('',#1989);
#776=CIRCLE('',#1189,0.00100000000000005);
#777=CIRCLE('',#1190,0.00100000000000005);
#778=CIRCLE('',#1191,0.0085);
#779=CIRCLE('',#1192,0.00355000000000027);
#780=CIRCLE('',#1193,0.00100000000000005);
#781=CIRCLE('',#1194,0.00100000000000005);
#782=CIRCLE('',#1195,0.004);
#783=CIRCLE('',#1196,0.004);
#784=CIRCLE('',#1197,0.004);
#785=CIRCLE('',#1198,0.004);
#786=CIRCLE('',#1199,0.009);
#787=CIRCLE('',#1200,0.009);
#788=CIRCLE('',#1201,0.009);
#789=CIRCLE('',#1202,0.009);
#790=CIRCLE('',#1204,0.006);
#791=CIRCLE('',#1205,0.00599999999999992);
#792=CIRCLE('',#1206,0.006);
#793=CIRCLE('',#1208,0.006);
#794=CIRCLE('',#1209,0.006);
#795=CIRCLE('',#1210,0.006);
#796=CIRCLE('',#1212,0.006);
#797=CIRCLE('',#1213,0.006);
#798=CIRCLE('',#1214,0.006);
#799=CIRCLE('',#1215,0.006);
#800=CIRCLE('',#1216,0.006);
#801=CIRCLE('',#1218,0.003);
#802=CIRCLE('',#1219,0.003);
#803=CIRCLE('',#1220,0.003);
#804=CIRCLE('',#1221,0.00100000000000005);
#805=CIRCLE('',#1222,0.00100000000000005);
#806=CIRCLE('',#1223,0.00100000000000005);
#807=CIRCLE('',#1224,0.00100000000000005);
#808=CIRCLE('',#1225,0.00354999999999945);
#809=CIRCLE('',#1226,0.00355000000000027);
#810=CIRCLE('',#1227,0.004);
#811=CIRCLE('',#1228,0.004);
#812=CIRCLE('',#1229,0.004);
#813=CIRCLE('',#1230,0.004);
#814=CIRCLE('',#1237,0.00354999999999944);
#815=CIRCLE('',#1241,0.0085);
#816=CIRCLE('',#1253,0.0011);
#817=CIRCLE('',#1254,0.0011);
#818=CIRCLE('',#1256,0.0011);
#819=CIRCLE('',#1257,0.0011);
#820=CIRCLE('',#1275,0.0016);
#821=CIRCLE('',#1276,0.003);
#822=CIRCLE('',#1278,0.0016);
#823=CIRCLE('',#1281,0.0016);
#824=CIRCLE('',#1282,0.003);
#825=CIRCLE('',#1284,0.0016);
#826=CIRCLE('',#1287,0.0016);
#827=CIRCLE('',#1288,0.003);
#828=CIRCLE('',#1290,0.0016);
#829=EDGE_LOOP('',(#222));
#830=EDGE_LOOP('',(#223));
#831=EDGE_LOOP('',(#224,#225,#226,#227));
#832=EDGE_LOOP('',(#228));
#833=EDGE_LOOP('',(#229,#230,#231,#232));
#834=EDGE_LOOP('',(#233,#234,#235,#236));
#835=EDGE_LOOP('',(#237,#238,#239,#240));
#836=EDGE_LOOP('',(#241));
#837=EDGE_LOOP('',(#242));
#838=EDGE_LOOP('',(#243,#244,#245,#246,#247,#248,#249,#250));
#839=EDGE_LOOP('',(#251,#252,#253,#254,#255,#256,#257,#258,#259,#260,#261,
#262,#263,#264));
#840=EDGE_LOOP('',(#265));
#841=EDGE_LOOP('',(#266,#267));
#842=EDGE_LOOP('',(#268));
#843=EDGE_LOOP('',(#269,#270));
#844=EDGE_LOOP('',(#271));
#845=EDGE_LOOP('',(#272,#273,#274,#275));
#846=EDGE_LOOP('',(#276));
#847=EDGE_LOOP('',(#277));
#848=EDGE_LOOP('',(#278));
#849=EDGE_LOOP('',(#279));
#850=EDGE_LOOP('',(#280));
#851=EDGE_LOOP('',(#281));
#852=EDGE_LOOP('',(#282));
#853=EDGE_LOOP('',(#283));
#854=EDGE_LOOP('',(#284));
#855=EDGE_LOOP('',(#285,#286,#287,#288));
#856=EDGE_LOOP('',(#289,#290,#291,#292,#293,#294,#295,#296));
#857=EDGE_LOOP('',(#297,#298,#299,#300));
#858=EDGE_LOOP('',(#301,#302,#303,#304));
#859=EDGE_LOOP('',(#305,#306,#307,#308));
#860=EDGE_LOOP('',(#309,#310,#311,#312));
#861=EDGE_LOOP('',(#313));
#862=EDGE_LOOP('',(#314));
#863=EDGE_LOOP('',(#315));
#864=EDGE_LOOP('',(#316));
#865=EDGE_LOOP('',(#317,#318,#319,#320));
#866=EDGE_LOOP('',(#321,#322,#323,#324));
#867=EDGE_LOOP('',(#325,#326,#327,#328));
#868=EDGE_LOOP('',(#329,#330,#331,#332));
#869=EDGE_LOOP('',(#333,#334,#335,#336));
#870=EDGE_LOOP('',(#337,#338,#339,#340));
#871=EDGE_LOOP('',(#341,#342,#343,#344));
#872=EDGE_LOOP('',(#345,#346,#347,#348));
#873=EDGE_LOOP('',(#349,#350,#351,#352));
#874=EDGE_LOOP('',(#353));
#875=EDGE_LOOP('',(#354,#355,#356,#357));
#876=EDGE_LOOP('',(#358,#359,#360,#361));
#877=EDGE_LOOP('',(#362,#363,#364,#365));
#878=EDGE_LOOP('',(#366,#367,#368,#369));
#879=EDGE_LOOP('',(#370));
#880=EDGE_LOOP('',(#371));
#881=EDGE_LOOP('',(#372));
#882=EDGE_LOOP('',(#373));
#883=EDGE_LOOP('',(#374,#375,#376,#377));
#884=EDGE_LOOP('',(#378));
#885=EDGE_LOOP('',(#379));
#886=EDGE_LOOP('',(#380,#381,#382,#383));
#887=EDGE_LOOP('',(#384));
#888=EDGE_LOOP('',(#385));
#889=EDGE_LOOP('',(#386));
#890=EDGE_LOOP('',(#387));
#891=EDGE_LOOP('',(#388));
#892=EDGE_LOOP('',(#389));
#893=EDGE_LOOP('',(#390,#391,#392,#393));
#894=EDGE_LOOP('',(#394,#395,#396,#397));
#895=EDGE_LOOP('',(#398,#399,#400,#401));
#896=EDGE_LOOP('',(#402,#403,#404,#405));
#897=EDGE_LOOP('',(#406,#407,#408,#409));
#898=EDGE_LOOP('',(#410,#411,#412,#413));
#899=EDGE_LOOP('',(#414,#415,#416,#417));
#900=EDGE_LOOP('',(#418,#419,#420,#421));
#901=EDGE_LOOP('',(#422));
#902=EDGE_LOOP('',(#423));
#903=EDGE_LOOP('',(#424));
#904=EDGE_LOOP('',(#425));
#905=EDGE_LOOP('',(#426));
#906=EDGE_LOOP('',(#427));
#907=EDGE_LOOP('',(#428));
#908=EDGE_LOOP('',(#429));
#909=EDGE_LOOP('',(#430));
#910=EDGE_LOOP('',(#431));
#911=EDGE_LOOP('',(#432));
#912=EDGE_LOOP('',(#433));
#913=EDGE_LOOP('',(#434));
#914=EDGE_LOOP('',(#435));
#915=EDGE_LOOP('',(#436));
#916=EDGE_LOOP('',(#437));
#917=EDGE_LOOP('',(#438));
#918=EDGE_LOOP('',(#439));
#919=EDGE_LOOP('',(#440));
#920=EDGE_LOOP('',(#441));
#921=EDGE_LOOP('',(#442));
#922=EDGE_LOOP('',(#443));
#923=EDGE_LOOP('',(#444));
#924=EDGE_LOOP('',(#445));
#925=EDGE_LOOP('',(#446));
#926=EDGE_LOOP('',(#447));
#927=EDGE_LOOP('',(#448));
#928=EDGE_LOOP('',(#449));
#929=EDGE_LOOP('',(#450,#451,#452,#453,#454,#455,#456,#457));
#930=EDGE_LOOP('',(#458,#459,#460,#461));
#931=EDGE_LOOP('',(#462,#463,#464,#465));
#932=EDGE_LOOP('',(#466,#467,#468,#469));
#933=EDGE_LOOP('',(#470,#471,#472,#473));
#934=EDGE_LOOP('',(#474,#475,#476,#477));
#935=EDGE_LOOP('',(#478,#479,#480,#481));
#936=EDGE_LOOP('',(#482,#483,#484,#485));
#937=EDGE_LOOP('',(#486,#487,#488,#489));
#938=EDGE_LOOP('',(#490,#491,#492,#493));
#939=EDGE_LOOP('',(#494,#495,#496,#497));
#940=EDGE_LOOP('',(#498,#499,#500,#501,#502,#503));
#941=EDGE_LOOP('',(#504,#505,#506,#507));
#942=EDGE_LOOP('',(#508,#509,#510,#511));
#943=EDGE_LOOP('',(#512,#513,#514,#515));
#944=EDGE_LOOP('',(#516,#517,#518,#519));
#945=FACE_BOUND('',#829,.T.);
#946=FACE_BOUND('',#830,.T.);
#947=FACE_BOUND('',#831,.T.);
#948=FACE_BOUND('',#832,.T.);
#949=FACE_BOUND('',#833,.T.);
#950=FACE_BOUND('',#834,.T.);
#951=FACE_BOUND('',#835,.T.);
#952=FACE_BOUND('',#836,.T.);
#953=FACE_BOUND('',#837,.T.);
#954=FACE_BOUND('',#838,.T.);
#955=FACE_BOUND('',#839,.T.);
#956=FACE_BOUND('',#840,.T.);
#957=FACE_BOUND('',#841,.T.);
#958=FACE_BOUND('',#842,.T.);
#959=FACE_BOUND('',#843,.T.);
#960=FACE_BOUND('',#844,.T.);
#961=FACE_BOUND('',#845,.T.);
#962=FACE_BOUND('',#846,.T.);
#963=FACE_BOUND('',#847,.T.);
#964=FACE_BOUND('',#848,.T.);
#965=FACE_BOUND('',#849,.T.);
#966=FACE_BOUND('',#850,.T.);
#967=FACE_BOUND('',#851,.T.);
#968=FACE_BOUND('',#852,.T.);
#969=FACE_BOUND('',#853,.T.);
#970=FACE_BOUND('',#854,.T.);
#971=FACE_BOUND('',#855,.T.);
#972=FACE_BOUND('',#856,.T.);
#973=FACE_BOUND('',#857,.T.);
#974=FACE_BOUND('',#858,.T.);
#975=FACE_BOUND('',#859,.T.);
#976=FACE_BOUND('',#860,.T.);
#977=FACE_BOUND('',#861,.T.);
#978=FACE_BOUND('',#862,.T.);
#979=FACE_BOUND('',#863,.T.);
#980=FACE_BOUND('',#864,.T.);
#981=FACE_BOUND('',#865,.T.);
#982=FACE_BOUND('',#866,.T.);
#983=FACE_BOUND('',#867,.T.);
#984=FACE_BOUND('',#868,.T.);
#985=FACE_BOUND('',#869,.T.);
#986=FACE_BOUND('',#870,.T.);
#987=FACE_BOUND('',#871,.T.);
#988=FACE_BOUND('',#872,.T.);
#989=FACE_BOUND('',#873,.T.);
#990=FACE_BOUND('',#874,.T.);
#991=FACE_BOUND('',#875,.T.);
#992=FACE_BOUND('',#876,.T.);
#993=FACE_BOUND('',#877,.T.);
#994=FACE_BOUND('',#878,.T.);
#995=FACE_BOUND('',#879,.T.);
#996=FACE_BOUND('',#880,.T.);
#997=FACE_BOUND('',#881,.T.);
#998=FACE_BOUND('',#882,.T.);
#999=FACE_BOUND('',#883,.T.);
#1000=FACE_BOUND('',#884,.T.);
#1001=FACE_BOUND('',#885,.T.);
#1002=FACE_BOUND('',#886,.T.);
#1003=FACE_BOUND('',#887,.T.);
#1004=FACE_BOUND('',#888,.T.);
#1005=FACE_BOUND('',#889,.T.);
#1006=FACE_BOUND('',#890,.T.);
#1007=FACE_BOUND('',#891,.T.);
#1008=FACE_BOUND('',#892,.T.);
#1009=FACE_BOUND('',#893,.T.);
#1010=FACE_BOUND('',#894,.T.);
#1011=FACE_BOUND('',#895,.T.);
#1012=FACE_BOUND('',#896,.T.);
#1013=FACE_BOUND('',#897,.T.);
#1014=FACE_BOUND('',#898,.T.);
#1015=FACE_BOUND('',#899,.T.);
#1016=FACE_BOUND('',#900,.T.);
#1017=FACE_BOUND('',#901,.T.);
#1018=FACE_BOUND('',#902,.T.);
#1019=FACE_BOUND('',#903,.T.);
#1020=FACE_BOUND('',#904,.T.);
#1021=FACE_BOUND('',#905,.T.);
#1022=FACE_BOUND('',#906,.T.);
#1023=FACE_BOUND('',#907,.T.);
#1024=FACE_BOUND('',#908,.T.);
#1025=FACE_BOUND('',#909,.T.);
#1026=FACE_BOUND('',#910,.T.);
#1027=FACE_BOUND('',#911,.T.);
#1028=FACE_BOUND('',#912,.T.);
#1029=FACE_BOUND('',#913,.T.);
#1030=FACE_BOUND('',#914,.T.);
#1031=FACE_BOUND('',#915,.T.);
#1032=FACE_BOUND('',#916,.T.);
#1033=FACE_BOUND('',#917,.T.);
#1034=FACE_BOUND('',#918,.T.);
#1035=FACE_BOUND('',#919,.T.);
#1036=FACE_BOUND('',#920,.T.);
#1037=FACE_BOUND('',#921,.T.);
#1038=FACE_BOUND('',#922,.T.);
#1039=FACE_BOUND('',#923,.T.);
#1040=FACE_BOUND('',#924,.T.);
#1041=FACE_BOUND('',#925,.T.);
#1042=FACE_BOUND('',#926,.T.);
#1043=FACE_BOUND('',#927,.T.);
#1044=FACE_BOUND('',#928,.T.);
#1045=FACE_BOUND('',#929,.T.);
#1046=FACE_BOUND('',#930,.T.);
#1047=FACE_BOUND('',#931,.T.);
#1048=FACE_BOUND('',#932,.T.);
#1049=FACE_BOUND('',#933,.T.);
#1050=FACE_BOUND('',#934,.T.);
#1051=FACE_BOUND('',#935,.T.);
#1052=FACE_BOUND('',#936,.T.);
#1053=FACE_BOUND('',#937,.T.);
#1054=FACE_BOUND('',#938,.T.);
#1055=FACE_BOUND('',#939,.T.);
#1056=FACE_BOUND('',#940,.T.);
#1057=FACE_BOUND('',#941,.T.);
#1058=FACE_BOUND('',#942,.T.);
#1059=FACE_BOUND('',#943,.T.);
#1060=FACE_BOUND('',#944,.T.);
#1061=PLANE('',#1188);
#1062=PLANE('',#1217);
#1063=PLANE('',#1231);
#1064=PLANE('',#1232);
#1065=PLANE('',#1233);
#1066=PLANE('',#1234);
#1067=PLANE('',#1238);
#1068=PLANE('',#1239);
#1069=PLANE('',#1242);
#1070=PLANE('',#1243);
#1071=PLANE('',#1244);
#1072=PLANE('',#1245);
#1073=PLANE('',#1246);
#1074=PLANE('',#1247);
#1075=PLANE('',#1248);
#1076=PLANE('',#1249);
#1077=PLANE('',#1250);
#1078=PLANE('',#1251);
#1079=PLANE('',#1258);
#1080=PLANE('',#1259);
#1081=PLANE('',#1260);
#1082=PLANE('',#1261);
#1083=PLANE('',#1265);
#1084=PLANE('',#1267);
#1085=PLANE('',#1269);
#1086=PLANE('',#1271);
#1087=PLANE('',#1274);
#1088=PLANE('',#1279);
#1089=PLANE('',#1280);
#1090=PLANE('',#1285);
#1091=PLANE('',#1286);
#1092=PLANE('',#1291);
#1093=PLANE('',#1295);
#1094=PLANE('',#1296);
#1095=PLANE('',#1297);
#1096=PLANE('',#1298);
#1097=PLANE('',#1299);
#1098=PLANE('',#1300);
#1099=PLANE('',#1301);
#1100=PLANE('',#1302);
#1101=PLANE('',#1303);
#1102=PLANE('',#1304);
#1103=PLANE('',#1305);
#1104=PLANE('',#1306);
#1105=ADVANCED_FACE('',(#945,#946,#947,#948,#949,#950,#951,#952,#953,#954,
#955),#1061,.F.);
#1106=ADVANCED_FACE('',(#956,#957),#24,.T.);
#1107=ADVANCED_FACE('',(#958,#959),#25,.T.);
#1108=ADVANCED_FACE('',(#960,#961),#26,.T.);
#1109=ADVANCED_FACE('',(#962,#963,#964,#965,#966,#967,#968,#969,#970,#971,
#972),#1062,.T.);
#1110=ADVANCED_FACE('',(#973),#1063,.F.);
#1111=ADVANCED_FACE('',(#974),#1064,.T.);
#1112=ADVANCED_FACE('',(#975),#1065,.T.);
#1113=ADVANCED_FACE('',(#976),#1066,.F.);
#1114=ADVANCED_FACE('',(#977,#978),#27,.F.);
#1115=ADVANCED_FACE('',(#979,#980),#28,.F.);
#1116=ADVANCED_FACE('',(#981),#1067,.T.);
#1117=ADVANCED_FACE('',(#982),#1068,.T.);
#1118=ADVANCED_FACE('',(#983),#29,.F.);
#1119=ADVANCED_FACE('',(#984),#1069,.T.);
#1120=ADVANCED_FACE('',(#985),#1070,.T.);
#1121=ADVANCED_FACE('',(#986),#1071,.T.);
#1122=ADVANCED_FACE('',(#987),#1072,.F.);
#1123=ADVANCED_FACE('',(#988),#1073,.F.);
#1124=ADVANCED_FACE('',(#989),#1074,.T.);
#1125=ADVANCED_FACE('',(#990,#991),#1075,.T.);
#1126=ADVANCED_FACE('',(#992),#1076,.T.);
#1127=ADVANCED_FACE('',(#993),#1077,.F.);
#1128=ADVANCED_FACE('',(#994),#1078,.F.);
#1129=ADVANCED_FACE('',(#995,#996),#30,.F.);
#1130=ADVANCED_FACE('',(#997,#998),#31,.F.);
#1131=ADVANCED_FACE('',(#999),#1079,.T.);
#1132=ADVANCED_FACE('',(#1000,#1001,#1002),#1080,.T.);
#1133=ADVANCED_FACE('',(#1003),#1081,.F.);
#1134=ADVANCED_FACE('',(#1004),#1082,.F.);
#1135=ADVANCED_FACE('',(#1005,#1006),#32,.F.);
#1136=ADVANCED_FACE('',(#1007,#1008),#33,.F.);
#1137=ADVANCED_FACE('',(#1009),#34,.T.);
#1138=ADVANCED_FACE('',(#1010),#1083,.F.);
#1139=ADVANCED_FACE('',(#1011),#35,.T.);
#1140=ADVANCED_FACE('',(#1012),#1084,.F.);
#1141=ADVANCED_FACE('',(#1013),#36,.T.);
#1142=ADVANCED_FACE('',(#1014),#1085,.T.);
#1143=ADVANCED_FACE('',(#1015),#37,.T.);
#1144=ADVANCED_FACE('',(#1016),#1086,.T.);
#1145=ADVANCED_FACE('',(#1017,#1018),#38,.F.);
#1146=ADVANCED_FACE('',(#1019,#1020),#39,.F.);
#1147=ADVANCED_FACE('',(#1021,#1022),#1087,.F.);
#1148=ADVANCED_FACE('',(#1023,#1024),#40,.F.);
#1149=ADVANCED_FACE('',(#1025,#1026),#1088,.T.);
#1150=ADVANCED_FACE('',(#1027,#1028),#1089,.F.);
#1151=ADVANCED_FACE('',(#1029,#1030),#41,.F.);
#1152=ADVANCED_FACE('',(#1031,#1032),#1090,.T.);
#1153=ADVANCED_FACE('',(#1033,#1034),#1091,.F.);
#1154=ADVANCED_FACE('',(#1035,#1036),#42,.F.);
#1155=ADVANCED_FACE('',(#1037,#1038),#1092,.T.);
#1156=ADVANCED_FACE('',(#1039,#1040),#43,.F.);
#1157=ADVANCED_FACE('',(#1041,#1042),#44,.F.);
#1158=ADVANCED_FACE('',(#1043,#1044),#45,.F.);
#1159=ADVANCED_FACE('',(#1045),#1093,.T.);
#1160=ADVANCED_FACE('',(#1046),#1094,.F.);
#1161=ADVANCED_FACE('',(#1047),#1095,.F.);
#1162=ADVANCED_FACE('',(#1048),#1096,.F.);
#1163=ADVANCED_FACE('',(#1049),#1097,.F.);
#1164=ADVANCED_FACE('',(#1050),#1098,.F.);
#1165=ADVANCED_FACE('',(#1051),#1099,.T.);
#1166=ADVANCED_FACE('',(#1052),#1100,.F.);
#1167=ADVANCED_FACE('',(#1053),#1101,.F.);
#1168=ADVANCED_FACE('',(#1054),#1102,.F.);
#1169=ADVANCED_FACE('',(#1055),#1103,.T.);
#1170=ADVANCED_FACE('',(#1056),#1104,.T.);
#1171=ADVANCED_FACE('',(#1057),#12,.T.);
#1172=ADVANCED_FACE('',(#1058),#13,.T.);
#1173=ADVANCED_FACE('',(#1059),#14,.T.);
#1174=ADVANCED_FACE('',(#1060),#15,.T.);
#1175=CLOSED_SHELL('',(#1105,#1106,#1107,#1108,#1109,#1110,#1111,#1112,
#1113,#1114,#1115,#1116,#1117,#1118,#1119,#1120,#1121,#1122,#1123,#1124,
#1125,#1126,#1127,#1128,#1129,#1130,#1131,#1132,#1133,#1134,#1135,#1136,
#1137,#1138,#1139,#1140,#1141,#1142,#1143,#1144,#1145,#1146,#1147,#1148,
#1149,#1150,#1151,#1152,#1153,#1154,#1155,#1156,#1157,#1158,#1159,#1160,
#1161,#1162,#1163,#1164,#1165,#1166,#1167,#1168,#1169,#1170,#1171,#1172,
#1173,#1174));
#1176=STYLED_ITEM('',(#1177),#1184);
#1177=PRESENTATION_STYLE_ASSIGNMENT((#1178));
#1178=SURFACE_STYLE_USAGE(.BOTH.,#1179);
#1179=SURFACE_SIDE_STYLE('',(#1180));
#1180=SURFACE_STYLE_FILL_AREA(#1181);
#1181=FILL_AREA_STYLE('',(#1182));
#1182=FILL_AREA_STYLE_COLOUR('',#1183);
#1183=COLOUR_RGB('',0.372549019607843,0.654901960784314,0.23921568627451);
#1184=MANIFOLD_SOLID_BREP('Part 1',#1175);
#1185=SHAPE_DEFINITION_REPRESENTATION(#2004,#1186);
#1186=SHAPE_REPRESENTATION('Part 1',(#1187),#1999);
#1187=AXIS2_PLACEMENT_3D('',#1647,#1311,#1312);
#1188=AXIS2_PLACEMENT_3D('',#1648,#1313,#1314);
#1189=AXIS2_PLACEMENT_3D('',#1649,#1315,#1316);
#1190=AXIS2_PLACEMENT_3D('',#1651,#1317,#1318);
#1191=AXIS2_PLACEMENT_3D('',#1658,#1321,#1322);
#1192=AXIS2_PLACEMENT_3D('',#1661,#1324,#1325);
#1193=AXIS2_PLACEMENT_3D('',#1687,#1338,#1339);
#1194=AXIS2_PLACEMENT_3D('',#1689,#1340,#1341);
#1195=AXIS2_PLACEMENT_3D('',#1694,#1343,#1344);
#1196=AXIS2_PLACEMENT_3D('',#1698,#1346,#1347);
#1197=AXIS2_PLACEMENT_3D('',#1702,#1349,#1350);
#1198=AXIS2_PLACEMENT_3D('',#1706,#1352,#1353);
#1199=AXIS2_PLACEMENT_3D('',#1710,#1355,#1356);
#1200=AXIS2_PLACEMENT_3D('',#1714,#1358,#1359);
#1201=AXIS2_PLACEMENT_3D('',#1722,#1363,#1364);
#1202=AXIS2_PLACEMENT_3D('',#1726,#1366,#1367);
#1203=AXIS2_PLACEMENT_3D('',#1735,#1372,#1373);
#1204=AXIS2_PLACEMENT_3D('',#1736,#1374,#1375);
#1205=AXIS2_PLACEMENT_3D('',#1738,#1376,#1377);
#1206=AXIS2_PLACEMENT_3D('',#1741,#1378,#1379);
#1207=AXIS2_PLACEMENT_3D('',#1742,#1380,#1381);
#1208=AXIS2_PLACEMENT_3D('',#1743,#1382,#1383);
#1209=AXIS2_PLACEMENT_3D('',#1745,#1384,#1385);
#1210=AXIS2_PLACEMENT_3D('',#1748,#1386,#1387);
#1211=AXIS2_PLACEMENT_3D('',#1749,#1388,#1389);
#1212=AXIS2_PLACEMENT_3D('',#1750,#1390,#1391);
#1213=AXIS2_PLACEMENT_3D('',#1752,#1392,#1393);
#1214=AXIS2_PLACEMENT_3D('',#1755,#1394,#1395);
#1215=AXIS2_PLACEMENT_3D('',#1757,#1396,#1397);
#1216=AXIS2_PLACEMENT_3D('',#1759,#1398,#1399);
#1217=AXIS2_PLACEMENT_3D('',#1760,#1400,#1401);
#1218=AXIS2_PLACEMENT_3D('',#1761,#1402,#1403);
#1219=AXIS2_PLACEMENT_3D('',#1763,#1404,#1405);
#1220=AXIS2_PLACEMENT_3D('',#1765,#1406,#1407);
#1221=AXIS2_PLACEMENT_3D('',#1767,#1408,#1409);
#1222=AXIS2_PLACEMENT_3D('',#1769,#1410,#1411);
#1223=AXIS2_PLACEMENT_3D('',#1771,#1412,#1413);
#1224=AXIS2_PLACEMENT_3D('',#1773,#1414,#1415);
#1225=AXIS2_PLACEMENT_3D('',#1775,#1416,#1417);
#1226=AXIS2_PLACEMENT_3D('',#1777,#1418,#1419);
#1227=AXIS2_PLACEMENT_3D('',#1787,#1424,#1425);
#1228=AXIS2_PLACEMENT_3D('',#1792,#1427,#1428);
#1229=AXIS2_PLACEMENT_3D('',#1796,#1430,#1431);
#1230=AXIS2_PLACEMENT_3D('',#1800,#1433,#1434);
#1231=AXIS2_PLACEMENT_3D('',#1803,#1436,#1437);
#1232=AXIS2_PLACEMENT_3D('',#1806,#1440,#1441);
#1233=AXIS2_PLACEMENT_3D('',#1808,#1443,#1444);
#1234=AXIS2_PLACEMENT_3D('',#1810,#1446,#1447);
#1235=AXIS2_PLACEMENT_3D('',#1811,#1448,#1449);
#1236=AXIS2_PLACEMENT_3D('',#1812,#1450,#1451);
#1237=AXIS2_PLACEMENT_3D('',#1813,#1452,#1453);
#1238=AXIS2_PLACEMENT_3D('',#1815,#1454,#1455);
#1239=AXIS2_PLACEMENT_3D('',#1821,#1459,#1460);
#1240=AXIS2_PLACEMENT_3D('',#1825,#1463,#1464);
#1241=AXIS2_PLACEMENT_3D('',#1828,#1466,#1467);
#1242=AXIS2_PLACEMENT_3D('',#1829,#1468,#1469);
#1243=AXIS2_PLACEMENT_3D('',#1831,#1471,#1472);
#1244=AXIS2_PLACEMENT_3D('',#1832,#1473,#1474);
#1245=AXIS2_PLACEMENT_3D('',#1838,#1478,#1479);
#1246=AXIS2_PLACEMENT_3D('',#1842,#1482,#1483);
#1247=AXIS2_PLACEMENT_3D('',#1846,#1486,#1487);
#1248=AXIS2_PLACEMENT_3D('',#1848,#1489,#1490);
#1249=AXIS2_PLACEMENT_3D('',#1849,#1491,#1492);
#1250=AXIS2_PLACEMENT_3D('',#1855,#1496,#1497);
#1251=AXIS2_PLACEMENT_3D('',#1859,#1500,#1501);
#1252=AXIS2_PLACEMENT_3D('',#1863,#1504,#1505);
#1253=AXIS2_PLACEMENT_3D('',#1864,#1506,#1507);
#1254=AXIS2_PLACEMENT_3D('',#1866,#1508,#1509);
#1255=AXIS2_PLACEMENT_3D('',#1868,#1510,#1511);
#1256=AXIS2_PLACEMENT_3D('',#1869,#1512,#1513);
#1257=AXIS2_PLACEMENT_3D('',#1871,#1514,#1515);
#1258=AXIS2_PLACEMENT_3D('',#1873,#1516,#1517);
#1259=AXIS2_PLACEMENT_3D('',#1875,#1519,#1520);
#1260=AXIS2_PLACEMENT_3D('',#1876,#1521,#1522);
#1261=AXIS2_PLACEMENT_3D('',#1877,#1523,#1524);
#1262=AXIS2_PLACEMENT_3D('',#1878,#1525,#1526);
#1263=AXIS2_PLACEMENT_3D('',#1879,#1527,#1528);
#1264=AXIS2_PLACEMENT_3D('',#1880,#1529,#1530);
#1265=AXIS2_PLACEMENT_3D('',#1883,#1533,#1534);
#1266=AXIS2_PLACEMENT_3D('',#1885,#1536,#1537);
#1267=AXIS2_PLACEMENT_3D('',#1887,#1539,#1540);
#1268=AXIS2_PLACEMENT_3D('',#1889,#1542,#1543);
#1269=AXIS2_PLACEMENT_3D('',#1891,#1545,#1546);
#1270=AXIS2_PLACEMENT_3D('',#1893,#1548,#1549);
#1271=AXIS2_PLACEMENT_3D('',#1895,#1551,#1552);
#1272=AXIS2_PLACEMENT_3D('',#1896,#1553,#1554);
#1273=AXIS2_PLACEMENT_3D('',#1897,#1555,#1556);
#1274=AXIS2_PLACEMENT_3D('',#1898,#1557,#1558);
#1275=AXIS2_PLACEMENT_3D('',#1899,#1559,#1560);
#1276=AXIS2_PLACEMENT_3D('',#1901,#1561,#1562);
#1277=AXIS2_PLACEMENT_3D('',#1903,#1563,#1564);
#1278=AXIS2_PLACEMENT_3D('',#1904,#1565,#1566);
#1279=AXIS2_PLACEMENT_3D('',#1906,#1567,#1568);
#1280=AXIS2_PLACEMENT_3D('',#1907,#1569,#1570);
#1281=AXIS2_PLACEMENT_3D('',#1908,#1571,#1572);
#1282=AXIS2_PLACEMENT_3D('',#1910,#1573,#1574);
#1283=AXIS2_PLACEMENT_3D('',#1912,#1575,#1576);
#1284=AXIS2_PLACEMENT_3D('',#1913,#1577,#1578);
#1285=AXIS2_PLACEMENT_3D('',#1915,#1579,#1580);
#1286=AXIS2_PLACEMENT_3D('',#1916,#1581,#1582);
#1287=AXIS2_PLACEMENT_3D('',#1917,#1583,#1584);
#1288=AXIS2_PLACEMENT_3D('',#1919,#1585,#1586);
#1289=AXIS2_PLACEMENT_3D('',#1921,#1587,#1588);
#1290=AXIS2_PLACEMENT_3D('',#1922,#1589,#1590);
#1291=AXIS2_PLACEMENT_3D('',#1924,#1591,#1592);
#1292=AXIS2_PLACEMENT_3D('',#1925,#1593,#1594);
#1293=AXIS2_PLACEMENT_3D('',#1926,#1595,#1596);
#1294=AXIS2_PLACEMENT_3D('',#1927,#1597,#1598);
#1295=AXIS2_PLACEMENT_3D('',#1928,#1599,#1600);
#1296=AXIS2_PLACEMENT_3D('',#1936,#1606,#1607);
#1297=AXIS2_PLACEMENT_3D('',#1945,#1608,#1609);
#1298=AXIS2_PLACEMENT_3D('',#1951,#1611,#1612);
#1299=AXIS2_PLACEMENT_3D('',#1953,#1614,#1615);
#1300=AXIS2_PLACEMENT_3D('',#1958,#1616,#1617);
#1301=AXIS2_PLACEMENT_3D('',#1967,#1618,#1619);
#1302=AXIS2_PLACEMENT_3D('',#1973,#1623,#1624);
#1303=AXIS2_PLACEMENT_3D('',#1979,#1626,#1627);
#1304=AXIS2_PLACEMENT_3D('',#1987,#1630,#1631);
#1305=AXIS2_PLACEMENT_3D('',#1991,#1634,#1635);
#1306=AXIS2_PLACEMENT_3D('',#1993,#1637,#1638);
#1307=AXIS2_PLACEMENT_3D('',#1994,#1639,#1640);
#1308=AXIS2_PLACEMENT_3D('',#1995,#1641,#1642);
#1309=AXIS2_PLACEMENT_3D('',#1996,#1643,#1644);
#1310=AXIS2_PLACEMENT_3D('',#1997,#1645,#1646);
#1311=DIRECTION('',(0.,0.,1.));
#1312=DIRECTION('',(1.,0.,0.));
#1313=DIRECTION('',(0.,0.,1.));
#1314=DIRECTION('',(1.,0.,0.));
#1315=DIRECTION('',(0.,0.,1.));
#1316=DIRECTION('',(1.,0.,0.));
#1317=DIRECTION('',(0.,0.,1.));
#1318=DIRECTION('',(1.,0.,0.));
#1319=DIRECTION('',(0.,-1.,0.));
#1320=DIRECTION('',(1.,0.,0.));
#1321=DIRECTION('',(0.,0.,-1.));
#1322=DIRECTION('',(-1.,0.,0.));
#1323=DIRECTION('',(-1.,0.,0.));
#1324=DIRECTION('',(0.,0.,-1.));
#1325=DIRECTION('',(-1.,0.,0.));
#1326=DIRECTION('',(0.,1.,0.));
#1327=DIRECTION('',(1.,1.54197642309042E-16,0.));
#1328=DIRECTION('',(0.,1.,0.));
#1329=DIRECTION('',(1.,0.,0.));
#1330=DIRECTION('',(0.,-1.,0.));
#1331=DIRECTION('',(-1.,0.,0.));
#1332=DIRECTION('',(0.,-1.,0.));
#1333=DIRECTION('',(-1.,0.,0.));
#1334=DIRECTION('',(0.,1.,0.));
#1335=DIRECTION('',(1.,0.,0.));
#1336=DIRECTION('',(0.,1.,0.));
#1337=DIRECTION('',(1.,0.,0.));
#1338=DIRECTION('',(0.,0.,1.));
#1339=DIRECTION('',(1.,0.,0.));
#1340=DIRECTION('',(0.,0.,1.));
#1341=DIRECTION('',(1.,0.,0.));
#1342=DIRECTION('',(-1.,0.,0.));
#1343=DIRECTION('',(0.,0.,1.));
#1344=DIRECTION('',(1.,0.,0.));
#1345=DIRECTION('',(0.,-1.,0.));
#1346=DIRECTION('',(0.,0.,1.));
#1347=DIRECTION('',(1.,0.,0.));
#1348=DIRECTION('',(-1.,0.,0.));
#1349=DIRECTION('',(0.,0.,1.));
#1350=DIRECTION('',(1.,0.,0.));
#1351=DIRECTION('',(0.,-1.,0.));
#1352=DIRECTION('',(0.,0.,1.));
#1353=DIRECTION('',(1.,0.,0.));
#1354=DIRECTION('',(1.,0.,0.));
#1355=DIRECTION('',(0.,0.,1.));
#1356=DIRECTION('',(1.,0.,0.));
#1357=DIRECTION('',(-0.447213595499958,-0.894427190999916,0.));
#1358=DIRECTION('',(0.,0.,1.));
#1359=DIRECTION('',(1.,0.,0.));
#1360=DIRECTION('',(0.447213595499958,0.894427190999916,0.));
#1361=DIRECTION('',(1.,-5.32526366143884E-16,0.));
#1362=DIRECTION('',(0.447213595499958,-0.894427190999916,0.));
#1363=DIRECTION('',(0.,0.,1.));
#1364=DIRECTION('',(1.,0.,0.));
#1365=DIRECTION('',(-0.447213595499958,0.894427190999916,0.));
#1366=DIRECTION('',(0.,0.,1.));
#1367=DIRECTION('',(1.,0.,0.));
#1368=DIRECTION('',(1.,0.,0.));
#1369=DIRECTION('',(0.,-1.,0.));
#1370=DIRECTION('',(1.,0.,0.));
#1371=DIRECTION('',(0.,-1.,0.));
#1372=DIRECTION('',(0.,0.,1.));
#1373=DIRECTION('',(1.,0.,0.));
#1374=DIRECTION('',(0.,0.,-1.));
#1375=DIRECTION('',(-1.,0.,0.));
#1376=DIRECTION('',(0.,0.,-1.));
#1377=DIRECTION('',(-1.,0.,0.));
#1378=DIRECTION('',(0.,0.,1.));
#1379=DIRECTION('',(1.,0.,0.));
#1380=DIRECTION('',(0.,0.,1.));
#1381=DIRECTION('',(1.,0.,0.));
#1382=DIRECTION('',(0.,0.,-1.));
#1383=DIRECTION('',(-1.,0.,0.));
#1384=DIRECTION('',(0.,0.,-1.));
#1385=DIRECTION('',(-1.,0.,0.));
#1386=DIRECTION('',(0.,0.,1.));
#1387=DIRECTION('',(1.,0.,0.));
#1388=DIRECTION('',(0.,0.,1.));
#1389=DIRECTION('',(1.,0.,0.));
#1390=DIRECTION('',(0.,0.,-1.));
#1391=DIRECTION('',(-1.,0.,0.));
#1392=DIRECTION('',(0.,0.,-1.));
#1393=DIRECTION('',(-1.,0.,0.));
#1394=DIRECTION('',(0.,0.,1.));
#1395=DIRECTION('',(1.,0.,0.));
#1396=DIRECTION('',(0.,0.,-1.));
#1397=DIRECTION('',(-1.,0.,0.));
#1398=DIRECTION('',(0.,0.,1.));
#1399=DIRECTION('',(1.,0.,0.));
#1400=DIRECTION('',(0.,0.,1.));
#1401=DIRECTION('',(1.,0.,0.));
#1402=DIRECTION('',(0.,0.,1.));
#1403=DIRECTION('',(1.,0.,0.));
#1404=DIRECTION('',(0.,0.,1.));
#1405=DIRECTION('',(1.,0.,0.));
#1406=DIRECTION('',(0.,0.,1.));
#1407=DIRECTION('',(1.,0.,0.));
#1408=DIRECTION('',(0.,0.,1.));
#1409=DIRECTION('',(1.,0.,0.));
#1410=DIRECTION('',(0.,0.,1.));
#1411=DIRECTION('',(1.,0.,0.));
#1412=DIRECTION('',(0.,0.,1.));
#1413=DIRECTION('',(1.,0.,0.));
#1414=DIRECTION('',(0.,0.,1.));
#1415=DIRECTION('',(1.,0.,0.));
#1416=DIRECTION('',(0.,0.,1.));
#1417=DIRECTION('',(1.,0.,0.));
#1418=DIRECTION('',(0.,0.,1.));
#1419=DIRECTION('',(1.,0.,0.));
#1420=DIRECTION('',(0.,1.,0.));
#1421=DIRECTION('',(1.,0.,0.));
#1422=DIRECTION('',(0.,1.,0.));
#1423=DIRECTION('',(1.,1.54197642309042E-16,0.));
#1424=DIRECTION('',(0.,0.,-1.));
#1425=DIRECTION('',(1.,0.,0.));
#1426=DIRECTION('',(1.,0.,0.));
#1427=DIRECTION('',(0.,0.,-1.));
#1428=DIRECTION('',(1.,0.,0.));
#1429=DIRECTION('',(0.,1.,0.));
#1430=DIRECTION('',(0.,0.,1.));
#1431=DIRECTION('',(1.,0.,0.));
#1432=DIRECTION('',(1.,0.,0.));
#1433=DIRECTION('',(0.,0.,1.));
#1434=DIRECTION('',(1.,0.,0.));
#1435=DIRECTION('',(0.,1.,0.));
#1436=DIRECTION('',(1.,0.,0.));
#1437=DIRECTION('',(0.,0.,-1.));
#1438=DIRECTION('',(0.,0.,1.));
#1439=DIRECTION('',(0.,0.,1.));
#1440=DIRECTION('',(0.,-1.,0.));
#1441=DIRECTION('',(0.,0.,-1.));
#1442=DIRECTION('',(0.,0.,1.));
#1443=DIRECTION('',(1.,0.,0.));
#1444=DIRECTION('',(0.,0.,-1.));
#1445=DIRECTION('',(0.,0.,1.));
#1446=DIRECTION('',(1.54197642309042E-16,-1.,0.));
#1447=DIRECTION('',(1.,1.54197642309042E-16,0.));
#1448=DIRECTION('',(0.,0.,-1.));
#1449=DIRECTION('',(-1.,0.,0.));
#1450=DIRECTION('',(0.,0.,-1.));
#1451=DIRECTION('',(-1.,0.,0.));
#1452=DIRECTION('',(0.,0.,-1.));
#1453=DIRECTION('',(-1.,0.,0.));
#1454=DIRECTION('',(1.,0.,0.));
#1455=DIRECTION('',(0.,0.,-1.));
#1456=DIRECTION('',(0.,0.,-1.));
#1457=DIRECTION('',(0.,-1.,0.));
#1458=DIRECTION('',(0.,0.,-1.));
#1459=DIRECTION('',(0.,-1.,0.));
#1460=DIRECTION('',(0.,0.,-1.));
#1461=DIRECTION('',(0.,0.,-1.));
#1462=DIRECTION('',(-1.,0.,0.));
#1463=DIRECTION('',(0.,0.,-1.));
#1464=DIRECTION('',(-1.,0.,0.));
#1465=DIRECTION('',(0.,0.,-1.));
#1466=DIRECTION('',(0.,0.,-1.));
#1467=DIRECTION('',(-1.,0.,0.));
#1468=DIRECTION('',(0.,1.,0.));
#1469=DIRECTION('',(0.,0.,1.));
#1470=DIRECTION('',(1.,0.,0.));
#1471=DIRECTION('',(0.,0.,-1.));
#1472=DIRECTION('',(1.,0.,0.));
#1473=DIRECTION('',(0.,1.,0.));
#1474=DIRECTION('',(0.,0.,1.));
#1475=DIRECTION('',(0.,0.,1.));
#1476=DIRECTION('',(-1.,0.,0.));
#1477=DIRECTION('',(0.,0.,1.));
#1478=DIRECTION('',(-1.,0.,0.));
#1479=DIRECTION('',(0.,0.,1.));
#1480=DIRECTION('',(0.,0.,1.));
#1481=DIRECTION('',(0.,-1.,0.));
#1482=DIRECTION('',(0.,1.,0.));
#1483=DIRECTION('',(0.,0.,1.));
#1484=DIRECTION('',(0.,0.,1.));
#1485=DIRECTION('',(-1.,0.,0.));
#1486=DIRECTION('',(-1.,0.,0.));
#1487=DIRECTION('',(0.,0.,1.));
#1488=DIRECTION('',(0.,-1.,0.));
#1489=DIRECTION('',(0.,0.,-1.));
#1490=DIRECTION('',(1.,0.,0.));
#1491=DIRECTION('',(0.,-1.,0.));
#1492=DIRECTION('',(0.,0.,-1.));
#1493=DIRECTION('',(0.,0.,1.));
#1494=DIRECTION('',(1.,0.,0.));
#1495=DIRECTION('',(0.,0.,1.));
#1496=DIRECTION('',(1.,0.,0.));
#1497=DIRECTION('',(0.,0.,-1.));
#1498=DIRECTION('',(0.,0.,1.));
#1499=DIRECTION('',(0.,1.,0.));
#1500=DIRECTION('',(0.,-1.,0.));
#1501=DIRECTION('',(0.,0.,-1.));
#1502=DIRECTION('',(0.,0.,1.));
#1503=DIRECTION('',(1.,0.,0.));
#1504=DIRECTION('',(0.,0.,1.));
#1505=DIRECTION('',(1.,0.,0.));
#1506=DIRECTION('',(0.,0.,-1.));
#1507=DIRECTION('',(-1.,0.,0.));
#1508=DIRECTION('',(0.,0.,-1.));
#1509=DIRECTION('',(-1.,0.,0.));
#1510=DIRECTION('',(0.,0.,1.));
#1511=DIRECTION('',(1.,0.,0.));
#1512=DIRECTION('',(0.,0.,-1.));
#1513=DIRECTION('',(-1.,0.,0.));
#1514=DIRECTION('',(0.,0.,-1.));
#1515=DIRECTION('',(-1.,0.,0.));
#1516=DIRECTION('',(1.,0.,0.));
#1517=DIRECTION('',(0.,0.,-1.));
#1518=DIRECTION('',(0.,1.,0.));
#1519=DIRECTION('',(0.,0.,-1.));
#1520=DIRECTION('',(1.,0.,0.));
#1521=DIRECTION('',(0.,0.,1.));
#1522=DIRECTION('',(1.,0.,0.));
#1523=DIRECTION('',(0.,0.,1.));
#1524=DIRECTION('',(1.,0.,0.));
#1525=DIRECTION('',(0.,0.,1.));
#1526=DIRECTION('',(1.,0.,0.));
#1527=DIRECTION('',(0.,0.,1.));
#1528=DIRECTION('',(1.,0.,0.));
#1529=DIRECTION('',(0.,0.,1.));
#1530=DIRECTION('',(1.,0.,0.));
#1531=DIRECTION('',(0.,0.,1.));
#1532=DIRECTION('',(0.,0.,1.));
#1533=DIRECTION('',(1.,0.,0.));
#1534=DIRECTION('',(0.,0.,-1.));
#1535=DIRECTION('',(0.,0.,1.));
#1536=DIRECTION('',(0.,0.,1.));
#1537=DIRECTION('',(1.,0.,0.));
#1538=DIRECTION('',(0.,0.,1.));
#1539=DIRECTION('',(0.,-1.,0.));
#1540=DIRECTION('',(0.,0.,-1.));
#1541=DIRECTION('',(0.,0.,1.));
#1542=DIRECTION('',(0.,0.,1.));
#1543=DIRECTION('',(1.,0.,0.));
#1544=DIRECTION('',(0.,0.,1.));
#1545=DIRECTION('',(1.,0.,0.));
#1546=DIRECTION('',(0.,0.,-1.));
#1547=DIRECTION('',(0.,0.,1.));
#1548=DIRECTION('',(0.,0.,1.));
#1549=DIRECTION('',(1.,0.,0.));
#1550=DIRECTION('',(0.,0.,1.));
#1551=DIRECTION('',(0.,-1.,0.));
#1552=DIRECTION('',(0.,0.,-1.));
#1553=DIRECTION('',(0.,0.,1.));
#1554=DIRECTION('',(1.,0.,0.));
#1555=DIRECTION('',(0.,0.,1.));
#1556=DIRECTION('',(1.,0.,0.));
#1557=DIRECTION('',(0.,0.,-1.));
#1558=DIRECTION('',(1.,0.,0.));
#1559=DIRECTION('',(0.,0.,-1.));
#1560=DIRECTION('',(-1.,0.,0.));
#1561=DIRECTION('',(0.,0.,-1.));
#1562=DIRECTION('',(-1.,0.,0.));
#1563=DIRECTION('',(0.,0.,1.));
#1564=DIRECTION('',(1.,0.,0.));
#1565=DIRECTION('',(0.,0.,-1.));
#1566=DIRECTION('',(-1.,0.,0.));
#1567=DIRECTION('',(0.,0.,-1.));
#1568=DIRECTION('',(1.,0.,0.));
#1569=DIRECTION('',(0.,0.,-1.));
#1570=DIRECTION('',(1.,0.,0.));
#1571=DIRECTION('',(0.,0.,-1.));
#1572=DIRECTION('',(-1.,0.,0.));
#1573=DIRECTION('',(0.,0.,-1.));
#1574=DIRECTION('',(-1.,0.,0.));
#1575=DIRECTION('',(0.,0.,1.));
#1576=DIRECTION('',(1.,0.,0.));
#1577=DIRECTION('',(0.,0.,-1.));
#1578=DIRECTION('',(-1.,0.,0.));
#1579=DIRECTION('',(0.,0.,-1.));
#1580=DIRECTION('',(1.,0.,0.));
#1581=DIRECTION('',(0.,0.,-1.));
#1582=DIRECTION('',(1.,0.,0.));
#1583=DIRECTION('',(0.,0.,-1.));
#1584=DIRECTION('',(-1.,0.,0.));
#1585=DIRECTION('',(0.,0.,-1.));
#1586=DIRECTION('',(-1.,0.,0.));
#1587=DIRECTION('',(0.,0.,1.));
#1588=DIRECTION('',(1.,0.,0.));
#1589=DIRECTION('',(0.,0.,-1.));
#1590=DIRECTION('',(-1.,0.,0.));
#1591=DIRECTION('',(0.,0.,-1.));
#1592=DIRECTION('',(1.,0.,0.));
#1593=DIRECTION('',(0.,0.,1.));
#1594=DIRECTION('',(1.,0.,0.));
#1595=DIRECTION('',(0.,0.,1.));
#1596=DIRECTION('',(1.,0.,0.));
#1597=DIRECTION('',(0.,0.,1.));
#1598=DIRECTION('',(1.,0.,0.));
#1599=DIRECTION('',(0.,0.,-1.));
#1600=DIRECTION('',(1.,0.,0.));
#1601=DIRECTION('',(-0.447213595499958,0.894427190999916,0.));
#1602=DIRECTION('',(0.447213595499958,-0.894427190999916,0.));
#1603=DIRECTION('',(1.,-5.32526366143884E-16,0.));
#1604=DIRECTION('',(0.447213595499958,0.894427190999916,0.));
#1605=DIRECTION('',(-0.447213595499958,-0.894427190999916,0.));
#1606=DIRECTION('',(0.894427190999916,0.447213595499958,0.));
#1607=DIRECTION('',(-0.447213595499958,0.894427190999916,0.));
#1608=DIRECTION('',(-0.894427190999916,-0.447213595499958,0.));
#1609=DIRECTION('',(0.447213595499958,-0.894427190999916,0.));
#1610=DIRECTION('',(0.,0.,1.));
#1611=DIRECTION('',(-5.32526366143884E-16,-1.,0.));
#1612=DIRECTION('',(1.,-5.32526366143884E-16,0.));
#1613=DIRECTION('',(0.,0.,1.));
#1614=DIRECTION('',(0.894427190999916,-0.447213595499958,0.));
#1615=DIRECTION('',(0.447213595499958,0.894427190999916,0.));
#1616=DIRECTION('',(-0.894427190999916,0.447213595499958,0.));
#1617=DIRECTION('',(-0.447213595499958,-0.894427190999916,0.));
#1618=DIRECTION('',(-1.,0.,0.));
#1619=DIRECTION('',(0.,0.,1.));
#1620=DIRECTION('',(0.,0.,1.));
#1621=DIRECTION('',(0.,-1.,0.));
#1622=DIRECTION('',(0.,0.,1.));
#1623=DIRECTION('',(0.,-1.,0.));
#1624=DIRECTION('',(0.,0.,-1.));
#1625=DIRECTION('',(1.,0.,0.));
#1626=DIRECTION('',(0.,-1.,0.));
#1627=DIRECTION('',(0.,0.,-1.));
#1628=DIRECTION('',(1.,0.,0.));
#1629=DIRECTION('',(0.,0.,1.));
#1630=DIRECTION('',(-1.,0.,0.));
#1631=DIRECTION('',(0.,0.,1.));
#1632=DIRECTION('',(0.,0.,1.));
#1633=DIRECTION('',(0.,-1.,0.));
#1634=DIRECTION('',(0.,-1.,0.));
#1635=DIRECTION('',(0.,0.,-1.));
#1636=DIRECTION('',(1.,0.,0.));
#1637=DIRECTION('',(0.,0.,-1.));
#1638=DIRECTION('',(1.,0.,0.));
#1639=DIRECTION('',(0.,0.,1.));
#1640=DIRECTION('',(1.,0.,0.));
#1641=DIRECTION('',(0.,0.,1.));
#1642=DIRECTION('',(1.,0.,0.));
#1643=DIRECTION('',(0.,0.,1.));
#1644=DIRECTION('',(1.,0.,0.));
#1645=DIRECTION('',(0.,0.,1.));
#1646=DIRECTION('',(1.,0.,0.));
#1647=CARTESIAN_POINT('',(0.,0.,0.));
#1648=CARTESIAN_POINT('',(0.045000000000002,0.048,-0.003));
#1649=CARTESIAN_POINT('',(0.034690000000012,0.0851250000000067,-0.003));
#1650=CARTESIAN_POINT('',(0.035690000000012,0.0851250000000067,-0.003));
#1651=CARTESIAN_POINT('',(0.0346900000000121,0.0634650000000058,-0.003));
#1652=CARTESIAN_POINT('',(0.0356900000000121,0.0634650000000058,-0.003));
#1653=CARTESIAN_POINT('',(0.0272,0.03,-0.003));
#1654=CARTESIAN_POINT('',(0.0272,0.03131,-0.003));
#1655=CARTESIAN_POINT('',(0.0272,0.02869,-0.003));
#1656=CARTESIAN_POINT('',(0.0277992231424394,0.02869,-0.003));
#1657=CARTESIAN_POINT('',(0.0283984462848789,0.02869,-0.003));
#1658=CARTESIAN_POINT('',(0.0199999999999997,0.03,-0.003));
#1659=CARTESIAN_POINT('',(0.028398446284879,0.03131,-0.003));
#1660=CARTESIAN_POINT('',(0.0277992231424394,0.03131,-0.003));
#1661=CARTESIAN_POINT('',(0.0199999999999998,0.03,-0.003));
#1662=CARTESIAN_POINT('',(0.0164499999999995,0.03,-0.003));
#1663=CARTESIAN_POINT('',(0.,0.048,-0.003));
#1664=CARTESIAN_POINT('',(0.,0.,-0.003));
#1665=CARTESIAN_POINT('',(-6.93889390390723E-18,0.096,-0.003));
#1666=CARTESIAN_POINT('',(0.045000000000002,0.096,-0.003));
#1667=CARTESIAN_POINT('',(0.090000000000004,0.096,-0.003));
#1668=CARTESIAN_POINT('',(0.090000000000004,0.048,-0.003));
#1669=CARTESIAN_POINT('',(0.090000000000004,6.93889390390723E-18,-0.003));
#1670=CARTESIAN_POINT('',(0.045000000000002,0.,-0.003));
#1671=CARTESIAN_POINT('',(0.075,0.03,-0.003));
#1672=CARTESIAN_POINT('',(0.075,0.035,-0.003));
#1673=CARTESIAN_POINT('',(0.075,0.025,-0.003));
#1674=CARTESIAN_POINT('',(0.07,0.035,-0.003));
#1675=CARTESIAN_POINT('',(0.065,0.035,-0.003));
#1676=CARTESIAN_POINT('',(0.065,0.03,-0.003));
#1677=CARTESIAN_POINT('',(0.065,0.025,-0.003));
#1678=CARTESIAN_POINT('',(0.07,0.025,-0.003));
#1679=CARTESIAN_POINT('',(0.0766948000000043,0.0321498188854495,-0.003));
#1680=CARTESIAN_POINT('',(0.0766948000000043,0.0211498188854495,-0.003));
#1681=CARTESIAN_POINT('',(0.0766948000000043,0.0431498188854495,-0.003));
#1682=CARTESIAN_POINT('',(0.0796948000000043,0.0211498188854495,-0.003));
#1683=CARTESIAN_POINT('',(0.0826948000000043,0.0211498188854495,-0.003));
#1684=CARTESIAN_POINT('',(0.0826948000000043,0.0321498188854495,-0.003));
#1685=CARTESIAN_POINT('',(0.0826948000000043,0.0431498188854495,-0.003));
#1686=CARTESIAN_POINT('',(0.0796948000000043,0.0431498188854495,-0.003));
#1687=CARTESIAN_POINT('',(0.055310000000014,0.0851250000000067,-0.003));
#1688=CARTESIAN_POINT('',(0.0563100000000141,0.0851250000000067,-0.003));
#1689=CARTESIAN_POINT('',(0.055310000000014,0.0634650000000058,-0.003));
#1690=CARTESIAN_POINT('',(0.0563100000000141,0.0634650000000058,-0.003));
#1691=CARTESIAN_POINT('',(0.0450000000000119,0.0874250000000068,-0.003));
#1692=CARTESIAN_POINT('',(0.0526100000000119,0.0874250000000068,-0.003));
#1693=CARTESIAN_POINT('',(0.0373900000000118,0.0874250000000068,-0.003));
#1694=CARTESIAN_POINT('',(0.0335671243444795,0.0862478756555391,-0.003));
#1695=CARTESIAN_POINT('',(0.0323900000000118,0.0824250000000068,-0.003));
#1696=CARTESIAN_POINT('',(0.0323900000000118,0.0742950000000027,-0.003));
#1697=CARTESIAN_POINT('',(0.0323900000000118,0.0661649999999986,-0.003));
#1698=CARTESIAN_POINT('',(0.0335671243444795,0.0623421243444663,-0.003));
#1699=CARTESIAN_POINT('',(0.0373900000000118,0.0611649999999986,-0.003));
#1700=CARTESIAN_POINT('',(0.0450000000000119,0.0611649999999986,-0.003));
#1701=CARTESIAN_POINT('',(0.0526100000000119,0.0611649999999986,-0.003));
#1702=CARTESIAN_POINT('',(0.056432875655544,0.0623421243444671,-0.003));
#1703=CARTESIAN_POINT('',(0.0576100000000143,0.0661649999999986,-0.003));
#1704=CARTESIAN_POINT('',(0.0576100000000143,0.0742950000000028,-0.003));
#1705=CARTESIAN_POINT('',(0.0576100000000143,0.0824250000000069,-0.003));
#1706=CARTESIAN_POINT('',(0.0564328756555439,0.0862478756555384,-0.003));
#1707=CARTESIAN_POINT('',(0.0616583123951784,0.0159999999999993,-0.003));
#1708=CARTESIAN_POINT('',(0.0524833147735485,0.0159999999999993,-0.003));
#1709=CARTESIAN_POINT('',(0.075,0.0159999999999993,-0.003));
#1710=CARTESIAN_POINT('',(0.0450000000000007,0.0209999999999993,-0.003));
#1711=CARTESIAN_POINT('',(0.0503102677530974,0.0282664335399431,-0.003));
#1712=CARTESIAN_POINT('',(0.0613416407865005,0.0503291796067494,-0.003));
#1713=CARTESIAN_POINT('',(0.0723730138199036,0.0723919256735556,-0.003));
#1714=CARTESIAN_POINT('',(0.075,0.081,-0.003));
#1715=CARTESIAN_POINT('',(0.0696897322469039,0.0737335664600554,-0.003));
#1716=CARTESIAN_POINT('',(0.0645452122516108,0.0634445264694692,-0.003));
#1717=CARTESIAN_POINT('',(0.0580301415010741,0.0504143849683958,-0.003));
#1718=CARTESIAN_POINT('',(0.0450000000000007,0.0504143849683958,-0.003));
#1719=CARTESIAN_POINT('',(0.0319698584989273,0.0504143849683958,-0.003));
#1720=CARTESIAN_POINT('',(0.0254547877483905,0.0634445264694692,-0.003));
#1721=CARTESIAN_POINT('',(0.0203102677530974,0.0737335664600555,-0.003));
#1722=CARTESIAN_POINT('',(0.0150000000000007,0.081,-0.003));
#1723=CARTESIAN_POINT('',(0.0176269861800977,0.0723919256735556,-0.003));
#1724=CARTESIAN_POINT('',(0.0286583592135008,0.0503291796067494,-0.003));
#1725=CARTESIAN_POINT('',(0.0396897322469039,0.0282664335399431,-0.003));
#1726=CARTESIAN_POINT('',(0.0450000000000007,0.0209999999999993,-0.003));
#1727=CARTESIAN_POINT('',(0.0375166852264527,0.0159999999999993,-0.003));
#1728=CARTESIAN_POINT('',(0.0283416876048229,0.0159999999999993,-0.003));
#1729=CARTESIAN_POINT('',(0.0150000000000006,0.0159999999999993,-0.003));
#1730=CARTESIAN_POINT('',(0.0150000000000006,0.0144999999999993,-0.003));
#1731=CARTESIAN_POINT('',(0.0150000000000006,0.0129999999999993,-0.003));
#1732=CARTESIAN_POINT('',(0.0450000000000007,0.0129999999999993,-0.003));
#1733=CARTESIAN_POINT('',(0.075,0.0129999999999993,-0.003));
#1734=CARTESIAN_POINT('',(0.075,0.0144999999999993,-0.003));
#1735=CARTESIAN_POINT('',(0.075,0.081,-0.036));
#1736=CARTESIAN_POINT('',(0.075,0.081,-0.04));
#1737=CARTESIAN_POINT('',(0.069,0.081,-0.04));
#1738=CARTESIAN_POINT('',(0.075,0.081,-0.006));
#1739=CARTESIAN_POINT('',(0.0737435645751472,0.0751330271840427,-0.006));
#1740=CARTESIAN_POINT('',(0.0710602830021475,0.0764746679705426,-0.006));
#1741=CARTESIAN_POINT('',(0.075,0.081,-0.006));
#1742=CARTESIAN_POINT('',(0.0150000000000007,0.081,-0.036));
#1743=CARTESIAN_POINT('',(0.0150000000000007,0.081,-0.04));
#1744=CARTESIAN_POINT('',(0.0090000000000007,0.081,-0.04));
#1745=CARTESIAN_POINT('',(0.0150000000000007,0.081,-0.006));
#1746=CARTESIAN_POINT('',(0.0189397169978539,0.0764746679705426,-0.006));
#1747=CARTESIAN_POINT('',(0.0162564354248541,0.0751330271840427,-0.006));
#1748=CARTESIAN_POINT('',(0.0150000000000007,0.081,-0.006));
#1749=CARTESIAN_POINT('',(0.0450000000000007,0.0209999999999993,-0.036));
#1750=CARTESIAN_POINT('',(0.0450000000000007,0.0209999999999993,-0.04));
#1751=CARTESIAN_POINT('',(0.0390000000000007,0.0209999999999993,-0.04));
#1752=CARTESIAN_POINT('',(0.0450000000000007,0.0209999999999993,-0.006));
#1753=CARTESIAN_POINT('',(0.0410602830021475,0.025525332029456,-0.006));
#1754=CARTESIAN_POINT('',(0.0489397169978538,0.025525332029456,-0.006));
#1755=CARTESIAN_POINT('',(0.0450000000000007,0.0209999999999993,-0.006));
#1756=CARTESIAN_POINT('',(0.0483166247903561,0.0159999999999993,-0.006));
#1757=CARTESIAN_POINT('',(0.0450000000000006,0.0209999999999993,-0.006));
#1758=CARTESIAN_POINT('',(0.0416833752096452,0.0159999999999993,-0.006));
#1759=CARTESIAN_POINT('',(0.0450000000000007,0.0209999999999993,-0.006));
#1760=CARTESIAN_POINT('',(0.045000000000002,0.048,0.));
#1761=CARTESIAN_POINT('',(0.0450000000000007,0.0209999999999993,0.));
#1762=CARTESIAN_POINT('',(0.0480000000000007,0.0209999999999993,0.));
#1763=CARTESIAN_POINT('',(0.075,0.081,0.));
#1764=CARTESIAN_POINT('',(0.078,0.081,0.));
#1765=CARTESIAN_POINT('',(0.0150000000000007,0.081,0.));
#1766=CARTESIAN_POINT('',(0.0180000000000007,0.081,0.));
#1767=CARTESIAN_POINT('',(0.034690000000012,0.0851250000000067,0.));
#1768=CARTESIAN_POINT('',(0.035690000000012,0.0851250000000067,0.));
#1769=CARTESIAN_POINT('',(0.0346900000000121,0.0634650000000058,0.));
#1770=CARTESIAN_POINT('',(0.0356900000000121,0.0634650000000058,0.));
#1771=CARTESIAN_POINT('',(0.055310000000014,0.0634650000000058,0.));
#1772=CARTESIAN_POINT('',(0.0563100000000141,0.0634650000000058,0.));
#1773=CARTESIAN_POINT('',(0.055310000000014,0.0851250000000067,0.));
#1774=CARTESIAN_POINT('',(0.0563100000000141,0.0851250000000067,0.));
#1775=CARTESIAN_POINT('',(0.07,0.03,0.));
#1776=CARTESIAN_POINT('',(0.0735499999999995,0.03,0.));
#1777=CARTESIAN_POINT('',(0.0199999999999998,0.03,0.));
#1778=CARTESIAN_POINT('',(0.02355,0.03,0.));
#1779=CARTESIAN_POINT('',(0.,0.048,0.));
#1780=CARTESIAN_POINT('',(0.,0.,0.));
#1781=CARTESIAN_POINT('',(-6.93889390390723E-18,0.096,0.));
#1782=CARTESIAN_POINT('',(0.045000000000002,0.,0.));
#1783=CARTESIAN_POINT('',(0.090000000000004,6.93889390390723E-18,0.));
#1784=CARTESIAN_POINT('',(0.090000000000004,0.048,0.));
#1785=CARTESIAN_POINT('',(0.090000000000004,0.096,0.));
#1786=CARTESIAN_POINT('',(0.045000000000002,0.096,0.));
#1787=CARTESIAN_POINT('',(0.0335671243444795,0.0862478756555391,0.));
#1788=CARTESIAN_POINT('',(0.0373900000000118,0.0874250000000068,0.));
#1789=CARTESIAN_POINT('',(0.0323900000000118,0.0824250000000068,0.));
#1790=CARTESIAN_POINT('',(0.0450000000000119,0.0874250000000068,0.));
#1791=CARTESIAN_POINT('',(0.0526100000000119,0.0874250000000068,0.));
#1792=CARTESIAN_POINT('',(0.0564328756555439,0.0862478756555384,0.));
#1793=CARTESIAN_POINT('',(0.0576100000000143,0.0824250000000069,0.));
#1794=CARTESIAN_POINT('',(0.0576100000000143,0.0742950000000028,0.));
#1795=CARTESIAN_POINT('',(0.0576100000000143,0.0661649999999986,0.));
#1796=CARTESIAN_POINT('',(0.056432875655544,0.0623421243444671,0.));
#1797=CARTESIAN_POINT('',(0.0526100000000119,0.0611649999999986,0.));
#1798=CARTESIAN_POINT('',(0.0450000000000119,0.0611649999999986,0.));
#1799=CARTESIAN_POINT('',(0.0373900000000118,0.0611649999999986,0.));
#1800=CARTESIAN_POINT('',(0.0335671243444795,0.0623421243444663,0.));
#1801=CARTESIAN_POINT('',(0.0323900000000118,0.0661649999999986,0.));
#1802=CARTESIAN_POINT('',(0.0323900000000118,0.0742950000000027,0.));
#1803=CARTESIAN_POINT('',(0.,0.048,-0.003));
#1804=CARTESIAN_POINT('',(-6.93889390390723E-18,0.096,-0.003));
#1805=CARTESIAN_POINT('',(0.,0.,-0.003));
#1806=CARTESIAN_POINT('',(0.045000000000002,0.,-0.003));
#1807=CARTESIAN_POINT('',(0.090000000000004,6.93889390390723E-18,-0.003));
#1808=CARTESIAN_POINT('',(0.090000000000004,0.048,-0.003));
#1809=CARTESIAN_POINT('',(0.090000000000004,0.096,-0.003));
#1810=CARTESIAN_POINT('',(0.045000000000002,0.096,-0.003));
#1811=CARTESIAN_POINT('',(0.0199999999999998,0.03,1.99999999999983E-6));
#1812=CARTESIAN_POINT('',(0.07,0.03,1.99999999999983E-6));
#1813=CARTESIAN_POINT('',(0.07,0.03,-0.006));
#1814=CARTESIAN_POINT('',(0.0664500000000006,0.03,-0.006));
#1815=CARTESIAN_POINT('',(0.0272,0.03,-0.001));
#1816=CARTESIAN_POINT('',(0.0272,0.03131,-0.001));
#1817=CARTESIAN_POINT('',(0.0272,0.03131,-0.001));
#1818=CARTESIAN_POINT('',(0.0272,0.03,-0.001));
#1819=CARTESIAN_POINT('',(0.0272,0.02869,-0.001));
#1820=CARTESIAN_POINT('',(0.0272,0.02869,-0.001));
#1821=CARTESIAN_POINT('',(0.0277992231424394,0.03131,-0.001));
#1822=CARTESIAN_POINT('',(0.028398446284879,0.03131,-0.001));
#1823=CARTESIAN_POINT('',(0.028398446284879,0.03131,-0.001));
#1824=CARTESIAN_POINT('',(0.0277992231424394,0.03131,-0.001));
#1825=CARTESIAN_POINT('',(0.0199999999999997,0.03,-0.001));
#1826=CARTESIAN_POINT('',(0.0283984462848789,0.02869,-0.001));
#1827=CARTESIAN_POINT('',(0.0283984462848789,0.02869,-0.001));
#1828=CARTESIAN_POINT('',(0.0199999999999997,0.03,-0.001));
#1829=CARTESIAN_POINT('',(0.0277992231424394,0.02869,-0.001));
#1830=CARTESIAN_POINT('',(0.0277992231424394,0.02869,-0.001));
#1831=CARTESIAN_POINT('',(0.02785,0.03,-0.001));
#1832=CARTESIAN_POINT('',(0.07,0.035,-0.006));
#1833=CARTESIAN_POINT('',(0.075,0.035,-0.006));
#1834=CARTESIAN_POINT('',(0.075,0.035,-0.006));
#1835=CARTESIAN_POINT('',(0.07,0.035,-0.006));
#1836=CARTESIAN_POINT('',(0.065,0.035,-0.006));
#1837=CARTESIAN_POINT('',(0.065,0.035,-0.006));
#1838=CARTESIAN_POINT('',(0.075,0.03,-0.006));
#1839=CARTESIAN_POINT('',(0.075,0.025,-0.006));
#1840=CARTESIAN_POINT('',(0.075,0.025,-0.006));
#1841=CARTESIAN_POINT('',(0.075,0.03,-0.006));
#1842=CARTESIAN_POINT('',(0.07,0.025,-0.006));
#1843=CARTESIAN_POINT('',(0.065,0.025,-0.006));
#1844=CARTESIAN_POINT('',(0.065,0.025,-0.006));
#1845=CARTESIAN_POINT('',(0.07,0.025,-0.006));
#1846=CARTESIAN_POINT('',(0.065,0.03,-0.006));
#1847=CARTESIAN_POINT('',(0.065,0.03,-0.006));
#1848=CARTESIAN_POINT('',(0.07,0.03,-0.006));
#1849=CARTESIAN_POINT('',(0.0796948000000043,0.0211498188854495,-0.0122));
#1850=CARTESIAN_POINT('',(0.0766948000000043,0.0211498188854495,-0.0122));
#1851=CARTESIAN_POINT('',(0.0766948000000043,0.0211498188854495,-0.0122));
#1852=CARTESIAN_POINT('',(0.0796948000000043,0.0211498188854495,-0.0122));
#1853=CARTESIAN_POINT('',(0.0826948000000043,0.0211498188854495,-0.0122));
#1854=CARTESIAN_POINT('',(0.0826948000000043,0.0211498188854495,-0.0122));
#1855=CARTESIAN_POINT('',(0.0766948000000043,0.0321498188854495,-0.0122));
#1856=CARTESIAN_POINT('',(0.0766948000000043,0.0431498188854495,-0.0122));
#1857=CARTESIAN_POINT('',(0.0766948000000043,0.0431498188854495,-0.0122));
#1858=CARTESIAN_POINT('',(0.0766948000000043,0.0321498188854495,-0.0122));
#1859=CARTESIAN_POINT('',(0.0796948000000043,0.0431498188854495,-0.0122));
#1860=CARTESIAN_POINT('',(0.0826948000000043,0.0431498188854495,-0.0122));
#1861=CARTESIAN_POINT('',(0.0826948000000043,0.0431498188854495,-0.0122));
#1862=CARTESIAN_POINT('',(0.0796948000000043,0.0431498188854495,-0.0122));
#1863=CARTESIAN_POINT('',(0.0791948000000043,0.0251498188854495,-0.0122));
#1864=CARTESIAN_POINT('',(0.0791948000000043,0.0251498188854495,-0.0122));
#1865=CARTESIAN_POINT('',(0.0780948000000043,0.0251498188854495,-0.0122));
#1866=CARTESIAN_POINT('',(0.0791948000000043,0.0251498188854495,-0.003));
#1867=CARTESIAN_POINT('',(0.0780948000000043,0.0251498188854495,-0.003));
#1868=CARTESIAN_POINT('',(0.0791948000000043,0.0390690188854495,-0.0122));
#1869=CARTESIAN_POINT('',(0.0791948000000043,0.0390690188854495,-0.0122));
#1870=CARTESIAN_POINT('',(0.0780948000000043,0.0390690188854495,-0.0122));
#1871=CARTESIAN_POINT('',(0.0791948000000043,0.0390690188854495,-0.003));
#1872=CARTESIAN_POINT('',(0.0780948000000043,0.0390690188854495,-0.003));
#1873=CARTESIAN_POINT('',(0.0826948000000043,0.0321498188854495,-0.0122));
#1874=CARTESIAN_POINT('',(0.0826948000000043,0.0321498188854495,-0.0122));
#1875=CARTESIAN_POINT('',(0.0796948000000043,0.0321498188854495,-0.0122));
#1876=CARTESIAN_POINT('',(0.045000000000002,0.048,-0.003));
#1877=CARTESIAN_POINT('',(0.045000000000002,0.048,-0.003));
#1878=CARTESIAN_POINT('',(0.055310000000014,0.0851250000000067,-0.003002));
#1879=CARTESIAN_POINT('',(0.055310000000014,0.0634650000000058,-0.003002));
#1880=CARTESIAN_POINT('',(0.0564328756555439,0.0862478756555384,-0.003002));
#1881=CARTESIAN_POINT('',(0.0576100000000143,0.0824250000000069,-0.003002));
#1882=CARTESIAN_POINT('',(0.0526100000000119,0.0874250000000068,-0.003002));
#1883=CARTESIAN_POINT('',(0.0576100000000143,0.0742950000000028,-0.003002));
#1884=CARTESIAN_POINT('',(0.0576100000000143,0.0661649999999986,-0.003002));
#1885=CARTESIAN_POINT('',(0.056432875655544,0.0623421243444671,-0.003002));
#1886=CARTESIAN_POINT('',(0.0526100000000119,0.0611649999999986,-0.003002));
#1887=CARTESIAN_POINT('',(0.0450000000000119,0.0611649999999986,-0.003002));
#1888=CARTESIAN_POINT('',(0.0373900000000118,0.0611649999999986,-0.003002));
#1889=CARTESIAN_POINT('',(0.0335671243444795,0.0623421243444663,-0.003002));
#1890=CARTESIAN_POINT('',(0.0323900000000118,0.0661649999999986,-0.003002));
#1891=CARTESIAN_POINT('',(0.0323900000000118,0.0742950000000027,-0.003002));
#1892=CARTESIAN_POINT('',(0.0323900000000118,0.0824250000000068,-0.003002));
#1893=CARTESIAN_POINT('',(0.0335671243444795,0.0862478756555391,-0.003002));
#1894=CARTESIAN_POINT('',(0.0373900000000118,0.0874250000000068,-0.003002));
#1895=CARTESIAN_POINT('',(0.0450000000000119,0.0874250000000068,-0.003002));
#1896=CARTESIAN_POINT('',(0.0346900000000121,0.0634650000000058,-0.003002));
#1897=CARTESIAN_POINT('',(0.034690000000012,0.0851250000000067,-0.003002));
#1898=CARTESIAN_POINT('',(0.0450000000000007,0.0509999999999993,-0.036));
#1899=CARTESIAN_POINT('',(0.0450000000000007,0.0209999999999993,-0.036));
#1900=CARTESIAN_POINT('',(0.0434000000000007,0.0209999999999993,-0.036));
#1901=CARTESIAN_POINT('',(0.0450000000000007,0.0209999999999993,-0.036));
#1902=CARTESIAN_POINT('',(0.0420000000000007,0.0209999999999993,-0.036));
#1903=CARTESIAN_POINT('',(0.0450000000000007,0.0209999999999993,-0.04));
#1904=CARTESIAN_POINT('',(0.0450000000000007,0.0209999999999993,-0.04));
#1905=CARTESIAN_POINT('',(0.0434000000000007,0.0209999999999993,-0.04));
#1906=CARTESIAN_POINT('',(0.0450000000000007,0.0509999999999993,-0.04));
#1907=CARTESIAN_POINT('',(0.0450000000000007,0.0509999999999993,-0.036));
#1908=CARTESIAN_POINT('',(0.0150000000000007,0.081,-0.036));
#1909=CARTESIAN_POINT('',(0.0134000000000007,0.081,-0.036));
#1910=CARTESIAN_POINT('',(0.0150000000000007,0.081,-0.036));
#1911=CARTESIAN_POINT('',(0.0120000000000007,0.081,-0.036));
#1912=CARTESIAN_POINT('',(0.0150000000000007,0.081,-0.04));
#1913=CARTESIAN_POINT('',(0.0150000000000007,0.081,-0.04));
#1914=CARTESIAN_POINT('',(0.0134000000000007,0.081,-0.04));
#1915=CARTESIAN_POINT('',(0.0450000000000007,0.0509999999999993,-0.04));
#1916=CARTESIAN_POINT('',(0.0450000000000007,0.0509999999999993,-0.036));
#1917=CARTESIAN_POINT('',(0.075,0.081,-0.036));
#1918=CARTESIAN_POINT('',(0.0734,0.081,-0.036));
#1919=CARTESIAN_POINT('',(0.075,0.081,-0.036));
#1920=CARTESIAN_POINT('',(0.072,0.081,-0.036));
#1921=CARTESIAN_POINT('',(0.075,0.081,-0.04));
#1922=CARTESIAN_POINT('',(0.075,0.081,-0.04));
#1923=CARTESIAN_POINT('',(0.0734,0.081,-0.04));
#1924=CARTESIAN_POINT('',(0.0450000000000007,0.0509999999999993,-0.04));
#1925=CARTESIAN_POINT('',(0.0450000000000007,0.0209999999999993,-0.036));
#1926=CARTESIAN_POINT('',(0.0150000000000007,0.081,-0.036));
#1927=CARTESIAN_POINT('',(0.075,0.081,-0.036));
#1928=CARTESIAN_POINT('',(0.0450000000000007,0.0469999999999993,-0.006));
#1929=CARTESIAN_POINT('',(0.0286583592135008,0.0503291796067494,-0.006));
#1930=CARTESIAN_POINT('',(0.0254547877483905,0.0634445264694692,-0.006));
#1931=CARTESIAN_POINT('',(0.0319698584989273,0.0504143849683958,-0.006));
#1932=CARTESIAN_POINT('',(0.0450000000000007,0.0504143849683958,-0.006));
#1933=CARTESIAN_POINT('',(0.0580301415010741,0.0504143849683958,-0.006));
#1934=CARTESIAN_POINT('',(0.0645452122516108,0.0634445264694692,-0.006));
#1935=CARTESIAN_POINT('',(0.0613416407865005,0.0503291796067494,-0.006));
#1936=CARTESIAN_POINT('',(0.0286583592135008,0.0503291796067494,-0.006));
#1937=CARTESIAN_POINT('',(0.0410602830021475,0.025525332029456,-0.006));
#1938=CARTESIAN_POINT('',(0.0406009851396505,0.0264439277544498,-0.00500559095793445));
#1939=CARTESIAN_POINT('',(0.0401449651994957,0.0273559676347595,-0.00400369431763297));
#1940=CARTESIAN_POINT('',(0.0396897322469039,0.0282664335399431,-0.003));
#1941=CARTESIAN_POINT('',(0.0176269861800977,0.0723919256735556,-0.003));
#1942=CARTESIAN_POINT('',(0.0171717532275059,0.0733023915787392,-0.00400369431763297));
#1943=CARTESIAN_POINT('',(0.016715733287351,0.0742144314590489,-0.00500559095793445));
#1944=CARTESIAN_POINT('',(0.0162564354248541,0.0751330271840427,-0.006));
#1945=CARTESIAN_POINT('',(0.0254547877483905,0.0634445264694692,-0.006));
#1946=CARTESIAN_POINT('',(0.0189397169978539,0.0764746679705426,-0.006));
#1947=CARTESIAN_POINT('',(0.0193990148603508,0.0755560722455488,-0.00500559095793444));
#1948=CARTESIAN_POINT('',(0.0198550348005056,0.0746440323652391,-0.00400369431763297));
#1949=CARTESIAN_POINT('',(0.0203102677530974,0.0737335664600555,-0.003));
#1950=CARTESIAN_POINT('',(0.0319698584989273,0.0504143849683958,-0.006));
#1951=CARTESIAN_POINT('',(0.0450000000000007,0.0504143849683958,-0.006));
#1952=CARTESIAN_POINT('',(0.0580301415010741,0.0504143849683958,-0.006));
#1953=CARTESIAN_POINT('',(0.0645452122516108,0.0634445264694692,-0.006));
#1954=CARTESIAN_POINT('',(0.0696897322469039,0.0737335664600554,-0.003));
#1955=CARTESIAN_POINT('',(0.0701449651994957,0.074644032365239,-0.00400369431763299));
#1956=CARTESIAN_POINT('',(0.0706009851396506,0.0755560722455488,-0.00500559095793441));
#1957=CARTESIAN_POINT('',(0.0710602830021475,0.0764746679705426,-0.006));
#1958=CARTESIAN_POINT('',(0.0613416407865005,0.0503291796067494,-0.006));
#1959=CARTESIAN_POINT('',(0.0503102677530974,0.0282664335399431,-0.003));
#1960=CARTESIAN_POINT('',(0.0498550348005056,0.0273559676347595,-0.00400369431763298));
#1961=CARTESIAN_POINT('',(0.0493990148603507,0.0264439277544498,-0.00500559095793444));
#1962=CARTESIAN_POINT('',(0.0489397169978538,0.025525332029456,-0.006));
#1963=CARTESIAN_POINT('',(0.0737435645751472,0.0751330271840427,-0.006));
#1964=CARTESIAN_POINT('',(0.0732842667126503,0.0742144314590489,-0.00500559095793447));
#1965=CARTESIAN_POINT('',(0.0728282467724954,0.0733023915787392,-0.00400369431763296));
#1966=CARTESIAN_POINT('',(0.0723730138199036,0.0723919256735556,-0.003));
#1967=CARTESIAN_POINT('',(0.0150000000000006,0.0144999999999993,-0.006));
#1968=CARTESIAN_POINT('',(0.0150000000000006,0.0159999999999993,-0.006));
#1969=CARTESIAN_POINT('',(0.0150000000000006,0.0159999999999993,-0.006));
#1970=CARTESIAN_POINT('',(0.0150000000000006,0.0144999999999993,-0.006));
#1971=CARTESIAN_POINT('',(0.0150000000000006,0.0129999999999993,-0.006));
#1972=CARTESIAN_POINT('',(0.0150000000000006,0.0129999999999993,-0.006));
#1973=CARTESIAN_POINT('',(0.0283416876048229,0.0159999999999993,-0.006));
#1974=CARTESIAN_POINT('',(0.0375166852264527,0.0159999999999993,-0.003));
#1975=CARTESIAN_POINT('',(0.0388358464086688,0.0159999999999993,-0.00409685537372983));
#1976=CARTESIAN_POINT('',(0.0401748604941879,0.0159999999999993,-0.00516613711634969));
#1977=CARTESIAN_POINT('',(0.0416833752096452,0.0159999999999993,-0.006));
#1978=CARTESIAN_POINT('',(0.0283416876048229,0.0159999999999993,-0.006));
#1979=CARTESIAN_POINT('',(0.0616583123951784,0.0159999999999993,-0.006));
#1980=CARTESIAN_POINT('',(0.0616583123951784,0.0159999999999993,-0.006));
#1981=CARTESIAN_POINT('',(0.075,0.0159999999999993,-0.006));
#1982=CARTESIAN_POINT('',(0.0483166247903561,0.0159999999999993,-0.006));
#1983=CARTESIAN_POINT('',(0.0498251395058134,0.0159999999999993,-0.00516613711634971));
#1984=CARTESIAN_POINT('',(0.0511641535913325,0.0159999999999993,-0.00409685537372981));
#1985=CARTESIAN_POINT('',(0.0524833147735485,0.0159999999999993,-0.003));
#1986=CARTESIAN_POINT('',(0.075,0.0159999999999993,-0.006));
#1987=CARTESIAN_POINT('',(0.075,0.0144999999999993,-0.006));
#1988=CARTESIAN_POINT('',(0.075,0.0129999999999993,-0.006));
#1989=CARTESIAN_POINT('',(0.075,0.0129999999999993,-0.006));
#1990=CARTESIAN_POINT('',(0.075,0.0144999999999993,-0.006));
#1991=CARTESIAN_POINT('',(0.0450000000000007,0.0129999999999993,-0.006));
#1992=CARTESIAN_POINT('',(0.0450000000000007,0.0129999999999993,-0.006));
#1993=CARTESIAN_POINT('',(0.0450000000000007,0.0469999999999993,-0.006));
#1994=CARTESIAN_POINT('',(0.0450000000000007,0.0209999999999993,-0.006));
#1995=CARTESIAN_POINT('',(0.0450000000000007,0.0209999999999993,-0.006));
#1996=CARTESIAN_POINT('',(0.075,0.081,-0.006));
#1997=CARTESIAN_POINT('',(0.0150000000000007,0.081,-0.006));
#1998=MECHANICAL_DESIGN_GEOMETRIC_PRESENTATION_REPRESENTATION('',(#1176),
#1999);
#1999=(
GEOMETRIC_REPRESENTATION_CONTEXT(3)
GLOBAL_UNCERTAINTY_ASSIGNED_CONTEXT((#2000))
GLOBAL_UNIT_ASSIGNED_CONTEXT((#2003,#2002,#2001))
REPRESENTATION_CONTEXT('Part 1','TOP_LEVEL_ASSEMBLY_PART')
);
#2000=UNCERTAINTY_MEASURE_WITH_UNIT(LENGTH_MEASURE(2.E-5),#2003,
'DISTANCE_ACCURACY_VALUE','Maximum Tolerance applied to model');
#2001=(
NAMED_UNIT(*)
SI_UNIT($,.STERADIAN.)
SOLID_ANGLE_UNIT()
);
#2002=(
NAMED_UNIT(*)
PLANE_ANGLE_UNIT()
SI_UNIT($,.RADIAN.)
);
#2003=(
LENGTH_UNIT()
NAMED_UNIT(*)
SI_UNIT($,.METRE.)
);
#2004=PRODUCT_DEFINITION_SHAPE('','',#2005);
#2005=PRODUCT_DEFINITION('','',#2007,#2006);
#2006=PRODUCT_DEFINITION_CONTEXT('',#2013,'design');
#2007=PRODUCT_DEFINITION_FORMATION_WITH_SPECIFIED_SOURCE('','',#2009,
 .NOT_KNOWN.);
#2008=PRODUCT_RELATED_PRODUCT_CATEGORY('','',(#2009));
#2009=PRODUCT('Part 1','Part 1','Part 1',(#2011));
#2010=PRODUCT_CATEGORY('','');
#2011=PRODUCT_CONTEXT('',#2013,'mechanical');
#2012=APPLICATION_PROTOCOL_DEFINITION('international standard',
'ap242_managed_model_based_3d_engineering',2020,#2013);
#2013=APPLICATION_CONTEXT('managed model based 3d engineering');
ENDSEC;
END-ISO-10303-21;
