ISO-10303-21;
HEADER;
/* Generated by software containing ST-Developer
 * from STEP Tools, Inc. (www.steptools.com) 
 */
/* OPTION: using custom renumber hook */

FILE_DESCRIPTION(
/* description */ ('STEP AP242 Edition 2',
'CAx-IF Rec.Pracs.---Representation and Presentation of Product Manufa
cturing Information (PMI)---4.0---2014-10-13',
'CAx-IF Rec.Pracs.---3D Tessellated Geometry---0.4---2014-09-14','2;1',
'CAx-IF Rec.Pracs.---User Defined Attributes---1.5---2016-08-15'),
/* implementation_level */ '2;1');

FILE_NAME(
/* name */ 'drzak_9g',
/* time_stamp */ '2026-09-10T17:46:30Z',
/* author */ (''),
/* organization */ (''),
/* preprocessor_version */ 'ST-DEVELOPER v20',
/* originating_system */ 'ONSHAPE BY PTC INC, 1.220',
/* authorisation */ '  ');

FILE_SCHEMA (('AP242_MANAGED_MODEL_BASED_3D_ENGINEERING_MIM_LF { 1 0 10303 442 3 1 4 }'));
ENDSEC;

DATA;
#10=SHAPE_REPRESENTATION_RELATIONSHIP('','',#443,#11);
#11=ADVANCED_BREP_SHAPE_REPRESENTATION('',(#441),#721);
#12=CIRCLE('',#453,0.001);
#13=CIRCLE('',#454,0.001);
#14=CIRCLE('',#459,0.004);
#15=CIRCLE('',#460,0.004);
#16=CIRCLE('',#461,0.004);
#17=CIRCLE('',#462,0.0016);
#18=CIRCLE('',#463,0.0016);
#19=CIRCLE('',#464,0.0016);
#20=CIRCLE('',#467,0.004);
#21=CIRCLE('',#470,0.004);
#22=CIRCLE('',#473,0.004);
#23=CIRCLE('',#476,0.0016);
#24=CIRCLE('',#478,0.0016);
#25=CIRCLE('',#480,0.0016);
#26=CYLINDRICAL_SURFACE('',#452,0.001);
#27=CYLINDRICAL_SURFACE('',#466,0.004);
#28=CYLINDRICAL_SURFACE('',#469,0.004);
#29=CYLINDRICAL_SURFACE('',#472,0.004);
#30=CYLINDRICAL_SURFACE('',#475,0.0016);
#31=CYLINDRICAL_SURFACE('',#477,0.0016);
#32=CYLINDRICAL_SURFACE('',#479,0.0016);
#33=ORIENTED_EDGE('',*,*,#145,.T.);
#34=ORIENTED_EDGE('',*,*,#146,.T.);
#35=ORIENTED_EDGE('',*,*,#147,.T.);
#36=ORIENTED_EDGE('',*,*,#148,.T.);
#37=ORIENTED_EDGE('',*,*,#149,.F.);
#38=ORIENTED_EDGE('',*,*,#150,.F.);
#39=ORIENTED_EDGE('',*,*,#151,.F.);
#40=ORIENTED_EDGE('',*,*,#152,.T.);
#41=ORIENTED_EDGE('',*,*,#150,.T.);
#42=ORIENTED_EDGE('',*,*,#153,.F.);
#43=ORIENTED_EDGE('',*,*,#154,.F.);
#44=ORIENTED_EDGE('',*,*,#155,.F.);
#45=ORIENTED_EDGE('',*,*,#151,.T.);
#46=ORIENTED_EDGE('',*,*,#156,.F.);
#47=ORIENTED_EDGE('',*,*,#157,.F.);
#48=ORIENTED_EDGE('',*,*,#158,.F.);
#49=ORIENTED_EDGE('',*,*,#159,.T.);
#50=ORIENTED_EDGE('',*,*,#160,.T.);
#51=ORIENTED_EDGE('',*,*,#161,.T.);
#52=ORIENTED_EDGE('',*,*,#162,.F.);
#53=ORIENTED_EDGE('',*,*,#163,.T.);
#54=ORIENTED_EDGE('',*,*,#158,.T.);
#55=ORIENTED_EDGE('',*,*,#164,.F.);
#56=ORIENTED_EDGE('',*,*,#148,.F.);
#57=ORIENTED_EDGE('',*,*,#165,.T.);
#58=ORIENTED_EDGE('',*,*,#162,.T.);
#59=ORIENTED_EDGE('',*,*,#166,.F.);
#60=ORIENTED_EDGE('',*,*,#167,.T.);
#61=ORIENTED_EDGE('',*,*,#154,.T.);
#62=ORIENTED_EDGE('',*,*,#168,.F.);
#63=ORIENTED_EDGE('',*,*,#169,.F.);
#64=ORIENTED_EDGE('',*,*,#170,.T.);
#65=ORIENTED_EDGE('',*,*,#171,.T.);
#66=ORIENTED_EDGE('',*,*,#172,.F.);
#67=ORIENTED_EDGE('',*,*,#173,.F.);
#68=ORIENTED_EDGE('',*,*,#160,.F.);
#69=ORIENTED_EDGE('',*,*,#174,.T.);
#70=ORIENTED_EDGE('',*,*,#169,.T.);
#71=ORIENTED_EDGE('',*,*,#172,.T.);
#72=ORIENTED_EDGE('',*,*,#157,.T.);
#73=ORIENTED_EDGE('',*,*,#173,.T.);
#74=ORIENTED_EDGE('',*,*,#168,.T.);
#75=ORIENTED_EDGE('',*,*,#156,.T.);
#76=ORIENTED_EDGE('',*,*,#153,.T.);
#77=ORIENTED_EDGE('',*,*,#149,.T.);
#78=ORIENTED_EDGE('',*,*,#164,.T.);
#79=ORIENTED_EDGE('',*,*,#161,.F.);
#80=ORIENTED_EDGE('',*,*,#171,.F.);
#81=ORIENTED_EDGE('',*,*,#147,.F.);
#82=ORIENTED_EDGE('',*,*,#175,.F.);
#83=ORIENTED_EDGE('',*,*,#176,.T.);
#84=ORIENTED_EDGE('',*,*,#177,.F.);
#85=ORIENTED_EDGE('',*,*,#178,.T.);
#86=ORIENTED_EDGE('',*,*,#179,.F.);
#87=ORIENTED_EDGE('',*,*,#180,.T.);
#88=ORIENTED_EDGE('',*,*,#181,.T.);
#89=ORIENTED_EDGE('',*,*,#170,.F.);
#90=ORIENTED_EDGE('',*,*,#174,.F.);
#91=ORIENTED_EDGE('',*,*,#159,.F.);
#92=ORIENTED_EDGE('',*,*,#163,.F.);
#93=ORIENTED_EDGE('',*,*,#165,.F.);
#94=ORIENTED_EDGE('',*,*,#182,.F.);
#95=ORIENTED_EDGE('',*,*,#183,.F.);
#96=ORIENTED_EDGE('',*,*,#184,.F.);
#97=ORIENTED_EDGE('',*,*,#175,.T.);
#98=ORIENTED_EDGE('',*,*,#146,.F.);
#99=ORIENTED_EDGE('',*,*,#185,.F.);
#100=ORIENTED_EDGE('',*,*,#186,.T.);
#101=ORIENTED_EDGE('',*,*,#176,.F.);
#102=ORIENTED_EDGE('',*,*,#186,.F.);
#103=ORIENTED_EDGE('',*,*,#187,.T.);
#104=ORIENTED_EDGE('',*,*,#188,.T.);
#105=ORIENTED_EDGE('',*,*,#177,.T.);
#106=ORIENTED_EDGE('',*,*,#188,.F.);
#107=ORIENTED_EDGE('',*,*,#189,.F.);
#108=ORIENTED_EDGE('',*,*,#190,.T.);
#109=ORIENTED_EDGE('',*,*,#178,.F.);
#110=ORIENTED_EDGE('',*,*,#190,.F.);
#111=ORIENTED_EDGE('',*,*,#191,.T.);
#112=ORIENTED_EDGE('',*,*,#192,.T.);
#113=ORIENTED_EDGE('',*,*,#179,.T.);
#114=ORIENTED_EDGE('',*,*,#192,.F.);
#115=ORIENTED_EDGE('',*,*,#193,.F.);
#116=ORIENTED_EDGE('',*,*,#194,.T.);
#117=ORIENTED_EDGE('',*,*,#180,.F.);
#118=ORIENTED_EDGE('',*,*,#194,.F.);
#119=ORIENTED_EDGE('',*,*,#195,.T.);
#120=ORIENTED_EDGE('',*,*,#196,.T.);
#121=ORIENTED_EDGE('',*,*,#181,.F.);
#122=ORIENTED_EDGE('',*,*,#196,.F.);
#123=ORIENTED_EDGE('',*,*,#197,.T.);
#124=ORIENTED_EDGE('',*,*,#166,.T.);
#125=ORIENTED_EDGE('',*,*,#198,.F.);
#126=ORIENTED_EDGE('',*,*,#183,.T.);
#127=ORIENTED_EDGE('',*,*,#199,.F.);
#128=ORIENTED_EDGE('',*,*,#182,.T.);
#129=ORIENTED_EDGE('',*,*,#200,.F.);
#130=ORIENTED_EDGE('',*,*,#184,.T.);
#131=ORIENTED_EDGE('',*,*,#185,.T.);
#132=ORIENTED_EDGE('',*,*,#145,.F.);
#133=ORIENTED_EDGE('',*,*,#152,.F.);
#134=ORIENTED_EDGE('',*,*,#155,.T.);
#135=ORIENTED_EDGE('',*,*,#167,.F.);
#136=ORIENTED_EDGE('',*,*,#197,.F.);
#137=ORIENTED_EDGE('',*,*,#195,.F.);
#138=ORIENTED_EDGE('',*,*,#193,.T.);
#139=ORIENTED_EDGE('',*,*,#191,.F.);
#140=ORIENTED_EDGE('',*,*,#189,.T.);
#141=ORIENTED_EDGE('',*,*,#187,.F.);
#142=ORIENTED_EDGE('',*,*,#199,.T.);
#143=ORIENTED_EDGE('',*,*,#198,.T.);
#144=ORIENTED_EDGE('',*,*,#200,.T.);
#145=EDGE_CURVE('',#201,#202,#241,.T.);
#146=EDGE_CURVE('',#202,#203,#242,.T.);
#147=EDGE_CURVE('',#203,#204,#243,.T.);
#148=EDGE_CURVE('',#204,#205,#244,.T.);
#149=EDGE_CURVE('',#206,#205,#245,.T.);
#150=EDGE_CURVE('',#201,#206,#246,.T.);
#151=EDGE_CURVE('',#207,#208,#247,.T.);
#152=EDGE_CURVE('',#207,#201,#248,.T.);
#153=EDGE_CURVE('',#208,#206,#249,.T.);
#154=EDGE_CURVE('',#209,#210,#250,.T.);
#155=EDGE_CURVE('',#207,#209,#251,.T.);
#156=EDGE_CURVE('',#210,#208,#252,.T.);
#157=EDGE_CURVE('',#211,#212,#253,.T.);
#158=EDGE_CURVE('',#213,#211,#254,.T.);
#159=EDGE_CURVE('',#213,#214,#255,.T.);
#160=EDGE_CURVE('',#214,#212,#256,.T.);
#161=EDGE_CURVE('',#211,#215,#257,.T.);
#162=EDGE_CURVE('',#216,#215,#258,.T.);
#163=EDGE_CURVE('',#216,#213,#259,.T.);
#164=EDGE_CURVE('',#205,#215,#260,.T.);
#165=EDGE_CURVE('',#204,#216,#261,.T.);
#166=EDGE_CURVE('',#217,#218,#262,.T.);
#167=EDGE_CURVE('',#217,#209,#263,.T.);
#168=EDGE_CURVE('',#219,#210,#264,.T.);
#169=EDGE_CURVE('',#220,#219,#265,.T.);
#170=EDGE_CURVE('',#220,#218,#266,.T.);
#171=EDGE_CURVE('',#221,#221,#12,.T.);
#172=EDGE_CURVE('',#222,#222,#13,.T.);
#173=EDGE_CURVE('',#212,#219,#267,.T.);
#174=EDGE_CURVE('',#214,#220,#268,.T.);
#175=EDGE_CURVE('',#223,#203,#269,.T.);
#176=EDGE_CURVE('',#223,#224,#14,.T.);
#177=EDGE_CURVE('',#225,#224,#270,.T.);
#178=EDGE_CURVE('',#225,#226,#15,.T.);
#179=EDGE_CURVE('',#227,#226,#271,.T.);
#180=EDGE_CURVE('',#227,#228,#16,.T.);
#181=EDGE_CURVE('',#228,#218,#272,.T.);
#182=EDGE_CURVE('',#229,#229,#17,.T.);
#183=EDGE_CURVE('',#230,#230,#18,.T.);
#184=EDGE_CURVE('',#231,#231,#19,.T.);
#185=EDGE_CURVE('',#232,#202,#273,.T.);
#186=EDGE_CURVE('',#232,#223,#274,.T.);
#187=EDGE_CURVE('',#232,#233,#20,.T.);
#188=EDGE_CURVE('',#233,#224,#275,.T.);
#189=EDGE_CURVE('',#234,#233,#276,.T.);
#190=EDGE_CURVE('',#234,#225,#277,.T.);
#191=EDGE_CURVE('',#234,#235,#21,.T.);
#192=EDGE_CURVE('',#235,#226,#278,.T.);
#193=EDGE_CURVE('',#236,#235,#279,.T.);
#194=EDGE_CURVE('',#236,#227,#280,.T.);
#195=EDGE_CURVE('',#236,#237,#22,.T.);
#196=EDGE_CURVE('',#237,#228,#281,.T.);
#197=EDGE_CURVE('',#237,#217,#282,.T.);
#198=EDGE_CURVE('',#238,#238,#23,.T.);
#199=EDGE_CURVE('',#239,#239,#24,.T.);
#200=EDGE_CURVE('',#240,#240,#25,.T.);
#201=VERTEX_POINT('',#603);
#202=VERTEX_POINT('',#604);
#203=VERTEX_POINT('',#606);
#204=VERTEX_POINT('',#608);
#205=VERTEX_POINT('',#610);
#206=VERTEX_POINT('',#612);
#207=VERTEX_POINT('',#616);
#208=VERTEX_POINT('',#617);
#209=VERTEX_POINT('',#622);
#210=VERTEX_POINT('',#623);
#211=VERTEX_POINT('',#628);
#212=VERTEX_POINT('',#629);
#213=VERTEX_POINT('',#631);
#214=VERTEX_POINT('',#633);
#215=VERTEX_POINT('',#637);
#216=VERTEX_POINT('',#639);
#217=VERTEX_POINT('',#646);
#218=VERTEX_POINT('',#647);
#219=VERTEX_POINT('',#650);
#220=VERTEX_POINT('',#652);
#221=VERTEX_POINT('',#656);
#222=VERTEX_POINT('',#658);
#223=VERTEX_POINT('',#666);
#224=VERTEX_POINT('',#668);
#225=VERTEX_POINT('',#670);
#226=VERTEX_POINT('',#672);
#227=VERTEX_POINT('',#674);
#228=VERTEX_POINT('',#676);
#229=VERTEX_POINT('',#679);
#230=VERTEX_POINT('',#681);
#231=VERTEX_POINT('',#683);
#232=VERTEX_POINT('',#686);
#233=VERTEX_POINT('',#690);
#234=VERTEX_POINT('',#694);
#235=VERTEX_POINT('',#698);
#236=VERTEX_POINT('',#702);
#237=VERTEX_POINT('',#706);
#238=VERTEX_POINT('',#712);
#239=VERTEX_POINT('',#715);
#240=VERTEX_POINT('',#718);
#241=LINE('',#602,#283);
#242=LINE('',#605,#284);
#243=LINE('',#607,#285);
#244=LINE('',#609,#286);
#245=LINE('',#611,#287);
#246=LINE('',#613,#288);
#247=LINE('',#615,#289);
#248=LINE('',#618,#290);
#249=LINE('',#619,#291);
#250=LINE('',#621,#292);
#251=LINE('',#624,#293);
#252=LINE('',#625,#294);
#253=LINE('',#627,#295);
#254=LINE('',#630,#296);
#255=LINE('',#632,#297);
#256=LINE('',#634,#298);
#257=LINE('',#636,#299);
#258=LINE('',#638,#300);
#259=LINE('',#640,#301);
#260=LINE('',#642,#302);
#261=LINE('',#643,#303);
#262=LINE('',#645,#304);
#263=LINE('',#648,#305);
#264=LINE('',#649,#306);
#265=LINE('',#651,#307);
#266=LINE('',#653,#308);
#267=LINE('',#660,#309);
#268=LINE('',#661,#310);
#269=LINE('',#665,#311);
#270=LINE('',#669,#312);
#271=LINE('',#673,#313);
#272=LINE('',#677,#314);
#273=LINE('',#685,#315);
#274=LINE('',#687,#316);
#275=LINE('',#691,#317);
#276=LINE('',#693,#318);
#277=LINE('',#695,#319);
#278=LINE('',#699,#320);
#279=LINE('',#701,#321);
#280=LINE('',#703,#322);
#281=LINE('',#707,#323);
#282=LINE('',#709,#324);
#283=VECTOR('',#486,1.);
#284=VECTOR('',#487,1.);
#285=VECTOR('',#488,1.);
#286=VECTOR('',#489,1.);
#287=VECTOR('',#490,1.);
#288=VECTOR('',#491,1.);
#289=VECTOR('',#494,1.);
#290=VECTOR('',#495,1.);
#291=VECTOR('',#496,1.);
#292=VECTOR('',#499,1.);
#293=VECTOR('',#500,1.);
#294=VECTOR('',#501,1.);
#295=VECTOR('',#504,1.);
#296=VECTOR('',#505,1.);
#297=VECTOR('',#506,1.);
#298=VECTOR('',#507,1.);
#299=VECTOR('',#510,1.);
#300=VECTOR('',#511,1.);
#301=VECTOR('',#512,1.);
#302=VECTOR('',#515,1.);
#303=VECTOR('',#516,1.);
#304=VECTOR('',#519,1.);
#305=VECTOR('',#520,1.);
#306=VECTOR('',#521,1.);
#307=VECTOR('',#522,1.);
#308=VECTOR('',#523,1.);
#309=VECTOR('',#532,1.);
#310=VECTOR('',#533,1.);
#311=VECTOR('',#540,1.);
#312=VECTOR('',#543,1.);
#313=VECTOR('',#546,1.);
#314=VECTOR('',#549,1.);
#315=VECTOR('',#558,1.);
#316=VECTOR('',#559,1.);
#317=VECTOR('',#564,1.);
#318=VECTOR('',#567,1.);
#319=VECTOR('',#568,1.);
#320=VECTOR('',#573,1.);
#321=VECTOR('',#576,1.);
#322=VECTOR('',#577,1.);
#323=VECTOR('',#582,1.);
#324=VECTOR('',#585,1.);
#325=EDGE_LOOP('',(#33,#34,#35,#36,#37,#38));
#326=EDGE_LOOP('',(#39,#40,#41,#42));
#327=EDGE_LOOP('',(#43,#44,#45,#46));
#328=EDGE_LOOP('',(#47,#48,#49,#50));
#329=EDGE_LOOP('',(#51,#52,#53,#54));
#330=EDGE_LOOP('',(#55,#56,#57,#58));
#331=EDGE_LOOP('',(#59,#60,#61,#62,#63,#64));
#332=EDGE_LOOP('',(#65));
#333=EDGE_LOOP('',(#66));
#334=EDGE_LOOP('',(#67,#68,#69,#70));
#335=EDGE_LOOP('',(#71));
#336=EDGE_LOOP('',(#72,#73,#74,#75,#76,#77,#78,#79));
#337=EDGE_LOOP('',(#80));
#338=EDGE_LOOP('',(#81,#82,#83,#84,#85,#86,#87,#88,#89,#90,#91,#92,#93));
#339=EDGE_LOOP('',(#94));
#340=EDGE_LOOP('',(#95));
#341=EDGE_LOOP('',(#96));
#342=EDGE_LOOP('',(#97,#98,#99,#100));
#343=EDGE_LOOP('',(#101,#102,#103,#104));
#344=EDGE_LOOP('',(#105,#106,#107,#108));
#345=EDGE_LOOP('',(#109,#110,#111,#112));
#346=EDGE_LOOP('',(#113,#114,#115,#116));
#347=EDGE_LOOP('',(#117,#118,#119,#120));
#348=EDGE_LOOP('',(#121,#122,#123,#124));
#349=EDGE_LOOP('',(#125));
#350=EDGE_LOOP('',(#126));
#351=EDGE_LOOP('',(#127));
#352=EDGE_LOOP('',(#128));
#353=EDGE_LOOP('',(#129));
#354=EDGE_LOOP('',(#130));
#355=EDGE_LOOP('',(#131,#132,#133,#134,#135,#136,#137,#138,#139,#140,#141));
#356=EDGE_LOOP('',(#142));
#357=EDGE_LOOP('',(#143));
#358=EDGE_LOOP('',(#144));
#359=FACE_BOUND('',#325,.T.);
#360=FACE_BOUND('',#326,.T.);
#361=FACE_BOUND('',#327,.T.);
#362=FACE_BOUND('',#328,.T.);
#363=FACE_BOUND('',#329,.T.);
#364=FACE_BOUND('',#330,.T.);
#365=FACE_BOUND('',#331,.T.);
#366=FACE_BOUND('',#332,.T.);
#367=FACE_BOUND('',#333,.T.);
#368=FACE_BOUND('',#334,.T.);
#369=FACE_BOUND('',#335,.T.);
#370=FACE_BOUND('',#336,.T.);
#371=FACE_BOUND('',#337,.T.);
#372=FACE_BOUND('',#338,.T.);
#373=FACE_BOUND('',#339,.T.);
#374=FACE_BOUND('',#340,.T.);
#375=FACE_BOUND('',#341,.T.);
#376=FACE_BOUND('',#342,.T.);
#377=FACE_BOUND('',#343,.T.);
#378=FACE_BOUND('',#344,.T.);
#379=FACE_BOUND('',#345,.T.);
#380=FACE_BOUND('',#346,.T.);
#381=FACE_BOUND('',#347,.T.);
#382=FACE_BOUND('',#348,.T.);
#383=FACE_BOUND('',#349,.T.);
#384=FACE_BOUND('',#350,.T.);
#385=FACE_BOUND('',#351,.T.);
#386=FACE_BOUND('',#352,.T.);
#387=FACE_BOUND('',#353,.T.);
#388=FACE_BOUND('',#354,.T.);
#389=FACE_BOUND('',#355,.T.);
#390=FACE_BOUND('',#356,.T.);
#391=FACE_BOUND('',#357,.T.);
#392=FACE_BOUND('',#358,.T.);
#393=PLANE('',#445);
#394=PLANE('',#446);
#395=PLANE('',#447);
#396=PLANE('',#448);
#397=PLANE('',#449);
#398=PLANE('',#450);
#399=PLANE('',#451);
#400=PLANE('',#455);
#401=PLANE('',#456);
#402=PLANE('',#457);
#403=PLANE('',#458);
#404=PLANE('',#465);
#405=PLANE('',#468);
#406=PLANE('',#471);
#407=PLANE('',#474);
#408=PLANE('',#481);
#409=ADVANCED_FACE('',(#359),#393,.T.);
#410=ADVANCED_FACE('',(#360),#394,.T.);
#411=ADVANCED_FACE('',(#361),#395,.T.);
#412=ADVANCED_FACE('',(#362),#396,.T.);
#413=ADVANCED_FACE('',(#363),#397,.F.);
#414=ADVANCED_FACE('',(#364),#398,.T.);
#415=ADVANCED_FACE('',(#365),#399,.T.);
#416=ADVANCED_FACE('',(#366,#367),#26,.F.);
#417=ADVANCED_FACE('',(#368),#400,.T.);
#418=ADVANCED_FACE('',(#369,#370),#401,.F.);
#419=ADVANCED_FACE('',(#371),#402,.F.);
#420=ADVANCED_FACE('',(#372,#373,#374,#375),#403,.F.);
#421=ADVANCED_FACE('',(#376),#404,.F.);
#422=ADVANCED_FACE('',(#377),#27,.T.);
#423=ADVANCED_FACE('',(#378),#405,.F.);
#424=ADVANCED_FACE('',(#379),#28,.T.);
#425=ADVANCED_FACE('',(#380),#406,.F.);
#426=ADVANCED_FACE('',(#381),#29,.T.);
#427=ADVANCED_FACE('',(#382),#407,.T.);
#428=ADVANCED_FACE('',(#383,#384),#30,.F.);
#429=ADVANCED_FACE('',(#385,#386),#31,.F.);
#430=ADVANCED_FACE('',(#387,#388),#32,.F.);
#431=ADVANCED_FACE('',(#389,#390,#391,#392),#408,.F.);
#432=CLOSED_SHELL('',(#409,#410,#411,#412,#413,#414,#415,#416,#417,#418,
#419,#420,#421,#422,#423,#424,#425,#426,#427,#428,#429,#430,#431));
#433=STYLED_ITEM('',(#434),#441);
#434=PRESENTATION_STYLE_ASSIGNMENT((#435));
#435=SURFACE_STYLE_USAGE(.BOTH.,#436);
#436=SURFACE_SIDE_STYLE('',(#437));
#437=SURFACE_STYLE_FILL_AREA(#438);
#438=FILL_AREA_STYLE('',(#439));
#439=FILL_AREA_STYLE_COLOUR('',#440);
#440=COLOUR_RGB('',0.372549019607843,0.654901960784314,0.23921568627451);
#441=MANIFOLD_SOLID_BREP('Part 1',#432);
#442=SHAPE_DEFINITION_REPRESENTATION(#726,#443);
#443=SHAPE_REPRESENTATION('Part 1',(#444),#721);
#444=AXIS2_PLACEMENT_3D('',#600,#482,#483);
#445=AXIS2_PLACEMENT_3D('',#601,#484,#485);
#446=AXIS2_PLACEMENT_3D('',#614,#492,#493);
#447=AXIS2_PLACEMENT_3D('',#620,#497,#498);
#448=AXIS2_PLACEMENT_3D('',#626,#502,#503);
#449=AXIS2_PLACEMENT_3D('',#635,#508,#509);
#450=AXIS2_PLACEMENT_3D('',#641,#513,#514);
#451=AXIS2_PLACEMENT_3D('',#644,#517,#518);
#452=AXIS2_PLACEMENT_3D('',#654,#524,#525);
#453=AXIS2_PLACEMENT_3D('',#655,#526,#527);
#454=AXIS2_PLACEMENT_3D('',#657,#528,#529);
#455=AXIS2_PLACEMENT_3D('',#659,#530,#531);
#456=AXIS2_PLACEMENT_3D('',#662,#534,#535);
#457=AXIS2_PLACEMENT_3D('',#663,#536,#537);
#458=AXIS2_PLACEMENT_3D('',#664,#538,#539);
#459=AXIS2_PLACEMENT_3D('',#667,#541,#542);
#460=AXIS2_PLACEMENT_3D('',#671,#544,#545);
#461=AXIS2_PLACEMENT_3D('',#675,#547,#548);
#462=AXIS2_PLACEMENT_3D('',#678,#550,#551);
#463=AXIS2_PLACEMENT_3D('',#680,#552,#553);
#464=AXIS2_PLACEMENT_3D('',#682,#554,#555);
#465=AXIS2_PLACEMENT_3D('',#684,#556,#557);
#466=AXIS2_PLACEMENT_3D('',#688,#560,#561);
#467=AXIS2_PLACEMENT_3D('',#689,#562,#563);
#468=AXIS2_PLACEMENT_3D('',#692,#565,#566);
#469=AXIS2_PLACEMENT_3D('',#696,#569,#570);
#470=AXIS2_PLACEMENT_3D('',#697,#571,#572);
#471=AXIS2_PLACEMENT_3D('',#700,#574,#575);
#472=AXIS2_PLACEMENT_3D('',#704,#578,#579);
#473=AXIS2_PLACEMENT_3D('',#705,#580,#581);
#474=AXIS2_PLACEMENT_3D('',#708,#583,#584);
#475=AXIS2_PLACEMENT_3D('',#710,#586,#587);
#476=AXIS2_PLACEMENT_3D('',#711,#588,#589);
#477=AXIS2_PLACEMENT_3D('',#713,#590,#591);
#478=AXIS2_PLACEMENT_3D('',#714,#592,#593);
#479=AXIS2_PLACEMENT_3D('',#716,#594,#595);
#480=AXIS2_PLACEMENT_3D('',#717,#596,#597);
#481=AXIS2_PLACEMENT_3D('',#719,#598,#599);
#482=DIRECTION('',(0.,0.,1.));
#483=DIRECTION('',(1.,0.,0.));
#484=DIRECTION('',(1.23908819712629E-16,-1.,-1.54390389361936E-16));
#485=DIRECTION('',(0.,1.54390389361936E-16,-1.));
#486=DIRECTION('',(-1.,-1.31418445149764E-16,2.22044604925029E-16));
#487=DIRECTION('',(2.22044604925029E-16,1.09244210899638E-15,1.));
#488=DIRECTION('',(-1.,-1.23908819712629E-16,2.22044604925029E-16));
#489=DIRECTION('',(-2.22044604925031E-16,1.54390389361936E-16,-1.));
#490=DIRECTION('',(-1.,-1.23908819712629E-16,2.22044604925031E-16));
#491=DIRECTION('',(-2.22044604925031E-16,1.54390389361936E-16,-1.));
#492=DIRECTION('',(1.,9.37688365392869E-17,-2.22044604925031E-16));
#493=DIRECTION('',(-2.22044604925031E-16,0.,-1.));
#494=DIRECTION('',(-2.22044604925031E-16,1.54390389361936E-16,-1.));
#495=DIRECTION('',(9.37688365392869E-17,-1.,1.09244210899638E-15));
#496=DIRECTION('',(9.37688365392869E-17,-1.,-1.54390389361936E-16));
#497=DIRECTION('',(-1.23908819712629E-16,1.,1.54390389361936E-16));
#498=DIRECTION('',(0.,-1.54390389361936E-16,1.));
#499=DIRECTION('',(-2.22044604925031E-16,1.54390389361936E-16,-1.));
#500=DIRECTION('',(-1.,4.72012916892163E-32,2.22044604925029E-16));
#501=DIRECTION('',(1.,1.23908819712629E-16,-2.22044604925031E-16));
#502=DIRECTION('',(-1.,-2.09298158514569E-17,2.22044604925031E-16));
#503=DIRECTION('',(2.22044604925031E-16,0.,1.));
#504=DIRECTION('',(-2.09298158514569E-17,1.,1.54390389361936E-16));
#505=DIRECTION('',(-2.22044604925031E-16,1.54390389361936E-16,-1.));
#506=DIRECTION('',(-2.09298158514571E-17,1.,-1.09244210899638E-15));
#507=DIRECTION('',(-2.22044604925031E-16,1.54390389361936E-16,-1.));
#508=DIRECTION('',(-3.42815530100931E-32,-1.,-1.54390389361936E-16));
#509=DIRECTION('',(0.,1.54390389361936E-16,-1.));
#510=DIRECTION('',(-1.,3.2731745745673E-46,2.22044604925032E-16));
#511=DIRECTION('',(-2.22044604925031E-16,1.54390389361936E-16,-1.));
#512=DIRECTION('',(1.,4.18668391645932E-34,-2.22044604925029E-16));
#513=DIRECTION('',(-1.,-3.42815530100923E-32,2.22044604925031E-16));
#514=DIRECTION('',(2.22044604925031E-16,0.,1.));
#515=DIRECTION('',(4.48853414354043E-46,1.,1.54390389361936E-16));
#516=DIRECTION('',(-3.06768541308478E-31,1.,-1.09244210899638E-15));
#517=DIRECTION('',(-1.,-3.42815530100923E-32,2.22044604925031E-16));
#518=DIRECTION('',(2.22044604925031E-16,0.,1.));
#519=DIRECTION('',(2.22044604925029E-16,1.09244210899638E-15,1.));
#520=DIRECTION('',(-2.42570876495568E-31,1.,-1.09244210899638E-15));
#521=DIRECTION('',(5.20013101995538E-46,1.,1.54390389361936E-16));
#522=DIRECTION('',(-2.22044604925031E-16,1.54390389361936E-16,-1.));
#523=DIRECTION('',(-3.06768541308478E-31,1.,-1.09244210899638E-15));
#524=DIRECTION('',(-2.22044604925031E-16,1.54390389361936E-16,-1.));
#525=DIRECTION('',(-1.,0.,2.22044604925031E-16));
#526=DIRECTION('',(2.22044604925032E-16,-1.54390389361936E-16,1.));
#527=DIRECTION('',(1.,0.,-2.22044604925032E-16));
#528=DIRECTION('',(2.22044604925032E-16,-1.54390389361936E-16,1.));
#529=DIRECTION('',(1.,0.,-2.22044604925032E-16));
#530=DIRECTION('',(-3.42815530100929E-32,-1.,-1.54390389361936E-16));
#531=DIRECTION('',(0.,1.54390389361936E-16,-1.));
#532=DIRECTION('',(-1.,7.61203389434257E-47,2.22044604925032E-16));
#533=DIRECTION('',(-1.,-4.18668391645938E-34,2.22044604925029E-16));
#534=DIRECTION('',(2.22044604925032E-16,-1.54390389361936E-16,1.));
#535=DIRECTION('',(1.,3.42815530100928E-32,-2.22044604925032E-16));
#536=DIRECTION('',(2.22044604925032E-16,-1.54390389361936E-16,1.));
#537=DIRECTION('',(1.,3.42815530100928E-32,-2.22044604925032E-16));
#538=DIRECTION('',(-2.22044604925026E-16,-1.09244210899637E-15,-0.999999999999984));
#539=DIRECTION('',(-1.25984292442812E-16,-1.00000000000002,1.54824070230926E-16));
#540=DIRECTION('',(-3.00544688390541E-32,1.,-1.09244210899638E-15));
#541=DIRECTION('',(2.22044604925029E-16,1.09244210899638E-15,1.));
#542=DIRECTION('',(0.,-1.,1.09244210899638E-15));
#543=DIRECTION('',(-1.15648231731782E-16,-1.,1.09244210899638E-15));
#544=DIRECTION('',(2.22044604925029E-16,1.09244210899638E-15,1.));
#545=DIRECTION('',(0.,-1.,1.09244210899638E-15));
#546=DIRECTION('',(1.,1.17239637367638E-32,-2.22044604925029E-16));
#547=DIRECTION('',(2.22044604925029E-16,1.09244210899638E-15,1.));
#548=DIRECTION('',(0.,-1.,1.09244210899638E-15));
#549=DIRECTION('',(0.979816790245228,-0.199897617678496,8.13542951137458E-19));
#550=DIRECTION('',(2.22044604925029E-16,1.09244210899638E-15,1.));
#551=DIRECTION('',(0.,-1.,1.09244210899638E-15));
#552=DIRECTION('',(2.22044604925029E-16,1.09244210899638E-15,1.));
#553=DIRECTION('',(0.,-1.,1.09244210899638E-15));
#554=DIRECTION('',(2.22044604925029E-16,1.09244210899638E-15,1.));
#555=DIRECTION('',(0.,-1.,1.09244210899638E-15));
#556=DIRECTION('',(1.,-2.12516407656514E-31,-2.22044604925029E-16));
#557=DIRECTION('',(-2.22044604925029E-16,0.,-1.));
#558=DIRECTION('',(-3.00544688390541E-32,1.,-1.09244210899638E-15));
#559=DIRECTION('',(2.22044604925029E-16,1.09244210899638E-15,1.));
#560=DIRECTION('',(2.22044604925029E-16,1.09244210899638E-15,1.));
#561=DIRECTION('',(0.,-1.,1.09244210899638E-15));
#562=DIRECTION('',(2.22044604925029E-16,1.09244210899638E-15,1.));
#563=DIRECTION('',(0.,-1.,1.09244210899638E-15));
#564=DIRECTION('',(2.22044604925029E-16,1.09244210899638E-15,1.));
#565=DIRECTION('',(-1.,1.15648231731782E-16,2.22044604925029E-16));
#566=DIRECTION('',(2.22044604925029E-16,0.,1.));
#567=DIRECTION('',(-1.15648231731782E-16,-1.,1.09244210899638E-15));
#568=DIRECTION('',(2.22044604925029E-16,1.09244210899638E-15,1.));
#569=DIRECTION('',(2.22044604925029E-16,1.09244210899638E-15,1.));
#570=DIRECTION('',(0.,-1.,1.09244210899638E-15));
#571=DIRECTION('',(2.22044604925029E-16,1.09244210899638E-15,1.));
#572=DIRECTION('',(0.,-1.,1.09244210899638E-15));
#573=DIRECTION('',(2.22044604925029E-16,1.09244210899638E-15,1.));
#574=DIRECTION('',(2.54294840232332E-31,-1.,1.09244210899638E-15));
#575=DIRECTION('',(0.,-1.09244210899638E-15,-1.));
#576=DIRECTION('',(1.,1.17239637367638E-32,-2.22044604925029E-16));
#577=DIRECTION('',(2.22044604925029E-16,1.09244210899638E-15,1.));
#578=DIRECTION('',(2.22044604925029E-16,1.09244210899638E-15,1.));
#579=DIRECTION('',(0.,-1.,1.09244210899638E-15));
#580=DIRECTION('',(2.22044604925029E-16,1.09244210899638E-15,1.));
#581=DIRECTION('',(0.,-1.,1.09244210899638E-15));
#582=DIRECTION('',(2.22044604925029E-16,1.09244210899638E-15,1.));
#583=DIRECTION('',(-0.199897617678496,-0.979816790245228,1.11477930830844E-15));
#584=DIRECTION('',(0.979816790245228,-0.199897617678496,0.));
#585=DIRECTION('',(0.979816790245228,-0.199897617678496,8.13542951137458E-19));
#586=DIRECTION('',(2.22044604925029E-16,1.09244210899638E-15,1.));
#587=DIRECTION('',(0.,-1.,1.09244210899638E-15));
#588=DIRECTION('',(2.22044604925029E-16,1.09244210899638E-15,1.));
#589=DIRECTION('',(0.,-1.,1.09244210899638E-15));
#590=DIRECTION('',(2.22044604925029E-16,1.09244210899638E-15,1.));
#591=DIRECTION('',(0.,-1.,1.09244210899638E-15));
#592=DIRECTION('',(2.22044604925029E-16,1.09244210899638E-15,1.));
#593=DIRECTION('',(0.,-1.,1.09244210899638E-15));
#594=DIRECTION('',(2.22044604925029E-16,1.09244210899638E-15,1.));
#595=DIRECTION('',(0.,-1.,1.09244210899638E-15));
#596=DIRECTION('',(2.22044604925029E-16,1.09244210899638E-15,1.));
#597=DIRECTION('',(0.,-1.,1.09244210899638E-15));
#598=DIRECTION('',(2.22044604925029E-16,1.09244210899638E-15,1.));
#599=DIRECTION('',(1.,-2.42570876495568E-31,-2.22044604925029E-16));
#600=CARTESIAN_POINT('',(0.,0.,0.));
#601=CARTESIAN_POINT('',(-0.00775,-0.004,0.00300000000000016));
#602=CARTESIAN_POINT('',(0.00295000000000016,-0.004,0.00870000000000061));
#603=CARTESIAN_POINT('',(0.00625,-0.004,0.00870000000000061));
#604=CARTESIAN_POINT('',(-0.000349999999999684,-0.004,0.00870000000000061));
#605=CARTESIAN_POINT('',(-0.000349999999999684,-0.004,0.00870000000000061));
#606=CARTESIAN_POINT('',(-0.000349999999999683,-0.004,0.0127000000000006));
#607=CARTESIAN_POINT('',(-0.00775,-0.004,0.0127000000000006));
#608=CARTESIAN_POINT('',(-0.02175,-0.004,0.0127000000000006));
#609=CARTESIAN_POINT('',(-0.02175,-0.004,0.00300000000000016));
#610=CARTESIAN_POINT('',(-0.02175,-0.004,1.63038906222846E-16));
#611=CARTESIAN_POINT('',(-0.00775,-0.004,1.59930281753896E-16));
#612=CARTESIAN_POINT('',(0.00625,-0.004,1.56821657284945E-16));
#613=CARTESIAN_POINT('',(0.00625,-0.004,0.00300000000000015));
#614=CARTESIAN_POINT('',(0.00625,0.00525,0.00300000000000016));
#615=CARTESIAN_POINT('',(0.00625,0.0145,0.00300000000000016));
#616=CARTESIAN_POINT('',(0.00625,0.0145,0.00870000000000059));
#617=CARTESIAN_POINT('',(0.00625,0.0145,1.59677879488141E-16));
#618=CARTESIAN_POINT('',(0.00625,0.00525,0.0087000000000006));
#619=CARTESIAN_POINT('',(0.00625,0.00525,1.58249768386543E-16));
#620=CARTESIAN_POINT('',(-0.00775,0.0145,0.00300000000000016));
#621=CARTESIAN_POINT('',(-0.02175,0.0145,0.00300000000000016));
#622=CARTESIAN_POINT('',(-0.02175,0.0145,0.0087000000000006));
#623=CARTESIAN_POINT('',(-0.02175,0.0145,1.65895128426042E-16));
#624=CARTESIAN_POINT('',(-0.0120499999999998,0.0145,0.0087000000000006));
#625=CARTESIAN_POINT('',(-0.00775,0.0145,1.62786503957091E-16));
#626=CARTESIAN_POINT('',(3.71550427803799E-18,0.011,0.00300000000000016));
#627=CARTESIAN_POINT('',(3.0493704632629E-18,0.011,1.60525291906156E-16));
#628=CARTESIAN_POINT('',(3.52365706057789E-18,-0.001,1.58672607233812E-16));
#629=CARTESIAN_POINT('',(3.03576608295941E-18,0.0115,1.60602487100837E-16));
#630=CARTESIAN_POINT('',(4.18979087535298E-18,-0.001,0.00300000000000016));
#631=CARTESIAN_POINT('',(6.97853233533339E-18,-0.001,0.0127000000000006));
#632=CARTESIAN_POINT('',(6.65581720173189E-18,0.00525,0.0127000000000006));
#633=CARTESIAN_POINT('',(5.62327961972651E-18,0.0115,0.0127000000000006));
#634=CARTESIAN_POINT('',(3.70189989773451E-18,0.0115,0.00300000000000016));
#635=CARTESIAN_POINT('',(-0.000475,-0.001,0.00300000000000016));
#636=CARTESIAN_POINT('',(-0.000475,-0.001,1.58778078421152E-16));
#637=CARTESIAN_POINT('',(-0.02175,-0.001,1.63502077390932E-16));
#638=CARTESIAN_POINT('',(-0.02175,-0.001,0.00300000000000016));
#639=CARTESIAN_POINT('',(-0.02175,-0.001,0.0127000000000006));
#640=CARTESIAN_POINT('',(-0.010875,-0.001,0.0127000000000006));
#641=CARTESIAN_POINT('',(-0.02175,-0.0025,0.00300000000000016));
#642=CARTESIAN_POINT('',(-0.02175,-0.0025,1.63270491806889E-16));
#643=CARTESIAN_POINT('',(-0.02175,-0.0025,0.0127000000000006));
#644=CARTESIAN_POINT('',(-0.02175,0.013,0.00300000000000016));
#645=CARTESIAN_POINT('',(-0.02175,0.0138115296140313,0.0087000000000006));
#646=CARTESIAN_POINT('',(-0.02175,0.0138115296140313,0.0087000000000006));
#647=CARTESIAN_POINT('',(-0.02175,0.0138115296140313,0.0127000000000006));
#648=CARTESIAN_POINT('',(-0.02175,0.0141557648070157,0.0087000000000006));
#649=CARTESIAN_POINT('',(-0.02175,0.013,1.65663542841999E-16));
#650=CARTESIAN_POINT('',(-0.02175,0.0115,1.65431957257956E-16));
#651=CARTESIAN_POINT('',(-0.02175,0.0115,0.00300000000000016));
#652=CARTESIAN_POINT('',(-0.02175,0.0115,0.0127000000000006));
#653=CARTESIAN_POINT('',(-0.02175,0.013,0.0127000000000006));
#654=CARTESIAN_POINT('',(0.0023,0.00525,0.00300000000000016));
#655=CARTESIAN_POINT('',(0.0023,0.00525,0.00300000000000016));
#656=CARTESIAN_POINT('',(0.0033,0.00525,0.00300000000000016));
#657=CARTESIAN_POINT('',(0.0023,0.00525,1.59126844575997E-16));
#658=CARTESIAN_POINT('',(0.0033,0.00525,1.58904799971072E-16));
#659=CARTESIAN_POINT('',(-0.01135,0.0115,0.00300000000000016));
#660=CARTESIAN_POINT('',(-0.01135,0.0115,1.63122693366736E-16));
#661=CARTESIAN_POINT('',(-0.010875,0.0115,0.0127000000000006));
#662=CARTESIAN_POINT('',(-0.00775,0.00525,1.61358392855494E-16));
#663=CARTESIAN_POINT('',(-0.00775,0.00525,0.00300000000000016));
#664=CARTESIAN_POINT('',(0.00365000000000031,-0.0412500000000015,0.0127000000000006));
#665=CARTESIAN_POINT('',(-0.000349999999999683,-0.0076250000000001,0.0127000000000006));
#666=CARTESIAN_POINT('',(-0.000349999999999682,-0.0112500000000002,0.0127000000000006));
#667=CARTESIAN_POINT('',(0.00365000000000032,-0.0112500000000002,0.0127000000000006));
#668=CARTESIAN_POINT('',(0.00765000000000032,-0.0112500000000002,0.0127000000000006));
#669=CARTESIAN_POINT('',(0.00765000000000032,0.00375000000000046,0.0127000000000006));
#670=CARTESIAN_POINT('',(0.00765000000000032,0.0187500000000011,0.0127000000000006));
#671=CARTESIAN_POINT('',(0.00365000000000029,0.0187500000000011,0.0127000000000006));
#672=CARTESIAN_POINT('',(-0.00017152914964633,0.0199314884503894,0.0127000000000006));
#673=CARTESIAN_POINT('',(-0.01135,0.0199314884503894,0.0127000000000006));
#674=CARTESIAN_POINT('',(-0.0225284708503536,0.0199314884503894,0.0127000000000006));
#675=CARTESIAN_POINT('',(-0.02635,0.0187500000000011,0.0127000000000006));
#676=CARTESIAN_POINT('',(-0.02635,0.0147500000000011,0.0127000000000006));
#677=CARTESIAN_POINT('',(-0.02405,0.0142807648070162,0.0127000000000006));
#678=CARTESIAN_POINT('',(0.00365000000000032,-0.0112500000000002,0.0127000000000006));
#679=CARTESIAN_POINT('',(0.00365000000000032,-0.0128500000000002,0.0127000000000006));
#680=CARTESIAN_POINT('',(0.00365000000000032,0.0187500000000011,0.0127000000000006));
#681=CARTESIAN_POINT('',(0.00365000000000032,0.0171500000000011,0.0127000000000006));
#682=CARTESIAN_POINT('',(-0.02635,0.0187500000000011,0.0127000000000006));
#683=CARTESIAN_POINT('',(-0.02635,0.0171500000000011,0.0127000000000006));
#684=CARTESIAN_POINT('',(-0.000349999999999684,-0.0076250000000001,0.00870000000000062));
#685=CARTESIAN_POINT('',(-0.000349999999999684,-0.0076250000000001,0.00870000000000062));
#686=CARTESIAN_POINT('',(-0.000349999999999684,-0.0112500000000002,0.00870000000000062));
#687=CARTESIAN_POINT('',(-0.000349999999999684,-0.0112500000000002,0.00870000000000062));
#688=CARTESIAN_POINT('',(0.00365000000000031,-0.0112500000000002,0.00870000000000062));
#689=CARTESIAN_POINT('',(0.00365000000000031,-0.0112500000000002,0.00870000000000062));
#690=CARTESIAN_POINT('',(0.00765000000000032,-0.0112500000000002,0.00870000000000062));
#691=CARTESIAN_POINT('',(0.00765000000000032,-0.0112500000000002,0.00870000000000062));
#692=CARTESIAN_POINT('',(0.00765000000000032,0.00375000000000046,0.00870000000000061));
#693=CARTESIAN_POINT('',(0.00765000000000032,0.00375000000000046,0.00870000000000061));
#694=CARTESIAN_POINT('',(0.00765000000000032,0.0187500000000011,0.00870000000000059));
#695=CARTESIAN_POINT('',(0.00765000000000032,0.0187500000000011,0.00870000000000059));
#696=CARTESIAN_POINT('',(0.00365000000000029,0.0187500000000011,0.00870000000000059));
#697=CARTESIAN_POINT('',(0.00365000000000029,0.0187500000000011,0.00870000000000059));
#698=CARTESIAN_POINT('',(-0.000171529149646331,0.0199314884503894,0.00870000000000059));
#699=CARTESIAN_POINT('',(-0.000171529149646331,0.0199314884503894,0.00870000000000059));
#700=CARTESIAN_POINT('',(-0.01135,0.0199314884503894,0.00870000000000059));
#701=CARTESIAN_POINT('',(-0.01135,0.0199314884503894,0.00870000000000059));
#702=CARTESIAN_POINT('',(-0.0225284708503536,0.0199314884503894,0.00870000000000059));
#703=CARTESIAN_POINT('',(-0.0225284708503536,0.0199314884503894,0.00870000000000059));
#704=CARTESIAN_POINT('',(-0.02635,0.0187500000000011,0.00870000000000059));
#705=CARTESIAN_POINT('',(-0.02635,0.0187500000000011,0.00870000000000059));
#706=CARTESIAN_POINT('',(-0.02635,0.0147500000000011,0.0087000000000006));
#707=CARTESIAN_POINT('',(-0.02635,0.0147500000000011,0.0087000000000006));
#708=CARTESIAN_POINT('',(-0.02405,0.0142807648070162,0.0087000000000006));
#709=CARTESIAN_POINT('',(-0.02405,0.0142807648070162,0.0087000000000006));
#710=CARTESIAN_POINT('',(0.00365000000000032,0.0187500000000011,0.00870000000000059));
#711=CARTESIAN_POINT('',(0.00365000000000032,0.0187500000000011,0.00870000000000059));
#712=CARTESIAN_POINT('',(0.00365000000000032,0.0171500000000011,0.00870000000000059));
#713=CARTESIAN_POINT('',(0.00365000000000031,-0.0112500000000002,0.00870000000000062));
#714=CARTESIAN_POINT('',(0.00365000000000031,-0.0112500000000002,0.00870000000000062));
#715=CARTESIAN_POINT('',(0.00365000000000031,-0.0128500000000002,0.00870000000000062));
#716=CARTESIAN_POINT('',(-0.02635,0.0187500000000011,0.00870000000000059));
#717=CARTESIAN_POINT('',(-0.02635,0.0187500000000011,0.00870000000000059));
#718=CARTESIAN_POINT('',(-0.02635,0.0171500000000011,0.00870000000000059));
#719=CARTESIAN_POINT('',(-0.01135,0.00375000000000046,0.00870000000000061));
#720=MECHANICAL_DESIGN_GEOMETRIC_PRESENTATION_REPRESENTATION('',(#433),
#721);
#721=(
GEOMETRIC_REPRESENTATION_CONTEXT(3)
GLOBAL_UNCERTAINTY_ASSIGNED_CONTEXT((#722))
GLOBAL_UNIT_ASSIGNED_CONTEXT((#725,#724,#723))
REPRESENTATION_CONTEXT('Part 1','TOP_LEVEL_ASSEMBLY_PART')
);
#722=UNCERTAINTY_MEASURE_WITH_UNIT(LENGTH_MEASURE(1.E-8),#725,
'DISTANCE_ACCURACY_VALUE','Maximum Tolerance applied to model');
#723=(
NAMED_UNIT(*)
SI_UNIT($,.STERADIAN.)
SOLID_ANGLE_UNIT()
);
#724=(
NAMED_UNIT(*)
PLANE_ANGLE_UNIT()
SI_UNIT($,.RADIAN.)
);
#725=(
LENGTH_UNIT()
NAMED_UNIT(*)
SI_UNIT($,.METRE.)
);
#726=PRODUCT_DEFINITION_SHAPE('','',#727);
#727=PRODUCT_DEFINITION('','',#729,#728);
#728=PRODUCT_DEFINITION_CONTEXT('',#735,'design');
#729=PRODUCT_DEFINITION_FORMATION_WITH_SPECIFIED_SOURCE('','',#731,
 .NOT_KNOWN.);
#730=PRODUCT_RELATED_PRODUCT_CATEGORY('','',(#731));
#731=PRODUCT('Part 1','Part 1','Part 1',(#733));
#732=PRODUCT_CATEGORY('','');
#733=PRODUCT_CONTEXT('',#735,'mechanical');
#734=APPLICATION_PROTOCOL_DEFINITION('international standard',
'ap242_managed_model_based_3d_engineering',2020,#735);
#735=APPLICATION_CONTEXT('managed model based 3d engineering');
ENDSEC;
END-ISO-10303-21;
