ISO-10303-21;
HEADER;
/* Generated by software containing ST-Developer
 * from STEP Tools, Inc. (www.steptools.com) 
 */
/* OPTION: using custom renumber hook */

FILE_DESCRIPTION(
/* description */ ('STEP AP242 Edition 2',
'CAx-IF Rec.Pracs.---Representation and Presentation of Product Manufa
cturing Information (PMI)---4.0---2014-10-13',
'CAx-IF Rec.Pracs.---3D Tessellated Geometry---0.4---2014-09-14','2;1',
'CAx-IF Rec.Pracs.---User Defined Attributes---1.5---2016-08-15'),
/* implementation_level */ '2;1');

FILE_NAME(
/* name */ 'drzak_plex_dole',
/* time_stamp */ '2026-07-22T20:59:58Z',
/* author */ (''),
/* organization */ (''),
/* preprocessor_version */ 'ST-DEVELOPER v20',
/* originating_system */ 'ONSHAPE BY PTC INC, 1.218',
/* authorisation */ '  ');

FILE_SCHEMA (('AP242_MANAGED_MODEL_BASED_3D_ENGINEERING_MIM_LF { 1 0 10303 442 3 1 4 }'));
ENDSEC;

DATA;
#10=SHAPE_REPRESENTATION_RELATIONSHIP('','',#1015,#11);
#11=ADVANCED_BREP_SHAPE_REPRESENTATION('',(#1013),#1697);
#12=CYLINDRICAL_SURFACE('',#1035,0.006);
#13=CYLINDRICAL_SURFACE('',#1038,0.006);
#14=CYLINDRICAL_SURFACE('',#1041,0.006);
#15=CYLINDRICAL_SURFACE('',#1044,0.006);
#16=CYLINDRICAL_SURFACE('',#1051,0.003);
#17=CYLINDRICAL_SURFACE('',#1053,0.003);
#18=CYLINDRICAL_SURFACE('',#1055,0.003);
#19=CYLINDRICAL_SURFACE('',#1057,0.003);
#20=CYLINDRICAL_SURFACE('',#1061,0.004);
#21=CYLINDRICAL_SURFACE('',#1065,0.004);
#22=CYLINDRICAL_SURFACE('',#1070,0.004);
#23=CYLINDRICAL_SURFACE('',#1075,0.004);
#24=CYLINDRICAL_SURFACE('',#1079,0.002);
#25=CYLINDRICAL_SURFACE('',#1082,0.002);
#26=CYLINDRICAL_SURFACE('',#1085,0.002);
#27=CYLINDRICAL_SURFACE('',#1088,0.002);
#28=CYLINDRICAL_SURFACE('',#1105,0.0016);
#29=CYLINDRICAL_SURFACE('',#1110,0.0016);
#30=CYLINDRICAL_SURFACE('',#1115,0.0016);
#31=CYLINDRICAL_SURFACE('',#1120,0.0016);
#32=CIRCLE('',#1018,0.004);
#33=CIRCLE('',#1019,0.006);
#34=CIRCLE('',#1020,0.004);
#35=CIRCLE('',#1021,0.006);
#36=CIRCLE('',#1022,0.004);
#37=CIRCLE('',#1023,0.006);
#38=CIRCLE('',#1024,0.004);
#39=CIRCLE('',#1025,0.006);
#40=CIRCLE('',#1027,0.003);
#41=CIRCLE('',#1028,0.003);
#42=CIRCLE('',#1029,0.003);
#43=CIRCLE('',#1030,0.003);
#44=CIRCLE('',#1031,0.002);
#45=CIRCLE('',#1032,0.002);
#46=CIRCLE('',#1033,0.002);
#47=CIRCLE('',#1034,0.002);
#48=CIRCLE('',#1036,0.006);
#49=CIRCLE('',#1037,0.006);
#50=CIRCLE('',#1039,0.006);
#51=CIRCLE('',#1040,0.006);
#52=CIRCLE('',#1042,0.006);
#53=CIRCLE('',#1043,0.006);
#54=CIRCLE('',#1045,0.006);
#55=CIRCLE('',#1046,0.006);
#56=CIRCLE('',#1052,0.003);
#57=CIRCLE('',#1054,0.003);
#58=CIRCLE('',#1056,0.003);
#59=CIRCLE('',#1058,0.003);
#60=CIRCLE('',#1062,0.004);
#61=CIRCLE('',#1066,0.004);
#62=CIRCLE('',#1071,0.004);
#63=CIRCLE('',#1076,0.004);
#64=CIRCLE('',#1080,0.002);
#65=CIRCLE('',#1083,0.002);
#66=CIRCLE('',#1086,0.002);
#67=CIRCLE('',#1089,0.002);
#68=CIRCLE('',#1104,0.0016);
#69=CIRCLE('',#1106,0.0016);
#70=CIRCLE('',#1109,0.0016);
#71=CIRCLE('',#1111,0.0016);
#72=CIRCLE('',#1114,0.0016);
#73=CIRCLE('',#1116,0.0016);
#74=CIRCLE('',#1119,0.0016);
#75=CIRCLE('',#1121,0.0016);
#76=ORIENTED_EDGE('',*,*,#324,.F.);
#77=ORIENTED_EDGE('',*,*,#325,.F.);
#78=ORIENTED_EDGE('',*,*,#326,.T.);
#79=ORIENTED_EDGE('',*,*,#327,.F.);
#80=ORIENTED_EDGE('',*,*,#328,.T.);
#81=ORIENTED_EDGE('',*,*,#329,.T.);
#82=ORIENTED_EDGE('',*,*,#330,.F.);
#83=ORIENTED_EDGE('',*,*,#331,.F.);
#84=ORIENTED_EDGE('',*,*,#332,.F.);
#85=ORIENTED_EDGE('',*,*,#333,.T.);
#86=ORIENTED_EDGE('',*,*,#334,.F.);
#87=ORIENTED_EDGE('',*,*,#335,.F.);
#88=ORIENTED_EDGE('',*,*,#336,.F.);
#89=ORIENTED_EDGE('',*,*,#337,.T.);
#90=ORIENTED_EDGE('',*,*,#338,.T.);
#91=ORIENTED_EDGE('',*,*,#339,.F.);
#92=ORIENTED_EDGE('',*,*,#340,.F.);
#93=ORIENTED_EDGE('',*,*,#341,.T.);
#94=ORIENTED_EDGE('',*,*,#342,.T.);
#95=ORIENTED_EDGE('',*,*,#343,.F.);
#96=ORIENTED_EDGE('',*,*,#344,.T.);
#97=ORIENTED_EDGE('',*,*,#345,.T.);
#98=ORIENTED_EDGE('',*,*,#346,.T.);
#99=ORIENTED_EDGE('',*,*,#347,.T.);
#100=ORIENTED_EDGE('',*,*,#348,.T.);
#101=ORIENTED_EDGE('',*,*,#349,.T.);
#102=ORIENTED_EDGE('',*,*,#350,.T.);
#103=ORIENTED_EDGE('',*,*,#351,.T.);
#104=ORIENTED_EDGE('',*,*,#352,.F.);
#105=ORIENTED_EDGE('',*,*,#353,.F.);
#106=ORIENTED_EDGE('',*,*,#354,.F.);
#107=ORIENTED_EDGE('',*,*,#355,.F.);
#108=ORIENTED_EDGE('',*,*,#356,.T.);
#109=ORIENTED_EDGE('',*,*,#357,.T.);
#110=ORIENTED_EDGE('',*,*,#358,.F.);
#111=ORIENTED_EDGE('',*,*,#359,.F.);
#112=ORIENTED_EDGE('',*,*,#360,.F.);
#113=ORIENTED_EDGE('',*,*,#361,.F.);
#114=ORIENTED_EDGE('',*,*,#362,.F.);
#115=ORIENTED_EDGE('',*,*,#363,.F.);
#116=ORIENTED_EDGE('',*,*,#364,.F.);
#117=ORIENTED_EDGE('',*,*,#365,.F.);
#118=ORIENTED_EDGE('',*,*,#366,.F.);
#119=ORIENTED_EDGE('',*,*,#367,.F.);
#120=ORIENTED_EDGE('',*,*,#368,.T.);
#121=ORIENTED_EDGE('',*,*,#369,.T.);
#122=ORIENTED_EDGE('',*,*,#370,.F.);
#123=ORIENTED_EDGE('',*,*,#371,.F.);
#124=ORIENTED_EDGE('',*,*,#372,.F.);
#125=ORIENTED_EDGE('',*,*,#373,.F.);
#126=ORIENTED_EDGE('',*,*,#374,.T.);
#127=ORIENTED_EDGE('',*,*,#375,.T.);
#128=ORIENTED_EDGE('',*,*,#376,.T.);
#129=ORIENTED_EDGE('',*,*,#377,.T.);
#130=ORIENTED_EDGE('',*,*,#378,.T.);
#131=ORIENTED_EDGE('',*,*,#379,.T.);
#132=ORIENTED_EDGE('',*,*,#380,.F.);
#133=ORIENTED_EDGE('',*,*,#381,.T.);
#134=ORIENTED_EDGE('',*,*,#382,.T.);
#135=ORIENTED_EDGE('',*,*,#334,.T.);
#136=ORIENTED_EDGE('',*,*,#383,.F.);
#137=ORIENTED_EDGE('',*,*,#384,.F.);
#138=ORIENTED_EDGE('',*,*,#385,.T.);
#139=ORIENTED_EDGE('',*,*,#386,.T.);
#140=ORIENTED_EDGE('',*,*,#327,.T.);
#141=ORIENTED_EDGE('',*,*,#387,.F.);
#142=ORIENTED_EDGE('',*,*,#388,.F.);
#143=ORIENTED_EDGE('',*,*,#389,.F.);
#144=ORIENTED_EDGE('',*,*,#390,.T.);
#145=ORIENTED_EDGE('',*,*,#330,.T.);
#146=ORIENTED_EDGE('',*,*,#391,.F.);
#147=ORIENTED_EDGE('',*,*,#392,.F.);
#148=ORIENTED_EDGE('',*,*,#393,.F.);
#149=ORIENTED_EDGE('',*,*,#394,.T.);
#150=ORIENTED_EDGE('',*,*,#343,.T.);
#151=ORIENTED_EDGE('',*,*,#395,.F.);
#152=ORIENTED_EDGE('',*,*,#356,.F.);
#153=ORIENTED_EDGE('',*,*,#396,.F.);
#154=ORIENTED_EDGE('',*,*,#336,.T.);
#155=ORIENTED_EDGE('',*,*,#397,.T.);
#156=ORIENTED_EDGE('',*,*,#359,.T.);
#157=ORIENTED_EDGE('',*,*,#398,.F.);
#158=ORIENTED_EDGE('',*,*,#337,.F.);
#159=ORIENTED_EDGE('',*,*,#396,.T.);
#160=ORIENTED_EDGE('',*,*,#358,.T.);
#161=ORIENTED_EDGE('',*,*,#399,.F.);
#162=ORIENTED_EDGE('',*,*,#338,.F.);
#163=ORIENTED_EDGE('',*,*,#398,.T.);
#164=ORIENTED_EDGE('',*,*,#357,.F.);
#165=ORIENTED_EDGE('',*,*,#397,.F.);
#166=ORIENTED_EDGE('',*,*,#339,.T.);
#167=ORIENTED_EDGE('',*,*,#399,.T.);
#168=ORIENTED_EDGE('',*,*,#360,.T.);
#169=ORIENTED_EDGE('',*,*,#400,.T.);
#170=ORIENTED_EDGE('',*,*,#361,.T.);
#171=ORIENTED_EDGE('',*,*,#401,.T.);
#172=ORIENTED_EDGE('',*,*,#363,.T.);
#173=ORIENTED_EDGE('',*,*,#402,.T.);
#174=ORIENTED_EDGE('',*,*,#362,.T.);
#175=ORIENTED_EDGE('',*,*,#403,.T.);
#176=ORIENTED_EDGE('',*,*,#340,.T.);
#177=ORIENTED_EDGE('',*,*,#394,.F.);
#178=ORIENTED_EDGE('',*,*,#404,.F.);
#179=ORIENTED_EDGE('',*,*,#405,.T.);
#180=ORIENTED_EDGE('',*,*,#342,.F.);
#181=ORIENTED_EDGE('',*,*,#406,.F.);
#182=ORIENTED_EDGE('',*,*,#407,.T.);
#183=ORIENTED_EDGE('',*,*,#392,.T.);
#184=ORIENTED_EDGE('',*,*,#341,.F.);
#185=ORIENTED_EDGE('',*,*,#405,.F.);
#186=ORIENTED_EDGE('',*,*,#408,.T.);
#187=ORIENTED_EDGE('',*,*,#406,.T.);
#188=ORIENTED_EDGE('',*,*,#404,.T.);
#189=ORIENTED_EDGE('',*,*,#393,.T.);
#190=ORIENTED_EDGE('',*,*,#407,.F.);
#191=ORIENTED_EDGE('',*,*,#408,.F.);
#192=ORIENTED_EDGE('',*,*,#329,.F.);
#193=ORIENTED_EDGE('',*,*,#409,.F.);
#194=ORIENTED_EDGE('',*,*,#410,.T.);
#195=ORIENTED_EDGE('',*,*,#388,.T.);
#196=ORIENTED_EDGE('',*,*,#328,.F.);
#197=ORIENTED_EDGE('',*,*,#411,.F.);
#198=ORIENTED_EDGE('',*,*,#412,.T.);
#199=ORIENTED_EDGE('',*,*,#409,.T.);
#200=ORIENTED_EDGE('',*,*,#331,.T.);
#201=ORIENTED_EDGE('',*,*,#390,.F.);
#202=ORIENTED_EDGE('',*,*,#413,.F.);
#203=ORIENTED_EDGE('',*,*,#411,.T.);
#204=ORIENTED_EDGE('',*,*,#410,.F.);
#205=ORIENTED_EDGE('',*,*,#412,.F.);
#206=ORIENTED_EDGE('',*,*,#413,.T.);
#207=ORIENTED_EDGE('',*,*,#389,.T.);
#208=ORIENTED_EDGE('',*,*,#326,.F.);
#209=ORIENTED_EDGE('',*,*,#414,.F.);
#210=ORIENTED_EDGE('',*,*,#415,.T.);
#211=ORIENTED_EDGE('',*,*,#384,.T.);
#212=ORIENTED_EDGE('',*,*,#325,.T.);
#213=ORIENTED_EDGE('',*,*,#416,.F.);
#214=ORIENTED_EDGE('',*,*,#417,.F.);
#215=ORIENTED_EDGE('',*,*,#414,.T.);
#216=ORIENTED_EDGE('',*,*,#324,.T.);
#217=ORIENTED_EDGE('',*,*,#386,.F.);
#218=ORIENTED_EDGE('',*,*,#418,.F.);
#219=ORIENTED_EDGE('',*,*,#416,.T.);
#220=ORIENTED_EDGE('',*,*,#385,.F.);
#221=ORIENTED_EDGE('',*,*,#415,.F.);
#222=ORIENTED_EDGE('',*,*,#417,.T.);
#223=ORIENTED_EDGE('',*,*,#418,.T.);
#224=ORIENTED_EDGE('',*,*,#333,.F.);
#225=ORIENTED_EDGE('',*,*,#419,.F.);
#226=ORIENTED_EDGE('',*,*,#420,.T.);
#227=ORIENTED_EDGE('',*,*,#380,.T.);
#228=ORIENTED_EDGE('',*,*,#332,.T.);
#229=ORIENTED_EDGE('',*,*,#421,.F.);
#230=ORIENTED_EDGE('',*,*,#422,.F.);
#231=ORIENTED_EDGE('',*,*,#419,.T.);
#232=ORIENTED_EDGE('',*,*,#335,.T.);
#233=ORIENTED_EDGE('',*,*,#382,.F.);
#234=ORIENTED_EDGE('',*,*,#423,.F.);
#235=ORIENTED_EDGE('',*,*,#421,.T.);
#236=ORIENTED_EDGE('',*,*,#420,.F.);
#237=ORIENTED_EDGE('',*,*,#422,.T.);
#238=ORIENTED_EDGE('',*,*,#423,.T.);
#239=ORIENTED_EDGE('',*,*,#381,.F.);
#240=ORIENTED_EDGE('',*,*,#424,.F.);
#241=ORIENTED_EDGE('',*,*,#364,.T.);
#242=ORIENTED_EDGE('',*,*,#424,.T.);
#243=ORIENTED_EDGE('',*,*,#425,.F.);
#244=ORIENTED_EDGE('',*,*,#365,.T.);
#245=ORIENTED_EDGE('',*,*,#425,.T.);
#246=ORIENTED_EDGE('',*,*,#426,.F.);
#247=ORIENTED_EDGE('',*,*,#366,.T.);
#248=ORIENTED_EDGE('',*,*,#426,.T.);
#249=ORIENTED_EDGE('',*,*,#427,.F.);
#250=ORIENTED_EDGE('',*,*,#367,.T.);
#251=ORIENTED_EDGE('',*,*,#427,.T.);
#252=ORIENTED_EDGE('',*,*,#428,.T.);
#253=ORIENTED_EDGE('',*,*,#347,.F.);
#254=ORIENTED_EDGE('',*,*,#429,.F.);
#255=ORIENTED_EDGE('',*,*,#378,.F.);
#256=ORIENTED_EDGE('',*,*,#430,.T.);
#257=ORIENTED_EDGE('',*,*,#348,.F.);
#258=ORIENTED_EDGE('',*,*,#428,.F.);
#259=ORIENTED_EDGE('',*,*,#377,.F.);
#260=ORIENTED_EDGE('',*,*,#429,.T.);
#261=ORIENTED_EDGE('',*,*,#346,.F.);
#262=ORIENTED_EDGE('',*,*,#431,.F.);
#263=ORIENTED_EDGE('',*,*,#379,.F.);
#264=ORIENTED_EDGE('',*,*,#432,.T.);
#265=ORIENTED_EDGE('',*,*,#349,.F.);
#266=ORIENTED_EDGE('',*,*,#430,.F.);
#267=ORIENTED_EDGE('',*,*,#376,.F.);
#268=ORIENTED_EDGE('',*,*,#433,.T.);
#269=ORIENTED_EDGE('',*,*,#350,.F.);
#270=ORIENTED_EDGE('',*,*,#432,.F.);
#271=ORIENTED_EDGE('',*,*,#375,.F.);
#272=ORIENTED_EDGE('',*,*,#434,.T.);
#273=ORIENTED_EDGE('',*,*,#351,.F.);
#274=ORIENTED_EDGE('',*,*,#433,.F.);
#275=ORIENTED_EDGE('',*,*,#374,.F.);
#276=ORIENTED_EDGE('',*,*,#373,.T.);
#277=ORIENTED_EDGE('',*,*,#435,.T.);
#278=ORIENTED_EDGE('',*,*,#352,.T.);
#279=ORIENTED_EDGE('',*,*,#434,.F.);
#280=ORIENTED_EDGE('',*,*,#372,.T.);
#281=ORIENTED_EDGE('',*,*,#436,.T.);
#282=ORIENTED_EDGE('',*,*,#353,.T.);
#283=ORIENTED_EDGE('',*,*,#435,.F.);
#284=ORIENTED_EDGE('',*,*,#371,.T.);
#285=ORIENTED_EDGE('',*,*,#437,.T.);
#286=ORIENTED_EDGE('',*,*,#354,.T.);
#287=ORIENTED_EDGE('',*,*,#436,.F.);
#288=ORIENTED_EDGE('',*,*,#370,.T.);
#289=ORIENTED_EDGE('',*,*,#438,.T.);
#290=ORIENTED_EDGE('',*,*,#355,.T.);
#291=ORIENTED_EDGE('',*,*,#437,.F.);
#292=ORIENTED_EDGE('',*,*,#439,.T.);
#293=ORIENTED_EDGE('',*,*,#344,.F.);
#294=ORIENTED_EDGE('',*,*,#438,.F.);
#295=ORIENTED_EDGE('',*,*,#369,.F.);
#296=ORIENTED_EDGE('',*,*,#431,.T.);
#297=ORIENTED_EDGE('',*,*,#345,.F.);
#298=ORIENTED_EDGE('',*,*,#439,.F.);
#299=ORIENTED_EDGE('',*,*,#368,.F.);
#300=ORIENTED_EDGE('',*,*,#440,.T.);
#301=ORIENTED_EDGE('',*,*,#400,.F.);
#302=ORIENTED_EDGE('',*,*,#441,.T.);
#303=ORIENTED_EDGE('',*,*,#440,.F.);
#304=ORIENTED_EDGE('',*,*,#441,.F.);
#305=ORIENTED_EDGE('',*,*,#383,.T.);
#306=ORIENTED_EDGE('',*,*,#442,.T.);
#307=ORIENTED_EDGE('',*,*,#401,.F.);
#308=ORIENTED_EDGE('',*,*,#443,.T.);
#309=ORIENTED_EDGE('',*,*,#442,.F.);
#310=ORIENTED_EDGE('',*,*,#443,.F.);
#311=ORIENTED_EDGE('',*,*,#387,.T.);
#312=ORIENTED_EDGE('',*,*,#444,.T.);
#313=ORIENTED_EDGE('',*,*,#403,.F.);
#314=ORIENTED_EDGE('',*,*,#445,.T.);
#315=ORIENTED_EDGE('',*,*,#444,.F.);
#316=ORIENTED_EDGE('',*,*,#445,.F.);
#317=ORIENTED_EDGE('',*,*,#395,.T.);
#318=ORIENTED_EDGE('',*,*,#446,.T.);
#319=ORIENTED_EDGE('',*,*,#402,.F.);
#320=ORIENTED_EDGE('',*,*,#447,.T.);
#321=ORIENTED_EDGE('',*,*,#446,.F.);
#322=ORIENTED_EDGE('',*,*,#447,.F.);
#323=ORIENTED_EDGE('',*,*,#391,.T.);
#324=EDGE_CURVE('',#448,#449,#540,.T.);
#325=EDGE_CURVE('',#450,#448,#32,.T.);
#326=EDGE_CURVE('',#450,#451,#541,.T.);
#327=EDGE_CURVE('',#449,#451,#33,.T.);
#328=EDGE_CURVE('',#452,#453,#34,.T.);
#329=EDGE_CURVE('',#453,#454,#542,.T.);
#330=EDGE_CURVE('',#455,#454,#35,.T.);
#331=EDGE_CURVE('',#452,#455,#543,.T.);
#332=EDGE_CURVE('',#456,#457,#36,.T.);
#333=EDGE_CURVE('',#456,#458,#544,.T.);
#334=EDGE_CURVE('',#459,#458,#37,.T.);
#335=EDGE_CURVE('',#457,#459,#545,.T.);
#336=EDGE_CURVE('',#460,#461,#546,.T.);
#337=EDGE_CURVE('',#460,#462,#547,.T.);
#338=EDGE_CURVE('',#462,#463,#548,.T.);
#339=EDGE_CURVE('',#461,#463,#549,.T.);
#340=EDGE_CURVE('',#464,#465,#550,.T.);
#341=EDGE_CURVE('',#464,#466,#38,.T.);
#342=EDGE_CURVE('',#466,#467,#551,.T.);
#343=EDGE_CURVE('',#465,#467,#39,.T.);
#344=EDGE_CURVE('',#468,#469,#552,.T.);
#345=EDGE_CURVE('',#469,#470,#553,.T.);
#346=EDGE_CURVE('',#470,#471,#554,.T.);
#347=EDGE_CURVE('',#471,#472,#555,.T.);
#348=EDGE_CURVE('',#472,#473,#556,.T.);
#349=EDGE_CURVE('',#473,#474,#557,.T.);
#350=EDGE_CURVE('',#474,#475,#558,.T.);
#351=EDGE_CURVE('',#475,#476,#559,.T.);
#352=EDGE_CURVE('',#477,#476,#560,.T.);
#353=EDGE_CURVE('',#478,#477,#561,.T.);
#354=EDGE_CURVE('',#479,#478,#562,.T.);
#355=EDGE_CURVE('',#468,#479,#563,.T.);
#356=EDGE_CURVE('',#480,#481,#564,.T.);
#357=EDGE_CURVE('',#481,#482,#565,.T.);
#358=EDGE_CURVE('',#483,#482,#566,.T.);
#359=EDGE_CURVE('',#480,#483,#567,.T.);
#360=EDGE_CURVE('',#484,#484,#40,.F.);
#361=EDGE_CURVE('',#485,#485,#41,.F.);
#362=EDGE_CURVE('',#486,#486,#42,.F.);
#363=EDGE_CURVE('',#487,#487,#43,.F.);
#364=EDGE_CURVE('',#488,#488,#44,.T.);
#365=EDGE_CURVE('',#489,#489,#45,.T.);
#366=EDGE_CURVE('',#490,#490,#46,.T.);
#367=EDGE_CURVE('',#491,#491,#47,.T.);
#368=EDGE_CURVE('',#492,#493,#568,.T.);
#369=EDGE_CURVE('',#493,#494,#569,.T.);
#370=EDGE_CURVE('',#495,#494,#570,.T.);
#371=EDGE_CURVE('',#496,#495,#571,.T.);
#372=EDGE_CURVE('',#497,#496,#572,.T.);
#373=EDGE_CURVE('',#498,#497,#573,.T.);
#374=EDGE_CURVE('',#498,#499,#574,.T.);
#375=EDGE_CURVE('',#499,#500,#575,.T.);
#376=EDGE_CURVE('',#500,#501,#576,.T.);
#377=EDGE_CURVE('',#501,#502,#577,.T.);
#378=EDGE_CURVE('',#502,#503,#578,.T.);
#379=EDGE_CURVE('',#503,#492,#579,.T.);
#380=EDGE_CURVE('',#504,#458,#580,.T.);
#381=EDGE_CURVE('',#504,#505,#48,.T.);
#382=EDGE_CURVE('',#505,#459,#581,.T.);
#383=EDGE_CURVE('',#506,#506,#49,.T.);
#384=EDGE_CURVE('',#507,#451,#582,.T.);
#385=EDGE_CURVE('',#507,#508,#50,.T.);
#386=EDGE_CURVE('',#508,#449,#583,.T.);
#387=EDGE_CURVE('',#509,#509,#51,.T.);
#388=EDGE_CURVE('',#510,#454,#584,.T.);
#389=EDGE_CURVE('',#511,#510,#52,.T.);
#390=EDGE_CURVE('',#511,#455,#585,.T.);
#391=EDGE_CURVE('',#512,#512,#53,.T.);
#392=EDGE_CURVE('',#513,#467,#586,.T.);
#393=EDGE_CURVE('',#514,#513,#54,.T.);
#394=EDGE_CURVE('',#514,#465,#587,.T.);
#395=EDGE_CURVE('',#515,#515,#55,.T.);
#396=EDGE_CURVE('',#460,#480,#588,.T.);
#397=EDGE_CURVE('',#461,#481,#589,.T.);
#398=EDGE_CURVE('',#462,#483,#590,.T.);
#399=EDGE_CURVE('',#463,#482,#591,.T.);
#400=EDGE_CURVE('',#516,#516,#56,.T.);
#401=EDGE_CURVE('',#517,#517,#57,.T.);
#402=EDGE_CURVE('',#518,#518,#58,.T.);
#403=EDGE_CURVE('',#519,#519,#59,.T.);
#404=EDGE_CURVE('',#520,#514,#592,.T.);
#405=EDGE_CURVE('',#520,#464,#593,.T.);
#406=EDGE_CURVE('',#521,#466,#594,.T.);
#407=EDGE_CURVE('',#521,#513,#595,.T.);
#408=EDGE_CURVE('',#520,#521,#60,.T.);
#409=EDGE_CURVE('',#522,#453,#596,.T.);
#410=EDGE_CURVE('',#522,#510,#597,.T.);
#411=EDGE_CURVE('',#523,#452,#598,.T.);
#412=EDGE_CURVE('',#523,#522,#61,.T.);
#413=EDGE_CURVE('',#523,#511,#599,.T.);
#414=EDGE_CURVE('',#524,#450,#600,.T.);
#415=EDGE_CURVE('',#524,#507,#601,.T.);
#416=EDGE_CURVE('',#525,#448,#602,.T.);
#417=EDGE_CURVE('',#524,#525,#62,.T.);
#418=EDGE_CURVE('',#525,#508,#603,.T.);
#419=EDGE_CURVE('',#526,#456,#604,.T.);
#420=EDGE_CURVE('',#526,#504,#605,.T.);
#421=EDGE_CURVE('',#527,#457,#606,.T.);
#422=EDGE_CURVE('',#526,#527,#63,.T.);
#423=EDGE_CURVE('',#527,#505,#607,.T.);
#424=EDGE_CURVE('',#528,#528,#64,.T.);
#425=EDGE_CURVE('',#529,#529,#65,.T.);
#426=EDGE_CURVE('',#530,#530,#66,.T.);
#427=EDGE_CURVE('',#531,#531,#67,.T.);
#428=EDGE_CURVE('',#502,#472,#608,.T.);
#429=EDGE_CURVE('',#503,#471,#609,.T.);
#430=EDGE_CURVE('',#501,#473,#610,.T.);
#431=EDGE_CURVE('',#492,#470,#611,.T.);
#432=EDGE_CURVE('',#500,#474,#612,.T.);
#433=EDGE_CURVE('',#499,#475,#613,.T.);
#434=EDGE_CURVE('',#498,#476,#614,.T.);
#435=EDGE_CURVE('',#497,#477,#615,.T.);
#436=EDGE_CURVE('',#496,#478,#616,.T.);
#437=EDGE_CURVE('',#495,#479,#617,.T.);
#438=EDGE_CURVE('',#494,#468,#618,.T.);
#439=EDGE_CURVE('',#493,#469,#619,.T.);
#440=EDGE_CURVE('',#532,#532,#68,.T.);
#441=EDGE_CURVE('',#533,#533,#69,.T.);
#442=EDGE_CURVE('',#534,#534,#70,.T.);
#443=EDGE_CURVE('',#535,#535,#71,.T.);
#444=EDGE_CURVE('',#536,#536,#72,.T.);
#445=EDGE_CURVE('',#537,#537,#73,.T.);
#446=EDGE_CURVE('',#538,#538,#74,.T.);
#447=EDGE_CURVE('',#539,#539,#75,.T.);
#448=VERTEX_POINT('',#1420);
#449=VERTEX_POINT('',#1421);
#450=VERTEX_POINT('',#1423);
#451=VERTEX_POINT('',#1425);
#452=VERTEX_POINT('',#1428);
#453=VERTEX_POINT('',#1429);
#454=VERTEX_POINT('',#1431);
#455=VERTEX_POINT('',#1433);
#456=VERTEX_POINT('',#1436);
#457=VERTEX_POINT('',#1437);
#458=VERTEX_POINT('',#1439);
#459=VERTEX_POINT('',#1441);
#460=VERTEX_POINT('',#1444);
#461=VERTEX_POINT('',#1445);
#462=VERTEX_POINT('',#1447);
#463=VERTEX_POINT('',#1449);
#464=VERTEX_POINT('',#1452);
#465=VERTEX_POINT('',#1453);
#466=VERTEX_POINT('',#1455);
#467=VERTEX_POINT('',#1457);
#468=VERTEX_POINT('',#1460);
#469=VERTEX_POINT('',#1461);
#470=VERTEX_POINT('',#1463);
#471=VERTEX_POINT('',#1465);
#472=VERTEX_POINT('',#1467);
#473=VERTEX_POINT('',#1469);
#474=VERTEX_POINT('',#1471);
#475=VERTEX_POINT('',#1473);
#476=VERTEX_POINT('',#1475);
#477=VERTEX_POINT('',#1477);
#478=VERTEX_POINT('',#1479);
#479=VERTEX_POINT('',#1481);
#480=VERTEX_POINT('',#1485);
#481=VERTEX_POINT('',#1486);
#482=VERTEX_POINT('',#1488);
#483=VERTEX_POINT('',#1490);
#484=VERTEX_POINT('',#1493);
#485=VERTEX_POINT('',#1495);
#486=VERTEX_POINT('',#1497);
#487=VERTEX_POINT('',#1499);
#488=VERTEX_POINT('',#1501);
#489=VERTEX_POINT('',#1503);
#490=VERTEX_POINT('',#1505);
#491=VERTEX_POINT('',#1507);
#492=VERTEX_POINT('',#1509);
#493=VERTEX_POINT('',#1510);
#494=VERTEX_POINT('',#1512);
#495=VERTEX_POINT('',#1514);
#496=VERTEX_POINT('',#1516);
#497=VERTEX_POINT('',#1518);
#498=VERTEX_POINT('',#1520);
#499=VERTEX_POINT('',#1522);
#500=VERTEX_POINT('',#1524);
#501=VERTEX_POINT('',#1526);
#502=VERTEX_POINT('',#1528);
#503=VERTEX_POINT('',#1530);
#504=VERTEX_POINT('',#1534);
#505=VERTEX_POINT('',#1536);
#506=VERTEX_POINT('',#1539);
#507=VERTEX_POINT('',#1542);
#508=VERTEX_POINT('',#1544);
#509=VERTEX_POINT('',#1547);
#510=VERTEX_POINT('',#1550);
#511=VERTEX_POINT('',#1552);
#512=VERTEX_POINT('',#1555);
#513=VERTEX_POINT('',#1558);
#514=VERTEX_POINT('',#1560);
#515=VERTEX_POINT('',#1563);
#516=VERTEX_POINT('',#1574);
#517=VERTEX_POINT('',#1577);
#518=VERTEX_POINT('',#1580);
#519=VERTEX_POINT('',#1583);
#520=VERTEX_POINT('',#1586);
#521=VERTEX_POINT('',#1590);
#522=VERTEX_POINT('',#1597);
#523=VERTEX_POINT('',#1601);
#524=VERTEX_POINT('',#1608);
#525=VERTEX_POINT('',#1612);
#526=VERTEX_POINT('',#1619);
#527=VERTEX_POINT('',#1623);
#528=VERTEX_POINT('',#1630);
#529=VERTEX_POINT('',#1634);
#530=VERTEX_POINT('',#1638);
#531=VERTEX_POINT('',#1642);
#532=VERTEX_POINT('',#1670);
#533=VERTEX_POINT('',#1673);
#534=VERTEX_POINT('',#1677);
#535=VERTEX_POINT('',#1680);
#536=VERTEX_POINT('',#1684);
#537=VERTEX_POINT('',#1687);
#538=VERTEX_POINT('',#1691);
#539=VERTEX_POINT('',#1694);
#540=LINE('',#1419,#620);
#541=LINE('',#1424,#621);
#542=LINE('',#1430,#622);
#543=LINE('',#1434,#623);
#544=LINE('',#1438,#624);
#545=LINE('',#1442,#625);
#546=LINE('',#1443,#626);
#547=LINE('',#1446,#627);
#548=LINE('',#1448,#628);
#549=LINE('',#1450,#629);
#550=LINE('',#1451,#630);
#551=LINE('',#1456,#631);
#552=LINE('',#1459,#632);
#553=LINE('',#1462,#633);
#554=LINE('',#1464,#634);
#555=LINE('',#1466,#635);
#556=LINE('',#1468,#636);
#557=LINE('',#1470,#637);
#558=LINE('',#1472,#638);
#559=LINE('',#1474,#639);
#560=LINE('',#1476,#640);
#561=LINE('',#1478,#641);
#562=LINE('',#1480,#642);
#563=LINE('',#1482,#643);
#564=LINE('',#1484,#644);
#565=LINE('',#1487,#645);
#566=LINE('',#1489,#646);
#567=LINE('',#1491,#647);
#568=LINE('',#1508,#648);
#569=LINE('',#1511,#649);
#570=LINE('',#1513,#650);
#571=LINE('',#1515,#651);
#572=LINE('',#1517,#652);
#573=LINE('',#1519,#653);
#574=LINE('',#1521,#654);
#575=LINE('',#1523,#655);
#576=LINE('',#1525,#656);
#577=LINE('',#1527,#657);
#578=LINE('',#1529,#658);
#579=LINE('',#1531,#659);
#580=LINE('',#1533,#660);
#581=LINE('',#1537,#661);
#582=LINE('',#1541,#662);
#583=LINE('',#1545,#663);
#584=LINE('',#1549,#664);
#585=LINE('',#1553,#665);
#586=LINE('',#1557,#666);
#587=LINE('',#1561,#667);
#588=LINE('',#1565,#668);
#589=LINE('',#1566,#669);
#590=LINE('',#1568,#670);
#591=LINE('',#1570,#671);
#592=LINE('',#1585,#672);
#593=LINE('',#1587,#673);
#594=LINE('',#1589,#674);
#595=LINE('',#1591,#675);
#596=LINE('',#1596,#676);
#597=LINE('',#1598,#677);
#598=LINE('',#1600,#678);
#599=LINE('',#1604,#679);
#600=LINE('',#1607,#680);
#601=LINE('',#1609,#681);
#602=LINE('',#1611,#682);
#603=LINE('',#1615,#683);
#604=LINE('',#1618,#684);
#605=LINE('',#1620,#685);
#606=LINE('',#1622,#686);
#607=LINE('',#1626,#687);
#608=LINE('',#1645,#688);
#609=LINE('',#1646,#689);
#610=LINE('',#1648,#690);
#611=LINE('',#1650,#691);
#612=LINE('',#1652,#692);
#613=LINE('',#1654,#693);
#614=LINE('',#1656,#694);
#615=LINE('',#1658,#695);
#616=LINE('',#1660,#696);
#617=LINE('',#1662,#697);
#618=LINE('',#1664,#698);
#619=LINE('',#1666,#699);
#620=VECTOR('',#1127,1.);
#621=VECTOR('',#1130,1.);
#622=VECTOR('',#1135,1.);
#623=VECTOR('',#1138,1.);
#624=VECTOR('',#1141,1.);
#625=VECTOR('',#1144,1.);
#626=VECTOR('',#1145,1.);
#627=VECTOR('',#1146,1.);
#628=VECTOR('',#1147,1.);
#629=VECTOR('',#1148,1.);
#630=VECTOR('',#1149,1.);
#631=VECTOR('',#1152,1.);
#632=VECTOR('',#1155,1.);
#633=VECTOR('',#1156,1.);
#634=VECTOR('',#1157,1.);
#635=VECTOR('',#1158,1.);
#636=VECTOR('',#1159,1.);
#637=VECTOR('',#1160,1.);
#638=VECTOR('',#1161,1.);
#639=VECTOR('',#1162,1.);
#640=VECTOR('',#1163,1.);
#641=VECTOR('',#1164,1.);
#642=VECTOR('',#1165,1.);
#643=VECTOR('',#1166,1.);
#644=VECTOR('',#1169,1.);
#645=VECTOR('',#1170,1.);
#646=VECTOR('',#1171,1.);
#647=VECTOR('',#1172,1.);
#648=VECTOR('',#1189,1.);
#649=VECTOR('',#1190,1.);
#650=VECTOR('',#1191,1.);
#651=VECTOR('',#1192,1.);
#652=VECTOR('',#1193,1.);
#653=VECTOR('',#1194,1.);
#654=VECTOR('',#1195,1.);
#655=VECTOR('',#1196,1.);
#656=VECTOR('',#1197,1.);
#657=VECTOR('',#1198,1.);
#658=VECTOR('',#1199,1.);
#659=VECTOR('',#1200,1.);
#660=VECTOR('',#1203,1.);
#661=VECTOR('',#1206,1.);
#662=VECTOR('',#1211,1.);
#663=VECTOR('',#1214,1.);
#664=VECTOR('',#1219,1.);
#665=VECTOR('',#1222,1.);
#666=VECTOR('',#1227,1.);
#667=VECTOR('',#1230,1.);
#668=VECTOR('',#1235,1.);
#669=VECTOR('',#1236,1.);
#670=VECTOR('',#1239,1.);
#671=VECTOR('',#1242,1.);
#672=VECTOR('',#1263,1.);
#673=VECTOR('',#1264,1.);
#674=VECTOR('',#1267,1.);
#675=VECTOR('',#1268,1.);
#676=VECTOR('',#1277,1.);
#677=VECTOR('',#1278,1.);
#678=VECTOR('',#1281,1.);
#679=VECTOR('',#1286,1.);
#680=VECTOR('',#1291,1.);
#681=VECTOR('',#1292,1.);
#682=VECTOR('',#1295,1.);
#683=VECTOR('',#1300,1.);
#684=VECTOR('',#1305,1.);
#685=VECTOR('',#1306,1.);
#686=VECTOR('',#1309,1.);
#687=VECTOR('',#1314,1.);
#688=VECTOR('',#1343,1.);
#689=VECTOR('',#1344,1.);
#690=VECTOR('',#1347,1.);
#691=VECTOR('',#1350,1.);
#692=VECTOR('',#1353,1.);
#693=VECTOR('',#1356,1.);
#694=VECTOR('',#1359,1.);
#695=VECTOR('',#1362,1.);
#696=VECTOR('',#1365,1.);
#697=VECTOR('',#1368,1.);
#698=VECTOR('',#1371,1.);
#699=VECTOR('',#1374,1.);
#700=EDGE_LOOP('',(#76,#77,#78,#79));
#701=EDGE_LOOP('',(#80,#81,#82,#83));
#702=EDGE_LOOP('',(#84,#85,#86,#87));
#703=EDGE_LOOP('',(#88,#89,#90,#91));
#704=EDGE_LOOP('',(#92,#93,#94,#95));
#705=EDGE_LOOP('',(#96,#97,#98,#99,#100,#101,#102,#103,#104,#105,#106,#107));
#706=EDGE_LOOP('',(#108,#109,#110,#111));
#707=EDGE_LOOP('',(#112));
#708=EDGE_LOOP('',(#113));
#709=EDGE_LOOP('',(#114));
#710=EDGE_LOOP('',(#115));
#711=EDGE_LOOP('',(#116));
#712=EDGE_LOOP('',(#117));
#713=EDGE_LOOP('',(#118));
#714=EDGE_LOOP('',(#119));
#715=EDGE_LOOP('',(#120,#121,#122,#123,#124,#125,#126,#127,#128,#129,#130,
#131));
#716=EDGE_LOOP('',(#132,#133,#134,#135));
#717=EDGE_LOOP('',(#136));
#718=EDGE_LOOP('',(#137,#138,#139,#140));
#719=EDGE_LOOP('',(#141));
#720=EDGE_LOOP('',(#142,#143,#144,#145));
#721=EDGE_LOOP('',(#146));
#722=EDGE_LOOP('',(#147,#148,#149,#150));
#723=EDGE_LOOP('',(#151));
#724=EDGE_LOOP('',(#152,#153,#154,#155));
#725=EDGE_LOOP('',(#156,#157,#158,#159));
#726=EDGE_LOOP('',(#160,#161,#162,#163));
#727=EDGE_LOOP('',(#164,#165,#166,#167));
#728=EDGE_LOOP('',(#168));
#729=EDGE_LOOP('',(#169));
#730=EDGE_LOOP('',(#170));
#731=EDGE_LOOP('',(#171));
#732=EDGE_LOOP('',(#172));
#733=EDGE_LOOP('',(#173));
#734=EDGE_LOOP('',(#174));
#735=EDGE_LOOP('',(#175));
#736=EDGE_LOOP('',(#176,#177,#178,#179));
#737=EDGE_LOOP('',(#180,#181,#182,#183));
#738=EDGE_LOOP('',(#184,#185,#186,#187));
#739=EDGE_LOOP('',(#188,#189,#190,#191));
#740=EDGE_LOOP('',(#192,#193,#194,#195));
#741=EDGE_LOOP('',(#196,#197,#198,#199));
#742=EDGE_LOOP('',(#200,#201,#202,#203));
#743=EDGE_LOOP('',(#204,#205,#206,#207));
#744=EDGE_LOOP('',(#208,#209,#210,#211));
#745=EDGE_LOOP('',(#212,#213,#214,#215));
#746=EDGE_LOOP('',(#216,#217,#218,#219));
#747=EDGE_LOOP('',(#220,#221,#222,#223));
#748=EDGE_LOOP('',(#224,#225,#226,#227));
#749=EDGE_LOOP('',(#228,#229,#230,#231));
#750=EDGE_LOOP('',(#232,#233,#234,#235));
#751=EDGE_LOOP('',(#236,#237,#238,#239));
#752=EDGE_LOOP('',(#240));
#753=EDGE_LOOP('',(#241));
#754=EDGE_LOOP('',(#242));
#755=EDGE_LOOP('',(#243));
#756=EDGE_LOOP('',(#244));
#757=EDGE_LOOP('',(#245));
#758=EDGE_LOOP('',(#246));
#759=EDGE_LOOP('',(#247));
#760=EDGE_LOOP('',(#248));
#761=EDGE_LOOP('',(#249));
#762=EDGE_LOOP('',(#250));
#763=EDGE_LOOP('',(#251));
#764=EDGE_LOOP('',(#252,#253,#254,#255));
#765=EDGE_LOOP('',(#256,#257,#258,#259));
#766=EDGE_LOOP('',(#260,#261,#262,#263));
#767=EDGE_LOOP('',(#264,#265,#266,#267));
#768=EDGE_LOOP('',(#268,#269,#270,#271));
#769=EDGE_LOOP('',(#272,#273,#274,#275));
#770=EDGE_LOOP('',(#276,#277,#278,#279));
#771=EDGE_LOOP('',(#280,#281,#282,#283));
#772=EDGE_LOOP('',(#284,#285,#286,#287));
#773=EDGE_LOOP('',(#288,#289,#290,#291));
#774=EDGE_LOOP('',(#292,#293,#294,#295));
#775=EDGE_LOOP('',(#296,#297,#298,#299));
#776=EDGE_LOOP('',(#300));
#777=EDGE_LOOP('',(#301));
#778=EDGE_LOOP('',(#302));
#779=EDGE_LOOP('',(#303));
#780=EDGE_LOOP('',(#304));
#781=EDGE_LOOP('',(#305));
#782=EDGE_LOOP('',(#306));
#783=EDGE_LOOP('',(#307));
#784=EDGE_LOOP('',(#308));
#785=EDGE_LOOP('',(#309));
#786=EDGE_LOOP('',(#310));
#787=EDGE_LOOP('',(#311));
#788=EDGE_LOOP('',(#312));
#789=EDGE_LOOP('',(#313));
#790=EDGE_LOOP('',(#314));
#791=EDGE_LOOP('',(#315));
#792=EDGE_LOOP('',(#316));
#793=EDGE_LOOP('',(#317));
#794=EDGE_LOOP('',(#318));
#795=EDGE_LOOP('',(#319));
#796=EDGE_LOOP('',(#320));
#797=EDGE_LOOP('',(#321));
#798=EDGE_LOOP('',(#322));
#799=EDGE_LOOP('',(#323));
#800=FACE_BOUND('',#700,.T.);
#801=FACE_BOUND('',#701,.T.);
#802=FACE_BOUND('',#702,.T.);
#803=FACE_BOUND('',#703,.T.);
#804=FACE_BOUND('',#704,.T.);
#805=FACE_BOUND('',#705,.T.);
#806=FACE_BOUND('',#706,.T.);
#807=FACE_BOUND('',#707,.T.);
#808=FACE_BOUND('',#708,.T.);
#809=FACE_BOUND('',#709,.T.);
#810=FACE_BOUND('',#710,.T.);
#811=FACE_BOUND('',#711,.T.);
#812=FACE_BOUND('',#712,.T.);
#813=FACE_BOUND('',#713,.T.);
#814=FACE_BOUND('',#714,.T.);
#815=FACE_BOUND('',#715,.T.);
#816=FACE_BOUND('',#716,.T.);
#817=FACE_BOUND('',#717,.T.);
#818=FACE_BOUND('',#718,.T.);
#819=FACE_BOUND('',#719,.T.);
#820=FACE_BOUND('',#720,.T.);
#821=FACE_BOUND('',#721,.T.);
#822=FACE_BOUND('',#722,.T.);
#823=FACE_BOUND('',#723,.T.);
#824=FACE_BOUND('',#724,.T.);
#825=FACE_BOUND('',#725,.T.);
#826=FACE_BOUND('',#726,.T.);
#827=FACE_BOUND('',#727,.T.);
#828=FACE_BOUND('',#728,.T.);
#829=FACE_BOUND('',#729,.T.);
#830=FACE_BOUND('',#730,.T.);
#831=FACE_BOUND('',#731,.T.);
#832=FACE_BOUND('',#732,.T.);
#833=FACE_BOUND('',#733,.T.);
#834=FACE_BOUND('',#734,.T.);
#835=FACE_BOUND('',#735,.T.);
#836=FACE_BOUND('',#736,.T.);
#837=FACE_BOUND('',#737,.T.);
#838=FACE_BOUND('',#738,.T.);
#839=FACE_BOUND('',#739,.T.);
#840=FACE_BOUND('',#740,.T.);
#841=FACE_BOUND('',#741,.T.);
#842=FACE_BOUND('',#742,.T.);
#843=FACE_BOUND('',#743,.T.);
#844=FACE_BOUND('',#744,.T.);
#845=FACE_BOUND('',#745,.T.);
#846=FACE_BOUND('',#746,.T.);
#847=FACE_BOUND('',#747,.T.);
#848=FACE_BOUND('',#748,.T.);
#849=FACE_BOUND('',#749,.T.);
#850=FACE_BOUND('',#750,.T.);
#851=FACE_BOUND('',#751,.T.);
#852=FACE_BOUND('',#752,.T.);
#853=FACE_BOUND('',#753,.T.);
#854=FACE_BOUND('',#754,.T.);
#855=FACE_BOUND('',#755,.T.);
#856=FACE_BOUND('',#756,.T.);
#857=FACE_BOUND('',#757,.T.);
#858=FACE_BOUND('',#758,.T.);
#859=FACE_BOUND('',#759,.T.);
#860=FACE_BOUND('',#760,.T.);
#861=FACE_BOUND('',#761,.T.);
#862=FACE_BOUND('',#762,.T.);
#863=FACE_BOUND('',#763,.T.);
#864=FACE_BOUND('',#764,.T.);
#865=FACE_BOUND('',#765,.T.);
#866=FACE_BOUND('',#766,.T.);
#867=FACE_BOUND('',#767,.T.);
#868=FACE_BOUND('',#768,.T.);
#869=FACE_BOUND('',#769,.T.);
#870=FACE_BOUND('',#770,.T.);
#871=FACE_BOUND('',#771,.T.);
#872=FACE_BOUND('',#772,.T.);
#873=FACE_BOUND('',#773,.T.);
#874=FACE_BOUND('',#774,.T.);
#875=FACE_BOUND('',#775,.T.);
#876=FACE_BOUND('',#776,.T.);
#877=FACE_BOUND('',#777,.T.);
#878=FACE_BOUND('',#778,.T.);
#879=FACE_BOUND('',#779,.T.);
#880=FACE_BOUND('',#780,.T.);
#881=FACE_BOUND('',#781,.T.);
#882=FACE_BOUND('',#782,.T.);
#883=FACE_BOUND('',#783,.T.);
#884=FACE_BOUND('',#784,.T.);
#885=FACE_BOUND('',#785,.T.);
#886=FACE_BOUND('',#786,.T.);
#887=FACE_BOUND('',#787,.T.);
#888=FACE_BOUND('',#788,.T.);
#889=FACE_BOUND('',#789,.T.);
#890=FACE_BOUND('',#790,.T.);
#891=FACE_BOUND('',#791,.T.);
#892=FACE_BOUND('',#792,.T.);
#893=FACE_BOUND('',#793,.T.);
#894=FACE_BOUND('',#794,.T.);
#895=FACE_BOUND('',#795,.T.);
#896=FACE_BOUND('',#796,.T.);
#897=FACE_BOUND('',#797,.T.);
#898=FACE_BOUND('',#798,.T.);
#899=FACE_BOUND('',#799,.T.);
#900=PLANE('',#1017);
#901=PLANE('',#1026);
#902=PLANE('',#1047);
#903=PLANE('',#1048);
#904=PLANE('',#1049);
#905=PLANE('',#1050);
#906=PLANE('',#1059);
#907=PLANE('',#1060);
#908=PLANE('',#1063);
#909=PLANE('',#1064);
#910=PLANE('',#1067);
#911=PLANE('',#1068);
#912=PLANE('',#1069);
#913=PLANE('',#1072);
#914=PLANE('',#1073);
#915=PLANE('',#1074);
#916=PLANE('',#1077);
#917=PLANE('',#1078);
#918=PLANE('',#1081);
#919=PLANE('',#1084);
#920=PLANE('',#1087);
#921=PLANE('',#1090);
#922=PLANE('',#1091);
#923=PLANE('',#1092);
#924=PLANE('',#1093);
#925=PLANE('',#1094);
#926=PLANE('',#1095);
#927=PLANE('',#1096);
#928=PLANE('',#1097);
#929=PLANE('',#1098);
#930=PLANE('',#1099);
#931=PLANE('',#1100);
#932=PLANE('',#1101);
#933=PLANE('',#1102);
#934=PLANE('',#1103);
#935=PLANE('',#1107);
#936=PLANE('',#1108);
#937=PLANE('',#1112);
#938=PLANE('',#1113);
#939=PLANE('',#1117);
#940=PLANE('',#1118);
#941=PLANE('',#1122);
#942=ADVANCED_FACE('',(#800,#801,#802,#803,#804,#805),#900,.T.);
#943=ADVANCED_FACE('',(#806,#807,#808,#809,#810,#811,#812,#813,#814,#815),
#901,.F.);
#944=ADVANCED_FACE('',(#816,#817),#12,.T.);
#945=ADVANCED_FACE('',(#818,#819),#13,.T.);
#946=ADVANCED_FACE('',(#820,#821),#14,.T.);
#947=ADVANCED_FACE('',(#822,#823),#15,.T.);
#948=ADVANCED_FACE('',(#824),#902,.T.);
#949=ADVANCED_FACE('',(#825),#903,.F.);
#950=ADVANCED_FACE('',(#826),#904,.F.);
#951=ADVANCED_FACE('',(#827),#905,.T.);
#952=ADVANCED_FACE('',(#828,#829),#16,.F.);
#953=ADVANCED_FACE('',(#830,#831),#17,.F.);
#954=ADVANCED_FACE('',(#832,#833),#18,.F.);
#955=ADVANCED_FACE('',(#834,#835),#19,.F.);
#956=ADVANCED_FACE('',(#836),#906,.F.);
#957=ADVANCED_FACE('',(#837),#907,.T.);
#958=ADVANCED_FACE('',(#838),#20,.T.);
#959=ADVANCED_FACE('',(#839),#908,.T.);
#960=ADVANCED_FACE('',(#840),#909,.T.);
#961=ADVANCED_FACE('',(#841),#21,.T.);
#962=ADVANCED_FACE('',(#842),#910,.F.);
#963=ADVANCED_FACE('',(#843),#911,.T.);
#964=ADVANCED_FACE('',(#844),#912,.T.);
#965=ADVANCED_FACE('',(#845),#22,.T.);
#966=ADVANCED_FACE('',(#846),#913,.F.);
#967=ADVANCED_FACE('',(#847),#914,.T.);
#968=ADVANCED_FACE('',(#848),#915,.T.);
#969=ADVANCED_FACE('',(#849),#23,.T.);
#970=ADVANCED_FACE('',(#850),#916,.F.);
#971=ADVANCED_FACE('',(#851),#917,.T.);
#972=ADVANCED_FACE('',(#852,#853),#24,.F.);
#973=ADVANCED_FACE('',(#854),#918,.T.);
#974=ADVANCED_FACE('',(#855,#856),#25,.F.);
#975=ADVANCED_FACE('',(#857),#919,.T.);
#976=ADVANCED_FACE('',(#858,#859),#26,.F.);
#977=ADVANCED_FACE('',(#860),#920,.T.);
#978=ADVANCED_FACE('',(#861,#862),#27,.F.);
#979=ADVANCED_FACE('',(#863),#921,.T.);
#980=ADVANCED_FACE('',(#864),#922,.T.);
#981=ADVANCED_FACE('',(#865),#923,.T.);
#982=ADVANCED_FACE('',(#866),#924,.T.);
#983=ADVANCED_FACE('',(#867),#925,.T.);
#984=ADVANCED_FACE('',(#868),#926,.T.);
#985=ADVANCED_FACE('',(#869),#927,.T.);
#986=ADVANCED_FACE('',(#870),#928,.F.);
#987=ADVANCED_FACE('',(#871),#929,.F.);
#988=ADVANCED_FACE('',(#872),#930,.F.);
#989=ADVANCED_FACE('',(#873),#931,.F.);
#990=ADVANCED_FACE('',(#874),#932,.T.);
#991=ADVANCED_FACE('',(#875),#933,.T.);
#992=ADVANCED_FACE('',(#876,#877),#934,.F.);
#993=ADVANCED_FACE('',(#878,#879),#28,.F.);
#994=ADVANCED_FACE('',(#880,#881),#935,.T.);
#995=ADVANCED_FACE('',(#882,#883),#936,.F.);
#996=ADVANCED_FACE('',(#884,#885),#29,.F.);
#997=ADVANCED_FACE('',(#886,#887),#937,.T.);
#998=ADVANCED_FACE('',(#888,#889),#938,.F.);
#999=ADVANCED_FACE('',(#890,#891),#30,.F.);
#1000=ADVANCED_FACE('',(#892,#893),#939,.T.);
#1001=ADVANCED_FACE('',(#894,#895),#940,.F.);
#1002=ADVANCED_FACE('',(#896,#897),#31,.F.);
#1003=ADVANCED_FACE('',(#898,#899),#941,.T.);
#1004=CLOSED_SHELL('',(#942,#943,#944,#945,#946,#947,#948,#949,#950,#951,
#952,#953,#954,#955,#956,#957,#958,#959,#960,#961,#962,#963,#964,#965,#966,
#967,#968,#969,#970,#971,#972,#973,#974,#975,#976,#977,#978,#979,#980,#981,
#982,#983,#984,#985,#986,#987,#988,#989,#990,#991,#992,#993,#994,#995,#996,
#997,#998,#999,#1000,#1001,#1002,#1003));
#1005=STYLED_ITEM('',(#1006),#1013);
#1006=PRESENTATION_STYLE_ASSIGNMENT((#1007));
#1007=SURFACE_STYLE_USAGE(.BOTH.,#1008);
#1008=SURFACE_SIDE_STYLE('',(#1009));
#1009=SURFACE_STYLE_FILL_AREA(#1010);
#1010=FILL_AREA_STYLE('',(#1011));
#1011=FILL_AREA_STYLE_COLOUR('',#1012);
#1012=COLOUR_RGB('',0.372549019607843,0.654901960784314,0.23921568627451);
#1013=MANIFOLD_SOLID_BREP('Part 1',#1004);
#1014=SHAPE_DEFINITION_REPRESENTATION(#1702,#1015);
#1015=SHAPE_REPRESENTATION('Part 1',(#1016),#1697);
#1016=AXIS2_PLACEMENT_3D('',#1417,#1123,#1124);
#1017=AXIS2_PLACEMENT_3D('',#1418,#1125,#1126);
#1018=AXIS2_PLACEMENT_3D('',#1422,#1128,#1129);
#1019=AXIS2_PLACEMENT_3D('',#1426,#1131,#1132);
#1020=AXIS2_PLACEMENT_3D('',#1427,#1133,#1134);
#1021=AXIS2_PLACEMENT_3D('',#1432,#1136,#1137);
#1022=AXIS2_PLACEMENT_3D('',#1435,#1139,#1140);
#1023=AXIS2_PLACEMENT_3D('',#1440,#1142,#1143);
#1024=AXIS2_PLACEMENT_3D('',#1454,#1150,#1151);
#1025=AXIS2_PLACEMENT_3D('',#1458,#1153,#1154);
#1026=AXIS2_PLACEMENT_3D('',#1483,#1167,#1168);
#1027=AXIS2_PLACEMENT_3D('',#1492,#1173,#1174);
#1028=AXIS2_PLACEMENT_3D('',#1494,#1175,#1176);
#1029=AXIS2_PLACEMENT_3D('',#1496,#1177,#1178);
#1030=AXIS2_PLACEMENT_3D('',#1498,#1179,#1180);
#1031=AXIS2_PLACEMENT_3D('',#1500,#1181,#1182);
#1032=AXIS2_PLACEMENT_3D('',#1502,#1183,#1184);
#1033=AXIS2_PLACEMENT_3D('',#1504,#1185,#1186);
#1034=AXIS2_PLACEMENT_3D('',#1506,#1187,#1188);
#1035=AXIS2_PLACEMENT_3D('',#1532,#1201,#1202);
#1036=AXIS2_PLACEMENT_3D('',#1535,#1204,#1205);
#1037=AXIS2_PLACEMENT_3D('',#1538,#1207,#1208);
#1038=AXIS2_PLACEMENT_3D('',#1540,#1209,#1210);
#1039=AXIS2_PLACEMENT_3D('',#1543,#1212,#1213);
#1040=AXIS2_PLACEMENT_3D('',#1546,#1215,#1216);
#1041=AXIS2_PLACEMENT_3D('',#1548,#1217,#1218);
#1042=AXIS2_PLACEMENT_3D('',#1551,#1220,#1221);
#1043=AXIS2_PLACEMENT_3D('',#1554,#1223,#1224);
#1044=AXIS2_PLACEMENT_3D('',#1556,#1225,#1226);
#1045=AXIS2_PLACEMENT_3D('',#1559,#1228,#1229);
#1046=AXIS2_PLACEMENT_3D('',#1562,#1231,#1232);
#1047=AXIS2_PLACEMENT_3D('',#1564,#1233,#1234);
#1048=AXIS2_PLACEMENT_3D('',#1567,#1237,#1238);
#1049=AXIS2_PLACEMENT_3D('',#1569,#1240,#1241);
#1050=AXIS2_PLACEMENT_3D('',#1571,#1243,#1244);
#1051=AXIS2_PLACEMENT_3D('',#1572,#1245,#1246);
#1052=AXIS2_PLACEMENT_3D('',#1573,#1247,#1248);
#1053=AXIS2_PLACEMENT_3D('',#1575,#1249,#1250);
#1054=AXIS2_PLACEMENT_3D('',#1576,#1251,#1252);
#1055=AXIS2_PLACEMENT_3D('',#1578,#1253,#1254);
#1056=AXIS2_PLACEMENT_3D('',#1579,#1255,#1256);
#1057=AXIS2_PLACEMENT_3D('',#1581,#1257,#1258);
#1058=AXIS2_PLACEMENT_3D('',#1582,#1259,#1260);
#1059=AXIS2_PLACEMENT_3D('',#1584,#1261,#1262);
#1060=AXIS2_PLACEMENT_3D('',#1588,#1265,#1266);
#1061=AXIS2_PLACEMENT_3D('',#1592,#1269,#1270);
#1062=AXIS2_PLACEMENT_3D('',#1593,#1271,#1272);
#1063=AXIS2_PLACEMENT_3D('',#1594,#1273,#1274);
#1064=AXIS2_PLACEMENT_3D('',#1595,#1275,#1276);
#1065=AXIS2_PLACEMENT_3D('',#1599,#1279,#1280);
#1066=AXIS2_PLACEMENT_3D('',#1602,#1282,#1283);
#1067=AXIS2_PLACEMENT_3D('',#1603,#1284,#1285);
#1068=AXIS2_PLACEMENT_3D('',#1605,#1287,#1288);
#1069=AXIS2_PLACEMENT_3D('',#1606,#1289,#1290);
#1070=AXIS2_PLACEMENT_3D('',#1610,#1293,#1294);
#1071=AXIS2_PLACEMENT_3D('',#1613,#1296,#1297);
#1072=AXIS2_PLACEMENT_3D('',#1614,#1298,#1299);
#1073=AXIS2_PLACEMENT_3D('',#1616,#1301,#1302);
#1074=AXIS2_PLACEMENT_3D('',#1617,#1303,#1304);
#1075=AXIS2_PLACEMENT_3D('',#1621,#1307,#1308);
#1076=AXIS2_PLACEMENT_3D('',#1624,#1310,#1311);
#1077=AXIS2_PLACEMENT_3D('',#1625,#1312,#1313);
#1078=AXIS2_PLACEMENT_3D('',#1627,#1315,#1316);
#1079=AXIS2_PLACEMENT_3D('',#1628,#1317,#1318);
#1080=AXIS2_PLACEMENT_3D('',#1629,#1319,#1320);
#1081=AXIS2_PLACEMENT_3D('',#1631,#1321,#1322);
#1082=AXIS2_PLACEMENT_3D('',#1632,#1323,#1324);
#1083=AXIS2_PLACEMENT_3D('',#1633,#1325,#1326);
#1084=AXIS2_PLACEMENT_3D('',#1635,#1327,#1328);
#1085=AXIS2_PLACEMENT_3D('',#1636,#1329,#1330);
#1086=AXIS2_PLACEMENT_3D('',#1637,#1331,#1332);
#1087=AXIS2_PLACEMENT_3D('',#1639,#1333,#1334);
#1088=AXIS2_PLACEMENT_3D('',#1640,#1335,#1336);
#1089=AXIS2_PLACEMENT_3D('',#1641,#1337,#1338);
#1090=AXIS2_PLACEMENT_3D('',#1643,#1339,#1340);
#1091=AXIS2_PLACEMENT_3D('',#1644,#1341,#1342);
#1092=AXIS2_PLACEMENT_3D('',#1647,#1345,#1346);
#1093=AXIS2_PLACEMENT_3D('',#1649,#1348,#1349);
#1094=AXIS2_PLACEMENT_3D('',#1651,#1351,#1352);
#1095=AXIS2_PLACEMENT_3D('',#1653,#1354,#1355);
#1096=AXIS2_PLACEMENT_3D('',#1655,#1357,#1358);
#1097=AXIS2_PLACEMENT_3D('',#1657,#1360,#1361);
#1098=AXIS2_PLACEMENT_3D('',#1659,#1363,#1364);
#1099=AXIS2_PLACEMENT_3D('',#1661,#1366,#1367);
#1100=AXIS2_PLACEMENT_3D('',#1663,#1369,#1370);
#1101=AXIS2_PLACEMENT_3D('',#1665,#1372,#1373);
#1102=AXIS2_PLACEMENT_3D('',#1667,#1375,#1376);
#1103=AXIS2_PLACEMENT_3D('',#1668,#1377,#1378);
#1104=AXIS2_PLACEMENT_3D('',#1669,#1379,#1380);
#1105=AXIS2_PLACEMENT_3D('',#1671,#1381,#1382);
#1106=AXIS2_PLACEMENT_3D('',#1672,#1383,#1384);
#1107=AXIS2_PLACEMENT_3D('',#1674,#1385,#1386);
#1108=AXIS2_PLACEMENT_3D('',#1675,#1387,#1388);
#1109=AXIS2_PLACEMENT_3D('',#1676,#1389,#1390);
#1110=AXIS2_PLACEMENT_3D('',#1678,#1391,#1392);
#1111=AXIS2_PLACEMENT_3D('',#1679,#1393,#1394);
#1112=AXIS2_PLACEMENT_3D('',#1681,#1395,#1396);
#1113=AXIS2_PLACEMENT_3D('',#1682,#1397,#1398);
#1114=AXIS2_PLACEMENT_3D('',#1683,#1399,#1400);
#1115=AXIS2_PLACEMENT_3D('',#1685,#1401,#1402);
#1116=AXIS2_PLACEMENT_3D('',#1686,#1403,#1404);
#1117=AXIS2_PLACEMENT_3D('',#1688,#1405,#1406);
#1118=AXIS2_PLACEMENT_3D('',#1689,#1407,#1408);
#1119=AXIS2_PLACEMENT_3D('',#1690,#1409,#1410);
#1120=AXIS2_PLACEMENT_3D('',#1692,#1411,#1412);
#1121=AXIS2_PLACEMENT_3D('',#1693,#1413,#1414);
#1122=AXIS2_PLACEMENT_3D('',#1695,#1415,#1416);
#1123=DIRECTION('',(0.,0.,1.));
#1124=DIRECTION('',(1.,0.,0.));
#1125=DIRECTION('',(0.,0.,1.));
#1126=DIRECTION('',(1.,0.,0.));
#1127=DIRECTION('',(-0.703962190892346,-0.710237448881745,0.));
#1128=DIRECTION('',(0.,0.,1.));
#1129=DIRECTION('',(1.,0.,0.));
#1130=DIRECTION('',(-0.384849110163127,-0.922979502701251,0.));
#1131=DIRECTION('',(0.,0.,1.));
#1132=DIRECTION('',(1.,0.,0.));
#1133=DIRECTION('',(0.,0.,-1.));
#1134=DIRECTION('',(1.,0.,0.));
#1135=DIRECTION('',(-0.703962190892346,0.710237448881744,0.));
#1136=DIRECTION('',(0.,0.,1.));
#1137=DIRECTION('',(1.,0.,0.));
#1138=DIRECTION('',(-0.384849110163128,0.922979502701251,0.));
#1139=DIRECTION('',(0.,0.,1.));
#1140=DIRECTION('',(1.,0.,0.));
#1141=DIRECTION('',(0.384849110163127,0.922979502701252,0.));
#1142=DIRECTION('',(0.,0.,1.));
#1143=DIRECTION('',(1.,0.,0.));
#1144=DIRECTION('',(0.703962190892346,0.710237448881745,0.));
#1145=DIRECTION('',(1.,0.,0.));
#1146=DIRECTION('',(0.,-1.,0.));
#1147=DIRECTION('',(1.,0.,0.));
#1148=DIRECTION('',(-3.51336400197835E-16,-1.,0.));
#1149=DIRECTION('',(0.384849110163127,-0.922979502701252,0.));
#1150=DIRECTION('',(0.,0.,-1.));
#1151=DIRECTION('',(1.,0.,0.));
#1152=DIRECTION('',(0.703962190892346,-0.710237448881745,0.));
#1153=DIRECTION('',(0.,0.,1.));
#1154=DIRECTION('',(1.,0.,0.));
#1155=DIRECTION('',(0.,1.,0.));
#1156=DIRECTION('',(-1.,0.,0.));
#1157=DIRECTION('',(-1.19049650312134E-16,1.,0.));
#1158=DIRECTION('',(1.,0.,0.));
#1159=DIRECTION('',(0.,1.,0.));
#1160=DIRECTION('',(1.,-1.64095463943749E-16,0.));
#1161=DIRECTION('',(0.,-1.,0.));
#1162=DIRECTION('',(1.,0.,0.));
#1163=DIRECTION('',(2.66880534765663E-16,1.,0.));
#1164=DIRECTION('',(1.,0.,0.));
#1165=DIRECTION('',(0.,1.,0.));
#1166=DIRECTION('',(1.,0.,0.));
#1167=DIRECTION('',(0.,0.,1.));
#1168=DIRECTION('',(1.,0.,0.));
#1169=DIRECTION('',(1.,0.,0.));
#1170=DIRECTION('',(-3.51336400197835E-16,-1.,0.));
#1171=DIRECTION('',(1.,0.,0.));
#1172=DIRECTION('',(0.,-1.,0.));
#1173=DIRECTION('',(0.,0.,1.));
#1174=DIRECTION('',(1.,0.,0.));
#1175=DIRECTION('',(0.,0.,1.));
#1176=DIRECTION('',(1.,0.,0.));
#1177=DIRECTION('',(0.,0.,1.));
#1178=DIRECTION('',(1.,0.,0.));
#1179=DIRECTION('',(0.,0.,1.));
#1180=DIRECTION('',(1.,0.,0.));
#1181=DIRECTION('',(0.,0.,-1.));
#1182=DIRECTION('',(-1.,0.,0.));
#1183=DIRECTION('',(0.,0.,-1.));
#1184=DIRECTION('',(-1.,0.,0.));
#1185=DIRECTION('',(0.,0.,-1.));
#1186=DIRECTION('',(-1.,0.,0.));
#1187=DIRECTION('',(0.,0.,-1.));
#1188=DIRECTION('',(-1.,0.,0.));
#1189=DIRECTION('',(1.,0.,0.));
#1190=DIRECTION('',(0.,-1.,0.));
#1191=DIRECTION('',(-1.,0.,0.));
#1192=DIRECTION('',(0.,-1.,0.));
#1193=DIRECTION('',(-1.,0.,0.));
#1194=DIRECTION('',(-2.66880534765663E-16,-1.,0.));
#1195=DIRECTION('',(-1.,0.,0.));
#1196=DIRECTION('',(0.,1.,0.));
#1197=DIRECTION('',(-1.,1.6409546394375E-16,0.));
#1198=DIRECTION('',(0.,-1.,0.));
#1199=DIRECTION('',(-1.,0.,0.));
#1200=DIRECTION('',(1.19049650312134E-16,-1.,0.));
#1201=DIRECTION('',(0.,0.,-1.));
#1202=DIRECTION('',(-1.,0.,0.));
#1203=DIRECTION('',(0.,0.,-1.));
#1204=DIRECTION('',(0.,0.,1.));
#1205=DIRECTION('',(1.,0.,0.));
#1206=DIRECTION('',(0.,0.,-1.));
#1207=DIRECTION('',(0.,0.,1.));
#1208=DIRECTION('',(1.,0.,0.));
#1209=DIRECTION('',(0.,0.,-1.));
#1210=DIRECTION('',(-1.,0.,0.));
#1211=DIRECTION('',(0.,0.,-1.));
#1212=DIRECTION('',(0.,0.,1.));
#1213=DIRECTION('',(1.,0.,0.));
#1214=DIRECTION('',(0.,0.,-1.));
#1215=DIRECTION('',(0.,0.,1.));
#1216=DIRECTION('',(1.,0.,0.));
#1217=DIRECTION('',(0.,0.,-1.));
#1218=DIRECTION('',(-1.,0.,0.));
#1219=DIRECTION('',(0.,0.,-1.));
#1220=DIRECTION('',(0.,0.,-1.));
#1221=DIRECTION('',(1.,0.,0.));
#1222=DIRECTION('',(0.,0.,-1.));
#1223=DIRECTION('',(0.,0.,1.));
#1224=DIRECTION('',(1.,0.,0.));
#1225=DIRECTION('',(0.,0.,-1.));
#1226=DIRECTION('',(-1.,0.,0.));
#1227=DIRECTION('',(0.,0.,-1.));
#1228=DIRECTION('',(0.,0.,-1.));
#1229=DIRECTION('',(1.,0.,0.));
#1230=DIRECTION('',(0.,0.,-1.));
#1231=DIRECTION('',(0.,0.,1.));
#1232=DIRECTION('',(1.,0.,0.));
#1233=DIRECTION('',(0.,1.,0.));
#1234=DIRECTION('',(0.,0.,1.));
#1235=DIRECTION('',(0.,0.,-1.));
#1236=DIRECTION('',(0.,0.,-1.));
#1237=DIRECTION('',(1.,0.,0.));
#1238=DIRECTION('',(0.,0.,-1.));
#1239=DIRECTION('',(0.,0.,-1.));
#1240=DIRECTION('',(0.,1.,0.));
#1241=DIRECTION('',(0.,0.,1.));
#1242=DIRECTION('',(0.,0.,-1.));
#1243=DIRECTION('',(1.,-3.51336400197835E-16,0.));
#1244=DIRECTION('',(3.51336400197835E-16,1.,0.));
#1245=DIRECTION('',(0.,0.,-1.));
#1246=DIRECTION('',(-1.,0.,0.));
#1247=DIRECTION('',(0.,0.,1.));
#1248=DIRECTION('',(1.,0.,0.));
#1249=DIRECTION('',(0.,0.,-1.));
#1250=DIRECTION('',(-1.,0.,0.));
#1251=DIRECTION('',(0.,0.,1.));
#1252=DIRECTION('',(1.,0.,0.));
#1253=DIRECTION('',(0.,0.,-1.));
#1254=DIRECTION('',(-1.,0.,0.));
#1255=DIRECTION('',(0.,0.,1.));
#1256=DIRECTION('',(1.,0.,0.));
#1257=DIRECTION('',(0.,0.,-1.));
#1258=DIRECTION('',(-1.,0.,0.));
#1259=DIRECTION('',(0.,0.,1.));
#1260=DIRECTION('',(1.,0.,0.));
#1261=DIRECTION('',(0.922979502701251,0.384849110163127,0.));
#1262=DIRECTION('',(-0.384849110163127,0.922979502701251,0.));
#1263=DIRECTION('',(0.384849110163127,-0.922979502701252,0.));
#1264=DIRECTION('',(0.,0.,-1.));
#1265=DIRECTION('',(0.710237448881745,0.703962190892346,0.));
#1266=DIRECTION('',(-0.703962190892346,0.710237448881745,0.));
#1267=DIRECTION('',(0.,0.,-1.));
#1268=DIRECTION('',(0.703962190892346,-0.710237448881745,0.));
#1269=DIRECTION('',(0.,0.,-1.));
#1270=DIRECTION('',(-1.,0.,0.));
#1271=DIRECTION('',(0.,0.,-1.));
#1272=DIRECTION('',(1.,0.,0.));
#1273=DIRECTION('',(0.,0.,1.));
#1274=DIRECTION('',(1.,0.,0.));
#1275=DIRECTION('',(-0.710237448881744,-0.703962190892346,0.));
#1276=DIRECTION('',(0.703962190892346,-0.710237448881744,0.));
#1277=DIRECTION('',(0.,0.,-1.));
#1278=DIRECTION('',(-0.703962190892346,0.710237448881744,0.));
#1279=DIRECTION('',(0.,0.,-1.));
#1280=DIRECTION('',(-1.,0.,0.));
#1281=DIRECTION('',(0.,0.,-1.));
#1282=DIRECTION('',(0.,0.,-1.));
#1283=DIRECTION('',(1.,0.,0.));
#1284=DIRECTION('',(-0.922979502701251,-0.384849110163128,0.));
#1285=DIRECTION('',(0.384849110163128,-0.922979502701251,0.));
#1286=DIRECTION('',(-0.384849110163128,0.922979502701251,0.));
#1287=DIRECTION('',(0.,0.,1.));
#1288=DIRECTION('',(1.,0.,0.));
#1289=DIRECTION('',(0.922979502701251,-0.384849110163127,0.));
#1290=DIRECTION('',(0.384849110163127,0.922979502701251,0.));
#1291=DIRECTION('',(0.,0.,-1.));
#1292=DIRECTION('',(-0.384849110163127,-0.922979502701251,0.));
#1293=DIRECTION('',(0.,0.,-1.));
#1294=DIRECTION('',(-1.,0.,0.));
#1295=DIRECTION('',(0.,0.,-1.));
#1296=DIRECTION('',(0.,0.,1.));
#1297=DIRECTION('',(1.,0.,0.));
#1298=DIRECTION('',(0.710237448881745,-0.703962190892346,0.));
#1299=DIRECTION('',(0.703962190892346,0.710237448881745,0.));
#1300=DIRECTION('',(-0.703962190892346,-0.710237448881745,0.));
#1301=DIRECTION('',(0.,0.,1.));
#1302=DIRECTION('',(1.,0.,0.));
#1303=DIRECTION('',(-0.922979502701251,0.384849110163127,0.));
#1304=DIRECTION('',(-0.384849110163127,-0.922979502701252,0.));
#1305=DIRECTION('',(0.,0.,-1.));
#1306=DIRECTION('',(0.384849110163127,0.922979502701252,0.));
#1307=DIRECTION('',(0.,0.,-1.));
#1308=DIRECTION('',(-1.,0.,0.));
#1309=DIRECTION('',(0.,0.,-1.));
#1310=DIRECTION('',(0.,0.,1.));
#1311=DIRECTION('',(1.,0.,0.));
#1312=DIRECTION('',(-0.710237448881745,0.703962190892346,0.));
#1313=DIRECTION('',(-0.703962190892346,-0.710237448881745,0.));
#1314=DIRECTION('',(0.703962190892346,0.710237448881745,0.));
#1315=DIRECTION('',(0.,0.,1.));
#1316=DIRECTION('',(1.,0.,0.));
#1317=DIRECTION('',(0.,0.,-1.));
#1318=DIRECTION('',(-1.,0.,0.));
#1319=DIRECTION('',(0.,0.,-1.));
#1320=DIRECTION('',(-1.,0.,0.));
#1321=DIRECTION('',(0.,0.,-1.));
#1322=DIRECTION('',(1.,0.,0.));
#1323=DIRECTION('',(0.,0.,-1.));
#1324=DIRECTION('',(-1.,0.,0.));
#1325=DIRECTION('',(0.,0.,-1.));
#1326=DIRECTION('',(-1.,0.,0.));
#1327=DIRECTION('',(0.,0.,-1.));
#1328=DIRECTION('',(1.,0.,0.));
#1329=DIRECTION('',(0.,0.,-1.));
#1330=DIRECTION('',(-1.,0.,0.));
#1331=DIRECTION('',(0.,0.,-1.));
#1332=DIRECTION('',(-1.,0.,0.));
#1333=DIRECTION('',(0.,0.,-1.));
#1334=DIRECTION('',(1.,0.,0.));
#1335=DIRECTION('',(0.,0.,-1.));
#1336=DIRECTION('',(-1.,0.,0.));
#1337=DIRECTION('',(0.,0.,-1.));
#1338=DIRECTION('',(-1.,0.,0.));
#1339=DIRECTION('',(0.,0.,-1.));
#1340=DIRECTION('',(1.,0.,0.));
#1341=DIRECTION('',(0.,-1.,0.));
#1342=DIRECTION('',(0.,0.,-1.));
#1343=DIRECTION('',(0.,0.,1.));
#1344=DIRECTION('',(0.,0.,1.));
#1345=DIRECTION('',(1.,0.,0.));
#1346=DIRECTION('',(0.,0.,-1.));
#1347=DIRECTION('',(0.,0.,1.));
#1348=DIRECTION('',(1.,1.19049650312134E-16,0.));
#1349=DIRECTION('',(-1.19049650312134E-16,1.,0.));
#1350=DIRECTION('',(0.,0.,1.));
#1351=DIRECTION('',(-1.6409546394375E-16,-1.,0.));
#1352=DIRECTION('',(1.,-1.6409546394375E-16,0.));
#1353=DIRECTION('',(0.,0.,1.));
#1354=DIRECTION('',(-1.,0.,0.));
#1355=DIRECTION('',(0.,0.,1.));
#1356=DIRECTION('',(0.,0.,1.));
#1357=DIRECTION('',(0.,-1.,0.));
#1358=DIRECTION('',(0.,0.,-1.));
#1359=DIRECTION('',(0.,0.,1.));
#1360=DIRECTION('',(1.,-2.66880534765663E-16,0.));
#1361=DIRECTION('',(2.66880534765663E-16,1.,0.));
#1362=DIRECTION('',(0.,0.,1.));
#1363=DIRECTION('',(0.,-1.,0.));
#1364=DIRECTION('',(0.,0.,-1.));
#1365=DIRECTION('',(0.,0.,1.));
#1366=DIRECTION('',(1.,0.,0.));
#1367=DIRECTION('',(0.,0.,-1.));
#1368=DIRECTION('',(0.,0.,1.));
#1369=DIRECTION('',(0.,-1.,0.));
#1370=DIRECTION('',(0.,0.,-1.));
#1371=DIRECTION('',(0.,0.,1.));
#1372=DIRECTION('',(1.,0.,0.));
#1373=DIRECTION('',(0.,0.,-1.));
#1374=DIRECTION('',(0.,0.,1.));
#1375=DIRECTION('',(0.,1.,0.));
#1376=DIRECTION('',(0.,0.,1.));
#1377=DIRECTION('',(0.,0.,1.));
#1378=DIRECTION('',(1.,0.,0.));
#1379=DIRECTION('',(0.,0.,1.));
#1380=DIRECTION('',(1.,0.,0.));
#1381=DIRECTION('',(0.,0.,-1.));
#1382=DIRECTION('',(-1.,0.,0.));
#1383=DIRECTION('',(0.,0.,1.));
#1384=DIRECTION('',(1.,0.,0.));
#1385=DIRECTION('',(0.,0.,1.));
#1386=DIRECTION('',(1.,0.,0.));
#1387=DIRECTION('',(0.,0.,1.));
#1388=DIRECTION('',(1.,0.,0.));
#1389=DIRECTION('',(0.,0.,1.));
#1390=DIRECTION('',(1.,0.,0.));
#1391=DIRECTION('',(0.,0.,-1.));
#1392=DIRECTION('',(-1.,0.,0.));
#1393=DIRECTION('',(0.,0.,1.));
#1394=DIRECTION('',(1.,0.,0.));
#1395=DIRECTION('',(0.,0.,1.));
#1396=DIRECTION('',(1.,0.,0.));
#1397=DIRECTION('',(0.,0.,1.));
#1398=DIRECTION('',(1.,0.,0.));
#1399=DIRECTION('',(0.,0.,1.));
#1400=DIRECTION('',(1.,0.,0.));
#1401=DIRECTION('',(0.,0.,-1.));
#1402=DIRECTION('',(-1.,0.,0.));
#1403=DIRECTION('',(0.,0.,1.));
#1404=DIRECTION('',(1.,0.,0.));
#1405=DIRECTION('',(0.,0.,1.));
#1406=DIRECTION('',(1.,0.,0.));
#1407=DIRECTION('',(0.,0.,1.));
#1408=DIRECTION('',(1.,0.,0.));
#1409=DIRECTION('',(0.,0.,1.));
#1410=DIRECTION('',(1.,0.,0.));
#1411=DIRECTION('',(0.,0.,-1.));
#1412=DIRECTION('',(-1.,0.,0.));
#1413=DIRECTION('',(0.,0.,1.));
#1414=DIRECTION('',(1.,0.,0.));
#1415=DIRECTION('',(0.,0.,1.));
#1416=DIRECTION('',(1.,0.,0.));
#1417=CARTESIAN_POINT('',(0.,0.,0.));
#1418=CARTESIAN_POINT('',(0.0625,-0.079,0.003));
#1419=CARTESIAN_POINT('',(0.109205187064681,-0.0072787130348715,0.003));
#1420=CARTESIAN_POINT('',(0.112671798822651,-0.00378119921509775,0.003));
#1421=CARTESIAN_POINT('',(0.105738575306711,-0.0107762268546452,0.003));
#1422=CARTESIAN_POINT('',(0.116000000000002,-0.00599999999999885,0.003));
#1423=CARTESIAN_POINT('',(0.119328201177353,-0.00821880078489994,0.003));
#1424=CARTESIAN_POINT('',(0.117433039096781,-0.012763947722939,0.003));
#1425=CARTESIAN_POINT('',(0.115537877016209,-0.0173090946609781,0.003));
#1426=CARTESIAN_POINT('',(0.11,-0.0149999999999993,0.003));
#1427=CARTESIAN_POINT('',(0.116000000000002,-0.144,0.003));
#1428=CARTESIAN_POINT('',(0.119328201177353,-0.141781199215099,0.003));
#1429=CARTESIAN_POINT('',(0.112671798822651,-0.146218800784901,0.003));
#1430=CARTESIAN_POINT('',(0.109205187064681,-0.142721286965127,0.003));
#1431=CARTESIAN_POINT('',(0.105738575306711,-0.139223773145353,0.003));
#1432=CARTESIAN_POINT('',(0.11,-0.135,0.003));
#1433=CARTESIAN_POINT('',(0.115537877016209,-0.132690905339021,0.003));
#1434=CARTESIAN_POINT('',(0.117433039096781,-0.13723605227706,0.003));
#1435=CARTESIAN_POINT('',(0.014,-0.144,0.003));
#1436=CARTESIAN_POINT('',(0.0106717988226487,-0.141781199215099,0.003));
#1437=CARTESIAN_POINT('',(0.0173282011773512,-0.146218800784901,0.003));
#1438=CARTESIAN_POINT('',(0.0125669609032211,-0.13723605227706,0.003));
#1439=CARTESIAN_POINT('',(0.0144621229837935,-0.132690905339021,0.003));
#1440=CARTESIAN_POINT('',(0.0200000000000011,-0.135,0.003));
#1441=CARTESIAN_POINT('',(0.0242614246932915,-0.139223773145353,0.003));
#1442=CARTESIAN_POINT('',(0.0207948129353214,-0.142721286965127,0.003));
#1443=CARTESIAN_POINT('',(0.0625,0.,0.003));
#1444=CARTESIAN_POINT('',(0.,0.,0.003));
#1445=CARTESIAN_POINT('',(0.125,0.,0.003));
#1446=CARTESIAN_POINT('',(0.,-0.079,0.003));
#1447=CARTESIAN_POINT('',(-3.46944695195361E-17,-0.158,0.003));
#1448=CARTESIAN_POINT('',(0.0625,-0.158,0.003));
#1449=CARTESIAN_POINT('',(0.125,-0.158,0.003));
#1450=CARTESIAN_POINT('',(0.125,-0.079,0.003));
#1451=CARTESIAN_POINT('',(0.0125669609032211,-0.012763947722939,0.003));
#1452=CARTESIAN_POINT('',(0.0106717988226487,-0.00821880078489995,0.003));
#1453=CARTESIAN_POINT('',(0.0144621229837935,-0.0173090946609781,0.003));
#1454=CARTESIAN_POINT('',(0.014,-0.00599999999999885,0.003));
#1455=CARTESIAN_POINT('',(0.0173282011773512,-0.00378119921509775,0.003));
#1456=CARTESIAN_POINT('',(0.0207948129353214,-0.0072787130348715,0.003));
#1457=CARTESIAN_POINT('',(0.0242614246932915,-0.0107762268546452,0.003));
#1458=CARTESIAN_POINT('',(0.020000000000001,-0.0149999999999993,0.003));
#1459=CARTESIAN_POINT('',(0.029,-0.1385,0.003));
#1460=CARTESIAN_POINT('',(0.029,-0.151,0.003));
#1461=CARTESIAN_POINT('',(0.029,-0.126,0.003));
#1462=CARTESIAN_POINT('',(0.018,-0.126,0.003));
#1463=CARTESIAN_POINT('',(0.007,-0.126,0.003));
#1464=CARTESIAN_POINT('',(0.007,-0.075,0.003));
#1465=CARTESIAN_POINT('',(0.007,-0.024,0.003));
#1466=CARTESIAN_POINT('',(0.018,-0.024,0.003));
#1467=CARTESIAN_POINT('',(0.029,-0.024,0.003));
#1468=CARTESIAN_POINT('',(0.029,-0.0155,0.003));
#1469=CARTESIAN_POINT('',(0.029,-0.007,0.003));
#1470=CARTESIAN_POINT('',(0.066,-0.007,0.003));
#1471=CARTESIAN_POINT('',(0.103,-0.007,0.003));
#1472=CARTESIAN_POINT('',(0.103,-0.0145,0.003));
#1473=CARTESIAN_POINT('',(0.103,-0.022,0.003));
#1474=CARTESIAN_POINT('',(0.1105,-0.022,0.003));
#1475=CARTESIAN_POINT('',(0.118,-0.022,0.003));
#1476=CARTESIAN_POINT('',(0.118,-0.074,0.003));
#1477=CARTESIAN_POINT('',(0.118,-0.126,0.003));
#1478=CARTESIAN_POINT('',(0.1105,-0.126,0.003));
#1479=CARTESIAN_POINT('',(0.103,-0.126,0.003));
#1480=CARTESIAN_POINT('',(0.103,-0.1385,0.003));
#1481=CARTESIAN_POINT('',(0.103,-0.151,0.003));
#1482=CARTESIAN_POINT('',(0.066,-0.151,0.003));
#1483=CARTESIAN_POINT('',(0.0625,-0.079,0.));
#1484=CARTESIAN_POINT('',(0.0625,0.,0.));
#1485=CARTESIAN_POINT('',(0.,0.,0.));
#1486=CARTESIAN_POINT('',(0.125,0.,0.));
#1487=CARTESIAN_POINT('',(0.125,-0.079,0.));
#1488=CARTESIAN_POINT('',(0.125,-0.158,0.));
#1489=CARTESIAN_POINT('',(0.0625,-0.158,0.));
#1490=CARTESIAN_POINT('',(-3.46944695195361E-17,-0.158,0.));
#1491=CARTESIAN_POINT('',(0.,-0.079,0.));
#1492=CARTESIAN_POINT('',(0.0200000000000011,-0.135,0.));
#1493=CARTESIAN_POINT('',(0.0230000000000011,-0.135,0.));
#1494=CARTESIAN_POINT('',(0.11,-0.0149999999999993,0.));
#1495=CARTESIAN_POINT('',(0.113,-0.0149999999999993,0.));
#1496=CARTESIAN_POINT('',(0.020000000000001,-0.0149999999999993,0.));
#1497=CARTESIAN_POINT('',(0.023000000000001,-0.0149999999999993,0.));
#1498=CARTESIAN_POINT('',(0.11,-0.135,0.));
#1499=CARTESIAN_POINT('',(0.113,-0.135,0.));
#1500=CARTESIAN_POINT('',(0.014,-0.144,0.));
#1501=CARTESIAN_POINT('',(0.012,-0.144,0.));
#1502=CARTESIAN_POINT('',(0.116000000000002,-0.144,0.));
#1503=CARTESIAN_POINT('',(0.114000000000002,-0.144,0.));
#1504=CARTESIAN_POINT('',(0.116000000000002,-0.00599999999999885,0.));
#1505=CARTESIAN_POINT('',(0.114000000000002,-0.00599999999999885,0.));
#1506=CARTESIAN_POINT('',(0.014,-0.00599999999999885,0.));
#1507=CARTESIAN_POINT('',(0.012,-0.00599999999999885,0.));
#1508=CARTESIAN_POINT('',(0.018,-0.126,0.));
#1509=CARTESIAN_POINT('',(0.007,-0.126,0.));
#1510=CARTESIAN_POINT('',(0.029,-0.126,0.));
#1511=CARTESIAN_POINT('',(0.029,-0.1385,0.));
#1512=CARTESIAN_POINT('',(0.029,-0.151,0.));
#1513=CARTESIAN_POINT('',(0.066,-0.151,0.));
#1514=CARTESIAN_POINT('',(0.103,-0.151,0.));
#1515=CARTESIAN_POINT('',(0.103,-0.1385,0.));
#1516=CARTESIAN_POINT('',(0.103,-0.126,0.));
#1517=CARTESIAN_POINT('',(0.1105,-0.126,0.));
#1518=CARTESIAN_POINT('',(0.118,-0.126,0.));
#1519=CARTESIAN_POINT('',(0.118,-0.074,0.));
#1520=CARTESIAN_POINT('',(0.118,-0.022,0.));
#1521=CARTESIAN_POINT('',(0.1105,-0.022,0.));
#1522=CARTESIAN_POINT('',(0.103,-0.022,0.));
#1523=CARTESIAN_POINT('',(0.103,-0.0145,0.));
#1524=CARTESIAN_POINT('',(0.103,-0.007,0.));
#1525=CARTESIAN_POINT('',(0.066,-0.007,0.));
#1526=CARTESIAN_POINT('',(0.029,-0.007,0.));
#1527=CARTESIAN_POINT('',(0.029,-0.0155,0.));
#1528=CARTESIAN_POINT('',(0.029,-0.024,0.));
#1529=CARTESIAN_POINT('',(0.018,-0.024,0.));
#1530=CARTESIAN_POINT('',(0.007,-0.024,0.));
#1531=CARTESIAN_POINT('',(0.007,-0.075,0.));
#1532=CARTESIAN_POINT('',(0.0200000000000011,-0.135,0.022));
#1533=CARTESIAN_POINT('',(0.0144621229837935,-0.132690905339021,0.008));
#1534=CARTESIAN_POINT('',(0.0144621229837935,-0.132690905339021,0.008));
#1535=CARTESIAN_POINT('',(0.0200000000000011,-0.135,0.008));
#1536=CARTESIAN_POINT('',(0.0242614246932915,-0.139223773145353,0.008));
#1537=CARTESIAN_POINT('',(0.0242614246932915,-0.139223773145353,0.008));
#1538=CARTESIAN_POINT('',(0.0200000000000011,-0.135,0.036));
#1539=CARTESIAN_POINT('',(0.0260000000000011,-0.135,0.036));
#1540=CARTESIAN_POINT('',(0.11,-0.0149999999999993,0.022));
#1541=CARTESIAN_POINT('',(0.115537877016209,-0.0173090946609781,0.008));
#1542=CARTESIAN_POINT('',(0.115537877016209,-0.0173090946609781,0.008));
#1543=CARTESIAN_POINT('',(0.11,-0.0149999999999993,0.008));
#1544=CARTESIAN_POINT('',(0.105738575306711,-0.0107762268546452,0.008));
#1545=CARTESIAN_POINT('',(0.105738575306711,-0.0107762268546452,0.008));
#1546=CARTESIAN_POINT('',(0.11,-0.0149999999999993,0.036));
#1547=CARTESIAN_POINT('',(0.116,-0.0149999999999993,0.036));
#1548=CARTESIAN_POINT('',(0.11,-0.135,0.022));
#1549=CARTESIAN_POINT('',(0.105738575306711,-0.139223773145353,0.008));
#1550=CARTESIAN_POINT('',(0.105738575306711,-0.139223773145353,0.008));
#1551=CARTESIAN_POINT('',(0.11,-0.135,0.008));
#1552=CARTESIAN_POINT('',(0.115537877016209,-0.132690905339021,0.008));
#1553=CARTESIAN_POINT('',(0.115537877016209,-0.132690905339021,0.008));
#1554=CARTESIAN_POINT('',(0.11,-0.135,0.03));
#1555=CARTESIAN_POINT('',(0.116,-0.135,0.03));
#1556=CARTESIAN_POINT('',(0.020000000000001,-0.0149999999999993,0.022));
#1557=CARTESIAN_POINT('',(0.0242614246932915,-0.0107762268546452,0.008));
#1558=CARTESIAN_POINT('',(0.0242614246932915,-0.0107762268546452,0.008));
#1559=CARTESIAN_POINT('',(0.0200000000000011,-0.0149999999999993,0.008));
#1560=CARTESIAN_POINT('',(0.0144621229837935,-0.0173090946609781,0.008));
#1561=CARTESIAN_POINT('',(0.0144621229837935,-0.0173090946609781,0.008));
#1562=CARTESIAN_POINT('',(0.020000000000001,-0.0149999999999993,0.036));
#1563=CARTESIAN_POINT('',(0.026000000000001,-0.0149999999999993,0.036));
#1564=CARTESIAN_POINT('',(0.0625,0.,0.003));
#1565=CARTESIAN_POINT('',(0.,0.,0.003));
#1566=CARTESIAN_POINT('',(0.125,0.,0.003));
#1567=CARTESIAN_POINT('',(0.,-0.079,0.003));
#1568=CARTESIAN_POINT('',(-3.46944695195361E-17,-0.158,0.003));
#1569=CARTESIAN_POINT('',(0.0625,-0.158,0.003));
#1570=CARTESIAN_POINT('',(0.125,-0.158,0.003));
#1571=CARTESIAN_POINT('',(0.125,-0.079,0.003));
#1572=CARTESIAN_POINT('',(0.0200000000000011,-0.135,0.022));
#1573=CARTESIAN_POINT('',(0.020000000000001,-0.135,0.032));
#1574=CARTESIAN_POINT('',(0.023000000000001,-0.135,0.032));
#1575=CARTESIAN_POINT('',(0.11,-0.0149999999999993,0.022));
#1576=CARTESIAN_POINT('',(0.11,-0.0149999999999993,0.032));
#1577=CARTESIAN_POINT('',(0.113,-0.0149999999999993,0.032));
#1578=CARTESIAN_POINT('',(0.11,-0.135,0.022));
#1579=CARTESIAN_POINT('',(0.11,-0.135,0.027));
#1580=CARTESIAN_POINT('',(0.113,-0.135,0.027));
#1581=CARTESIAN_POINT('',(0.020000000000001,-0.0149999999999993,0.022));
#1582=CARTESIAN_POINT('',(0.020000000000001,-0.0149999999999993,0.032));
#1583=CARTESIAN_POINT('',(0.023000000000001,-0.0149999999999993,0.032));
#1584=CARTESIAN_POINT('',(0.0125669609032211,-0.012763947722939,0.008));
#1585=CARTESIAN_POINT('',(0.0125669609032211,-0.012763947722939,0.008));
#1586=CARTESIAN_POINT('',(0.0106717988226487,-0.00821880078489995,0.008));
#1587=CARTESIAN_POINT('',(0.0106717988226487,-0.00821880078489995,0.008));
#1588=CARTESIAN_POINT('',(0.0207948129353214,-0.0072787130348715,0.008));
#1589=CARTESIAN_POINT('',(0.0173282011773512,-0.00378119921509775,0.008));
#1590=CARTESIAN_POINT('',(0.0173282011773512,-0.00378119921509775,0.008));
#1591=CARTESIAN_POINT('',(0.0207948129353214,-0.0072787130348715,0.008));
#1592=CARTESIAN_POINT('',(0.014,-0.00599999999999885,0.008));
#1593=CARTESIAN_POINT('',(0.014,-0.00599999999999885,0.008));
#1594=CARTESIAN_POINT('',(0.065000000000001,-0.0792966954145485,0.008));
#1595=CARTESIAN_POINT('',(0.109205187064681,-0.142721286965127,0.008));
#1596=CARTESIAN_POINT('',(0.112671798822651,-0.146218800784901,0.008));
#1597=CARTESIAN_POINT('',(0.112671798822651,-0.146218800784901,0.008));
#1598=CARTESIAN_POINT('',(0.109205187064681,-0.142721286965127,0.008));
#1599=CARTESIAN_POINT('',(0.116000000000002,-0.144,0.008));
#1600=CARTESIAN_POINT('',(0.119328201177353,-0.141781199215099,0.008));
#1601=CARTESIAN_POINT('',(0.119328201177353,-0.141781199215099,0.008));
#1602=CARTESIAN_POINT('',(0.116000000000002,-0.144,0.008));
#1603=CARTESIAN_POINT('',(0.117433039096781,-0.13723605227706,0.008));
#1604=CARTESIAN_POINT('',(0.117433039096781,-0.13723605227706,0.008));
#1605=CARTESIAN_POINT('',(0.065000000000001,-0.0792966954145485,0.008));
#1606=CARTESIAN_POINT('',(0.117433039096781,-0.012763947722939,0.008));
#1607=CARTESIAN_POINT('',(0.119328201177353,-0.00821880078489994,0.008));
#1608=CARTESIAN_POINT('',(0.119328201177353,-0.00821880078489994,0.008));
#1609=CARTESIAN_POINT('',(0.117433039096781,-0.012763947722939,0.008));
#1610=CARTESIAN_POINT('',(0.116000000000002,-0.00599999999999885,0.008));
#1611=CARTESIAN_POINT('',(0.112671798822651,-0.00378119921509775,0.008));
#1612=CARTESIAN_POINT('',(0.112671798822651,-0.00378119921509775,0.008));
#1613=CARTESIAN_POINT('',(0.116000000000002,-0.00599999999999885,0.008));
#1614=CARTESIAN_POINT('',(0.109205187064681,-0.0072787130348715,0.008));
#1615=CARTESIAN_POINT('',(0.109205187064681,-0.0072787130348715,0.008));
#1616=CARTESIAN_POINT('',(0.065000000000001,-0.0792966954145485,0.008));
#1617=CARTESIAN_POINT('',(0.0125669609032211,-0.13723605227706,0.008));
#1618=CARTESIAN_POINT('',(0.0106717988226487,-0.141781199215099,0.008));
#1619=CARTESIAN_POINT('',(0.0106717988226487,-0.141781199215099,0.008));
#1620=CARTESIAN_POINT('',(0.0125669609032211,-0.13723605227706,0.008));
#1621=CARTESIAN_POINT('',(0.014,-0.144,0.008));
#1622=CARTESIAN_POINT('',(0.0173282011773512,-0.146218800784901,0.008));
#1623=CARTESIAN_POINT('',(0.0173282011773512,-0.146218800784901,0.008));
#1624=CARTESIAN_POINT('',(0.014,-0.144,0.008));
#1625=CARTESIAN_POINT('',(0.0207948129353214,-0.142721286965127,0.008));
#1626=CARTESIAN_POINT('',(0.0207948129353214,-0.142721286965127,0.008));
#1627=CARTESIAN_POINT('',(0.065000000000001,-0.0792966954145485,0.008));
#1628=CARTESIAN_POINT('',(0.014,-0.144,0.006));
#1629=CARTESIAN_POINT('',(0.014,-0.144,0.006));
#1630=CARTESIAN_POINT('',(0.012,-0.144,0.006));
#1631=CARTESIAN_POINT('',(0.065000000000001,-0.075,0.006));
#1632=CARTESIAN_POINT('',(0.116000000000002,-0.144,0.006));
#1633=CARTESIAN_POINT('',(0.116000000000002,-0.144,0.006));
#1634=CARTESIAN_POINT('',(0.114000000000002,-0.144,0.006));
#1635=CARTESIAN_POINT('',(0.065000000000001,-0.075,0.006));
#1636=CARTESIAN_POINT('',(0.116000000000002,-0.00599999999999885,0.006));
#1637=CARTESIAN_POINT('',(0.116000000000002,-0.00599999999999885,0.006));
#1638=CARTESIAN_POINT('',(0.114000000000002,-0.00599999999999885,0.006));
#1639=CARTESIAN_POINT('',(0.065000000000001,-0.075,0.006));
#1640=CARTESIAN_POINT('',(0.014,-0.00599999999999885,0.006));
#1641=CARTESIAN_POINT('',(0.014,-0.00599999999999885,0.006));
#1642=CARTESIAN_POINT('',(0.012,-0.00599999999999885,0.006));
#1643=CARTESIAN_POINT('',(0.065000000000001,-0.075,0.006));
#1644=CARTESIAN_POINT('',(0.018,-0.024,-1.99999999999983E-6));
#1645=CARTESIAN_POINT('',(0.029,-0.024,-1.99999999999983E-6));
#1646=CARTESIAN_POINT('',(0.007,-0.024,-1.99999999999983E-6));
#1647=CARTESIAN_POINT('',(0.029,-0.0155,-1.99999999999983E-6));
#1648=CARTESIAN_POINT('',(0.029,-0.007,-1.99999999999983E-6));
#1649=CARTESIAN_POINT('',(0.007,-0.075,-1.99999999999983E-6));
#1650=CARTESIAN_POINT('',(0.007,-0.126,-1.99999999999983E-6));
#1651=CARTESIAN_POINT('',(0.066,-0.007,-1.99999999999983E-6));
#1652=CARTESIAN_POINT('',(0.103,-0.007,-1.99999999999983E-6));
#1653=CARTESIAN_POINT('',(0.103,-0.0145,-1.99999999999983E-6));
#1654=CARTESIAN_POINT('',(0.103,-0.022,-1.99999999999983E-6));
#1655=CARTESIAN_POINT('',(0.1105,-0.022,-1.99999999999983E-6));
#1656=CARTESIAN_POINT('',(0.118,-0.022,-1.99999999999983E-6));
#1657=CARTESIAN_POINT('',(0.118,-0.074,-1.99999999999983E-6));
#1658=CARTESIAN_POINT('',(0.118,-0.126,-1.99999999999983E-6));
#1659=CARTESIAN_POINT('',(0.1105,-0.126,-1.99999999999983E-6));
#1660=CARTESIAN_POINT('',(0.103,-0.126,-1.99999999999983E-6));
#1661=CARTESIAN_POINT('',(0.103,-0.1385,-1.99999999999983E-6));
#1662=CARTESIAN_POINT('',(0.103,-0.151,-1.99999999999983E-6));
#1663=CARTESIAN_POINT('',(0.066,-0.151,-1.99999999999983E-6));
#1664=CARTESIAN_POINT('',(0.029,-0.151,-1.99999999999983E-6));
#1665=CARTESIAN_POINT('',(0.029,-0.1385,-1.99999999999983E-6));
#1666=CARTESIAN_POINT('',(0.029,-0.126,-1.99999999999983E-6));
#1667=CARTESIAN_POINT('',(0.018,-0.126,-1.99999999999983E-6));
#1668=CARTESIAN_POINT('',(0.065000000000001,-0.075,0.032));
#1669=CARTESIAN_POINT('',(0.0200000000000011,-0.135,0.032));
#1670=CARTESIAN_POINT('',(0.0216000000000011,-0.135,0.032));
#1671=CARTESIAN_POINT('',(0.0200000000000011,-0.135,0.036));
#1672=CARTESIAN_POINT('',(0.0200000000000011,-0.135,0.036));
#1673=CARTESIAN_POINT('',(0.0216000000000011,-0.135,0.036));
#1674=CARTESIAN_POINT('',(0.065000000000001,-0.075,0.036));
#1675=CARTESIAN_POINT('',(0.065000000000001,-0.075,0.032));
#1676=CARTESIAN_POINT('',(0.11,-0.0149999999999993,0.032));
#1677=CARTESIAN_POINT('',(0.1116,-0.0149999999999993,0.032));
#1678=CARTESIAN_POINT('',(0.11,-0.0149999999999993,0.036));
#1679=CARTESIAN_POINT('',(0.11,-0.0149999999999993,0.036));
#1680=CARTESIAN_POINT('',(0.1116,-0.0149999999999993,0.036));
#1681=CARTESIAN_POINT('',(0.065000000000001,-0.075,0.036));
#1682=CARTESIAN_POINT('',(0.065000000000001,-0.075,0.032));
#1683=CARTESIAN_POINT('',(0.020000000000001,-0.0149999999999993,0.032));
#1684=CARTESIAN_POINT('',(0.021600000000001,-0.0149999999999993,0.032));
#1685=CARTESIAN_POINT('',(0.020000000000001,-0.0149999999999993,0.036));
#1686=CARTESIAN_POINT('',(0.020000000000001,-0.0149999999999993,0.036));
#1687=CARTESIAN_POINT('',(0.021600000000001,-0.0149999999999993,0.036));
#1688=CARTESIAN_POINT('',(0.065000000000001,-0.075,0.036));
#1689=CARTESIAN_POINT('',(0.11,-0.135,0.027));
#1690=CARTESIAN_POINT('',(0.11,-0.135,0.027));
#1691=CARTESIAN_POINT('',(0.1116,-0.135,0.027));
#1692=CARTESIAN_POINT('',(0.11,-0.135,0.03));
#1693=CARTESIAN_POINT('',(0.11,-0.135,0.03));
#1694=CARTESIAN_POINT('',(0.1116,-0.135,0.03));
#1695=CARTESIAN_POINT('',(0.11,-0.135,0.03));
#1696=MECHANICAL_DESIGN_GEOMETRIC_PRESENTATION_REPRESENTATION('',(#1005),
#1697);
#1697=(
GEOMETRIC_REPRESENTATION_CONTEXT(3)
GLOBAL_UNCERTAINTY_ASSIGNED_CONTEXT((#1698))
GLOBAL_UNIT_ASSIGNED_CONTEXT((#1701,#1700,#1699))
REPRESENTATION_CONTEXT('Part 1','TOP_LEVEL_ASSEMBLY_PART')
);
#1698=UNCERTAINTY_MEASURE_WITH_UNIT(LENGTH_MEASURE(1.E-8),#1701,
'DISTANCE_ACCURACY_VALUE','Maximum Tolerance applied to model');
#1699=(
NAMED_UNIT(*)
SI_UNIT($,.STERADIAN.)
SOLID_ANGLE_UNIT()
);
#1700=(
NAMED_UNIT(*)
PLANE_ANGLE_UNIT()
SI_UNIT($,.RADIAN.)
);
#1701=(
LENGTH_UNIT()
NAMED_UNIT(*)
SI_UNIT($,.METRE.)
);
#1702=PRODUCT_DEFINITION_SHAPE('','',#1703);
#1703=PRODUCT_DEFINITION('','',#1705,#1704);
#1704=PRODUCT_DEFINITION_CONTEXT('',#1711,'design');
#1705=PRODUCT_DEFINITION_FORMATION_WITH_SPECIFIED_SOURCE('','',#1707,
 .NOT_KNOWN.);
#1706=PRODUCT_RELATED_PRODUCT_CATEGORY('','',(#1707));
#1707=PRODUCT('Part 1','Part 1','Part 1',(#1709));
#1708=PRODUCT_CATEGORY('','');
#1709=PRODUCT_CONTEXT('',#1711,'mechanical');
#1710=APPLICATION_PROTOCOL_DEFINITION('international standard',
'ap242_managed_model_based_3d_engineering',2020,#1711);
#1711=APPLICATION_CONTEXT('managed model based 3d engineering');
ENDSEC;
END-ISO-10303-21;
