ISO-10303-21;
HEADER;
/* Generated by software containing ST-Developer
 * from STEP Tools, Inc. (www.steptools.com) 
 */
/* OPTION: using custom renumber hook */

FILE_DESCRIPTION(
/* description */ ('STEP AP242 Edition 2',
'CAx-IF Rec.Pracs.---Representation and Presentation of Product Manufa
cturing Information (PMI)---4.0---2014-10-13',
'CAx-IF Rec.Pracs.---3D Tessellated Geometry---0.4---2014-09-14','2;1',
'CAx-IF Rec.Pracs.---User Defined Attributes---1.5---2016-08-15'),
/* implementation_level */ '2;1');

FILE_NAME(
/* name */ 'drzak_kontin_servo',
/* time_stamp */ '2026-09-10T17:46:17Z',
/* author */ (''),
/* organization */ (''),
/* preprocessor_version */ 'ST-DEVELOPER v20',
/* originating_system */ 'ONSHAPE BY PTC INC, 1.220',
/* authorisation */ '  ');

FILE_SCHEMA (('AP242_MANAGED_MODEL_BASED_3D_ENGINEERING_MIM_LF { 1 0 10303 442 3 1 4 }'));
ENDSEC;

DATA;
#10=SHAPE_REPRESENTATION_RELATIONSHIP('','',#841,#11);
#11=ADVANCED_BREP_SHAPE_REPRESENTATION('',(#839),#1391);
#12=LINE('',#1184,#82);
#13=LINE('',#1187,#83);
#14=LINE('',#1189,#84);
#15=LINE('',#1191,#85);
#16=LINE('',#1195,#86);
#17=LINE('',#1197,#87);
#18=LINE('',#1199,#88);
#19=LINE('',#1201,#89);
#20=LINE('',#1203,#90);
#21=LINE('',#1205,#91);
#22=LINE('',#1207,#92);
#23=LINE('',#1209,#93);
#24=LINE('',#1211,#94);
#25=LINE('',#1212,#95);
#26=LINE('',#1215,#96);
#27=LINE('',#1217,#97);
#28=LINE('',#1219,#98);
#29=LINE('',#1221,#99);
#30=LINE('',#1223,#100);
#31=LINE('',#1225,#101);
#32=LINE('',#1228,#102);
#33=LINE('',#1230,#103);
#34=LINE('',#1232,#104);
#35=LINE('',#1234,#105);
#36=LINE('',#1236,#106);
#37=LINE('',#1238,#107);
#38=LINE('',#1240,#108);
#39=LINE('',#1242,#109);
#40=LINE('',#1244,#110);
#41=LINE('',#1246,#111);
#42=LINE('',#1247,#112);
#43=LINE('',#1249,#113);
#44=LINE('',#1251,#114);
#45=LINE('',#1253,#115);
#46=LINE('',#1257,#116);
#47=LINE('',#1259,#117);
#48=LINE('',#1261,#118);
#49=LINE('',#1263,#119);
#50=LINE('',#1265,#120);
#51=LINE('',#1267,#121);
#52=LINE('',#1269,#122);
#53=LINE('',#1271,#123);
#54=LINE('',#1272,#124);
#55=LINE('',#1282,#125);
#56=LINE('',#1284,#126);
#57=LINE('',#1286,#127);
#58=LINE('',#1292,#128);
#59=LINE('',#1294,#129);
#60=LINE('',#1296,#130);
#61=LINE('',#1298,#131);
#62=LINE('',#1300,#132);
#63=LINE('',#1302,#133);
#64=LINE('',#1304,#134);
#65=LINE('',#1306,#135);
#66=LINE('',#1308,#136);
#67=LINE('',#1314,#137);
#68=LINE('',#1316,#138);
#69=LINE('',#1318,#139);
#70=LINE('',#1325,#140);
#71=LINE('',#1328,#141);
#72=LINE('',#1329,#142);
#73=LINE('',#1331,#143);
#74=LINE('',#1333,#144);
#75=LINE('',#1335,#145);
#76=LINE('',#1337,#146);
#77=LINE('',#1339,#147);
#78=LINE('',#1341,#148);
#79=LINE('',#1343,#149);
#80=LINE('',#1345,#150);
#81=LINE('',#1347,#151);
#82=VECTOR('',#953,1.);
#83=VECTOR('',#954,1.);
#84=VECTOR('',#955,1.);
#85=VECTOR('',#956,1.);
#86=VECTOR('',#959,1.);
#87=VECTOR('',#960,1.);
#88=VECTOR('',#961,1.);
#89=VECTOR('',#962,1.);
#90=VECTOR('',#963,1.);
#91=VECTOR('',#964,1.);
#92=VECTOR('',#965,1.);
#93=VECTOR('',#966,1.);
#94=VECTOR('',#967,1.);
#95=VECTOR('',#968,1.);
#96=VECTOR('',#969,1.);
#97=VECTOR('',#970,1.);
#98=VECTOR('',#971,1.);
#99=VECTOR('',#972,1.);
#100=VECTOR('',#973,1.);
#101=VECTOR('',#976,1.);
#102=VECTOR('',#977,1.);
#103=VECTOR('',#978,1.);
#104=VECTOR('',#979,1.);
#105=VECTOR('',#982,1.);
#106=VECTOR('',#983,1.);
#107=VECTOR('',#984,1.);
#108=VECTOR('',#987,1.);
#109=VECTOR('',#988,1.);
#110=VECTOR('',#991,1.);
#111=VECTOR('',#992,1.);
#112=VECTOR('',#993,1.);
#113=VECTOR('',#994,1.);
#114=VECTOR('',#995,1.);
#115=VECTOR('',#998,1.);
#116=VECTOR('',#1003,1.);
#117=VECTOR('',#1004,1.);
#118=VECTOR('',#1007,1.);
#119=VECTOR('',#1008,1.);
#120=VECTOR('',#1009,1.);
#121=VECTOR('',#1010,1.);
#122=VECTOR('',#1011,1.);
#123=VECTOR('',#1014,1.);
#124=VECTOR('',#1015,1.);
#125=VECTOR('',#1026,1.);
#126=VECTOR('',#1029,1.);
#127=VECTOR('',#1030,1.);
#128=VECTOR('',#1039,1.);
#129=VECTOR('',#1040,1.);
#130=VECTOR('',#1043,1.);
#131=VECTOR('',#1046,1.);
#132=VECTOR('',#1047,1.);
#133=VECTOR('',#1050,1.);
#134=VECTOR('',#1051,1.);
#135=VECTOR('',#1054,1.);
#136=VECTOR('',#1055,1.);
#137=VECTOR('',#1062,1.);
#138=VECTOR('',#1063,1.);
#139=VECTOR('',#1066,1.);
#140=VECTOR('',#1075,1.);
#141=VECTOR('',#1076,1.);
#142=VECTOR('',#1077,1.);
#143=VECTOR('',#1080,1.);
#144=VECTOR('',#1081,1.);
#145=VECTOR('',#1084,1.);
#146=VECTOR('',#1085,1.);
#147=VECTOR('',#1088,1.);
#148=VECTOR('',#1089,1.);
#149=VECTOR('',#1092,1.);
#150=VECTOR('',#1093,1.);
#151=VECTOR('',#1096,1.);
#152=PLANE('',#852);
#153=PLANE('',#857);
#154=PLANE('',#858);
#155=PLANE('',#859);
#156=PLANE('',#860);
#157=PLANE('',#863);
#158=PLANE('',#864);
#159=PLANE('',#865);
#160=PLANE('',#867);
#161=PLANE('',#871);
#162=PLANE('',#874);
#163=PLANE('',#875);
#164=PLANE('',#876);
#165=PLANE('',#877);
#166=PLANE('',#878);
#167=PLANE('',#879);
#168=PLANE('',#880);
#169=PLANE('',#883);
#170=PLANE('',#884);
#171=PLANE('',#885);
#172=PLANE('',#888);
#173=PLANE('',#889);
#174=PLANE('',#890);
#175=PLANE('',#891);
#176=PLANE('',#892);
#177=PLANE('',#893);
#178=PLANE('',#896);
#179=PLANE('',#899);
#180=PLANE('',#902);
#181=PLANE('',#905);
#182=PLANE('',#908);
#183=PLANE('',#911);
#184=PLANE('',#914);
#185=PLANE('',#917);
#186=PLANE('',#920);
#187=PLANE('',#923);
#188=PLANE('',#924);
#189=ORIENTED_EDGE('',*,*,#389,.T.);
#190=ORIENTED_EDGE('',*,*,#390,.T.);
#191=ORIENTED_EDGE('',*,*,#391,.T.);
#192=ORIENTED_EDGE('',*,*,#392,.T.);
#193=ORIENTED_EDGE('',*,*,#393,.T.);
#194=ORIENTED_EDGE('',*,*,#394,.T.);
#195=ORIENTED_EDGE('',*,*,#395,.F.);
#196=ORIENTED_EDGE('',*,*,#396,.F.);
#197=ORIENTED_EDGE('',*,*,#397,.F.);
#198=ORIENTED_EDGE('',*,*,#398,.T.);
#199=ORIENTED_EDGE('',*,*,#399,.T.);
#200=ORIENTED_EDGE('',*,*,#400,.F.);
#201=ORIENTED_EDGE('',*,*,#401,.T.);
#202=ORIENTED_EDGE('',*,*,#402,.F.);
#203=ORIENTED_EDGE('',*,*,#403,.T.);
#204=ORIENTED_EDGE('',*,*,#404,.F.);
#205=ORIENTED_EDGE('',*,*,#405,.T.);
#206=ORIENTED_EDGE('',*,*,#406,.T.);
#207=ORIENTED_EDGE('',*,*,#407,.F.);
#208=ORIENTED_EDGE('',*,*,#408,.T.);
#209=ORIENTED_EDGE('',*,*,#409,.T.);
#210=ORIENTED_EDGE('',*,*,#410,.T.);
#211=ORIENTED_EDGE('',*,*,#411,.F.);
#212=ORIENTED_EDGE('',*,*,#412,.F.);
#213=ORIENTED_EDGE('',*,*,#413,.T.);
#214=ORIENTED_EDGE('',*,*,#414,.T.);
#215=ORIENTED_EDGE('',*,*,#415,.F.);
#216=ORIENTED_EDGE('',*,*,#416,.T.);
#217=ORIENTED_EDGE('',*,*,#417,.F.);
#218=ORIENTED_EDGE('',*,*,#418,.F.);
#219=ORIENTED_EDGE('',*,*,#419,.T.);
#220=ORIENTED_EDGE('',*,*,#420,.T.);
#221=ORIENTED_EDGE('',*,*,#421,.T.);
#222=ORIENTED_EDGE('',*,*,#411,.T.);
#223=ORIENTED_EDGE('',*,*,#422,.F.);
#224=ORIENTED_EDGE('',*,*,#423,.F.);
#225=ORIENTED_EDGE('',*,*,#424,.T.);
#226=ORIENTED_EDGE('',*,*,#410,.F.);
#227=ORIENTED_EDGE('',*,*,#425,.F.);
#228=ORIENTED_EDGE('',*,*,#426,.T.);
#229=ORIENTED_EDGE('',*,*,#422,.T.);
#230=ORIENTED_EDGE('',*,*,#403,.F.);
#231=ORIENTED_EDGE('',*,*,#427,.F.);
#232=ORIENTED_EDGE('',*,*,#428,.T.);
#233=ORIENTED_EDGE('',*,*,#425,.T.);
#234=ORIENTED_EDGE('',*,*,#409,.F.);
#235=ORIENTED_EDGE('',*,*,#429,.F.);
#236=ORIENTED_EDGE('',*,*,#430,.T.);
#237=ORIENTED_EDGE('',*,*,#431,.T.);
#238=ORIENTED_EDGE('',*,*,#402,.T.);
#239=ORIENTED_EDGE('',*,*,#432,.F.);
#240=ORIENTED_EDGE('',*,*,#433,.F.);
#241=ORIENTED_EDGE('',*,*,#427,.T.);
#242=ORIENTED_EDGE('',*,*,#401,.F.);
#243=ORIENTED_EDGE('',*,*,#434,.F.);
#244=ORIENTED_EDGE('',*,*,#435,.T.);
#245=ORIENTED_EDGE('',*,*,#432,.T.);
#246=ORIENTED_EDGE('',*,*,#400,.T.);
#247=ORIENTED_EDGE('',*,*,#436,.T.);
#248=ORIENTED_EDGE('',*,*,#437,.F.);
#249=ORIENTED_EDGE('',*,*,#438,.T.);
#250=ORIENTED_EDGE('',*,*,#439,.F.);
#251=ORIENTED_EDGE('',*,*,#440,.F.);
#252=ORIENTED_EDGE('',*,*,#434,.T.);
#253=ORIENTED_EDGE('',*,*,#439,.T.);
#254=ORIENTED_EDGE('',*,*,#441,.F.);
#255=ORIENTED_EDGE('',*,*,#421,.F.);
#256=ORIENTED_EDGE('',*,*,#442,.F.);
#257=ORIENTED_EDGE('',*,*,#443,.F.);
#258=ORIENTED_EDGE('',*,*,#444,.F.);
#259=ORIENTED_EDGE('',*,*,#445,.F.);
#260=ORIENTED_EDGE('',*,*,#446,.F.);
#261=ORIENTED_EDGE('',*,*,#447,.T.);
#262=ORIENTED_EDGE('',*,*,#423,.T.);
#263=ORIENTED_EDGE('',*,*,#426,.F.);
#264=ORIENTED_EDGE('',*,*,#428,.F.);
#265=ORIENTED_EDGE('',*,*,#433,.T.);
#266=ORIENTED_EDGE('',*,*,#435,.F.);
#267=ORIENTED_EDGE('',*,*,#440,.T.);
#268=ORIENTED_EDGE('',*,*,#442,.T.);
#269=ORIENTED_EDGE('',*,*,#420,.F.);
#270=ORIENTED_EDGE('',*,*,#448,.F.);
#271=ORIENTED_EDGE('',*,*,#449,.T.);
#272=ORIENTED_EDGE('',*,*,#418,.T.);
#273=ORIENTED_EDGE('',*,*,#441,.T.);
#274=ORIENTED_EDGE('',*,*,#438,.F.);
#275=ORIENTED_EDGE('',*,*,#450,.F.);
#276=ORIENTED_EDGE('',*,*,#443,.T.);
#277=ORIENTED_EDGE('',*,*,#450,.T.);
#278=ORIENTED_EDGE('',*,*,#437,.T.);
#279=ORIENTED_EDGE('',*,*,#451,.T.);
#280=ORIENTED_EDGE('',*,*,#452,.T.);
#281=ORIENTED_EDGE('',*,*,#448,.T.);
#282=ORIENTED_EDGE('',*,*,#447,.F.);
#283=ORIENTED_EDGE('',*,*,#419,.F.);
#284=ORIENTED_EDGE('',*,*,#449,.F.);
#285=ORIENTED_EDGE('',*,*,#452,.F.);
#286=ORIENTED_EDGE('',*,*,#453,.T.);
#287=ORIENTED_EDGE('',*,*,#398,.F.);
#288=ORIENTED_EDGE('',*,*,#424,.F.);
#289=ORIENTED_EDGE('',*,*,#454,.F.);
#290=ORIENTED_EDGE('',*,*,#455,.T.);
#291=ORIENTED_EDGE('',*,*,#404,.T.);
#292=ORIENTED_EDGE('',*,*,#431,.F.);
#293=ORIENTED_EDGE('',*,*,#456,.F.);
#294=ORIENTED_EDGE('',*,*,#457,.T.);
#295=ORIENTED_EDGE('',*,*,#429,.T.);
#296=ORIENTED_EDGE('',*,*,#408,.F.);
#297=ORIENTED_EDGE('',*,*,#458,.F.);
#298=ORIENTED_EDGE('',*,*,#456,.T.);
#299=ORIENTED_EDGE('',*,*,#407,.T.);
#300=ORIENTED_EDGE('',*,*,#459,.F.);
#301=ORIENTED_EDGE('',*,*,#460,.F.);
#302=ORIENTED_EDGE('',*,*,#461,.F.);
#303=ORIENTED_EDGE('',*,*,#455,.F.);
#304=ORIENTED_EDGE('',*,*,#462,.T.);
#305=ORIENTED_EDGE('',*,*,#463,.T.);
#306=ORIENTED_EDGE('',*,*,#405,.F.);
#307=ORIENTED_EDGE('',*,*,#463,.F.);
#308=ORIENTED_EDGE('',*,*,#464,.T.);
#309=ORIENTED_EDGE('',*,*,#459,.T.);
#310=ORIENTED_EDGE('',*,*,#406,.F.);
#311=ORIENTED_EDGE('',*,*,#462,.F.);
#312=ORIENTED_EDGE('',*,*,#454,.T.);
#313=ORIENTED_EDGE('',*,*,#430,.F.);
#314=ORIENTED_EDGE('',*,*,#457,.F.);
#315=ORIENTED_EDGE('',*,*,#458,.T.);
#316=ORIENTED_EDGE('',*,*,#464,.F.);
#317=ORIENTED_EDGE('',*,*,#465,.F.);
#318=ORIENTED_EDGE('',*,*,#466,.F.);
#319=ORIENTED_EDGE('',*,*,#467,.F.);
#320=ORIENTED_EDGE('',*,*,#468,.T.);
#321=ORIENTED_EDGE('',*,*,#412,.T.);
#322=ORIENTED_EDGE('',*,*,#469,.F.);
#323=ORIENTED_EDGE('',*,*,#470,.F.);
#324=ORIENTED_EDGE('',*,*,#469,.T.);
#325=ORIENTED_EDGE('',*,*,#417,.T.);
#326=ORIENTED_EDGE('',*,*,#471,.F.);
#327=ORIENTED_EDGE('',*,*,#472,.F.);
#328=ORIENTED_EDGE('',*,*,#473,.T.);
#329=ORIENTED_EDGE('',*,*,#471,.T.);
#330=ORIENTED_EDGE('',*,*,#416,.F.);
#331=ORIENTED_EDGE('',*,*,#474,.F.);
#332=ORIENTED_EDGE('',*,*,#472,.T.);
#333=ORIENTED_EDGE('',*,*,#415,.T.);
#334=ORIENTED_EDGE('',*,*,#475,.F.);
#335=ORIENTED_EDGE('',*,*,#468,.F.);
#336=ORIENTED_EDGE('',*,*,#476,.T.);
#337=ORIENTED_EDGE('',*,*,#477,.T.);
#338=ORIENTED_EDGE('',*,*,#413,.F.);
#339=ORIENTED_EDGE('',*,*,#477,.F.);
#340=ORIENTED_EDGE('',*,*,#478,.T.);
#341=ORIENTED_EDGE('',*,*,#475,.T.);
#342=ORIENTED_EDGE('',*,*,#414,.F.);
#343=ORIENTED_EDGE('',*,*,#476,.F.);
#344=ORIENTED_EDGE('',*,*,#467,.T.);
#345=ORIENTED_EDGE('',*,*,#470,.T.);
#346=ORIENTED_EDGE('',*,*,#473,.F.);
#347=ORIENTED_EDGE('',*,*,#474,.T.);
#348=ORIENTED_EDGE('',*,*,#478,.F.);
#349=ORIENTED_EDGE('',*,*,#479,.F.);
#350=ORIENTED_EDGE('',*,*,#466,.T.);
#351=ORIENTED_EDGE('',*,*,#479,.T.);
#352=ORIENTED_EDGE('',*,*,#480,.F.);
#353=ORIENTED_EDGE('',*,*,#465,.T.);
#354=ORIENTED_EDGE('',*,*,#480,.T.);
#355=ORIENTED_EDGE('',*,*,#481,.F.);
#356=ORIENTED_EDGE('',*,*,#461,.T.);
#357=ORIENTED_EDGE('',*,*,#481,.T.);
#358=ORIENTED_EDGE('',*,*,#482,.F.);
#359=ORIENTED_EDGE('',*,*,#460,.T.);
#360=ORIENTED_EDGE('',*,*,#482,.T.);
#361=ORIENTED_EDGE('',*,*,#483,.T.);
#362=ORIENTED_EDGE('',*,*,#446,.T.);
#363=ORIENTED_EDGE('',*,*,#393,.F.);
#364=ORIENTED_EDGE('',*,*,#483,.F.);
#365=ORIENTED_EDGE('',*,*,#484,.T.);
#366=ORIENTED_EDGE('',*,*,#445,.T.);
#367=ORIENTED_EDGE('',*,*,#389,.F.);
#368=ORIENTED_EDGE('',*,*,#484,.F.);
#369=ORIENTED_EDGE('',*,*,#485,.T.);
#370=ORIENTED_EDGE('',*,*,#444,.T.);
#371=ORIENTED_EDGE('',*,*,#391,.F.);
#372=ORIENTED_EDGE('',*,*,#485,.F.);
#373=ORIENTED_EDGE('',*,*,#486,.F.);
#374=ORIENTED_EDGE('',*,*,#395,.T.);
#375=ORIENTED_EDGE('',*,*,#394,.F.);
#376=ORIENTED_EDGE('',*,*,#486,.T.);
#377=ORIENTED_EDGE('',*,*,#487,.F.);
#378=ORIENTED_EDGE('',*,*,#397,.T.);
#379=ORIENTED_EDGE('',*,*,#392,.F.);
#380=ORIENTED_EDGE('',*,*,#487,.T.);
#381=ORIENTED_EDGE('',*,*,#488,.F.);
#382=ORIENTED_EDGE('',*,*,#396,.T.);
#383=ORIENTED_EDGE('',*,*,#390,.F.);
#384=ORIENTED_EDGE('',*,*,#488,.T.);
#385=ORIENTED_EDGE('',*,*,#436,.F.);
#386=ORIENTED_EDGE('',*,*,#399,.F.);
#387=ORIENTED_EDGE('',*,*,#453,.F.);
#388=ORIENTED_EDGE('',*,*,#451,.F.);
#389=EDGE_CURVE('',#489,#489,#565,.F.);
#390=EDGE_CURVE('',#490,#490,#566,.T.);
#391=EDGE_CURVE('',#491,#491,#567,.F.);
#392=EDGE_CURVE('',#492,#492,#568,.T.);
#393=EDGE_CURVE('',#493,#493,#569,.F.);
#394=EDGE_CURVE('',#494,#494,#570,.T.);
#395=EDGE_CURVE('',#495,#495,#571,.T.);
#396=EDGE_CURVE('',#496,#496,#572,.T.);
#397=EDGE_CURVE('',#497,#497,#573,.T.);
#398=EDGE_CURVE('',#498,#499,#12,.F.);
#399=EDGE_CURVE('',#499,#500,#13,.T.);
#400=EDGE_CURVE('',#501,#500,#14,.T.);
#401=EDGE_CURVE('',#501,#502,#15,.T.);
#402=EDGE_CURVE('',#503,#502,#574,.T.);
#403=EDGE_CURVE('',#503,#504,#16,.T.);
#404=EDGE_CURVE('',#505,#504,#17,.T.);
#405=EDGE_CURVE('',#505,#506,#18,.T.);
#406=EDGE_CURVE('',#506,#507,#19,.T.);
#407=EDGE_CURVE('',#508,#507,#20,.T.);
#408=EDGE_CURVE('',#508,#509,#21,.T.);
#409=EDGE_CURVE('',#509,#510,#22,.T.);
#410=EDGE_CURVE('',#510,#511,#23,.T.);
#411=EDGE_CURVE('',#498,#511,#24,.T.);
#412=EDGE_CURVE('',#512,#513,#25,.T.);
#413=EDGE_CURVE('',#512,#514,#26,.T.);
#414=EDGE_CURVE('',#514,#515,#27,.T.);
#415=EDGE_CURVE('',#516,#515,#28,.T.);
#416=EDGE_CURVE('',#516,#517,#29,.T.);
#417=EDGE_CURVE('',#513,#517,#30,.T.);
#418=EDGE_CURVE('',#518,#519,#31,.T.);
#419=EDGE_CURVE('',#518,#520,#32,.T.);
#420=EDGE_CURVE('',#520,#521,#33,.T.);
#421=EDGE_CURVE('',#521,#519,#34,.T.);
#422=EDGE_CURVE('',#522,#511,#35,.T.);
#423=EDGE_CURVE('',#523,#522,#36,.T.);
#424=EDGE_CURVE('',#523,#498,#37,.F.);
#425=EDGE_CURVE('',#524,#510,#38,.T.);
#426=EDGE_CURVE('',#524,#522,#39,.T.);
#427=EDGE_CURVE('',#525,#503,#40,.T.);
#428=EDGE_CURVE('',#525,#524,#41,.T.);
#429=EDGE_CURVE('',#526,#509,#42,.T.);
#430=EDGE_CURVE('',#526,#527,#43,.T.);
#431=EDGE_CURVE('',#527,#504,#44,.T.);
#432=EDGE_CURVE('',#528,#502,#45,.T.);
#433=EDGE_CURVE('',#525,#528,#575,.T.);
#434=EDGE_CURVE('',#529,#501,#46,.T.);
#435=EDGE_CURVE('',#529,#528,#47,.T.);
#436=EDGE_CURVE('',#500,#530,#48,.T.);
#437=EDGE_CURVE('',#531,#530,#49,.T.);
#438=EDGE_CURVE('',#531,#532,#50,.T.);
#439=EDGE_CURVE('',#533,#532,#51,.T.);
#440=EDGE_CURVE('',#529,#533,#52,.T.);
#441=EDGE_CURVE('',#519,#532,#53,.T.);
#442=EDGE_CURVE('',#533,#521,#54,.T.);
#443=EDGE_CURVE('',#534,#534,#576,.T.);
#444=EDGE_CURVE('',#535,#535,#577,.T.);
#445=EDGE_CURVE('',#536,#536,#578,.T.);
#446=EDGE_CURVE('',#537,#537,#579,.T.);
#447=EDGE_CURVE('',#520,#523,#55,.F.);
#448=EDGE_CURVE('',#538,#531,#56,.T.);
#449=EDGE_CURVE('',#538,#518,#57,.F.);
#450=EDGE_CURVE('',#539,#539,#580,.F.);
#451=EDGE_CURVE('',#530,#540,#58,.T.);
#452=EDGE_CURVE('',#540,#538,#59,.T.);
#453=EDGE_CURVE('',#540,#499,#60,.F.);
#454=EDGE_CURVE('',#541,#527,#61,.T.);
#455=EDGE_CURVE('',#541,#505,#62,.T.);
#456=EDGE_CURVE('',#542,#508,#63,.T.);
#457=EDGE_CURVE('',#542,#526,#64,.T.);
#458=EDGE_CURVE('',#542,#543,#65,.T.);
#459=EDGE_CURVE('',#543,#507,#66,.T.);
#460=EDGE_CURVE('',#544,#544,#581,.T.);
#461=EDGE_CURVE('',#545,#545,#582,.T.);
#462=EDGE_CURVE('',#541,#546,#67,.T.);
#463=EDGE_CURVE('',#546,#506,#68,.T.);
#464=EDGE_CURVE('',#546,#543,#69,.T.);
#465=EDGE_CURVE('',#547,#547,#583,.T.);
#466=EDGE_CURVE('',#548,#548,#584,.T.);
#467=EDGE_CURVE('',#549,#550,#70,.T.);
#468=EDGE_CURVE('',#549,#512,#71,.T.);
#469=EDGE_CURVE('',#550,#513,#72,.T.);
#470=EDGE_CURVE('',#550,#551,#73,.T.);
#471=EDGE_CURVE('',#551,#517,#74,.T.);
#472=EDGE_CURVE('',#552,#516,#75,.T.);
#473=EDGE_CURVE('',#552,#551,#76,.T.);
#474=EDGE_CURVE('',#552,#553,#77,.T.);
#475=EDGE_CURVE('',#553,#515,#78,.T.);
#476=EDGE_CURVE('',#549,#554,#79,.T.);
#477=EDGE_CURVE('',#554,#514,#80,.T.);
#478=EDGE_CURVE('',#554,#553,#81,.T.);
#479=EDGE_CURVE('',#555,#555,#585,.T.);
#480=EDGE_CURVE('',#556,#556,#586,.T.);
#481=EDGE_CURVE('',#557,#557,#587,.T.);
#482=EDGE_CURVE('',#558,#558,#588,.T.);
#483=EDGE_CURVE('',#559,#559,#589,.T.);
#484=EDGE_CURVE('',#560,#560,#590,.T.);
#485=EDGE_CURVE('',#561,#561,#591,.T.);
#486=EDGE_CURVE('',#562,#562,#592,.T.);
#487=EDGE_CURVE('',#563,#563,#593,.T.);
#488=EDGE_CURVE('',#564,#564,#594,.T.);
#489=VERTEX_POINT('',#1164);
#490=VERTEX_POINT('',#1166);
#491=VERTEX_POINT('',#1169);
#492=VERTEX_POINT('',#1171);
#493=VERTEX_POINT('',#1174);
#494=VERTEX_POINT('',#1176);
#495=VERTEX_POINT('',#1179);
#496=VERTEX_POINT('',#1181);
#497=VERTEX_POINT('',#1183);
#498=VERTEX_POINT('',#1185);
#499=VERTEX_POINT('',#1186);
#500=VERTEX_POINT('',#1188);
#501=VERTEX_POINT('',#1190);
#502=VERTEX_POINT('',#1192);
#503=VERTEX_POINT('',#1194);
#504=VERTEX_POINT('',#1196);
#505=VERTEX_POINT('',#1198);
#506=VERTEX_POINT('',#1200);
#507=VERTEX_POINT('',#1202);
#508=VERTEX_POINT('',#1204);
#509=VERTEX_POINT('',#1206);
#510=VERTEX_POINT('',#1208);
#511=VERTEX_POINT('',#1210);
#512=VERTEX_POINT('',#1213);
#513=VERTEX_POINT('',#1214);
#514=VERTEX_POINT('',#1216);
#515=VERTEX_POINT('',#1218);
#516=VERTEX_POINT('',#1220);
#517=VERTEX_POINT('',#1222);
#518=VERTEX_POINT('',#1226);
#519=VERTEX_POINT('',#1227);
#520=VERTEX_POINT('',#1229);
#521=VERTEX_POINT('',#1231);
#522=VERTEX_POINT('',#1235);
#523=VERTEX_POINT('',#1237);
#524=VERTEX_POINT('',#1241);
#525=VERTEX_POINT('',#1245);
#526=VERTEX_POINT('',#1248);
#527=VERTEX_POINT('',#1250);
#528=VERTEX_POINT('',#1254);
#529=VERTEX_POINT('',#1258);
#530=VERTEX_POINT('',#1262);
#531=VERTEX_POINT('',#1264);
#532=VERTEX_POINT('',#1266);
#533=VERTEX_POINT('',#1268);
#534=VERTEX_POINT('',#1274);
#535=VERTEX_POINT('',#1277);
#536=VERTEX_POINT('',#1279);
#537=VERTEX_POINT('',#1281);
#538=VERTEX_POINT('',#1285);
#539=VERTEX_POINT('',#1289);
#540=VERTEX_POINT('',#1293);
#541=VERTEX_POINT('',#1299);
#542=VERTEX_POINT('',#1303);
#543=VERTEX_POINT('',#1307);
#544=VERTEX_POINT('',#1311);
#545=VERTEX_POINT('',#1313);
#546=VERTEX_POINT('',#1315);
#547=VERTEX_POINT('',#1322);
#548=VERTEX_POINT('',#1324);
#549=VERTEX_POINT('',#1326);
#550=VERTEX_POINT('',#1327);
#551=VERTEX_POINT('',#1332);
#552=VERTEX_POINT('',#1336);
#553=VERTEX_POINT('',#1340);
#554=VERTEX_POINT('',#1344);
#555=VERTEX_POINT('',#1351);
#556=VERTEX_POINT('',#1355);
#557=VERTEX_POINT('',#1359);
#558=VERTEX_POINT('',#1363);
#559=VERTEX_POINT('',#1367);
#560=VERTEX_POINT('',#1371);
#561=VERTEX_POINT('',#1375);
#562=VERTEX_POINT('',#1379);
#563=VERTEX_POINT('',#1383);
#564=VERTEX_POINT('',#1387);
#565=CIRCLE('',#844,0.0016);
#566=CIRCLE('',#845,0.0016);
#567=CIRCLE('',#847,0.0016);
#568=CIRCLE('',#848,0.0016);
#569=CIRCLE('',#850,0.0016);
#570=CIRCLE('',#851,0.0016);
#571=CIRCLE('',#853,0.003);
#572=CIRCLE('',#854,0.003);
#573=CIRCLE('',#855,0.003);
#574=CIRCLE('',#856,0.009);
#575=CIRCLE('',#862,0.009);
#576=CIRCLE('',#866,0.0025);
#577=CIRCLE('',#868,0.005);
#578=CIRCLE('',#869,0.006);
#579=CIRCLE('',#870,0.006);
#580=CIRCLE('',#873,0.0025);
#581=CIRCLE('',#881,0.001);
#582=CIRCLE('',#882,0.001);
#583=CIRCLE('',#886,0.001);
#584=CIRCLE('',#887,0.001);
#585=CIRCLE('',#895,0.001);
#586=CIRCLE('',#898,0.001);
#587=CIRCLE('',#901,0.001);
#588=CIRCLE('',#904,0.001);
#589=CIRCLE('',#907,0.006);
#590=CIRCLE('',#910,0.006);
#591=CIRCLE('',#913,0.005);
#592=CIRCLE('',#916,0.003);
#593=CIRCLE('',#919,0.003);
#594=CIRCLE('',#922,0.003);
#595=EDGE_LOOP('',(#189));
#596=EDGE_LOOP('',(#190));
#597=EDGE_LOOP('',(#191));
#598=EDGE_LOOP('',(#192));
#599=EDGE_LOOP('',(#193));
#600=EDGE_LOOP('',(#194));
#601=EDGE_LOOP('',(#195));
#602=EDGE_LOOP('',(#196));
#603=EDGE_LOOP('',(#197));
#604=EDGE_LOOP('',(#198,#199,#200,#201,#202,#203,#204,#205,#206,#207,#208,
#209,#210,#211));
#605=EDGE_LOOP('',(#212,#213,#214,#215,#216,#217));
#606=EDGE_LOOP('',(#218,#219,#220,#221));
#607=EDGE_LOOP('',(#222,#223,#224,#225));
#608=EDGE_LOOP('',(#226,#227,#228,#229));
#609=EDGE_LOOP('',(#230,#231,#232,#233,#234,#235,#236,#237));
#610=EDGE_LOOP('',(#238,#239,#240,#241));
#611=EDGE_LOOP('',(#242,#243,#244,#245));
#612=EDGE_LOOP('',(#246,#247,#248,#249,#250,#251,#252));
#613=EDGE_LOOP('',(#253,#254,#255,#256));
#614=EDGE_LOOP('',(#257));
#615=EDGE_LOOP('',(#258));
#616=EDGE_LOOP('',(#259));
#617=EDGE_LOOP('',(#260));
#618=EDGE_LOOP('',(#261,#262,#263,#264,#265,#266,#267,#268,#269));
#619=EDGE_LOOP('',(#270,#271,#272,#273,#274));
#620=EDGE_LOOP('',(#275));
#621=EDGE_LOOP('',(#276));
#622=EDGE_LOOP('',(#277));
#623=EDGE_LOOP('',(#278,#279,#280,#281));
#624=EDGE_LOOP('',(#282,#283,#284,#285,#286,#287,#288));
#625=EDGE_LOOP('',(#289,#290,#291,#292));
#626=EDGE_LOOP('',(#293,#294,#295,#296));
#627=EDGE_LOOP('',(#297,#298,#299,#300));
#628=EDGE_LOOP('',(#301));
#629=EDGE_LOOP('',(#302));
#630=EDGE_LOOP('',(#303,#304,#305,#306));
#631=EDGE_LOOP('',(#307,#308,#309,#310));
#632=EDGE_LOOP('',(#311,#312,#313,#314,#315,#316));
#633=EDGE_LOOP('',(#317));
#634=EDGE_LOOP('',(#318));
#635=EDGE_LOOP('',(#319,#320,#321,#322));
#636=EDGE_LOOP('',(#323,#324,#325,#326));
#637=EDGE_LOOP('',(#327,#328,#329,#330));
#638=EDGE_LOOP('',(#331,#332,#333,#334));
#639=EDGE_LOOP('',(#335,#336,#337,#338));
#640=EDGE_LOOP('',(#339,#340,#341,#342));
#641=EDGE_LOOP('',(#343,#344,#345,#346,#347,#348));
#642=EDGE_LOOP('',(#349));
#643=EDGE_LOOP('',(#350));
#644=EDGE_LOOP('',(#351));
#645=EDGE_LOOP('',(#352));
#646=EDGE_LOOP('',(#353));
#647=EDGE_LOOP('',(#354));
#648=EDGE_LOOP('',(#355));
#649=EDGE_LOOP('',(#356));
#650=EDGE_LOOP('',(#357));
#651=EDGE_LOOP('',(#358));
#652=EDGE_LOOP('',(#359));
#653=EDGE_LOOP('',(#360));
#654=EDGE_LOOP('',(#361));
#655=EDGE_LOOP('',(#362));
#656=EDGE_LOOP('',(#363));
#657=EDGE_LOOP('',(#364));
#658=EDGE_LOOP('',(#365));
#659=EDGE_LOOP('',(#366));
#660=EDGE_LOOP('',(#367));
#661=EDGE_LOOP('',(#368));
#662=EDGE_LOOP('',(#369));
#663=EDGE_LOOP('',(#370));
#664=EDGE_LOOP('',(#371));
#665=EDGE_LOOP('',(#372));
#666=EDGE_LOOP('',(#373));
#667=EDGE_LOOP('',(#374));
#668=EDGE_LOOP('',(#375));
#669=EDGE_LOOP('',(#376));
#670=EDGE_LOOP('',(#377));
#671=EDGE_LOOP('',(#378));
#672=EDGE_LOOP('',(#379));
#673=EDGE_LOOP('',(#380));
#674=EDGE_LOOP('',(#381));
#675=EDGE_LOOP('',(#382));
#676=EDGE_LOOP('',(#383));
#677=EDGE_LOOP('',(#384));
#678=EDGE_LOOP('',(#385,#386,#387,#388));
#679=FACE_BOUND('',#595,.T.);
#680=FACE_BOUND('',#596,.T.);
#681=FACE_BOUND('',#597,.T.);
#682=FACE_BOUND('',#598,.T.);
#683=FACE_BOUND('',#599,.T.);
#684=FACE_BOUND('',#600,.T.);
#685=FACE_BOUND('',#601,.T.);
#686=FACE_BOUND('',#602,.T.);
#687=FACE_BOUND('',#603,.T.);
#688=FACE_BOUND('',#604,.T.);
#689=FACE_BOUND('',#605,.T.);
#690=FACE_BOUND('',#606,.T.);
#691=FACE_BOUND('',#607,.T.);
#692=FACE_BOUND('',#608,.T.);
#693=FACE_BOUND('',#609,.T.);
#694=FACE_BOUND('',#610,.T.);
#695=FACE_BOUND('',#611,.T.);
#696=FACE_BOUND('',#612,.T.);
#697=FACE_BOUND('',#613,.T.);
#698=FACE_BOUND('',#614,.T.);
#699=FACE_BOUND('',#615,.T.);
#700=FACE_BOUND('',#616,.T.);
#701=FACE_BOUND('',#617,.T.);
#702=FACE_BOUND('',#618,.T.);
#703=FACE_BOUND('',#619,.T.);
#704=FACE_BOUND('',#620,.T.);
#705=FACE_BOUND('',#621,.T.);
#706=FACE_BOUND('',#622,.T.);
#707=FACE_BOUND('',#623,.T.);
#708=FACE_BOUND('',#624,.T.);
#709=FACE_BOUND('',#625,.T.);
#710=FACE_BOUND('',#626,.T.);
#711=FACE_BOUND('',#627,.T.);
#712=FACE_BOUND('',#628,.T.);
#713=FACE_BOUND('',#629,.T.);
#714=FACE_BOUND('',#630,.T.);
#715=FACE_BOUND('',#631,.T.);
#716=FACE_BOUND('',#632,.T.);
#717=FACE_BOUND('',#633,.T.);
#718=FACE_BOUND('',#634,.T.);
#719=FACE_BOUND('',#635,.T.);
#720=FACE_BOUND('',#636,.T.);
#721=FACE_BOUND('',#637,.T.);
#722=FACE_BOUND('',#638,.T.);
#723=FACE_BOUND('',#639,.T.);
#724=FACE_BOUND('',#640,.T.);
#725=FACE_BOUND('',#641,.T.);
#726=FACE_BOUND('',#642,.T.);
#727=FACE_BOUND('',#643,.T.);
#728=FACE_BOUND('',#644,.T.);
#729=FACE_BOUND('',#645,.T.);
#730=FACE_BOUND('',#646,.T.);
#731=FACE_BOUND('',#647,.T.);
#732=FACE_BOUND('',#648,.T.);
#733=FACE_BOUND('',#649,.T.);
#734=FACE_BOUND('',#650,.T.);
#735=FACE_BOUND('',#651,.T.);
#736=FACE_BOUND('',#652,.T.);
#737=FACE_BOUND('',#653,.T.);
#738=FACE_BOUND('',#654,.T.);
#739=FACE_BOUND('',#655,.T.);
#740=FACE_BOUND('',#656,.T.);
#741=FACE_BOUND('',#657,.T.);
#742=FACE_BOUND('',#658,.T.);
#743=FACE_BOUND('',#659,.T.);
#744=FACE_BOUND('',#660,.T.);
#745=FACE_BOUND('',#661,.T.);
#746=FACE_BOUND('',#662,.T.);
#747=FACE_BOUND('',#663,.T.);
#748=FACE_BOUND('',#664,.T.);
#749=FACE_BOUND('',#665,.T.);
#750=FACE_BOUND('',#666,.T.);
#751=FACE_BOUND('',#667,.T.);
#752=FACE_BOUND('',#668,.T.);
#753=FACE_BOUND('',#669,.T.);
#754=FACE_BOUND('',#670,.T.);
#755=FACE_BOUND('',#671,.T.);
#756=FACE_BOUND('',#672,.T.);
#757=FACE_BOUND('',#673,.T.);
#758=FACE_BOUND('',#674,.T.);
#759=FACE_BOUND('',#675,.T.);
#760=FACE_BOUND('',#676,.T.);
#761=FACE_BOUND('',#677,.T.);
#762=FACE_BOUND('',#678,.T.);
#763=CYLINDRICAL_SURFACE('',#843,0.0016);
#764=CYLINDRICAL_SURFACE('',#846,0.0016);
#765=CYLINDRICAL_SURFACE('',#849,0.0016);
#766=CYLINDRICAL_SURFACE('',#861,0.009);
#767=CYLINDRICAL_SURFACE('',#872,0.0025);
#768=CYLINDRICAL_SURFACE('',#894,0.001);
#769=CYLINDRICAL_SURFACE('',#897,0.001);
#770=CYLINDRICAL_SURFACE('',#900,0.001);
#771=CYLINDRICAL_SURFACE('',#903,0.001);
#772=CYLINDRICAL_SURFACE('',#906,0.006);
#773=CYLINDRICAL_SURFACE('',#909,0.006);
#774=CYLINDRICAL_SURFACE('',#912,0.005);
#775=CYLINDRICAL_SURFACE('',#915,0.003);
#776=CYLINDRICAL_SURFACE('',#918,0.003);
#777=CYLINDRICAL_SURFACE('',#921,0.003);
#778=ADVANCED_FACE('',(#679,#680),#763,.F.);
#779=ADVANCED_FACE('',(#681,#682),#764,.F.);
#780=ADVANCED_FACE('',(#683,#684),#765,.F.);
#781=ADVANCED_FACE('',(#685,#686,#687,#688,#689),#152,.F.);
#782=ADVANCED_FACE('',(#690),#153,.T.);
#783=ADVANCED_FACE('',(#691),#154,.F.);
#784=ADVANCED_FACE('',(#692),#155,.T.);
#785=ADVANCED_FACE('',(#693),#156,.T.);
#786=ADVANCED_FACE('',(#694),#766,.T.);
#787=ADVANCED_FACE('',(#695),#157,.T.);
#788=ADVANCED_FACE('',(#696),#158,.F.);
#789=ADVANCED_FACE('',(#697,#698),#159,.F.);
#790=ADVANCED_FACE('',(#699,#700,#701,#702),#160,.T.);
#791=ADVANCED_FACE('',(#703),#161,.F.);
#792=ADVANCED_FACE('',(#704,#705),#767,.F.);
#793=ADVANCED_FACE('',(#706),#162,.F.);
#794=ADVANCED_FACE('',(#707),#163,.T.);
#795=ADVANCED_FACE('',(#708),#164,.F.);
#796=ADVANCED_FACE('',(#709),#165,.F.);
#797=ADVANCED_FACE('',(#710),#166,.T.);
#798=ADVANCED_FACE('',(#711),#167,.F.);
#799=ADVANCED_FACE('',(#712,#713,#714),#168,.T.);
#800=ADVANCED_FACE('',(#715),#169,.T.);
#801=ADVANCED_FACE('',(#716),#170,.T.);
#802=ADVANCED_FACE('',(#717,#718,#719),#171,.F.);
#803=ADVANCED_FACE('',(#720),#172,.F.);
#804=ADVANCED_FACE('',(#721),#173,.T.);
#805=ADVANCED_FACE('',(#722),#174,.F.);
#806=ADVANCED_FACE('',(#723),#175,.T.);
#807=ADVANCED_FACE('',(#724),#176,.T.);
#808=ADVANCED_FACE('',(#725),#177,.T.);
#809=ADVANCED_FACE('',(#726,#727),#768,.F.);
#810=ADVANCED_FACE('',(#728),#178,.T.);
#811=ADVANCED_FACE('',(#729,#730),#769,.F.);
#812=ADVANCED_FACE('',(#731),#179,.T.);
#813=ADVANCED_FACE('',(#732,#733),#770,.F.);
#814=ADVANCED_FACE('',(#734),#180,.T.);
#815=ADVANCED_FACE('',(#735,#736),#771,.F.);
#816=ADVANCED_FACE('',(#737),#181,.T.);
#817=ADVANCED_FACE('',(#738,#739),#772,.T.);
#818=ADVANCED_FACE('',(#740,#741),#182,.F.);
#819=ADVANCED_FACE('',(#742,#743),#773,.T.);
#820=ADVANCED_FACE('',(#744,#745),#183,.F.);
#821=ADVANCED_FACE('',(#746,#747),#774,.T.);
#822=ADVANCED_FACE('',(#748,#749),#184,.F.);
#823=ADVANCED_FACE('',(#750,#751),#775,.F.);
#824=ADVANCED_FACE('',(#752,#753),#185,.T.);
#825=ADVANCED_FACE('',(#754,#755),#776,.F.);
#826=ADVANCED_FACE('',(#756,#757),#186,.T.);
#827=ADVANCED_FACE('',(#758,#759),#777,.F.);
#828=ADVANCED_FACE('',(#760,#761),#187,.T.);
#829=ADVANCED_FACE('',(#762),#188,.F.);
#830=CLOSED_SHELL('',(#778,#779,#780,#781,#782,#783,#784,#785,#786,#787,
#788,#789,#790,#791,#792,#793,#794,#795,#796,#797,#798,#799,#800,#801,#802,
#803,#804,#805,#806,#807,#808,#809,#810,#811,#812,#813,#814,#815,#816,#817,
#818,#819,#820,#821,#822,#823,#824,#825,#826,#827,#828,#829));
#831=STYLED_ITEM('',(#832),#839);
#832=PRESENTATION_STYLE_ASSIGNMENT((#833));
#833=SURFACE_STYLE_USAGE(.BOTH.,#834);
#834=SURFACE_SIDE_STYLE('',(#835));
#835=SURFACE_STYLE_FILL_AREA(#836);
#836=FILL_AREA_STYLE('',(#837));
#837=FILL_AREA_STYLE_COLOUR('',#838);
#838=COLOUR_RGB('',0.372549019607843,0.654901960784314,0.23921568627451);
#839=MANIFOLD_SOLID_BREP('Part 1',#830);
#840=SHAPE_DEFINITION_REPRESENTATION(#1396,#841);
#841=SHAPE_REPRESENTATION('Part 1',(#842),#1391);
#842=AXIS2_PLACEMENT_3D('',#1161,#925,#926);
#843=AXIS2_PLACEMENT_3D('',#1162,#927,#928);
#844=AXIS2_PLACEMENT_3D('',#1163,#929,#930);
#845=AXIS2_PLACEMENT_3D('',#1165,#931,#932);
#846=AXIS2_PLACEMENT_3D('',#1167,#933,#934);
#847=AXIS2_PLACEMENT_3D('',#1168,#935,#936);
#848=AXIS2_PLACEMENT_3D('',#1170,#937,#938);
#849=AXIS2_PLACEMENT_3D('',#1172,#939,#940);
#850=AXIS2_PLACEMENT_3D('',#1173,#941,#942);
#851=AXIS2_PLACEMENT_3D('',#1175,#943,#944);
#852=AXIS2_PLACEMENT_3D('',#1177,#945,#946);
#853=AXIS2_PLACEMENT_3D('',#1178,#947,#948);
#854=AXIS2_PLACEMENT_3D('',#1180,#949,#950);
#855=AXIS2_PLACEMENT_3D('',#1182,#951,#952);
#856=AXIS2_PLACEMENT_3D('',#1193,#957,#958);
#857=AXIS2_PLACEMENT_3D('',#1224,#974,#975);
#858=AXIS2_PLACEMENT_3D('',#1233,#980,#981);
#859=AXIS2_PLACEMENT_3D('',#1239,#985,#986);
#860=AXIS2_PLACEMENT_3D('',#1243,#989,#990);
#861=AXIS2_PLACEMENT_3D('',#1252,#996,#997);
#862=AXIS2_PLACEMENT_3D('',#1255,#999,#1000);
#863=AXIS2_PLACEMENT_3D('',#1256,#1001,#1002);
#864=AXIS2_PLACEMENT_3D('',#1260,#1005,#1006);
#865=AXIS2_PLACEMENT_3D('',#1270,#1012,#1013);
#866=AXIS2_PLACEMENT_3D('',#1273,#1016,#1017);
#867=AXIS2_PLACEMENT_3D('',#1275,#1018,#1019);
#868=AXIS2_PLACEMENT_3D('',#1276,#1020,#1021);
#869=AXIS2_PLACEMENT_3D('',#1278,#1022,#1023);
#870=AXIS2_PLACEMENT_3D('',#1280,#1024,#1025);
#871=AXIS2_PLACEMENT_3D('',#1283,#1027,#1028);
#872=AXIS2_PLACEMENT_3D('',#1287,#1031,#1032);
#873=AXIS2_PLACEMENT_3D('',#1288,#1033,#1034);
#874=AXIS2_PLACEMENT_3D('',#1290,#1035,#1036);
#875=AXIS2_PLACEMENT_3D('',#1291,#1037,#1038);
#876=AXIS2_PLACEMENT_3D('',#1295,#1041,#1042);
#877=AXIS2_PLACEMENT_3D('',#1297,#1044,#1045);
#878=AXIS2_PLACEMENT_3D('',#1301,#1048,#1049);
#879=AXIS2_PLACEMENT_3D('',#1305,#1052,#1053);
#880=AXIS2_PLACEMENT_3D('',#1309,#1056,#1057);
#881=AXIS2_PLACEMENT_3D('',#1310,#1058,#1059);
#882=AXIS2_PLACEMENT_3D('',#1312,#1060,#1061);
#883=AXIS2_PLACEMENT_3D('',#1317,#1064,#1065);
#884=AXIS2_PLACEMENT_3D('',#1319,#1067,#1068);
#885=AXIS2_PLACEMENT_3D('',#1320,#1069,#1070);
#886=AXIS2_PLACEMENT_3D('',#1321,#1071,#1072);
#887=AXIS2_PLACEMENT_3D('',#1323,#1073,#1074);
#888=AXIS2_PLACEMENT_3D('',#1330,#1078,#1079);
#889=AXIS2_PLACEMENT_3D('',#1334,#1082,#1083);
#890=AXIS2_PLACEMENT_3D('',#1338,#1086,#1087);
#891=AXIS2_PLACEMENT_3D('',#1342,#1090,#1091);
#892=AXIS2_PLACEMENT_3D('',#1346,#1094,#1095);
#893=AXIS2_PLACEMENT_3D('',#1348,#1097,#1098);
#894=AXIS2_PLACEMENT_3D('',#1349,#1099,#1100);
#895=AXIS2_PLACEMENT_3D('',#1350,#1101,#1102);
#896=AXIS2_PLACEMENT_3D('',#1352,#1103,#1104);
#897=AXIS2_PLACEMENT_3D('',#1353,#1105,#1106);
#898=AXIS2_PLACEMENT_3D('',#1354,#1107,#1108);
#899=AXIS2_PLACEMENT_3D('',#1356,#1109,#1110);
#900=AXIS2_PLACEMENT_3D('',#1357,#1111,#1112);
#901=AXIS2_PLACEMENT_3D('',#1358,#1113,#1114);
#902=AXIS2_PLACEMENT_3D('',#1360,#1115,#1116);
#903=AXIS2_PLACEMENT_3D('',#1361,#1117,#1118);
#904=AXIS2_PLACEMENT_3D('',#1362,#1119,#1120);
#905=AXIS2_PLACEMENT_3D('',#1364,#1121,#1122);
#906=AXIS2_PLACEMENT_3D('',#1365,#1123,#1124);
#907=AXIS2_PLACEMENT_3D('',#1366,#1125,#1126);
#908=AXIS2_PLACEMENT_3D('',#1368,#1127,#1128);
#909=AXIS2_PLACEMENT_3D('',#1369,#1129,#1130);
#910=AXIS2_PLACEMENT_3D('',#1370,#1131,#1132);
#911=AXIS2_PLACEMENT_3D('',#1372,#1133,#1134);
#912=AXIS2_PLACEMENT_3D('',#1373,#1135,#1136);
#913=AXIS2_PLACEMENT_3D('',#1374,#1137,#1138);
#914=AXIS2_PLACEMENT_3D('',#1376,#1139,#1140);
#915=AXIS2_PLACEMENT_3D('',#1377,#1141,#1142);
#916=AXIS2_PLACEMENT_3D('',#1378,#1143,#1144);
#917=AXIS2_PLACEMENT_3D('',#1380,#1145,#1146);
#918=AXIS2_PLACEMENT_3D('',#1381,#1147,#1148);
#919=AXIS2_PLACEMENT_3D('',#1382,#1149,#1150);
#920=AXIS2_PLACEMENT_3D('',#1384,#1151,#1152);
#921=AXIS2_PLACEMENT_3D('',#1385,#1153,#1154);
#922=AXIS2_PLACEMENT_3D('',#1386,#1155,#1156);
#923=AXIS2_PLACEMENT_3D('',#1388,#1157,#1158);
#924=AXIS2_PLACEMENT_3D('',#1389,#1159,#1160);
#925=DIRECTION('',(0.,0.,1.));
#926=DIRECTION('',(1.,0.,0.));
#927=DIRECTION('',(0.,0.,-1.));
#928=DIRECTION('',(-1.,0.,0.));
#929=DIRECTION('',(-1.02140518265512E-14,-4.58834359395854E-16,-0.999999999999985));
#930=DIRECTION('',(-1.,0.,1.02140518265513E-14));
#931=DIRECTION('',(0.,0.,-1.));
#932=DIRECTION('',(-1.,0.,0.));
#933=DIRECTION('',(0.,0.,-1.));
#934=DIRECTION('',(-1.,0.,0.));
#935=DIRECTION('',(-1.02140518265512E-14,-4.58834359395854E-16,-0.999999999999985));
#936=DIRECTION('',(-1.,0.,1.02140518265513E-14));
#937=DIRECTION('',(0.,0.,-1.));
#938=DIRECTION('',(-1.,0.,0.));
#939=DIRECTION('',(0.,0.,-1.));
#940=DIRECTION('',(-1.,0.,0.));
#941=DIRECTION('',(-1.02140518265512E-14,-4.58834359395854E-16,-0.999999999999985));
#942=DIRECTION('',(-1.,0.,1.02140518265513E-14));
#943=DIRECTION('',(0.,0.,-1.));
#944=DIRECTION('',(-1.,0.,0.));
#945=DIRECTION('',(0.,0.,1.));
#946=DIRECTION('',(1.,0.,0.));
#947=DIRECTION('',(0.,0.,-1.));
#948=DIRECTION('',(-1.,0.,0.));
#949=DIRECTION('',(0.,0.,-1.));
#950=DIRECTION('',(-1.,0.,0.));
#951=DIRECTION('',(0.,0.,-1.));
#952=DIRECTION('',(-1.,0.,0.));
#953=DIRECTION('',(0.447213595499958,-0.894427190999916,0.));
#954=DIRECTION('',(-1.,9.41087485717417E-16,0.));
#955=DIRECTION('',(0.,-1.,0.));
#956=DIRECTION('',(1.,0.,0.));
#957=DIRECTION('',(0.,0.,1.));
#958=DIRECTION('',(1.,0.,0.));
#959=DIRECTION('',(1.,0.,0.));
#960=DIRECTION('',(0.,1.,0.));
#961=DIRECTION('',(1.,0.,0.));
#962=DIRECTION('',(0.,1.,0.));
#963=DIRECTION('',(1.,0.,0.));
#964=DIRECTION('',(0.,1.,0.));
#965=DIRECTION('',(1.,0.,0.));
#966=DIRECTION('',(0.,-1.,0.));
#967=DIRECTION('',(1.,0.,0.));
#968=DIRECTION('',(-1.,0.,0.));
#969=DIRECTION('',(3.04931861011548E-16,1.,0.));
#970=DIRECTION('',(-1.,0.,0.));
#971=DIRECTION('',(2.89120579329468E-16,1.,0.));
#972=DIRECTION('',(-1.,0.,0.));
#973=DIRECTION('',(0.,1.,0.));
#974=DIRECTION('',(1.,5.78241158658936E-17,0.));
#975=DIRECTION('',(-5.78241158658936E-17,1.,0.));
#976=DIRECTION('',(0.,-1.,0.));
#977=DIRECTION('',(4.36594275153408E-32,-7.55038392918904E-16,1.));
#978=DIRECTION('',(5.78241158658936E-17,-1.,0.));
#979=DIRECTION('',(0.,0.,-1.));
#980=DIRECTION('',(0.,1.,0.));
#981=DIRECTION('',(0.,0.,1.));
#982=DIRECTION('',(0.,0.,-1.));
#983=DIRECTION('',(1.,0.,0.));
#984=DIRECTION('',(-3.77519196459452E-16,0.,1.));
#985=DIRECTION('',(1.,0.,0.));
#986=DIRECTION('',(0.,0.,-1.));
#987=DIRECTION('',(0.,0.,-1.));
#988=DIRECTION('',(0.,-1.,0.));
#989=DIRECTION('',(0.,1.,0.));
#990=DIRECTION('',(0.,0.,1.));
#991=DIRECTION('',(0.,0.,-1.));
#992=DIRECTION('',(1.,0.,0.));
#993=DIRECTION('',(0.,0.,1.));
#994=DIRECTION('',(-1.,0.,-9.99200722162637E-16));
#995=DIRECTION('',(0.,0.,1.));
#996=DIRECTION('',(0.,0.,-1.));
#997=DIRECTION('',(-1.,0.,0.));
#998=DIRECTION('',(0.,0.,-1.));
#999=DIRECTION('',(0.,0.,1.));
#1000=DIRECTION('',(1.,0.,0.));
#1001=DIRECTION('',(0.,1.,0.));
#1002=DIRECTION('',(0.,0.,1.));
#1003=DIRECTION('',(0.,0.,-1.));
#1004=DIRECTION('',(1.,0.,0.));
#1005=DIRECTION('',(1.,0.,0.));
#1006=DIRECTION('',(0.,0.,-1.));
#1007=DIRECTION('',(0.,-0.707106781186548,-0.707106781186548));
#1008=DIRECTION('',(3.51301264162792E-32,-7.55038392918904E-16,1.));
#1009=DIRECTION('',(0.,-1.,0.));
#1010=DIRECTION('',(0.,0.,-1.));
#1011=DIRECTION('',(0.,-1.,0.));
#1012=DIRECTION('',(0.,1.,0.));
#1013=DIRECTION('',(0.,0.,1.));
#1014=DIRECTION('',(-1.,0.,0.));
#1015=DIRECTION('',(1.,0.,0.));
#1016=DIRECTION('',(0.,-1.,0.));
#1017=DIRECTION('',(0.,0.,-1.));
#1018=DIRECTION('',(0.,0.,1.));
#1019=DIRECTION('',(1.,0.,0.));
#1020=DIRECTION('',(0.,0.,1.));
#1021=DIRECTION('',(1.,0.,0.));
#1022=DIRECTION('',(0.,0.,1.));
#1023=DIRECTION('',(1.,0.,0.));
#1024=DIRECTION('',(0.,0.,1.));
#1025=DIRECTION('',(1.,0.,0.));
#1026=DIRECTION('',(0.447213595499958,-0.894427190999916,0.));
#1027=DIRECTION('',(0.,0.,1.));
#1028=DIRECTION('',(1.,0.,0.));
#1029=DIRECTION('',(-1.,9.41087485717417E-16,-1.70999424435091E-32));
#1030=DIRECTION('',(-0.447213595499958,0.894427190999916,0.));
#1031=DIRECTION('',(0.,-1.,0.));
#1032=DIRECTION('',(0.,0.,-1.));
#1033=DIRECTION('',(9.41087485717417E-16,1.,7.55038392918904E-16));
#1034=DIRECTION('',(-1.,9.41087485717417E-16,0.));
#1035=DIRECTION('',(9.41087485717417E-16,1.,7.55038392918904E-16));
#1036=DIRECTION('',(-1.,9.41087485717417E-16,7.10557182812171E-31));
#1037=DIRECTION('',(9.41087485717417E-16,1.,7.55038392918904E-16));
#1038=DIRECTION('',(-1.,9.41087485717417E-16,7.10557182812171E-31));
#1039=DIRECTION('',(1.,-9.41087485717417E-16,0.));
#1040=DIRECTION('',(-4.36594275153408E-32,7.55038392918904E-16,-1.));
#1041=DIRECTION('',(-0.894427190999916,-0.447213595499958,-3.37663434437773E-16));
#1042=DIRECTION('',(-4.36594275153408E-32,7.55038392918904E-16,-1.));
#1043=DIRECTION('',(0.333333333333333,-0.666666666666667,-0.666666666666667));
#1044=DIRECTION('',(1.,0.,0.));
#1045=DIRECTION('',(0.,0.,-1.));
#1046=DIRECTION('',(0.,1.,-4.90059381963446E-16));
#1047=DIRECTION('',(0.,0.,1.));
#1048=DIRECTION('',(1.,0.,0.));
#1049=DIRECTION('',(0.,0.,-1.));
#1050=DIRECTION('',(0.,0.,1.));
#1051=DIRECTION('',(0.,1.,-4.90059381963446E-16));
#1052=DIRECTION('',(0.,-1.,0.));
#1053=DIRECTION('',(0.,0.,-1.));
#1054=DIRECTION('',(1.,0.,9.99200722162637E-16));
#1055=DIRECTION('',(0.,0.,1.));
#1056=DIRECTION('',(0.,-1.,0.));
#1057=DIRECTION('',(0.,0.,-1.));
#1058=DIRECTION('',(0.,-1.,0.));
#1059=DIRECTION('',(0.,0.,-1.));
#1060=DIRECTION('',(0.,-1.,0.));
#1061=DIRECTION('',(0.,0.,-1.));
#1062=DIRECTION('',(1.,0.,9.99200722162637E-16));
#1063=DIRECTION('',(0.,0.,1.));
#1064=DIRECTION('',(1.,0.,0.));
#1065=DIRECTION('',(0.,0.,-1.));
#1066=DIRECTION('',(0.,1.,-4.90059381963446E-16));
#1067=DIRECTION('',(9.99200722162639E-16,-4.90059381963447E-16,-1.));
#1068=DIRECTION('',(1.,1.10003152420379E-15,-9.9638687871186E-16));
#1069=DIRECTION('',(0.,1.,0.));
#1070=DIRECTION('',(0.,0.,1.));
#1071=DIRECTION('',(0.,-1.,0.));
#1072=DIRECTION('',(0.,0.,-1.));
#1073=DIRECTION('',(0.,-1.,0.));
#1074=DIRECTION('',(0.,0.,-1.));
#1075=DIRECTION('',(-1.,0.,-9.99200722162637E-16));
#1076=DIRECTION('',(0.,0.,1.));
#1077=DIRECTION('',(0.,0.,1.));
#1078=DIRECTION('',(1.,0.,0.));
#1079=DIRECTION('',(0.,0.,-1.));
#1080=DIRECTION('',(0.,1.,-4.90059381963446E-16));
#1081=DIRECTION('',(0.,0.,1.));
#1082=DIRECTION('',(0.,1.,0.));
#1083=DIRECTION('',(0.,0.,1.));
#1084=DIRECTION('',(0.,0.,1.));
#1085=DIRECTION('',(-1.,0.,-9.99200722162637E-16));
#1086=DIRECTION('',(1.,-2.89120579329468E-16,0.));
#1087=DIRECTION('',(2.89120579329468E-16,1.,0.));
#1088=DIRECTION('',(2.89120579329468E-16,1.,-4.90059381963446E-16));
#1089=DIRECTION('',(0.,0.,1.));
#1090=DIRECTION('',(1.,-3.04931861011548E-16,0.));
#1091=DIRECTION('',(3.04931861011548E-16,1.,0.));
#1092=DIRECTION('',(3.04931861011548E-16,1.,-4.90059381963446E-16));
#1093=DIRECTION('',(0.,0.,1.));
#1094=DIRECTION('',(0.,1.,0.));
#1095=DIRECTION('',(0.,0.,1.));
#1096=DIRECTION('',(-1.,0.,-9.99200722162637E-16));
#1097=DIRECTION('',(9.99200722162639E-16,-4.90059381963447E-16,-1.));
#1098=DIRECTION('',(1.,1.10003152420379E-15,-9.9638687871186E-16));
#1099=DIRECTION('',(0.,-1.,0.));
#1100=DIRECTION('',(0.,0.,-1.));
#1101=DIRECTION('',(0.,-1.,0.));
#1102=DIRECTION('',(0.,0.,-1.));
#1103=DIRECTION('',(0.,-1.,0.));
#1104=DIRECTION('',(1.,0.,0.));
#1105=DIRECTION('',(0.,-1.,0.));
#1106=DIRECTION('',(0.,0.,-1.));
#1107=DIRECTION('',(0.,-1.,0.));
#1108=DIRECTION('',(0.,0.,-1.));
#1109=DIRECTION('',(0.,-1.,0.));
#1110=DIRECTION('',(1.,0.,0.));
#1111=DIRECTION('',(0.,-1.,0.));
#1112=DIRECTION('',(0.,0.,-1.));
#1113=DIRECTION('',(0.,-1.,0.));
#1114=DIRECTION('',(0.,0.,-1.));
#1115=DIRECTION('',(0.,-1.,0.));
#1116=DIRECTION('',(1.,0.,0.));
#1117=DIRECTION('',(0.,-1.,0.));
#1118=DIRECTION('',(0.,0.,-1.));
#1119=DIRECTION('',(0.,-1.,0.));
#1120=DIRECTION('',(0.,0.,-1.));
#1121=DIRECTION('',(0.,-1.,0.));
#1122=DIRECTION('',(1.,0.,0.));
#1123=DIRECTION('',(0.,0.,-1.));
#1124=DIRECTION('',(-1.,0.,0.));
#1125=DIRECTION('',(-1.02140518265512E-14,-4.58834359395854E-16,-0.999999999999985));
#1126=DIRECTION('',(-1.,0.,1.02140518265513E-14));
#1127=DIRECTION('',(-1.02140518265512E-14,-4.58834359395854E-16,-0.999999999999985));
#1128=DIRECTION('',(-9.36316996158458E-16,-1.00000000000002,-1.12323345069495E-15));
#1129=DIRECTION('',(0.,0.,-1.));
#1130=DIRECTION('',(-1.,0.,0.));
#1131=DIRECTION('',(-1.02140518265512E-14,-4.58834359395854E-16,-0.999999999999985));
#1132=DIRECTION('',(-1.,0.,1.02140518265513E-14));
#1133=DIRECTION('',(-1.02140518265512E-14,-4.58834359395854E-16,-0.999999999999985));
#1134=DIRECTION('',(-9.36316996158458E-16,-1.00000000000002,-1.12323345069495E-15));
#1135=DIRECTION('',(0.,0.,-1.));
#1136=DIRECTION('',(-1.,0.,0.));
#1137=DIRECTION('',(-1.02140518265512E-14,-4.58834359395854E-16,-0.999999999999985));
#1138=DIRECTION('',(-1.,0.,1.02140518265513E-14));
#1139=DIRECTION('',(-1.02140518265512E-14,-4.58834359395854E-16,-0.999999999999985));
#1140=DIRECTION('',(-9.36316996158458E-16,-1.00000000000002,-1.12323345069495E-15));
#1141=DIRECTION('',(0.,0.,-1.));
#1142=DIRECTION('',(-1.,0.,0.));
#1143=DIRECTION('',(0.,0.,-1.));
#1144=DIRECTION('',(-1.,0.,0.));
#1145=DIRECTION('',(0.,0.,-1.));
#1146=DIRECTION('',(1.,0.,0.));
#1147=DIRECTION('',(0.,0.,-1.));
#1148=DIRECTION('',(-1.,0.,0.));
#1149=DIRECTION('',(0.,0.,-1.));
#1150=DIRECTION('',(-1.,0.,0.));
#1151=DIRECTION('',(0.,0.,-1.));
#1152=DIRECTION('',(1.,0.,0.));
#1153=DIRECTION('',(0.,0.,-1.));
#1154=DIRECTION('',(-1.,0.,0.));
#1155=DIRECTION('',(0.,0.,-1.));
#1156=DIRECTION('',(-1.,0.,0.));
#1157=DIRECTION('',(0.,0.,-1.));
#1158=DIRECTION('',(1.,0.,0.));
#1159=DIRECTION('',(-6.65449342840584E-16,-0.707106781186548,0.707106781186547));
#1160=DIRECTION('',(1.,-9.41087485717417E-16,0.));
#1161=CARTESIAN_POINT('',(0.,0.,0.));
#1162=CARTESIAN_POINT('',(0.00101101078935367,-0.00230000000000754,0.005));
#1163=CARTESIAN_POINT('',(0.00101101078935367,-0.00230000000000754,0.00986425368206537));
#1164=CARTESIAN_POINT('',(-0.00058898921064633,-0.00230000000000754,0.00986425368206539));
#1165=CARTESIAN_POINT('',(0.00101101078935367,-0.00230000000000754,0.0058));
#1166=CARTESIAN_POINT('',(-0.00058898921064633,-0.00230000000000754,0.0058));
#1167=CARTESIAN_POINT('',(0.0010110107893537,0.0276999999999939,0.005));
#1168=CARTESIAN_POINT('',(0.0010110107893537,0.0276999999999939,0.00986425368206536));
#1169=CARTESIAN_POINT('',(-0.000588989210646302,0.0276999999999939,0.00986425368206538));
#1170=CARTESIAN_POINT('',(0.0010110107893537,0.0276999999999939,0.0058));
#1171=CARTESIAN_POINT('',(-0.000588989210646302,0.0276999999999939,0.0058));
#1172=CARTESIAN_POINT('',(0.0310110107893543,-0.00230000000000753,0.005));
#1173=CARTESIAN_POINT('',(0.0310110107893543,-0.00230000000000753,0.00986425368206506));
#1174=CARTESIAN_POINT('',(0.0294110107893543,-0.00230000000000753,0.00986425368206508));
#1175=CARTESIAN_POINT('',(0.0310110107893543,-0.00230000000000753,0.0058));
#1176=CARTESIAN_POINT('',(0.0294110107893543,-0.00230000000000753,0.0058));
#1177=CARTESIAN_POINT('',(0.0140110107893526,0.004,0.));
#1178=CARTESIAN_POINT('',(0.0310110107893543,-0.00230000000000753,0.));
#1179=CARTESIAN_POINT('',(0.0280110107893543,-0.00230000000000753,0.));
#1180=CARTESIAN_POINT('',(0.00101101078935367,-0.00230000000000754,0.));
#1181=CARTESIAN_POINT('',(-0.00198898921064633,-0.00230000000000754,0.));
#1182=CARTESIAN_POINT('',(0.0010110107893537,0.0276999999999939,0.));
#1183=CARTESIAN_POINT('',(-0.0019889892106463,0.0276999999999939,0.));
#1184=CARTESIAN_POINT('',(-0.00530898921064758,-0.00566,0.));
#1185=CARTESIAN_POINT('',(-0.00313898921064761,-0.01,0.));
#1186=CARTESIAN_POINT('',(-0.0104889892106474,0.00469999999999964,0.));
#1187=CARTESIAN_POINT('',(0.0140110107893526,0.00469999999999962,0.));
#1188=CARTESIAN_POINT('',(-0.0209889892106475,0.00469999999999965,0.));
#1189=CARTESIAN_POINT('',(-0.0209889892106475,-0.0175,0.));
#1190=CARTESIAN_POINT('',(-0.0209889892106475,0.024,0.));
#1191=CARTESIAN_POINT('',(-0.0144889892106469,0.024,0.));
#1192=CARTESIAN_POINT('',(-0.0079889892106463,0.024,0.));
#1193=CARTESIAN_POINT('',(0.0010110107893537,0.024,0.));
#1194=CARTESIAN_POINT('',(0.0100110107893537,0.024,0.));
#1195=CARTESIAN_POINT('',(0.0295110107893531,0.024,0.));
#1196=CARTESIAN_POINT('',(0.0402,0.024,0.));
#1197=CARTESIAN_POINT('',(0.0402,0.0103999995231628,0.));
#1198=CARTESIAN_POINT('',(0.0402,0.00839999952316284,0.));
#1199=CARTESIAN_POINT('',(0.0446,0.00839999952316285,0.));
#1200=CARTESIAN_POINT('',(0.049,0.00839999952316285,0.));
#1201=CARTESIAN_POINT('',(0.049,0.0103999995231628,0.));
#1202=CARTESIAN_POINT('',(0.049,0.0123999995231628,0.));
#1203=CARTESIAN_POINT('',(0.0466,0.0123999995231628,0.));
#1204=CARTESIAN_POINT('',(0.0442,0.0123999995231628,0.));
#1205=CARTESIAN_POINT('',(0.0442,0.0181999997615814,0.));
#1206=CARTESIAN_POINT('',(0.0442,0.024,0.));
#1207=CARTESIAN_POINT('',(0.0295110107893531,0.024,0.));
#1208=CARTESIAN_POINT('',(0.0490110107893526,0.024,0.));
#1209=CARTESIAN_POINT('',(0.0490110107893526,0.007,0.));
#1210=CARTESIAN_POINT('',(0.0490110107893526,-0.01,0.));
#1211=CARTESIAN_POINT('',(0.0230110107893526,-0.01,0.));
#1212=CARTESIAN_POINT('',(-0.0046,0.00839999952316285,0.));
#1213=CARTESIAN_POINT('',(-0.0002,0.00839999952316285,0.));
#1214=CARTESIAN_POINT('',(-0.009,0.00839999952316285,0.));
#1215=CARTESIAN_POINT('',(-0.0002,0.0103999995231628,0.));
#1216=CARTESIAN_POINT('',(-0.000199999999999996,0.0243999995231628,0.));
#1217=CARTESIAN_POINT('',(-0.0022,0.0243999995231628,0.));
#1218=CARTESIAN_POINT('',(-0.0042,0.0243999995231628,0.));
#1219=CARTESIAN_POINT('',(-0.0042,0.0183999995231629,0.));
#1220=CARTESIAN_POINT('',(-0.0042,0.0123999995231628,0.));
#1221=CARTESIAN_POINT('',(-0.0066,0.0123999995231628,0.));
#1222=CARTESIAN_POINT('',(-0.009,0.0123999995231628,0.));
#1223=CARTESIAN_POINT('',(-0.009,0.0103999995231628,0.));
#1224=CARTESIAN_POINT('',(-0.00298898921064743,-0.0175,0.005));
#1225=CARTESIAN_POINT('',(-0.00298898921064742,-0.00429800000000035,-0.0131357463179397));
#1226=CARTESIAN_POINT('',(-0.00298898921064742,-0.0103000000000004,-0.0131357463179397));
#1227=CARTESIAN_POINT('',(-0.00298898921064742,-0.025,-0.0131357463179397));
#1228=CARTESIAN_POINT('',(-0.00298898921064743,-0.0103000000000004,0.005));
#1229=CARTESIAN_POINT('',(-0.00298898921064743,-0.0103000000000004,0.005));
#1230=CARTESIAN_POINT('',(-0.00298898921064743,-0.0175,0.005));
#1231=CARTESIAN_POINT('',(-0.00298898921064742,-0.025,0.005));
#1232=CARTESIAN_POINT('',(-0.00298898921064742,-0.025,0.005));
#1233=CARTESIAN_POINT('',(0.0230110107893526,-0.01,0.005));
#1234=CARTESIAN_POINT('',(0.0490110107893526,-0.01,0.005));
#1235=CARTESIAN_POINT('',(0.0490110107893526,-0.01,0.005));
#1236=CARTESIAN_POINT('',(0.0230110107893526,-0.01,0.005));
#1237=CARTESIAN_POINT('',(-0.00313898921064762,-0.01,0.005));
#1238=CARTESIAN_POINT('',(-0.00313898921064761,-0.01,0.005));
#1239=CARTESIAN_POINT('',(0.0490110107893526,0.007,0.005));
#1240=CARTESIAN_POINT('',(0.0490110107893526,0.024,0.005));
#1241=CARTESIAN_POINT('',(0.0490110107893526,0.024,0.005));
#1242=CARTESIAN_POINT('',(0.0490110107893526,0.007,0.005));
#1243=CARTESIAN_POINT('',(0.0295110107893531,0.024,0.005));
#1244=CARTESIAN_POINT('',(0.0100110107893537,0.024,0.005));
#1245=CARTESIAN_POINT('',(0.0100110107893537,0.024,0.005));
#1246=CARTESIAN_POINT('',(0.0295110107893531,0.024,0.005));
#1247=CARTESIAN_POINT('',(0.0442,0.024,-0.020002));
#1248=CARTESIAN_POINT('',(0.0442,0.024,-0.02));
#1249=CARTESIAN_POINT('',(0.0422,0.024,-0.02));
#1250=CARTESIAN_POINT('',(0.0402,0.024,-0.02));
#1251=CARTESIAN_POINT('',(0.0402,0.024,-0.020002));
#1252=CARTESIAN_POINT('',(0.0010110107893537,0.024,0.005));
#1253=CARTESIAN_POINT('',(-0.0079889892106463,0.024,0.005));
#1254=CARTESIAN_POINT('',(-0.0079889892106463,0.024,0.005));
#1255=CARTESIAN_POINT('',(0.0010110107893537,0.024,0.005));
#1256=CARTESIAN_POINT('',(-0.0144889892106469,0.024,0.005));
#1257=CARTESIAN_POINT('',(-0.0209889892106475,0.024,0.005));
#1258=CARTESIAN_POINT('',(-0.0209889892106475,0.024,0.005));
#1259=CARTESIAN_POINT('',(-0.0144889892106469,0.024,0.005));
#1260=CARTESIAN_POINT('',(-0.0209889892106475,-0.0175,0.005));
#1261=CARTESIAN_POINT('',(-0.0209889892106475,-0.00390000000000017,-0.00859999999999983));
#1262=CARTESIAN_POINT('',(-0.0209889892106475,-0.000300000000000347,-0.005));
#1263=CARTESIAN_POINT('',(-0.0209889892106475,-0.000300000000000346,-0.00656787315896983));
#1264=CARTESIAN_POINT('',(-0.0209889892106475,-0.000300000000000341,-0.0131357463179397));
#1265=CARTESIAN_POINT('',(-0.0209889892106475,-0.00429800000000035,-0.0131357463179397));
#1266=CARTESIAN_POINT('',(-0.0209889892106475,-0.025,-0.0131357463179397));
#1267=CARTESIAN_POINT('',(-0.0209889892106475,-0.025,0.005));
#1268=CARTESIAN_POINT('',(-0.0209889892106475,-0.025,0.005));
#1269=CARTESIAN_POINT('',(-0.0209889892106475,-0.0175,0.005));
#1270=CARTESIAN_POINT('',(-0.0119889892106474,-0.025,0.005));
#1271=CARTESIAN_POINT('',(-0.0119889892106474,-0.025,-0.0131357463179397));
#1272=CARTESIAN_POINT('',(-0.0119889892106474,-0.025,0.005));
#1273=CARTESIAN_POINT('',(-0.0109889892106472,-0.025,-0.00613574631793945));
#1274=CARTESIAN_POINT('',(-0.0109889892106472,-0.025,-0.00863574631793945));
#1275=CARTESIAN_POINT('',(0.0140110107893526,0.004,0.005));
#1276=CARTESIAN_POINT('',(0.0010110107893537,0.0276999999999939,0.005));
#1277=CARTESIAN_POINT('',(0.0060110107893537,0.0276999999999939,0.005));
#1278=CARTESIAN_POINT('',(0.00101101078935367,-0.00230000000000753,0.005));
#1279=CARTESIAN_POINT('',(0.00701101078935367,-0.00230000000000753,0.005));
#1280=CARTESIAN_POINT('',(0.0310110107893543,-0.00230000000000753,0.005));
#1281=CARTESIAN_POINT('',(0.0370110107893543,-0.00230000000000753,0.005));
#1282=CARTESIAN_POINT('',(-0.00530898921064758,-0.00566,0.005));
#1283=CARTESIAN_POINT('',(-0.0119889892106474,-0.00429800000000035,-0.0131357463179397));
#1284=CARTESIAN_POINT('',(-0.0119889892106474,-0.000300000000000349,-0.0131357463179397));
#1285=CARTESIAN_POINT('',(-0.00798898921064742,-0.000300000000000353,-0.0131357463179397));
#1286=CARTESIAN_POINT('',(-0.00798898921064742,-0.000300000000000357,-0.0131357463179397));
#1287=CARTESIAN_POINT('',(-0.0109889892106472,-0.00429800000000035,-0.00613574631793945));
#1288=CARTESIAN_POINT('',(-0.0109889892106472,-0.00430000000000035,-0.00613574631793945));
#1289=CARTESIAN_POINT('',(-0.0134889892106472,-0.00430000000000035,-0.00613574631793945));
#1290=CARTESIAN_POINT('',(-0.0119889892106474,-0.00430000000000035,-0.00656787315896983));
#1291=CARTESIAN_POINT('',(-0.0119889892106474,-0.000300000000000354,-0.00656787315896983));
#1292=CARTESIAN_POINT('',(-0.0119889892106474,-0.000300000000000356,-0.005));
#1293=CARTESIAN_POINT('',(-0.00798898921064742,-0.000300000000000359,-0.005));
#1294=CARTESIAN_POINT('',(-0.00798898921064742,-0.000300000000000358,-0.00656787315896983));
#1295=CARTESIAN_POINT('',(-0.00798898921064742,-0.000300000000000358,-0.00656787315896983));
#1296=CARTESIAN_POINT('',(-0.00843343365509187,0.000588888888888531,-0.00411111111111111));
#1297=CARTESIAN_POINT('',(0.0402,0.0103999995231628,-0.020002));
#1298=CARTESIAN_POINT('',(0.0402,0.0103999995231628,-0.02));
#1299=CARTESIAN_POINT('',(0.0402,0.00839999952316284,-0.02));
#1300=CARTESIAN_POINT('',(0.0402,0.00839999952316284,-0.020002));
#1301=CARTESIAN_POINT('',(0.0442,0.0181999997615814,-0.020002));
#1302=CARTESIAN_POINT('',(0.0442,0.0123999995231628,-0.020002));
#1303=CARTESIAN_POINT('',(0.0442,0.0123999995231628,-0.02));
#1304=CARTESIAN_POINT('',(0.0442,0.0181999997615814,-0.02));
#1305=CARTESIAN_POINT('',(0.0466,0.0123999995231628,-0.020002));
#1306=CARTESIAN_POINT('',(0.0466,0.0123999995231628,-0.02));
#1307=CARTESIAN_POINT('',(0.049,0.0123999995231628,-0.02));
#1308=CARTESIAN_POINT('',(0.049,0.0123999995231628,-0.020002));
#1309=CARTESIAN_POINT('',(0.0446,0.00839999952316285,-0.020002));
#1310=CARTESIAN_POINT('',(0.0440000006556511,0.00839999952316285,-0.00515));
#1311=CARTESIAN_POINT('',(0.0440000006556511,0.00839999952316285,-0.00615));
#1312=CARTESIAN_POINT('',(0.0440000006556511,0.00839999952316285,-0.01485));
#1313=CARTESIAN_POINT('',(0.0440000006556511,0.00839999952316285,-0.01585));
#1314=CARTESIAN_POINT('',(0.0446,0.00839999952316285,-0.02));
#1315=CARTESIAN_POINT('',(0.049,0.00839999952316285,-0.02));
#1316=CARTESIAN_POINT('',(0.049,0.00839999952316285,-0.020002));
#1317=CARTESIAN_POINT('',(0.049,0.0103999995231628,-0.020002));
#1318=CARTESIAN_POINT('',(0.049,0.0103999995231628,-0.02));
#1319=CARTESIAN_POINT('',(1.11022302462515E-16,0.038,-0.02));
#1320=CARTESIAN_POINT('',(-0.0046,0.00839999952316285,-0.020002));
#1321=CARTESIAN_POINT('',(-0.00400000065565101,0.00839999952316285,-0.01485));
#1322=CARTESIAN_POINT('',(-0.00400000065565101,0.00839999952316285,-0.01585));
#1323=CARTESIAN_POINT('',(-0.00400000065565102,0.00839999952316285,-0.00515));
#1324=CARTESIAN_POINT('',(-0.00400000065565102,0.00839999952316285,-0.00615));
#1325=CARTESIAN_POINT('',(-0.0046,0.00839999952316285,-0.02));
#1326=CARTESIAN_POINT('',(-0.0002,0.00839999952316285,-0.02));
#1327=CARTESIAN_POINT('',(-0.009,0.00839999952316285,-0.02));
#1328=CARTESIAN_POINT('',(-0.0002,0.00839999952316285,-0.020002));
#1329=CARTESIAN_POINT('',(-0.009,0.00839999952316285,-0.020002));
#1330=CARTESIAN_POINT('',(-0.009,0.0103999995231628,-0.020002));
#1331=CARTESIAN_POINT('',(-0.009,0.0103999995231628,-0.02));
#1332=CARTESIAN_POINT('',(-0.009,0.0123999995231628,-0.02));
#1333=CARTESIAN_POINT('',(-0.009,0.0123999995231628,-0.020002));
#1334=CARTESIAN_POINT('',(-0.0066,0.0123999995231628,-0.020002));
#1335=CARTESIAN_POINT('',(-0.0042,0.0123999995231628,-0.020002));
#1336=CARTESIAN_POINT('',(-0.0042,0.0123999995231628,-0.02));
#1337=CARTESIAN_POINT('',(-0.0066,0.0123999995231628,-0.02));
#1338=CARTESIAN_POINT('',(-0.0042,0.0183999995231629,-0.020002));
#1339=CARTESIAN_POINT('',(-0.0042,0.0183999995231629,-0.02));
#1340=CARTESIAN_POINT('',(-0.0042,0.0243999995231628,-0.02));
#1341=CARTESIAN_POINT('',(-0.0042,0.0243999995231628,-0.020002));
#1342=CARTESIAN_POINT('',(-0.0002,0.0103999995231628,-0.020002));
#1343=CARTESIAN_POINT('',(-0.0002,0.0103999995231628,-0.02));
#1344=CARTESIAN_POINT('',(-0.000199999999999996,0.0243999995231628,-0.02));
#1345=CARTESIAN_POINT('',(-0.000199999999999996,0.0243999995231628,-0.020002));
#1346=CARTESIAN_POINT('',(-0.0022,0.0243999995231628,-0.020002));
#1347=CARTESIAN_POINT('',(-0.0022,0.0243999995231628,-0.02));
#1348=CARTESIAN_POINT('',(1.11022302462515E-16,0.038,-0.02));
#1349=CARTESIAN_POINT('',(-0.00400000065565102,0.0113999995231628,-0.00515));
#1350=CARTESIAN_POINT('',(-0.00400000065565102,0.0113999995231628,-0.00515));
#1351=CARTESIAN_POINT('',(-0.00400000065565102,0.0113999995231628,-0.00615));
#1352=CARTESIAN_POINT('',(0.02,0.0113999995231628,-0.01));
#1353=CARTESIAN_POINT('',(-0.00400000065565101,0.0113999995231628,-0.01485));
#1354=CARTESIAN_POINT('',(-0.00400000065565101,0.0113999995231628,-0.01485));
#1355=CARTESIAN_POINT('',(-0.00400000065565101,0.0113999995231628,-0.01585));
#1356=CARTESIAN_POINT('',(0.02,0.0113999995231628,-0.01));
#1357=CARTESIAN_POINT('',(0.0440000006556511,0.0113999995231628,-0.01485));
#1358=CARTESIAN_POINT('',(0.0440000006556511,0.0113999995231628,-0.01485));
#1359=CARTESIAN_POINT('',(0.0440000006556511,0.0113999995231628,-0.01585));
#1360=CARTESIAN_POINT('',(0.02,0.0113999995231628,-0.01));
#1361=CARTESIAN_POINT('',(0.0440000006556511,0.0113999995231628,-0.00515));
#1362=CARTESIAN_POINT('',(0.0440000006556511,0.0113999995231628,-0.00515));
#1363=CARTESIAN_POINT('',(0.0440000006556511,0.0113999995231628,-0.00615));
#1364=CARTESIAN_POINT('',(0.02,0.0113999995231628,-0.01));
#1365=CARTESIAN_POINT('',(0.0310110107893543,-0.00230000000000753,0.00986625368206416));
#1366=CARTESIAN_POINT('',(0.0310110107893543,-0.00230000000000753,0.00986425368206506));
#1367=CARTESIAN_POINT('',(0.0250110107893543,-0.00230000000000753,0.00986425368206512));
#1368=CARTESIAN_POINT('',(0.121011010789356,-0.0323000000000088,0.00986425368206416));
#1369=CARTESIAN_POINT('',(0.00101101078935367,-0.00230000000000753,0.00986625368206416));
#1370=CARTESIAN_POINT('',(0.00101101078935367,-0.00230000000000753,0.00986425368206537));
#1371=CARTESIAN_POINT('',(-0.00498898921064633,-0.00230000000000753,0.00986425368206543));
#1372=CARTESIAN_POINT('',(0.121011010789356,-0.0323000000000088,0.00986425368206416));
#1373=CARTESIAN_POINT('',(0.0010110107893537,0.0276999999999939,0.00986625368206416));
#1374=CARTESIAN_POINT('',(0.0010110107893537,0.0276999999999939,0.00986425368206536));
#1375=CARTESIAN_POINT('',(-0.0039889892106463,0.0276999999999939,0.00986425368206541));
#1376=CARTESIAN_POINT('',(0.121011010789356,-0.0323000000000088,0.00986425368206416));
#1377=CARTESIAN_POINT('',(0.0310110107893543,-0.00230000000000753,0.0058));
#1378=CARTESIAN_POINT('',(0.0310110107893543,-0.00230000000000753,0.0058));
#1379=CARTESIAN_POINT('',(0.0280110107893543,-0.00230000000000753,0.0058));
#1380=CARTESIAN_POINT('',(0.016011010789354,0.0126999999999931,0.0058));
#1381=CARTESIAN_POINT('',(0.0010110107893537,0.0276999999999939,0.0058));
#1382=CARTESIAN_POINT('',(0.0010110107893537,0.0276999999999939,0.0058));
#1383=CARTESIAN_POINT('',(-0.0019889892106463,0.0276999999999939,0.0058));
#1384=CARTESIAN_POINT('',(0.016011010789354,0.0126999999999931,0.0058));
#1385=CARTESIAN_POINT('',(0.00101101078935367,-0.00230000000000754,0.0058));
#1386=CARTESIAN_POINT('',(0.00101101078935367,-0.00230000000000754,0.0058));
#1387=CARTESIAN_POINT('',(-0.00198898921064633,-0.00230000000000754,0.0058));
#1388=CARTESIAN_POINT('',(0.016011010789354,0.0126999999999931,0.0058));
#1389=CARTESIAN_POINT('',(-0.0119889892106474,-0.000300000000000356,-0.005));
#1390=MECHANICAL_DESIGN_GEOMETRIC_PRESENTATION_REPRESENTATION('',(#831),
#1391);
#1391=(
GEOMETRIC_REPRESENTATION_CONTEXT(3)
GLOBAL_UNCERTAINTY_ASSIGNED_CONTEXT((#1392))
GLOBAL_UNIT_ASSIGNED_CONTEXT((#1395,#1394,#1393))
REPRESENTATION_CONTEXT('Part 1','TOP_LEVEL_ASSEMBLY_PART')
);
#1392=UNCERTAINTY_MEASURE_WITH_UNIT(LENGTH_MEASURE(1.E-8),#1395,
'DISTANCE_ACCURACY_VALUE','Maximum Tolerance applied to model');
#1393=(
NAMED_UNIT(*)
SI_UNIT($,.STERADIAN.)
SOLID_ANGLE_UNIT()
);
#1394=(
NAMED_UNIT(*)
PLANE_ANGLE_UNIT()
SI_UNIT($,.RADIAN.)
);
#1395=(
LENGTH_UNIT()
NAMED_UNIT(*)
SI_UNIT($,.METRE.)
);
#1396=PRODUCT_DEFINITION_SHAPE('','',#1397);
#1397=PRODUCT_DEFINITION('','',#1399,#1398);
#1398=PRODUCT_DEFINITION_CONTEXT('',#1405,'design');
#1399=PRODUCT_DEFINITION_FORMATION_WITH_SPECIFIED_SOURCE('','',#1401,
 .NOT_KNOWN.);
#1400=PRODUCT_RELATED_PRODUCT_CATEGORY('','',(#1401));
#1401=PRODUCT('Part 1','Part 1','Part 1',(#1403));
#1402=PRODUCT_CATEGORY('','');
#1403=PRODUCT_CONTEXT('',#1405,'mechanical');
#1404=APPLICATION_PROTOCOL_DEFINITION('international standard',
'ap242_managed_model_based_3d_engineering',2020,#1405);
#1405=APPLICATION_CONTEXT('managed model based 3d engineering');
ENDSEC;
END-ISO-10303-21;
