ISO-10303-21;
HEADER;
/* Generated by software containing ST-Developer
 * from STEP Tools, Inc. (www.steptools.com) 
 */
/* OPTION: using custom renumber hook */

FILE_DESCRIPTION(
/* description */ ('STEP AP242 Edition 2',
'CAx-IF Rec.Pracs.---Representation and Presentation of Product Manufa
cturing Information (PMI)---4.0---2014-10-13',
'CAx-IF Rec.Pracs.---3D Tessellated Geometry---0.4---2014-09-14','2;1',
'CAx-IF Rec.Pracs.---User Defined Attributes---1.5---2016-08-15'),
/* implementation_level */ '2;1');

FILE_NAME(
/* name */ 'klepeto_ch_s',
/* time_stamp */ '2026-09-10T17:47:27Z',
/* author */ (''),
/* organization */ (''),
/* preprocessor_version */ 'ST-DEVELOPER v20',
/* originating_system */ 'ONSHAPE BY PTC INC, 1.220',
/* authorisation */ '  ');

FILE_SCHEMA (('AP242_MANAGED_MODEL_BASED_3D_ENGINEERING_MIM_LF { 1 0 10303 442 3 1 4 }'));
ENDSEC;

DATA;
#10=SHAPE_REPRESENTATION_RELATIONSHIP('','',#299,#11);
#11=ADVANCED_BREP_SHAPE_REPRESENTATION('',(#297),#511);
#12=LINE('',#447,#24);
#13=LINE('',#450,#25);
#14=LINE('',#461,#26);
#15=LINE('',#462,#27);
#16=LINE('',#464,#28);
#17=LINE('',#480,#29);
#18=LINE('',#490,#30);
#19=LINE('',#494,#31);
#20=LINE('',#498,#32);
#21=LINE('',#500,#33);
#22=LINE('',#502,#34);
#23=LINE('',#504,#35);
#24=VECTOR('',#358,1.);
#25=VECTOR('',#359,1.);
#26=VECTOR('',#370,1.);
#27=VECTOR('',#371,1.);
#28=VECTOR('',#374,1.);
#29=VECTOR('',#395,1.);
#30=VECTOR('',#408,1.);
#31=VECTOR('',#411,1.);
#32=VECTOR('',#416,1.);
#33=VECTOR('',#419,1.);
#34=VECTOR('',#420,1.);
#35=VECTOR('',#423,1.);
#36=PLANE('',#304);
#37=PLANE('',#326);
#38=PLANE('',#334);
#39=PLANE('',#335);
#40=PLANE('',#336);
#41=PLANE('',#339);
#42=ORIENTED_EDGE('',*,*,#110,.F.);
#43=ORIENTED_EDGE('',*,*,#111,.T.);
#44=ORIENTED_EDGE('',*,*,#110,.T.);
#45=ORIENTED_EDGE('',*,*,#112,.T.);
#46=ORIENTED_EDGE('',*,*,#113,.T.);
#47=ORIENTED_EDGE('',*,*,#114,.T.);
#48=ORIENTED_EDGE('',*,*,#115,.T.);
#49=ORIENTED_EDGE('',*,*,#116,.F.);
#50=ORIENTED_EDGE('',*,*,#117,.F.);
#51=ORIENTED_EDGE('',*,*,#118,.F.);
#52=ORIENTED_EDGE('',*,*,#119,.F.);
#53=ORIENTED_EDGE('',*,*,#120,.T.);
#54=ORIENTED_EDGE('',*,*,#121,.T.);
#55=ORIENTED_EDGE('',*,*,#122,.T.);
#56=ORIENTED_EDGE('',*,*,#120,.F.);
#57=ORIENTED_EDGE('',*,*,#123,.F.);
#58=ORIENTED_EDGE('',*,*,#119,.T.);
#59=ORIENTED_EDGE('',*,*,#124,.F.);
#60=ORIENTED_EDGE('',*,*,#125,.F.);
#61=ORIENTED_EDGE('',*,*,#123,.T.);
#62=ORIENTED_EDGE('',*,*,#126,.T.);
#63=ORIENTED_EDGE('',*,*,#112,.F.);
#64=ORIENTED_EDGE('',*,*,#127,.T.);
#65=ORIENTED_EDGE('',*,*,#113,.F.);
#66=ORIENTED_EDGE('',*,*,#128,.T.);
#67=ORIENTED_EDGE('',*,*,#114,.F.);
#68=ORIENTED_EDGE('',*,*,#129,.T.);
#69=ORIENTED_EDGE('',*,*,#115,.F.);
#70=ORIENTED_EDGE('',*,*,#118,.T.);
#71=ORIENTED_EDGE('',*,*,#130,.T.);
#72=ORIENTED_EDGE('',*,*,#131,.F.);
#73=ORIENTED_EDGE('',*,*,#124,.T.);
#74=ORIENTED_EDGE('',*,*,#132,.F.);
#75=ORIENTED_EDGE('',*,*,#133,.T.);
#76=ORIENTED_EDGE('',*,*,#134,.T.);
#77=ORIENTED_EDGE('',*,*,#121,.F.);
#78=ORIENTED_EDGE('',*,*,#125,.T.);
#79=ORIENTED_EDGE('',*,*,#131,.T.);
#80=ORIENTED_EDGE('',*,*,#129,.F.);
#81=ORIENTED_EDGE('',*,*,#128,.F.);
#82=ORIENTED_EDGE('',*,*,#127,.F.);
#83=ORIENTED_EDGE('',*,*,#126,.F.);
#84=ORIENTED_EDGE('',*,*,#130,.F.);
#85=ORIENTED_EDGE('',*,*,#135,.F.);
#86=ORIENTED_EDGE('',*,*,#136,.F.);
#87=ORIENTED_EDGE('',*,*,#137,.T.);
#88=ORIENTED_EDGE('',*,*,#133,.F.);
#89=ORIENTED_EDGE('',*,*,#134,.F.);
#90=ORIENTED_EDGE('',*,*,#137,.F.);
#91=ORIENTED_EDGE('',*,*,#138,.F.);
#92=ORIENTED_EDGE('',*,*,#139,.T.);
#93=ORIENTED_EDGE('',*,*,#122,.F.);
#94=ORIENTED_EDGE('',*,*,#117,.T.);
#95=ORIENTED_EDGE('',*,*,#140,.F.);
#96=ORIENTED_EDGE('',*,*,#141,.F.);
#97=ORIENTED_EDGE('',*,*,#135,.T.);
#98=ORIENTED_EDGE('',*,*,#116,.T.);
#99=ORIENTED_EDGE('',*,*,#139,.F.);
#100=ORIENTED_EDGE('',*,*,#142,.F.);
#101=ORIENTED_EDGE('',*,*,#140,.T.);
#102=ORIENTED_EDGE('',*,*,#138,.T.);
#103=ORIENTED_EDGE('',*,*,#136,.T.);
#104=ORIENTED_EDGE('',*,*,#141,.T.);
#105=ORIENTED_EDGE('',*,*,#142,.T.);
#106=ORIENTED_EDGE('',*,*,#143,.F.);
#107=ORIENTED_EDGE('',*,*,#132,.T.);
#108=ORIENTED_EDGE('',*,*,#111,.F.);
#109=ORIENTED_EDGE('',*,*,#143,.T.);
#110=EDGE_CURVE('',#144,#144,#170,.T.);
#111=EDGE_CURVE('',#145,#145,#171,.T.);
#112=EDGE_CURVE('',#146,#146,#172,.T.);
#113=EDGE_CURVE('',#147,#147,#173,.T.);
#114=EDGE_CURVE('',#148,#148,#174,.T.);
#115=EDGE_CURVE('',#149,#149,#175,.T.);
#116=EDGE_CURVE('',#150,#151,#12,.T.);
#117=EDGE_CURVE('',#152,#150,#13,.T.);
#118=EDGE_CURVE('',#153,#152,#176,.T.);
#119=EDGE_CURVE('',#154,#153,#177,.T.);
#120=EDGE_CURVE('',#154,#151,#178,.T.);
#121=EDGE_CURVE('',#155,#156,#179,.T.);
#122=EDGE_CURVE('',#156,#151,#14,.T.);
#123=EDGE_CURVE('',#155,#154,#15,.T.);
#124=EDGE_CURVE('',#157,#153,#16,.T.);
#125=EDGE_CURVE('',#155,#157,#180,.T.);
#126=EDGE_CURVE('',#158,#158,#181,.T.);
#127=EDGE_CURVE('',#159,#159,#182,.T.);
#128=EDGE_CURVE('',#160,#160,#183,.T.);
#129=EDGE_CURVE('',#161,#161,#184,.T.);
#130=EDGE_CURVE('',#152,#162,#17,.F.);
#131=EDGE_CURVE('',#157,#162,#185,.T.);
#132=EDGE_CURVE('',#163,#163,#186,.T.);
#133=EDGE_CURVE('',#162,#164,#187,.T.);
#134=EDGE_CURVE('',#164,#156,#188,.T.);
#135=EDGE_CURVE('',#165,#152,#18,.T.);
#136=EDGE_CURVE('',#166,#165,#189,.T.);
#137=EDGE_CURVE('',#166,#164,#19,.F.);
#138=EDGE_CURVE('',#167,#166,#190,.T.);
#139=EDGE_CURVE('',#167,#151,#20,.T.);
#140=EDGE_CURVE('',#168,#150,#21,.T.);
#141=EDGE_CURVE('',#165,#168,#22,.T.);
#142=EDGE_CURVE('',#168,#167,#23,.T.);
#143=EDGE_CURVE('',#169,#169,#191,.T.);
#144=VERTEX_POINT('',#435);
#145=VERTEX_POINT('',#437);
#146=VERTEX_POINT('',#440);
#147=VERTEX_POINT('',#442);
#148=VERTEX_POINT('',#444);
#149=VERTEX_POINT('',#446);
#150=VERTEX_POINT('',#448);
#151=VERTEX_POINT('',#449);
#152=VERTEX_POINT('',#451);
#153=VERTEX_POINT('',#453);
#154=VERTEX_POINT('',#455);
#155=VERTEX_POINT('',#459);
#156=VERTEX_POINT('',#460);
#157=VERTEX_POINT('',#465);
#158=VERTEX_POINT('',#469);
#159=VERTEX_POINT('',#472);
#160=VERTEX_POINT('',#475);
#161=VERTEX_POINT('',#478);
#162=VERTEX_POINT('',#481);
#163=VERTEX_POINT('',#485);
#164=VERTEX_POINT('',#487);
#165=VERTEX_POINT('',#491);
#166=VERTEX_POINT('',#493);
#167=VERTEX_POINT('',#497);
#168=VERTEX_POINT('',#501);
#169=VERTEX_POINT('',#508);
#170=CIRCLE('',#302,0.0016);
#171=CIRCLE('',#303,0.0016);
#172=CIRCLE('',#305,0.00075);
#173=CIRCLE('',#306,0.00075);
#174=CIRCLE('',#307,0.00075);
#175=CIRCLE('',#308,0.00075);
#176=CIRCLE('',#309,0.0385334081374277);
#177=CIRCLE('',#310,0.011);
#178=CIRCLE('',#311,0.0383167099923499);
#179=CIRCLE('',#313,0.0383167099923499);
#180=CIRCLE('',#315,0.011);
#181=CIRCLE('',#317,0.00075);
#182=CIRCLE('',#319,0.00075);
#183=CIRCLE('',#321,0.00075);
#184=CIRCLE('',#323,0.00075);
#185=CIRCLE('',#325,0.0385334081374277);
#186=CIRCLE('',#327,0.003);
#187=CIRCLE('',#328,0.004);
#188=CIRCLE('',#329,0.004);
#189=CIRCLE('',#331,0.004);
#190=CIRCLE('',#333,0.004);
#191=CIRCLE('',#338,0.003);
#192=EDGE_LOOP('',(#42));
#193=EDGE_LOOP('',(#43));
#194=EDGE_LOOP('',(#44));
#195=EDGE_LOOP('',(#45));
#196=EDGE_LOOP('',(#46));
#197=EDGE_LOOP('',(#47));
#198=EDGE_LOOP('',(#48));
#199=EDGE_LOOP('',(#49,#50,#51,#52,#53));
#200=EDGE_LOOP('',(#54,#55,#56,#57));
#201=EDGE_LOOP('',(#58,#59,#60,#61));
#202=EDGE_LOOP('',(#62));
#203=EDGE_LOOP('',(#63));
#204=EDGE_LOOP('',(#64));
#205=EDGE_LOOP('',(#65));
#206=EDGE_LOOP('',(#66));
#207=EDGE_LOOP('',(#67));
#208=EDGE_LOOP('',(#68));
#209=EDGE_LOOP('',(#69));
#210=EDGE_LOOP('',(#70,#71,#72,#73));
#211=EDGE_LOOP('',(#74));
#212=EDGE_LOOP('',(#75,#76,#77,#78,#79));
#213=EDGE_LOOP('',(#80));
#214=EDGE_LOOP('',(#81));
#215=EDGE_LOOP('',(#82));
#216=EDGE_LOOP('',(#83));
#217=EDGE_LOOP('',(#84,#85,#86,#87,#88));
#218=EDGE_LOOP('',(#89,#90,#91,#92,#93));
#219=EDGE_LOOP('',(#94,#95,#96,#97));
#220=EDGE_LOOP('',(#98,#99,#100,#101));
#221=EDGE_LOOP('',(#102,#103,#104,#105));
#222=EDGE_LOOP('',(#106));
#223=EDGE_LOOP('',(#107));
#224=EDGE_LOOP('',(#108));
#225=EDGE_LOOP('',(#109));
#226=FACE_BOUND('',#192,.T.);
#227=FACE_BOUND('',#193,.T.);
#228=FACE_BOUND('',#194,.T.);
#229=FACE_BOUND('',#195,.T.);
#230=FACE_BOUND('',#196,.T.);
#231=FACE_BOUND('',#197,.T.);
#232=FACE_BOUND('',#198,.T.);
#233=FACE_BOUND('',#199,.T.);
#234=FACE_BOUND('',#200,.T.);
#235=FACE_BOUND('',#201,.T.);
#236=FACE_BOUND('',#202,.T.);
#237=FACE_BOUND('',#203,.T.);
#238=FACE_BOUND('',#204,.T.);
#239=FACE_BOUND('',#205,.T.);
#240=FACE_BOUND('',#206,.T.);
#241=FACE_BOUND('',#207,.T.);
#242=FACE_BOUND('',#208,.T.);
#243=FACE_BOUND('',#209,.T.);
#244=FACE_BOUND('',#210,.T.);
#245=FACE_BOUND('',#211,.T.);
#246=FACE_BOUND('',#212,.T.);
#247=FACE_BOUND('',#213,.T.);
#248=FACE_BOUND('',#214,.T.);
#249=FACE_BOUND('',#215,.T.);
#250=FACE_BOUND('',#216,.T.);
#251=FACE_BOUND('',#217,.T.);
#252=FACE_BOUND('',#218,.T.);
#253=FACE_BOUND('',#219,.T.);
#254=FACE_BOUND('',#220,.T.);
#255=FACE_BOUND('',#221,.T.);
#256=FACE_BOUND('',#222,.T.);
#257=FACE_BOUND('',#223,.T.);
#258=FACE_BOUND('',#224,.T.);
#259=FACE_BOUND('',#225,.T.);
#260=CYLINDRICAL_SURFACE('',#301,0.0016);
#261=CYLINDRICAL_SURFACE('',#312,0.0383167099923499);
#262=CYLINDRICAL_SURFACE('',#314,0.011);
#263=CYLINDRICAL_SURFACE('',#316,0.00075);
#264=CYLINDRICAL_SURFACE('',#318,0.00075);
#265=CYLINDRICAL_SURFACE('',#320,0.00075);
#266=CYLINDRICAL_SURFACE('',#322,0.00075);
#267=CYLINDRICAL_SURFACE('',#324,0.0385334081374277);
#268=CYLINDRICAL_SURFACE('',#330,0.004);
#269=CYLINDRICAL_SURFACE('',#332,0.004);
#270=CYLINDRICAL_SURFACE('',#337,0.003);
#271=ADVANCED_FACE('',(#226,#227),#260,.F.);
#272=ADVANCED_FACE('',(#228,#229,#230,#231,#232,#233),#36,.F.);
#273=ADVANCED_FACE('',(#234),#261,.F.);
#274=ADVANCED_FACE('',(#235),#262,.T.);
#275=ADVANCED_FACE('',(#236,#237),#263,.F.);
#276=ADVANCED_FACE('',(#238,#239),#264,.F.);
#277=ADVANCED_FACE('',(#240,#241),#265,.F.);
#278=ADVANCED_FACE('',(#242,#243),#266,.F.);
#279=ADVANCED_FACE('',(#244),#267,.T.);
#280=ADVANCED_FACE('',(#245,#246,#247,#248,#249,#250),#37,.T.);
#281=ADVANCED_FACE('',(#251),#268,.T.);
#282=ADVANCED_FACE('',(#252),#269,.T.);
#283=ADVANCED_FACE('',(#253),#38,.F.);
#284=ADVANCED_FACE('',(#254),#39,.F.);
#285=ADVANCED_FACE('',(#255),#40,.T.);
#286=ADVANCED_FACE('',(#256,#257),#270,.F.);
#287=ADVANCED_FACE('',(#258,#259),#41,.T.);
#288=CLOSED_SHELL('',(#271,#272,#273,#274,#275,#276,#277,#278,#279,#280,
#281,#282,#283,#284,#285,#286,#287));
#289=STYLED_ITEM('',(#290),#297);
#290=PRESENTATION_STYLE_ASSIGNMENT((#291));
#291=SURFACE_STYLE_USAGE(.BOTH.,#292);
#292=SURFACE_SIDE_STYLE('',(#293));
#293=SURFACE_STYLE_FILL_AREA(#294);
#294=FILL_AREA_STYLE('',(#295));
#295=FILL_AREA_STYLE_COLOUR('',#296);
#296=COLOUR_RGB('',0.0862745098039216,0.31764705882353,0.690196078431373);
#297=MANIFOLD_SOLID_BREP('Part 1',#288);
#298=SHAPE_DEFINITION_REPRESENTATION(#516,#299);
#299=SHAPE_REPRESENTATION('Part 1',(#300),#511);
#300=AXIS2_PLACEMENT_3D('',#432,#340,#341);
#301=AXIS2_PLACEMENT_3D('',#433,#342,#343);
#302=AXIS2_PLACEMENT_3D('',#434,#344,#345);
#303=AXIS2_PLACEMENT_3D('',#436,#346,#347);
#304=AXIS2_PLACEMENT_3D('',#438,#348,#349);
#305=AXIS2_PLACEMENT_3D('',#439,#350,#351);
#306=AXIS2_PLACEMENT_3D('',#441,#352,#353);
#307=AXIS2_PLACEMENT_3D('',#443,#354,#355);
#308=AXIS2_PLACEMENT_3D('',#445,#356,#357);
#309=AXIS2_PLACEMENT_3D('',#452,#360,#361);
#310=AXIS2_PLACEMENT_3D('',#454,#362,#363);
#311=AXIS2_PLACEMENT_3D('',#456,#364,#365);
#312=AXIS2_PLACEMENT_3D('',#457,#366,#367);
#313=AXIS2_PLACEMENT_3D('',#458,#368,#369);
#314=AXIS2_PLACEMENT_3D('',#463,#372,#373);
#315=AXIS2_PLACEMENT_3D('',#466,#375,#376);
#316=AXIS2_PLACEMENT_3D('',#467,#377,#378);
#317=AXIS2_PLACEMENT_3D('',#468,#379,#380);
#318=AXIS2_PLACEMENT_3D('',#470,#381,#382);
#319=AXIS2_PLACEMENT_3D('',#471,#383,#384);
#320=AXIS2_PLACEMENT_3D('',#473,#385,#386);
#321=AXIS2_PLACEMENT_3D('',#474,#387,#388);
#322=AXIS2_PLACEMENT_3D('',#476,#389,#390);
#323=AXIS2_PLACEMENT_3D('',#477,#391,#392);
#324=AXIS2_PLACEMENT_3D('',#479,#393,#394);
#325=AXIS2_PLACEMENT_3D('',#482,#396,#397);
#326=AXIS2_PLACEMENT_3D('',#483,#398,#399);
#327=AXIS2_PLACEMENT_3D('',#484,#400,#401);
#328=AXIS2_PLACEMENT_3D('',#486,#402,#403);
#329=AXIS2_PLACEMENT_3D('',#488,#404,#405);
#330=AXIS2_PLACEMENT_3D('',#489,#406,#407);
#331=AXIS2_PLACEMENT_3D('',#492,#409,#410);
#332=AXIS2_PLACEMENT_3D('',#495,#412,#413);
#333=AXIS2_PLACEMENT_3D('',#496,#414,#415);
#334=AXIS2_PLACEMENT_3D('',#499,#417,#418);
#335=AXIS2_PLACEMENT_3D('',#503,#421,#422);
#336=AXIS2_PLACEMENT_3D('',#505,#424,#425);
#337=AXIS2_PLACEMENT_3D('',#506,#426,#427);
#338=AXIS2_PLACEMENT_3D('',#507,#428,#429);
#339=AXIS2_PLACEMENT_3D('',#509,#430,#431);
#340=DIRECTION('',(0.,0.,1.));
#341=DIRECTION('',(1.,0.,0.));
#342=DIRECTION('',(0.,0.,-1.));
#343=DIRECTION('',(-1.,0.,0.));
#344=DIRECTION('',(0.,0.,1.));
#345=DIRECTION('',(1.,0.,0.));
#346=DIRECTION('',(0.,0.,1.));
#347=DIRECTION('',(1.,0.,0.));
#348=DIRECTION('',(0.,0.,1.));
#349=DIRECTION('',(1.,0.,0.));
#350=DIRECTION('',(0.,0.,1.));
#351=DIRECTION('',(1.,0.,0.));
#352=DIRECTION('',(0.,0.,1.));
#353=DIRECTION('',(1.,0.,0.));
#354=DIRECTION('',(0.,0.,1.));
#355=DIRECTION('',(1.,0.,0.));
#356=DIRECTION('',(0.,0.,1.));
#357=DIRECTION('',(1.,0.,0.));
#358=DIRECTION('',(0.969502427257224,-0.245081707890146,0.));
#359=DIRECTION('',(-0.423036082481726,0.906112836747452,0.));
#360=DIRECTION('',(0.,0.,1.));
#361=DIRECTION('',(1.,0.,0.));
#362=DIRECTION('',(0.,0.,1.));
#363=DIRECTION('',(1.,0.,0.));
#364=DIRECTION('',(0.,0.,1.));
#365=DIRECTION('',(1.,0.,0.));
#366=DIRECTION('',(0.,0.,-1.));
#367=DIRECTION('',(-1.,0.,0.));
#368=DIRECTION('',(0.,0.,1.));
#369=DIRECTION('',(1.,0.,0.));
#370=DIRECTION('',(0.,0.,-1.));
#371=DIRECTION('',(0.,0.,-1.));
#372=DIRECTION('',(0.,0.,-1.));
#373=DIRECTION('',(-1.,0.,0.));
#374=DIRECTION('',(0.,0.,-1.));
#375=DIRECTION('',(0.,0.,1.));
#376=DIRECTION('',(1.,0.,0.));
#377=DIRECTION('',(0.,0.,-1.));
#378=DIRECTION('',(-1.,0.,0.));
#379=DIRECTION('',(0.,0.,1.));
#380=DIRECTION('',(1.,0.,0.));
#381=DIRECTION('',(0.,0.,-1.));
#382=DIRECTION('',(-1.,0.,0.));
#383=DIRECTION('',(0.,0.,1.));
#384=DIRECTION('',(1.,0.,0.));
#385=DIRECTION('',(0.,0.,-1.));
#386=DIRECTION('',(-1.,0.,0.));
#387=DIRECTION('',(0.,0.,1.));
#388=DIRECTION('',(1.,0.,0.));
#389=DIRECTION('',(0.,0.,-1.));
#390=DIRECTION('',(-1.,0.,0.));
#391=DIRECTION('',(0.,0.,1.));
#392=DIRECTION('',(1.,0.,0.));
#393=DIRECTION('',(0.,0.,-1.));
#394=DIRECTION('',(-1.,0.,0.));
#395=DIRECTION('',(0.,0.,-1.));
#396=DIRECTION('',(0.,0.,1.));
#397=DIRECTION('',(1.,0.,0.));
#398=DIRECTION('',(0.,0.,1.));
#399=DIRECTION('',(1.,0.,0.));
#400=DIRECTION('',(0.,0.,1.));
#401=DIRECTION('',(1.,0.,0.));
#402=DIRECTION('',(0.,0.,1.));
#403=DIRECTION('',(1.,0.,0.));
#404=DIRECTION('',(0.,0.,1.));
#405=DIRECTION('',(1.,0.,0.));
#406=DIRECTION('',(0.,0.,-1.));
#407=DIRECTION('',(-1.,0.,0.));
#408=DIRECTION('',(0.,0.,1.));
#409=DIRECTION('',(0.,0.,-1.));
#410=DIRECTION('',(-1.,0.,0.));
#411=DIRECTION('',(0.,0.,-1.));
#412=DIRECTION('',(0.,0.,-1.));
#413=DIRECTION('',(-1.,0.,0.));
#414=DIRECTION('',(0.,0.,-1.));
#415=DIRECTION('',(-1.,0.,0.));
#416=DIRECTION('',(0.,0.,1.));
#417=DIRECTION('',(0.906112836747452,0.423036082481726,0.));
#418=DIRECTION('',(-0.423036082481726,0.906112836747452,0.));
#419=DIRECTION('',(0.,0.,1.));
#420=DIRECTION('',(-0.423036082481726,0.906112836747452,0.));
#421=DIRECTION('',(-0.245081707890146,-0.969502427257224,0.));
#422=DIRECTION('',(0.969502427257224,-0.245081707890146,0.));
#423=DIRECTION('',(0.969502427257224,-0.245081707890146,0.));
#424=DIRECTION('',(0.,0.,-1.));
#425=DIRECTION('',(1.,0.,0.));
#426=DIRECTION('',(0.,0.,1.));
#427=DIRECTION('',(1.,0.,0.));
#428=DIRECTION('',(0.,0.,1.));
#429=DIRECTION('',(1.,0.,0.));
#430=DIRECTION('',(0.,0.,1.));
#431=DIRECTION('',(1.,0.,0.));
#432=CARTESIAN_POINT('',(0.,0.,0.));
#433=CARTESIAN_POINT('',(0.,9.79717439317883E-20,0.005));
#434=CARTESIAN_POINT('',(0.,9.79717439317883E-20,0.));
#435=CARTESIAN_POINT('',(0.0016,9.79717439317883E-20,0.));
#436=CARTESIAN_POINT('',(0.,9.79717439317883E-20,0.001));
#437=CARTESIAN_POINT('',(0.0016,9.79717439317883E-20,0.001));
#438=CARTESIAN_POINT('',(0.00432264753743351,-0.0193206907871865,0.));
#439=CARTESIAN_POINT('',(0.,0.0065,0.));
#440=CARTESIAN_POINT('',(0.00075,0.0065,0.));
#441=CARTESIAN_POINT('',(-0.0065,4.33680868994202E-19,0.));
#442=CARTESIAN_POINT('',(-0.00575,4.33680868994202E-19,0.));
#443=CARTESIAN_POINT('',(-7.58941520739853E-19,-0.0065,0.));
#444=CARTESIAN_POINT('',(0.000749999999999999,-0.0065,0.));
#445=CARTESIAN_POINT('',(0.0065,-1.19262238973405E-18,0.));
#446=CARTESIAN_POINT('',(0.00725,-1.19262238973405E-18,0.));
#447=CARTESIAN_POINT('',(0.0140511619378115,-0.0394081409838293,0.));
#448=CARTESIAN_POINT('',(0.00968840101515402,-0.0383052732983237,0.));
#449=CARTESIAN_POINT('',(0.018413922860469,-0.0405110086693349,0.));
#450=CARTESIAN_POINT('',(0.0115920633863218,-0.0423827810636872,0.));
#451=CARTESIAN_POINT('',(0.0134957257574896,-0.0464602888290507,0.));
#452=CARTESIAN_POINT('',(0.034203283714039,-0.013963818464383,0.));
#453=CARTESIAN_POINT('',(-0.00414480731392095,-0.0101892380642748,0.));
#454=CARTESIAN_POINT('',(-2.05998412772246E-18,4.33680868994202E-18,0.));
#455=CARTESIAN_POINT('',(0.00685519268607906,-0.00860269337107444,0.));
#456=CARTESIAN_POINT('',(0.0449350998448876,-0.0128560373983503,0.));
#457=CARTESIAN_POINT('',(0.0449350998448876,-0.0128560373983503,0.005));
#458=CARTESIAN_POINT('',(0.0449350998448876,-0.0128560373983503,0.005));
#459=CARTESIAN_POINT('',(0.00685519268607906,-0.00860269337107444,0.005));
#460=CARTESIAN_POINT('',(0.018413922860469,-0.0405110086693349,0.005));
#461=CARTESIAN_POINT('',(0.018413922860469,-0.0405110086693349,0.005));
#462=CARTESIAN_POINT('',(0.00685519268607906,-0.00860269337107444,0.005));
#463=CARTESIAN_POINT('',(-2.05998412772246E-18,4.33680868994202E-18,0.005));
#464=CARTESIAN_POINT('',(-0.00414480731392095,-0.0101892380642748,0.005));
#465=CARTESIAN_POINT('',(-0.00414480731392095,-0.0101892380642748,0.005));
#466=CARTESIAN_POINT('',(-2.05998412772246E-18,4.33680868994202E-18,0.005));
#467=CARTESIAN_POINT('',(0.,0.0065,0.005));
#468=CARTESIAN_POINT('',(0.,0.0065,0.005));
#469=CARTESIAN_POINT('',(0.00075,0.0065,0.005));
#470=CARTESIAN_POINT('',(-0.0065,4.33680868994202E-19,0.005));
#471=CARTESIAN_POINT('',(-0.0065,4.33680868994202E-19,0.005));
#472=CARTESIAN_POINT('',(-0.00575,4.33680868994202E-19,0.005));
#473=CARTESIAN_POINT('',(-7.58941520739853E-19,-0.0065,0.005));
#474=CARTESIAN_POINT('',(-7.58941520739853E-19,-0.0065,0.005));
#475=CARTESIAN_POINT('',(0.000749999999999999,-0.0065,0.005));
#476=CARTESIAN_POINT('',(0.0065,-1.19262238973405E-18,0.005));
#477=CARTESIAN_POINT('',(0.0065,-1.19262238973405E-18,0.005));
#478=CARTESIAN_POINT('',(0.00725,-1.19262238973405E-18,0.005));
#479=CARTESIAN_POINT('',(0.034203283714039,-0.013963818464383,0.005));
#480=CARTESIAN_POINT('',(0.0134957257574896,-0.0464602888290507,0.005));
#481=CARTESIAN_POINT('',(0.0134957257574896,-0.0464602888290507,0.005));
#482=CARTESIAN_POINT('',(0.034203283714039,-0.013963818464383,0.005));
#483=CARTESIAN_POINT('',(0.00432264753743351,-0.0193206907871865,0.005));
#484=CARTESIAN_POINT('',(0.,2.81668763803891E-19,0.005));
#485=CARTESIAN_POINT('',(0.003,2.81668763803891E-19,0.005));
#486=CARTESIAN_POINT('',(0.0156452950748671,-0.043086959353623,0.005));
#487=CARTESIAN_POINT('',(0.0196422706732825,-0.0432424780524082,0.005));
#488=CARTESIAN_POINT('',(0.0156452950748671,-0.0433979967511933,0.005));
#489=CARTESIAN_POINT('',(0.0156452950748671,-0.043086959353623,0.005));
#490=CARTESIAN_POINT('',(0.0134957257574896,-0.0464602888290507,-0.011));
#491=CARTESIAN_POINT('',(0.0134957257574896,-0.0464602888290507,-0.011));
#492=CARTESIAN_POINT('',(0.0156452950748671,-0.043086959353623,-0.011));
#493=CARTESIAN_POINT('',(0.0196422706732825,-0.0432424780524082,-0.011));
#494=CARTESIAN_POINT('',(0.0196422706732825,-0.0432424780524082,0.0025));
#495=CARTESIAN_POINT('',(0.0156452950748671,-0.0433979967511933,0.005));
#496=CARTESIAN_POINT('',(0.0156452950748671,-0.0433979967511933,-0.011));
#497=CARTESIAN_POINT('',(0.018413922860469,-0.0405110086693349,-0.011));
#498=CARTESIAN_POINT('',(0.018413922860469,-0.0405110086693349,-0.011));
#499=CARTESIAN_POINT('',(0.0115920633863218,-0.0423827810636872,-0.011));
#500=CARTESIAN_POINT('',(0.00968840101515402,-0.0383052732983237,-0.011));
#501=CARTESIAN_POINT('',(0.00968840101515402,-0.0383052732983237,-0.011));
#502=CARTESIAN_POINT('',(0.0115920633863218,-0.0423827810636872,-0.011));
#503=CARTESIAN_POINT('',(0.0140511619378115,-0.0394081409838293,-0.011));
#504=CARTESIAN_POINT('',(0.0140511619378115,-0.0394081409838293,-0.011));
#505=CARTESIAN_POINT('',(0.0146653358442182,-0.0426961163259734,-0.011));
#506=CARTESIAN_POINT('',(0.,2.81668763803891E-19,0.001));
#507=CARTESIAN_POINT('',(0.,2.81668763803891E-19,0.001));
#508=CARTESIAN_POINT('',(0.003,2.81668763803891E-19,0.001));
#509=CARTESIAN_POINT('',(0.,0.,0.001));
#510=MECHANICAL_DESIGN_GEOMETRIC_PRESENTATION_REPRESENTATION('',(#289),
#511);
#511=(
GEOMETRIC_REPRESENTATION_CONTEXT(3)
GLOBAL_UNCERTAINTY_ASSIGNED_CONTEXT((#512))
GLOBAL_UNIT_ASSIGNED_CONTEXT((#515,#514,#513))
REPRESENTATION_CONTEXT('Part 1','TOP_LEVEL_ASSEMBLY_PART')
);
#512=UNCERTAINTY_MEASURE_WITH_UNIT(LENGTH_MEASURE(1.E-8),#515,
'DISTANCE_ACCURACY_VALUE','Maximum Tolerance applied to model');
#513=(
NAMED_UNIT(*)
SI_UNIT($,.STERADIAN.)
SOLID_ANGLE_UNIT()
);
#514=(
NAMED_UNIT(*)
PLANE_ANGLE_UNIT()
SI_UNIT($,.RADIAN.)
);
#515=(
LENGTH_UNIT()
NAMED_UNIT(*)
SI_UNIT($,.METRE.)
);
#516=PRODUCT_DEFINITION_SHAPE('','',#517);
#517=PRODUCT_DEFINITION('','',#519,#518);
#518=PRODUCT_DEFINITION_CONTEXT('',#525,'design');
#519=PRODUCT_DEFINITION_FORMATION_WITH_SPECIFIED_SOURCE('','',#521,
 .NOT_KNOWN.);
#520=PRODUCT_RELATED_PRODUCT_CATEGORY('','',(#521));
#521=PRODUCT('Part 1','Part 1','Part 1',(#523));
#522=PRODUCT_CATEGORY('','');
#523=PRODUCT_CONTEXT('',#525,'mechanical');
#524=APPLICATION_PROTOCOL_DEFINITION('international standard',
'ap242_managed_model_based_3d_engineering',2020,#525);
#525=APPLICATION_CONTEXT('managed model based 3d engineering');
ENDSEC;
END-ISO-10303-21;
