ISO-10303-21;
HEADER;
/* Generated by software containing ST-Developer
 * from STEP Tools, Inc. (www.steptools.com) 
 */
/* OPTION: using custom renumber hook */

FILE_DESCRIPTION(
/* description */ ('STEP AP242 Edition 2',
'CAx-IF Rec.Pracs.---Representation and Presentation of Product Manufa
cturing Information (PMI)---4.0---2014-10-13',
'CAx-IF Rec.Pracs.---3D Tessellated Geometry---0.4---2014-09-14','2;1',
'CAx-IF Rec.Pracs.---User Defined Attributes---1.5---2016-08-15'),
/* implementation_level */ '2;1');

FILE_NAME(
/* name */ 'nad_joy',
/* time_stamp */ '2026-07-22T21:01:44Z',
/* author */ (''),
/* organization */ (''),
/* preprocessor_version */ 'ST-DEVELOPER v20',
/* originating_system */ 'ONSHAPE BY PTC INC, 1.218',
/* authorisation */ '  ');

FILE_SCHEMA (('AP242_MANAGED_MODEL_BASED_3D_ENGINEERING_MIM_LF { 1 0 10303 442 3 1 4 }'));
ENDSEC;

DATA;
#10=SHAPE_REPRESENTATION_RELATIONSHIP('','',#593,#11);
#11=ADVANCED_BREP_SHAPE_REPRESENTATION('',(#591),#973);
#12=CYLINDRICAL_SURFACE('',#612,0.005);
#13=CYLINDRICAL_SURFACE('',#614,0.005);
#14=CYLINDRICAL_SURFACE('',#616,0.005);
#15=CYLINDRICAL_SURFACE('',#618,0.005);
#16=CYLINDRICAL_SURFACE('',#620,0.019);
#17=CYLINDRICAL_SURFACE('',#622,0.00300000000000014);
#18=CYLINDRICAL_SURFACE('',#624,0.00300000000000015);
#19=CYLINDRICAL_SURFACE('',#626,0.00300000000000015);
#20=CYLINDRICAL_SURFACE('',#629,0.005);
#21=CYLINDRICAL_SURFACE('',#634,0.0018500000000001);
#22=CYLINDRICAL_SURFACE('',#636,0.0035);
#23=CYLINDRICAL_SURFACE('',#647,0.00185000000000009);
#24=CYLINDRICAL_SURFACE('',#648,0.006);
#25=CYLINDRICAL_SURFACE('',#650,0.003);
#26=CYLINDRICAL_SURFACE('',#654,0.0016);
#27=CIRCLE('',#598,0.006);
#28=CIRCLE('',#599,0.0035);
#29=CIRCLE('',#600,0.00300000000000015);
#30=CIRCLE('',#601,0.00300000000000015);
#31=CIRCLE('',#602,0.00300000000000014);
#32=CIRCLE('',#603,0.019);
#33=CIRCLE('',#604,0.005);
#34=CIRCLE('',#605,0.005);
#35=CIRCLE('',#606,0.005);
#36=CIRCLE('',#607,0.005);
#37=CIRCLE('',#608,0.005);
#38=CIRCLE('',#613,0.005);
#39=CIRCLE('',#615,0.005);
#40=CIRCLE('',#617,0.005);
#41=CIRCLE('',#619,0.005);
#42=CIRCLE('',#621,0.019);
#43=CIRCLE('',#623,0.00300000000000014);
#44=CIRCLE('',#625,0.00300000000000015);
#45=CIRCLE('',#627,0.00300000000000015);
#46=CIRCLE('',#630,0.005);
#47=CIRCLE('',#632,0.0018500000000001);
#48=CIRCLE('',#633,0.003);
#49=CIRCLE('',#635,0.0018500000000001);
#50=CIRCLE('',#637,0.0035);
#51=CIRCLE('',#644,0.00185000000000009);
#52=CIRCLE('',#646,0.00185000000000009);
#53=CIRCLE('',#649,0.006);
#54=CIRCLE('',#651,0.003);
#55=CIRCLE('',#653,0.0016);
#56=CIRCLE('',#655,0.0016);
#57=ORIENTED_EDGE('',*,*,#189,.F.);
#58=ORIENTED_EDGE('',*,*,#190,.T.);
#59=ORIENTED_EDGE('',*,*,#191,.T.);
#60=ORIENTED_EDGE('',*,*,#192,.F.);
#61=ORIENTED_EDGE('',*,*,#193,.F.);
#62=ORIENTED_EDGE('',*,*,#194,.T.);
#63=ORIENTED_EDGE('',*,*,#195,.T.);
#64=ORIENTED_EDGE('',*,*,#196,.F.);
#65=ORIENTED_EDGE('',*,*,#197,.F.);
#66=ORIENTED_EDGE('',*,*,#198,.F.);
#67=ORIENTED_EDGE('',*,*,#199,.T.);
#68=ORIENTED_EDGE('',*,*,#200,.T.);
#69=ORIENTED_EDGE('',*,*,#201,.F.);
#70=ORIENTED_EDGE('',*,*,#202,.F.);
#71=ORIENTED_EDGE('',*,*,#203,.T.);
#72=ORIENTED_EDGE('',*,*,#204,.T.);
#73=ORIENTED_EDGE('',*,*,#205,.T.);
#74=ORIENTED_EDGE('',*,*,#206,.T.);
#75=ORIENTED_EDGE('',*,*,#207,.T.);
#76=ORIENTED_EDGE('',*,*,#208,.T.);
#77=ORIENTED_EDGE('',*,*,#209,.T.);
#78=ORIENTED_EDGE('',*,*,#210,.T.);
#79=ORIENTED_EDGE('',*,*,#211,.T.);
#80=ORIENTED_EDGE('',*,*,#212,.F.);
#81=ORIENTED_EDGE('',*,*,#192,.T.);
#82=ORIENTED_EDGE('',*,*,#213,.T.);
#83=ORIENTED_EDGE('',*,*,#214,.F.);
#84=ORIENTED_EDGE('',*,*,#195,.F.);
#85=ORIENTED_EDGE('',*,*,#215,.T.);
#86=ORIENTED_EDGE('',*,*,#216,.T.);
#87=ORIENTED_EDGE('',*,*,#217,.F.);
#88=ORIENTED_EDGE('',*,*,#218,.T.);
#89=ORIENTED_EDGE('',*,*,#219,.F.);
#90=ORIENTED_EDGE('',*,*,#199,.F.);
#91=ORIENTED_EDGE('',*,*,#220,.T.);
#92=ORIENTED_EDGE('',*,*,#221,.F.);
#93=ORIENTED_EDGE('',*,*,#220,.F.);
#94=ORIENTED_EDGE('',*,*,#202,.T.);
#95=ORIENTED_EDGE('',*,*,#222,.T.);
#96=ORIENTED_EDGE('',*,*,#223,.F.);
#97=ORIENTED_EDGE('',*,*,#222,.F.);
#98=ORIENTED_EDGE('',*,*,#201,.T.);
#99=ORIENTED_EDGE('',*,*,#224,.T.);
#100=ORIENTED_EDGE('',*,*,#210,.F.);
#101=ORIENTED_EDGE('',*,*,#225,.T.);
#102=ORIENTED_EDGE('',*,*,#209,.F.);
#103=ORIENTED_EDGE('',*,*,#226,.T.);
#104=ORIENTED_EDGE('',*,*,#208,.F.);
#105=ORIENTED_EDGE('',*,*,#227,.T.);
#106=ORIENTED_EDGE('',*,*,#207,.F.);
#107=ORIENTED_EDGE('',*,*,#228,.T.);
#108=ORIENTED_EDGE('',*,*,#206,.F.);
#109=ORIENTED_EDGE('',*,*,#229,.T.);
#110=ORIENTED_EDGE('',*,*,#205,.F.);
#111=ORIENTED_EDGE('',*,*,#230,.T.);
#112=ORIENTED_EDGE('',*,*,#204,.F.);
#113=ORIENTED_EDGE('',*,*,#231,.T.);
#114=ORIENTED_EDGE('',*,*,#203,.F.);
#115=ORIENTED_EDGE('',*,*,#232,.T.);
#116=ORIENTED_EDGE('',*,*,#233,.T.);
#117=ORIENTED_EDGE('',*,*,#224,.F.);
#118=ORIENTED_EDGE('',*,*,#200,.F.);
#119=ORIENTED_EDGE('',*,*,#219,.T.);
#120=ORIENTED_EDGE('',*,*,#211,.F.);
#121=ORIENTED_EDGE('',*,*,#234,.T.);
#122=ORIENTED_EDGE('',*,*,#235,.T.);
#123=ORIENTED_EDGE('',*,*,#236,.T.);
#124=ORIENTED_EDGE('',*,*,#218,.F.);
#125=ORIENTED_EDGE('',*,*,#221,.T.);
#126=ORIENTED_EDGE('',*,*,#223,.T.);
#127=ORIENTED_EDGE('',*,*,#233,.F.);
#128=ORIENTED_EDGE('',*,*,#232,.F.);
#129=ORIENTED_EDGE('',*,*,#231,.F.);
#130=ORIENTED_EDGE('',*,*,#230,.F.);
#131=ORIENTED_EDGE('',*,*,#229,.F.);
#132=ORIENTED_EDGE('',*,*,#228,.F.);
#133=ORIENTED_EDGE('',*,*,#227,.F.);
#134=ORIENTED_EDGE('',*,*,#226,.F.);
#135=ORIENTED_EDGE('',*,*,#225,.F.);
#136=ORIENTED_EDGE('',*,*,#234,.F.);
#137=ORIENTED_EDGE('',*,*,#237,.T.);
#138=ORIENTED_EDGE('',*,*,#235,.F.);
#139=ORIENTED_EDGE('',*,*,#238,.F.);
#140=ORIENTED_EDGE('',*,*,#198,.T.);
#141=ORIENTED_EDGE('',*,*,#237,.F.);
#142=ORIENTED_EDGE('',*,*,#238,.T.);
#143=ORIENTED_EDGE('',*,*,#239,.T.);
#144=ORIENTED_EDGE('',*,*,#214,.T.);
#145=ORIENTED_EDGE('',*,*,#240,.F.);
#146=ORIENTED_EDGE('',*,*,#241,.F.);
#147=ORIENTED_EDGE('',*,*,#194,.F.);
#148=ORIENTED_EDGE('',*,*,#242,.T.);
#149=ORIENTED_EDGE('',*,*,#189,.T.);
#150=ORIENTED_EDGE('',*,*,#212,.T.);
#151=ORIENTED_EDGE('',*,*,#239,.F.);
#152=ORIENTED_EDGE('',*,*,#243,.T.);
#153=ORIENTED_EDGE('',*,*,#244,.T.);
#154=ORIENTED_EDGE('',*,*,#215,.F.);
#155=ORIENTED_EDGE('',*,*,#217,.T.);
#156=ORIENTED_EDGE('',*,*,#245,.F.);
#157=ORIENTED_EDGE('',*,*,#246,.F.);
#158=ORIENTED_EDGE('',*,*,#240,.T.);
#159=ORIENTED_EDGE('',*,*,#213,.F.);
#160=ORIENTED_EDGE('',*,*,#191,.F.);
#161=ORIENTED_EDGE('',*,*,#247,.F.);
#162=ORIENTED_EDGE('',*,*,#196,.T.);
#163=ORIENTED_EDGE('',*,*,#245,.T.);
#164=ORIENTED_EDGE('',*,*,#216,.F.);
#165=ORIENTED_EDGE('',*,*,#244,.F.);
#166=ORIENTED_EDGE('',*,*,#248,.T.);
#167=ORIENTED_EDGE('',*,*,#243,.F.);
#168=ORIENTED_EDGE('',*,*,#241,.T.);
#169=ORIENTED_EDGE('',*,*,#246,.T.);
#170=ORIENTED_EDGE('',*,*,#248,.F.);
#171=ORIENTED_EDGE('',*,*,#249,.F.);
#172=ORIENTED_EDGE('',*,*,#190,.F.);
#173=ORIENTED_EDGE('',*,*,#242,.F.);
#174=ORIENTED_EDGE('',*,*,#193,.T.);
#175=ORIENTED_EDGE('',*,*,#247,.T.);
#176=ORIENTED_EDGE('',*,*,#250,.T.);
#177=ORIENTED_EDGE('',*,*,#250,.F.);
#178=ORIENTED_EDGE('',*,*,#249,.T.);
#179=ORIENTED_EDGE('',*,*,#197,.T.);
#180=ORIENTED_EDGE('',*,*,#251,.F.);
#181=ORIENTED_EDGE('',*,*,#252,.T.);
#182=ORIENTED_EDGE('',*,*,#236,.F.);
#183=ORIENTED_EDGE('',*,*,#253,.T.);
#184=ORIENTED_EDGE('',*,*,#252,.F.);
#185=ORIENTED_EDGE('',*,*,#254,.T.);
#186=ORIENTED_EDGE('',*,*,#253,.F.);
#187=ORIENTED_EDGE('',*,*,#254,.F.);
#188=ORIENTED_EDGE('',*,*,#251,.T.);
#189=EDGE_CURVE('',#255,#256,#309,.T.);
#190=EDGE_CURVE('',#255,#257,#310,.T.);
#191=EDGE_CURVE('',#257,#258,#311,.T.);
#192=EDGE_CURVE('',#256,#258,#312,.T.);
#193=EDGE_CURVE('',#259,#260,#313,.T.);
#194=EDGE_CURVE('',#259,#261,#314,.T.);
#195=EDGE_CURVE('',#261,#262,#315,.T.);
#196=EDGE_CURVE('',#260,#262,#316,.T.);
#197=EDGE_CURVE('',#263,#263,#27,.F.);
#198=EDGE_CURVE('',#264,#264,#28,.T.);
#199=EDGE_CURVE('',#265,#266,#317,.T.);
#200=EDGE_CURVE('',#266,#267,#318,.T.);
#201=EDGE_CURVE('',#268,#267,#319,.T.);
#202=EDGE_CURVE('',#265,#268,#320,.T.);
#203=EDGE_CURVE('',#269,#269,#29,.T.);
#204=EDGE_CURVE('',#270,#270,#30,.T.);
#205=EDGE_CURVE('',#271,#271,#31,.T.);
#206=EDGE_CURVE('',#272,#272,#32,.T.);
#207=EDGE_CURVE('',#273,#273,#33,.T.);
#208=EDGE_CURVE('',#274,#274,#34,.T.);
#209=EDGE_CURVE('',#275,#275,#35,.T.);
#210=EDGE_CURVE('',#276,#276,#36,.T.);
#211=EDGE_CURVE('',#277,#277,#37,.T.);
#212=EDGE_CURVE('',#256,#278,#321,.T.);
#213=EDGE_CURVE('',#258,#279,#322,.T.);
#214=EDGE_CURVE('',#278,#279,#323,.T.);
#215=EDGE_CURVE('',#261,#280,#324,.T.);
#216=EDGE_CURVE('',#280,#281,#325,.T.);
#217=EDGE_CURVE('',#262,#281,#326,.T.);
#218=EDGE_CURVE('',#282,#283,#327,.T.);
#219=EDGE_CURVE('',#266,#283,#328,.T.);
#220=EDGE_CURVE('',#265,#282,#329,.T.);
#221=EDGE_CURVE('',#282,#284,#330,.T.);
#222=EDGE_CURVE('',#268,#284,#331,.T.);
#223=EDGE_CURVE('',#284,#285,#332,.T.);
#224=EDGE_CURVE('',#267,#285,#333,.T.);
#225=EDGE_CURVE('',#286,#286,#38,.T.);
#226=EDGE_CURVE('',#287,#287,#39,.T.);
#227=EDGE_CURVE('',#288,#288,#40,.T.);
#228=EDGE_CURVE('',#289,#289,#41,.T.);
#229=EDGE_CURVE('',#290,#290,#42,.T.);
#230=EDGE_CURVE('',#291,#291,#43,.T.);
#231=EDGE_CURVE('',#292,#292,#44,.T.);
#232=EDGE_CURVE('',#293,#293,#45,.T.);
#233=EDGE_CURVE('',#283,#285,#334,.T.);
#234=EDGE_CURVE('',#294,#294,#46,.T.);
#235=EDGE_CURVE('',#295,#295,#47,.F.);
#236=EDGE_CURVE('',#296,#296,#48,.F.);
#237=EDGE_CURVE('',#297,#297,#49,.T.);
#238=EDGE_CURVE('',#298,#298,#50,.T.);
#239=EDGE_CURVE('',#299,#278,#335,.T.);
#240=EDGE_CURVE('',#300,#279,#336,.T.);
#241=EDGE_CURVE('',#299,#300,#337,.T.);
#242=EDGE_CURVE('',#259,#255,#338,.T.);
#243=EDGE_CURVE('',#299,#301,#339,.T.);
#244=EDGE_CURVE('',#301,#280,#340,.T.);
#245=EDGE_CURVE('',#302,#281,#341,.T.);
#246=EDGE_CURVE('',#300,#302,#342,.T.);
#247=EDGE_CURVE('',#260,#257,#343,.T.);
#248=EDGE_CURVE('',#301,#302,#344,.T.);
#249=EDGE_CURVE('',#303,#303,#51,.T.);
#250=EDGE_CURVE('',#304,#304,#52,.T.);
#251=EDGE_CURVE('',#305,#305,#53,.T.);
#252=EDGE_CURVE('',#306,#306,#54,.T.);
#253=EDGE_CURVE('',#307,#307,#55,.T.);
#254=EDGE_CURVE('',#308,#308,#56,.T.);
#255=VERTEX_POINT('',#822);
#256=VERTEX_POINT('',#823);
#257=VERTEX_POINT('',#825);
#258=VERTEX_POINT('',#827);
#259=VERTEX_POINT('',#831);
#260=VERTEX_POINT('',#832);
#261=VERTEX_POINT('',#834);
#262=VERTEX_POINT('',#836);
#263=VERTEX_POINT('',#840);
#264=VERTEX_POINT('',#842);
#265=VERTEX_POINT('',#844);
#266=VERTEX_POINT('',#845);
#267=VERTEX_POINT('',#847);
#268=VERTEX_POINT('',#849);
#269=VERTEX_POINT('',#852);
#270=VERTEX_POINT('',#854);
#271=VERTEX_POINT('',#856);
#272=VERTEX_POINT('',#858);
#273=VERTEX_POINT('',#860);
#274=VERTEX_POINT('',#862);
#275=VERTEX_POINT('',#864);
#276=VERTEX_POINT('',#866);
#277=VERTEX_POINT('',#868);
#278=VERTEX_POINT('',#870);
#279=VERTEX_POINT('',#872);
#280=VERTEX_POINT('',#875);
#281=VERTEX_POINT('',#877);
#282=VERTEX_POINT('',#881);
#283=VERTEX_POINT('',#882);
#284=VERTEX_POINT('',#887);
#285=VERTEX_POINT('',#891);
#286=VERTEX_POINT('',#895);
#287=VERTEX_POINT('',#898);
#288=VERTEX_POINT('',#901);
#289=VERTEX_POINT('',#904);
#290=VERTEX_POINT('',#907);
#291=VERTEX_POINT('',#910);
#292=VERTEX_POINT('',#913);
#293=VERTEX_POINT('',#916);
#294=VERTEX_POINT('',#921);
#295=VERTEX_POINT('',#924);
#296=VERTEX_POINT('',#926);
#297=VERTEX_POINT('',#929);
#298=VERTEX_POINT('',#932);
#299=VERTEX_POINT('',#936);
#300=VERTEX_POINT('',#938);
#301=VERTEX_POINT('',#943);
#302=VERTEX_POINT('',#947);
#303=VERTEX_POINT('',#954);
#304=VERTEX_POINT('',#957);
#305=VERTEX_POINT('',#961);
#306=VERTEX_POINT('',#964);
#307=VERTEX_POINT('',#967);
#308=VERTEX_POINT('',#970);
#309=LINE('',#821,#345);
#310=LINE('',#824,#346);
#311=LINE('',#826,#347);
#312=LINE('',#828,#348);
#313=LINE('',#830,#349);
#314=LINE('',#833,#350);
#315=LINE('',#835,#351);
#316=LINE('',#837,#352);
#317=LINE('',#843,#353);
#318=LINE('',#846,#354);
#319=LINE('',#848,#355);
#320=LINE('',#850,#356);
#321=LINE('',#869,#357);
#322=LINE('',#871,#358);
#323=LINE('',#873,#359);
#324=LINE('',#874,#360);
#325=LINE('',#876,#361);
#326=LINE('',#878,#362);
#327=LINE('',#880,#363);
#328=LINE('',#883,#364);
#329=LINE('',#884,#365);
#330=LINE('',#886,#366);
#331=LINE('',#888,#367);
#332=LINE('',#890,#368);
#333=LINE('',#892,#369);
#334=LINE('',#918,#370);
#335=LINE('',#935,#371);
#336=LINE('',#937,#372);
#337=LINE('',#939,#373);
#338=LINE('',#941,#374);
#339=LINE('',#942,#375);
#340=LINE('',#944,#376);
#341=LINE('',#946,#377);
#342=LINE('',#948,#378);
#343=LINE('',#949,#379);
#344=LINE('',#951,#380);
#345=VECTOR('',#661,1.);
#346=VECTOR('',#662,1.);
#347=VECTOR('',#663,1.);
#348=VECTOR('',#664,1.);
#349=VECTOR('',#667,1.);
#350=VECTOR('',#668,1.);
#351=VECTOR('',#669,1.);
#352=VECTOR('',#670,1.);
#353=VECTOR('',#677,1.);
#354=VECTOR('',#678,1.);
#355=VECTOR('',#679,1.);
#356=VECTOR('',#680,1.);
#357=VECTOR('',#699,1.);
#358=VECTOR('',#700,1.);
#359=VECTOR('',#701,1.);
#360=VECTOR('',#702,1.);
#361=VECTOR('',#703,1.);
#362=VECTOR('',#704,1.);
#363=VECTOR('',#707,1.);
#364=VECTOR('',#708,1.);
#365=VECTOR('',#709,1.);
#366=VECTOR('',#712,1.);
#367=VECTOR('',#713,1.);
#368=VECTOR('',#716,1.);
#369=VECTOR('',#717,1.);
#370=VECTOR('',#752,1.);
#371=VECTOR('',#775,1.);
#372=VECTOR('',#776,1.);
#373=VECTOR('',#777,1.);
#374=VECTOR('',#780,1.);
#375=VECTOR('',#781,1.);
#376=VECTOR('',#782,1.);
#377=VECTOR('',#785,1.);
#378=VECTOR('',#786,1.);
#379=VECTOR('',#787,1.);
#380=VECTOR('',#790,1.);
#381=EDGE_LOOP('',(#57,#58,#59,#60));
#382=EDGE_LOOP('',(#61,#62,#63,#64));
#383=EDGE_LOOP('',(#65));
#384=EDGE_LOOP('',(#66));
#385=EDGE_LOOP('',(#67,#68,#69,#70));
#386=EDGE_LOOP('',(#71));
#387=EDGE_LOOP('',(#72));
#388=EDGE_LOOP('',(#73));
#389=EDGE_LOOP('',(#74));
#390=EDGE_LOOP('',(#75));
#391=EDGE_LOOP('',(#76));
#392=EDGE_LOOP('',(#77));
#393=EDGE_LOOP('',(#78));
#394=EDGE_LOOP('',(#79));
#395=EDGE_LOOP('',(#80,#81,#82,#83));
#396=EDGE_LOOP('',(#84,#85,#86,#87));
#397=EDGE_LOOP('',(#88,#89,#90,#91));
#398=EDGE_LOOP('',(#92,#93,#94,#95));
#399=EDGE_LOOP('',(#96,#97,#98,#99));
#400=EDGE_LOOP('',(#100));
#401=EDGE_LOOP('',(#101));
#402=EDGE_LOOP('',(#102));
#403=EDGE_LOOP('',(#103));
#404=EDGE_LOOP('',(#104));
#405=EDGE_LOOP('',(#105));
#406=EDGE_LOOP('',(#106));
#407=EDGE_LOOP('',(#107));
#408=EDGE_LOOP('',(#108));
#409=EDGE_LOOP('',(#109));
#410=EDGE_LOOP('',(#110));
#411=EDGE_LOOP('',(#111));
#412=EDGE_LOOP('',(#112));
#413=EDGE_LOOP('',(#113));
#414=EDGE_LOOP('',(#114));
#415=EDGE_LOOP('',(#115));
#416=EDGE_LOOP('',(#116,#117,#118,#119));
#417=EDGE_LOOP('',(#120));
#418=EDGE_LOOP('',(#121));
#419=EDGE_LOOP('',(#122));
#420=EDGE_LOOP('',(#123));
#421=EDGE_LOOP('',(#124,#125,#126,#127));
#422=EDGE_LOOP('',(#128));
#423=EDGE_LOOP('',(#129));
#424=EDGE_LOOP('',(#130));
#425=EDGE_LOOP('',(#131));
#426=EDGE_LOOP('',(#132));
#427=EDGE_LOOP('',(#133));
#428=EDGE_LOOP('',(#134));
#429=EDGE_LOOP('',(#135));
#430=EDGE_LOOP('',(#136));
#431=EDGE_LOOP('',(#137));
#432=EDGE_LOOP('',(#138));
#433=EDGE_LOOP('',(#139));
#434=EDGE_LOOP('',(#140));
#435=EDGE_LOOP('',(#141));
#436=EDGE_LOOP('',(#142));
#437=EDGE_LOOP('',(#143,#144,#145,#146));
#438=EDGE_LOOP('',(#147,#148,#149,#150,#151,#152,#153,#154));
#439=EDGE_LOOP('',(#155,#156,#157,#158,#159,#160,#161,#162));
#440=EDGE_LOOP('',(#163,#164,#165,#166));
#441=EDGE_LOOP('',(#167,#168,#169,#170));
#442=EDGE_LOOP('',(#171));
#443=EDGE_LOOP('',(#172,#173,#174,#175));
#444=EDGE_LOOP('',(#176));
#445=EDGE_LOOP('',(#177));
#446=EDGE_LOOP('',(#178));
#447=EDGE_LOOP('',(#179));
#448=EDGE_LOOP('',(#180));
#449=EDGE_LOOP('',(#181));
#450=EDGE_LOOP('',(#182));
#451=EDGE_LOOP('',(#183));
#452=EDGE_LOOP('',(#184));
#453=EDGE_LOOP('',(#185));
#454=EDGE_LOOP('',(#186));
#455=EDGE_LOOP('',(#187));
#456=EDGE_LOOP('',(#188));
#457=FACE_BOUND('',#381,.T.);
#458=FACE_BOUND('',#382,.T.);
#459=FACE_BOUND('',#383,.T.);
#460=FACE_BOUND('',#384,.T.);
#461=FACE_BOUND('',#385,.T.);
#462=FACE_BOUND('',#386,.T.);
#463=FACE_BOUND('',#387,.T.);
#464=FACE_BOUND('',#388,.T.);
#465=FACE_BOUND('',#389,.T.);
#466=FACE_BOUND('',#390,.T.);
#467=FACE_BOUND('',#391,.T.);
#468=FACE_BOUND('',#392,.T.);
#469=FACE_BOUND('',#393,.T.);
#470=FACE_BOUND('',#394,.T.);
#471=FACE_BOUND('',#395,.T.);
#472=FACE_BOUND('',#396,.T.);
#473=FACE_BOUND('',#397,.T.);
#474=FACE_BOUND('',#398,.T.);
#475=FACE_BOUND('',#399,.T.);
#476=FACE_BOUND('',#400,.T.);
#477=FACE_BOUND('',#401,.T.);
#478=FACE_BOUND('',#402,.T.);
#479=FACE_BOUND('',#403,.T.);
#480=FACE_BOUND('',#404,.T.);
#481=FACE_BOUND('',#405,.T.);
#482=FACE_BOUND('',#406,.T.);
#483=FACE_BOUND('',#407,.T.);
#484=FACE_BOUND('',#408,.T.);
#485=FACE_BOUND('',#409,.T.);
#486=FACE_BOUND('',#410,.T.);
#487=FACE_BOUND('',#411,.T.);
#488=FACE_BOUND('',#412,.T.);
#489=FACE_BOUND('',#413,.T.);
#490=FACE_BOUND('',#414,.T.);
#491=FACE_BOUND('',#415,.T.);
#492=FACE_BOUND('',#416,.T.);
#493=FACE_BOUND('',#417,.T.);
#494=FACE_BOUND('',#418,.T.);
#495=FACE_BOUND('',#419,.T.);
#496=FACE_BOUND('',#420,.T.);
#497=FACE_BOUND('',#421,.T.);
#498=FACE_BOUND('',#422,.T.);
#499=FACE_BOUND('',#423,.T.);
#500=FACE_BOUND('',#424,.T.);
#501=FACE_BOUND('',#425,.T.);
#502=FACE_BOUND('',#426,.T.);
#503=FACE_BOUND('',#427,.T.);
#504=FACE_BOUND('',#428,.T.);
#505=FACE_BOUND('',#429,.T.);
#506=FACE_BOUND('',#430,.T.);
#507=FACE_BOUND('',#431,.T.);
#508=FACE_BOUND('',#432,.T.);
#509=FACE_BOUND('',#433,.T.);
#510=FACE_BOUND('',#434,.T.);
#511=FACE_BOUND('',#435,.T.);
#512=FACE_BOUND('',#436,.T.);
#513=FACE_BOUND('',#437,.T.);
#514=FACE_BOUND('',#438,.T.);
#515=FACE_BOUND('',#439,.T.);
#516=FACE_BOUND('',#440,.T.);
#517=FACE_BOUND('',#441,.T.);
#518=FACE_BOUND('',#442,.T.);
#519=FACE_BOUND('',#443,.T.);
#520=FACE_BOUND('',#444,.T.);
#521=FACE_BOUND('',#445,.T.);
#522=FACE_BOUND('',#446,.T.);
#523=FACE_BOUND('',#447,.T.);
#524=FACE_BOUND('',#448,.T.);
#525=FACE_BOUND('',#449,.T.);
#526=FACE_BOUND('',#450,.T.);
#527=FACE_BOUND('',#451,.T.);
#528=FACE_BOUND('',#452,.T.);
#529=FACE_BOUND('',#453,.T.);
#530=FACE_BOUND('',#454,.T.);
#531=FACE_BOUND('',#455,.T.);
#532=FACE_BOUND('',#456,.T.);
#533=PLANE('',#595);
#534=PLANE('',#596);
#535=PLANE('',#597);
#536=PLANE('',#609);
#537=PLANE('',#610);
#538=PLANE('',#611);
#539=PLANE('',#628);
#540=PLANE('',#631);
#541=PLANE('',#638);
#542=PLANE('',#639);
#543=PLANE('',#640);
#544=PLANE('',#641);
#545=PLANE('',#642);
#546=PLANE('',#643);
#547=PLANE('',#645);
#548=PLANE('',#652);
#549=PLANE('',#656);
#550=ADVANCED_FACE('',(#457),#533,.T.);
#551=ADVANCED_FACE('',(#458),#534,.F.);
#552=ADVANCED_FACE('',(#459,#460,#461,#462,#463,#464,#465,#466,#467,#468,
#469,#470,#471,#472),#535,.F.);
#553=ADVANCED_FACE('',(#473),#536,.F.);
#554=ADVANCED_FACE('',(#474),#537,.T.);
#555=ADVANCED_FACE('',(#475),#538,.T.);
#556=ADVANCED_FACE('',(#476,#477),#12,.F.);
#557=ADVANCED_FACE('',(#478,#479),#13,.F.);
#558=ADVANCED_FACE('',(#480,#481),#14,.F.);
#559=ADVANCED_FACE('',(#482,#483),#15,.F.);
#560=ADVANCED_FACE('',(#484,#485),#16,.F.);
#561=ADVANCED_FACE('',(#486,#487),#17,.F.);
#562=ADVANCED_FACE('',(#488,#489),#18,.F.);
#563=ADVANCED_FACE('',(#490,#491),#19,.F.);
#564=ADVANCED_FACE('',(#492),#539,.F.);
#565=ADVANCED_FACE('',(#493,#494),#20,.F.);
#566=ADVANCED_FACE('',(#495,#496,#497,#498,#499,#500,#501,#502,#503,#504,
#505,#506),#540,.T.);
#567=ADVANCED_FACE('',(#507,#508),#21,.F.);
#568=ADVANCED_FACE('',(#509,#510),#22,.T.);
#569=ADVANCED_FACE('',(#511,#512),#541,.T.);
#570=ADVANCED_FACE('',(#513),#542,.F.);
#571=ADVANCED_FACE('',(#514),#543,.T.);
#572=ADVANCED_FACE('',(#515),#544,.F.);
#573=ADVANCED_FACE('',(#516),#545,.T.);
#574=ADVANCED_FACE('',(#517,#518),#546,.T.);
#575=ADVANCED_FACE('',(#519,#520),#547,.F.);
#576=ADVANCED_FACE('',(#521,#522),#23,.F.);
#577=ADVANCED_FACE('',(#523,#524),#24,.T.);
#578=ADVANCED_FACE('',(#525,#526),#25,.F.);
#579=ADVANCED_FACE('',(#527,#528),#548,.F.);
#580=ADVANCED_FACE('',(#529,#530),#26,.F.);
#581=ADVANCED_FACE('',(#531,#532),#549,.T.);
#582=CLOSED_SHELL('',(#550,#551,#552,#553,#554,#555,#556,#557,#558,#559,
#560,#561,#562,#563,#564,#565,#566,#567,#568,#569,#570,#571,#572,#573,#574,
#575,#576,#577,#578,#579,#580,#581));
#583=STYLED_ITEM('',(#584),#591);
#584=PRESENTATION_STYLE_ASSIGNMENT((#585));
#585=SURFACE_STYLE_USAGE(.BOTH.,#586);
#586=SURFACE_SIDE_STYLE('',(#587));
#587=SURFACE_STYLE_FILL_AREA(#588);
#588=FILL_AREA_STYLE('',(#589));
#589=FILL_AREA_STYLE_COLOUR('',#590);
#590=COLOUR_RGB('',0.372549019607843,0.654901960784314,0.23921568627451);
#591=MANIFOLD_SOLID_BREP('Part 1',#582);
#592=SHAPE_DEFINITION_REPRESENTATION(#978,#593);
#593=SHAPE_REPRESENTATION('Part 1',(#594),#973);
#594=AXIS2_PLACEMENT_3D('',#819,#657,#658);
#595=AXIS2_PLACEMENT_3D('',#820,#659,#660);
#596=AXIS2_PLACEMENT_3D('',#829,#665,#666);
#597=AXIS2_PLACEMENT_3D('',#838,#671,#672);
#598=AXIS2_PLACEMENT_3D('',#839,#673,#674);
#599=AXIS2_PLACEMENT_3D('',#841,#675,#676);
#600=AXIS2_PLACEMENT_3D('',#851,#681,#682);
#601=AXIS2_PLACEMENT_3D('',#853,#683,#684);
#602=AXIS2_PLACEMENT_3D('',#855,#685,#686);
#603=AXIS2_PLACEMENT_3D('',#857,#687,#688);
#604=AXIS2_PLACEMENT_3D('',#859,#689,#690);
#605=AXIS2_PLACEMENT_3D('',#861,#691,#692);
#606=AXIS2_PLACEMENT_3D('',#863,#693,#694);
#607=AXIS2_PLACEMENT_3D('',#865,#695,#696);
#608=AXIS2_PLACEMENT_3D('',#867,#697,#698);
#609=AXIS2_PLACEMENT_3D('',#879,#705,#706);
#610=AXIS2_PLACEMENT_3D('',#885,#710,#711);
#611=AXIS2_PLACEMENT_3D('',#889,#714,#715);
#612=AXIS2_PLACEMENT_3D('',#893,#718,#719);
#613=AXIS2_PLACEMENT_3D('',#894,#720,#721);
#614=AXIS2_PLACEMENT_3D('',#896,#722,#723);
#615=AXIS2_PLACEMENT_3D('',#897,#724,#725);
#616=AXIS2_PLACEMENT_3D('',#899,#726,#727);
#617=AXIS2_PLACEMENT_3D('',#900,#728,#729);
#618=AXIS2_PLACEMENT_3D('',#902,#730,#731);
#619=AXIS2_PLACEMENT_3D('',#903,#732,#733);
#620=AXIS2_PLACEMENT_3D('',#905,#734,#735);
#621=AXIS2_PLACEMENT_3D('',#906,#736,#737);
#622=AXIS2_PLACEMENT_3D('',#908,#738,#739);
#623=AXIS2_PLACEMENT_3D('',#909,#740,#741);
#624=AXIS2_PLACEMENT_3D('',#911,#742,#743);
#625=AXIS2_PLACEMENT_3D('',#912,#744,#745);
#626=AXIS2_PLACEMENT_3D('',#914,#746,#747);
#627=AXIS2_PLACEMENT_3D('',#915,#748,#749);
#628=AXIS2_PLACEMENT_3D('',#917,#750,#751);
#629=AXIS2_PLACEMENT_3D('',#919,#753,#754);
#630=AXIS2_PLACEMENT_3D('',#920,#755,#756);
#631=AXIS2_PLACEMENT_3D('',#922,#757,#758);
#632=AXIS2_PLACEMENT_3D('',#923,#759,#760);
#633=AXIS2_PLACEMENT_3D('',#925,#761,#762);
#634=AXIS2_PLACEMENT_3D('',#927,#763,#764);
#635=AXIS2_PLACEMENT_3D('',#928,#765,#766);
#636=AXIS2_PLACEMENT_3D('',#930,#767,#768);
#637=AXIS2_PLACEMENT_3D('',#931,#769,#770);
#638=AXIS2_PLACEMENT_3D('',#933,#771,#772);
#639=AXIS2_PLACEMENT_3D('',#934,#773,#774);
#640=AXIS2_PLACEMENT_3D('',#940,#778,#779);
#641=AXIS2_PLACEMENT_3D('',#945,#783,#784);
#642=AXIS2_PLACEMENT_3D('',#950,#788,#789);
#643=AXIS2_PLACEMENT_3D('',#952,#791,#792);
#644=AXIS2_PLACEMENT_3D('',#953,#793,#794);
#645=AXIS2_PLACEMENT_3D('',#955,#795,#796);
#646=AXIS2_PLACEMENT_3D('',#956,#797,#798);
#647=AXIS2_PLACEMENT_3D('',#958,#799,#800);
#648=AXIS2_PLACEMENT_3D('',#959,#801,#802);
#649=AXIS2_PLACEMENT_3D('',#960,#803,#804);
#650=AXIS2_PLACEMENT_3D('',#962,#805,#806);
#651=AXIS2_PLACEMENT_3D('',#963,#807,#808);
#652=AXIS2_PLACEMENT_3D('',#965,#809,#810);
#653=AXIS2_PLACEMENT_3D('',#966,#811,#812);
#654=AXIS2_PLACEMENT_3D('',#968,#813,#814);
#655=AXIS2_PLACEMENT_3D('',#969,#815,#816);
#656=AXIS2_PLACEMENT_3D('',#971,#817,#818);
#657=DIRECTION('',(0.,0.,1.));
#658=DIRECTION('',(1.,0.,0.));
#659=DIRECTION('',(0.,-1.,0.));
#660=DIRECTION('',(0.,0.,-1.));
#661=DIRECTION('',(0.,0.,1.));
#662=DIRECTION('',(1.,0.,0.));
#663=DIRECTION('',(0.,0.,1.));
#664=DIRECTION('',(1.,0.,0.));
#665=DIRECTION('',(-2.89120579329468E-16,-1.,0.));
#666=DIRECTION('',(1.,-2.89120579329468E-16,0.));
#667=DIRECTION('',(1.,-2.89120579329468E-16,0.));
#668=DIRECTION('',(0.,0.,1.));
#669=DIRECTION('',(1.,-2.89120579329468E-16,0.));
#670=DIRECTION('',(0.,0.,1.));
#671=DIRECTION('',(0.,0.,1.));
#672=DIRECTION('',(1.,0.,0.));
#673=DIRECTION('',(0.,0.,1.));
#674=DIRECTION('',(1.,0.,0.));
#675=DIRECTION('',(0.,0.,-1.));
#676=DIRECTION('',(-1.,0.,0.));
#677=DIRECTION('',(0.,1.,0.));
#678=DIRECTION('',(1.,1.51669812107262E-16,0.));
#679=DIRECTION('',(0.,1.,0.));
#680=DIRECTION('',(1.,0.,0.));
#681=DIRECTION('',(0.,0.,1.));
#682=DIRECTION('',(1.,0.,0.));
#683=DIRECTION('',(0.,0.,1.));
#684=DIRECTION('',(1.,0.,0.));
#685=DIRECTION('',(0.,0.,1.));
#686=DIRECTION('',(1.,0.,0.));
#687=DIRECTION('',(0.,0.,1.));
#688=DIRECTION('',(1.,0.,0.));
#689=DIRECTION('',(0.,0.,1.));
#690=DIRECTION('',(1.,0.,0.));
#691=DIRECTION('',(0.,0.,1.));
#692=DIRECTION('',(1.,0.,0.));
#693=DIRECTION('',(0.,0.,1.));
#694=DIRECTION('',(1.,0.,0.));
#695=DIRECTION('',(0.,0.,1.));
#696=DIRECTION('',(1.,0.,0.));
#697=DIRECTION('',(0.,0.,1.));
#698=DIRECTION('',(1.,0.,0.));
#699=DIRECTION('',(0.,1.,0.));
#700=DIRECTION('',(0.,1.,0.));
#701=DIRECTION('',(1.,0.,0.));
#702=DIRECTION('',(0.,-1.,0.));
#703=DIRECTION('',(1.,0.,0.));
#704=DIRECTION('',(0.,-1.,0.));
#705=DIRECTION('',(1.,0.,0.));
#706=DIRECTION('',(0.,0.,-1.));
#707=DIRECTION('',(0.,1.,0.));
#708=DIRECTION('',(0.,0.,1.));
#709=DIRECTION('',(0.,0.,1.));
#710=DIRECTION('',(0.,-1.,0.));
#711=DIRECTION('',(0.,0.,-1.));
#712=DIRECTION('',(1.,0.,0.));
#713=DIRECTION('',(0.,0.,1.));
#714=DIRECTION('',(1.,0.,0.));
#715=DIRECTION('',(0.,0.,-1.));
#716=DIRECTION('',(0.,1.,0.));
#717=DIRECTION('',(0.,0.,1.));
#718=DIRECTION('',(0.,0.,1.));
#719=DIRECTION('',(1.,0.,0.));
#720=DIRECTION('',(0.,0.,1.));
#721=DIRECTION('',(1.,0.,0.));
#722=DIRECTION('',(0.,0.,1.));
#723=DIRECTION('',(1.,0.,0.));
#724=DIRECTION('',(0.,0.,1.));
#725=DIRECTION('',(1.,0.,0.));
#726=DIRECTION('',(0.,0.,1.));
#727=DIRECTION('',(1.,0.,0.));
#728=DIRECTION('',(0.,0.,1.));
#729=DIRECTION('',(1.,0.,0.));
#730=DIRECTION('',(0.,0.,1.));
#731=DIRECTION('',(1.,0.,0.));
#732=DIRECTION('',(0.,0.,1.));
#733=DIRECTION('',(1.,0.,0.));
#734=DIRECTION('',(0.,0.,1.));
#735=DIRECTION('',(1.,0.,0.));
#736=DIRECTION('',(0.,0.,1.));
#737=DIRECTION('',(1.,0.,0.));
#738=DIRECTION('',(0.,0.,1.));
#739=DIRECTION('',(1.,0.,0.));
#740=DIRECTION('',(0.,0.,1.));
#741=DIRECTION('',(1.,0.,0.));
#742=DIRECTION('',(0.,0.,1.));
#743=DIRECTION('',(1.,0.,0.));
#744=DIRECTION('',(0.,0.,1.));
#745=DIRECTION('',(1.,0.,0.));
#746=DIRECTION('',(0.,0.,1.));
#747=DIRECTION('',(1.,0.,0.));
#748=DIRECTION('',(0.,0.,1.));
#749=DIRECTION('',(1.,0.,0.));
#750=DIRECTION('',(1.51669812107262E-16,-1.,0.));
#751=DIRECTION('',(1.,1.51669812107262E-16,0.));
#752=DIRECTION('',(1.,1.51669812107262E-16,0.));
#753=DIRECTION('',(0.,0.,1.));
#754=DIRECTION('',(1.,0.,0.));
#755=DIRECTION('',(0.,0.,1.));
#756=DIRECTION('',(1.,0.,0.));
#757=DIRECTION('',(0.,0.,1.));
#758=DIRECTION('',(1.,0.,0.));
#759=DIRECTION('',(0.,0.,1.));
#760=DIRECTION('',(1.,0.,0.));
#761=DIRECTION('',(0.,0.,1.));
#762=DIRECTION('',(1.,0.,0.));
#763=DIRECTION('',(0.,0.,1.));
#764=DIRECTION('',(1.,0.,0.));
#765=DIRECTION('',(0.,0.,-1.));
#766=DIRECTION('',(-1.,0.,0.));
#767=DIRECTION('',(0.,0.,1.));
#768=DIRECTION('',(1.,0.,0.));
#769=DIRECTION('',(0.,0.,-1.));
#770=DIRECTION('',(-1.,0.,0.));
#771=DIRECTION('',(0.,0.,-1.));
#772=DIRECTION('',(1.,0.,0.));
#773=DIRECTION('',(0.,-1.,0.));
#774=DIRECTION('',(0.,0.,-1.));
#775=DIRECTION('',(0.,0.,1.));
#776=DIRECTION('',(0.,0.,1.));
#777=DIRECTION('',(1.,0.,0.));
#778=DIRECTION('',(-1.,0.,0.));
#779=DIRECTION('',(0.,0.,1.));
#780=DIRECTION('',(0.,1.,0.));
#781=DIRECTION('',(0.,-1.,0.));
#782=DIRECTION('',(0.,0.,1.));
#783=DIRECTION('',(-1.,0.,0.));
#784=DIRECTION('',(0.,0.,1.));
#785=DIRECTION('',(0.,0.,1.));
#786=DIRECTION('',(0.,-1.,0.));
#787=DIRECTION('',(0.,1.,0.));
#788=DIRECTION('',(0.,-1.,0.));
#789=DIRECTION('',(0.,0.,-1.));
#790=DIRECTION('',(1.,0.,0.));
#791=DIRECTION('',(0.,0.,-1.));
#792=DIRECTION('',(1.,0.,0.));
#793=DIRECTION('',(0.,0.,-1.));
#794=DIRECTION('',(-1.,0.,0.));
#795=DIRECTION('',(0.,0.,-1.));
#796=DIRECTION('',(1.,0.,0.));
#797=DIRECTION('',(0.,0.,-1.));
#798=DIRECTION('',(-1.,0.,0.));
#799=DIRECTION('',(0.,0.,-1.));
#800=DIRECTION('',(-1.,0.,0.));
#801=DIRECTION('',(0.,0.,1.));
#802=DIRECTION('',(1.,0.,0.));
#803=DIRECTION('',(0.,0.,-1.));
#804=DIRECTION('',(-1.,0.,0.));
#805=DIRECTION('',(0.,0.,-1.));
#806=DIRECTION('',(-1.,0.,0.));
#807=DIRECTION('',(0.,0.,-1.));
#808=DIRECTION('',(-1.,0.,0.));
#809=DIRECTION('',(0.,0.,-1.));
#810=DIRECTION('',(1.,0.,0.));
#811=DIRECTION('',(0.,0.,-1.));
#812=DIRECTION('',(-1.,0.,0.));
#813=DIRECTION('',(0.,0.,1.));
#814=DIRECTION('',(1.,0.,0.));
#815=DIRECTION('',(0.,0.,-1.));
#816=DIRECTION('',(-1.,0.,0.));
#817=DIRECTION('',(0.,0.,-1.));
#818=DIRECTION('',(1.,0.,0.));
#819=CARTESIAN_POINT('',(0.,0.,0.));
#820=CARTESIAN_POINT('',(0.116710942156611,0.0230000000000014,-0.011));
#821=CARTESIAN_POINT('',(0.110710942156611,0.0230000000000014,-0.011));
#822=CARTESIAN_POINT('',(0.110710942156611,0.0230000000000014,-0.008));
#823=CARTESIAN_POINT('',(0.110710942156611,0.0230000000000014,-0.003));
#824=CARTESIAN_POINT('',(0.116710942156611,0.0230000000000014,-0.008));
#825=CARTESIAN_POINT('',(0.122710942156611,0.0230000000000014,-0.008));
#826=CARTESIAN_POINT('',(0.122710942156611,0.0230000000000014,-0.011));
#827=CARTESIAN_POINT('',(0.122710942156611,0.0230000000000014,-0.003));
#828=CARTESIAN_POINT('',(0.116710942156611,0.0230000000000014,-0.003));
#829=CARTESIAN_POINT('',(0.116710942156611,0.0130000000000014,-0.011));
#830=CARTESIAN_POINT('',(0.116710942156611,0.0130000000000014,-0.008));
#831=CARTESIAN_POINT('',(0.110710942156611,0.0130000000000014,-0.008));
#832=CARTESIAN_POINT('',(0.122710942156611,0.0130000000000014,-0.008));
#833=CARTESIAN_POINT('',(0.110710942156611,0.0130000000000014,-0.011));
#834=CARTESIAN_POINT('',(0.110710942156611,0.0130000000000014,-0.003));
#835=CARTESIAN_POINT('',(0.116710942156611,0.0130000000000014,-0.003));
#836=CARTESIAN_POINT('',(0.122710942156611,0.0130000000000014,-0.003));
#837=CARTESIAN_POINT('',(0.122710942156611,0.0130000000000014,-0.011));
#838=CARTESIAN_POINT('',(0.0915,0.033,-0.003));
#839=CARTESIAN_POINT('',(0.0149999999999915,0.0209999999999985,-0.003));
#840=CARTESIAN_POINT('',(0.0209999999999915,0.0209999999999985,-0.003));
#841=CARTESIAN_POINT('',(0.0549999999999905,0.0390000000000017,-0.003));
#842=CARTESIAN_POINT('',(0.0514999999999905,0.0390000000000017,-0.003));
#843=CARTESIAN_POINT('',(0.,0.033,-0.003));
#844=CARTESIAN_POINT('',(0.,0.,-0.003));
#845=CARTESIAN_POINT('',(0.,0.066,-0.003));
#846=CARTESIAN_POINT('',(0.0915,0.066,-0.003));
#847=CARTESIAN_POINT('',(0.183,0.066,-0.003));
#848=CARTESIAN_POINT('',(0.183,0.033,-0.003));
#849=CARTESIAN_POINT('',(0.183,1.38777878078145E-17,-0.003));
#850=CARTESIAN_POINT('',(0.0915,0.,-0.003));
#851=CARTESIAN_POINT('',(0.0449999999999887,0.051000000000002,-0.003));
#852=CARTESIAN_POINT('',(0.0479999999999888,0.051000000000002,-0.003));
#853=CARTESIAN_POINT('',(0.104999999999996,0.021,-0.003));
#854=CARTESIAN_POINT('',(0.107999999999996,0.021,-0.003));
#855=CARTESIAN_POINT('',(0.165000000000003,0.0510000000000017,-0.003));
#856=CARTESIAN_POINT('',(0.168000000000003,0.0510000000000017,-0.003));
#857=CARTESIAN_POINT('',(0.152428217623717,0.0308731286830439,-0.003));
#858=CARTESIAN_POINT('',(0.171428217623717,0.0308731286830439,-0.003));
#859=CARTESIAN_POINT('',(0.0639999999999939,0.0500000000000008,-0.003));
#860=CARTESIAN_POINT('',(0.0689999999999939,0.0500000000000008,-0.003));
#861=CARTESIAN_POINT('',(0.043999999999993,0.03,-0.003));
#862=CARTESIAN_POINT('',(0.048999999999993,0.03,-0.003));
#863=CARTESIAN_POINT('',(0.063999999999994,0.03,-0.003));
#864=CARTESIAN_POINT('',(0.068999999999994,0.03,-0.003));
#865=CARTESIAN_POINT('',(0.083999999999995,0.0300000000000003,-0.003));
#866=CARTESIAN_POINT('',(0.088999999999995,0.0300000000000003,-0.003));
#867=CARTESIAN_POINT('',(0.063999999999994,0.00999999999999987,-0.003));
#868=CARTESIAN_POINT('',(0.068999999999994,0.00999999999999987,-0.003));
#869=CARTESIAN_POINT('',(0.110710942156611,0.0250000000000014,-0.003));
#870=CARTESIAN_POINT('',(0.110710942156611,0.0270000000000014,-0.003));
#871=CARTESIAN_POINT('',(0.122710942156611,0.0250000000000014,-0.003));
#872=CARTESIAN_POINT('',(0.122710942156611,0.0270000000000014,-0.003));
#873=CARTESIAN_POINT('',(0.116710942156611,0.0270000000000014,-0.003));
#874=CARTESIAN_POINT('',(0.110710942156611,0.0110000000000014,-0.003));
#875=CARTESIAN_POINT('',(0.110710942156611,0.0090000000000014,-0.003));
#876=CARTESIAN_POINT('',(0.116710942156611,0.0090000000000014,-0.003));
#877=CARTESIAN_POINT('',(0.122710942156611,0.0090000000000014,-0.003));
#878=CARTESIAN_POINT('',(0.122710942156611,0.0110000000000014,-0.003));
#879=CARTESIAN_POINT('',(0.,0.033,-0.003));
#880=CARTESIAN_POINT('',(0.,0.033,0.));
#881=CARTESIAN_POINT('',(0.,0.,0.));
#882=CARTESIAN_POINT('',(0.,0.066,0.));
#883=CARTESIAN_POINT('',(0.,0.066,-0.003));
#884=CARTESIAN_POINT('',(0.,0.,-0.003));
#885=CARTESIAN_POINT('',(0.0915,0.,-0.003));
#886=CARTESIAN_POINT('',(0.0915,0.,0.));
#887=CARTESIAN_POINT('',(0.183,1.38777878078145E-17,0.));
#888=CARTESIAN_POINT('',(0.183,1.38777878078145E-17,-0.003));
#889=CARTESIAN_POINT('',(0.183,0.033,-0.003));
#890=CARTESIAN_POINT('',(0.183,0.033,0.));
#891=CARTESIAN_POINT('',(0.183,0.066,0.));
#892=CARTESIAN_POINT('',(0.183,0.066,-0.003));
#893=CARTESIAN_POINT('',(0.083999999999995,0.0300000000000003,-0.003));
#894=CARTESIAN_POINT('',(0.083999999999995,0.0300000000000003,0.));
#895=CARTESIAN_POINT('',(0.088999999999995,0.0300000000000003,0.));
#896=CARTESIAN_POINT('',(0.063999999999994,0.03,-0.003));
#897=CARTESIAN_POINT('',(0.063999999999994,0.03,0.));
#898=CARTESIAN_POINT('',(0.068999999999994,0.03,0.));
#899=CARTESIAN_POINT('',(0.043999999999993,0.03,-0.003));
#900=CARTESIAN_POINT('',(0.043999999999993,0.03,0.));
#901=CARTESIAN_POINT('',(0.048999999999993,0.03,0.));
#902=CARTESIAN_POINT('',(0.0639999999999939,0.0500000000000008,-0.003));
#903=CARTESIAN_POINT('',(0.0639999999999939,0.0500000000000008,0.));
#904=CARTESIAN_POINT('',(0.0689999999999939,0.0500000000000008,0.));
#905=CARTESIAN_POINT('',(0.152428217623717,0.0308731286830439,-0.003));
#906=CARTESIAN_POINT('',(0.152428217623717,0.0308731286830439,0.));
#907=CARTESIAN_POINT('',(0.171428217623717,0.0308731286830439,0.));
#908=CARTESIAN_POINT('',(0.165000000000003,0.0510000000000017,-0.003));
#909=CARTESIAN_POINT('',(0.165000000000003,0.0510000000000017,0.));
#910=CARTESIAN_POINT('',(0.168000000000003,0.0510000000000017,0.));
#911=CARTESIAN_POINT('',(0.104999999999996,0.021,-0.003));
#912=CARTESIAN_POINT('',(0.104999999999996,0.021,0.));
#913=CARTESIAN_POINT('',(0.107999999999996,0.021,0.));
#914=CARTESIAN_POINT('',(0.0449999999999887,0.051000000000002,-0.003));
#915=CARTESIAN_POINT('',(0.0449999999999887,0.051000000000002,0.));
#916=CARTESIAN_POINT('',(0.0479999999999888,0.051000000000002,0.));
#917=CARTESIAN_POINT('',(0.0915,0.066,-0.003));
#918=CARTESIAN_POINT('',(0.0915,0.066,0.));
#919=CARTESIAN_POINT('',(0.063999999999994,0.00999999999999987,-0.003));
#920=CARTESIAN_POINT('',(0.063999999999994,0.00999999999999987,0.));
#921=CARTESIAN_POINT('',(0.068999999999994,0.00999999999999987,0.));
#922=CARTESIAN_POINT('',(0.0915,0.033,0.));
#923=CARTESIAN_POINT('',(0.0549999999999905,0.0390000000000017,0.));
#924=CARTESIAN_POINT('',(0.0568499999999906,0.0390000000000017,0.));
#925=CARTESIAN_POINT('',(0.0149999999999915,0.0209999999999985,0.));
#926=CARTESIAN_POINT('',(0.0179999999999915,0.0209999999999985,0.));
#927=CARTESIAN_POINT('',(0.0549999999999905,0.0390000000000017,-0.011));
#928=CARTESIAN_POINT('',(0.0549999999999905,0.0390000000000017,-0.011));
#929=CARTESIAN_POINT('',(0.0531499999999904,0.0390000000000017,-0.011));
#930=CARTESIAN_POINT('',(0.0549999999999905,0.0390000000000017,-0.011));
#931=CARTESIAN_POINT('',(0.0549999999999905,0.0390000000000017,-0.011));
#932=CARTESIAN_POINT('',(0.0514999999999905,0.0390000000000017,-0.011));
#933=CARTESIAN_POINT('',(0.0871054710783007,0.0257500000000015,-0.011));
#934=CARTESIAN_POINT('',(0.116710942156611,0.0270000000000014,-0.011));
#935=CARTESIAN_POINT('',(0.110710942156611,0.0270000000000014,-0.011));
#936=CARTESIAN_POINT('',(0.110710942156611,0.0270000000000014,-0.011));
#937=CARTESIAN_POINT('',(0.122710942156611,0.0270000000000014,-0.011));
#938=CARTESIAN_POINT('',(0.122710942156611,0.0270000000000014,-0.011));
#939=CARTESIAN_POINT('',(0.116710942156611,0.0270000000000014,-0.011));
#940=CARTESIAN_POINT('',(0.110710942156611,0.0110000000000014,-0.011));
#941=CARTESIAN_POINT('',(0.110710942156611,0.0180000000000014,-0.008));
#942=CARTESIAN_POINT('',(0.110710942156611,0.0110000000000014,-0.011));
#943=CARTESIAN_POINT('',(0.110710942156611,0.0090000000000014,-0.011));
#944=CARTESIAN_POINT('',(0.110710942156611,0.0090000000000014,-0.011));
#945=CARTESIAN_POINT('',(0.122710942156611,0.0110000000000014,-0.011));
#946=CARTESIAN_POINT('',(0.122710942156611,0.0090000000000014,-0.011));
#947=CARTESIAN_POINT('',(0.122710942156611,0.0090000000000014,-0.011));
#948=CARTESIAN_POINT('',(0.122710942156611,0.0110000000000014,-0.011));
#949=CARTESIAN_POINT('',(0.122710942156611,0.0180000000000014,-0.008));
#950=CARTESIAN_POINT('',(0.116710942156611,0.0090000000000014,-0.011));
#951=CARTESIAN_POINT('',(0.116710942156611,0.0090000000000014,-0.011));
#952=CARTESIAN_POINT('',(0.0871054710783007,0.0257500000000015,-0.011));
#953=CARTESIAN_POINT('',(0.116710942156611,0.0180000000000014,-0.011));
#954=CARTESIAN_POINT('',(0.114860942156611,0.0180000000000014,-0.011));
#955=CARTESIAN_POINT('',(0.116710942156611,0.0180000000000014,-0.008));
#956=CARTESIAN_POINT('',(0.116710942156611,0.0180000000000014,-0.008));
#957=CARTESIAN_POINT('',(0.114860942156611,0.0180000000000014,-0.008));
#958=CARTESIAN_POINT('',(0.116710942156611,0.0180000000000014,-0.008));
#959=CARTESIAN_POINT('',(0.0149999999999915,0.0209999999999985,-0.036));
#960=CARTESIAN_POINT('',(0.0149999999999915,0.0209999999999985,-0.04));
#961=CARTESIAN_POINT('',(0.00899999999999146,0.0209999999999985,-0.04));
#962=CARTESIAN_POINT('',(0.0149999999999915,0.0209999999999985,2.000000000002E-6));
#963=CARTESIAN_POINT('',(0.0149999999999915,0.0209999999999985,-0.036));
#964=CARTESIAN_POINT('',(0.0119999999999915,0.0209999999999985,-0.036));
#965=CARTESIAN_POINT('',(0.0149999999999915,0.0209999999999985,-0.036));
#966=CARTESIAN_POINT('',(0.0149999999999915,0.0209999999999985,-0.036));
#967=CARTESIAN_POINT('',(0.0133999999999915,0.0209999999999985,-0.036));
#968=CARTESIAN_POINT('',(0.0149999999999915,0.0209999999999985,-0.04));
#969=CARTESIAN_POINT('',(0.0149999999999915,0.0209999999999985,-0.04));
#970=CARTESIAN_POINT('',(0.0133999999999915,0.0209999999999985,-0.04));
#971=CARTESIAN_POINT('',(0.0149999999999915,0.0209999999999985,-0.04));
#972=MECHANICAL_DESIGN_GEOMETRIC_PRESENTATION_REPRESENTATION('',(#583),
#973);
#973=(
GEOMETRIC_REPRESENTATION_CONTEXT(3)
GLOBAL_UNCERTAINTY_ASSIGNED_CONTEXT((#974))
GLOBAL_UNIT_ASSIGNED_CONTEXT((#977,#976,#975))
REPRESENTATION_CONTEXT('Part 1','TOP_LEVEL_ASSEMBLY_PART')
);
#974=UNCERTAINTY_MEASURE_WITH_UNIT(LENGTH_MEASURE(1.E-8),#977,
'DISTANCE_ACCURACY_VALUE','Maximum Tolerance applied to model');
#975=(
NAMED_UNIT(*)
SI_UNIT($,.STERADIAN.)
SOLID_ANGLE_UNIT()
);
#976=(
NAMED_UNIT(*)
PLANE_ANGLE_UNIT()
SI_UNIT($,.RADIAN.)
);
#977=(
LENGTH_UNIT()
NAMED_UNIT(*)
SI_UNIT($,.METRE.)
);
#978=PRODUCT_DEFINITION_SHAPE('','',#979);
#979=PRODUCT_DEFINITION('','',#981,#980);
#980=PRODUCT_DEFINITION_CONTEXT('',#987,'design');
#981=PRODUCT_DEFINITION_FORMATION_WITH_SPECIFIED_SOURCE('','',#983,
 .NOT_KNOWN.);
#982=PRODUCT_RELATED_PRODUCT_CATEGORY('','',(#983));
#983=PRODUCT('Part 1','Part 1','Part 1',(#985));
#984=PRODUCT_CATEGORY('','');
#985=PRODUCT_CONTEXT('',#987,'mechanical');
#986=APPLICATION_PROTOCOL_DEFINITION('international standard',
'ap242_managed_model_based_3d_engineering',2020,#987);
#987=APPLICATION_CONTEXT('managed model based 3d engineering');
ENDSEC;
END-ISO-10303-21;
