ISO-10303-21;
HEADER;
/* Generated by software containing ST-Developer
 * from STEP Tools, Inc. (www.steptools.com) 
 */
/* OPTION: using custom renumber hook */

FILE_DESCRIPTION(
/* description */ ('STEP AP242 Edition 2',
'CAx-IF Rec.Pracs.---Representation and Presentation of Product Manufa
cturing Information (PMI)---4.0---2014-10-13',
'CAx-IF Rec.Pracs.---3D Tessellated Geometry---0.4---2014-09-14','2;1',
'CAx-IF Rec.Pracs.---User Defined Attributes---1.5---2016-08-15'),
/* implementation_level */ '2;1');

FILE_NAME(
/* name */ 'nad_reset',
/* time_stamp */ '2026-07-10T22:07:44Z',
/* author */ (''),
/* organization */ (''),
/* preprocessor_version */ 'ST-DEVELOPER v20',
/* originating_system */ 'ONSHAPE BY PTC INC, 1.217',
/* authorisation */ '  ');

FILE_SCHEMA (('AP242_MANAGED_MODEL_BASED_3D_ENGINEERING_MIM_LF { 1 0 10303 442 3 1 4 }'));
ENDSEC;

DATA;
#10=SHAPE_REPRESENTATION_RELATIONSHIP('','',#985,#11);
#11=ADVANCED_BREP_SHAPE_REPRESENTATION('',(#983),#1574);
#12=CIRCLE('',#990,0.0075);
#13=CIRCLE('',#991,0.0075);
#14=CIRCLE('',#996,0.003);
#15=CIRCLE('',#997,0.003);
#16=CIRCLE('',#998,0.003);
#17=CIRCLE('',#999,0.005);
#18=CIRCLE('',#1001,0.005);
#19=CIRCLE('',#1002,0.005);
#20=CIRCLE('',#1003,0.005);
#21=CIRCLE('',#1005,0.00185);
#22=CIRCLE('',#1009,0.00185);
#23=CIRCLE('',#1014,0.00185);
#24=CIRCLE('',#1016,0.00185);
#25=CIRCLE('',#1026,0.005);
#26=CIRCLE('',#1028,0.005);
#27=CIRCLE('',#1030,0.005);
#28=CIRCLE('',#1043,0.003);
#29=CIRCLE('',#1046,0.003);
#30=CIRCLE('',#1049,0.003);
#31=CYLINDRICAL_SURFACE('',#989,0.0075);
#32=CYLINDRICAL_SURFACE('',#1008,0.00185);
#33=CYLINDRICAL_SURFACE('',#1015,0.00185);
#34=CYLINDRICAL_SURFACE('',#1025,0.005);
#35=CYLINDRICAL_SURFACE('',#1027,0.005);
#36=CYLINDRICAL_SURFACE('',#1029,0.005);
#37=CYLINDRICAL_SURFACE('',#1042,0.003);
#38=CYLINDRICAL_SURFACE('',#1045,0.003);
#39=CYLINDRICAL_SURFACE('',#1048,0.003);
#40=ORIENTED_EDGE('',*,*,#304,.F.);
#41=ORIENTED_EDGE('',*,*,#305,.T.);
#42=ORIENTED_EDGE('',*,*,#306,.F.);
#43=ORIENTED_EDGE('',*,*,#307,.F.);
#44=ORIENTED_EDGE('',*,*,#308,.F.);
#45=ORIENTED_EDGE('',*,*,#309,.T.);
#46=ORIENTED_EDGE('',*,*,#310,.T.);
#47=ORIENTED_EDGE('',*,*,#311,.T.);
#48=ORIENTED_EDGE('',*,*,#312,.T.);
#49=ORIENTED_EDGE('',*,*,#313,.F.);
#50=ORIENTED_EDGE('',*,*,#314,.T.);
#51=ORIENTED_EDGE('',*,*,#315,.F.);
#52=ORIENTED_EDGE('',*,*,#316,.T.);
#53=ORIENTED_EDGE('',*,*,#317,.T.);
#54=ORIENTED_EDGE('',*,*,#318,.F.);
#55=ORIENTED_EDGE('',*,*,#319,.F.);
#56=ORIENTED_EDGE('',*,*,#320,.F.);
#57=ORIENTED_EDGE('',*,*,#321,.F.);
#58=ORIENTED_EDGE('',*,*,#322,.T.);
#59=ORIENTED_EDGE('',*,*,#323,.T.);
#60=ORIENTED_EDGE('',*,*,#324,.F.);
#61=ORIENTED_EDGE('',*,*,#325,.T.);
#62=ORIENTED_EDGE('',*,*,#326,.T.);
#63=ORIENTED_EDGE('',*,*,#327,.T.);
#64=ORIENTED_EDGE('',*,*,#328,.F.);
#65=ORIENTED_EDGE('',*,*,#329,.F.);
#66=ORIENTED_EDGE('',*,*,#330,.T.);
#67=ORIENTED_EDGE('',*,*,#331,.T.);
#68=ORIENTED_EDGE('',*,*,#330,.F.);
#69=ORIENTED_EDGE('',*,*,#332,.F.);
#70=ORIENTED_EDGE('',*,*,#333,.T.);
#71=ORIENTED_EDGE('',*,*,#334,.F.);
#72=ORIENTED_EDGE('',*,*,#335,.F.);
#73=ORIENTED_EDGE('',*,*,#336,.T.);
#74=ORIENTED_EDGE('',*,*,#337,.T.);
#75=ORIENTED_EDGE('',*,*,#338,.T.);
#76=ORIENTED_EDGE('',*,*,#339,.T.);
#77=ORIENTED_EDGE('',*,*,#340,.T.);
#78=ORIENTED_EDGE('',*,*,#341,.F.);
#79=ORIENTED_EDGE('',*,*,#342,.F.);
#80=ORIENTED_EDGE('',*,*,#343,.F.);
#81=ORIENTED_EDGE('',*,*,#344,.T.);
#82=ORIENTED_EDGE('',*,*,#328,.T.);
#83=ORIENTED_EDGE('',*,*,#345,.T.);
#84=ORIENTED_EDGE('',*,*,#346,.T.);
#85=ORIENTED_EDGE('',*,*,#347,.F.);
#86=ORIENTED_EDGE('',*,*,#348,.F.);
#87=ORIENTED_EDGE('',*,*,#349,.F.);
#88=ORIENTED_EDGE('',*,*,#350,.F.);
#89=ORIENTED_EDGE('',*,*,#351,.F.);
#90=ORIENTED_EDGE('',*,*,#307,.T.);
#91=ORIENTED_EDGE('',*,*,#352,.T.);
#92=ORIENTED_EDGE('',*,*,#353,.F.);
#93=ORIENTED_EDGE('',*,*,#354,.F.);
#94=ORIENTED_EDGE('',*,*,#355,.F.);
#95=ORIENTED_EDGE('',*,*,#356,.F.);
#96=ORIENTED_EDGE('',*,*,#357,.T.);
#97=ORIENTED_EDGE('',*,*,#308,.T.);
#98=ORIENTED_EDGE('',*,*,#358,.T.);
#99=ORIENTED_EDGE('',*,*,#338,.F.);
#100=ORIENTED_EDGE('',*,*,#359,.T.);
#101=ORIENTED_EDGE('',*,*,#360,.T.);
#102=ORIENTED_EDGE('',*,*,#331,.F.);
#103=ORIENTED_EDGE('',*,*,#342,.T.);
#104=ORIENTED_EDGE('',*,*,#361,.F.);
#105=ORIENTED_EDGE('',*,*,#323,.F.);
#106=ORIENTED_EDGE('',*,*,#362,.T.);
#107=ORIENTED_EDGE('',*,*,#363,.F.);
#108=ORIENTED_EDGE('',*,*,#364,.F.);
#109=ORIENTED_EDGE('',*,*,#365,.F.);
#110=ORIENTED_EDGE('',*,*,#366,.F.);
#111=ORIENTED_EDGE('',*,*,#314,.F.);
#112=ORIENTED_EDGE('',*,*,#367,.T.);
#113=ORIENTED_EDGE('',*,*,#368,.T.);
#114=ORIENTED_EDGE('',*,*,#369,.F.);
#115=ORIENTED_EDGE('',*,*,#345,.F.);
#116=ORIENTED_EDGE('',*,*,#327,.F.);
#117=ORIENTED_EDGE('',*,*,#370,.F.);
#118=ORIENTED_EDGE('',*,*,#371,.T.);
#119=ORIENTED_EDGE('',*,*,#349,.T.);
#120=ORIENTED_EDGE('',*,*,#372,.T.);
#121=ORIENTED_EDGE('',*,*,#373,.F.);
#122=ORIENTED_EDGE('',*,*,#374,.T.);
#123=ORIENTED_EDGE('',*,*,#375,.T.);
#124=ORIENTED_EDGE('',*,*,#376,.F.);
#125=ORIENTED_EDGE('',*,*,#377,.T.);
#126=ORIENTED_EDGE('',*,*,#378,.F.);
#127=ORIENTED_EDGE('',*,*,#379,.T.);
#128=ORIENTED_EDGE('',*,*,#380,.T.);
#129=ORIENTED_EDGE('',*,*,#381,.F.);
#130=ORIENTED_EDGE('',*,*,#382,.F.);
#131=ORIENTED_EDGE('',*,*,#383,.F.);
#132=ORIENTED_EDGE('',*,*,#384,.F.);
#133=ORIENTED_EDGE('',*,*,#318,.T.);
#134=ORIENTED_EDGE('',*,*,#385,.T.);
#135=ORIENTED_EDGE('',*,*,#340,.F.);
#136=ORIENTED_EDGE('',*,*,#386,.F.);
#137=ORIENTED_EDGE('',*,*,#387,.F.);
#138=ORIENTED_EDGE('',*,*,#335,.T.);
#139=ORIENTED_EDGE('',*,*,#388,.F.);
#140=ORIENTED_EDGE('',*,*,#311,.F.);
#141=ORIENTED_EDGE('',*,*,#389,.T.);
#142=ORIENTED_EDGE('',*,*,#333,.F.);
#143=ORIENTED_EDGE('',*,*,#390,.T.);
#144=ORIENTED_EDGE('',*,*,#343,.T.);
#145=ORIENTED_EDGE('',*,*,#391,.T.);
#146=ORIENTED_EDGE('',*,*,#392,.F.);
#147=ORIENTED_EDGE('',*,*,#367,.F.);
#148=ORIENTED_EDGE('',*,*,#313,.T.);
#149=ORIENTED_EDGE('',*,*,#386,.T.);
#150=ORIENTED_EDGE('',*,*,#393,.F.);
#151=ORIENTED_EDGE('',*,*,#393,.T.);
#152=ORIENTED_EDGE('',*,*,#388,.T.);
#153=ORIENTED_EDGE('',*,*,#334,.T.);
#154=ORIENTED_EDGE('',*,*,#389,.F.);
#155=ORIENTED_EDGE('',*,*,#312,.F.);
#156=ORIENTED_EDGE('',*,*,#385,.F.);
#157=ORIENTED_EDGE('',*,*,#317,.F.);
#158=ORIENTED_EDGE('',*,*,#394,.T.);
#159=ORIENTED_EDGE('',*,*,#320,.T.);
#160=ORIENTED_EDGE('',*,*,#361,.T.);
#161=ORIENTED_EDGE('',*,*,#341,.T.);
#162=ORIENTED_EDGE('',*,*,#384,.T.);
#163=ORIENTED_EDGE('',*,*,#339,.F.);
#164=ORIENTED_EDGE('',*,*,#358,.F.);
#165=ORIENTED_EDGE('',*,*,#319,.T.);
#166=ORIENTED_EDGE('',*,*,#395,.F.);
#167=ORIENTED_EDGE('',*,*,#347,.T.);
#168=ORIENTED_EDGE('',*,*,#396,.T.);
#169=ORIENTED_EDGE('',*,*,#397,.F.);
#170=ORIENTED_EDGE('',*,*,#398,.F.);
#171=ORIENTED_EDGE('',*,*,#398,.T.);
#172=ORIENTED_EDGE('',*,*,#399,.F.);
#173=ORIENTED_EDGE('',*,*,#400,.F.);
#174=ORIENTED_EDGE('',*,*,#373,.T.);
#175=ORIENTED_EDGE('',*,*,#401,.T.);
#176=ORIENTED_EDGE('',*,*,#397,.T.);
#177=ORIENTED_EDGE('',*,*,#402,.F.);
#178=ORIENTED_EDGE('',*,*,#368,.F.);
#179=ORIENTED_EDGE('',*,*,#392,.T.);
#180=ORIENTED_EDGE('',*,*,#403,.F.);
#181=ORIENTED_EDGE('',*,*,#305,.F.);
#182=ORIENTED_EDGE('',*,*,#404,.F.);
#183=ORIENTED_EDGE('',*,*,#399,.T.);
#184=ORIENTED_EDGE('',*,*,#306,.T.);
#185=ORIENTED_EDGE('',*,*,#403,.T.);
#186=ORIENTED_EDGE('',*,*,#391,.F.);
#187=ORIENTED_EDGE('',*,*,#352,.F.);
#188=ORIENTED_EDGE('',*,*,#396,.F.);
#189=ORIENTED_EDGE('',*,*,#346,.F.);
#190=ORIENTED_EDGE('',*,*,#369,.T.);
#191=ORIENTED_EDGE('',*,*,#402,.T.);
#192=ORIENTED_EDGE('',*,*,#395,.T.);
#193=ORIENTED_EDGE('',*,*,#401,.F.);
#194=ORIENTED_EDGE('',*,*,#372,.F.);
#195=ORIENTED_EDGE('',*,*,#348,.T.);
#196=ORIENTED_EDGE('',*,*,#405,.T.);
#197=ORIENTED_EDGE('',*,*,#406,.F.);
#198=ORIENTED_EDGE('',*,*,#407,.F.);
#199=ORIENTED_EDGE('',*,*,#378,.T.);
#200=ORIENTED_EDGE('',*,*,#407,.T.);
#201=ORIENTED_EDGE('',*,*,#408,.T.);
#202=ORIENTED_EDGE('',*,*,#409,.T.);
#203=ORIENTED_EDGE('',*,*,#356,.T.);
#204=ORIENTED_EDGE('',*,*,#410,.F.);
#205=ORIENTED_EDGE('',*,*,#379,.F.);
#206=ORIENTED_EDGE('',*,*,#376,.T.);
#207=ORIENTED_EDGE('',*,*,#411,.F.);
#208=ORIENTED_EDGE('',*,*,#380,.F.);
#209=ORIENTED_EDGE('',*,*,#410,.T.);
#210=ORIENTED_EDGE('',*,*,#375,.F.);
#211=ORIENTED_EDGE('',*,*,#412,.F.);
#212=ORIENTED_EDGE('',*,*,#413,.F.);
#213=ORIENTED_EDGE('',*,*,#405,.F.);
#214=ORIENTED_EDGE('',*,*,#381,.T.);
#215=ORIENTED_EDGE('',*,*,#411,.T.);
#216=ORIENTED_EDGE('',*,*,#377,.F.);
#217=ORIENTED_EDGE('',*,*,#414,.T.);
#218=ORIENTED_EDGE('',*,*,#382,.T.);
#219=ORIENTED_EDGE('',*,*,#415,.T.);
#220=ORIENTED_EDGE('',*,*,#365,.T.);
#221=ORIENTED_EDGE('',*,*,#416,.F.);
#222=ORIENTED_EDGE('',*,*,#417,.T.);
#223=ORIENTED_EDGE('',*,*,#418,.T.);
#224=ORIENTED_EDGE('',*,*,#383,.T.);
#225=ORIENTED_EDGE('',*,*,#419,.F.);
#226=ORIENTED_EDGE('',*,*,#420,.F.);
#227=ORIENTED_EDGE('',*,*,#421,.T.);
#228=ORIENTED_EDGE('',*,*,#359,.F.);
#229=ORIENTED_EDGE('',*,*,#337,.F.);
#230=ORIENTED_EDGE('',*,*,#422,.T.);
#231=ORIENTED_EDGE('',*,*,#350,.T.);
#232=ORIENTED_EDGE('',*,*,#371,.F.);
#233=ORIENTED_EDGE('',*,*,#351,.T.);
#234=ORIENTED_EDGE('',*,*,#422,.F.);
#235=ORIENTED_EDGE('',*,*,#336,.F.);
#236=ORIENTED_EDGE('',*,*,#387,.T.);
#237=ORIENTED_EDGE('',*,*,#310,.F.);
#238=ORIENTED_EDGE('',*,*,#423,.F.);
#239=ORIENTED_EDGE('',*,*,#408,.F.);
#240=ORIENTED_EDGE('',*,*,#406,.T.);
#241=ORIENTED_EDGE('',*,*,#413,.T.);
#242=ORIENTED_EDGE('',*,*,#424,.F.);
#243=ORIENTED_EDGE('',*,*,#404,.T.);
#244=ORIENTED_EDGE('',*,*,#304,.T.);
#245=ORIENTED_EDGE('',*,*,#390,.F.);
#246=ORIENTED_EDGE('',*,*,#332,.T.);
#247=ORIENTED_EDGE('',*,*,#329,.T.);
#248=ORIENTED_EDGE('',*,*,#344,.F.);
#249=ORIENTED_EDGE('',*,*,#360,.F.);
#250=ORIENTED_EDGE('',*,*,#421,.F.);
#251=ORIENTED_EDGE('',*,*,#425,.T.);
#252=ORIENTED_EDGE('',*,*,#324,.T.);
#253=ORIENTED_EDGE('',*,*,#370,.T.);
#254=ORIENTED_EDGE('',*,*,#326,.F.);
#255=ORIENTED_EDGE('',*,*,#426,.F.);
#256=ORIENTED_EDGE('',*,*,#419,.T.);
#257=ORIENTED_EDGE('',*,*,#325,.F.);
#258=ORIENTED_EDGE('',*,*,#425,.F.);
#259=ORIENTED_EDGE('',*,*,#420,.T.);
#260=ORIENTED_EDGE('',*,*,#426,.T.);
#261=ORIENTED_EDGE('',*,*,#415,.F.);
#262=ORIENTED_EDGE('',*,*,#414,.F.);
#263=ORIENTED_EDGE('',*,*,#321,.T.);
#264=ORIENTED_EDGE('',*,*,#394,.F.);
#265=ORIENTED_EDGE('',*,*,#316,.F.);
#266=ORIENTED_EDGE('',*,*,#427,.T.);
#267=ORIENTED_EDGE('',*,*,#417,.F.);
#268=ORIENTED_EDGE('',*,*,#428,.T.);
#269=ORIENTED_EDGE('',*,*,#429,.T.);
#270=ORIENTED_EDGE('',*,*,#430,.F.);
#271=ORIENTED_EDGE('',*,*,#366,.T.);
#272=ORIENTED_EDGE('',*,*,#418,.F.);
#273=ORIENTED_EDGE('',*,*,#427,.F.);
#274=ORIENTED_EDGE('',*,*,#315,.T.);
#275=ORIENTED_EDGE('',*,*,#364,.T.);
#276=ORIENTED_EDGE('',*,*,#431,.F.);
#277=ORIENTED_EDGE('',*,*,#428,.F.);
#278=ORIENTED_EDGE('',*,*,#416,.T.);
#279=ORIENTED_EDGE('',*,*,#363,.T.);
#280=ORIENTED_EDGE('',*,*,#432,.F.);
#281=ORIENTED_EDGE('',*,*,#429,.F.);
#282=ORIENTED_EDGE('',*,*,#431,.T.);
#283=ORIENTED_EDGE('',*,*,#362,.F.);
#284=ORIENTED_EDGE('',*,*,#322,.F.);
#285=ORIENTED_EDGE('',*,*,#430,.T.);
#286=ORIENTED_EDGE('',*,*,#432,.T.);
#287=ORIENTED_EDGE('',*,*,#433,.F.);
#288=ORIENTED_EDGE('',*,*,#355,.T.);
#289=ORIENTED_EDGE('',*,*,#433,.T.);
#290=ORIENTED_EDGE('',*,*,#434,.F.);
#291=ORIENTED_EDGE('',*,*,#354,.T.);
#292=ORIENTED_EDGE('',*,*,#434,.T.);
#293=ORIENTED_EDGE('',*,*,#435,.F.);
#294=ORIENTED_EDGE('',*,*,#353,.T.);
#295=ORIENTED_EDGE('',*,*,#435,.T.);
#296=ORIENTED_EDGE('',*,*,#309,.F.);
#297=ORIENTED_EDGE('',*,*,#357,.F.);
#298=ORIENTED_EDGE('',*,*,#409,.F.);
#299=ORIENTED_EDGE('',*,*,#423,.T.);
#300=ORIENTED_EDGE('',*,*,#374,.F.);
#301=ORIENTED_EDGE('',*,*,#400,.T.);
#302=ORIENTED_EDGE('',*,*,#424,.T.);
#303=ORIENTED_EDGE('',*,*,#412,.T.);
#304=EDGE_CURVE('',#436,#437,#529,.T.);
#305=EDGE_CURVE('',#436,#438,#530,.T.);
#306=EDGE_CURVE('',#439,#438,#531,.T.);
#307=EDGE_CURVE('',#437,#439,#532,.T.);
#308=EDGE_CURVE('',#440,#441,#533,.T.);
#309=EDGE_CURVE('',#440,#442,#534,.T.);
#310=EDGE_CURVE('',#442,#443,#535,.T.);
#311=EDGE_CURVE('',#443,#444,#536,.T.);
#312=EDGE_CURVE('',#444,#445,#537,.T.);
#313=EDGE_CURVE('',#446,#445,#538,.T.);
#314=EDGE_CURVE('',#446,#447,#539,.T.);
#315=EDGE_CURVE('',#448,#447,#540,.T.);
#316=EDGE_CURVE('',#448,#449,#541,.T.);
#317=EDGE_CURVE('',#449,#450,#542,.T.);
#318=EDGE_CURVE('',#451,#450,#543,.T.);
#319=EDGE_CURVE('',#441,#451,#544,.T.);
#320=EDGE_CURVE('',#452,#453,#545,.T.);
#321=EDGE_CURVE('',#454,#452,#12,.T.);
#322=EDGE_CURVE('',#454,#455,#546,.T.);
#323=EDGE_CURVE('',#455,#453,#13,.F.);
#324=EDGE_CURVE('',#456,#457,#547,.T.);
#325=EDGE_CURVE('',#456,#458,#548,.T.);
#326=EDGE_CURVE('',#458,#459,#549,.T.);
#327=EDGE_CURVE('',#459,#460,#550,.T.);
#328=EDGE_CURVE('',#461,#460,#551,.T.);
#329=EDGE_CURVE('',#462,#461,#552,.T.);
#330=EDGE_CURVE('',#462,#463,#553,.T.);
#331=EDGE_CURVE('',#463,#457,#554,.T.);
#332=EDGE_CURVE('',#464,#462,#555,.T.);
#333=EDGE_CURVE('',#464,#465,#556,.T.);
#334=EDGE_CURVE('',#466,#465,#557,.T.);
#335=EDGE_CURVE('',#467,#466,#558,.T.);
#336=EDGE_CURVE('',#467,#468,#559,.T.);
#337=EDGE_CURVE('',#468,#469,#560,.T.);
#338=EDGE_CURVE('',#469,#470,#561,.T.);
#339=EDGE_CURVE('',#470,#471,#562,.T.);
#340=EDGE_CURVE('',#471,#472,#563,.T.);
#341=EDGE_CURVE('',#473,#472,#564,.T.);
#342=EDGE_CURVE('',#463,#473,#565,.T.);
#343=EDGE_CURVE('',#474,#475,#566,.T.);
#344=EDGE_CURVE('',#474,#461,#567,.T.);
#345=EDGE_CURVE('',#460,#476,#568,.T.);
#346=EDGE_CURVE('',#476,#477,#569,.T.);
#347=EDGE_CURVE('',#478,#477,#570,.T.);
#348=EDGE_CURVE('',#479,#478,#571,.T.);
#349=EDGE_CURVE('',#480,#479,#572,.T.);
#350=EDGE_CURVE('',#481,#480,#573,.T.);
#351=EDGE_CURVE('',#437,#481,#574,.T.);
#352=EDGE_CURVE('',#439,#475,#575,.T.);
#353=EDGE_CURVE('',#482,#482,#14,.F.);
#354=EDGE_CURVE('',#483,#483,#15,.F.);
#355=EDGE_CURVE('',#484,#484,#16,.F.);
#356=EDGE_CURVE('',#485,#486,#576,.T.);
#357=EDGE_CURVE('',#485,#440,#577,.T.);
#358=EDGE_CURVE('',#441,#470,#578,.T.);
#359=EDGE_CURVE('',#469,#487,#579,.T.);
#360=EDGE_CURVE('',#487,#457,#580,.T.);
#361=EDGE_CURVE('',#453,#473,#581,.T.);
#362=EDGE_CURVE('',#455,#488,#582,.T.);
#363=EDGE_CURVE('',#489,#488,#583,.T.);
#364=EDGE_CURVE('',#490,#489,#584,.T.);
#365=EDGE_CURVE('',#491,#490,#17,.F.);
#366=EDGE_CURVE('',#447,#491,#585,.T.);
#367=EDGE_CURVE('',#446,#492,#586,.T.);
#368=EDGE_CURVE('',#492,#493,#587,.T.);
#369=EDGE_CURVE('',#476,#493,#588,.T.);
#370=EDGE_CURVE('',#494,#459,#589,.T.);
#371=EDGE_CURVE('',#494,#480,#590,.T.);
#372=EDGE_CURVE('',#479,#495,#591,.T.);
#373=EDGE_CURVE('',#496,#495,#592,.T.);
#374=EDGE_CURVE('',#496,#497,#593,.T.);
#375=EDGE_CURVE('',#497,#498,#594,.T.);
#376=EDGE_CURVE('',#486,#498,#595,.T.);
#377=EDGE_CURVE('',#499,#499,#18,.T.);
#378=EDGE_CURVE('',#500,#501,#596,.T.);
#379=EDGE_CURVE('',#500,#502,#597,.T.);
#380=EDGE_CURVE('',#502,#503,#598,.T.);
#381=EDGE_CURVE('',#501,#503,#599,.T.);
#382=EDGE_CURVE('',#504,#504,#19,.T.);
#383=EDGE_CURVE('',#505,#505,#20,.T.);
#384=EDGE_CURVE('',#451,#471,#600,.T.);
#385=EDGE_CURVE('',#450,#472,#601,.T.);
#386=EDGE_CURVE('',#506,#506,#21,.T.);
#387=EDGE_CURVE('',#467,#443,#602,.T.);
#388=EDGE_CURVE('',#444,#466,#603,.T.);
#389=EDGE_CURVE('',#445,#465,#604,.T.);
#390=EDGE_CURVE('',#464,#474,#605,.T.);
#391=EDGE_CURVE('',#475,#507,#606,.T.);
#392=EDGE_CURVE('',#492,#507,#607,.T.);
#393=EDGE_CURVE('',#508,#508,#22,.T.);
#394=EDGE_CURVE('',#449,#452,#608,.T.);
#395=EDGE_CURVE('',#478,#509,#609,.T.);
#396=EDGE_CURVE('',#477,#510,#610,.T.);
#397=EDGE_CURVE('',#509,#510,#611,.T.);
#398=EDGE_CURVE('',#511,#511,#23,.T.);
#399=EDGE_CURVE('',#512,#512,#24,.T.);
#400=EDGE_CURVE('',#496,#513,#612,.T.);
#401=EDGE_CURVE('',#495,#509,#613,.T.);
#402=EDGE_CURVE('',#493,#510,#614,.T.);
#403=EDGE_CURVE('',#438,#507,#615,.T.);
#404=EDGE_CURVE('',#513,#436,#616,.T.);
#405=EDGE_CURVE('',#501,#514,#617,.T.);
#406=EDGE_CURVE('',#515,#514,#618,.T.);
#407=EDGE_CURVE('',#500,#515,#619,.T.);
#408=EDGE_CURVE('',#515,#516,#620,.T.);
#409=EDGE_CURVE('',#516,#485,#621,.T.);
#410=EDGE_CURVE('',#502,#486,#622,.T.);
#411=EDGE_CURVE('',#503,#498,#623,.T.);
#412=EDGE_CURVE('',#517,#497,#624,.T.);
#413=EDGE_CURVE('',#514,#517,#625,.T.);
#414=EDGE_CURVE('',#518,#518,#25,.T.);
#415=EDGE_CURVE('',#519,#519,#26,.T.);
#416=EDGE_CURVE('',#520,#490,#626,.T.);
#417=EDGE_CURVE('',#520,#521,#27,.T.);
#418=EDGE_CURVE('',#521,#491,#627,.T.);
#419=EDGE_CURVE('',#522,#494,#628,.T.);
#420=EDGE_CURVE('',#523,#522,#629,.T.);
#421=EDGE_CURVE('',#523,#487,#630,.T.);
#422=EDGE_CURVE('',#468,#481,#631,.T.);
#423=EDGE_CURVE('',#516,#442,#632,.T.);
#424=EDGE_CURVE('',#513,#517,#633,.T.);
#425=EDGE_CURVE('',#523,#456,#634,.T.);
#426=EDGE_CURVE('',#522,#458,#635,.T.);
#427=EDGE_CURVE('',#448,#521,#636,.T.);
#428=EDGE_CURVE('',#520,#524,#637,.T.);
#429=EDGE_CURVE('',#524,#525,#638,.T.);
#430=EDGE_CURVE('',#454,#525,#639,.T.);
#431=EDGE_CURVE('',#524,#489,#640,.T.);
#432=EDGE_CURVE('',#525,#488,#641,.T.);
#433=EDGE_CURVE('',#526,#526,#28,.T.);
#434=EDGE_CURVE('',#527,#527,#29,.T.);
#435=EDGE_CURVE('',#528,#528,#30,.T.);
#436=VERTEX_POINT('',#1303);
#437=VERTEX_POINT('',#1304);
#438=VERTEX_POINT('',#1306);
#439=VERTEX_POINT('',#1308);
#440=VERTEX_POINT('',#1312);
#441=VERTEX_POINT('',#1313);
#442=VERTEX_POINT('',#1315);
#443=VERTEX_POINT('',#1317);
#444=VERTEX_POINT('',#1319);
#445=VERTEX_POINT('',#1321);
#446=VERTEX_POINT('',#1323);
#447=VERTEX_POINT('',#1325);
#448=VERTEX_POINT('',#1327);
#449=VERTEX_POINT('',#1329);
#450=VERTEX_POINT('',#1331);
#451=VERTEX_POINT('',#1333);
#452=VERTEX_POINT('',#1337);
#453=VERTEX_POINT('',#1338);
#454=VERTEX_POINT('',#1340);
#455=VERTEX_POINT('',#1342);
#456=VERTEX_POINT('',#1346);
#457=VERTEX_POINT('',#1347);
#458=VERTEX_POINT('',#1349);
#459=VERTEX_POINT('',#1351);
#460=VERTEX_POINT('',#1353);
#461=VERTEX_POINT('',#1355);
#462=VERTEX_POINT('',#1357);
#463=VERTEX_POINT('',#1359);
#464=VERTEX_POINT('',#1363);
#465=VERTEX_POINT('',#1365);
#466=VERTEX_POINT('',#1367);
#467=VERTEX_POINT('',#1369);
#468=VERTEX_POINT('',#1371);
#469=VERTEX_POINT('',#1373);
#470=VERTEX_POINT('',#1375);
#471=VERTEX_POINT('',#1377);
#472=VERTEX_POINT('',#1379);
#473=VERTEX_POINT('',#1381);
#474=VERTEX_POINT('',#1385);
#475=VERTEX_POINT('',#1386);
#476=VERTEX_POINT('',#1389);
#477=VERTEX_POINT('',#1391);
#478=VERTEX_POINT('',#1393);
#479=VERTEX_POINT('',#1395);
#480=VERTEX_POINT('',#1397);
#481=VERTEX_POINT('',#1399);
#482=VERTEX_POINT('',#1404);
#483=VERTEX_POINT('',#1406);
#484=VERTEX_POINT('',#1408);
#485=VERTEX_POINT('',#1410);
#486=VERTEX_POINT('',#1411);
#487=VERTEX_POINT('',#1415);
#488=VERTEX_POINT('',#1419);
#489=VERTEX_POINT('',#1421);
#490=VERTEX_POINT('',#1423);
#491=VERTEX_POINT('',#1425);
#492=VERTEX_POINT('',#1428);
#493=VERTEX_POINT('',#1430);
#494=VERTEX_POINT('',#1433);
#495=VERTEX_POINT('',#1436);
#496=VERTEX_POINT('',#1438);
#497=VERTEX_POINT('',#1440);
#498=VERTEX_POINT('',#1442);
#499=VERTEX_POINT('',#1446);
#500=VERTEX_POINT('',#1448);
#501=VERTEX_POINT('',#1449);
#502=VERTEX_POINT('',#1451);
#503=VERTEX_POINT('',#1453);
#504=VERTEX_POINT('',#1456);
#505=VERTEX_POINT('',#1458);
#506=VERTEX_POINT('',#1463);
#507=VERTEX_POINT('',#1471);
#508=VERTEX_POINT('',#1475);
#509=VERTEX_POINT('',#1482);
#510=VERTEX_POINT('',#1484);
#511=VERTEX_POINT('',#1487);
#512=VERTEX_POINT('',#1490);
#513=VERTEX_POINT('',#1493);
#514=VERTEX_POINT('',#1503);
#515=VERTEX_POINT('',#1505);
#516=VERTEX_POINT('',#1509);
#517=VERTEX_POINT('',#1516);
#518=VERTEX_POINT('',#1520);
#519=VERTEX_POINT('',#1523);
#520=VERTEX_POINT('',#1526);
#521=VERTEX_POINT('',#1528);
#522=VERTEX_POINT('',#1532);
#523=VERTEX_POINT('',#1534);
#524=VERTEX_POINT('',#1549);
#525=VERTEX_POINT('',#1551);
#526=VERTEX_POINT('',#1561);
#527=VERTEX_POINT('',#1565);
#528=VERTEX_POINT('',#1569);
#529=LINE('',#1302,#642);
#530=LINE('',#1305,#643);
#531=LINE('',#1307,#644);
#532=LINE('',#1309,#645);
#533=LINE('',#1311,#646);
#534=LINE('',#1314,#647);
#535=LINE('',#1316,#648);
#536=LINE('',#1318,#649);
#537=LINE('',#1320,#650);
#538=LINE('',#1322,#651);
#539=LINE('',#1324,#652);
#540=LINE('',#1326,#653);
#541=LINE('',#1328,#654);
#542=LINE('',#1330,#655);
#543=LINE('',#1332,#656);
#544=LINE('',#1334,#657);
#545=LINE('',#1336,#658);
#546=LINE('',#1341,#659);
#547=LINE('',#1345,#660);
#548=LINE('',#1348,#661);
#549=LINE('',#1350,#662);
#550=LINE('',#1352,#663);
#551=LINE('',#1354,#664);
#552=LINE('',#1356,#665);
#553=LINE('',#1358,#666);
#554=LINE('',#1360,#667);
#555=LINE('',#1362,#668);
#556=LINE('',#1364,#669);
#557=LINE('',#1366,#670);
#558=LINE('',#1368,#671);
#559=LINE('',#1370,#672);
#560=LINE('',#1372,#673);
#561=LINE('',#1374,#674);
#562=LINE('',#1376,#675);
#563=LINE('',#1378,#676);
#564=LINE('',#1380,#677);
#565=LINE('',#1382,#678);
#566=LINE('',#1384,#679);
#567=LINE('',#1387,#680);
#568=LINE('',#1388,#681);
#569=LINE('',#1390,#682);
#570=LINE('',#1392,#683);
#571=LINE('',#1394,#684);
#572=LINE('',#1396,#685);
#573=LINE('',#1398,#686);
#574=LINE('',#1400,#687);
#575=LINE('',#1401,#688);
#576=LINE('',#1409,#689);
#577=LINE('',#1412,#690);
#578=LINE('',#1413,#691);
#579=LINE('',#1414,#692);
#580=LINE('',#1416,#693);
#581=LINE('',#1417,#694);
#582=LINE('',#1418,#695);
#583=LINE('',#1420,#696);
#584=LINE('',#1422,#697);
#585=LINE('',#1426,#698);
#586=LINE('',#1427,#699);
#587=LINE('',#1429,#700);
#588=LINE('',#1431,#701);
#589=LINE('',#1432,#702);
#590=LINE('',#1434,#703);
#591=LINE('',#1435,#704);
#592=LINE('',#1437,#705);
#593=LINE('',#1439,#706);
#594=LINE('',#1441,#707);
#595=LINE('',#1443,#708);
#596=LINE('',#1447,#709);
#597=LINE('',#1450,#710);
#598=LINE('',#1452,#711);
#599=LINE('',#1454,#712);
#600=LINE('',#1460,#713);
#601=LINE('',#1461,#714);
#602=LINE('',#1465,#715);
#603=LINE('',#1466,#716);
#604=LINE('',#1468,#717);
#605=LINE('',#1469,#718);
#606=LINE('',#1470,#719);
#607=LINE('',#1472,#720);
#608=LINE('',#1478,#721);
#609=LINE('',#1481,#722);
#610=LINE('',#1483,#723);
#611=LINE('',#1485,#724);
#612=LINE('',#1492,#725);
#613=LINE('',#1494,#726);
#614=LINE('',#1495,#727);
#615=LINE('',#1496,#728);
#616=LINE('',#1497,#729);
#617=LINE('',#1502,#730);
#618=LINE('',#1504,#731);
#619=LINE('',#1506,#732);
#620=LINE('',#1508,#733);
#621=LINE('',#1510,#734);
#622=LINE('',#1511,#735);
#623=LINE('',#1513,#736);
#624=LINE('',#1515,#737);
#625=LINE('',#1517,#738);
#626=LINE('',#1525,#739);
#627=LINE('',#1529,#740);
#628=LINE('',#1531,#741);
#629=LINE('',#1533,#742);
#630=LINE('',#1535,#743);
#631=LINE('',#1536,#744);
#632=LINE('',#1538,#745);
#633=LINE('',#1539,#746);
#634=LINE('',#1542,#747);
#635=LINE('',#1544,#748);
#636=LINE('',#1547,#749);
#637=LINE('',#1548,#750);
#638=LINE('',#1550,#751);
#639=LINE('',#1552,#752);
#640=LINE('',#1555,#753);
#641=LINE('',#1557,#754);
#642=VECTOR('',#1057,1.);
#643=VECTOR('',#1058,1.);
#644=VECTOR('',#1059,1.);
#645=VECTOR('',#1060,1.);
#646=VECTOR('',#1063,1.);
#647=VECTOR('',#1064,1.);
#648=VECTOR('',#1065,1.);
#649=VECTOR('',#1066,1.);
#650=VECTOR('',#1067,1.);
#651=VECTOR('',#1068,1.);
#652=VECTOR('',#1069,1.);
#653=VECTOR('',#1070,1.);
#654=VECTOR('',#1071,1.);
#655=VECTOR('',#1072,1.);
#656=VECTOR('',#1073,1.);
#657=VECTOR('',#1074,1.);
#658=VECTOR('',#1077,1.);
#659=VECTOR('',#1080,1.);
#660=VECTOR('',#1085,1.);
#661=VECTOR('',#1086,1.);
#662=VECTOR('',#1087,1.);
#663=VECTOR('',#1088,1.);
#664=VECTOR('',#1089,1.);
#665=VECTOR('',#1090,1.);
#666=VECTOR('',#1091,1.);
#667=VECTOR('',#1092,1.);
#668=VECTOR('',#1095,1.);
#669=VECTOR('',#1096,1.);
#670=VECTOR('',#1097,1.);
#671=VECTOR('',#1098,1.);
#672=VECTOR('',#1099,1.);
#673=VECTOR('',#1100,1.);
#674=VECTOR('',#1101,1.);
#675=VECTOR('',#1102,1.);
#676=VECTOR('',#1103,1.);
#677=VECTOR('',#1104,1.);
#678=VECTOR('',#1105,1.);
#679=VECTOR('',#1108,1.);
#680=VECTOR('',#1109,1.);
#681=VECTOR('',#1110,1.);
#682=VECTOR('',#1111,1.);
#683=VECTOR('',#1112,1.);
#684=VECTOR('',#1113,1.);
#685=VECTOR('',#1114,1.);
#686=VECTOR('',#1115,1.);
#687=VECTOR('',#1116,1.);
#688=VECTOR('',#1117,1.);
#689=VECTOR('',#1126,1.);
#690=VECTOR('',#1127,1.);
#691=VECTOR('',#1128,1.);
#692=VECTOR('',#1129,1.);
#693=VECTOR('',#1130,1.);
#694=VECTOR('',#1131,1.);
#695=VECTOR('',#1132,1.);
#696=VECTOR('',#1133,1.);
#697=VECTOR('',#1134,1.);
#698=VECTOR('',#1137,1.);
#699=VECTOR('',#1138,1.);
#700=VECTOR('',#1139,1.);
#701=VECTOR('',#1140,1.);
#702=VECTOR('',#1141,1.);
#703=VECTOR('',#1142,1.);
#704=VECTOR('',#1143,1.);
#705=VECTOR('',#1144,1.);
#706=VECTOR('',#1145,1.);
#707=VECTOR('',#1146,1.);
#708=VECTOR('',#1147,1.);
#709=VECTOR('',#1152,1.);
#710=VECTOR('',#1153,1.);
#711=VECTOR('',#1154,1.);
#712=VECTOR('',#1155,1.);
#713=VECTOR('',#1162,1.);
#714=VECTOR('',#1163,1.);
#715=VECTOR('',#1168,1.);
#716=VECTOR('',#1169,1.);
#717=VECTOR('',#1172,1.);
#718=VECTOR('',#1173,1.);
#719=VECTOR('',#1174,1.);
#720=VECTOR('',#1175,1.);
#721=VECTOR('',#1184,1.);
#722=VECTOR('',#1189,1.);
#723=VECTOR('',#1190,1.);
#724=VECTOR('',#1191,1.);
#725=VECTOR('',#1200,1.);
#726=VECTOR('',#1201,1.);
#727=VECTOR('',#1202,1.);
#728=VECTOR('',#1203,1.);
#729=VECTOR('',#1204,1.);
#730=VECTOR('',#1213,1.);
#731=VECTOR('',#1214,1.);
#732=VECTOR('',#1215,1.);
#733=VECTOR('',#1218,1.);
#734=VECTOR('',#1219,1.);
#735=VECTOR('',#1220,1.);
#736=VECTOR('',#1223,1.);
#737=VECTOR('',#1226,1.);
#738=VECTOR('',#1227,1.);
#739=VECTOR('',#1238,1.);
#740=VECTOR('',#1241,1.);
#741=VECTOR('',#1244,1.);
#742=VECTOR('',#1245,1.);
#743=VECTOR('',#1246,1.);
#744=VECTOR('',#1247,1.);
#745=VECTOR('',#1250,1.);
#746=VECTOR('',#1251,1.);
#747=VECTOR('',#1256,1.);
#748=VECTOR('',#1259,1.);
#749=VECTOR('',#1264,1.);
#750=VECTOR('',#1265,1.);
#751=VECTOR('',#1266,1.);
#752=VECTOR('',#1267,1.);
#753=VECTOR('',#1272,1.);
#754=VECTOR('',#1275,1.);
#755=EDGE_LOOP('',(#40,#41,#42,#43));
#756=EDGE_LOOP('',(#44,#45,#46,#47,#48,#49,#50,#51,#52,#53,#54,#55));
#757=EDGE_LOOP('',(#56,#57,#58,#59));
#758=EDGE_LOOP('',(#60,#61,#62,#63,#64,#65,#66,#67));
#759=EDGE_LOOP('',(#68,#69,#70,#71,#72,#73,#74,#75,#76,#77,#78,#79));
#760=EDGE_LOOP('',(#80,#81,#82,#83,#84,#85,#86,#87,#88,#89,#90,#91));
#761=EDGE_LOOP('',(#92));
#762=EDGE_LOOP('',(#93));
#763=EDGE_LOOP('',(#94));
#764=EDGE_LOOP('',(#95,#96,#97,#98,#99,#100,#101,#102,#103,#104,#105,#106,
#107,#108,#109,#110,#111,#112,#113,#114,#115,#116,#117,#118,#119,#120,#121,
#122,#123,#124));
#765=EDGE_LOOP('',(#125));
#766=EDGE_LOOP('',(#126,#127,#128,#129));
#767=EDGE_LOOP('',(#130));
#768=EDGE_LOOP('',(#131));
#769=EDGE_LOOP('',(#132,#133,#134,#135));
#770=EDGE_LOOP('',(#136));
#771=EDGE_LOOP('',(#137,#138,#139,#140));
#772=EDGE_LOOP('',(#141,#142,#143,#144,#145,#146,#147,#148));
#773=EDGE_LOOP('',(#149));
#774=EDGE_LOOP('',(#150));
#775=EDGE_LOOP('',(#151));
#776=EDGE_LOOP('',(#152,#153,#154,#155));
#777=EDGE_LOOP('',(#156,#157,#158,#159,#160,#161));
#778=EDGE_LOOP('',(#162,#163,#164,#165));
#779=EDGE_LOOP('',(#166,#167,#168,#169));
#780=EDGE_LOOP('',(#170));
#781=EDGE_LOOP('',(#171));
#782=EDGE_LOOP('',(#172));
#783=EDGE_LOOP('',(#173,#174,#175,#176,#177,#178,#179,#180,#181,#182));
#784=EDGE_LOOP('',(#183));
#785=EDGE_LOOP('',(#184,#185,#186,#187));
#786=EDGE_LOOP('',(#188,#189,#190,#191));
#787=EDGE_LOOP('',(#192,#193,#194,#195));
#788=EDGE_LOOP('',(#196,#197,#198,#199));
#789=EDGE_LOOP('',(#200,#201,#202,#203,#204,#205));
#790=EDGE_LOOP('',(#206,#207,#208,#209));
#791=EDGE_LOOP('',(#210,#211,#212,#213,#214,#215));
#792=EDGE_LOOP('',(#216));
#793=EDGE_LOOP('',(#217));
#794=EDGE_LOOP('',(#218));
#795=EDGE_LOOP('',(#219));
#796=EDGE_LOOP('',(#220,#221,#222,#223));
#797=EDGE_LOOP('',(#224));
#798=EDGE_LOOP('',(#225,#226,#227,#228,#229,#230,#231,#232));
#799=EDGE_LOOP('',(#233,#234,#235,#236,#237,#238,#239,#240,#241,#242,#243,
#244));
#800=EDGE_LOOP('',(#245,#246,#247,#248));
#801=EDGE_LOOP('',(#249,#250,#251,#252));
#802=EDGE_LOOP('',(#253,#254,#255,#256));
#803=EDGE_LOOP('',(#257,#258,#259,#260));
#804=EDGE_LOOP('',(#261));
#805=EDGE_LOOP('',(#262));
#806=EDGE_LOOP('',(#263,#264,#265,#266,#267,#268,#269,#270));
#807=EDGE_LOOP('',(#271,#272,#273,#274));
#808=EDGE_LOOP('',(#275,#276,#277,#278));
#809=EDGE_LOOP('',(#279,#280,#281,#282));
#810=EDGE_LOOP('',(#283,#284,#285,#286));
#811=EDGE_LOOP('',(#287));
#812=EDGE_LOOP('',(#288));
#813=EDGE_LOOP('',(#289));
#814=EDGE_LOOP('',(#290));
#815=EDGE_LOOP('',(#291));
#816=EDGE_LOOP('',(#292));
#817=EDGE_LOOP('',(#293));
#818=EDGE_LOOP('',(#294));
#819=EDGE_LOOP('',(#295));
#820=EDGE_LOOP('',(#296,#297,#298,#299));
#821=EDGE_LOOP('',(#300,#301,#302,#303));
#822=FACE_BOUND('',#755,.T.);
#823=FACE_BOUND('',#756,.T.);
#824=FACE_BOUND('',#757,.T.);
#825=FACE_BOUND('',#758,.T.);
#826=FACE_BOUND('',#759,.T.);
#827=FACE_BOUND('',#760,.T.);
#828=FACE_BOUND('',#761,.T.);
#829=FACE_BOUND('',#762,.T.);
#830=FACE_BOUND('',#763,.T.);
#831=FACE_BOUND('',#764,.T.);
#832=FACE_BOUND('',#765,.T.);
#833=FACE_BOUND('',#766,.T.);
#834=FACE_BOUND('',#767,.T.);
#835=FACE_BOUND('',#768,.T.);
#836=FACE_BOUND('',#769,.T.);
#837=FACE_BOUND('',#770,.T.);
#838=FACE_BOUND('',#771,.T.);
#839=FACE_BOUND('',#772,.T.);
#840=FACE_BOUND('',#773,.T.);
#841=FACE_BOUND('',#774,.T.);
#842=FACE_BOUND('',#775,.T.);
#843=FACE_BOUND('',#776,.T.);
#844=FACE_BOUND('',#777,.T.);
#845=FACE_BOUND('',#778,.T.);
#846=FACE_BOUND('',#779,.T.);
#847=FACE_BOUND('',#780,.T.);
#848=FACE_BOUND('',#781,.T.);
#849=FACE_BOUND('',#782,.T.);
#850=FACE_BOUND('',#783,.T.);
#851=FACE_BOUND('',#784,.T.);
#852=FACE_BOUND('',#785,.T.);
#853=FACE_BOUND('',#786,.T.);
#854=FACE_BOUND('',#787,.T.);
#855=FACE_BOUND('',#788,.T.);
#856=FACE_BOUND('',#789,.T.);
#857=FACE_BOUND('',#790,.T.);
#858=FACE_BOUND('',#791,.T.);
#859=FACE_BOUND('',#792,.T.);
#860=FACE_BOUND('',#793,.T.);
#861=FACE_BOUND('',#794,.T.);
#862=FACE_BOUND('',#795,.T.);
#863=FACE_BOUND('',#796,.T.);
#864=FACE_BOUND('',#797,.T.);
#865=FACE_BOUND('',#798,.T.);
#866=FACE_BOUND('',#799,.T.);
#867=FACE_BOUND('',#800,.T.);
#868=FACE_BOUND('',#801,.T.);
#869=FACE_BOUND('',#802,.T.);
#870=FACE_BOUND('',#803,.T.);
#871=FACE_BOUND('',#804,.T.);
#872=FACE_BOUND('',#805,.T.);
#873=FACE_BOUND('',#806,.T.);
#874=FACE_BOUND('',#807,.T.);
#875=FACE_BOUND('',#808,.T.);
#876=FACE_BOUND('',#809,.T.);
#877=FACE_BOUND('',#810,.T.);
#878=FACE_BOUND('',#811,.T.);
#879=FACE_BOUND('',#812,.T.);
#880=FACE_BOUND('',#813,.T.);
#881=FACE_BOUND('',#814,.T.);
#882=FACE_BOUND('',#815,.T.);
#883=FACE_BOUND('',#816,.T.);
#884=FACE_BOUND('',#817,.T.);
#885=FACE_BOUND('',#818,.T.);
#886=FACE_BOUND('',#819,.T.);
#887=FACE_BOUND('',#820,.T.);
#888=FACE_BOUND('',#821,.T.);
#889=PLANE('',#987);
#890=PLANE('',#988);
#891=PLANE('',#992);
#892=PLANE('',#993);
#893=PLANE('',#994);
#894=PLANE('',#995);
#895=PLANE('',#1000);
#896=PLANE('',#1004);
#897=PLANE('',#1006);
#898=PLANE('',#1007);
#899=PLANE('',#1010);
#900=PLANE('',#1011);
#901=PLANE('',#1012);
#902=PLANE('',#1013);
#903=PLANE('',#1017);
#904=PLANE('',#1018);
#905=PLANE('',#1019);
#906=PLANE('',#1020);
#907=PLANE('',#1021);
#908=PLANE('',#1022);
#909=PLANE('',#1023);
#910=PLANE('',#1024);
#911=PLANE('',#1031);
#912=PLANE('',#1032);
#913=PLANE('',#1033);
#914=PLANE('',#1034);
#915=PLANE('',#1035);
#916=PLANE('',#1036);
#917=PLANE('',#1037);
#918=PLANE('',#1038);
#919=PLANE('',#1039);
#920=PLANE('',#1040);
#921=PLANE('',#1041);
#922=PLANE('',#1044);
#923=PLANE('',#1047);
#924=PLANE('',#1050);
#925=PLANE('',#1051);
#926=PLANE('',#1052);
#927=ADVANCED_FACE('',(#822),#889,.T.);
#928=ADVANCED_FACE('',(#823),#890,.F.);
#929=ADVANCED_FACE('',(#824),#31,.T.);
#930=ADVANCED_FACE('',(#825),#891,.F.);
#931=ADVANCED_FACE('',(#826),#892,.T.);
#932=ADVANCED_FACE('',(#827),#893,.F.);
#933=ADVANCED_FACE('',(#828,#829,#830,#831),#894,.F.);
#934=ADVANCED_FACE('',(#832,#833,#834,#835),#895,.T.);
#935=ADVANCED_FACE('',(#836,#837),#896,.T.);
#936=ADVANCED_FACE('',(#838),#897,.T.);
#937=ADVANCED_FACE('',(#839),#898,.F.);
#938=ADVANCED_FACE('',(#840,#841),#32,.F.);
#939=ADVANCED_FACE('',(#842,#843),#899,.F.);
#940=ADVANCED_FACE('',(#844),#900,.T.);
#941=ADVANCED_FACE('',(#845),#901,.F.);
#942=ADVANCED_FACE('',(#846,#847),#902,.T.);
#943=ADVANCED_FACE('',(#848,#849),#33,.F.);
#944=ADVANCED_FACE('',(#850),#903,.T.);
#945=ADVANCED_FACE('',(#851,#852),#904,.F.);
#946=ADVANCED_FACE('',(#853),#905,.T.);
#947=ADVANCED_FACE('',(#854),#906,.F.);
#948=ADVANCED_FACE('',(#855),#907,.T.);
#949=ADVANCED_FACE('',(#856),#908,.F.);
#950=ADVANCED_FACE('',(#857),#909,.F.);
#951=ADVANCED_FACE('',(#858),#910,.T.);
#952=ADVANCED_FACE('',(#859,#860),#34,.F.);
#953=ADVANCED_FACE('',(#861,#862),#35,.F.);
#954=ADVANCED_FACE('',(#863,#864),#36,.F.);
#955=ADVANCED_FACE('',(#865),#911,.T.);
#956=ADVANCED_FACE('',(#866),#912,.T.);
#957=ADVANCED_FACE('',(#867),#913,.T.);
#958=ADVANCED_FACE('',(#868),#914,.T.);
#959=ADVANCED_FACE('',(#869),#915,.F.);
#960=ADVANCED_FACE('',(#870,#871),#916,.T.);
#961=ADVANCED_FACE('',(#872,#873),#917,.T.);
#962=ADVANCED_FACE('',(#874),#918,.F.);
#963=ADVANCED_FACE('',(#875),#919,.F.);
#964=ADVANCED_FACE('',(#876),#920,.F.);
#965=ADVANCED_FACE('',(#877),#921,.T.);
#966=ADVANCED_FACE('',(#878,#879),#37,.T.);
#967=ADVANCED_FACE('',(#880),#922,.T.);
#968=ADVANCED_FACE('',(#881,#882),#38,.T.);
#969=ADVANCED_FACE('',(#883),#923,.T.);
#970=ADVANCED_FACE('',(#884,#885),#39,.T.);
#971=ADVANCED_FACE('',(#886),#924,.T.);
#972=ADVANCED_FACE('',(#887),#925,.T.);
#973=ADVANCED_FACE('',(#888),#926,.T.);
#974=CLOSED_SHELL('',(#927,#928,#929,#930,#931,#932,#933,#934,#935,#936,
#937,#938,#939,#940,#941,#942,#943,#944,#945,#946,#947,#948,#949,#950,#951,
#952,#953,#954,#955,#956,#957,#958,#959,#960,#961,#962,#963,#964,#965,#966,
#967,#968,#969,#970,#971,#972,#973));
#975=STYLED_ITEM('',(#976),#983);
#976=PRESENTATION_STYLE_ASSIGNMENT((#977));
#977=SURFACE_STYLE_USAGE(.BOTH.,#978);
#978=SURFACE_SIDE_STYLE('',(#979));
#979=SURFACE_STYLE_FILL_AREA(#980);
#980=FILL_AREA_STYLE('',(#981));
#981=FILL_AREA_STYLE_COLOUR('',#982);
#982=COLOUR_RGB('',0.372549019607843,0.654901960784314,0.23921568627451);
#983=MANIFOLD_SOLID_BREP('Part 1',#974);
#984=SHAPE_DEFINITION_REPRESENTATION(#1579,#985);
#985=SHAPE_REPRESENTATION('Part 1',(#986),#1574);
#986=AXIS2_PLACEMENT_3D('',#1300,#1053,#1054);
#987=AXIS2_PLACEMENT_3D('',#1301,#1055,#1056);
#988=AXIS2_PLACEMENT_3D('',#1310,#1061,#1062);
#989=AXIS2_PLACEMENT_3D('',#1335,#1075,#1076);
#990=AXIS2_PLACEMENT_3D('',#1339,#1078,#1079);
#991=AXIS2_PLACEMENT_3D('',#1343,#1081,#1082);
#992=AXIS2_PLACEMENT_3D('',#1344,#1083,#1084);
#993=AXIS2_PLACEMENT_3D('',#1361,#1093,#1094);
#994=AXIS2_PLACEMENT_3D('',#1383,#1106,#1107);
#995=AXIS2_PLACEMENT_3D('',#1402,#1118,#1119);
#996=AXIS2_PLACEMENT_3D('',#1403,#1120,#1121);
#997=AXIS2_PLACEMENT_3D('',#1405,#1122,#1123);
#998=AXIS2_PLACEMENT_3D('',#1407,#1124,#1125);
#999=AXIS2_PLACEMENT_3D('',#1424,#1135,#1136);
#1000=AXIS2_PLACEMENT_3D('',#1444,#1148,#1149);
#1001=AXIS2_PLACEMENT_3D('',#1445,#1150,#1151);
#1002=AXIS2_PLACEMENT_3D('',#1455,#1156,#1157);
#1003=AXIS2_PLACEMENT_3D('',#1457,#1158,#1159);
#1004=AXIS2_PLACEMENT_3D('',#1459,#1160,#1161);
#1005=AXIS2_PLACEMENT_3D('',#1462,#1164,#1165);
#1006=AXIS2_PLACEMENT_3D('',#1464,#1166,#1167);
#1007=AXIS2_PLACEMENT_3D('',#1467,#1170,#1171);
#1008=AXIS2_PLACEMENT_3D('',#1473,#1176,#1177);
#1009=AXIS2_PLACEMENT_3D('',#1474,#1178,#1179);
#1010=AXIS2_PLACEMENT_3D('',#1476,#1180,#1181);
#1011=AXIS2_PLACEMENT_3D('',#1477,#1182,#1183);
#1012=AXIS2_PLACEMENT_3D('',#1479,#1185,#1186);
#1013=AXIS2_PLACEMENT_3D('',#1480,#1187,#1188);
#1014=AXIS2_PLACEMENT_3D('',#1486,#1192,#1193);
#1015=AXIS2_PLACEMENT_3D('',#1488,#1194,#1195);
#1016=AXIS2_PLACEMENT_3D('',#1489,#1196,#1197);
#1017=AXIS2_PLACEMENT_3D('',#1491,#1198,#1199);
#1018=AXIS2_PLACEMENT_3D('',#1498,#1205,#1206);
#1019=AXIS2_PLACEMENT_3D('',#1499,#1207,#1208);
#1020=AXIS2_PLACEMENT_3D('',#1500,#1209,#1210);
#1021=AXIS2_PLACEMENT_3D('',#1501,#1211,#1212);
#1022=AXIS2_PLACEMENT_3D('',#1507,#1216,#1217);
#1023=AXIS2_PLACEMENT_3D('',#1512,#1221,#1222);
#1024=AXIS2_PLACEMENT_3D('',#1514,#1224,#1225);
#1025=AXIS2_PLACEMENT_3D('',#1518,#1228,#1229);
#1026=AXIS2_PLACEMENT_3D('',#1519,#1230,#1231);
#1027=AXIS2_PLACEMENT_3D('',#1521,#1232,#1233);
#1028=AXIS2_PLACEMENT_3D('',#1522,#1234,#1235);
#1029=AXIS2_PLACEMENT_3D('',#1524,#1236,#1237);
#1030=AXIS2_PLACEMENT_3D('',#1527,#1239,#1240);
#1031=AXIS2_PLACEMENT_3D('',#1530,#1242,#1243);
#1032=AXIS2_PLACEMENT_3D('',#1537,#1248,#1249);
#1033=AXIS2_PLACEMENT_3D('',#1540,#1252,#1253);
#1034=AXIS2_PLACEMENT_3D('',#1541,#1254,#1255);
#1035=AXIS2_PLACEMENT_3D('',#1543,#1257,#1258);
#1036=AXIS2_PLACEMENT_3D('',#1545,#1260,#1261);
#1037=AXIS2_PLACEMENT_3D('',#1546,#1262,#1263);
#1038=AXIS2_PLACEMENT_3D('',#1553,#1268,#1269);
#1039=AXIS2_PLACEMENT_3D('',#1554,#1270,#1271);
#1040=AXIS2_PLACEMENT_3D('',#1556,#1273,#1274);
#1041=AXIS2_PLACEMENT_3D('',#1558,#1276,#1277);
#1042=AXIS2_PLACEMENT_3D('',#1559,#1278,#1279);
#1043=AXIS2_PLACEMENT_3D('',#1560,#1280,#1281);
#1044=AXIS2_PLACEMENT_3D('',#1562,#1282,#1283);
#1045=AXIS2_PLACEMENT_3D('',#1563,#1284,#1285);
#1046=AXIS2_PLACEMENT_3D('',#1564,#1286,#1287);
#1047=AXIS2_PLACEMENT_3D('',#1566,#1288,#1289);
#1048=AXIS2_PLACEMENT_3D('',#1567,#1290,#1291);
#1049=AXIS2_PLACEMENT_3D('',#1568,#1292,#1293);
#1050=AXIS2_PLACEMENT_3D('',#1570,#1294,#1295);
#1051=AXIS2_PLACEMENT_3D('',#1571,#1296,#1297);
#1052=AXIS2_PLACEMENT_3D('',#1572,#1298,#1299);
#1053=DIRECTION('',(0.,0.,1.));
#1054=DIRECTION('',(1.,0.,0.));
#1055=DIRECTION('',(0.,1.,0.));
#1056=DIRECTION('',(0.,0.,1.));
#1057=DIRECTION('',(-1.,0.,0.));
#1058=DIRECTION('',(0.,0.,-1.));
#1059=DIRECTION('',(1.,0.,0.));
#1060=DIRECTION('',(0.,0.,-1.));
#1061=DIRECTION('',(1.,6.93889390390723E-17,0.));
#1062=DIRECTION('',(-6.93889390390723E-17,1.,0.));
#1063=DIRECTION('',(0.,-1.,0.));
#1064=DIRECTION('',(0.,0.,-1.));
#1065=DIRECTION('',(-6.93889390390723E-17,1.,0.));
#1066=DIRECTION('',(0.,0.,-1.));
#1067=DIRECTION('',(6.93889390390723E-17,-1.,0.));
#1068=DIRECTION('',(0.,0.,-1.));
#1069=DIRECTION('',(0.,1.,0.));
#1070=DIRECTION('',(0.,0.,1.));
#1071=DIRECTION('',(0.,1.,0.));
#1072=DIRECTION('',(0.,0.,-1.));
#1073=DIRECTION('',(6.93889390390723E-17,-1.,0.));
#1074=DIRECTION('',(0.,0.,-1.));
#1075=DIRECTION('',(0.,0.,1.));
#1076=DIRECTION('',(1.,0.,0.));
#1077=DIRECTION('',(0.,0.,1.));
#1078=DIRECTION('',(0.,0.,-1.));
#1079=DIRECTION('',(-1.,0.,0.));
#1080=DIRECTION('',(0.,0.,1.));
#1081=DIRECTION('',(0.,0.,1.));
#1082=DIRECTION('',(1.,0.,0.));
#1083=DIRECTION('',(0.,-1.,0.));
#1084=DIRECTION('',(0.,0.,-1.));
#1085=DIRECTION('',(0.,0.,1.));
#1086=DIRECTION('',(1.,0.,0.));
#1087=DIRECTION('',(0.,0.,1.));
#1088=DIRECTION('',(1.,0.,0.));
#1089=DIRECTION('',(0.,0.,1.));
#1090=DIRECTION('',(1.,0.,0.));
#1091=DIRECTION('',(0.,0.,1.));
#1092=DIRECTION('',(1.,0.,0.));
#1093=DIRECTION('',(1.,6.93889390390723E-17,0.));
#1094=DIRECTION('',(-6.93889390390723E-17,1.,0.));
#1095=DIRECTION('',(0.,1.,0.));
#1096=DIRECTION('',(0.,0.,-1.));
#1097=DIRECTION('',(6.93889390390723E-17,-1.,0.));
#1098=DIRECTION('',(0.,0.,-1.));
#1099=DIRECTION('',(-2.16840434497101E-16,-1.,0.));
#1100=DIRECTION('',(0.,0.,1.));
#1101=DIRECTION('',(0.,-1.,0.));
#1102=DIRECTION('',(0.,0.,-1.));
#1103=DIRECTION('',(6.93889390390723E-17,-1.,0.));
#1104=DIRECTION('',(0.,0.,-1.));
#1105=DIRECTION('',(0.,1.,0.));
#1106=DIRECTION('',(1.,0.,0.));
#1107=DIRECTION('',(0.,0.,-1.));
#1108=DIRECTION('',(0.,0.,-1.));
#1109=DIRECTION('',(0.,1.,0.));
#1110=DIRECTION('',(0.,1.,0.));
#1111=DIRECTION('',(0.,0.,-1.));
#1112=DIRECTION('',(0.,-1.,0.));
#1113=DIRECTION('',(0.,0.,-1.));
#1114=DIRECTION('',(0.,-1.,0.));
#1115=DIRECTION('',(0.,0.,1.));
#1116=DIRECTION('',(0.,-1.,0.));
#1117=DIRECTION('',(0.,-1.,0.));
#1118=DIRECTION('',(0.,0.,1.));
#1119=DIRECTION('',(1.,0.,0.));
#1120=DIRECTION('',(0.,0.,1.));
#1121=DIRECTION('',(1.,0.,0.));
#1122=DIRECTION('',(0.,0.,1.));
#1123=DIRECTION('',(1.,0.,0.));
#1124=DIRECTION('',(0.,0.,1.));
#1125=DIRECTION('',(1.,0.,0.));
#1126=DIRECTION('',(0.,-1.,0.));
#1127=DIRECTION('',(1.,0.,0.));
#1128=DIRECTION('',(1.,0.,0.));
#1129=DIRECTION('',(1.,0.,0.));
#1130=DIRECTION('',(0.,-1.,0.));
#1131=DIRECTION('',(1.,0.,0.));
#1132=DIRECTION('',(-1.,0.,0.));
#1133=DIRECTION('',(0.,1.,0.));
#1134=DIRECTION('',(-1.,0.,0.));
#1135=DIRECTION('',(0.,0.,1.));
#1136=DIRECTION('',(1.,0.,0.));
#1137=DIRECTION('',(-1.,0.,0.));
#1138=DIRECTION('',(1.,0.,0.));
#1139=DIRECTION('',(0.,1.,0.));
#1140=DIRECTION('',(1.,0.,0.));
#1141=DIRECTION('',(0.,-1.,0.));
#1142=DIRECTION('',(1.,0.,0.));
#1143=DIRECTION('',(1.,0.,0.));
#1144=DIRECTION('',(0.,-1.,0.));
#1145=DIRECTION('',(1.,0.,0.));
#1146=DIRECTION('',(0.,-1.,0.));
#1147=DIRECTION('',(1.,0.,0.));
#1148=DIRECTION('',(0.,0.,1.));
#1149=DIRECTION('',(1.,0.,0.));
#1150=DIRECTION('',(0.,0.,-1.));
#1151=DIRECTION('',(1.,0.,0.));
#1152=DIRECTION('',(1.,3.90661587083204E-16,0.));
#1153=DIRECTION('',(0.,-1.,0.));
#1154=DIRECTION('',(1.,0.,0.));
#1155=DIRECTION('',(0.,-1.,0.));
#1156=DIRECTION('',(0.,0.,1.));
#1157=DIRECTION('',(1.,0.,0.));
#1158=DIRECTION('',(0.,0.,1.));
#1159=DIRECTION('',(1.,0.,0.));
#1160=DIRECTION('',(0.,0.,1.));
#1161=DIRECTION('',(1.,0.,0.));
#1162=DIRECTION('',(1.,0.,0.));
#1163=DIRECTION('',(1.,0.,0.));
#1164=DIRECTION('',(0.,0.,1.));
#1165=DIRECTION('',(1.,0.,0.));
#1166=DIRECTION('',(0.,1.,0.));
#1167=DIRECTION('',(0.,0.,1.));
#1168=DIRECTION('',(-1.,0.,0.));
#1169=DIRECTION('',(1.,0.,0.));
#1170=DIRECTION('',(0.,1.,0.));
#1171=DIRECTION('',(0.,0.,1.));
#1172=DIRECTION('',(1.,0.,0.));
#1173=DIRECTION('',(1.,0.,0.));
#1174=DIRECTION('',(1.,0.,0.));
#1175=DIRECTION('',(0.,0.,-1.));
#1176=DIRECTION('',(0.,0.,-1.));
#1177=DIRECTION('',(-1.,0.,0.));
#1178=DIRECTION('',(0.,0.,1.));
#1179=DIRECTION('',(1.,0.,0.));
#1180=DIRECTION('',(0.,0.,1.));
#1181=DIRECTION('',(1.,0.,0.));
#1182=DIRECTION('',(0.,1.,0.));
#1183=DIRECTION('',(0.,0.,1.));
#1184=DIRECTION('',(-1.,0.,0.));
#1185=DIRECTION('',(0.,1.,0.));
#1186=DIRECTION('',(0.,0.,1.));
#1187=DIRECTION('',(0.,0.,1.));
#1188=DIRECTION('',(1.,0.,0.));
#1189=DIRECTION('',(1.,0.,0.));
#1190=DIRECTION('',(1.,0.,0.));
#1191=DIRECTION('',(0.,-1.,0.));
#1192=DIRECTION('',(0.,0.,1.));
#1193=DIRECTION('',(1.,0.,0.));
#1194=DIRECTION('',(0.,0.,-1.));
#1195=DIRECTION('',(-1.,0.,0.));
#1196=DIRECTION('',(0.,0.,1.));
#1197=DIRECTION('',(1.,0.,0.));
#1198=DIRECTION('',(1.,0.,0.));
#1199=DIRECTION('',(0.,0.,-1.));
#1200=DIRECTION('',(0.,0.,-1.));
#1201=DIRECTION('',(0.,0.,-1.));
#1202=DIRECTION('',(0.,0.,-1.));
#1203=DIRECTION('',(0.,-1.,0.));
#1204=DIRECTION('',(0.,1.,0.));
#1205=DIRECTION('',(0.,0.,1.));
#1206=DIRECTION('',(1.,0.,0.));
#1207=DIRECTION('',(0.,1.,0.));
#1208=DIRECTION('',(0.,0.,1.));
#1209=DIRECTION('',(0.,1.,0.));
#1210=DIRECTION('',(0.,0.,1.));
#1211=DIRECTION('',(-3.90661587083204E-16,1.,0.));
#1212=DIRECTION('',(-1.,-3.90661587083204E-16,0.));
#1213=DIRECTION('',(0.,0.,-1.));
#1214=DIRECTION('',(1.,0.,0.));
#1215=DIRECTION('',(0.,0.,-1.));
#1216=DIRECTION('',(1.,0.,0.));
#1217=DIRECTION('',(0.,0.,-1.));
#1218=DIRECTION('',(0.,-1.,0.));
#1219=DIRECTION('',(0.,0.,1.));
#1220=DIRECTION('',(0.,0.,-1.));
#1221=DIRECTION('',(0.,1.,0.));
#1222=DIRECTION('',(0.,0.,1.));
#1223=DIRECTION('',(0.,0.,-1.));
#1224=DIRECTION('',(1.,0.,0.));
#1225=DIRECTION('',(0.,0.,-1.));
#1226=DIRECTION('',(0.,0.,1.));
#1227=DIRECTION('',(0.,-1.,0.));
#1228=DIRECTION('',(0.,0.,1.));
#1229=DIRECTION('',(1.,0.,0.));
#1230=DIRECTION('',(0.,0.,-1.));
#1231=DIRECTION('',(-1.,0.,0.));
#1232=DIRECTION('',(0.,0.,1.));
#1233=DIRECTION('',(1.,0.,0.));
#1234=DIRECTION('',(0.,0.,-1.));
#1235=DIRECTION('',(-1.,0.,0.));
#1236=DIRECTION('',(0.,0.,1.));
#1237=DIRECTION('',(1.,0.,0.));
#1238=DIRECTION('',(0.,0.,1.));
#1239=DIRECTION('',(0.,0.,-1.));
#1240=DIRECTION('',(-1.,0.,0.));
#1241=DIRECTION('',(0.,0.,1.));
#1242=DIRECTION('',(0.,-1.,0.));
#1243=DIRECTION('',(0.,0.,-1.));
#1244=DIRECTION('',(0.,0.,1.));
#1245=DIRECTION('',(1.,0.,0.));
#1246=DIRECTION('',(0.,0.,1.));
#1247=DIRECTION('',(1.,0.,0.));
#1248=DIRECTION('',(0.,0.,-1.));
#1249=DIRECTION('',(1.,0.,0.));
#1250=DIRECTION('',(1.,0.,0.));
#1251=DIRECTION('',(1.,0.,0.));
#1252=DIRECTION('',(0.,0.,-1.));
#1253=DIRECTION('',(1.,0.,0.));
#1254=DIRECTION('',(-1.,0.,0.));
#1255=DIRECTION('',(0.,0.,1.));
#1256=DIRECTION('',(0.,-1.,0.));
#1257=DIRECTION('',(-1.,0.,0.));
#1258=DIRECTION('',(0.,0.,1.));
#1259=DIRECTION('',(0.,-1.,0.));
#1260=DIRECTION('',(0.,0.,-1.));
#1261=DIRECTION('',(1.,0.,0.));
#1262=DIRECTION('',(0.,0.,-1.));
#1263=DIRECTION('',(1.,0.,0.));
#1264=DIRECTION('',(-1.,0.,0.));
#1265=DIRECTION('',(-1.,0.,0.));
#1266=DIRECTION('',(0.,1.,0.));
#1267=DIRECTION('',(-1.,0.,0.));
#1268=DIRECTION('',(0.,1.,0.));
#1269=DIRECTION('',(0.,0.,1.));
#1270=DIRECTION('',(0.,1.,0.));
#1271=DIRECTION('',(0.,0.,1.));
#1272=DIRECTION('',(0.,0.,1.));
#1273=DIRECTION('',(1.,0.,0.));
#1274=DIRECTION('',(0.,0.,-1.));
#1275=DIRECTION('',(0.,0.,1.));
#1276=DIRECTION('',(0.,1.,0.));
#1277=DIRECTION('',(0.,0.,1.));
#1278=DIRECTION('',(0.,0.,1.));
#1279=DIRECTION('',(1.,0.,0.));
#1280=DIRECTION('',(0.,0.,-1.));
#1281=DIRECTION('',(-1.,0.,0.));
#1282=DIRECTION('',(0.,0.,-1.));
#1283=DIRECTION('',(1.,0.,0.));
#1284=DIRECTION('',(0.,0.,1.));
#1285=DIRECTION('',(1.,0.,0.));
#1286=DIRECTION('',(0.,0.,-1.));
#1287=DIRECTION('',(-1.,0.,0.));
#1288=DIRECTION('',(0.,0.,-1.));
#1289=DIRECTION('',(1.,0.,0.));
#1290=DIRECTION('',(0.,0.,1.));
#1291=DIRECTION('',(1.,0.,0.));
#1292=DIRECTION('',(0.,0.,-1.));
#1293=DIRECTION('',(-1.,0.,0.));
#1294=DIRECTION('',(0.,0.,-1.));
#1295=DIRECTION('',(1.,0.,0.));
#1296=DIRECTION('',(0.,-1.,0.));
#1297=DIRECTION('',(0.,0.,-1.));
#1298=DIRECTION('',(0.,-1.,0.));
#1299=DIRECTION('',(0.,0.,-1.));
#1300=CARTESIAN_POINT('',(0.,0.,0.));
#1301=CARTESIAN_POINT('',(-0.000104978797025977,0.0125,0.003));
#1302=CARTESIAN_POINT('',(-0.000104978797025977,0.0125,0.007));
#1303=CARTESIAN_POINT('',(0.101895021202974,0.0125,0.007));
#1304=CARTESIAN_POINT('',(0.093895021202974,0.0125,0.007));
#1305=CARTESIAN_POINT('',(0.101895021202974,0.0125,0.003));
#1306=CARTESIAN_POINT('',(0.101895021202974,0.0125,0.));
#1307=CARTESIAN_POINT('',(0.097895021202974,0.0125,0.));
#1308=CARTESIAN_POINT('',(0.093895021202974,0.0125,0.));
#1309=CARTESIAN_POINT('',(0.093895021202974,0.0125,0.003));
#1310=CARTESIAN_POINT('',(-0.00410497879702598,0.,0.003));
#1311=CARTESIAN_POINT('',(-0.00410497879702598,0.009,0.01));
#1312=CARTESIAN_POINT('',(-0.00410497879702598,0.01195,0.01));
#1313=CARTESIAN_POINT('',(-0.00410497879702598,0.0055,0.01));
#1314=CARTESIAN_POINT('',(-0.00410497879702598,0.01195,0.003));
#1315=CARTESIAN_POINT('',(-0.00410497879702598,0.01195,0.007));
#1316=CARTESIAN_POINT('',(-0.00410497879702598,0.,0.007));
#1317=CARTESIAN_POINT('',(-0.00410497879702598,0.0125,0.007));
#1318=CARTESIAN_POINT('',(-0.00410497879702598,0.0125,0.003));
#1319=CARTESIAN_POINT('',(-0.00410497879702598,0.0125,0.));
#1320=CARTESIAN_POINT('',(-0.00410497879702598,0.,0.));
#1321=CARTESIAN_POINT('',(-0.00410497879702598,-0.0125,0.));
#1322=CARTESIAN_POINT('',(-0.00410497879702598,-0.0125,0.003));
#1323=CARTESIAN_POINT('',(-0.00410497879702598,-0.0125,0.01));
#1324=CARTESIAN_POINT('',(-0.00410497879702598,-0.009,0.01));
#1325=CARTESIAN_POINT('',(-0.00410497879702598,-0.009,0.01));
#1326=CARTESIAN_POINT('',(-0.00410497879702598,-0.009,0.008));
#1327=CARTESIAN_POINT('',(-0.00410497879702598,-0.009,0.008));
#1328=CARTESIAN_POINT('',(-0.00410497879702598,-0.00725,0.008));
#1329=CARTESIAN_POINT('',(-0.00410497879702598,-0.0055,0.008));
#1330=CARTESIAN_POINT('',(-0.00410497879702598,-0.0055,0.01));
#1331=CARTESIAN_POINT('',(-0.00410497879702598,-0.0055,0.003));
#1332=CARTESIAN_POINT('',(-0.00410497879702598,0.,0.003));
#1333=CARTESIAN_POINT('',(-0.00410497879702598,0.0055,0.003));
#1334=CARTESIAN_POINT('',(-0.00410497879702598,0.0055,0.01));
#1335=CARTESIAN_POINT('',(-0.02,-1.53080849893419E-19,0.008));
#1336=CARTESIAN_POINT('',(-0.0149009804864072,-0.0055,0.008));
#1337=CARTESIAN_POINT('',(-0.0149009804864072,-0.0055,0.008));
#1338=CARTESIAN_POINT('',(-0.0149009804864072,-0.0055,0.01));
#1339=CARTESIAN_POINT('',(-0.02,-1.53080849893419E-19,0.008));
#1340=CARTESIAN_POINT('',(-0.0250990195135928,-0.0055,0.008));
#1341=CARTESIAN_POINT('',(-0.0250990195135928,-0.0055,0.008));
#1342=CARTESIAN_POINT('',(-0.0250990195135928,-0.0055,0.01));
#1343=CARTESIAN_POINT('',(-0.02,-1.53080849893419E-19,0.01));
#1344=CARTESIAN_POINT('',(0.048895021202974,-0.0085,0.007));
#1345=CARTESIAN_POINT('',(0.0125,-0.0085,0.008));
#1346=CARTESIAN_POINT('',(0.0125,-0.0085,0.008));
#1347=CARTESIAN_POINT('',(0.0125,-0.0085,0.01));
#1348=CARTESIAN_POINT('',(0.02,-0.0085,0.008));
#1349=CARTESIAN_POINT('',(0.0275,-0.0085,0.008));
#1350=CARTESIAN_POINT('',(0.0275,-0.0085,0.008));
#1351=CARTESIAN_POINT('',(0.0275,-0.0085,0.01));
#1352=CARTESIAN_POINT('',(0.048895021202974,-0.0085,0.01));
#1353=CARTESIAN_POINT('',(0.093895021202974,-0.0085,0.01));
#1354=CARTESIAN_POINT('',(0.093895021202974,-0.0085,0.007));
#1355=CARTESIAN_POINT('',(0.093895021202974,-0.0085,0.007));
#1356=CARTESIAN_POINT('',(0.048895021202974,-0.0085,0.007));
#1357=CARTESIAN_POINT('',(0.00389502120297402,-0.0085,0.007));
#1358=CARTESIAN_POINT('',(0.00389502120297402,-0.0085,0.007));
#1359=CARTESIAN_POINT('',(0.00389502120297402,-0.0085,0.01));
#1360=CARTESIAN_POINT('',(0.048895021202974,-0.0085,0.01));
#1361=CARTESIAN_POINT('',(0.00389502120297402,0.,0.003));
#1362=CARTESIAN_POINT('',(0.00389502120297402,-0.0105,0.007));
#1363=CARTESIAN_POINT('',(0.00389502120297402,-0.0125,0.007));
#1364=CARTESIAN_POINT('',(0.00389502120297402,-0.0125,0.003));
#1365=CARTESIAN_POINT('',(0.00389502120297402,-0.0125,0.));
#1366=CARTESIAN_POINT('',(0.00389502120297402,0.,0.));
#1367=CARTESIAN_POINT('',(0.00389502120297402,0.0125,0.));
#1368=CARTESIAN_POINT('',(0.00389502120297402,0.0125,0.003));
#1369=CARTESIAN_POINT('',(0.00389502120297402,0.0125,0.007));
#1370=CARTESIAN_POINT('',(0.00389502120297402,0.0105,0.007));
#1371=CARTESIAN_POINT('',(0.00389502120297402,0.0085,0.007));
#1372=CARTESIAN_POINT('',(0.00389502120297402,0.0085,0.007));
#1373=CARTESIAN_POINT('',(0.00389502120297402,0.0085,0.01));
#1374=CARTESIAN_POINT('',(0.00389502120297402,0.009,0.01));
#1375=CARTESIAN_POINT('',(0.00389502120297402,0.0055,0.01));
#1376=CARTESIAN_POINT('',(0.00389502120297402,0.0055,0.01));
#1377=CARTESIAN_POINT('',(0.00389502120297402,0.0055,0.003));
#1378=CARTESIAN_POINT('',(0.00389502120297402,0.,0.003));
#1379=CARTESIAN_POINT('',(0.00389502120297402,-0.0055,0.003));
#1380=CARTESIAN_POINT('',(0.00389502120297402,-0.0055,0.01));
#1381=CARTESIAN_POINT('',(0.00389502120297402,-0.0055,0.01));
#1382=CARTESIAN_POINT('',(0.00389502120297402,-0.009,0.01));
#1383=CARTESIAN_POINT('',(0.093895021202974,0.,0.003));
#1384=CARTESIAN_POINT('',(0.093895021202974,-0.0125,0.003));
#1385=CARTESIAN_POINT('',(0.093895021202974,-0.0125,0.007));
#1386=CARTESIAN_POINT('',(0.093895021202974,-0.0125,0.));
#1387=CARTESIAN_POINT('',(0.093895021202974,-0.0105,0.007));
#1388=CARTESIAN_POINT('',(0.093895021202974,-0.009,0.01));
#1389=CARTESIAN_POINT('',(0.093895021202974,-0.0055,0.01));
#1390=CARTESIAN_POINT('',(0.093895021202974,-0.0055,0.01));
#1391=CARTESIAN_POINT('',(0.093895021202974,-0.0055,0.003));
#1392=CARTESIAN_POINT('',(0.093895021202974,0.,0.003));
#1393=CARTESIAN_POINT('',(0.093895021202974,0.0055,0.003));
#1394=CARTESIAN_POINT('',(0.093895021202974,0.0055,0.01));
#1395=CARTESIAN_POINT('',(0.093895021202974,0.0055,0.01));
#1396=CARTESIAN_POINT('',(0.093895021202974,0.009,0.01));
#1397=CARTESIAN_POINT('',(0.093895021202974,0.0085,0.01));
#1398=CARTESIAN_POINT('',(0.093895021202974,0.0085,0.007));
#1399=CARTESIAN_POINT('',(0.093895021202974,0.0085,0.007));
#1400=CARTESIAN_POINT('',(0.093895021202974,0.0105,0.007));
#1401=CARTESIAN_POINT('',(0.093895021202974,0.,0.));
#1402=CARTESIAN_POINT('',(0.0282500000000115,-0.00375000000000016,0.01));
#1403=CARTESIAN_POINT('',(-0.0319999999999992,0.0085,0.01));
#1404=CARTESIAN_POINT('',(-0.0289999999999992,0.0085,0.01));
#1405=CARTESIAN_POINT('',(0.0765000000000222,-0.0160000000000004,0.01));
#1406=CARTESIAN_POINT('',(0.0795000000000222,-0.0160000000000004,0.01));
#1407=CARTESIAN_POINT('',(-0.0259999999999856,-0.0160000000000004,0.01));
#1408=CARTESIAN_POINT('',(-0.0229999999999856,-0.0160000000000004,0.01));
#1409=CARTESIAN_POINT('',(-0.0649999999999992,-0.0037500000000002,0.01));
#1410=CARTESIAN_POINT('',(-0.0649999999999992,0.01195,0.01));
#1411=CARTESIAN_POINT('',(-0.0649999999999992,-0.0230000000000004,0.01));
#1412=CARTESIAN_POINT('',(0.0282500000000115,0.01195,0.01));
#1413=CARTESIAN_POINT('',(-0.000104978797025977,0.0055,0.01));
#1414=CARTESIAN_POINT('',(0.048895021202974,0.0085,0.01));
#1415=CARTESIAN_POINT('',(0.0125,0.0085,0.01));
#1416=CARTESIAN_POINT('',(0.0125,-0.00425,0.01));
#1417=CARTESIAN_POINT('',(-0.000104978797025977,-0.0055,0.01));
#1418=CARTESIAN_POINT('',(-0.0421019991553094,-0.0055,0.01));
#1419=CARTESIAN_POINT('',(-0.059104978797026,-0.0055,0.01));
#1420=CARTESIAN_POINT('',(-0.059104978797026,-0.00725,0.01));
#1421=CARTESIAN_POINT('',(-0.059104978797026,-0.009,0.01));
#1422=CARTESIAN_POINT('',(-0.0530524893985057,-0.009,0.01));
#1423=CARTESIAN_POINT('',(-0.0469999999999853,-0.009,0.01));
#1424=CARTESIAN_POINT('',(-0.0429999999999856,-0.0120000000000004,0.01));
#1425=CARTESIAN_POINT('',(-0.0389999999999859,-0.009,0.01));
#1426=CARTESIAN_POINT('',(-0.021552489398506,-0.009,0.01));
#1427=CARTESIAN_POINT('',(-0.000104978797025977,-0.0125,0.01));
#1428=CARTESIAN_POINT('',(0.101895021202974,-0.0125,0.01));
#1429=CARTESIAN_POINT('',(0.101895021202974,-0.009,0.01));
#1430=CARTESIAN_POINT('',(0.101895021202974,-0.0055,0.01));
#1431=CARTESIAN_POINT('',(0.097895021202974,-0.0055,0.01));
#1432=CARTESIAN_POINT('',(0.0275,0.00425,0.01));
#1433=CARTESIAN_POINT('',(0.0275,0.0085,0.01));
#1434=CARTESIAN_POINT('',(0.048895021202974,0.0085,0.01));
#1435=CARTESIAN_POINT('',(0.097895021202974,0.0055,0.01));
#1436=CARTESIAN_POINT('',(0.101895021202974,0.0055,0.01));
#1437=CARTESIAN_POINT('',(0.101895021202974,0.009,0.01));
#1438=CARTESIAN_POINT('',(0.101895021202974,0.01195,0.01));
#1439=CARTESIAN_POINT('',(0.0282500000000115,0.01195,0.01));
#1440=CARTESIAN_POINT('',(0.121500000000022,0.01195,0.01));
#1441=CARTESIAN_POINT('',(0.121500000000022,-0.00375000000000016,0.01));
#1442=CARTESIAN_POINT('',(0.121500000000022,-0.0230000000000004,0.01));
#1443=CARTESIAN_POINT('',(0.0282500000000115,-0.0230000000000004,0.01));
#1444=CARTESIAN_POINT('',(0.0282500000000115,-0.00375000000000016,0.013));
#1445=CARTESIAN_POINT('',(-0.02,3.06161699786838E-19,0.013));
#1446=CARTESIAN_POINT('',(-0.015,3.06161699786838E-19,0.013));
#1447=CARTESIAN_POINT('',(0.0282500000000115,0.0155,0.013));
#1448=CARTESIAN_POINT('',(-0.0649999999999992,0.0155,0.013));
#1449=CARTESIAN_POINT('',(0.121500000000022,0.0155,0.013));
#1450=CARTESIAN_POINT('',(-0.0649999999999992,-0.0037500000000002,0.013));
#1451=CARTESIAN_POINT('',(-0.0649999999999992,-0.0230000000000004,0.013));
#1452=CARTESIAN_POINT('',(0.0282500000000115,-0.0230000000000004,0.013));
#1453=CARTESIAN_POINT('',(0.121500000000022,-0.0230000000000004,0.013));
#1454=CARTESIAN_POINT('',(0.121500000000022,-0.00375000000000016,0.013));
#1455=CARTESIAN_POINT('',(0.02,3.06161699786838E-19,0.013));
#1456=CARTESIAN_POINT('',(0.025,3.06161699786838E-19,0.013));
#1457=CARTESIAN_POINT('',(-0.0429999999999856,-0.0120000000000004,0.013));
#1458=CARTESIAN_POINT('',(-0.0379999999999856,-0.0120000000000004,0.013));
#1459=CARTESIAN_POINT('',(0.048895021202974,0.,0.003));
#1460=CARTESIAN_POINT('',(-0.000104978797025977,0.0055,0.003));
#1461=CARTESIAN_POINT('',(-0.000104978797025977,-0.0055,0.003));
#1462=CARTESIAN_POINT('',(0.,1.1327982892113E-19,0.003));
#1463=CARTESIAN_POINT('',(0.00185,1.1327982892113E-19,0.003));
#1464=CARTESIAN_POINT('',(-0.000104978797025977,0.0125,0.003));
#1465=CARTESIAN_POINT('',(-0.000104978797025977,0.0125,0.007));
#1466=CARTESIAN_POINT('',(-0.000104978797025977,0.0125,0.));
#1467=CARTESIAN_POINT('',(-0.000104978797025975,-0.0125,0.003));
#1468=CARTESIAN_POINT('',(-0.000104978797025975,-0.0125,0.));
#1469=CARTESIAN_POINT('',(0.048895021202974,-0.0125,0.007));
#1470=CARTESIAN_POINT('',(0.097895021202974,-0.0125,0.));
#1471=CARTESIAN_POINT('',(0.101895021202974,-0.0125,0.));
#1472=CARTESIAN_POINT('',(0.101895021202974,-0.0125,0.003));
#1473=CARTESIAN_POINT('',(0.,1.1327982892113E-19,0.003));
#1474=CARTESIAN_POINT('',(0.,1.1327982892113E-19,0.));
#1475=CARTESIAN_POINT('',(0.00185,1.1327982892113E-19,0.));
#1476=CARTESIAN_POINT('',(0.048895021202974,0.,0.));
#1477=CARTESIAN_POINT('',(-0.000104978797025977,-0.0055,0.01));
#1478=CARTESIAN_POINT('',(-0.0095029796417166,-0.0055,0.008));
#1479=CARTESIAN_POINT('',(-0.000104978797025977,0.0055,0.01));
#1480=CARTESIAN_POINT('',(0.048895021202974,0.,0.003));
#1481=CARTESIAN_POINT('',(0.097895021202974,0.0055,0.003));
#1482=CARTESIAN_POINT('',(0.101895021202974,0.0055,0.003));
#1483=CARTESIAN_POINT('',(0.097895021202974,-0.0055,0.003));
#1484=CARTESIAN_POINT('',(0.101895021202974,-0.0055,0.003));
#1485=CARTESIAN_POINT('',(0.101895021202974,0.,0.003));
#1486=CARTESIAN_POINT('',(0.098,1.1327982892113E-19,0.003));
#1487=CARTESIAN_POINT('',(0.09985,1.1327982892113E-19,0.003));
#1488=CARTESIAN_POINT('',(0.098,1.1327982892113E-19,0.003));
#1489=CARTESIAN_POINT('',(0.098,1.1327982892113E-19,0.));
#1490=CARTESIAN_POINT('',(0.09985,1.1327982892113E-19,0.));
#1491=CARTESIAN_POINT('',(0.101895021202974,0.,0.003));
#1492=CARTESIAN_POINT('',(0.101895021202974,0.01195,0.003));
#1493=CARTESIAN_POINT('',(0.101895021202974,0.01195,0.007));
#1494=CARTESIAN_POINT('',(0.101895021202974,0.0055,0.01));
#1495=CARTESIAN_POINT('',(0.101895021202974,-0.0055,0.01));
#1496=CARTESIAN_POINT('',(0.101895021202974,0.,0.));
#1497=CARTESIAN_POINT('',(0.101895021202974,0.,0.007));
#1498=CARTESIAN_POINT('',(0.048895021202974,0.,0.));
#1499=CARTESIAN_POINT('',(0.097895021202974,-0.0055,0.01));
#1500=CARTESIAN_POINT('',(0.097895021202974,0.0055,0.01));
#1501=CARTESIAN_POINT('',(0.0282500000000115,0.0155,0.013));
#1502=CARTESIAN_POINT('',(0.121500000000022,0.0155,0.013));
#1503=CARTESIAN_POINT('',(0.121500000000022,0.0155,0.007));
#1504=CARTESIAN_POINT('',(0.0282500000000115,0.0155,0.007));
#1505=CARTESIAN_POINT('',(-0.0649999999999992,0.0155,0.007));
#1506=CARTESIAN_POINT('',(-0.0649999999999992,0.0155,0.013));
#1507=CARTESIAN_POINT('',(-0.0649999999999992,-0.0037500000000002,0.013));
#1508=CARTESIAN_POINT('',(-0.0649999999999992,0.013725,0.007));
#1509=CARTESIAN_POINT('',(-0.0649999999999992,0.01195,0.007));
#1510=CARTESIAN_POINT('',(-0.0649999999999992,0.01195,0.007));
#1511=CARTESIAN_POINT('',(-0.0649999999999992,-0.0230000000000004,0.013));
#1512=CARTESIAN_POINT('',(0.0282500000000115,-0.0230000000000004,0.013));
#1513=CARTESIAN_POINT('',(0.121500000000022,-0.0230000000000004,0.013));
#1514=CARTESIAN_POINT('',(0.121500000000022,-0.00375000000000016,0.013));
#1515=CARTESIAN_POINT('',(0.121500000000022,0.01195,0.007));
#1516=CARTESIAN_POINT('',(0.121500000000022,0.01195,0.007));
#1517=CARTESIAN_POINT('',(0.121500000000022,0.013725,0.007));
#1518=CARTESIAN_POINT('',(-0.02,3.06161699786838E-19,0.009998));
#1519=CARTESIAN_POINT('',(-0.02,0.,0.008));
#1520=CARTESIAN_POINT('',(-0.025,0.,0.008));
#1521=CARTESIAN_POINT('',(0.02,3.06161699786838E-19,0.009998));
#1522=CARTESIAN_POINT('',(0.02,0.,0.008));
#1523=CARTESIAN_POINT('',(0.015,0.,0.008));
#1524=CARTESIAN_POINT('',(-0.0429999999999856,-0.0120000000000004,0.009998));
#1525=CARTESIAN_POINT('',(-0.0469999999999853,-0.009,0.008));
#1526=CARTESIAN_POINT('',(-0.0469999999999853,-0.009,0.008));
#1527=CARTESIAN_POINT('',(-0.0429999999999856,-0.0120000000000004,0.008));
#1528=CARTESIAN_POINT('',(-0.0389999999999859,-0.009,0.008));
#1529=CARTESIAN_POINT('',(-0.0389999999999859,-0.009,0.008));
#1530=CARTESIAN_POINT('',(0.048895021202974,0.0085,0.007));
#1531=CARTESIAN_POINT('',(0.0275,0.0085,0.008));
#1532=CARTESIAN_POINT('',(0.0275,0.0085,0.008));
#1533=CARTESIAN_POINT('',(0.02,0.0085,0.008));
#1534=CARTESIAN_POINT('',(0.0125,0.0085,0.008));
#1535=CARTESIAN_POINT('',(0.0125,0.0085,0.008));
#1536=CARTESIAN_POINT('',(0.048895021202974,0.0085,0.007));
#1537=CARTESIAN_POINT('',(0.048895021202974,0.,0.007));
#1538=CARTESIAN_POINT('',(0.0282500000000115,0.01195,0.007));
#1539=CARTESIAN_POINT('',(0.0282500000000115,0.01195,0.007));
#1540=CARTESIAN_POINT('',(0.048895021202974,0.,0.007));
#1541=CARTESIAN_POINT('',(0.0125,-0.00425,0.008));
#1542=CARTESIAN_POINT('',(0.0125,-0.00425,0.008));
#1543=CARTESIAN_POINT('',(0.0275,0.00425,0.008));
#1544=CARTESIAN_POINT('',(0.0275,0.00425,0.008));
#1545=CARTESIAN_POINT('',(0.,0.,0.008));
#1546=CARTESIAN_POINT('',(0.,0.,0.008));
#1547=CARTESIAN_POINT('',(-0.021552489398506,-0.009,0.008));
#1548=CARTESIAN_POINT('',(-0.0530524893985057,-0.009,0.008));
#1549=CARTESIAN_POINT('',(-0.059104978797026,-0.009,0.008));
#1550=CARTESIAN_POINT('',(-0.059104978797026,-0.00725,0.008));
#1551=CARTESIAN_POINT('',(-0.059104978797026,-0.0055,0.008));
#1552=CARTESIAN_POINT('',(-0.0421019991553094,-0.0055,0.008));
#1553=CARTESIAN_POINT('',(-0.021552489398506,-0.009,0.008));
#1554=CARTESIAN_POINT('',(-0.0530524893985057,-0.009,0.008));
#1555=CARTESIAN_POINT('',(-0.059104978797026,-0.009,0.008));
#1556=CARTESIAN_POINT('',(-0.059104978797026,-0.00725,0.008));
#1557=CARTESIAN_POINT('',(-0.059104978797026,-0.0055,0.008));
#1558=CARTESIAN_POINT('',(-0.0421019991553094,-0.0055,0.008));
#1559=CARTESIAN_POINT('',(-0.0259999999999856,-0.0160000000000004,-0.029));
#1560=CARTESIAN_POINT('',(-0.0259999999999856,-0.0160000000000004,-0.029));
#1561=CARTESIAN_POINT('',(-0.0289999999999856,-0.0160000000000004,-0.029));
#1562=CARTESIAN_POINT('',(0.0222500000000115,-0.0037500000000002,-0.029));
#1563=CARTESIAN_POINT('',(0.0765000000000222,-0.0160000000000004,-0.029));
#1564=CARTESIAN_POINT('',(0.0765000000000222,-0.0160000000000004,-0.029));
#1565=CARTESIAN_POINT('',(0.0735000000000222,-0.0160000000000004,-0.029));
#1566=CARTESIAN_POINT('',(0.0222500000000115,-0.0037500000000002,-0.029));
#1567=CARTESIAN_POINT('',(-0.0319999999999992,0.0085,-0.029));
#1568=CARTESIAN_POINT('',(-0.0319999999999992,0.0085,-0.029));
#1569=CARTESIAN_POINT('',(-0.0349999999999992,0.0085,-0.029));
#1570=CARTESIAN_POINT('',(0.0222500000000115,-0.0037500000000002,-0.029));
#1571=CARTESIAN_POINT('',(0.0282500000000115,0.01195,0.007));
#1572=CARTESIAN_POINT('',(0.0282500000000115,0.01195,0.007));
#1573=MECHANICAL_DESIGN_GEOMETRIC_PRESENTATION_REPRESENTATION('',(#975),
#1574);
#1574=(
GEOMETRIC_REPRESENTATION_CONTEXT(3)
GLOBAL_UNCERTAINTY_ASSIGNED_CONTEXT((#1575))
GLOBAL_UNIT_ASSIGNED_CONTEXT((#1578,#1577,#1576))
REPRESENTATION_CONTEXT('Part 1','TOP_LEVEL_ASSEMBLY_PART')
);
#1575=UNCERTAINTY_MEASURE_WITH_UNIT(LENGTH_MEASURE(1.E-8),#1578,
'DISTANCE_ACCURACY_VALUE','Maximum Tolerance applied to model');
#1576=(
NAMED_UNIT(*)
SI_UNIT($,.STERADIAN.)
SOLID_ANGLE_UNIT()
);
#1577=(
NAMED_UNIT(*)
PLANE_ANGLE_UNIT()
SI_UNIT($,.RADIAN.)
);
#1578=(
LENGTH_UNIT()
NAMED_UNIT(*)
SI_UNIT($,.METRE.)
);
#1579=PRODUCT_DEFINITION_SHAPE('','',#1580);
#1580=PRODUCT_DEFINITION('','',#1582,#1581);
#1581=PRODUCT_DEFINITION_CONTEXT('',#1588,'design');
#1582=PRODUCT_DEFINITION_FORMATION_WITH_SPECIFIED_SOURCE('','',#1584,
 .NOT_KNOWN.);
#1583=PRODUCT_RELATED_PRODUCT_CATEGORY('','',(#1584));
#1584=PRODUCT('Part 1','Part 1','Part 1',(#1586));
#1585=PRODUCT_CATEGORY('','');
#1586=PRODUCT_CONTEXT('',#1588,'mechanical');
#1587=APPLICATION_PROTOCOL_DEFINITION('international standard',
'ap242_managed_model_based_3d_engineering',2020,#1588);
#1588=APPLICATION_CONTEXT('managed model based 3d engineering');
ENDSEC;
END-ISO-10303-21;
