ISO-10303-21;
HEADER;
/* Generated by software containing ST-Developer
 * from STEP Tools, Inc. (www.steptools.com) 
 */
/* OPTION: using custom renumber hook */

FILE_DESCRIPTION(
/* description */ ('STEP AP242 Edition 2',
'CAx-IF Rec.Pracs.---Representation and Presentation of Product Manufa
cturing Information (PMI)---4.0---2014-10-13',
'CAx-IF Rec.Pracs.---3D Tessellated Geometry---0.4---2014-09-14','2;1',
'CAx-IF Rec.Pracs.---User Defined Attributes---1.5---2016-08-15'),
/* implementation_level */ '2;1');

FILE_NAME(
/* name */ 'nuz',
/* time_stamp */ '2026-09-10T17:46:38Z',
/* author */ (''),
/* organization */ (''),
/* preprocessor_version */ 'ST-DEVELOPER v20',
/* originating_system */ 'ONSHAPE BY PTC INC, 1.220',
/* authorisation */ '  ');

FILE_SCHEMA (('AP242_MANAGED_MODEL_BASED_3D_ENGINEERING_MIM_LF { 1 0 10303 442 3 1 4 }'));
ENDSEC;

DATA;
#10=SHAPE_REPRESENTATION_RELATIONSHIP('','',#432,#11);
#11=ADVANCED_BREP_SHAPE_REPRESENTATION('',(#430),#744);
#12=PLANE('',#453);
#13=PLANE('',#457);
#14=PLANE('',#458);
#15=PLANE('',#464);
#16=PLANE('',#469);
#17=PLANE('',#470);
#18=PLANE('',#475);
#19=PLANE('',#480);
#20=PLANE('',#483);
#21=PLANE('',#486);
#22=PLANE('',#489);
#23=B_SPLINE_CURVE_WITH_KNOTS('',3,(#655,#656,#657,#658,#659,#660,#661),
 .UNSPECIFIED.,.F.,.F.,(4,1,1,1,4),(0.,0.001463016636269,0.002926033272538,
0.004389049908807,0.005852066545076),.UNSPECIFIED.);
#24=LINE('',#647,#42);
#25=LINE('',#651,#43);
#26=LINE('',#665,#44);
#27=LINE('',#669,#45);
#28=LINE('',#671,#46);
#29=LINE('',#673,#47);
#30=LINE('',#677,#48);
#31=LINE('',#681,#49);
#32=LINE('',#683,#50);
#33=LINE('',#685,#51);
#34=LINE('',#687,#52);
#35=LINE('',#692,#53);
#36=LINE('',#693,#54);
#37=LINE('',#702,#55);
#38=LINE('',#711,#56);
#39=LINE('',#721,#57);
#40=LINE('',#723,#58);
#41=LINE('',#724,#59);
#42=VECTOR('',#520,1.);
#43=VECTOR('',#523,1.);
#44=VECTOR('',#530,1.);
#45=VECTOR('',#535,1.);
#46=VECTOR('',#536,1.);
#47=VECTOR('',#537,1.);
#48=VECTOR('',#542,1.);
#49=VECTOR('',#547,1.);
#50=VECTOR('',#548,1.);
#51=VECTOR('',#549,1.);
#52=VECTOR('',#552,1.);
#53=VECTOR('',#555,1.);
#54=VECTOR('',#556,1.);
#55=VECTOR('',#567,1.);
#56=VECTOR('',#578,1.);
#57=VECTOR('',#589,1.);
#58=VECTOR('',#592,1.);
#59=VECTOR('',#593,1.);
#60=ORIENTED_EDGE('',*,*,#158,.T.);
#61=ORIENTED_EDGE('',*,*,#159,.T.);
#62=ORIENTED_EDGE('',*,*,#160,.T.);
#63=ORIENTED_EDGE('',*,*,#161,.T.);
#64=ORIENTED_EDGE('',*,*,#162,.T.);
#65=ORIENTED_EDGE('',*,*,#163,.T.);
#66=ORIENTED_EDGE('',*,*,#164,.T.);
#67=ORIENTED_EDGE('',*,*,#165,.T.);
#68=ORIENTED_EDGE('',*,*,#166,.F.);
#69=ORIENTED_EDGE('',*,*,#167,.F.);
#70=ORIENTED_EDGE('',*,*,#168,.T.);
#71=ORIENTED_EDGE('',*,*,#169,.T.);
#72=ORIENTED_EDGE('',*,*,#170,.T.);
#73=ORIENTED_EDGE('',*,*,#171,.T.);
#74=ORIENTED_EDGE('',*,*,#172,.T.);
#75=ORIENTED_EDGE('',*,*,#173,.F.);
#76=ORIENTED_EDGE('',*,*,#174,.F.);
#77=ORIENTED_EDGE('',*,*,#167,.T.);
#78=ORIENTED_EDGE('',*,*,#175,.F.);
#79=ORIENTED_EDGE('',*,*,#176,.F.);
#80=ORIENTED_EDGE('',*,*,#177,.T.);
#81=ORIENTED_EDGE('',*,*,#173,.T.);
#82=ORIENTED_EDGE('',*,*,#178,.T.);
#83=ORIENTED_EDGE('',*,*,#179,.F.);
#84=ORIENTED_EDGE('',*,*,#180,.F.);
#85=ORIENTED_EDGE('',*,*,#176,.T.);
#86=ORIENTED_EDGE('',*,*,#181,.T.);
#87=ORIENTED_EDGE('',*,*,#182,.F.);
#88=ORIENTED_EDGE('',*,*,#183,.F.);
#89=ORIENTED_EDGE('',*,*,#179,.T.);
#90=ORIENTED_EDGE('',*,*,#184,.F.);
#91=ORIENTED_EDGE('',*,*,#185,.T.);
#92=ORIENTED_EDGE('',*,*,#186,.F.);
#93=ORIENTED_EDGE('',*,*,#182,.T.);
#94=ORIENTED_EDGE('',*,*,#187,.T.);
#95=ORIENTED_EDGE('',*,*,#188,.T.);
#96=ORIENTED_EDGE('',*,*,#189,.T.);
#97=ORIENTED_EDGE('',*,*,#190,.F.);
#98=ORIENTED_EDGE('',*,*,#191,.F.);
#99=ORIENTED_EDGE('',*,*,#192,.T.);
#100=ORIENTED_EDGE('',*,*,#169,.F.);
#101=ORIENTED_EDGE('',*,*,#193,.T.);
#102=ORIENTED_EDGE('',*,*,#194,.F.);
#103=ORIENTED_EDGE('',*,*,#168,.F.);
#104=ORIENTED_EDGE('',*,*,#174,.T.);
#105=ORIENTED_EDGE('',*,*,#177,.F.);
#106=ORIENTED_EDGE('',*,*,#180,.T.);
#107=ORIENTED_EDGE('',*,*,#183,.T.);
#108=ORIENTED_EDGE('',*,*,#186,.T.);
#109=ORIENTED_EDGE('',*,*,#195,.T.);
#110=ORIENTED_EDGE('',*,*,#191,.T.);
#111=ORIENTED_EDGE('',*,*,#164,.F.);
#112=ORIENTED_EDGE('',*,*,#162,.F.);
#113=ORIENTED_EDGE('',*,*,#160,.F.);
#114=ORIENTED_EDGE('',*,*,#158,.F.);
#115=ORIENTED_EDGE('',*,*,#189,.F.);
#116=ORIENTED_EDGE('',*,*,#193,.F.);
#117=ORIENTED_EDGE('',*,*,#196,.F.);
#118=ORIENTED_EDGE('',*,*,#197,.F.);
#119=ORIENTED_EDGE('',*,*,#198,.F.);
#120=ORIENTED_EDGE('',*,*,#199,.F.);
#121=ORIENTED_EDGE('',*,*,#166,.T.);
#122=ORIENTED_EDGE('',*,*,#200,.T.);
#123=ORIENTED_EDGE('',*,*,#187,.F.);
#124=ORIENTED_EDGE('',*,*,#181,.F.);
#125=ORIENTED_EDGE('',*,*,#178,.F.);
#126=ORIENTED_EDGE('',*,*,#175,.T.);
#127=ORIENTED_EDGE('',*,*,#172,.F.);
#128=ORIENTED_EDGE('',*,*,#190,.T.);
#129=ORIENTED_EDGE('',*,*,#194,.T.);
#130=ORIENTED_EDGE('',*,*,#201,.F.);
#131=ORIENTED_EDGE('',*,*,#184,.T.);
#132=ORIENTED_EDGE('',*,*,#202,.T.);
#133=ORIENTED_EDGE('',*,*,#170,.F.);
#134=ORIENTED_EDGE('',*,*,#171,.F.);
#135=ORIENTED_EDGE('',*,*,#202,.F.);
#136=ORIENTED_EDGE('',*,*,#188,.F.);
#137=ORIENTED_EDGE('',*,*,#200,.F.);
#138=ORIENTED_EDGE('',*,*,#201,.T.);
#139=ORIENTED_EDGE('',*,*,#192,.F.);
#140=ORIENTED_EDGE('',*,*,#195,.F.);
#141=ORIENTED_EDGE('',*,*,#185,.F.);
#142=ORIENTED_EDGE('',*,*,#203,.F.);
#143=ORIENTED_EDGE('',*,*,#199,.T.);
#144=ORIENTED_EDGE('',*,*,#163,.F.);
#145=ORIENTED_EDGE('',*,*,#203,.T.);
#146=ORIENTED_EDGE('',*,*,#204,.F.);
#147=ORIENTED_EDGE('',*,*,#198,.T.);
#148=ORIENTED_EDGE('',*,*,#165,.F.);
#149=ORIENTED_EDGE('',*,*,#204,.T.);
#150=ORIENTED_EDGE('',*,*,#205,.F.);
#151=ORIENTED_EDGE('',*,*,#197,.T.);
#152=ORIENTED_EDGE('',*,*,#161,.F.);
#153=ORIENTED_EDGE('',*,*,#205,.T.);
#154=ORIENTED_EDGE('',*,*,#206,.F.);
#155=ORIENTED_EDGE('',*,*,#196,.T.);
#156=ORIENTED_EDGE('',*,*,#159,.F.);
#157=ORIENTED_EDGE('',*,*,#206,.T.);
#158=EDGE_CURVE('',#207,#207,#246,.T.);
#159=EDGE_CURVE('',#208,#208,#247,.T.);
#160=EDGE_CURVE('',#209,#209,#248,.T.);
#161=EDGE_CURVE('',#210,#210,#249,.T.);
#162=EDGE_CURVE('',#211,#211,#250,.T.);
#163=EDGE_CURVE('',#212,#212,#251,.T.);
#164=EDGE_CURVE('',#213,#213,#252,.T.);
#165=EDGE_CURVE('',#214,#214,#253,.T.);
#166=EDGE_CURVE('',#215,#216,#254,.T.);
#167=EDGE_CURVE('',#217,#215,#24,.T.);
#168=EDGE_CURVE('',#217,#218,#255,.T.);
#169=EDGE_CURVE('',#218,#219,#25,.T.);
#170=EDGE_CURVE('',#219,#220,#256,.T.);
#171=EDGE_CURVE('',#220,#216,#23,.T.);
#172=EDGE_CURVE('',#215,#221,#257,.T.);
#173=EDGE_CURVE('',#222,#221,#26,.T.);
#174=EDGE_CURVE('',#217,#222,#258,.T.);
#175=EDGE_CURVE('',#223,#221,#27,.T.);
#176=EDGE_CURVE('',#224,#223,#28,.T.);
#177=EDGE_CURVE('',#224,#222,#29,.T.);
#178=EDGE_CURVE('',#223,#225,#259,.T.);
#179=EDGE_CURVE('',#226,#225,#30,.T.);
#180=EDGE_CURVE('',#224,#226,#260,.T.);
#181=EDGE_CURVE('',#225,#227,#31,.T.);
#182=EDGE_CURVE('',#228,#227,#32,.T.);
#183=EDGE_CURVE('',#226,#228,#33,.T.);
#184=EDGE_CURVE('',#229,#230,#34,.T.);
#185=EDGE_CURVE('',#229,#231,#261,.F.);
#186=EDGE_CURVE('',#228,#231,#35,.T.);
#187=EDGE_CURVE('',#227,#232,#36,.T.);
#188=EDGE_CURVE('',#232,#230,#262,.T.);
#189=EDGE_CURVE('',#233,#233,#263,.T.);
#190=EDGE_CURVE('',#234,#234,#264,.T.);
#191=EDGE_CURVE('',#235,#218,#37,.T.);
#192=EDGE_CURVE('',#235,#219,#265,.T.);
#193=EDGE_CURVE('',#236,#236,#266,.T.);
#194=EDGE_CURVE('',#237,#237,#267,.T.);
#195=EDGE_CURVE('',#231,#235,#38,.T.);
#196=EDGE_CURVE('',#238,#238,#268,.T.);
#197=EDGE_CURVE('',#239,#239,#269,.T.);
#198=EDGE_CURVE('',#240,#240,#270,.T.);
#199=EDGE_CURVE('',#241,#241,#271,.T.);
#200=EDGE_CURVE('',#216,#232,#39,.T.);
#201=EDGE_CURVE('',#229,#219,#40,.T.);
#202=EDGE_CURVE('',#230,#220,#41,.F.);
#203=EDGE_CURVE('',#242,#242,#272,.T.);
#204=EDGE_CURVE('',#243,#243,#273,.T.);
#205=EDGE_CURVE('',#244,#244,#274,.T.);
#206=EDGE_CURVE('',#245,#245,#275,.T.);
#207=VERTEX_POINT('',#625);
#208=VERTEX_POINT('',#627);
#209=VERTEX_POINT('',#630);
#210=VERTEX_POINT('',#632);
#211=VERTEX_POINT('',#635);
#212=VERTEX_POINT('',#637);
#213=VERTEX_POINT('',#640);
#214=VERTEX_POINT('',#642);
#215=VERTEX_POINT('',#645);
#216=VERTEX_POINT('',#646);
#217=VERTEX_POINT('',#648);
#218=VERTEX_POINT('',#650);
#219=VERTEX_POINT('',#652);
#220=VERTEX_POINT('',#654);
#221=VERTEX_POINT('',#664);
#222=VERTEX_POINT('',#666);
#223=VERTEX_POINT('',#670);
#224=VERTEX_POINT('',#672);
#225=VERTEX_POINT('',#676);
#226=VERTEX_POINT('',#678);
#227=VERTEX_POINT('',#682);
#228=VERTEX_POINT('',#684);
#229=VERTEX_POINT('',#688);
#230=VERTEX_POINT('',#689);
#231=VERTEX_POINT('',#691);
#232=VERTEX_POINT('',#694);
#233=VERTEX_POINT('',#698);
#234=VERTEX_POINT('',#700);
#235=VERTEX_POINT('',#703);
#236=VERTEX_POINT('',#707);
#237=VERTEX_POINT('',#709);
#238=VERTEX_POINT('',#714);
#239=VERTEX_POINT('',#716);
#240=VERTEX_POINT('',#718);
#241=VERTEX_POINT('',#720);
#242=VERTEX_POINT('',#729);
#243=VERTEX_POINT('',#733);
#244=VERTEX_POINT('',#737);
#245=VERTEX_POINT('',#741);
#246=CIRCLE('',#435,0.0015);
#247=CIRCLE('',#436,0.0015);
#248=CIRCLE('',#438,0.0015);
#249=CIRCLE('',#439,0.0015);
#250=CIRCLE('',#441,0.0015);
#251=CIRCLE('',#442,0.0015);
#252=CIRCLE('',#444,0.0015);
#253=CIRCLE('',#445,0.0015);
#254=CIRCLE('',#447,0.005);
#255=CIRCLE('',#448,0.005);
#256=CIRCLE('',#449,0.005);
#257=CIRCLE('',#451,0.0128);
#258=CIRCLE('',#452,0.0128);
#259=CIRCLE('',#455,0.0085);
#260=CIRCLE('',#456,0.0085);
#261=CIRCLE('',#459,0.024013198391433);
#262=CIRCLE('',#460,0.004);
#263=CIRCLE('',#462,0.0028);
#264=CIRCLE('',#463,0.0028);
#265=CIRCLE('',#465,0.024013198391433);
#266=CIRCLE('',#467,0.00515);
#267=CIRCLE('',#468,0.00515);
#268=CIRCLE('',#471,0.0025);
#269=CIRCLE('',#472,0.0025);
#270=CIRCLE('',#473,0.0025);
#271=CIRCLE('',#474,0.0025);
#272=CIRCLE('',#479,0.0025);
#273=CIRCLE('',#482,0.0025);
#274=CIRCLE('',#485,0.0025);
#275=CIRCLE('',#488,0.0025);
#276=EDGE_LOOP('',(#60));
#277=EDGE_LOOP('',(#61));
#278=EDGE_LOOP('',(#62));
#279=EDGE_LOOP('',(#63));
#280=EDGE_LOOP('',(#64));
#281=EDGE_LOOP('',(#65));
#282=EDGE_LOOP('',(#66));
#283=EDGE_LOOP('',(#67));
#284=EDGE_LOOP('',(#68,#69,#70,#71,#72,#73));
#285=EDGE_LOOP('',(#74,#75,#76,#77));
#286=EDGE_LOOP('',(#78,#79,#80,#81));
#287=EDGE_LOOP('',(#82,#83,#84,#85));
#288=EDGE_LOOP('',(#86,#87,#88,#89));
#289=EDGE_LOOP('',(#90,#91,#92,#93,#94,#95));
#290=EDGE_LOOP('',(#96));
#291=EDGE_LOOP('',(#97));
#292=EDGE_LOOP('',(#98,#99,#100));
#293=EDGE_LOOP('',(#101));
#294=EDGE_LOOP('',(#102));
#295=EDGE_LOOP('',(#103,#104,#105,#106,#107,#108,#109,#110));
#296=EDGE_LOOP('',(#111));
#297=EDGE_LOOP('',(#112));
#298=EDGE_LOOP('',(#113));
#299=EDGE_LOOP('',(#114));
#300=EDGE_LOOP('',(#115));
#301=EDGE_LOOP('',(#116));
#302=EDGE_LOOP('',(#117));
#303=EDGE_LOOP('',(#118));
#304=EDGE_LOOP('',(#119));
#305=EDGE_LOOP('',(#120));
#306=EDGE_LOOP('',(#121,#122,#123,#124,#125,#126,#127));
#307=EDGE_LOOP('',(#128));
#308=EDGE_LOOP('',(#129));
#309=EDGE_LOOP('',(#130,#131,#132,#133));
#310=EDGE_LOOP('',(#134,#135,#136,#137));
#311=EDGE_LOOP('',(#138,#139,#140,#141));
#312=EDGE_LOOP('',(#142));
#313=EDGE_LOOP('',(#143));
#314=EDGE_LOOP('',(#144));
#315=EDGE_LOOP('',(#145));
#316=EDGE_LOOP('',(#146));
#317=EDGE_LOOP('',(#147));
#318=EDGE_LOOP('',(#148));
#319=EDGE_LOOP('',(#149));
#320=EDGE_LOOP('',(#150));
#321=EDGE_LOOP('',(#151));
#322=EDGE_LOOP('',(#152));
#323=EDGE_LOOP('',(#153));
#324=EDGE_LOOP('',(#154));
#325=EDGE_LOOP('',(#155));
#326=EDGE_LOOP('',(#156));
#327=EDGE_LOOP('',(#157));
#328=FACE_BOUND('',#276,.T.);
#329=FACE_BOUND('',#277,.T.);
#330=FACE_BOUND('',#278,.T.);
#331=FACE_BOUND('',#279,.T.);
#332=FACE_BOUND('',#280,.T.);
#333=FACE_BOUND('',#281,.T.);
#334=FACE_BOUND('',#282,.T.);
#335=FACE_BOUND('',#283,.T.);
#336=FACE_BOUND('',#284,.T.);
#337=FACE_BOUND('',#285,.T.);
#338=FACE_BOUND('',#286,.T.);
#339=FACE_BOUND('',#287,.T.);
#340=FACE_BOUND('',#288,.T.);
#341=FACE_BOUND('',#289,.T.);
#342=FACE_BOUND('',#290,.T.);
#343=FACE_BOUND('',#291,.T.);
#344=FACE_BOUND('',#292,.T.);
#345=FACE_BOUND('',#293,.T.);
#346=FACE_BOUND('',#294,.T.);
#347=FACE_BOUND('',#295,.T.);
#348=FACE_BOUND('',#296,.T.);
#349=FACE_BOUND('',#297,.T.);
#350=FACE_BOUND('',#298,.T.);
#351=FACE_BOUND('',#299,.T.);
#352=FACE_BOUND('',#300,.T.);
#353=FACE_BOUND('',#301,.T.);
#354=FACE_BOUND('',#302,.T.);
#355=FACE_BOUND('',#303,.T.);
#356=FACE_BOUND('',#304,.T.);
#357=FACE_BOUND('',#305,.T.);
#358=FACE_BOUND('',#306,.T.);
#359=FACE_BOUND('',#307,.T.);
#360=FACE_BOUND('',#308,.T.);
#361=FACE_BOUND('',#309,.T.);
#362=FACE_BOUND('',#310,.T.);
#363=FACE_BOUND('',#311,.T.);
#364=FACE_BOUND('',#312,.T.);
#365=FACE_BOUND('',#313,.T.);
#366=FACE_BOUND('',#314,.T.);
#367=FACE_BOUND('',#315,.T.);
#368=FACE_BOUND('',#316,.T.);
#369=FACE_BOUND('',#317,.T.);
#370=FACE_BOUND('',#318,.T.);
#371=FACE_BOUND('',#319,.T.);
#372=FACE_BOUND('',#320,.T.);
#373=FACE_BOUND('',#321,.T.);
#374=FACE_BOUND('',#322,.T.);
#375=FACE_BOUND('',#323,.T.);
#376=FACE_BOUND('',#324,.T.);
#377=FACE_BOUND('',#325,.T.);
#378=FACE_BOUND('',#326,.T.);
#379=FACE_BOUND('',#327,.T.);
#380=CYLINDRICAL_SURFACE('',#434,0.0015);
#381=CYLINDRICAL_SURFACE('',#437,0.0015);
#382=CYLINDRICAL_SURFACE('',#440,0.0015);
#383=CYLINDRICAL_SURFACE('',#443,0.0015);
#384=CYLINDRICAL_SURFACE('',#446,0.005);
#385=CYLINDRICAL_SURFACE('',#450,0.0128);
#386=CYLINDRICAL_SURFACE('',#454,0.0085);
#387=CYLINDRICAL_SURFACE('',#461,0.0028);
#388=CYLINDRICAL_SURFACE('',#466,0.00515);
#389=CYLINDRICAL_SURFACE('',#476,0.004);
#390=CYLINDRICAL_SURFACE('',#477,0.024013198391433);
#391=CYLINDRICAL_SURFACE('',#478,0.0025);
#392=CYLINDRICAL_SURFACE('',#481,0.0025);
#393=CYLINDRICAL_SURFACE('',#484,0.0025);
#394=CYLINDRICAL_SURFACE('',#487,0.0025);
#395=ADVANCED_FACE('',(#328,#329),#380,.F.);
#396=ADVANCED_FACE('',(#330,#331),#381,.F.);
#397=ADVANCED_FACE('',(#332,#333),#382,.F.);
#398=ADVANCED_FACE('',(#334,#335),#383,.F.);
#399=ADVANCED_FACE('',(#336),#384,.F.);
#400=ADVANCED_FACE('',(#337),#385,.T.);
#401=ADVANCED_FACE('',(#338),#12,.T.);
#402=ADVANCED_FACE('',(#339),#386,.T.);
#403=ADVANCED_FACE('',(#340),#13,.F.);
#404=ADVANCED_FACE('',(#341),#14,.F.);
#405=ADVANCED_FACE('',(#342,#343),#387,.F.);
#406=ADVANCED_FACE('',(#344),#15,.F.);
#407=ADVANCED_FACE('',(#345,#346),#388,.F.);
#408=ADVANCED_FACE('',(#347,#348,#349,#350,#351,#352,#353),#16,.T.);
#409=ADVANCED_FACE('',(#354,#355,#356,#357,#358,#359,#360),#17,.F.);
#410=ADVANCED_FACE('',(#361),#18,.T.);
#411=ADVANCED_FACE('',(#362),#389,.F.);
#412=ADVANCED_FACE('',(#363),#390,.T.);
#413=ADVANCED_FACE('',(#364,#365),#391,.F.);
#414=ADVANCED_FACE('',(#366,#367),#19,.T.);
#415=ADVANCED_FACE('',(#368,#369),#392,.F.);
#416=ADVANCED_FACE('',(#370,#371),#20,.T.);
#417=ADVANCED_FACE('',(#372,#373),#393,.F.);
#418=ADVANCED_FACE('',(#374,#375),#21,.T.);
#419=ADVANCED_FACE('',(#376,#377),#394,.F.);
#420=ADVANCED_FACE('',(#378,#379),#22,.T.);
#421=CLOSED_SHELL('',(#395,#396,#397,#398,#399,#400,#401,#402,#403,#404,
#405,#406,#407,#408,#409,#410,#411,#412,#413,#414,#415,#416,#417,#418,#419,
#420));
#422=STYLED_ITEM('',(#423),#430);
#423=PRESENTATION_STYLE_ASSIGNMENT((#424));
#424=SURFACE_STYLE_USAGE(.BOTH.,#425);
#425=SURFACE_SIDE_STYLE('',(#426));
#426=SURFACE_STYLE_FILL_AREA(#427);
#427=FILL_AREA_STYLE('',(#428));
#428=FILL_AREA_STYLE_COLOUR('',#429);
#429=COLOUR_RGB('',0.498039215686275,0.498039215686275,0.498039215686275);
#430=MANIFOLD_SOLID_BREP('Part 1',#421);
#431=SHAPE_DEFINITION_REPRESENTATION(#749,#432);
#432=SHAPE_REPRESENTATION('Part 1',(#433),#744);
#433=AXIS2_PLACEMENT_3D('',#622,#490,#491);
#434=AXIS2_PLACEMENT_3D('',#623,#492,#493);
#435=AXIS2_PLACEMENT_3D('',#624,#494,#495);
#436=AXIS2_PLACEMENT_3D('',#626,#496,#497);
#437=AXIS2_PLACEMENT_3D('',#628,#498,#499);
#438=AXIS2_PLACEMENT_3D('',#629,#500,#501);
#439=AXIS2_PLACEMENT_3D('',#631,#502,#503);
#440=AXIS2_PLACEMENT_3D('',#633,#504,#505);
#441=AXIS2_PLACEMENT_3D('',#634,#506,#507);
#442=AXIS2_PLACEMENT_3D('',#636,#508,#509);
#443=AXIS2_PLACEMENT_3D('',#638,#510,#511);
#444=AXIS2_PLACEMENT_3D('',#639,#512,#513);
#445=AXIS2_PLACEMENT_3D('',#641,#514,#515);
#446=AXIS2_PLACEMENT_3D('',#643,#516,#517);
#447=AXIS2_PLACEMENT_3D('',#644,#518,#519);
#448=AXIS2_PLACEMENT_3D('',#649,#521,#522);
#449=AXIS2_PLACEMENT_3D('',#653,#524,#525);
#450=AXIS2_PLACEMENT_3D('',#662,#526,#527);
#451=AXIS2_PLACEMENT_3D('',#663,#528,#529);
#452=AXIS2_PLACEMENT_3D('',#667,#531,#532);
#453=AXIS2_PLACEMENT_3D('',#668,#533,#534);
#454=AXIS2_PLACEMENT_3D('',#674,#538,#539);
#455=AXIS2_PLACEMENT_3D('',#675,#540,#541);
#456=AXIS2_PLACEMENT_3D('',#679,#543,#544);
#457=AXIS2_PLACEMENT_3D('',#680,#545,#546);
#458=AXIS2_PLACEMENT_3D('',#686,#550,#551);
#459=AXIS2_PLACEMENT_3D('',#690,#553,#554);
#460=AXIS2_PLACEMENT_3D('',#695,#557,#558);
#461=AXIS2_PLACEMENT_3D('',#696,#559,#560);
#462=AXIS2_PLACEMENT_3D('',#697,#561,#562);
#463=AXIS2_PLACEMENT_3D('',#699,#563,#564);
#464=AXIS2_PLACEMENT_3D('',#701,#565,#566);
#465=AXIS2_PLACEMENT_3D('',#704,#568,#569);
#466=AXIS2_PLACEMENT_3D('',#705,#570,#571);
#467=AXIS2_PLACEMENT_3D('',#706,#572,#573);
#468=AXIS2_PLACEMENT_3D('',#708,#574,#575);
#469=AXIS2_PLACEMENT_3D('',#710,#576,#577);
#470=AXIS2_PLACEMENT_3D('',#712,#579,#580);
#471=AXIS2_PLACEMENT_3D('',#713,#581,#582);
#472=AXIS2_PLACEMENT_3D('',#715,#583,#584);
#473=AXIS2_PLACEMENT_3D('',#717,#585,#586);
#474=AXIS2_PLACEMENT_3D('',#719,#587,#588);
#475=AXIS2_PLACEMENT_3D('',#722,#590,#591);
#476=AXIS2_PLACEMENT_3D('',#725,#594,#595);
#477=AXIS2_PLACEMENT_3D('',#726,#596,#597);
#478=AXIS2_PLACEMENT_3D('',#727,#598,#599);
#479=AXIS2_PLACEMENT_3D('',#728,#600,#601);
#480=AXIS2_PLACEMENT_3D('',#730,#602,#603);
#481=AXIS2_PLACEMENT_3D('',#731,#604,#605);
#482=AXIS2_PLACEMENT_3D('',#732,#606,#607);
#483=AXIS2_PLACEMENT_3D('',#734,#608,#609);
#484=AXIS2_PLACEMENT_3D('',#735,#610,#611);
#485=AXIS2_PLACEMENT_3D('',#736,#612,#613);
#486=AXIS2_PLACEMENT_3D('',#738,#614,#615);
#487=AXIS2_PLACEMENT_3D('',#739,#616,#617);
#488=AXIS2_PLACEMENT_3D('',#740,#618,#619);
#489=AXIS2_PLACEMENT_3D('',#742,#620,#621);
#490=DIRECTION('',(0.,0.,1.));
#491=DIRECTION('',(1.,0.,0.));
#492=DIRECTION('',(-5.78963960107258E-16,-9.5865156091168E-16,-1.));
#493=DIRECTION('',(0.,1.,-9.5865156091168E-16));
#494=DIRECTION('',(5.78963960107258E-16,9.5865156091168E-16,1.));
#495=DIRECTION('',(0.,-1.,9.5865156091168E-16));
#496=DIRECTION('',(-5.78963960107258E-16,-9.5865156091168E-16,-1.));
#497=DIRECTION('',(0.,1.,-9.5865156091168E-16));
#498=DIRECTION('',(-5.78963960107258E-16,-9.5865156091168E-16,-1.));
#499=DIRECTION('',(0.,1.,-9.5865156091168E-16));
#500=DIRECTION('',(5.78963960107258E-16,9.5865156091168E-16,1.));
#501=DIRECTION('',(0.,-1.,9.5865156091168E-16));
#502=DIRECTION('',(-5.78963960107258E-16,-9.5865156091168E-16,-1.));
#503=DIRECTION('',(0.,1.,-9.5865156091168E-16));
#504=DIRECTION('',(-5.78963960107258E-16,-9.5865156091168E-16,-1.));
#505=DIRECTION('',(0.,1.,-9.5865156091168E-16));
#506=DIRECTION('',(5.78963960107258E-16,9.5865156091168E-16,1.));
#507=DIRECTION('',(0.,-1.,9.5865156091168E-16));
#508=DIRECTION('',(-5.78963960107258E-16,-9.5865156091168E-16,-1.));
#509=DIRECTION('',(0.,1.,-9.5865156091168E-16));
#510=DIRECTION('',(-5.78963960107258E-16,-9.5865156091168E-16,-1.));
#511=DIRECTION('',(0.,1.,-9.5865156091168E-16));
#512=DIRECTION('',(5.78963960107258E-16,9.5865156091168E-16,1.));
#513=DIRECTION('',(0.,-1.,9.5865156091168E-16));
#514=DIRECTION('',(-5.78963960107258E-16,-9.5865156091168E-16,-1.));
#515=DIRECTION('',(0.,1.,-9.5865156091168E-16));
#516=DIRECTION('',(-5.78963960107258E-16,-9.5865156091168E-16,-1.));
#517=DIRECTION('',(0.,1.,-9.5865156091168E-16));
#518=DIRECTION('',(5.78963960107258E-16,9.5865156091168E-16,1.));
#519=DIRECTION('',(0.,-1.,9.5865156091168E-16));
#520=DIRECTION('',(-5.78963960107258E-16,-9.5865156091168E-16,-1.));
#521=DIRECTION('',(5.78963960107258E-16,9.5865156091168E-16,1.));
#522=DIRECTION('',(0.,-1.,9.5865156091168E-16));
#523=DIRECTION('',(-5.78963960107258E-16,-9.5865156091168E-16,-1.));
#524=DIRECTION('',(-5.78963960107258E-16,-9.5865156091168E-16,-1.));
#525=DIRECTION('',(0.,1.,-9.5865156091168E-16));
#526=DIRECTION('',(-5.78963960107258E-16,-9.5865156091168E-16,-1.));
#527=DIRECTION('',(0.,1.,-9.5865156091168E-16));
#528=DIRECTION('',(5.78963960107258E-16,9.5865156091168E-16,1.));
#529=DIRECTION('',(0.,-1.,9.5865156091168E-16));
#530=DIRECTION('',(-5.78963960107258E-16,-9.5865156091168E-16,-1.));
#531=DIRECTION('',(5.78963960107258E-16,9.5865156091168E-16,1.));
#532=DIRECTION('',(0.,-1.,9.5865156091168E-16));
#533=DIRECTION('',(-0.927160870439247,-0.374663476104007,8.959644553897E-16));
#534=DIRECTION('',(0.374663476104007,-0.927160870439247,0.));
#535=DIRECTION('',(-0.374663476104007,0.927160870439247,-6.7190756583009E-16));
#536=DIRECTION('',(-5.78963960107258E-16,-9.5865156091168E-16,-1.));
#537=DIRECTION('',(-0.374663476104007,0.927160870439247,-6.7190756583009E-16));
#538=DIRECTION('',(-5.78963960107258E-16,-9.5865156091168E-16,-1.));
#539=DIRECTION('',(0.,1.,-9.5865156091168E-16));
#540=DIRECTION('',(5.78963960107258E-16,9.5865156091168E-16,1.));
#541=DIRECTION('',(0.,-1.,9.5865156091168E-16));
#542=DIRECTION('',(-5.78963960107258E-16,-9.5865156091168E-16,-1.));
#543=DIRECTION('',(5.78963960107258E-16,9.5865156091168E-16,1.));
#544=DIRECTION('',(0.,-1.,9.5865156091168E-16));
#545=DIRECTION('',(-0.999744568913743,0.0226008169647388,5.57149766252898E-16));
#546=DIRECTION('',(-0.0226008169647388,-0.999744568913743,0.));
#547=DIRECTION('',(0.0226008169647388,0.999744568913743,-9.71491749993699E-16));
#548=DIRECTION('',(-5.78963960107258E-16,-9.5865156091168E-16,-1.));
#549=DIRECTION('',(0.0226008169647388,0.999744568913743,-9.71491749993699E-16));
#550=DIRECTION('',(-1.,5.5502470406843E-31,5.78963960107258E-16));
#551=DIRECTION('',(5.78963960107258E-16,0.,1.));
#552=DIRECTION('',(0.,-1.,9.5865156091168E-16));
#553=DIRECTION('',(-1.,5.5502470406843E-31,5.78963960107258E-16));
#554=DIRECTION('',(5.78963960107258E-16,0.,1.));
#555=DIRECTION('',(0.,1.,-9.5865156091168E-16));
#556=DIRECTION('',(0.,1.,-9.5865156091168E-16));
#557=DIRECTION('',(-1.,5.5502470406843E-31,5.78963960107258E-16));
#558=DIRECTION('',(5.78963960107258E-16,0.,1.));
#559=DIRECTION('',(-5.78963960107258E-16,-9.5865156091168E-16,-1.));
#560=DIRECTION('',(0.,1.,-9.5865156091168E-16));
#561=DIRECTION('',(5.78963960107258E-16,9.5865156091168E-16,1.));
#562=DIRECTION('',(0.,-1.,9.5865156091168E-16));
#563=DIRECTION('',(5.78963960107258E-16,9.5865156091168E-16,1.));
#564=DIRECTION('',(0.,-1.,9.5865156091168E-16));
#565=DIRECTION('',(1.,-5.5502470406843E-31,-5.78963960107258E-16));
#566=DIRECTION('',(-5.78963960107258E-16,0.,-1.));
#567=DIRECTION('',(-1.14180508415138E-46,-1.,9.5865156091168E-16));
#568=DIRECTION('',(-1.,5.5502470406843E-31,5.78963960107258E-16));
#569=DIRECTION('',(5.78963960107258E-16,0.,1.));
#570=DIRECTION('',(-5.78963960107258E-16,-9.5865156091168E-16,-1.));
#571=DIRECTION('',(0.,1.,-9.5865156091168E-16));
#572=DIRECTION('',(5.78963960107258E-16,9.5865156091168E-16,1.));
#573=DIRECTION('',(0.,-1.,9.5865156091168E-16));
#574=DIRECTION('',(5.78963960107258E-16,9.5865156091168E-16,1.));
#575=DIRECTION('',(0.,-1.,9.5865156091168E-16));
#576=DIRECTION('',(5.78963960107258E-16,9.5865156091168E-16,1.));
#577=DIRECTION('',(1.,-5.5502470406843E-31,-5.78963960107258E-16));
#578=DIRECTION('',(-1.,-5.67182053599243E-46,5.78963960107258E-16));
#579=DIRECTION('',(5.78963960107258E-16,9.5865156091168E-16,1.));
#580=DIRECTION('',(1.,-5.5502470406843E-31,-5.78963960107258E-16));
#581=DIRECTION('',(-5.78963960107258E-16,-9.5865156091168E-16,-1.));
#582=DIRECTION('',(0.,1.,-9.5865156091168E-16));
#583=DIRECTION('',(-5.78963960107258E-16,-9.5865156091168E-16,-1.));
#584=DIRECTION('',(0.,1.,-9.5865156091168E-16));
#585=DIRECTION('',(-5.78963960107258E-16,-9.5865156091168E-16,-1.));
#586=DIRECTION('',(0.,1.,-9.5865156091168E-16));
#587=DIRECTION('',(-5.78963960107258E-16,-9.5865156091168E-16,-1.));
#588=DIRECTION('',(0.,1.,-9.5865156091168E-16));
#589=DIRECTION('',(1.,1.75162308040602E-46,-5.78963960107258E-16));
#590=DIRECTION('',(-5.78963960107258E-16,-9.5865156091168E-16,-1.));
#591=DIRECTION('',(1.,-5.5502470406843E-31,-5.78963960107258E-16));
#592=DIRECTION('',(-1.,5.5502470406843E-31,5.78963960107258E-16));
#593=DIRECTION('',(1.,1.75162308040602E-46,-5.78963960107258E-16));
#594=DIRECTION('',(1.,1.75162308040602E-46,-5.78963960107258E-16));
#595=DIRECTION('',(-5.78963960107258E-16,0.,-1.));
#596=DIRECTION('',(-1.,5.5502470406843E-31,5.78963960107258E-16));
#597=DIRECTION('',(5.78963960107258E-16,0.,1.));
#598=DIRECTION('',(-5.78963960107258E-16,-9.5865156091168E-16,-1.));
#599=DIRECTION('',(0.,1.,-9.5865156091168E-16));
#600=DIRECTION('',(-5.78963960107258E-16,-9.5865156091168E-16,-1.));
#601=DIRECTION('',(0.,1.,-9.5865156091168E-16));
#602=DIRECTION('',(-5.78963960107258E-16,-9.5865156091168E-16,-1.));
#603=DIRECTION('',(1.,-5.5502470406843E-31,-5.78963960107258E-16));
#604=DIRECTION('',(-5.78963960107258E-16,-9.5865156091168E-16,-1.));
#605=DIRECTION('',(0.,1.,-9.5865156091168E-16));
#606=DIRECTION('',(-5.78963960107258E-16,-9.5865156091168E-16,-1.));
#607=DIRECTION('',(0.,1.,-9.5865156091168E-16));
#608=DIRECTION('',(-5.78963960107258E-16,-9.5865156091168E-16,-1.));
#609=DIRECTION('',(1.,-5.5502470406843E-31,-5.78963960107258E-16));
#610=DIRECTION('',(-5.78963960107258E-16,-9.5865156091168E-16,-1.));
#611=DIRECTION('',(0.,1.,-9.5865156091168E-16));
#612=DIRECTION('',(-5.78963960107258E-16,-9.5865156091168E-16,-1.));
#613=DIRECTION('',(0.,1.,-9.5865156091168E-16));
#614=DIRECTION('',(-5.78963960107258E-16,-9.5865156091168E-16,-1.));
#615=DIRECTION('',(1.,-5.5502470406843E-31,-5.78963960107258E-16));
#616=DIRECTION('',(-5.78963960107258E-16,-9.5865156091168E-16,-1.));
#617=DIRECTION('',(0.,1.,-9.5865156091168E-16));
#618=DIRECTION('',(-5.78963960107258E-16,-9.5865156091168E-16,-1.));
#619=DIRECTION('',(0.,1.,-9.5865156091168E-16));
#620=DIRECTION('',(-5.78963960107258E-16,-9.5865156091168E-16,-1.));
#621=DIRECTION('',(1.,-5.5502470406843E-31,-5.78963960107258E-16));
#622=CARTESIAN_POINT('',(0.,0.,0.));
#623=CARTESIAN_POINT('',(7.56613572816261E-17,1.78036838743844E-17,0.005));
#624=CARTESIAN_POINT('',(7.56613572816261E-17,1.78036838743844E-17,0.005));
#625=CARTESIAN_POINT('',(7.56613572816261E-17,-0.00149999999999998,0.005));
#626=CARTESIAN_POINT('',(7.39244654013044E-17,1.49277291916494E-17,0.002));
#627=CARTESIAN_POINT('',(7.39244654013044E-17,0.00150000000000001,0.002));
#628=CARTESIAN_POINT('',(0.0082,0.0082,0.005));
#629=CARTESIAN_POINT('',(0.0082,0.0082,0.005));
#630=CARTESIAN_POINT('',(0.0082,0.0067,0.005));
#631=CARTESIAN_POINT('',(0.0082,0.0082,0.002));
#632=CARTESIAN_POINT('',(0.0082,0.0097,0.002));
#633=CARTESIAN_POINT('',(0.0164,-1.49511479585752E-18,0.005));
#634=CARTESIAN_POINT('',(0.0164,-1.49511479585752E-18,0.005));
#635=CARTESIAN_POINT('',(0.0164,-0.0015,0.005));
#636=CARTESIAN_POINT('',(0.0164,-4.37106947859256E-18,0.002));
#637=CARTESIAN_POINT('',(0.0164,0.0015,0.002));
#638=CARTESIAN_POINT('',(0.0082000000000001,-0.0082,0.005));
#639=CARTESIAN_POINT('',(0.0082000000000001,-0.0082,0.005));
#640=CARTESIAN_POINT('',(0.0082000000000001,-0.0097,0.005));
#641=CARTESIAN_POINT('',(0.0082000000000001,-0.0082,0.002));
#642=CARTESIAN_POINT('',(0.0082000000000001,-0.0067,0.002));
#643=CARTESIAN_POINT('',(0.011,0.0171055546533867,0.005));
#644=CARTESIAN_POINT('',(0.011,0.0171055546533867,-1.02131101151339E-17));
#645=CARTESIAN_POINT('',(0.0120314636739416,0.0122131030502189,-6.12013404244422E-18));
#646=CARTESIAN_POINT('',(0.014,0.0131055546533867,-8.11539575180897E-18));
#647=CARTESIAN_POINT('',(0.0120314636739416,0.0122131030502189,0.005));
#648=CARTESIAN_POINT('',(0.0120314636739416,0.0122131030502189,0.005));
#649=CARTESIAN_POINT('',(0.011,0.0171055546533867,0.005));
#650=CARTESIAN_POINT('',(0.016,0.0171055546533867,0.005));
#651=CARTESIAN_POINT('',(0.016,0.0171055546533867,0.005));
#652=CARTESIAN_POINT('',(0.016,0.0171055546533867,-0.003));
#653=CARTESIAN_POINT('',(0.011,0.0171055546533867,-0.003));
#654=CARTESIAN_POINT('',(0.0159983864166009,0.0169785379995941,-0.003));
#655=CARTESIAN_POINT('',(0.0159983864166009,0.0169785379995941,-0.003));
#656=CARTESIAN_POINT('',(0.0159952462114774,0.01685496397866,-0.00252139987489833));
#657=CARTESIAN_POINT('',(0.0159795439589863,0.0164346719900556,-0.00162243952725809));
#658=CARTESIAN_POINT('',(0.0157443083022947,0.015362621023098,-0.000594529301813054));
#659=CARTESIAN_POINT('',(0.0150948553177723,0.0141130453753485,-6.5046978486707E-5));
#660=CARTESIAN_POINT('',(0.0143953968544921,0.0134021022942558,-8.43975736072614E-18));
#661=CARTESIAN_POINT('',(0.014,0.0131055546533867,-8.18254328354556E-18));
#662=CARTESIAN_POINT('',(0.00820000000000009,6.09430041154101E-18,0.005));
#663=CARTESIAN_POINT('',(0.0082,1.3010426069826E-18,7.80625564189564E-18));
#664=CARTESIAN_POINT('',(-0.00406534059377751,-0.00366079501182868,1.84168726564006E-17));
#665=CARTESIAN_POINT('',(-0.0040653405937775,-0.00366079501182867,0.005));
#666=CARTESIAN_POINT('',(-0.0040653405937775,-0.00366079501182867,0.005));
#667=CARTESIAN_POINT('',(0.00820000000000009,6.09430041154101E-18,0.005));
#668=CARTESIAN_POINT('',(-7.30198248862217E-5,-0.013540390529515,0.005));
#669=CARTESIAN_POINT('',(-7.30198248862246E-5,-0.013540390529515,2.55765524782309E-17));
#670=CARTESIAN_POINT('',(0.00391930094400495,-0.0234199860472014,3.27362323000614E-17));
#671=CARTESIAN_POINT('',(0.00391930094400496,-0.0234199860472014,0.005));
#672=CARTESIAN_POINT('',(0.00391930094400496,-0.0234199860472014,0.005));
#673=CARTESIAN_POINT('',(-7.30198248862217E-5,-0.013540390529515,0.005));
#674=CARTESIAN_POINT('',(0.0120642536820605,-0.0209889893596589,0.005));
#675=CARTESIAN_POINT('',(0.0120642536820605,-0.0209889893596589,2.56901194388665E-17));
#676=CARTESIAN_POINT('',(0.0205400124612804,-0.0203474964785791,2.01679924193747E-17));
#677=CARTESIAN_POINT('',(0.0205400124612804,-0.0203474964785791,0.005));
#678=CARTESIAN_POINT('',(0.0205400124612804,-0.0203474964785791,0.005));
#679=CARTESIAN_POINT('',(0.0120642536820605,-0.0209889893596589,0.005));
#680=CARTESIAN_POINT('',(0.0207700062306402,-0.0101737482392895,0.005));
#681=CARTESIAN_POINT('',(0.0207700062306402,-0.0101737482392896,1.02817546859487E-17));
#682=CARTESIAN_POINT('',(0.021,6.93889390390723E-18,3.95516952522734E-19));
#683=CARTESIAN_POINT('',(0.021,1.17321517084656E-17,0.005));
#684=CARTESIAN_POINT('',(0.021,1.17321517084656E-17,0.005));
#685=CARTESIAN_POINT('',(0.0207700062306402,-0.0101737482392895,0.005));
#686=CARTESIAN_POINT('',(0.021,0.0175,0.005));
#687=CARTESIAN_POINT('',(0.021,0.0260527773266933,-0.003));
#688=CARTESIAN_POINT('',(0.021,0.0171055546533867,-0.003));
#689=CARTESIAN_POINT('',(0.021,0.0169785379995941,-0.003));
#690=CARTESIAN_POINT('',(0.021,0.0171055546533867,0.0210131983914331));
#691=CARTESIAN_POINT('',(0.021,0.035,0.005));
#692=CARTESIAN_POINT('',(0.021,0.0175,0.005));
#693=CARTESIAN_POINT('',(0.021,0.0175,-1.63808853634317E-17));
#694=CARTESIAN_POINT('',(0.021,0.0131055546533867,-1.21681434725598E-17));
#695=CARTESIAN_POINT('',(0.021,0.0131055546533867,-0.004));
#696=CARTESIAN_POINT('',(0.0120642536820604,-0.0209889893596589,0.005));
#697=CARTESIAN_POINT('',(0.0120642536820604,-0.0209889893596589,0.005));
#698=CARTESIAN_POINT('',(0.0120642536820604,-0.0237889893596589,0.005));
#699=CARTESIAN_POINT('',(0.0120642536820604,-0.0209889893596589,2.56901194388666E-17));
#700=CARTESIAN_POINT('',(0.0120642536820604,-0.0237889893596589,2.83743438094193E-17));
#701=CARTESIAN_POINT('',(0.016,0.0260527773266933,0.005));
#702=CARTESIAN_POINT('',(0.016,0.0260527773266933,0.005));
#703=CARTESIAN_POINT('',(0.016,0.035,0.005));
#704=CARTESIAN_POINT('',(0.016,0.0171055546533867,0.0210131983914331));
#705=CARTESIAN_POINT('',(0.00820000000000009,8.46388481852974E-18,0.005));
#706=CARTESIAN_POINT('',(0.00820000000000009,8.46388481852974E-18,0.005));
#707=CARTESIAN_POINT('',(0.00820000000000009,-0.00514999999999999,0.00500000000000001));
#708=CARTESIAN_POINT('',(0.0082,3.67062701397134E-18,7.80625564189563E-18));
#709=CARTESIAN_POINT('',(0.0082,-0.00515,1.27433111805908E-17));
#710=CARTESIAN_POINT('',(0.00820000000000009,0.00275550532017056,0.005));
#711=CARTESIAN_POINT('',(0.0185,0.035,0.005));
#712=CARTESIAN_POINT('',(0.0082,0.00275550532017056,5.1646861656137E-18));
#713=CARTESIAN_POINT('',(7.32920668600201E-17,1.36712198553201E-17,1.25537601147751E-17));
#714=CARTESIAN_POINT('',(7.32920668600201E-17,0.00250000000000001,1.01571312124959E-17));
#715=CARTESIAN_POINT('',(0.0082,0.0082,-5.46871575801136E-20));
#716=CARTESIAN_POINT('',(0.0082,0.0107,-2.45131605985931E-18));
#717=CARTESIAN_POINT('',(0.00820000000000009,-0.0082,1.56671984413714E-17));
#718=CARTESIAN_POINT('',(0.00820000000000009,-0.0057,1.32705695390922E-17));
#719=CARTESIAN_POINT('',(0.0164,-8.17682062872512E-18,3.05875116901613E-18));
#720=CARTESIAN_POINT('',(0.0164,0.00249999999999999,6.62122266736925E-19));
#721=CARTESIAN_POINT('',(0.0082,0.0131055546533867,-4.75740478318687E-18));
#722=CARTESIAN_POINT('',(0.0185,0.0260527773266933,-0.003));
#723=CARTESIAN_POINT('',(0.021002,0.0171055546533867,-0.003));
#724=CARTESIAN_POINT('',(0.0185,0.0169785379995941,-0.003));
#725=CARTESIAN_POINT('',(0.0082,0.0131055546533867,-0.004));
#726=CARTESIAN_POINT('',(0.021002,0.0171055546533867,0.0210131983914331));
#727=CARTESIAN_POINT('',(0.0164,-6.25951750690176E-18,0.002));
#728=CARTESIAN_POINT('',(0.0164,-6.25951750690176E-18,0.002));
#729=CARTESIAN_POINT('',(0.0164,0.00249999999999999,0.002));
#730=CARTESIAN_POINT('',(0.00820000000000009,5.38675007377698E-18,0.002));
#731=CARTESIAN_POINT('',(0.00820000000000009,-0.0082,0.002));
#732=CARTESIAN_POINT('',(0.00820000000000009,-0.0082,0.002));
#733=CARTESIAN_POINT('',(0.00820000000000009,-0.0057,0.002));
#734=CARTESIAN_POINT('',(0.00820000000000009,5.38675007377698E-18,0.002));
#735=CARTESIAN_POINT('',(0.0082,0.0082,0.002));
#736=CARTESIAN_POINT('',(0.0082,0.0082,0.002));
#737=CARTESIAN_POINT('',(0.0082,0.0107,0.002));
#738=CARTESIAN_POINT('',(0.00820000000000009,5.38675007377698E-18,0.002));
#739=CARTESIAN_POINT('',(7.44499947802346E-17,1.55885229771434E-17,0.002));
#740=CARTESIAN_POINT('',(7.44499947802346E-17,1.55885229771434E-17,0.002));
#741=CARTESIAN_POINT('',(7.44499947802346E-17,0.00250000000000002,0.002));
#742=CARTESIAN_POINT('',(0.00820000000000009,5.38675007377698E-18,0.002));
#743=MECHANICAL_DESIGN_GEOMETRIC_PRESENTATION_REPRESENTATION('',(#422),
#744);
#744=(
GEOMETRIC_REPRESENTATION_CONTEXT(3)
GLOBAL_UNCERTAINTY_ASSIGNED_CONTEXT((#745))
GLOBAL_UNIT_ASSIGNED_CONTEXT((#748,#747,#746))
REPRESENTATION_CONTEXT('Part 1','TOP_LEVEL_ASSEMBLY_PART')
);
#745=UNCERTAINTY_MEASURE_WITH_UNIT(LENGTH_MEASURE(2.E-5),#748,
'DISTANCE_ACCURACY_VALUE','Maximum Tolerance applied to model');
#746=(
NAMED_UNIT(*)
SI_UNIT($,.STERADIAN.)
SOLID_ANGLE_UNIT()
);
#747=(
NAMED_UNIT(*)
PLANE_ANGLE_UNIT()
SI_UNIT($,.RADIAN.)
);
#748=(
LENGTH_UNIT()
NAMED_UNIT(*)
SI_UNIT($,.METRE.)
);
#749=PRODUCT_DEFINITION_SHAPE('','',#750);
#750=PRODUCT_DEFINITION('','',#752,#751);
#751=PRODUCT_DEFINITION_CONTEXT('',#758,'design');
#752=PRODUCT_DEFINITION_FORMATION_WITH_SPECIFIED_SOURCE('','',#754,
 .NOT_KNOWN.);
#753=PRODUCT_RELATED_PRODUCT_CATEGORY('','',(#754));
#754=PRODUCT('Part 1','Part 1','Part 1',(#756));
#755=PRODUCT_CATEGORY('','');
#756=PRODUCT_CONTEXT('',#758,'mechanical');
#757=APPLICATION_PROTOCOL_DEFINITION('international standard',
'ap242_managed_model_based_3d_engineering',2020,#758);
#758=APPLICATION_CONTEXT('managed model based 3d engineering');
ENDSEC;
END-ISO-10303-21;
