ISO-10303-21;
HEADER;
/* Generated by software containing ST-Developer
 * from STEP Tools, Inc. (www.steptools.com) 
 */
/* OPTION: using custom renumber hook */

FILE_DESCRIPTION(
/* description */ ('STEP AP242 Edition 2',
'CAx-IF Rec.Pracs.---Representation and Presentation of Product Manufa
cturing Information (PMI)---4.0---2014-10-13',
'CAx-IF Rec.Pracs.---3D Tessellated Geometry---0.4---2014-09-14','2;1',
'CAx-IF Rec.Pracs.---User Defined Attributes---1.5---2016-08-15'),
/* implementation_level */ '2;1');

FILE_NAME(
/* name */ 'plexisklo_s3',
/* time_stamp */ '2026-07-10T22:08:03Z',
/* author */ (''),
/* organization */ (''),
/* preprocessor_version */ 'ST-DEVELOPER v20',
/* originating_system */ 'ONSHAPE BY PTC INC, 1.217',
/* authorisation */ '  ');

FILE_SCHEMA (('AP242_MANAGED_MODEL_BASED_3D_ENGINEERING_MIM_LF { 1 0 10303 442 3 1 4 }'));
ENDSEC;

DATA;
#10=SHAPE_REPRESENTATION_RELATIONSHIP('','',#197,#11);
#11=ADVANCED_BREP_SHAPE_REPRESENTATION('',(#195),#315);
#12=CIRCLE('',#203,0.002);
#13=CIRCLE('',#204,0.002);
#14=CIRCLE('',#206,0.002);
#15=CIRCLE('',#207,0.002);
#16=CIRCLE('',#209,0.002);
#17=CIRCLE('',#210,0.002);
#18=CIRCLE('',#213,0.002);
#19=CIRCLE('',#214,0.002);
#20=CYLINDRICAL_SURFACE('',#202,0.002);
#21=CYLINDRICAL_SURFACE('',#205,0.002);
#22=CYLINDRICAL_SURFACE('',#208,0.002);
#23=CYLINDRICAL_SURFACE('',#212,0.002);
#24=ORIENTED_EDGE('',*,*,#64,.T.);
#25=ORIENTED_EDGE('',*,*,#65,.F.);
#26=ORIENTED_EDGE('',*,*,#66,.F.);
#27=ORIENTED_EDGE('',*,*,#67,.T.);
#28=ORIENTED_EDGE('',*,*,#68,.T.);
#29=ORIENTED_EDGE('',*,*,#67,.F.);
#30=ORIENTED_EDGE('',*,*,#69,.F.);
#31=ORIENTED_EDGE('',*,*,#70,.T.);
#32=ORIENTED_EDGE('',*,*,#71,.F.);
#33=ORIENTED_EDGE('',*,*,#70,.F.);
#34=ORIENTED_EDGE('',*,*,#72,.T.);
#35=ORIENTED_EDGE('',*,*,#73,.T.);
#36=ORIENTED_EDGE('',*,*,#74,.F.);
#37=ORIENTED_EDGE('',*,*,#75,.T.);
#38=ORIENTED_EDGE('',*,*,#76,.F.);
#39=ORIENTED_EDGE('',*,*,#77,.T.);
#40=ORIENTED_EDGE('',*,*,#78,.F.);
#41=ORIENTED_EDGE('',*,*,#79,.T.);
#42=ORIENTED_EDGE('',*,*,#80,.T.);
#43=ORIENTED_EDGE('',*,*,#73,.F.);
#44=ORIENTED_EDGE('',*,*,#81,.F.);
#45=ORIENTED_EDGE('',*,*,#65,.T.);
#46=ORIENTED_EDGE('',*,*,#82,.F.);
#47=ORIENTED_EDGE('',*,*,#83,.T.);
#48=ORIENTED_EDGE('',*,*,#66,.T.);
#49=ORIENTED_EDGE('',*,*,#81,.T.);
#50=ORIENTED_EDGE('',*,*,#72,.F.);
#51=ORIENTED_EDGE('',*,*,#69,.T.);
#52=ORIENTED_EDGE('',*,*,#78,.T.);
#53=ORIENTED_EDGE('',*,*,#76,.T.);
#54=ORIENTED_EDGE('',*,*,#74,.T.);
#55=ORIENTED_EDGE('',*,*,#82,.T.);
#56=ORIENTED_EDGE('',*,*,#64,.F.);
#57=ORIENTED_EDGE('',*,*,#68,.F.);
#58=ORIENTED_EDGE('',*,*,#71,.T.);
#59=ORIENTED_EDGE('',*,*,#80,.F.);
#60=ORIENTED_EDGE('',*,*,#79,.F.);
#61=ORIENTED_EDGE('',*,*,#77,.F.);
#62=ORIENTED_EDGE('',*,*,#75,.F.);
#63=ORIENTED_EDGE('',*,*,#83,.F.);
#64=EDGE_CURVE('',#84,#85,#100,.T.);
#65=EDGE_CURVE('',#86,#85,#101,.T.);
#66=EDGE_CURVE('',#87,#86,#102,.T.);
#67=EDGE_CURVE('',#87,#84,#103,.T.);
#68=EDGE_CURVE('',#88,#84,#104,.T.);
#69=EDGE_CURVE('',#89,#87,#105,.T.);
#70=EDGE_CURVE('',#89,#88,#106,.T.);
#71=EDGE_CURVE('',#88,#90,#107,.T.);
#72=EDGE_CURVE('',#89,#91,#108,.T.);
#73=EDGE_CURVE('',#91,#90,#109,.T.);
#74=EDGE_CURVE('',#92,#92,#12,.T.);
#75=EDGE_CURVE('',#93,#93,#13,.T.);
#76=EDGE_CURVE('',#94,#94,#14,.T.);
#77=EDGE_CURVE('',#95,#95,#15,.T.);
#78=EDGE_CURVE('',#96,#96,#16,.T.);
#79=EDGE_CURVE('',#97,#97,#17,.T.);
#80=EDGE_CURVE('',#85,#90,#110,.T.);
#81=EDGE_CURVE('',#86,#91,#111,.T.);
#82=EDGE_CURVE('',#98,#98,#18,.T.);
#83=EDGE_CURVE('',#99,#99,#19,.T.);
#84=VERTEX_POINT('',#270);
#85=VERTEX_POINT('',#271);
#86=VERTEX_POINT('',#273);
#87=VERTEX_POINT('',#275);
#88=VERTEX_POINT('',#279);
#89=VERTEX_POINT('',#281);
#90=VERTEX_POINT('',#285);
#91=VERTEX_POINT('',#287);
#92=VERTEX_POINT('',#291);
#93=VERTEX_POINT('',#293);
#94=VERTEX_POINT('',#296);
#95=VERTEX_POINT('',#298);
#96=VERTEX_POINT('',#301);
#97=VERTEX_POINT('',#303);
#98=VERTEX_POINT('',#309);
#99=VERTEX_POINT('',#311);
#100=LINE('',#269,#112);
#101=LINE('',#272,#113);
#102=LINE('',#274,#114);
#103=LINE('',#276,#115);
#104=LINE('',#278,#116);
#105=LINE('',#280,#117);
#106=LINE('',#282,#118);
#107=LINE('',#284,#119);
#108=LINE('',#286,#120);
#109=LINE('',#288,#121);
#110=LINE('',#305,#122);
#111=LINE('',#306,#123);
#112=VECTOR('',#221,1.);
#113=VECTOR('',#222,1.);
#114=VECTOR('',#223,1.);
#115=VECTOR('',#224,1.);
#116=VECTOR('',#227,1.);
#117=VECTOR('',#228,1.);
#118=VECTOR('',#229,1.);
#119=VECTOR('',#232,1.);
#120=VECTOR('',#233,1.);
#121=VECTOR('',#234,1.);
#122=VECTOR('',#255,1.);
#123=VECTOR('',#256,1.);
#124=EDGE_LOOP('',(#24,#25,#26,#27));
#125=EDGE_LOOP('',(#28,#29,#30,#31));
#126=EDGE_LOOP('',(#32,#33,#34,#35));
#127=EDGE_LOOP('',(#36));
#128=EDGE_LOOP('',(#37));
#129=EDGE_LOOP('',(#38));
#130=EDGE_LOOP('',(#39));
#131=EDGE_LOOP('',(#40));
#132=EDGE_LOOP('',(#41));
#133=EDGE_LOOP('',(#42,#43,#44,#45));
#134=EDGE_LOOP('',(#46));
#135=EDGE_LOOP('',(#47));
#136=EDGE_LOOP('',(#48,#49,#50,#51));
#137=EDGE_LOOP('',(#52));
#138=EDGE_LOOP('',(#53));
#139=EDGE_LOOP('',(#54));
#140=EDGE_LOOP('',(#55));
#141=EDGE_LOOP('',(#56,#57,#58,#59));
#142=EDGE_LOOP('',(#60));
#143=EDGE_LOOP('',(#61));
#144=EDGE_LOOP('',(#62));
#145=EDGE_LOOP('',(#63));
#146=FACE_BOUND('',#124,.T.);
#147=FACE_BOUND('',#125,.T.);
#148=FACE_BOUND('',#126,.T.);
#149=FACE_BOUND('',#127,.T.);
#150=FACE_BOUND('',#128,.T.);
#151=FACE_BOUND('',#129,.T.);
#152=FACE_BOUND('',#130,.T.);
#153=FACE_BOUND('',#131,.T.);
#154=FACE_BOUND('',#132,.T.);
#155=FACE_BOUND('',#133,.T.);
#156=FACE_BOUND('',#134,.T.);
#157=FACE_BOUND('',#135,.T.);
#158=FACE_BOUND('',#136,.T.);
#159=FACE_BOUND('',#137,.T.);
#160=FACE_BOUND('',#138,.T.);
#161=FACE_BOUND('',#139,.T.);
#162=FACE_BOUND('',#140,.T.);
#163=FACE_BOUND('',#141,.T.);
#164=FACE_BOUND('',#142,.T.);
#165=FACE_BOUND('',#143,.T.);
#166=FACE_BOUND('',#144,.T.);
#167=FACE_BOUND('',#145,.T.);
#168=PLANE('',#199);
#169=PLANE('',#200);
#170=PLANE('',#201);
#171=PLANE('',#211);
#172=PLANE('',#215);
#173=PLANE('',#216);
#174=ADVANCED_FACE('',(#146),#168,.F.);
#175=ADVANCED_FACE('',(#147),#169,.F.);
#176=ADVANCED_FACE('',(#148),#170,.T.);
#177=ADVANCED_FACE('',(#149,#150),#20,.F.);
#178=ADVANCED_FACE('',(#151,#152),#21,.F.);
#179=ADVANCED_FACE('',(#153,#154),#22,.F.);
#180=ADVANCED_FACE('',(#155),#171,.F.);
#181=ADVANCED_FACE('',(#156,#157),#23,.F.);
#182=ADVANCED_FACE('',(#158,#159,#160,#161,#162),#172,.F.);
#183=ADVANCED_FACE('',(#163,#164,#165,#166,#167),#173,.T.);
#184=CLOSED_SHELL('',(#174,#175,#176,#177,#178,#179,#180,#181,#182,#183));
#185=STYLED_ITEM('',(#186),#195);
#186=PRESENTATION_STYLE_ASSIGNMENT((#187));
#187=SURFACE_STYLE_USAGE(.BOTH.,#188);
#188=SURFACE_SIDE_STYLE('',(#191,#189));
#189=SURFACE_STYLE_RENDERING_WITH_PROPERTIES(.CONSTANT_SHADING.,#194,(#190));
#190=SURFACE_STYLE_TRANSPARENT(0.8);
#191=SURFACE_STYLE_FILL_AREA(#192);
#192=FILL_AREA_STYLE('',(#193));
#193=FILL_AREA_STYLE_COLOUR('',#194);
#194=COLOUR_RGB('',0.615686274509804,0.811764705882353,0.929411764705882);
#195=MANIFOLD_SOLID_BREP('Part 1',#184);
#196=SHAPE_DEFINITION_REPRESENTATION(#320,#197);
#197=SHAPE_REPRESENTATION('Part 1',(#198),#315);
#198=AXIS2_PLACEMENT_3D('',#267,#217,#218);
#199=AXIS2_PLACEMENT_3D('',#268,#219,#220);
#200=AXIS2_PLACEMENT_3D('',#277,#225,#226);
#201=AXIS2_PLACEMENT_3D('',#283,#230,#231);
#202=AXIS2_PLACEMENT_3D('',#289,#235,#236);
#203=AXIS2_PLACEMENT_3D('',#290,#237,#238);
#204=AXIS2_PLACEMENT_3D('',#292,#239,#240);
#205=AXIS2_PLACEMENT_3D('',#294,#241,#242);
#206=AXIS2_PLACEMENT_3D('',#295,#243,#244);
#207=AXIS2_PLACEMENT_3D('',#297,#245,#246);
#208=AXIS2_PLACEMENT_3D('',#299,#247,#248);
#209=AXIS2_PLACEMENT_3D('',#300,#249,#250);
#210=AXIS2_PLACEMENT_3D('',#302,#251,#252);
#211=AXIS2_PLACEMENT_3D('',#304,#253,#254);
#212=AXIS2_PLACEMENT_3D('',#307,#257,#258);
#213=AXIS2_PLACEMENT_3D('',#308,#259,#260);
#214=AXIS2_PLACEMENT_3D('',#310,#261,#262);
#215=AXIS2_PLACEMENT_3D('',#312,#263,#264);
#216=AXIS2_PLACEMENT_3D('',#313,#265,#266);
#217=DIRECTION('',(0.,0.,1.));
#218=DIRECTION('',(1.,0.,0.));
#219=DIRECTION('',(1.,-5.58837092932106E-16,0.));
#220=DIRECTION('',(5.58837092932106E-16,1.,0.));
#221=DIRECTION('',(5.58837092932106E-16,1.,0.));
#222=DIRECTION('',(0.,0.,1.));
#223=DIRECTION('',(5.58837092932106E-16,1.,0.));
#224=DIRECTION('',(0.,0.,1.));
#225=DIRECTION('',(0.,1.,0.));
#226=DIRECTION('',(0.,0.,1.));
#227=DIRECTION('',(-1.,0.,0.));
#228=DIRECTION('',(-1.,0.,0.));
#229=DIRECTION('',(0.,0.,1.));
#230=DIRECTION('',(1.,0.,0.));
#231=DIRECTION('',(0.,0.,-1.));
#232=DIRECTION('',(0.,1.,0.));
#233=DIRECTION('',(0.,1.,0.));
#234=DIRECTION('',(0.,0.,1.));
#235=DIRECTION('',(0.,0.,1.));
#236=DIRECTION('',(1.,0.,0.));
#237=DIRECTION('',(0.,0.,1.));
#238=DIRECTION('',(1.,0.,0.));
#239=DIRECTION('',(0.,0.,1.));
#240=DIRECTION('',(1.,0.,0.));
#241=DIRECTION('',(0.,0.,1.));
#242=DIRECTION('',(1.,0.,0.));
#243=DIRECTION('',(0.,0.,1.));
#244=DIRECTION('',(1.,0.,0.));
#245=DIRECTION('',(0.,0.,1.));
#246=DIRECTION('',(1.,0.,0.));
#247=DIRECTION('',(0.,0.,1.));
#248=DIRECTION('',(1.,0.,0.));
#249=DIRECTION('',(0.,0.,1.));
#250=DIRECTION('',(1.,0.,0.));
#251=DIRECTION('',(0.,0.,1.));
#252=DIRECTION('',(1.,0.,0.));
#253=DIRECTION('',(0.,-1.,0.));
#254=DIRECTION('',(0.,0.,-1.));
#255=DIRECTION('',(1.,0.,0.));
#256=DIRECTION('',(1.,0.,0.));
#257=DIRECTION('',(0.,0.,1.));
#258=DIRECTION('',(1.,0.,0.));
#259=DIRECTION('',(0.,0.,1.));
#260=DIRECTION('',(1.,0.,0.));
#261=DIRECTION('',(0.,0.,1.));
#262=DIRECTION('',(1.,0.,0.));
#263=DIRECTION('',(0.,0.,1.));
#264=DIRECTION('',(1.,0.,0.));
#265=DIRECTION('',(0.,0.,1.));
#266=DIRECTION('',(1.,0.,0.));
#267=CARTESIAN_POINT('',(0.,0.,0.));
#268=CARTESIAN_POINT('',(-0.0220000000000018,0.0600000000000024,-0.004));
#269=CARTESIAN_POINT('',(-0.0220000000000018,0.0600000000000024,0.));
#270=CARTESIAN_POINT('',(-0.0220000000000017,-0.0145000000000003,0.));
#271=CARTESIAN_POINT('',(-0.0219999999999894,0.134500000000004,0.));
#272=CARTESIAN_POINT('',(-0.0219999999999894,0.134500000000004,-0.004));
#273=CARTESIAN_POINT('',(-0.0219999999999894,0.134500000000004,-0.004));
#274=CARTESIAN_POINT('',(-0.0220000000000018,0.0600000000000024,-0.004));
#275=CARTESIAN_POINT('',(-0.0220000000000017,-0.0145000000000003,-0.004));
#276=CARTESIAN_POINT('',(-0.0220000000000017,-0.0145000000000003,-0.004));
#277=CARTESIAN_POINT('',(0.0712500000000051,-0.0145000000000003,-0.004));
#278=CARTESIAN_POINT('',(0.0712500000000051,-0.0145000000000003,0.));
#279=CARTESIAN_POINT('',(0.164500000000012,-0.0145000000000003,0.));
#280=CARTESIAN_POINT('',(0.0712500000000051,-0.0145000000000003,-0.004));
#281=CARTESIAN_POINT('',(0.164500000000012,-0.0145000000000003,-0.004));
#282=CARTESIAN_POINT('',(0.164500000000012,-0.0145000000000003,-0.004));
#283=CARTESIAN_POINT('',(0.164500000000012,0.0600000000000023,-0.004));
#284=CARTESIAN_POINT('',(0.164500000000012,0.0600000000000023,0.));
#285=CARTESIAN_POINT('',(0.164500000000012,0.134500000000005,0.));
#286=CARTESIAN_POINT('',(0.164500000000012,0.0600000000000023,-0.004));
#287=CARTESIAN_POINT('',(0.164500000000012,0.134500000000005,-0.004));
#288=CARTESIAN_POINT('',(0.164500000000012,0.134500000000005,-0.004));
#289=CARTESIAN_POINT('',(0.157500000000012,0.127500000000005,-0.004));
#290=CARTESIAN_POINT('',(0.157500000000012,0.127500000000005,-0.004));
#291=CARTESIAN_POINT('',(0.159500000000012,0.127500000000005,-0.004));
#292=CARTESIAN_POINT('',(0.157500000000012,0.127500000000005,0.));
#293=CARTESIAN_POINT('',(0.159500000000012,0.127500000000005,0.));
#294=CARTESIAN_POINT('',(0.157500000000012,-0.00750000000000026,-0.004));
#295=CARTESIAN_POINT('',(0.157500000000012,-0.00750000000000026,-0.004));
#296=CARTESIAN_POINT('',(0.159500000000012,-0.00750000000000026,-0.004));
#297=CARTESIAN_POINT('',(0.157500000000012,-0.00750000000000026,0.));
#298=CARTESIAN_POINT('',(0.159500000000012,-0.00750000000000026,0.));
#299=CARTESIAN_POINT('',(-0.0140000000000018,-0.0065000000000002,-0.004));
#300=CARTESIAN_POINT('',(-0.0140000000000018,-0.0065000000000002,-0.004));
#301=CARTESIAN_POINT('',(-0.0120000000000018,-0.0065000000000002,-0.004));
#302=CARTESIAN_POINT('',(-0.0140000000000018,-0.0065000000000002,0.));
#303=CARTESIAN_POINT('',(-0.0120000000000018,-0.0065000000000002,0.));
#304=CARTESIAN_POINT('',(0.0712500000000212,0.134500000000004,-0.004));
#305=CARTESIAN_POINT('',(0.0712500000000212,0.134500000000004,0.));
#306=CARTESIAN_POINT('',(0.0712500000000212,0.134500000000004,-0.004));
#307=CARTESIAN_POINT('',(-0.0140000000000017,0.126500000000005,-0.004));
#308=CARTESIAN_POINT('',(-0.0140000000000017,0.126500000000005,-0.004));
#309=CARTESIAN_POINT('',(-0.0120000000000017,0.126500000000005,-0.004));
#310=CARTESIAN_POINT('',(-0.0140000000000017,0.126500000000005,0.));
#311=CARTESIAN_POINT('',(-0.0120000000000017,0.126500000000005,0.));
#312=CARTESIAN_POINT('',(0.071250000000015,0.0600000000000024,-0.004));
#313=CARTESIAN_POINT('',(0.071250000000015,0.0600000000000024,0.));
#314=MECHANICAL_DESIGN_GEOMETRIC_PRESENTATION_REPRESENTATION('',(#185),
#315);
#315=(
GEOMETRIC_REPRESENTATION_CONTEXT(3)
GLOBAL_UNCERTAINTY_ASSIGNED_CONTEXT((#316))
GLOBAL_UNIT_ASSIGNED_CONTEXT((#319,#318,#317))
REPRESENTATION_CONTEXT('Part 1','TOP_LEVEL_ASSEMBLY_PART')
);
#316=UNCERTAINTY_MEASURE_WITH_UNIT(LENGTH_MEASURE(1.E-8),#319,
'DISTANCE_ACCURACY_VALUE','Maximum Tolerance applied to model');
#317=(
NAMED_UNIT(*)
SI_UNIT($,.STERADIAN.)
SOLID_ANGLE_UNIT()
);
#318=(
NAMED_UNIT(*)
PLANE_ANGLE_UNIT()
SI_UNIT($,.RADIAN.)
);
#319=(
LENGTH_UNIT()
NAMED_UNIT(*)
SI_UNIT($,.METRE.)
);
#320=PRODUCT_DEFINITION_SHAPE('','',#321);
#321=PRODUCT_DEFINITION('','',#323,#322);
#322=PRODUCT_DEFINITION_CONTEXT('',#329,'design');
#323=PRODUCT_DEFINITION_FORMATION_WITH_SPECIFIED_SOURCE('','',#325,
 .NOT_KNOWN.);
#324=PRODUCT_RELATED_PRODUCT_CATEGORY('','',(#325));
#325=PRODUCT('Part 1','Part 1','Part 1',(#327));
#326=PRODUCT_CATEGORY('','');
#327=PRODUCT_CONTEXT('',#329,'mechanical');
#328=APPLICATION_PROTOCOL_DEFINITION('international standard',
'ap242_managed_model_based_3d_engineering',2020,#329);
#329=APPLICATION_CONTEXT('managed model based 3d engineering');
ENDSEC;
END-ISO-10303-21;
