ISO-10303-21;
HEADER;
/* Generated by software containing ST-Developer
 * from STEP Tools, Inc. (www.steptools.com) 
 */
/* OPTION: using custom renumber hook */

FILE_DESCRIPTION(
/* description */ ('STEP AP242 Edition 2',
'CAx-IF Rec.Pracs.---Representation and Presentation of Product Manufa
cturing Information (PMI)---4.0---2014-10-13',
'CAx-IF Rec.Pracs.---3D Tessellated Geometry---0.4---2014-09-14','2;1',
'CAx-IF Rec.Pracs.---User Defined Attributes---1.5---2016-08-15'),
/* implementation_level */ '2;1');

FILE_NAME(
/* name */ 'reset_tlac_drzak',
/* time_stamp */ '2026-07-10T22:07:32Z',
/* author */ (''),
/* organization */ (''),
/* preprocessor_version */ 'ST-DEVELOPER v20',
/* originating_system */ 'ONSHAPE BY PTC INC, 1.217',
/* authorisation */ '  ');

FILE_SCHEMA (('AP242_MANAGED_MODEL_BASED_3D_ENGINEERING_MIM_LF { 1 0 10303 442 3 1 4 }'));
ENDSEC;

DATA;
#10=SHAPE_REPRESENTATION_RELATIONSHIP('','',#485,#11);
#11=ADVANCED_BREP_SHAPE_REPRESENTATION('',(#483),#831);
#12=TOROIDAL_SURFACE('',#539,0.01,0.004);
#13=TOROIDAL_SURFACE('',#540,0.01,0.004);
#14=B_SPLINE_CURVE_WITH_KNOTS('',3,(#789,#790,#791,#792,#793),
 .UNSPECIFIED.,.F.,.F.,(4,1,4),(0.,0.00317495892770098,0.00634991785540195),
 .UNSPECIFIED.);
#15=B_SPLINE_CURVE_WITH_KNOTS('',3,(#795,#796,#797,#798,#799),
 .UNSPECIFIED.,.F.,.F.,(4,1,4),(0.,0.00317469464815841,0.00634938929631682),
 .UNSPECIFIED.);
#16=B_SPLINE_CURVE_WITH_KNOTS('',3,(#805,#806,#807,#808,#809),
 .UNSPECIFIED.,.F.,.F.,(4,1,4),(0.,0.00317469464815846,0.00634938929631692),
 .UNSPECIFIED.);
#17=B_SPLINE_CURVE_WITH_KNOTS('',3,(#821,#822,#823,#824,#825),
 .UNSPECIFIED.,.F.,.F.,(4,1,4),(0.,0.00317495892770091,0.00634991785540181),
 .UNSPECIFIED.);
#18=PLANE('',#499);
#19=PLANE('',#504);
#20=PLANE('',#507);
#21=PLANE('',#512);
#22=PLANE('',#515);
#23=PLANE('',#525);
#24=PLANE('',#526);
#25=PLANE('',#527);
#26=PLANE('',#528);
#27=PLANE('',#529);
#28=PLANE('',#530);
#29=PLANE('',#531);
#30=PLANE('',#532);
#31=PLANE('',#534);
#32=PLANE('',#535);
#33=PLANE('',#536);
#34=PLANE('',#537);
#35=LINE('',#685,#65);
#36=LINE('',#690,#66);
#37=LINE('',#694,#67);
#38=LINE('',#698,#68);
#39=LINE('',#704,#69);
#40=LINE('',#709,#70);
#41=LINE('',#745,#71);
#42=LINE('',#747,#72);
#43=LINE('',#754,#73);
#44=LINE('',#755,#74);
#45=LINE('',#763,#75);
#46=LINE('',#764,#76);
#47=LINE('',#766,#77);
#48=LINE('',#767,#78);
#49=LINE('',#769,#79);
#50=LINE('',#771,#80);
#51=LINE('',#773,#81);
#52=LINE('',#774,#82);
#53=LINE('',#776,#83);
#54=LINE('',#778,#84);
#55=LINE('',#781,#85);
#56=LINE('',#783,#86);
#57=LINE('',#785,#87);
#58=LINE('',#787,#88);
#59=LINE('',#801,#89);
#60=LINE('',#811,#90);
#61=LINE('',#813,#91);
#62=LINE('',#815,#92);
#63=LINE('',#817,#93);
#64=LINE('',#819,#94);
#65=VECTOR('',#547,1.);
#66=VECTOR('',#550,1.);
#67=VECTOR('',#553,1.);
#68=VECTOR('',#556,1.);
#69=VECTOR('',#563,1.);
#70=VECTOR('',#566,1.);
#71=VECTOR('',#611,1.);
#72=VECTOR('',#612,1.);
#73=VECTOR('',#619,1.);
#74=VECTOR('',#620,1.);
#75=VECTOR('',#631,1.);
#76=VECTOR('',#632,1.);
#77=VECTOR('',#635,1.);
#78=VECTOR('',#636,1.);
#79=VECTOR('',#639,1.);
#80=VECTOR('',#640,1.);
#81=VECTOR('',#641,1.);
#82=VECTOR('',#642,1.);
#83=VECTOR('',#643,1.);
#84=VECTOR('',#644,1.);
#85=VECTOR('',#649,1.);
#86=VECTOR('',#650,1.);
#87=VECTOR('',#651,1.);
#88=VECTOR('',#654,1.);
#89=VECTOR('',#657,1.);
#90=VECTOR('',#664,1.);
#91=VECTOR('',#665,1.);
#92=VECTOR('',#668,1.);
#93=VECTOR('',#669,1.);
#94=VECTOR('',#672,1.);
#95=ORIENTED_EDGE('',*,*,#215,.T.);
#96=ORIENTED_EDGE('',*,*,#216,.F.);
#97=ORIENTED_EDGE('',*,*,#217,.T.);
#98=ORIENTED_EDGE('',*,*,#218,.T.);
#99=ORIENTED_EDGE('',*,*,#219,.F.);
#100=ORIENTED_EDGE('',*,*,#220,.F.);
#101=ORIENTED_EDGE('',*,*,#221,.F.);
#102=ORIENTED_EDGE('',*,*,#222,.T.);
#103=ORIENTED_EDGE('',*,*,#223,.F.);
#104=ORIENTED_EDGE('',*,*,#224,.T.);
#105=ORIENTED_EDGE('',*,*,#225,.F.);
#106=ORIENTED_EDGE('',*,*,#226,.T.);
#107=ORIENTED_EDGE('',*,*,#227,.T.);
#108=ORIENTED_EDGE('',*,*,#228,.F.);
#109=ORIENTED_EDGE('',*,*,#229,.F.);
#110=ORIENTED_EDGE('',*,*,#230,.F.);
#111=ORIENTED_EDGE('',*,*,#231,.F.);
#112=ORIENTED_EDGE('',*,*,#232,.T.);
#113=ORIENTED_EDGE('',*,*,#231,.T.);
#114=ORIENTED_EDGE('',*,*,#233,.F.);
#115=ORIENTED_EDGE('',*,*,#233,.T.);
#116=ORIENTED_EDGE('',*,*,#215,.F.);
#117=ORIENTED_EDGE('',*,*,#234,.T.);
#118=ORIENTED_EDGE('',*,*,#232,.F.);
#119=ORIENTED_EDGE('',*,*,#235,.F.);
#120=ORIENTED_EDGE('',*,*,#236,.T.);
#121=ORIENTED_EDGE('',*,*,#235,.T.);
#122=ORIENTED_EDGE('',*,*,#237,.F.);
#123=ORIENTED_EDGE('',*,*,#237,.T.);
#124=ORIENTED_EDGE('',*,*,#224,.F.);
#125=ORIENTED_EDGE('',*,*,#238,.T.);
#126=ORIENTED_EDGE('',*,*,#236,.F.);
#127=ORIENTED_EDGE('',*,*,#234,.F.);
#128=ORIENTED_EDGE('',*,*,#238,.F.);
#129=ORIENTED_EDGE('',*,*,#239,.F.);
#130=ORIENTED_EDGE('',*,*,#240,.F.);
#131=ORIENTED_EDGE('',*,*,#241,.F.);
#132=ORIENTED_EDGE('',*,*,#221,.T.);
#133=ORIENTED_EDGE('',*,*,#242,.T.);
#134=ORIENTED_EDGE('',*,*,#243,.T.);
#135=ORIENTED_EDGE('',*,*,#244,.T.);
#136=ORIENTED_EDGE('',*,*,#245,.F.);
#137=ORIENTED_EDGE('',*,*,#243,.F.);
#138=ORIENTED_EDGE('',*,*,#246,.T.);
#139=ORIENTED_EDGE('',*,*,#239,.T.);
#140=ORIENTED_EDGE('',*,*,#247,.F.);
#141=ORIENTED_EDGE('',*,*,#240,.T.);
#142=ORIENTED_EDGE('',*,*,#248,.F.);
#143=ORIENTED_EDGE('',*,*,#249,.T.);
#144=ORIENTED_EDGE('',*,*,#250,.T.);
#145=ORIENTED_EDGE('',*,*,#246,.F.);
#146=ORIENTED_EDGE('',*,*,#242,.F.);
#147=ORIENTED_EDGE('',*,*,#220,.T.);
#148=ORIENTED_EDGE('',*,*,#251,.F.);
#149=ORIENTED_EDGE('',*,*,#222,.F.);
#150=ORIENTED_EDGE('',*,*,#241,.T.);
#151=ORIENTED_EDGE('',*,*,#245,.T.);
#152=ORIENTED_EDGE('',*,*,#252,.F.);
#153=ORIENTED_EDGE('',*,*,#219,.T.);
#154=ORIENTED_EDGE('',*,*,#253,.T.);
#155=ORIENTED_EDGE('',*,*,#254,.T.);
#156=ORIENTED_EDGE('',*,*,#255,.F.);
#157=ORIENTED_EDGE('',*,*,#223,.T.);
#158=ORIENTED_EDGE('',*,*,#251,.T.);
#159=ORIENTED_EDGE('',*,*,#228,.T.);
#160=ORIENTED_EDGE('',*,*,#256,.F.);
#161=ORIENTED_EDGE('',*,*,#257,.F.);
#162=ORIENTED_EDGE('',*,*,#258,.T.);
#163=ORIENTED_EDGE('',*,*,#230,.T.);
#164=ORIENTED_EDGE('',*,*,#249,.F.);
#165=ORIENTED_EDGE('',*,*,#248,.T.);
#166=ORIENTED_EDGE('',*,*,#247,.T.);
#167=ORIENTED_EDGE('',*,*,#250,.F.);
#168=ORIENTED_EDGE('',*,*,#229,.T.);
#169=ORIENTED_EDGE('',*,*,#252,.T.);
#170=ORIENTED_EDGE('',*,*,#244,.F.);
#171=ORIENTED_EDGE('',*,*,#257,.T.);
#172=ORIENTED_EDGE('',*,*,#259,.F.);
#173=ORIENTED_EDGE('',*,*,#260,.F.);
#174=ORIENTED_EDGE('',*,*,#261,.T.);
#175=ORIENTED_EDGE('',*,*,#258,.F.);
#176=ORIENTED_EDGE('',*,*,#261,.F.);
#177=ORIENTED_EDGE('',*,*,#262,.T.);
#178=ORIENTED_EDGE('',*,*,#263,.T.);
#179=ORIENTED_EDGE('',*,*,#225,.T.);
#180=ORIENTED_EDGE('',*,*,#256,.T.);
#181=ORIENTED_EDGE('',*,*,#227,.F.);
#182=ORIENTED_EDGE('',*,*,#264,.T.);
#183=ORIENTED_EDGE('',*,*,#265,.F.);
#184=ORIENTED_EDGE('',*,*,#259,.T.);
#185=ORIENTED_EDGE('',*,*,#265,.T.);
#186=ORIENTED_EDGE('',*,*,#266,.T.);
#187=ORIENTED_EDGE('',*,*,#262,.F.);
#188=ORIENTED_EDGE('',*,*,#260,.T.);
#189=ORIENTED_EDGE('',*,*,#253,.F.);
#190=ORIENTED_EDGE('',*,*,#218,.F.);
#191=ORIENTED_EDGE('',*,*,#267,.T.);
#192=ORIENTED_EDGE('',*,*,#268,.T.);
#193=ORIENTED_EDGE('',*,*,#269,.T.);
#194=ORIENTED_EDGE('',*,*,#254,.F.);
#195=ORIENTED_EDGE('',*,*,#269,.F.);
#196=ORIENTED_EDGE('',*,*,#270,.T.);
#197=ORIENTED_EDGE('',*,*,#271,.T.);
#198=ORIENTED_EDGE('',*,*,#255,.T.);
#199=ORIENTED_EDGE('',*,*,#271,.F.);
#200=ORIENTED_EDGE('',*,*,#272,.F.);
#201=ORIENTED_EDGE('',*,*,#273,.T.);
#202=ORIENTED_EDGE('',*,*,#216,.T.);
#203=ORIENTED_EDGE('',*,*,#268,.F.);
#204=ORIENTED_EDGE('',*,*,#274,.T.);
#205=ORIENTED_EDGE('',*,*,#272,.T.);
#206=ORIENTED_EDGE('',*,*,#270,.F.);
#207=ORIENTED_EDGE('',*,*,#267,.F.);
#208=ORIENTED_EDGE('',*,*,#217,.F.);
#209=ORIENTED_EDGE('',*,*,#273,.F.);
#210=ORIENTED_EDGE('',*,*,#274,.F.);
#211=ORIENTED_EDGE('',*,*,#264,.F.);
#212=ORIENTED_EDGE('',*,*,#226,.F.);
#213=ORIENTED_EDGE('',*,*,#263,.F.);
#214=ORIENTED_EDGE('',*,*,#266,.F.);
#215=EDGE_CURVE('',#275,#275,#319,.T.);
#216=EDGE_CURVE('',#276,#277,#35,.T.);
#217=EDGE_CURVE('',#276,#278,#320,.F.);
#218=EDGE_CURVE('',#278,#279,#36,.T.);
#219=EDGE_CURVE('',#280,#279,#321,.T.);
#220=EDGE_CURVE('',#281,#280,#37,.T.);
#221=EDGE_CURVE('',#282,#281,#322,.T.);
#222=EDGE_CURVE('',#282,#283,#38,.T.);
#223=EDGE_CURVE('',#277,#283,#323,.T.);
#224=EDGE_CURVE('',#284,#284,#324,.T.);
#225=EDGE_CURVE('',#285,#286,#39,.T.);
#226=EDGE_CURVE('',#285,#287,#325,.F.);
#227=EDGE_CURVE('',#287,#288,#40,.T.);
#228=EDGE_CURVE('',#289,#288,#326,.T.);
#229=EDGE_CURVE('',#290,#289,#327,.T.);
#230=EDGE_CURVE('',#286,#290,#328,.T.);
#231=EDGE_CURVE('',#291,#291,#329,.T.);
#232=EDGE_CURVE('',#292,#292,#330,.T.);
#233=EDGE_CURVE('',#293,#293,#331,.T.);
#234=EDGE_CURVE('',#294,#294,#332,.T.);
#235=EDGE_CURVE('',#295,#295,#333,.T.);
#236=EDGE_CURVE('',#296,#296,#334,.T.);
#237=EDGE_CURVE('',#297,#297,#335,.T.);
#238=EDGE_CURVE('',#298,#298,#336,.T.);
#239=EDGE_CURVE('',#299,#299,#337,.T.);
#240=EDGE_CURVE('',#300,#300,#338,.T.);
#241=EDGE_CURVE('',#282,#301,#41,.T.);
#242=EDGE_CURVE('',#281,#302,#42,.T.);
#243=EDGE_CURVE('',#302,#301,#339,.T.);
#244=EDGE_CURVE('',#303,#304,#340,.T.);
#245=EDGE_CURVE('',#301,#304,#43,.T.);
#246=EDGE_CURVE('',#302,#303,#44,.T.);
#247=EDGE_CURVE('',#305,#305,#341,.T.);
#248=EDGE_CURVE('',#306,#306,#342,.T.);
#249=EDGE_CURVE('',#280,#290,#45,.T.);
#250=EDGE_CURVE('',#290,#303,#46,.T.);
#251=EDGE_CURVE('',#283,#289,#47,.T.);
#252=EDGE_CURVE('',#289,#304,#48,.T.);
#253=EDGE_CURVE('',#279,#307,#49,.T.);
#254=EDGE_CURVE('',#307,#308,#50,.T.);
#255=EDGE_CURVE('',#277,#308,#51,.T.);
#256=EDGE_CURVE('',#309,#288,#52,.T.);
#257=EDGE_CURVE('',#310,#309,#53,.T.);
#258=EDGE_CURVE('',#310,#286,#54,.T.);
#259=EDGE_CURVE('',#311,#309,#55,.T.);
#260=EDGE_CURVE('',#312,#311,#56,.T.);
#261=EDGE_CURVE('',#312,#310,#57,.T.);
#262=EDGE_CURVE('',#312,#313,#58,.T.);
#263=EDGE_CURVE('',#313,#285,#14,.T.);
#264=EDGE_CURVE('',#287,#314,#15,.T.);
#265=EDGE_CURVE('',#311,#314,#59,.T.);
#266=EDGE_CURVE('',#314,#313,#343,.T.);
#267=EDGE_CURVE('',#278,#315,#16,.T.);
#268=EDGE_CURVE('',#315,#316,#60,.T.);
#269=EDGE_CURVE('',#316,#307,#61,.T.);
#270=EDGE_CURVE('',#316,#317,#62,.T.);
#271=EDGE_CURVE('',#317,#308,#63,.T.);
#272=EDGE_CURVE('',#318,#317,#64,.T.);
#273=EDGE_CURVE('',#318,#276,#17,.T.);
#274=EDGE_CURVE('',#315,#318,#344,.T.);
#275=VERTEX_POINT('',#684);
#276=VERTEX_POINT('',#686);
#277=VERTEX_POINT('',#687);
#278=VERTEX_POINT('',#689);
#279=VERTEX_POINT('',#691);
#280=VERTEX_POINT('',#693);
#281=VERTEX_POINT('',#695);
#282=VERTEX_POINT('',#697);
#283=VERTEX_POINT('',#699);
#284=VERTEX_POINT('',#703);
#285=VERTEX_POINT('',#705);
#286=VERTEX_POINT('',#706);
#287=VERTEX_POINT('',#708);
#288=VERTEX_POINT('',#710);
#289=VERTEX_POINT('',#712);
#290=VERTEX_POINT('',#714);
#291=VERTEX_POINT('',#718);
#292=VERTEX_POINT('',#720);
#293=VERTEX_POINT('',#723);
#294=VERTEX_POINT('',#727);
#295=VERTEX_POINT('',#730);
#296=VERTEX_POINT('',#732);
#297=VERTEX_POINT('',#735);
#298=VERTEX_POINT('',#739);
#299=VERTEX_POINT('',#742);
#300=VERTEX_POINT('',#744);
#301=VERTEX_POINT('',#746);
#302=VERTEX_POINT('',#748);
#303=VERTEX_POINT('',#752);
#304=VERTEX_POINT('',#753);
#305=VERTEX_POINT('',#758);
#306=VERTEX_POINT('',#761);
#307=VERTEX_POINT('',#770);
#308=VERTEX_POINT('',#772);
#309=VERTEX_POINT('',#775);
#310=VERTEX_POINT('',#777);
#311=VERTEX_POINT('',#782);
#312=VERTEX_POINT('',#784);
#313=VERTEX_POINT('',#788);
#314=VERTEX_POINT('',#800);
#315=VERTEX_POINT('',#810);
#316=VERTEX_POINT('',#812);
#317=VERTEX_POINT('',#816);
#318=VERTEX_POINT('',#820);
#319=CIRCLE('',#488,0.006);
#320=CIRCLE('',#489,0.006);
#321=CIRCLE('',#490,0.006);
#322=CIRCLE('',#491,0.006);
#323=CIRCLE('',#492,0.006);
#324=CIRCLE('',#494,0.006);
#325=CIRCLE('',#495,0.006);
#326=CIRCLE('',#496,0.006);
#327=CIRCLE('',#497,0.006);
#328=CIRCLE('',#498,0.006);
#329=CIRCLE('',#500,0.0016);
#330=CIRCLE('',#501,0.003);
#331=CIRCLE('',#503,0.0016);
#332=CIRCLE('',#506,0.003);
#333=CIRCLE('',#508,0.0016);
#334=CIRCLE('',#509,0.003);
#335=CIRCLE('',#511,0.0016);
#336=CIRCLE('',#514,0.003);
#337=CIRCLE('',#516,0.00185);
#338=CIRCLE('',#517,0.00185);
#339=CIRCLE('',#518,0.006);
#340=CIRCLE('',#520,0.006);
#341=CIRCLE('',#522,0.00185);
#342=CIRCLE('',#524,0.00185);
#343=CIRCLE('',#533,0.01);
#344=CIRCLE('',#538,0.01);
#345=EDGE_LOOP('',(#95));
#346=EDGE_LOOP('',(#96,#97,#98,#99,#100,#101,#102,#103));
#347=EDGE_LOOP('',(#104));
#348=EDGE_LOOP('',(#105,#106,#107,#108,#109,#110));
#349=EDGE_LOOP('',(#111));
#350=EDGE_LOOP('',(#112));
#351=EDGE_LOOP('',(#113));
#352=EDGE_LOOP('',(#114));
#353=EDGE_LOOP('',(#115));
#354=EDGE_LOOP('',(#116));
#355=EDGE_LOOP('',(#117));
#356=EDGE_LOOP('',(#118));
#357=EDGE_LOOP('',(#119));
#358=EDGE_LOOP('',(#120));
#359=EDGE_LOOP('',(#121));
#360=EDGE_LOOP('',(#122));
#361=EDGE_LOOP('',(#123));
#362=EDGE_LOOP('',(#124));
#363=EDGE_LOOP('',(#125));
#364=EDGE_LOOP('',(#126));
#365=EDGE_LOOP('',(#127));
#366=EDGE_LOOP('',(#128));
#367=EDGE_LOOP('',(#129));
#368=EDGE_LOOP('',(#130));
#369=EDGE_LOOP('',(#131,#132,#133,#134));
#370=EDGE_LOOP('',(#135,#136,#137,#138));
#371=EDGE_LOOP('',(#139));
#372=EDGE_LOOP('',(#140));
#373=EDGE_LOOP('',(#141));
#374=EDGE_LOOP('',(#142));
#375=EDGE_LOOP('',(#143,#144,#145,#146,#147));
#376=EDGE_LOOP('',(#148,#149,#150,#151,#152));
#377=EDGE_LOOP('',(#153,#154,#155,#156,#157,#158,#159,#160,#161,#162,#163,
#164));
#378=EDGE_LOOP('',(#165));
#379=EDGE_LOOP('',(#166));
#380=EDGE_LOOP('',(#167,#168,#169,#170));
#381=EDGE_LOOP('',(#171,#172,#173,#174));
#382=EDGE_LOOP('',(#175,#176,#177,#178,#179));
#383=EDGE_LOOP('',(#180,#181,#182,#183,#184));
#384=EDGE_LOOP('',(#185,#186,#187,#188));
#385=EDGE_LOOP('',(#189,#190,#191,#192,#193));
#386=EDGE_LOOP('',(#194,#195,#196,#197));
#387=EDGE_LOOP('',(#198,#199,#200,#201,#202));
#388=EDGE_LOOP('',(#203,#204,#205,#206));
#389=EDGE_LOOP('',(#207,#208,#209,#210));
#390=EDGE_LOOP('',(#211,#212,#213,#214));
#391=FACE_BOUND('',#345,.T.);
#392=FACE_BOUND('',#346,.T.);
#393=FACE_BOUND('',#347,.T.);
#394=FACE_BOUND('',#348,.T.);
#395=FACE_BOUND('',#349,.T.);
#396=FACE_BOUND('',#350,.T.);
#397=FACE_BOUND('',#351,.T.);
#398=FACE_BOUND('',#352,.T.);
#399=FACE_BOUND('',#353,.T.);
#400=FACE_BOUND('',#354,.T.);
#401=FACE_BOUND('',#355,.T.);
#402=FACE_BOUND('',#356,.T.);
#403=FACE_BOUND('',#357,.T.);
#404=FACE_BOUND('',#358,.T.);
#405=FACE_BOUND('',#359,.T.);
#406=FACE_BOUND('',#360,.T.);
#407=FACE_BOUND('',#361,.T.);
#408=FACE_BOUND('',#362,.T.);
#409=FACE_BOUND('',#363,.T.);
#410=FACE_BOUND('',#364,.T.);
#411=FACE_BOUND('',#365,.T.);
#412=FACE_BOUND('',#366,.T.);
#413=FACE_BOUND('',#367,.T.);
#414=FACE_BOUND('',#368,.T.);
#415=FACE_BOUND('',#369,.T.);
#416=FACE_BOUND('',#370,.T.);
#417=FACE_BOUND('',#371,.T.);
#418=FACE_BOUND('',#372,.T.);
#419=FACE_BOUND('',#373,.T.);
#420=FACE_BOUND('',#374,.T.);
#421=FACE_BOUND('',#375,.T.);
#422=FACE_BOUND('',#376,.T.);
#423=FACE_BOUND('',#377,.T.);
#424=FACE_BOUND('',#378,.T.);
#425=FACE_BOUND('',#379,.T.);
#426=FACE_BOUND('',#380,.T.);
#427=FACE_BOUND('',#381,.T.);
#428=FACE_BOUND('',#382,.T.);
#429=FACE_BOUND('',#383,.T.);
#430=FACE_BOUND('',#384,.T.);
#431=FACE_BOUND('',#385,.T.);
#432=FACE_BOUND('',#386,.T.);
#433=FACE_BOUND('',#387,.T.);
#434=FACE_BOUND('',#388,.T.);
#435=FACE_BOUND('',#389,.T.);
#436=FACE_BOUND('',#390,.T.);
#437=CYLINDRICAL_SURFACE('',#487,0.006);
#438=CYLINDRICAL_SURFACE('',#493,0.006);
#439=CYLINDRICAL_SURFACE('',#502,0.0016);
#440=CYLINDRICAL_SURFACE('',#505,0.003);
#441=CYLINDRICAL_SURFACE('',#510,0.0016);
#442=CYLINDRICAL_SURFACE('',#513,0.003);
#443=CYLINDRICAL_SURFACE('',#519,0.006);
#444=CYLINDRICAL_SURFACE('',#521,0.00185);
#445=CYLINDRICAL_SURFACE('',#523,0.00185);
#446=ADVANCED_FACE('',(#391,#392),#437,.T.);
#447=ADVANCED_FACE('',(#393,#394),#438,.T.);
#448=ADVANCED_FACE('',(#395,#396),#18,.T.);
#449=ADVANCED_FACE('',(#397,#398),#439,.F.);
#450=ADVANCED_FACE('',(#399,#400),#19,.F.);
#451=ADVANCED_FACE('',(#401,#402),#440,.F.);
#452=ADVANCED_FACE('',(#403,#404),#20,.T.);
#453=ADVANCED_FACE('',(#405,#406),#441,.F.);
#454=ADVANCED_FACE('',(#407,#408),#21,.F.);
#455=ADVANCED_FACE('',(#409,#410),#442,.F.);
#456=ADVANCED_FACE('',(#411,#412,#413,#414,#415),#22,.T.);
#457=ADVANCED_FACE('',(#416),#443,.T.);
#458=ADVANCED_FACE('',(#417,#418),#444,.F.);
#459=ADVANCED_FACE('',(#419,#420),#445,.F.);
#460=ADVANCED_FACE('',(#421),#23,.F.);
#461=ADVANCED_FACE('',(#422),#24,.T.);
#462=ADVANCED_FACE('',(#423,#424),#25,.F.);
#463=ADVANCED_FACE('',(#425,#426),#26,.F.);
#464=ADVANCED_FACE('',(#427),#27,.F.);
#465=ADVANCED_FACE('',(#428),#28,.T.);
#466=ADVANCED_FACE('',(#429),#29,.F.);
#467=ADVANCED_FACE('',(#430),#30,.F.);
#468=ADVANCED_FACE('',(#431),#31,.T.);
#469=ADVANCED_FACE('',(#432),#32,.T.);
#470=ADVANCED_FACE('',(#433),#33,.F.);
#471=ADVANCED_FACE('',(#434),#34,.F.);
#472=ADVANCED_FACE('',(#435),#12,.F.);
#473=ADVANCED_FACE('',(#436),#13,.F.);
#474=CLOSED_SHELL('',(#446,#447,#448,#449,#450,#451,#452,#453,#454,#455,
#456,#457,#458,#459,#460,#461,#462,#463,#464,#465,#466,#467,#468,#469,#470,
#471,#472,#473));
#475=STYLED_ITEM('',(#476),#483);
#476=PRESENTATION_STYLE_ASSIGNMENT((#477));
#477=SURFACE_STYLE_USAGE(.BOTH.,#478);
#478=SURFACE_SIDE_STYLE('',(#479));
#479=SURFACE_STYLE_FILL_AREA(#480);
#480=FILL_AREA_STYLE('',(#481));
#481=FILL_AREA_STYLE_COLOUR('',#482);
#482=COLOUR_RGB('',0.372549019607843,0.654901960784314,0.23921568627451);
#483=MANIFOLD_SOLID_BREP('Part 1',#474);
#484=SHAPE_DEFINITION_REPRESENTATION(#836,#485);
#485=SHAPE_REPRESENTATION('Part 1',(#486),#831);
#486=AXIS2_PLACEMENT_3D('',#681,#541,#542);
#487=AXIS2_PLACEMENT_3D('',#682,#543,#544);
#488=AXIS2_PLACEMENT_3D('',#683,#545,#546);
#489=AXIS2_PLACEMENT_3D('',#688,#548,#549);
#490=AXIS2_PLACEMENT_3D('',#692,#551,#552);
#491=AXIS2_PLACEMENT_3D('',#696,#554,#555);
#492=AXIS2_PLACEMENT_3D('',#700,#557,#558);
#493=AXIS2_PLACEMENT_3D('',#701,#559,#560);
#494=AXIS2_PLACEMENT_3D('',#702,#561,#562);
#495=AXIS2_PLACEMENT_3D('',#707,#564,#565);
#496=AXIS2_PLACEMENT_3D('',#711,#567,#568);
#497=AXIS2_PLACEMENT_3D('',#713,#569,#570);
#498=AXIS2_PLACEMENT_3D('',#715,#571,#572);
#499=AXIS2_PLACEMENT_3D('',#716,#573,#574);
#500=AXIS2_PLACEMENT_3D('',#717,#575,#576);
#501=AXIS2_PLACEMENT_3D('',#719,#577,#578);
#502=AXIS2_PLACEMENT_3D('',#721,#579,#580);
#503=AXIS2_PLACEMENT_3D('',#722,#581,#582);
#504=AXIS2_PLACEMENT_3D('',#724,#583,#584);
#505=AXIS2_PLACEMENT_3D('',#725,#585,#586);
#506=AXIS2_PLACEMENT_3D('',#726,#587,#588);
#507=AXIS2_PLACEMENT_3D('',#728,#589,#590);
#508=AXIS2_PLACEMENT_3D('',#729,#591,#592);
#509=AXIS2_PLACEMENT_3D('',#731,#593,#594);
#510=AXIS2_PLACEMENT_3D('',#733,#595,#596);
#511=AXIS2_PLACEMENT_3D('',#734,#597,#598);
#512=AXIS2_PLACEMENT_3D('',#736,#599,#600);
#513=AXIS2_PLACEMENT_3D('',#737,#601,#602);
#514=AXIS2_PLACEMENT_3D('',#738,#603,#604);
#515=AXIS2_PLACEMENT_3D('',#740,#605,#606);
#516=AXIS2_PLACEMENT_3D('',#741,#607,#608);
#517=AXIS2_PLACEMENT_3D('',#743,#609,#610);
#518=AXIS2_PLACEMENT_3D('',#749,#613,#614);
#519=AXIS2_PLACEMENT_3D('',#750,#615,#616);
#520=AXIS2_PLACEMENT_3D('',#751,#617,#618);
#521=AXIS2_PLACEMENT_3D('',#756,#621,#622);
#522=AXIS2_PLACEMENT_3D('',#757,#623,#624);
#523=AXIS2_PLACEMENT_3D('',#759,#625,#626);
#524=AXIS2_PLACEMENT_3D('',#760,#627,#628);
#525=AXIS2_PLACEMENT_3D('',#762,#629,#630);
#526=AXIS2_PLACEMENT_3D('',#765,#633,#634);
#527=AXIS2_PLACEMENT_3D('',#768,#637,#638);
#528=AXIS2_PLACEMENT_3D('',#779,#645,#646);
#529=AXIS2_PLACEMENT_3D('',#780,#647,#648);
#530=AXIS2_PLACEMENT_3D('',#786,#652,#653);
#531=AXIS2_PLACEMENT_3D('',#794,#655,#656);
#532=AXIS2_PLACEMENT_3D('',#802,#658,#659);
#533=AXIS2_PLACEMENT_3D('',#803,#660,#661);
#534=AXIS2_PLACEMENT_3D('',#804,#662,#663);
#535=AXIS2_PLACEMENT_3D('',#814,#666,#667);
#536=AXIS2_PLACEMENT_3D('',#818,#670,#671);
#537=AXIS2_PLACEMENT_3D('',#826,#673,#674);
#538=AXIS2_PLACEMENT_3D('',#827,#675,#676);
#539=AXIS2_PLACEMENT_3D('',#828,#677,#678);
#540=AXIS2_PLACEMENT_3D('',#829,#679,#680);
#541=DIRECTION('',(0.,0.,1.));
#542=DIRECTION('',(1.,0.,0.));
#543=DIRECTION('',(1.64798730217795E-16,1.7041923427996E-14,-1.));
#544=DIRECTION('',(0.,1.,1.7041923427996E-14));
#545=DIRECTION('',(-1.64798730217795E-16,-1.7041923427996E-14,1.));
#546=DIRECTION('',(0.,-1.,-1.7041923427996E-14));
#547=DIRECTION('',(-1.64798730217795E-16,-1.7041923427996E-14,1.));
#548=DIRECTION('',(-1.64798730217795E-16,-1.7041923427996E-14,1.));
#549=DIRECTION('',(0.,-1.,-1.7041923427996E-14));
#550=DIRECTION('',(-1.64798730217795E-16,-1.7041923427996E-14,1.));
#551=DIRECTION('',(-1.64798730217795E-16,-1.7041923427996E-14,1.));
#552=DIRECTION('',(0.,-1.,-1.7041923427996E-14));
#553=DIRECTION('',(1.64798730217795E-16,1.7041923427996E-14,-1.));
#554=DIRECTION('',(-1.64798730217795E-16,-1.7041923427996E-14,1.));
#555=DIRECTION('',(0.,-1.,-1.7041923427996E-14));
#556=DIRECTION('',(1.64798730217795E-16,1.7041923427996E-14,-1.));
#557=DIRECTION('',(-1.64798730217795E-16,-1.7041923427996E-14,1.));
#558=DIRECTION('',(0.,-1.,-1.7041923427996E-14));
#559=DIRECTION('',(1.64798730217795E-16,1.7041923427996E-14,-1.));
#560=DIRECTION('',(0.,1.,1.7041923427996E-14));
#561=DIRECTION('',(-1.64798730217795E-16,-1.7041923427996E-14,1.));
#562=DIRECTION('',(0.,-1.,-1.7041923427996E-14));
#563=DIRECTION('',(-1.64798730217795E-16,-1.7041923427996E-14,1.));
#564=DIRECTION('',(-1.64798730217795E-16,-1.7041923427996E-14,1.));
#565=DIRECTION('',(0.,-1.,-1.7041923427996E-14));
#566=DIRECTION('',(-1.64798730217795E-16,-1.7041923427996E-14,1.));
#567=DIRECTION('',(-1.64798730217795E-16,-1.7041923427996E-14,1.));
#568=DIRECTION('',(0.,-1.,-1.7041923427996E-14));
#569=DIRECTION('',(-1.64798730217795E-16,-1.7041923427996E-14,1.));
#570=DIRECTION('',(0.,-1.,-1.7041923427996E-14));
#571=DIRECTION('',(-1.64798730217795E-16,-1.7041923427996E-14,1.));
#572=DIRECTION('',(0.,-1.,-1.7041923427996E-14));
#573=DIRECTION('',(-1.64798730217795E-16,-1.7041923427996E-14,1.));
#574=DIRECTION('',(1.,-2.80848734140262E-30,1.64798730217795E-16));
#575=DIRECTION('',(-1.64798730217795E-16,-1.7041923427996E-14,1.));
#576=DIRECTION('',(0.,-1.,-1.7041923427996E-14));
#577=DIRECTION('',(-1.64798730217795E-16,-1.7041923427996E-14,1.));
#578=DIRECTION('',(0.,-1.,-1.7041923427996E-14));
#579=DIRECTION('',(1.64798730217795E-16,1.7041923427996E-14,-1.));
#580=DIRECTION('',(0.,1.,1.7041923427996E-14));
#581=DIRECTION('',(-1.64798730217795E-16,-1.7041923427996E-14,1.));
#582=DIRECTION('',(0.,-1.,-1.7041923427996E-14));
#583=DIRECTION('',(-1.64798730217795E-16,-1.7041923427996E-14,1.));
#584=DIRECTION('',(1.,-2.80848734140262E-30,1.64798730217795E-16));
#585=DIRECTION('',(1.64798730217795E-16,1.7041923427996E-14,-1.));
#586=DIRECTION('',(0.,1.,1.7041923427996E-14));
#587=DIRECTION('',(-1.64798730217795E-16,-1.7041923427996E-14,1.));
#588=DIRECTION('',(0.,-1.,-1.7041923427996E-14));
#589=DIRECTION('',(-1.64798730217795E-16,-1.7041923427996E-14,1.));
#590=DIRECTION('',(1.,-2.80848734140262E-30,1.64798730217795E-16));
#591=DIRECTION('',(-1.64798730217795E-16,-1.7041923427996E-14,1.));
#592=DIRECTION('',(0.,-1.,-1.7041923427996E-14));
#593=DIRECTION('',(-1.64798730217795E-16,-1.7041923427996E-14,1.));
#594=DIRECTION('',(0.,-1.,-1.7041923427996E-14));
#595=DIRECTION('',(1.64798730217795E-16,1.7041923427996E-14,-1.));
#596=DIRECTION('',(0.,1.,1.7041923427996E-14));
#597=DIRECTION('',(-1.64798730217795E-16,-1.7041923427996E-14,1.));
#598=DIRECTION('',(0.,-1.,-1.7041923427996E-14));
#599=DIRECTION('',(-1.64798730217795E-16,-1.7041923427996E-14,1.));
#600=DIRECTION('',(1.,-2.80848734140262E-30,1.64798730217795E-16));
#601=DIRECTION('',(1.64798730217795E-16,1.7041923427996E-14,-1.));
#602=DIRECTION('',(0.,1.,1.7041923427996E-14));
#603=DIRECTION('',(-1.64798730217795E-16,-1.7041923427996E-14,1.));
#604=DIRECTION('',(0.,-1.,-1.7041923427996E-14));
#605=DIRECTION('',(-1.64798730217795E-16,-1.7041923427996E-14,1.));
#606=DIRECTION('',(1.,-2.80848734140262E-30,1.64798730217795E-16));
#607=DIRECTION('',(-1.64798730217795E-16,-1.7041923427996E-14,1.));
#608=DIRECTION('',(0.,-1.,-1.7041923427996E-14));
#609=DIRECTION('',(-1.64798730217795E-16,-1.7041923427996E-14,1.));
#610=DIRECTION('',(0.,-1.,-1.7041923427996E-14));
#611=DIRECTION('',(1.,-4.36001442625586E-32,1.64798730217795E-16));
#612=DIRECTION('',(1.,2.12160425119465E-16,1.64798730217798E-16));
#613=DIRECTION('',(-1.64798730217795E-16,-1.7041923427996E-14,1.));
#614=DIRECTION('',(0.,-1.,-1.7041923427996E-14));
#615=DIRECTION('',(1.64798730217795E-16,1.7041923427996E-14,-1.));
#616=DIRECTION('',(0.,1.,1.7041923427996E-14));
#617=DIRECTION('',(-1.64798730217795E-16,-1.7041923427996E-14,1.));
#618=DIRECTION('',(0.,-1.,-1.7041923427996E-14));
#619=DIRECTION('',(1.64798730217795E-16,1.7041923427996E-14,-1.));
#620=DIRECTION('',(1.64798730217795E-16,1.7041923427996E-14,-1.));
#621=DIRECTION('',(1.64798730217795E-16,1.7041923427996E-14,-1.));
#622=DIRECTION('',(0.,1.,1.7041923427996E-14));
#623=DIRECTION('',(-1.64798730217795E-16,-1.7041923427996E-14,1.));
#624=DIRECTION('',(0.,-1.,-1.7041923427996E-14));
#625=DIRECTION('',(1.64798730217795E-16,1.7041923427996E-14,-1.));
#626=DIRECTION('',(0.,1.,1.7041923427996E-14));
#627=DIRECTION('',(-1.64798730217795E-16,-1.7041923427996E-14,1.));
#628=DIRECTION('',(0.,-1.,-1.7041923427996E-14));
#629=DIRECTION('',(-2.12160425119468E-16,1.,1.7041923427996E-14));
#630=DIRECTION('',(0.,-1.7041923427996E-14,1.));
#631=DIRECTION('',(1.,2.12160425119465E-16,1.64798730217798E-16));
#632=DIRECTION('',(1.,2.12160425119465E-16,1.64798730217798E-16));
#633=DIRECTION('',(-2.76488719714006E-30,1.,1.7041923427996E-14));
#634=DIRECTION('',(0.,-1.7041923427996E-14,1.));
#635=DIRECTION('',(1.,-4.36001442625586E-32,1.64798730217795E-16));
#636=DIRECTION('',(1.,-4.36001442625586E-32,1.64798730217795E-16));
#637=DIRECTION('',(-1.64798730217795E-16,-1.7041923427996E-14,1.));
#638=DIRECTION('',(1.,-2.80848734140262E-30,1.64798730217795E-16));
#639=DIRECTION('',(1.,-8.59907264081594E-31,1.64798730217795E-16));
#640=DIRECTION('',(-2.11551367328439E-32,1.,1.7041923427996E-14));
#641=DIRECTION('',(1.,-8.59907264081594E-31,1.64798730217795E-16));
#642=DIRECTION('',(1.,-9.3923390727126E-32,1.64798730217795E-16));
#643=DIRECTION('',(5.0314919797144E-32,1.,1.7041923427996E-14));
#644=DIRECTION('',(1.,-9.3923390727126E-32,1.64798730217795E-16));
#645=DIRECTION('',(-1.64798730217795E-16,-1.7041923427996E-14,1.));
#646=DIRECTION('',(1.,-2.80848734140262E-30,1.64798730217795E-16));
#647=DIRECTION('',(1.,-2.85880226119976E-30,1.64798730217795E-16));
#648=DIRECTION('',(1.64798730217795E-16,0.,-1.));
#649=DIRECTION('',(-1.64798730217795E-16,-1.7041923427996E-14,1.));
#650=DIRECTION('',(5.0314919797144E-32,1.,1.7041923427996E-14));
#651=DIRECTION('',(-1.64798730217795E-16,-1.7041923427996E-14,1.));
#652=DIRECTION('',(2.71456395067549E-30,-1.,-1.7041923427996E-14));
#653=DIRECTION('',(0.,1.7041923427996E-14,-1.));
#654=DIRECTION('',(1.,-9.3923390727126E-32,1.64798730217795E-16));
#655=DIRECTION('',(2.71456395067549E-30,-1.,-1.7041923427996E-14));
#656=DIRECTION('',(0.,1.7041923427996E-14,-1.));
#657=DIRECTION('',(1.,-9.3923390727126E-32,1.64798730217795E-16));
#658=DIRECTION('',(-1.64798730217795E-16,-1.7041923427996E-14,1.));
#659=DIRECTION('',(1.,-2.80848734140262E-30,1.64798730217795E-16));
#660=DIRECTION('',(-1.64798730217795E-16,-1.7041923427996E-14,1.));
#661=DIRECTION('',(0.,-1.,-1.7041923427996E-14));
#662=DIRECTION('',(1.94858007732103E-30,-1.,-1.7041923427996E-14));
#663=DIRECTION('',(0.,1.7041923427996E-14,-1.));
#664=DIRECTION('',(1.,-8.59907264081594E-31,1.64798730217795E-16));
#665=DIRECTION('',(-1.64798730217795E-16,-1.7041923427996E-14,1.));
#666=DIRECTION('',(1.,-2.78733220466977E-30,1.64798730217795E-16));
#667=DIRECTION('',(1.64798730217795E-16,0.,-1.));
#668=DIRECTION('',(-2.11551367328439E-32,1.,1.7041923427996E-14));
#669=DIRECTION('',(-1.64798730217795E-16,-1.7041923427996E-14,1.));
#670=DIRECTION('',(1.94858007732103E-30,-1.,-1.7041923427996E-14));
#671=DIRECTION('',(0.,1.7041923427996E-14,-1.));
#672=DIRECTION('',(1.,-8.59907264081594E-31,1.64798730217795E-16));
#673=DIRECTION('',(-1.64798730217795E-16,-1.7041923427996E-14,1.));
#674=DIRECTION('',(1.,-2.80848734140262E-30,1.64798730217795E-16));
#675=DIRECTION('',(-1.64798730217795E-16,-1.7041923427996E-14,1.));
#676=DIRECTION('',(0.,-1.,-1.7041923427996E-14));
#677=DIRECTION('',(-1.64798730217795E-16,-1.7041923427996E-14,1.));
#678=DIRECTION('',(0.,-1.,-1.7041923427996E-14));
#679=DIRECTION('',(-1.64798730217795E-16,-1.7041923427996E-14,1.));
#680=DIRECTION('',(0.,-1.,-1.7041923427996E-14));
#681=CARTESIAN_POINT('',(0.,0.,0.));
#682=CARTESIAN_POINT('',(-5.6170346152129E-17,-2.6166936248724E-17,0.00399999999999588));
#683=CARTESIAN_POINT('',(-5.55111512312578E-17,4.20007574632597E-17,-4.12132133975635E-15));
#684=CARTESIAN_POINT('',(-5.55111512312578E-17,-0.00599999999999996,-4.22357288032432E-15));
#685=CARTESIAN_POINT('',(0.00565685424949239,0.00199999999999962,0.0129999999999959));
#686=CARTESIAN_POINT('',(0.00565685424949239,0.00199999999999969,0.00899999999999591));
#687=CARTESIAN_POINT('',(0.00565685424949239,0.00199999999999959,0.0149999999999959));
#688=CARTESIAN_POINT('',(-5.6994339803218E-17,-1.11376553388704E-16,0.00899999999999588));
#689=CARTESIAN_POINT('',(0.00565685424949223,-0.00200000000000037,0.00899999999999585));
#690=CARTESIAN_POINT('',(0.00565685424949223,-0.00200000000000044,0.0129999999999958));
#691=CARTESIAN_POINT('',(0.00565685424949223,-0.00200000000000047,0.0149999999999958));
#692=CARTESIAN_POINT('',(-5.8191299001642E-17,-2.13260699916935E-16,0.0149999999999959));
#693=CARTESIAN_POINT('',(-5.8191299001642E-17,-0.00600000000000021,0.0149999999999958));
#694=CARTESIAN_POINT('',(-6.59194920871179E-19,-0.00600000000000028,0.0189999999999958));
#695=CARTESIAN_POINT('',(-6.59194920871179E-19,-0.00600000000000028,0.0189999999999958));
#696=CARTESIAN_POINT('',(-7.05128359268281E-18,-2.81538681257131E-16,0.0189999999999959));
#697=CARTESIAN_POINT('',(-6.59194920871179E-19,0.00599999999999972,0.018999999999996));
#698=CARTESIAN_POINT('',(-6.59194920871179E-19,0.00599999999999972,0.018999999999996));
#699=CARTESIAN_POINT('',(-9.19203948308029E-35,0.00599999999999979,0.014999999999996));
#700=CARTESIAN_POINT('',(-5.8191299001642E-17,-2.13260699916935E-16,0.0149999999999959));
#701=CARTESIAN_POINT('',(0.12000000000001,-6.78002996721697E-17,0.0039999999999959));
#702=CARTESIAN_POINT('',(0.12000000000001,3.67394039814104E-19,-4.10154549213021E-15));
#703=CARTESIAN_POINT('',(0.12000000000001,-0.006,-4.20379703269819E-15));
#704=CARTESIAN_POINT('',(0.114343145750517,-0.00200000000000039,0.0129999999999959));
#705=CARTESIAN_POINT('',(0.114343145750517,-0.00200000000000032,0.00899999999999586));
#706=CARTESIAN_POINT('',(0.114343145750517,-0.00200000000000043,0.0149999999999959));
#707=CARTESIAN_POINT('',(0.12000000000001,-1.53009916812149E-16,0.0089999999999959));
#708=CARTESIAN_POINT('',(0.114343145750517,0.00199999999999963,0.00899999999999593));
#709=CARTESIAN_POINT('',(0.114343145750517,0.00199999999999957,0.0129999999999959));
#710=CARTESIAN_POINT('',(0.114343145750517,0.00199999999999953,0.0149999999999959));
#711=CARTESIAN_POINT('',(0.12000000000001,-2.54894063340381E-16,0.0149999999999959));
#712=CARTESIAN_POINT('',(0.12000000000001,0.00599999999999979,0.014999999999996));
#713=CARTESIAN_POINT('',(0.12000000000001,-2.54894063340381E-16,0.0149999999999959));
#714=CARTESIAN_POINT('',(0.12000000000001,-0.00600000000000019,0.0149999999999958));
#715=CARTESIAN_POINT('',(0.12000000000001,-2.54894063340381E-16,0.0149999999999959));
#716=CARTESIAN_POINT('',(0.0600000000000049,-4.7351012000192E-17,0.00399999999999589));
#717=CARTESIAN_POINT('',(-5.6170346152129E-17,-2.64363585445364E-17,0.00399999999999588));
#718=CARTESIAN_POINT('',(-5.6170346152129E-17,-0.00160000000000003,0.00399999999999585));
#719=CARTESIAN_POINT('',(-5.63785129692462E-17,-2.62526615246643E-17,0.00399999999999588));
#720=CARTESIAN_POINT('',(-5.63785129692462E-17,-0.00300000000000003,0.00399999999999583));
#721=CARTESIAN_POINT('',(-5.6170346152129E-17,-2.64363585445364E-17,0.00399999999999588));
#722=CARTESIAN_POINT('',(-5.55111512312578E-17,4.17313351674473E-17,-4.12132133975635E-15));
#723=CARTESIAN_POINT('',(-5.55111512312578E-17,-0.00159999999999996,-4.14858841724114E-15));
#724=CARTESIAN_POINT('',(0.0600000000000049,2.08166817117917E-17,-4.11143341594327E-15));
#725=CARTESIAN_POINT('',(-5.8191299001642E-17,-2.13713819232619E-16,0.0149999999999959));
#726=CARTESIAN_POINT('',(-5.85469173142172E-17,-2.81612090648791E-16,0.0189999999999959));
#727=CARTESIAN_POINT('',(-5.85469173142172E-17,-0.00300000000000028,0.0189999999999958));
#728=CARTESIAN_POINT('',(0.0600000000000049,-4.7351012000192E-17,0.00399999999999589));
#729=CARTESIAN_POINT('',(0.12000000000001,-6.80697219679821E-17,0.0039999999999959));
#730=CARTESIAN_POINT('',(0.12000000000001,-0.00160000000000007,0.00399999999999587));
#731=CARTESIAN_POINT('',(0.12000000000001,-6.76166026522976E-17,0.0039999999999959));
#732=CARTESIAN_POINT('',(0.12000000000001,-0.00300000000000007,0.00399999999999585));
#733=CARTESIAN_POINT('',(0.12000000000001,-6.80697219679821E-17,0.0039999999999959));
#734=CARTESIAN_POINT('',(0.12000000000001,9.79717440016865E-20,-4.10154549213021E-15));
#735=CARTESIAN_POINT('',(0.12000000000001,-0.0016,-4.128812569615E-15));
#736=CARTESIAN_POINT('',(0.0600000000000049,2.08166817117917E-17,-4.11143341594327E-15));
#737=CARTESIAN_POINT('',(0.12000000000001,-2.55077760360253E-16,0.0149999999999959));
#738=CARTESIAN_POINT('',(0.12,-2.81612090648792E-16,0.0189999999999959));
#739=CARTESIAN_POINT('',(0.12,-0.00300000000000028,0.0189999999999958));
#740=CARTESIAN_POINT('',(0.07125,-0.00347580258930711,0.0189999999999959));
#741=CARTESIAN_POINT('',(0.14100000000001,-3.23683265302932E-16,0.0189999999999959));
#742=CARTESIAN_POINT('',(0.14100000000001,-0.00185000000000032,0.0189999999999959));
#743=CARTESIAN_POINT('',(0.0429999999999855,-3.23683265302932E-16,0.0189999999999959));
#744=CARTESIAN_POINT('',(0.0429999999999855,-0.00185000000000032,0.0189999999999959));
#745=CARTESIAN_POINT('',(0.0695,0.00599999999999972,0.018999999999996));
#746=CARTESIAN_POINT('',(0.139,0.00599999999999962,0.018999999999996));
#747=CARTESIAN_POINT('',(0.0695,-0.00600000000000027,0.0189999999999958));
#748=CARTESIAN_POINT('',(0.139,-0.00600000000000027,0.0189999999999958));
#749=CARTESIAN_POINT('',(0.139,-2.66638957653349E-16,0.0189999999999959));
#750=CARTESIAN_POINT('',(0.139,-2.66638957653349E-16,0.0189999999999959));
#751=CARTESIAN_POINT('',(0.139,-1.98471263941364E-16,0.0149999999999959));
#752=CARTESIAN_POINT('',(0.139,-0.0060000000000002,0.0149999999999958));
#753=CARTESIAN_POINT('',(0.139,0.00599999999999969,0.014999999999996));
#754=CARTESIAN_POINT('',(0.139,0.00599999999999962,0.018999999999996));
#755=CARTESIAN_POINT('',(0.139,-0.00600000000000027,0.0189999999999958));
#756=CARTESIAN_POINT('',(0.14100000000001,-3.23683265302932E-16,0.0189999999999959));
#757=CARTESIAN_POINT('',(0.14100000000001,-2.55515571590948E-16,0.0149999999999959));
#758=CARTESIAN_POINT('',(0.14100000000001,-0.00185000000000026,0.0149999999999959));
#759=CARTESIAN_POINT('',(0.0429999999999855,-3.23683265302932E-16,0.0189999999999959));
#760=CARTESIAN_POINT('',(0.0429999999999855,-2.55515571590948E-16,0.0149999999999959));
#761=CARTESIAN_POINT('',(0.0429999999999855,-0.00185000000000026,0.0149999999999959));
#762=CARTESIAN_POINT('',(0.0695,-0.00600000000000027,0.0189999999999958));
#763=CARTESIAN_POINT('',(0.0695,-0.0060000000000002,0.0149999999999958));
#764=CARTESIAN_POINT('',(0.0695,-0.0060000000000002,0.0149999999999958));
#765=CARTESIAN_POINT('',(0.0695,0.00599999999999972,0.018999999999996));
#766=CARTESIAN_POINT('',(0.0695,0.00599999999999979,0.014999999999996));
#767=CARTESIAN_POINT('',(0.0695,0.00599999999999979,0.014999999999996));
#768=CARTESIAN_POINT('',(0.07125,-0.00347580258930705,0.0149999999999958));
#769=CARTESIAN_POINT('',(0.0208284271247461,-0.00200000000000047,0.0149999999999958));
#770=CARTESIAN_POINT('',(0.036,-0.00200000000000047,0.0149999999999958));
#771=CARTESIAN_POINT('',(0.036,-4.69242700251726E-16,0.0149999999999959));
#772=CARTESIAN_POINT('',(0.036,0.00199999999999957,0.0149999999999959));
#773=CARTESIAN_POINT('',(0.0208284271247461,0.00199999999999953,0.0149999999999959));
#774=CARTESIAN_POINT('',(0.0816715728752635,0.00199999999999954,0.0149999999999959));
#775=CARTESIAN_POINT('',(0.0490000000000098,0.00199999999999954,0.0149999999999959));
#776=CARTESIAN_POINT('',(0.0490000000000098,-4.64905891561784E-16,0.0149999999999959));
#777=CARTESIAN_POINT('',(0.0490000000000098,-0.00200000000000047,0.0149999999999958));
#778=CARTESIAN_POINT('',(0.0816715728752635,-0.00200000000000047,0.0149999999999959));
#779=CARTESIAN_POINT('',(0.07125,-0.00347580258930705,0.0149999999999958));
#780=CARTESIAN_POINT('',(0.0490000000000098,-4.30822044705793E-16,0.0129999999999959));
#781=CARTESIAN_POINT('',(0.0490000000000098,0.00199999999999958,0.0129999999999959));
#782=CARTESIAN_POINT('',(0.0490000000000098,0.00199999999999958,0.0129999999999959));
#783=CARTESIAN_POINT('',(0.0490000000000098,-4.30822044705793E-16,0.0129999999999959));
#784=CARTESIAN_POINT('',(0.0490000000000098,-0.00200000000000044,0.0129999999999958));
#785=CARTESIAN_POINT('',(0.0490000000000098,-0.00200000000000044,0.0129999999999958));
#786=CARTESIAN_POINT('',(0.0816715728752635,-0.00200000000000044,0.0129999999999959));
#787=CARTESIAN_POINT('',(0.0816715728752635,-0.00200000000000044,0.0129999999999959));
#788=CARTESIAN_POINT('',(0.110202041028877,-0.00200000000000044,0.0129999999999959));
#789=CARTESIAN_POINT('',(0.110202041028877,-0.00200000000000044,0.0129999999999959));
#790=CARTESIAN_POINT('',(0.111275724945931,-0.00200000000000044,0.0129999999999959));
#791=CARTESIAN_POINT('',(0.113381786332989,-0.00200000000000042,0.0121525953799966));
#792=CARTESIAN_POINT('',(0.114343145750517,-0.00200000000000038,0.0100747394032945));
#793=CARTESIAN_POINT('',(0.114343145750517,-0.00200000000000037,0.00899999999999586));
#794=CARTESIAN_POINT('',(0.0816715728752635,0.00199999999999958,0.0129999999999959));
#795=CARTESIAN_POINT('',(0.114343145750517,0.00199999999999963,0.00899999999999593));
#796=CARTESIAN_POINT('',(0.114343145750517,0.00199999999999962,0.0100740314363341));
#797=CARTESIAN_POINT('',(0.113385234751924,0.00199999999999959,0.0121500014774894));
#798=CARTESIAN_POINT('',(0.111275035546905,0.00199999999999958,0.0129999999999959));
#799=CARTESIAN_POINT('',(0.110202041028877,0.00199999999999958,0.0129999999999959));
#800=CARTESIAN_POINT('',(0.110202041028877,0.00199999999999958,0.0129999999999959));
#801=CARTESIAN_POINT('',(0.0816715728752635,0.00199999999999958,0.0129999999999959));
#802=CARTESIAN_POINT('',(0.0600000000000048,-4.07160416493396E-16,0.0129999999999959));
#803=CARTESIAN_POINT('',(0.12000000000001,-2.21177610524133E-16,0.0129999999999959));
#804=CARTESIAN_POINT('',(0.0208284271247461,-0.00200000000000044,0.0129999999999958));
#805=CARTESIAN_POINT('',(0.00565685424949223,-0.00200000000000037,0.00899999999999585));
#806=CARTESIAN_POINT('',(0.00565685424949223,-0.00200000000000039,0.0100740314363341));
#807=CARTESIAN_POINT('',(0.00661476524808581,-0.00200000000000042,0.0121500014774893));
#808=CARTESIAN_POINT('',(0.00872496445310463,-0.00200000000000044,0.0129999999999958));
#809=CARTESIAN_POINT('',(0.00979795897113261,-0.00200000000000044,0.0129999999999958));
#810=CARTESIAN_POINT('',(0.0097979589711326,-0.00200000000000044,0.0129999999999958));
#811=CARTESIAN_POINT('',(0.0208284271247461,-0.00200000000000044,0.0129999999999958));
#812=CARTESIAN_POINT('',(0.036,-0.00200000000000044,0.0129999999999958));
#813=CARTESIAN_POINT('',(0.036,-0.00200000000000044,0.0129999999999958));
#814=CARTESIAN_POINT('',(0.036,-4.35158853395735E-16,0.0129999999999959));
#815=CARTESIAN_POINT('',(0.036,-4.35158853395735E-16,0.0129999999999959));
#816=CARTESIAN_POINT('',(0.036,0.00199999999999957,0.0129999999999959));
#817=CARTESIAN_POINT('',(0.036,0.00199999999999957,0.0129999999999959));
#818=CARTESIAN_POINT('',(0.0208284271247461,0.00199999999999957,0.0129999999999959));
#819=CARTESIAN_POINT('',(0.0208284271247461,0.00199999999999957,0.0129999999999959));
#820=CARTESIAN_POINT('',(0.00979795897113271,0.00199999999999957,0.0129999999999959));
#821=CARTESIAN_POINT('',(0.00979795897113271,0.00199999999999957,0.0129999999999959));
#822=CARTESIAN_POINT('',(0.00872427505407847,0.00199999999999957,0.0129999999999959));
#823=CARTESIAN_POINT('',(0.00661821366702072,0.00199999999999958,0.0121525953799966));
#824=CARTESIAN_POINT('',(0.00565685424949241,0.00199999999999962,0.0100747394032945));
#825=CARTESIAN_POINT('',(0.00565685424949241,0.00199999999999963,0.00899999999999591));
#826=CARTESIAN_POINT('',(0.0600000000000048,-4.07160416493396E-16,0.0129999999999959));
#827=CARTESIAN_POINT('',(-5.76535347240892E-17,-1.79544247100687E-16,0.0129999999999959));
#828=CARTESIAN_POINT('',(-5.6994339803218E-17,-1.11376553388704E-16,0.00899999999999588));
#829=CARTESIAN_POINT('',(0.12000000000001,-1.53009916812149E-16,0.0089999999999959));
#830=MECHANICAL_DESIGN_GEOMETRIC_PRESENTATION_REPRESENTATION('',(#475),
#831);
#831=(
GEOMETRIC_REPRESENTATION_CONTEXT(3)
GLOBAL_UNCERTAINTY_ASSIGNED_CONTEXT((#832))
GLOBAL_UNIT_ASSIGNED_CONTEXT((#835,#834,#833))
REPRESENTATION_CONTEXT('Part 1','TOP_LEVEL_ASSEMBLY_PART')
);
#832=UNCERTAINTY_MEASURE_WITH_UNIT(LENGTH_MEASURE(2.E-5),#835,
'DISTANCE_ACCURACY_VALUE','Maximum Tolerance applied to model');
#833=(
NAMED_UNIT(*)
SI_UNIT($,.STERADIAN.)
SOLID_ANGLE_UNIT()
);
#834=(
NAMED_UNIT(*)
PLANE_ANGLE_UNIT()
SI_UNIT($,.RADIAN.)
);
#835=(
LENGTH_UNIT()
NAMED_UNIT(*)
SI_UNIT($,.METRE.)
);
#836=PRODUCT_DEFINITION_SHAPE('','',#837);
#837=PRODUCT_DEFINITION('','',#839,#838);
#838=PRODUCT_DEFINITION_CONTEXT('',#845,'design');
#839=PRODUCT_DEFINITION_FORMATION_WITH_SPECIFIED_SOURCE('','',#841,
 .NOT_KNOWN.);
#840=PRODUCT_RELATED_PRODUCT_CATEGORY('','',(#841));
#841=PRODUCT('Part 1','Part 1','Part 1',(#843));
#842=PRODUCT_CATEGORY('','');
#843=PRODUCT_CONTEXT('',#845,'mechanical');
#844=APPLICATION_PROTOCOL_DEFINITION('international standard',
'ap242_managed_model_based_3d_engineering',2020,#845);
#845=APPLICATION_CONTEXT('managed model based 3d engineering');
ENDSEC;
END-ISO-10303-21;
