ISO-10303-21;
HEADER;
/* Generated by software containing ST-Developer
 * from STEP Tools, Inc. (www.steptools.com) 
 */
/* OPTION: using custom renumber hook */

FILE_DESCRIPTION(
/* description */ ('STEP AP242 Edition 2',
'CAx-IF Rec.Pracs.---Representation and Presentation of Product Manufa
cturing Information (PMI)---4.0---2014-10-13',
'CAx-IF Rec.Pracs.---3D Tessellated Geometry---0.4---2014-09-14','2;1',
'CAx-IF Rec.Pracs.---User Defined Attributes---1.5---2016-08-15'),
/* implementation_level */ '2;1');

FILE_NAME(
/* name */ 'smart_s_drzak',
/* time_stamp */ '2026-09-10T17:47:17Z',
/* author */ (''),
/* organization */ (''),
/* preprocessor_version */ 'ST-DEVELOPER v20',
/* originating_system */ 'ONSHAPE BY PTC INC, 1.220',
/* authorisation */ '  ');

FILE_SCHEMA (('AP242_MANAGED_MODEL_BASED_3D_ENGINEERING_MIM_LF { 1 0 10303 442 3 1 4 }'));
ENDSEC;

DATA;
#10=SHAPE_REPRESENTATION_RELATIONSHIP('','',#780,#11);
#11=ADVANCED_BREP_SHAPE_REPRESENTATION('',(#778),#1258);
#12=CYLINDRICAL_SURFACE('',#798,0.001);
#13=CYLINDRICAL_SURFACE('',#802,0.001);
#14=CYLINDRICAL_SURFACE('',#813,0.171981521739131);
#15=CYLINDRICAL_SURFACE('',#819,0.0016);
#16=CYLINDRICAL_SURFACE('',#821,0.0016);
#17=CYLINDRICAL_SURFACE('',#823,0.0016);
#18=CYLINDRICAL_SURFACE('',#827,0.003);
#19=CYLINDRICAL_SURFACE('',#828,0.003);
#20=CYLINDRICAL_SURFACE('',#831,0.003);
#21=CIRCLE('',#786,0.003);
#22=CIRCLE('',#788,0.0016);
#23=CIRCLE('',#789,0.0016);
#24=CIRCLE('',#790,0.0016);
#25=CIRCLE('',#791,0.171981521739131);
#26=CIRCLE('',#799,0.001);
#27=CIRCLE('',#800,0.001);
#28=CIRCLE('',#803,0.001);
#29=CIRCLE('',#804,0.001);
#30=CIRCLE('',#811,0.003);
#31=CIRCLE('',#814,0.17198152173913);
#32=CIRCLE('',#820,0.0016);
#33=CIRCLE('',#822,0.0016);
#34=CIRCLE('',#824,0.0016);
#35=CIRCLE('',#826,0.003);
#36=CIRCLE('',#829,0.003);
#37=CIRCLE('',#832,0.003);
#38=CIRCLE('',#833,0.003);
#39=ORIENTED_EDGE('',*,*,#241,.T.);
#40=ORIENTED_EDGE('',*,*,#242,.T.);
#41=ORIENTED_EDGE('',*,*,#243,.T.);
#42=ORIENTED_EDGE('',*,*,#244,.F.);
#43=ORIENTED_EDGE('',*,*,#245,.F.);
#44=ORIENTED_EDGE('',*,*,#246,.F.);
#45=ORIENTED_EDGE('',*,*,#247,.T.);
#46=ORIENTED_EDGE('',*,*,#248,.T.);
#47=ORIENTED_EDGE('',*,*,#249,.F.);
#48=ORIENTED_EDGE('',*,*,#250,.F.);
#49=ORIENTED_EDGE('',*,*,#251,.F.);
#50=ORIENTED_EDGE('',*,*,#248,.F.);
#51=ORIENTED_EDGE('',*,*,#252,.T.);
#52=ORIENTED_EDGE('',*,*,#253,.T.);
#53=ORIENTED_EDGE('',*,*,#254,.F.);
#54=ORIENTED_EDGE('',*,*,#255,.F.);
#55=ORIENTED_EDGE('',*,*,#256,.T.);
#56=ORIENTED_EDGE('',*,*,#244,.T.);
#57=ORIENTED_EDGE('',*,*,#257,.T.);
#58=ORIENTED_EDGE('',*,*,#258,.F.);
#59=ORIENTED_EDGE('',*,*,#259,.F.);
#60=ORIENTED_EDGE('',*,*,#260,.F.);
#61=ORIENTED_EDGE('',*,*,#261,.F.);
#62=ORIENTED_EDGE('',*,*,#262,.T.);
#63=ORIENTED_EDGE('',*,*,#263,.T.);
#64=ORIENTED_EDGE('',*,*,#264,.F.);
#65=ORIENTED_EDGE('',*,*,#265,.T.);
#66=ORIENTED_EDGE('',*,*,#266,.T.);
#67=ORIENTED_EDGE('',*,*,#267,.T.);
#68=ORIENTED_EDGE('',*,*,#268,.T.);
#69=ORIENTED_EDGE('',*,*,#269,.T.);
#70=ORIENTED_EDGE('',*,*,#270,.F.);
#71=ORIENTED_EDGE('',*,*,#271,.F.);
#72=ORIENTED_EDGE('',*,*,#272,.T.);
#73=ORIENTED_EDGE('',*,*,#246,.T.);
#74=ORIENTED_EDGE('',*,*,#273,.T.);
#75=ORIENTED_EDGE('',*,*,#274,.F.);
#76=ORIENTED_EDGE('',*,*,#253,.F.);
#77=ORIENTED_EDGE('',*,*,#275,.T.);
#78=ORIENTED_EDGE('',*,*,#276,.F.);
#79=ORIENTED_EDGE('',*,*,#271,.T.);
#80=ORIENTED_EDGE('',*,*,#277,.T.);
#81=ORIENTED_EDGE('',*,*,#255,.T.);
#82=ORIENTED_EDGE('',*,*,#278,.F.);
#83=ORIENTED_EDGE('',*,*,#279,.F.);
#84=ORIENTED_EDGE('',*,*,#280,.F.);
#85=ORIENTED_EDGE('',*,*,#273,.F.);
#86=ORIENTED_EDGE('',*,*,#281,.F.);
#87=ORIENTED_EDGE('',*,*,#282,.T.);
#88=ORIENTED_EDGE('',*,*,#283,.F.);
#89=ORIENTED_EDGE('',*,*,#284,.T.);
#90=ORIENTED_EDGE('',*,*,#285,.F.);
#91=ORIENTED_EDGE('',*,*,#286,.T.);
#92=ORIENTED_EDGE('',*,*,#267,.F.);
#93=ORIENTED_EDGE('',*,*,#287,.F.);
#94=ORIENTED_EDGE('',*,*,#288,.F.);
#95=ORIENTED_EDGE('',*,*,#289,.F.);
#96=ORIENTED_EDGE('',*,*,#290,.T.);
#97=ORIENTED_EDGE('',*,*,#291,.T.);
#98=ORIENTED_EDGE('',*,*,#292,.T.);
#99=ORIENTED_EDGE('',*,*,#293,.F.);
#100=ORIENTED_EDGE('',*,*,#294,.F.);
#101=ORIENTED_EDGE('',*,*,#289,.T.);
#102=ORIENTED_EDGE('',*,*,#295,.F.);
#103=ORIENTED_EDGE('',*,*,#296,.F.);
#104=ORIENTED_EDGE('',*,*,#297,.F.);
#105=ORIENTED_EDGE('',*,*,#298,.T.);
#106=ORIENTED_EDGE('',*,*,#293,.T.);
#107=ORIENTED_EDGE('',*,*,#299,.F.);
#108=ORIENTED_EDGE('',*,*,#300,.F.);
#109=ORIENTED_EDGE('',*,*,#264,.T.);
#110=ORIENTED_EDGE('',*,*,#301,.T.);
#111=ORIENTED_EDGE('',*,*,#302,.T.);
#112=ORIENTED_EDGE('',*,*,#303,.F.);
#113=ORIENTED_EDGE('',*,*,#304,.T.);
#114=ORIENTED_EDGE('',*,*,#297,.T.);
#115=ORIENTED_EDGE('',*,*,#296,.T.);
#116=ORIENTED_EDGE('',*,*,#305,.T.);
#117=ORIENTED_EDGE('',*,*,#306,.F.);
#118=ORIENTED_EDGE('',*,*,#307,.F.);
#119=ORIENTED_EDGE('',*,*,#303,.T.);
#120=ORIENTED_EDGE('',*,*,#308,.T.);
#121=ORIENTED_EDGE('',*,*,#309,.F.);
#122=ORIENTED_EDGE('',*,*,#310,.T.);
#123=ORIENTED_EDGE('',*,*,#306,.T.);
#124=ORIENTED_EDGE('',*,*,#311,.T.);
#125=ORIENTED_EDGE('',*,*,#312,.F.);
#126=ORIENTED_EDGE('',*,*,#262,.F.);
#127=ORIENTED_EDGE('',*,*,#313,.T.);
#128=ORIENTED_EDGE('',*,*,#314,.T.);
#129=ORIENTED_EDGE('',*,*,#315,.F.);
#130=ORIENTED_EDGE('',*,*,#316,.F.);
#131=ORIENTED_EDGE('',*,*,#309,.T.);
#132=ORIENTED_EDGE('',*,*,#317,.F.);
#133=ORIENTED_EDGE('',*,*,#291,.F.);
#134=ORIENTED_EDGE('',*,*,#318,.T.);
#135=ORIENTED_EDGE('',*,*,#315,.T.);
#136=ORIENTED_EDGE('',*,*,#287,.T.);
#137=ORIENTED_EDGE('',*,*,#266,.F.);
#138=ORIENTED_EDGE('',*,*,#319,.T.);
#139=ORIENTED_EDGE('',*,*,#282,.F.);
#140=ORIENTED_EDGE('',*,*,#320,.F.);
#141=ORIENTED_EDGE('',*,*,#321,.T.);
#142=ORIENTED_EDGE('',*,*,#268,.F.);
#143=ORIENTED_EDGE('',*,*,#286,.F.);
#144=ORIENTED_EDGE('',*,*,#322,.F.);
#145=ORIENTED_EDGE('',*,*,#250,.T.);
#146=ORIENTED_EDGE('',*,*,#323,.F.);
#147=ORIENTED_EDGE('',*,*,#269,.F.);
#148=ORIENTED_EDGE('',*,*,#321,.F.);
#149=ORIENTED_EDGE('',*,*,#324,.F.);
#150=ORIENTED_EDGE('',*,*,#325,.T.);
#151=ORIENTED_EDGE('',*,*,#311,.F.);
#152=ORIENTED_EDGE('',*,*,#308,.F.);
#153=ORIENTED_EDGE('',*,*,#305,.F.);
#154=ORIENTED_EDGE('',*,*,#302,.F.);
#155=ORIENTED_EDGE('',*,*,#295,.T.);
#156=ORIENTED_EDGE('',*,*,#326,.F.);
#157=ORIENTED_EDGE('',*,*,#314,.F.);
#158=ORIENTED_EDGE('',*,*,#327,.T.);
#159=ORIENTED_EDGE('',*,*,#299,.T.);
#160=ORIENTED_EDGE('',*,*,#292,.F.);
#161=ORIENTED_EDGE('',*,*,#288,.T.);
#162=ORIENTED_EDGE('',*,*,#317,.T.);
#163=ORIENTED_EDGE('',*,*,#323,.T.);
#164=ORIENTED_EDGE('',*,*,#328,.F.);
#165=ORIENTED_EDGE('',*,*,#319,.F.);
#166=ORIENTED_EDGE('',*,*,#265,.F.);
#167=ORIENTED_EDGE('',*,*,#327,.F.);
#168=ORIENTED_EDGE('',*,*,#313,.F.);
#169=ORIENTED_EDGE('',*,*,#261,.T.);
#170=ORIENTED_EDGE('',*,*,#300,.T.);
#171=ORIENTED_EDGE('',*,*,#326,.T.);
#172=ORIENTED_EDGE('',*,*,#301,.F.);
#173=ORIENTED_EDGE('',*,*,#263,.F.);
#174=ORIENTED_EDGE('',*,*,#312,.T.);
#175=ORIENTED_EDGE('',*,*,#243,.F.);
#176=ORIENTED_EDGE('',*,*,#329,.T.);
#177=ORIENTED_EDGE('',*,*,#330,.T.);
#178=ORIENTED_EDGE('',*,*,#278,.T.);
#179=ORIENTED_EDGE('',*,*,#257,.F.);
#180=ORIENTED_EDGE('',*,*,#331,.F.);
#181=ORIENTED_EDGE('',*,*,#283,.T.);
#182=ORIENTED_EDGE('',*,*,#320,.T.);
#183=ORIENTED_EDGE('',*,*,#281,.T.);
#184=ORIENTED_EDGE('',*,*,#279,.T.);
#185=ORIENTED_EDGE('',*,*,#330,.F.);
#186=ORIENTED_EDGE('',*,*,#310,.F.);
#187=ORIENTED_EDGE('',*,*,#316,.T.);
#188=ORIENTED_EDGE('',*,*,#318,.F.);
#189=ORIENTED_EDGE('',*,*,#290,.F.);
#190=ORIENTED_EDGE('',*,*,#294,.T.);
#191=ORIENTED_EDGE('',*,*,#298,.F.);
#192=ORIENTED_EDGE('',*,*,#304,.F.);
#193=ORIENTED_EDGE('',*,*,#307,.T.);
#194=ORIENTED_EDGE('',*,*,#332,.T.);
#195=ORIENTED_EDGE('',*,*,#259,.T.);
#196=ORIENTED_EDGE('',*,*,#333,.T.);
#197=ORIENTED_EDGE('',*,*,#260,.T.);
#198=ORIENTED_EDGE('',*,*,#334,.T.);
#199=ORIENTED_EDGE('',*,*,#258,.T.);
#200=ORIENTED_EDGE('',*,*,#335,.F.);
#201=ORIENTED_EDGE('',*,*,#334,.F.);
#202=ORIENTED_EDGE('',*,*,#254,.T.);
#203=ORIENTED_EDGE('',*,*,#335,.T.);
#204=ORIENTED_EDGE('',*,*,#336,.T.);
#205=ORIENTED_EDGE('',*,*,#325,.F.);
#206=ORIENTED_EDGE('',*,*,#336,.F.);
#207=ORIENTED_EDGE('',*,*,#333,.F.);
#208=ORIENTED_EDGE('',*,*,#337,.T.);
#209=ORIENTED_EDGE('',*,*,#338,.T.);
#210=ORIENTED_EDGE('',*,*,#337,.F.);
#211=ORIENTED_EDGE('',*,*,#332,.F.);
#212=ORIENTED_EDGE('',*,*,#285,.T.);
#213=ORIENTED_EDGE('',*,*,#339,.T.);
#214=ORIENTED_EDGE('',*,*,#242,.F.);
#215=ORIENTED_EDGE('',*,*,#340,.F.);
#216=ORIENTED_EDGE('',*,*,#247,.F.);
#217=ORIENTED_EDGE('',*,*,#324,.T.);
#218=ORIENTED_EDGE('',*,*,#322,.T.);
#219=ORIENTED_EDGE('',*,*,#284,.F.);
#220=ORIENTED_EDGE('',*,*,#331,.T.);
#221=ORIENTED_EDGE('',*,*,#329,.F.);
#222=ORIENTED_EDGE('',*,*,#339,.F.);
#223=ORIENTED_EDGE('',*,*,#276,.T.);
#224=ORIENTED_EDGE('',*,*,#341,.T.);
#225=ORIENTED_EDGE('',*,*,#241,.F.);
#226=ORIENTED_EDGE('',*,*,#272,.F.);
#227=ORIENTED_EDGE('',*,*,#270,.T.);
#228=ORIENTED_EDGE('',*,*,#245,.T.);
#229=ORIENTED_EDGE('',*,*,#256,.F.);
#230=ORIENTED_EDGE('',*,*,#277,.F.);
#231=ORIENTED_EDGE('',*,*,#338,.F.);
#232=ORIENTED_EDGE('',*,*,#251,.T.);
#233=ORIENTED_EDGE('',*,*,#274,.T.);
#234=ORIENTED_EDGE('',*,*,#280,.T.);
#235=ORIENTED_EDGE('',*,*,#328,.T.);
#236=ORIENTED_EDGE('',*,*,#249,.T.);
#237=ORIENTED_EDGE('',*,*,#252,.F.);
#238=ORIENTED_EDGE('',*,*,#340,.T.);
#239=ORIENTED_EDGE('',*,*,#341,.F.);
#240=ORIENTED_EDGE('',*,*,#275,.F.);
#241=EDGE_CURVE('',#342,#343,#412,.T.);
#242=EDGE_CURVE('',#343,#344,#413,.T.);
#243=EDGE_CURVE('',#344,#345,#414,.T.);
#244=EDGE_CURVE('',#346,#345,#415,.T.);
#245=EDGE_CURVE('',#347,#346,#416,.T.);
#246=EDGE_CURVE('',#342,#347,#417,.T.);
#247=EDGE_CURVE('',#348,#349,#418,.T.);
#248=EDGE_CURVE('',#349,#350,#419,.T.);
#249=EDGE_CURVE('',#351,#350,#420,.T.);
#250=EDGE_CURVE('',#348,#351,#421,.T.);
#251=EDGE_CURVE('',#350,#352,#422,.T.);
#252=EDGE_CURVE('',#349,#353,#423,.T.);
#253=EDGE_CURVE('',#353,#352,#424,.T.);
#254=EDGE_CURVE('',#354,#354,#21,.T.);
#255=EDGE_CURVE('',#355,#356,#425,.T.);
#256=EDGE_CURVE('',#355,#346,#426,.T.);
#257=EDGE_CURVE('',#345,#356,#427,.T.);
#258=EDGE_CURVE('',#357,#357,#22,.T.);
#259=EDGE_CURVE('',#358,#358,#23,.T.);
#260=EDGE_CURVE('',#359,#359,#24,.T.);
#261=EDGE_CURVE('',#360,#361,#428,.T.);
#262=EDGE_CURVE('',#360,#362,#429,.T.);
#263=EDGE_CURVE('',#362,#363,#430,.T.);
#264=EDGE_CURVE('',#361,#363,#431,.T.);
#265=EDGE_CURVE('',#364,#365,#25,.T.);
#266=EDGE_CURVE('',#365,#366,#432,.T.);
#267=EDGE_CURVE('',#366,#367,#433,.T.);
#268=EDGE_CURVE('',#367,#368,#434,.T.);
#269=EDGE_CURVE('',#368,#364,#435,.T.);
#270=EDGE_CURVE('',#369,#347,#436,.T.);
#271=EDGE_CURVE('',#370,#369,#437,.T.);
#272=EDGE_CURVE('',#370,#342,#438,.T.);
#273=EDGE_CURVE('',#371,#372,#439,.T.);
#274=EDGE_CURVE('',#352,#372,#440,.T.);
#275=EDGE_CURVE('',#353,#373,#441,.T.);
#276=EDGE_CURVE('',#370,#373,#442,.T.);
#277=EDGE_CURVE('',#369,#355,#443,.T.);
#278=EDGE_CURVE('',#374,#356,#444,.T.);
#279=EDGE_CURVE('',#371,#374,#445,.T.);
#280=EDGE_CURVE('',#372,#375,#446,.T.);
#281=EDGE_CURVE('',#376,#371,#447,.T.);
#282=EDGE_CURVE('',#376,#375,#448,.T.);
#283=EDGE_CURVE('',#377,#378,#449,.T.);
#284=EDGE_CURVE('',#377,#379,#450,.T.);
#285=EDGE_CURVE('',#380,#379,#451,.T.);
#286=EDGE_CURVE('',#380,#367,#452,.T.);
#287=EDGE_CURVE('',#378,#366,#453,.T.);
#288=EDGE_CURVE('',#381,#382,#454,.T.);
#289=EDGE_CURVE('',#383,#381,#455,.T.);
#290=EDGE_CURVE('',#383,#384,#456,.T.);
#291=EDGE_CURVE('',#384,#382,#457,.T.);
#292=EDGE_CURVE('',#381,#385,#458,.T.);
#293=EDGE_CURVE('',#386,#385,#459,.T.);
#294=EDGE_CURVE('',#383,#386,#460,.T.);
#295=EDGE_CURVE('',#387,#388,#461,.T.);
#296=EDGE_CURVE('',#389,#387,#462,.T.);
#297=EDGE_CURVE('',#390,#389,#463,.T.);
#298=EDGE_CURVE('',#390,#386,#464,.T.);
#299=EDGE_CURVE('',#391,#385,#465,.T.);
#300=EDGE_CURVE('',#361,#391,#466,.T.);
#301=EDGE_CURVE('',#363,#388,#467,.T.);
#302=EDGE_CURVE('',#387,#392,#26,.T.);
#303=EDGE_CURVE('',#393,#392,#468,.T.);
#304=EDGE_CURVE('',#393,#390,#27,.T.);
#305=EDGE_CURVE('',#392,#394,#469,.T.);
#306=EDGE_CURVE('',#395,#394,#470,.T.);
#307=EDGE_CURVE('',#393,#395,#471,.T.);
#308=EDGE_CURVE('',#394,#396,#28,.T.);
#309=EDGE_CURVE('',#397,#396,#472,.T.);
#310=EDGE_CURVE('',#397,#395,#29,.T.);
#311=EDGE_CURVE('',#396,#398,#473,.T.);
#312=EDGE_CURVE('',#362,#398,#474,.T.);
#313=EDGE_CURVE('',#360,#399,#475,.T.);
#314=EDGE_CURVE('',#399,#400,#476,.T.);
#315=EDGE_CURVE('',#401,#400,#477,.T.);
#316=EDGE_CURVE('',#397,#401,#478,.T.);
#317=EDGE_CURVE('',#382,#400,#479,.T.);
#318=EDGE_CURVE('',#384,#401,#480,.T.);
#319=EDGE_CURVE('',#365,#375,#481,.T.);
#320=EDGE_CURVE('',#378,#376,#482,.T.);
#321=EDGE_CURVE('',#402,#368,#483,.T.);
#322=EDGE_CURVE('',#402,#380,#484,.T.);
#323=EDGE_CURVE('',#364,#351,#485,.T.);
#324=EDGE_CURVE('',#348,#402,#486,.T.);
#325=EDGE_CURVE('',#403,#403,#30,.T.);
#326=EDGE_CURVE('',#398,#388,#487,.T.);
#327=EDGE_CURVE('',#399,#391,#488,.T.);
#328=EDGE_CURVE('',#375,#351,#31,.T.);
#329=EDGE_CURVE('',#344,#404,#489,.T.);
#330=EDGE_CURVE('',#404,#374,#490,.T.);
#331=EDGE_CURVE('',#377,#404,#491,.T.);
#332=EDGE_CURVE('',#405,#405,#32,.F.);
#333=EDGE_CURVE('',#406,#406,#33,.F.);
#334=EDGE_CURVE('',#407,#407,#34,.F.);
#335=EDGE_CURVE('',#408,#408,#35,.T.);
#336=EDGE_CURVE('',#409,#409,#36,.T.);
#337=EDGE_CURVE('',#410,#410,#37,.T.);
#338=EDGE_CURVE('',#411,#411,#38,.T.);
#339=EDGE_CURVE('',#379,#344,#492,.T.);
#340=EDGE_CURVE('',#349,#343,#493,.T.);
#341=EDGE_CURVE('',#373,#343,#494,.T.);
#342=VERTEX_POINT('',#1047);
#343=VERTEX_POINT('',#1048);
#344=VERTEX_POINT('',#1050);
#345=VERTEX_POINT('',#1052);
#346=VERTEX_POINT('',#1054);
#347=VERTEX_POINT('',#1056);
#348=VERTEX_POINT('',#1060);
#349=VERTEX_POINT('',#1061);
#350=VERTEX_POINT('',#1063);
#351=VERTEX_POINT('',#1065);
#352=VERTEX_POINT('',#1069);
#353=VERTEX_POINT('',#1071);
#354=VERTEX_POINT('',#1075);
#355=VERTEX_POINT('',#1077);
#356=VERTEX_POINT('',#1078);
#357=VERTEX_POINT('',#1083);
#358=VERTEX_POINT('',#1085);
#359=VERTEX_POINT('',#1087);
#360=VERTEX_POINT('',#1089);
#361=VERTEX_POINT('',#1090);
#362=VERTEX_POINT('',#1092);
#363=VERTEX_POINT('',#1094);
#364=VERTEX_POINT('',#1097);
#365=VERTEX_POINT('',#1098);
#366=VERTEX_POINT('',#1100);
#367=VERTEX_POINT('',#1102);
#368=VERTEX_POINT('',#1104);
#369=VERTEX_POINT('',#1107);
#370=VERTEX_POINT('',#1109);
#371=VERTEX_POINT('',#1113);
#372=VERTEX_POINT('',#1114);
#373=VERTEX_POINT('',#1117);
#374=VERTEX_POINT('',#1121);
#375=VERTEX_POINT('',#1125);
#376=VERTEX_POINT('',#1127);
#377=VERTEX_POINT('',#1131);
#378=VERTEX_POINT('',#1132);
#379=VERTEX_POINT('',#1134);
#380=VERTEX_POINT('',#1136);
#381=VERTEX_POINT('',#1141);
#382=VERTEX_POINT('',#1142);
#383=VERTEX_POINT('',#1144);
#384=VERTEX_POINT('',#1146);
#385=VERTEX_POINT('',#1150);
#386=VERTEX_POINT('',#1152);
#387=VERTEX_POINT('',#1156);
#388=VERTEX_POINT('',#1157);
#389=VERTEX_POINT('',#1159);
#390=VERTEX_POINT('',#1161);
#391=VERTEX_POINT('',#1164);
#392=VERTEX_POINT('',#1169);
#393=VERTEX_POINT('',#1171);
#394=VERTEX_POINT('',#1175);
#395=VERTEX_POINT('',#1177);
#396=VERTEX_POINT('',#1181);
#397=VERTEX_POINT('',#1183);
#398=VERTEX_POINT('',#1187);
#399=VERTEX_POINT('',#1190);
#400=VERTEX_POINT('',#1192);
#401=VERTEX_POINT('',#1194);
#402=VERTEX_POINT('',#1204);
#403=VERTEX_POINT('',#1211);
#404=VERTEX_POINT('',#1221);
#405=VERTEX_POINT('',#1227);
#406=VERTEX_POINT('',#1230);
#407=VERTEX_POINT('',#1233);
#408=VERTEX_POINT('',#1236);
#409=VERTEX_POINT('',#1240);
#410=VERTEX_POINT('',#1244);
#411=VERTEX_POINT('',#1246);
#412=LINE('',#1046,#495);
#413=LINE('',#1049,#496);
#414=LINE('',#1051,#497);
#415=LINE('',#1053,#498);
#416=LINE('',#1055,#499);
#417=LINE('',#1057,#500);
#418=LINE('',#1059,#501);
#419=LINE('',#1062,#502);
#420=LINE('',#1064,#503);
#421=LINE('',#1066,#504);
#422=LINE('',#1068,#505);
#423=LINE('',#1070,#506);
#424=LINE('',#1072,#507);
#425=LINE('',#1076,#508);
#426=LINE('',#1079,#509);
#427=LINE('',#1080,#510);
#428=LINE('',#1088,#511);
#429=LINE('',#1091,#512);
#430=LINE('',#1093,#513);
#431=LINE('',#1095,#514);
#432=LINE('',#1099,#515);
#433=LINE('',#1101,#516);
#434=LINE('',#1103,#517);
#435=LINE('',#1105,#518);
#436=LINE('',#1106,#519);
#437=LINE('',#1108,#520);
#438=LINE('',#1110,#521);
#439=LINE('',#1112,#522);
#440=LINE('',#1115,#523);
#441=LINE('',#1116,#524);
#442=LINE('',#1118,#525);
#443=LINE('',#1119,#526);
#444=LINE('',#1120,#527);
#445=LINE('',#1122,#528);
#446=LINE('',#1124,#529);
#447=LINE('',#1126,#530);
#448=LINE('',#1128,#531);
#449=LINE('',#1130,#532);
#450=LINE('',#1133,#533);
#451=LINE('',#1135,#534);
#452=LINE('',#1137,#535);
#453=LINE('',#1138,#536);
#454=LINE('',#1140,#537);
#455=LINE('',#1143,#538);
#456=LINE('',#1145,#539);
#457=LINE('',#1147,#540);
#458=LINE('',#1149,#541);
#459=LINE('',#1151,#542);
#460=LINE('',#1153,#543);
#461=LINE('',#1155,#544);
#462=LINE('',#1158,#545);
#463=LINE('',#1160,#546);
#464=LINE('',#1162,#547);
#465=LINE('',#1163,#548);
#466=LINE('',#1165,#549);
#467=LINE('',#1166,#550);
#468=LINE('',#1170,#551);
#469=LINE('',#1174,#552);
#470=LINE('',#1176,#553);
#471=LINE('',#1178,#554);
#472=LINE('',#1182,#555);
#473=LINE('',#1186,#556);
#474=LINE('',#1188,#557);
#475=LINE('',#1189,#558);
#476=LINE('',#1191,#559);
#477=LINE('',#1193,#560);
#478=LINE('',#1195,#561);
#479=LINE('',#1197,#562);
#480=LINE('',#1198,#563);
#481=LINE('',#1200,#564);
#482=LINE('',#1201,#565);
#483=LINE('',#1203,#566);
#484=LINE('',#1205,#567);
#485=LINE('',#1207,#568);
#486=LINE('',#1208,#569);
#487=LINE('',#1212,#570);
#488=LINE('',#1214,#571);
#489=LINE('',#1220,#572);
#490=LINE('',#1222,#573);
#491=LINE('',#1224,#574);
#492=LINE('',#1249,#575);
#493=LINE('',#1250,#576);
#494=LINE('',#1253,#577);
#495=VECTOR('',#845,1.);
#496=VECTOR('',#846,1.);
#497=VECTOR('',#847,1.);
#498=VECTOR('',#848,1.);
#499=VECTOR('',#849,1.);
#500=VECTOR('',#850,1.);
#501=VECTOR('',#853,1.);
#502=VECTOR('',#854,1.);
#503=VECTOR('',#855,1.);
#504=VECTOR('',#856,1.);
#505=VECTOR('',#859,1.);
#506=VECTOR('',#860,1.);
#507=VECTOR('',#861,1.);
#508=VECTOR('',#866,1.);
#509=VECTOR('',#867,1.);
#510=VECTOR('',#868,1.);
#511=VECTOR('',#877,1.);
#512=VECTOR('',#878,1.);
#513=VECTOR('',#879,1.);
#514=VECTOR('',#880,1.);
#515=VECTOR('',#883,1.);
#516=VECTOR('',#884,1.);
#517=VECTOR('',#885,1.);
#518=VECTOR('',#886,1.);
#519=VECTOR('',#887,1.);
#520=VECTOR('',#888,1.);
#521=VECTOR('',#889,1.);
#522=VECTOR('',#892,1.);
#523=VECTOR('',#893,1.);
#524=VECTOR('',#894,1.);
#525=VECTOR('',#895,1.);
#526=VECTOR('',#896,1.);
#527=VECTOR('',#897,1.);
#528=VECTOR('',#898,1.);
#529=VECTOR('',#901,1.);
#530=VECTOR('',#902,1.);
#531=VECTOR('',#903,1.);
#532=VECTOR('',#906,1.);
#533=VECTOR('',#907,1.);
#534=VECTOR('',#908,1.);
#535=VECTOR('',#909,1.);
#536=VECTOR('',#910,1.);
#537=VECTOR('',#913,1.);
#538=VECTOR('',#914,1.);
#539=VECTOR('',#915,1.);
#540=VECTOR('',#916,1.);
#541=VECTOR('',#919,1.);
#542=VECTOR('',#920,1.);
#543=VECTOR('',#921,1.);
#544=VECTOR('',#924,1.);
#545=VECTOR('',#925,1.);
#546=VECTOR('',#926,1.);
#547=VECTOR('',#927,1.);
#548=VECTOR('',#928,1.);
#549=VECTOR('',#929,1.);
#550=VECTOR('',#930,1.);
#551=VECTOR('',#935,1.);
#552=VECTOR('',#940,1.);
#553=VECTOR('',#941,1.);
#554=VECTOR('',#942,1.);
#555=VECTOR('',#947,1.);
#556=VECTOR('',#952,1.);
#557=VECTOR('',#953,1.);
#558=VECTOR('',#954,1.);
#559=VECTOR('',#955,1.);
#560=VECTOR('',#956,1.);
#561=VECTOR('',#957,1.);
#562=VECTOR('',#960,1.);
#563=VECTOR('',#961,1.);
#564=VECTOR('',#964,1.);
#565=VECTOR('',#965,1.);
#566=VECTOR('',#968,1.);
#567=VECTOR('',#969,1.);
#568=VECTOR('',#972,1.);
#569=VECTOR('',#973,1.);
#570=VECTOR('',#978,1.);
#571=VECTOR('',#981,1.);
#572=VECTOR('',#992,1.);
#573=VECTOR('',#993,1.);
#574=VECTOR('',#996,1.);
#575=VECTOR('',#1031,1.);
#576=VECTOR('',#1032,1.);
#577=VECTOR('',#1037,1.);
#578=EDGE_LOOP('',(#39,#40,#41,#42,#43,#44));
#579=EDGE_LOOP('',(#45,#46,#47,#48));
#580=EDGE_LOOP('',(#49,#50,#51,#52));
#581=EDGE_LOOP('',(#53));
#582=EDGE_LOOP('',(#54,#55,#56,#57));
#583=EDGE_LOOP('',(#58));
#584=EDGE_LOOP('',(#59));
#585=EDGE_LOOP('',(#60));
#586=EDGE_LOOP('',(#61,#62,#63,#64));
#587=EDGE_LOOP('',(#65,#66,#67,#68,#69));
#588=EDGE_LOOP('',(#70,#71,#72,#73));
#589=EDGE_LOOP('',(#74,#75,#76,#77,#78,#79,#80,#81,#82,#83));
#590=EDGE_LOOP('',(#84,#85,#86,#87));
#591=EDGE_LOOP('',(#88,#89,#90,#91,#92,#93));
#592=EDGE_LOOP('',(#94,#95,#96,#97));
#593=EDGE_LOOP('',(#98,#99,#100,#101));
#594=EDGE_LOOP('',(#102,#103,#104,#105,#106,#107,#108,#109,#110));
#595=EDGE_LOOP('',(#111,#112,#113,#114,#115));
#596=EDGE_LOOP('',(#116,#117,#118,#119));
#597=EDGE_LOOP('',(#120,#121,#122,#123));
#598=EDGE_LOOP('',(#124,#125,#126,#127,#128,#129,#130,#131));
#599=EDGE_LOOP('',(#132,#133,#134,#135));
#600=EDGE_LOOP('',(#136,#137,#138,#139,#140));
#601=EDGE_LOOP('',(#141,#142,#143,#144));
#602=EDGE_LOOP('',(#145,#146,#147,#148,#149));
#603=EDGE_LOOP('',(#150));
#604=EDGE_LOOP('',(#151,#152,#153,#154,#155,#156));
#605=EDGE_LOOP('',(#157,#158,#159,#160,#161,#162));
#606=EDGE_LOOP('',(#163,#164,#165,#166));
#607=EDGE_LOOP('',(#167,#168,#169,#170));
#608=EDGE_LOOP('',(#171,#172,#173,#174));
#609=EDGE_LOOP('',(#175,#176,#177,#178,#179));
#610=EDGE_LOOP('',(#180,#181,#182,#183,#184,#185));
#611=EDGE_LOOP('',(#186,#187,#188,#189,#190,#191,#192,#193));
#612=EDGE_LOOP('',(#194));
#613=EDGE_LOOP('',(#195));
#614=EDGE_LOOP('',(#196));
#615=EDGE_LOOP('',(#197));
#616=EDGE_LOOP('',(#198));
#617=EDGE_LOOP('',(#199));
#618=EDGE_LOOP('',(#200));
#619=EDGE_LOOP('',(#201));
#620=EDGE_LOOP('',(#202));
#621=EDGE_LOOP('',(#203));
#622=EDGE_LOOP('',(#204));
#623=EDGE_LOOP('',(#205));
#624=EDGE_LOOP('',(#206));
#625=EDGE_LOOP('',(#207));
#626=EDGE_LOOP('',(#208));
#627=EDGE_LOOP('',(#209));
#628=EDGE_LOOP('',(#210));
#629=EDGE_LOOP('',(#211));
#630=EDGE_LOOP('',(#212,#213,#214,#215,#216,#217,#218));
#631=EDGE_LOOP('',(#219,#220,#221,#222));
#632=EDGE_LOOP('',(#223,#224,#225,#226));
#633=EDGE_LOOP('',(#227,#228,#229,#230));
#634=EDGE_LOOP('',(#231));
#635=EDGE_LOOP('',(#232,#233,#234,#235,#236));
#636=EDGE_LOOP('',(#237,#238,#239,#240));
#637=FACE_BOUND('',#578,.T.);
#638=FACE_BOUND('',#579,.T.);
#639=FACE_BOUND('',#580,.T.);
#640=FACE_BOUND('',#581,.T.);
#641=FACE_BOUND('',#582,.T.);
#642=FACE_BOUND('',#583,.T.);
#643=FACE_BOUND('',#584,.T.);
#644=FACE_BOUND('',#585,.T.);
#645=FACE_BOUND('',#586,.T.);
#646=FACE_BOUND('',#587,.T.);
#647=FACE_BOUND('',#588,.T.);
#648=FACE_BOUND('',#589,.T.);
#649=FACE_BOUND('',#590,.T.);
#650=FACE_BOUND('',#591,.T.);
#651=FACE_BOUND('',#592,.T.);
#652=FACE_BOUND('',#593,.T.);
#653=FACE_BOUND('',#594,.T.);
#654=FACE_BOUND('',#595,.T.);
#655=FACE_BOUND('',#596,.T.);
#656=FACE_BOUND('',#597,.T.);
#657=FACE_BOUND('',#598,.T.);
#658=FACE_BOUND('',#599,.T.);
#659=FACE_BOUND('',#600,.T.);
#660=FACE_BOUND('',#601,.T.);
#661=FACE_BOUND('',#602,.T.);
#662=FACE_BOUND('',#603,.T.);
#663=FACE_BOUND('',#604,.T.);
#664=FACE_BOUND('',#605,.T.);
#665=FACE_BOUND('',#606,.T.);
#666=FACE_BOUND('',#607,.T.);
#667=FACE_BOUND('',#608,.T.);
#668=FACE_BOUND('',#609,.T.);
#669=FACE_BOUND('',#610,.T.);
#670=FACE_BOUND('',#611,.T.);
#671=FACE_BOUND('',#612,.T.);
#672=FACE_BOUND('',#613,.T.);
#673=FACE_BOUND('',#614,.T.);
#674=FACE_BOUND('',#615,.T.);
#675=FACE_BOUND('',#616,.T.);
#676=FACE_BOUND('',#617,.T.);
#677=FACE_BOUND('',#618,.T.);
#678=FACE_BOUND('',#619,.T.);
#679=FACE_BOUND('',#620,.T.);
#680=FACE_BOUND('',#621,.T.);
#681=FACE_BOUND('',#622,.T.);
#682=FACE_BOUND('',#623,.T.);
#683=FACE_BOUND('',#624,.T.);
#684=FACE_BOUND('',#625,.T.);
#685=FACE_BOUND('',#626,.T.);
#686=FACE_BOUND('',#627,.T.);
#687=FACE_BOUND('',#628,.T.);
#688=FACE_BOUND('',#629,.T.);
#689=FACE_BOUND('',#630,.T.);
#690=FACE_BOUND('',#631,.T.);
#691=FACE_BOUND('',#632,.T.);
#692=FACE_BOUND('',#633,.T.);
#693=FACE_BOUND('',#634,.T.);
#694=FACE_BOUND('',#635,.T.);
#695=FACE_BOUND('',#636,.T.);
#696=PLANE('',#782);
#697=PLANE('',#783);
#698=PLANE('',#784);
#699=PLANE('',#785);
#700=PLANE('',#787);
#701=PLANE('',#792);
#702=PLANE('',#793);
#703=PLANE('',#794);
#704=PLANE('',#795);
#705=PLANE('',#796);
#706=PLANE('',#797);
#707=PLANE('',#801);
#708=PLANE('',#805);
#709=PLANE('',#806);
#710=PLANE('',#807);
#711=PLANE('',#808);
#712=PLANE('',#809);
#713=PLANE('',#810);
#714=PLANE('',#812);
#715=PLANE('',#815);
#716=PLANE('',#816);
#717=PLANE('',#817);
#718=PLANE('',#818);
#719=PLANE('',#825);
#720=PLANE('',#830);
#721=PLANE('',#834);
#722=PLANE('',#835);
#723=PLANE('',#836);
#724=PLANE('',#837);
#725=PLANE('',#838);
#726=PLANE('',#839);
#727=PLANE('',#840);
#728=ADVANCED_FACE('',(#637),#696,.F.);
#729=ADVANCED_FACE('',(#638),#697,.F.);
#730=ADVANCED_FACE('',(#639),#698,.F.);
#731=ADVANCED_FACE('',(#640,#641),#699,.T.);
#732=ADVANCED_FACE('',(#642,#643,#644,#645,#646,#647),#700,.T.);
#733=ADVANCED_FACE('',(#648),#701,.F.);
#734=ADVANCED_FACE('',(#649),#702,.T.);
#735=ADVANCED_FACE('',(#650),#703,.F.);
#736=ADVANCED_FACE('',(#651),#704,.T.);
#737=ADVANCED_FACE('',(#652),#705,.F.);
#738=ADVANCED_FACE('',(#653),#706,.T.);
#739=ADVANCED_FACE('',(#654),#12,.F.);
#740=ADVANCED_FACE('',(#655),#707,.F.);
#741=ADVANCED_FACE('',(#656),#13,.F.);
#742=ADVANCED_FACE('',(#657),#708,.F.);
#743=ADVANCED_FACE('',(#658),#709,.T.);
#744=ADVANCED_FACE('',(#659),#710,.T.);
#745=ADVANCED_FACE('',(#660),#711,.T.);
#746=ADVANCED_FACE('',(#661),#712,.T.);
#747=ADVANCED_FACE('',(#662,#663),#713,.F.);
#748=ADVANCED_FACE('',(#664),#714,.F.);
#749=ADVANCED_FACE('',(#665),#14,.T.);
#750=ADVANCED_FACE('',(#666),#715,.T.);
#751=ADVANCED_FACE('',(#667),#716,.F.);
#752=ADVANCED_FACE('',(#668),#717,.T.);
#753=ADVANCED_FACE('',(#669,#670),#718,.T.);
#754=ADVANCED_FACE('',(#671,#672),#15,.F.);
#755=ADVANCED_FACE('',(#673,#674),#16,.F.);
#756=ADVANCED_FACE('',(#675,#676),#17,.F.);
#757=ADVANCED_FACE('',(#677,#678),#719,.F.);
#758=ADVANCED_FACE('',(#679,#680),#18,.F.);
#759=ADVANCED_FACE('',(#681,#682),#19,.F.);
#760=ADVANCED_FACE('',(#683,#684),#720,.F.);
#761=ADVANCED_FACE('',(#685,#686),#20,.F.);
#762=ADVANCED_FACE('',(#687,#688),#721,.F.);
#763=ADVANCED_FACE('',(#689),#722,.T.);
#764=ADVANCED_FACE('',(#690),#723,.T.);
#765=ADVANCED_FACE('',(#691),#724,.F.);
#766=ADVANCED_FACE('',(#692),#725,.T.);
#767=ADVANCED_FACE('',(#693,#694),#726,.T.);
#768=ADVANCED_FACE('',(#695),#727,.F.);
#769=CLOSED_SHELL('',(#728,#729,#730,#731,#732,#733,#734,#735,#736,#737,
#738,#739,#740,#741,#742,#743,#744,#745,#746,#747,#748,#749,#750,#751,#752,
#753,#754,#755,#756,#757,#758,#759,#760,#761,#762,#763,#764,#765,#766,#767,
#768));
#770=STYLED_ITEM('',(#771),#778);
#771=PRESENTATION_STYLE_ASSIGNMENT((#772));
#772=SURFACE_STYLE_USAGE(.BOTH.,#773);
#773=SURFACE_SIDE_STYLE('',(#774));
#774=SURFACE_STYLE_FILL_AREA(#775);
#775=FILL_AREA_STYLE('',(#776));
#776=FILL_AREA_STYLE_COLOUR('',#777);
#777=COLOUR_RGB('',0.372549019607843,0.654901960784314,0.23921568627451);
#778=MANIFOLD_SOLID_BREP('Part 1',#769);
#779=SHAPE_DEFINITION_REPRESENTATION(#1263,#780);
#780=SHAPE_REPRESENTATION('Part 1',(#781),#1258);
#781=AXIS2_PLACEMENT_3D('',#1044,#841,#842);
#782=AXIS2_PLACEMENT_3D('',#1045,#843,#844);
#783=AXIS2_PLACEMENT_3D('',#1058,#851,#852);
#784=AXIS2_PLACEMENT_3D('',#1067,#857,#858);
#785=AXIS2_PLACEMENT_3D('',#1073,#862,#863);
#786=AXIS2_PLACEMENT_3D('',#1074,#864,#865);
#787=AXIS2_PLACEMENT_3D('',#1081,#869,#870);
#788=AXIS2_PLACEMENT_3D('',#1082,#871,#872);
#789=AXIS2_PLACEMENT_3D('',#1084,#873,#874);
#790=AXIS2_PLACEMENT_3D('',#1086,#875,#876);
#791=AXIS2_PLACEMENT_3D('',#1096,#881,#882);
#792=AXIS2_PLACEMENT_3D('',#1111,#890,#891);
#793=AXIS2_PLACEMENT_3D('',#1123,#899,#900);
#794=AXIS2_PLACEMENT_3D('',#1129,#904,#905);
#795=AXIS2_PLACEMENT_3D('',#1139,#911,#912);
#796=AXIS2_PLACEMENT_3D('',#1148,#917,#918);
#797=AXIS2_PLACEMENT_3D('',#1154,#922,#923);
#798=AXIS2_PLACEMENT_3D('',#1167,#931,#932);
#799=AXIS2_PLACEMENT_3D('',#1168,#933,#934);
#800=AXIS2_PLACEMENT_3D('',#1172,#936,#937);
#801=AXIS2_PLACEMENT_3D('',#1173,#938,#939);
#802=AXIS2_PLACEMENT_3D('',#1179,#943,#944);
#803=AXIS2_PLACEMENT_3D('',#1180,#945,#946);
#804=AXIS2_PLACEMENT_3D('',#1184,#948,#949);
#805=AXIS2_PLACEMENT_3D('',#1185,#950,#951);
#806=AXIS2_PLACEMENT_3D('',#1196,#958,#959);
#807=AXIS2_PLACEMENT_3D('',#1199,#962,#963);
#808=AXIS2_PLACEMENT_3D('',#1202,#966,#967);
#809=AXIS2_PLACEMENT_3D('',#1206,#970,#971);
#810=AXIS2_PLACEMENT_3D('',#1209,#974,#975);
#811=AXIS2_PLACEMENT_3D('',#1210,#976,#977);
#812=AXIS2_PLACEMENT_3D('',#1213,#979,#980);
#813=AXIS2_PLACEMENT_3D('',#1215,#982,#983);
#814=AXIS2_PLACEMENT_3D('',#1216,#984,#985);
#815=AXIS2_PLACEMENT_3D('',#1217,#986,#987);
#816=AXIS2_PLACEMENT_3D('',#1218,#988,#989);
#817=AXIS2_PLACEMENT_3D('',#1219,#990,#991);
#818=AXIS2_PLACEMENT_3D('',#1223,#994,#995);
#819=AXIS2_PLACEMENT_3D('',#1225,#997,#998);
#820=AXIS2_PLACEMENT_3D('',#1226,#999,#1000);
#821=AXIS2_PLACEMENT_3D('',#1228,#1001,#1002);
#822=AXIS2_PLACEMENT_3D('',#1229,#1003,#1004);
#823=AXIS2_PLACEMENT_3D('',#1231,#1005,#1006);
#824=AXIS2_PLACEMENT_3D('',#1232,#1007,#1008);
#825=AXIS2_PLACEMENT_3D('',#1234,#1009,#1010);
#826=AXIS2_PLACEMENT_3D('',#1235,#1011,#1012);
#827=AXIS2_PLACEMENT_3D('',#1237,#1013,#1014);
#828=AXIS2_PLACEMENT_3D('',#1238,#1015,#1016);
#829=AXIS2_PLACEMENT_3D('',#1239,#1017,#1018);
#830=AXIS2_PLACEMENT_3D('',#1241,#1019,#1020);
#831=AXIS2_PLACEMENT_3D('',#1242,#1021,#1022);
#832=AXIS2_PLACEMENT_3D('',#1243,#1023,#1024);
#833=AXIS2_PLACEMENT_3D('',#1245,#1025,#1026);
#834=AXIS2_PLACEMENT_3D('',#1247,#1027,#1028);
#835=AXIS2_PLACEMENT_3D('',#1248,#1029,#1030);
#836=AXIS2_PLACEMENT_3D('',#1251,#1033,#1034);
#837=AXIS2_PLACEMENT_3D('',#1252,#1035,#1036);
#838=AXIS2_PLACEMENT_3D('',#1254,#1038,#1039);
#839=AXIS2_PLACEMENT_3D('',#1255,#1040,#1041);
#840=AXIS2_PLACEMENT_3D('',#1256,#1042,#1043);
#841=DIRECTION('',(0.,0.,1.));
#842=DIRECTION('',(1.,0.,0.));
#843=DIRECTION('',(-1.0842021724855E-16,-1.,0.));
#844=DIRECTION('',(1.,-1.0842021724855E-16,0.));
#845=DIRECTION('',(0.,0.,1.));
#846=DIRECTION('',(1.,0.,0.));
#847=DIRECTION('',(0.,0.,-1.));
#848=DIRECTION('',(1.,0.,0.));
#849=DIRECTION('',(0.,0.,1.));
#850=DIRECTION('',(1.,0.,0.));
#851=DIRECTION('',(-1.0842021724855E-16,-1.,0.));
#852=DIRECTION('',(1.,-1.0842021724855E-16,0.));
#853=DIRECTION('',(1.,0.,0.));
#854=DIRECTION('',(0.,0.,-1.));
#855=DIRECTION('',(1.,0.,0.));
#856=DIRECTION('',(0.,0.,-1.));
#857=DIRECTION('',(1.,0.,0.));
#858=DIRECTION('',(0.,0.,-1.));
#859=DIRECTION('',(0.,1.,0.));
#860=DIRECTION('',(0.,0.835705479701274,-0.549177886660837));
#861=DIRECTION('',(0.,0.,-1.));
#862=DIRECTION('',(0.,0.,1.));
#863=DIRECTION('',(1.,0.,0.));
#864=DIRECTION('',(0.,0.,1.));
#865=DIRECTION('',(1.,0.,0.));
#866=DIRECTION('',(1.,2.87920908875818E-16,0.));
#867=DIRECTION('',(0.,-1.,0.));
#868=DIRECTION('',(0.,1.,0.));
#869=DIRECTION('',(0.,0.,-1.));
#870=DIRECTION('',(1.,0.,0.));
#871=DIRECTION('',(0.,0.,-1.));
#872=DIRECTION('',(-1.,0.,0.));
#873=DIRECTION('',(0.,0.,-1.));
#874=DIRECTION('',(-1.,0.,0.));
#875=DIRECTION('',(0.,0.,-1.));
#876=DIRECTION('',(-1.,0.,0.));
#877=DIRECTION('',(0.,-1.,0.));
#878=DIRECTION('',(-1.,7.22801448323668E-16,0.));
#879=DIRECTION('',(0.,-1.,0.));
#880=DIRECTION('',(-1.,0.,0.));
#881=DIRECTION('',(0.,0.,-1.));
#882=DIRECTION('',(-1.,0.,0.));
#883=DIRECTION('',(1.,2.60860673079219E-16,0.));
#884=DIRECTION('',(0.,-1.,0.));
#885=DIRECTION('',(-1.,1.55348370982998E-16,0.));
#886=DIRECTION('',(0.,1.,0.));
#887=DIRECTION('',(0.,-1.,0.));
#888=DIRECTION('',(1.,0.,0.));
#889=DIRECTION('',(0.,-1.,0.));
#890=DIRECTION('',(-3.91291009618828E-16,1.,0.));
#891=DIRECTION('',(-1.,-3.91291009618828E-16,0.));
#892=DIRECTION('',(0.,0.,-1.));
#893=DIRECTION('',(-1.,-3.81257906808089E-16,0.));
#894=DIRECTION('',(1.,2.87920908875818E-16,0.));
#895=DIRECTION('',(0.,0.,1.));
#896=DIRECTION('',(0.,0.,1.));
#897=DIRECTION('',(0.,0.,-1.));
#898=DIRECTION('',(1.,2.87920908875818E-16,0.));
#899=DIRECTION('',(-1.,0.,0.));
#900=DIRECTION('',(0.,0.,1.));
#901=DIRECTION('',(0.,1.,0.));
#902=DIRECTION('',(0.,-1.,0.));
#903=DIRECTION('',(0.,0.,-1.));
#904=DIRECTION('',(-1.,0.,0.));
#905=DIRECTION('',(0.,0.,1.));
#906=DIRECTION('',(0.,1.,0.));
#907=DIRECTION('',(0.,-0.773957299203321,0.633237790257263));
#908=DIRECTION('',(0.,1.,0.));
#909=DIRECTION('',(0.,0.,-1.));
#910=DIRECTION('',(0.,0.,-1.));
#911=DIRECTION('',(-1.,0.,0.));
#912=DIRECTION('',(0.,0.,1.));
#913=DIRECTION('',(0.,1.,0.));
#914=DIRECTION('',(0.,0.,-1.));
#915=DIRECTION('',(0.,1.,0.));
#916=DIRECTION('',(0.,0.,-1.));
#917=DIRECTION('',(0.839502959197939,-0.543355115461246,0.));
#918=DIRECTION('',(0.543355115461246,0.839502959197939,0.));
#919=DIRECTION('',(-0.543355115461246,-0.839502959197939,0.));
#920=DIRECTION('',(0.,0.,-1.));
#921=DIRECTION('',(-0.543355115461242,-0.839502959197941,0.));
#922=DIRECTION('',(-4.87159354645751E-16,1.,0.));
#923=DIRECTION('',(-1.,-4.87159354645751E-16,0.));
#924=DIRECTION('',(1.,4.87159354645751E-16,0.));
#925=DIRECTION('',(0.,0.,-1.));
#926=DIRECTION('',(0.,0.,-1.));
#927=DIRECTION('',(1.,4.81996752391518E-16,0.));
#928=DIRECTION('',(1.,4.87159354645751E-16,0.));
#929=DIRECTION('',(0.,0.,1.));
#930=DIRECTION('',(0.,0.,1.));
#931=DIRECTION('',(0.,0.,-1.));
#932=DIRECTION('',(-1.,0.,0.));
#933=DIRECTION('',(0.,0.,-1.));
#934=DIRECTION('',(1.,0.,0.));
#935=DIRECTION('',(0.,0.,-1.));
#936=DIRECTION('',(0.,0.,1.));
#937=DIRECTION('',(1.,0.,0.));
#938=DIRECTION('',(-1.,0.,0.));
#939=DIRECTION('',(0.,0.,1.));
#940=DIRECTION('',(0.,1.,0.));
#941=DIRECTION('',(0.,0.,-1.));
#942=DIRECTION('',(0.,1.,0.));
#943=DIRECTION('',(0.,0.,-1.));
#944=DIRECTION('',(-1.,0.,0.));
#945=DIRECTION('',(0.,0.,-1.));
#946=DIRECTION('',(1.,0.,0.));
#947=DIRECTION('',(0.,0.,-1.));
#948=DIRECTION('',(0.,0.,1.));
#949=DIRECTION('',(1.,0.,0.));
#950=DIRECTION('',(-1.01736268565343E-15,1.,0.));
#951=DIRECTION('',(-1.,-1.01736268565343E-15,0.));
#952=DIRECTION('',(1.,1.01736268565343E-15,0.));
#953=DIRECTION('',(0.,0.,1.));
#954=DIRECTION('',(0.,0.,1.));
#955=DIRECTION('',(1.,1.01736268565343E-15,0.));
#956=DIRECTION('',(0.,0.,-1.));
#957=DIRECTION('',(1.,9.63735264431557E-16,0.));
#958=DIRECTION('',(-0.707106781186543,-0.707106781186552,0.));
#959=DIRECTION('',(0.707106781186553,-0.707106781186543,0.));
#960=DIRECTION('',(-0.707106781186553,0.707106781186543,0.));
#961=DIRECTION('',(-0.707106781186553,0.707106781186543,0.));
#962=DIRECTION('',(-2.60860673079219E-16,1.,0.));
#963=DIRECTION('',(-1.,-2.60860673079219E-16,0.));
#964=DIRECTION('',(0.,0.,1.));
#965=DIRECTION('',(-1.,-2.60860673079219E-16,0.));
#966=DIRECTION('',(-1.48690583655155E-16,-1.,0.));
#967=DIRECTION('',(1.,-1.48690583655155E-16,0.));
#968=DIRECTION('',(0.,0.,-1.));
#969=DIRECTION('',(1.,-1.55348370982998E-16,0.));
#970=DIRECTION('',(-1.,0.,0.));
#971=DIRECTION('',(0.,0.,1.));
#972=DIRECTION('',(0.,0.,1.));
#973=DIRECTION('',(0.,-1.,0.));
#974=DIRECTION('',(0.,0.,-1.));
#975=DIRECTION('',(1.,0.,0.));
#976=DIRECTION('',(0.,0.,-1.));
#977=DIRECTION('',(-1.,0.,0.));
#978=DIRECTION('',(0.,-1.,0.));
#979=DIRECTION('',(0.,0.,-1.));
#980=DIRECTION('',(1.,0.,0.));
#981=DIRECTION('',(0.,-1.,0.));
#982=DIRECTION('',(0.,0.,1.));
#983=DIRECTION('',(1.,0.,0.));
#984=DIRECTION('',(0.,0.,1.));
#985=DIRECTION('',(1.,0.,0.));
#986=DIRECTION('',(-1.,0.,0.));
#987=DIRECTION('',(0.,0.,1.));
#988=DIRECTION('',(-1.,0.,0.));
#989=DIRECTION('',(0.,0.,1.));
#990=DIRECTION('',(-1.,0.,0.));
#991=DIRECTION('',(0.,0.,1.));
#992=DIRECTION('',(0.,0.773957299203321,-0.633237790257263));
#993=DIRECTION('',(0.,1.,0.));
#994=DIRECTION('',(0.,0.,1.));
#995=DIRECTION('',(1.,0.,0.));
#996=DIRECTION('',(-1.,0.,0.));
#997=DIRECTION('',(0.,0.,-1.));
#998=DIRECTION('',(-1.,0.,0.));
#999=DIRECTION('',(0.,0.,-1.));
#1000=DIRECTION('',(-1.,0.,0.));
#1001=DIRECTION('',(0.,0.,-1.));
#1002=DIRECTION('',(-1.,0.,0.));
#1003=DIRECTION('',(0.,0.,-1.));
#1004=DIRECTION('',(-1.,0.,0.));
#1005=DIRECTION('',(0.,0.,-1.));
#1006=DIRECTION('',(-1.,0.,0.));
#1007=DIRECTION('',(0.,0.,-1.));
#1008=DIRECTION('',(-1.,0.,0.));
#1009=DIRECTION('',(0.,0.,-1.));
#1010=DIRECTION('',(1.,0.,0.));
#1011=DIRECTION('',(0.,0.,-1.));
#1012=DIRECTION('',(-1.,0.,0.));
#1013=DIRECTION('',(0.,0.,-1.));
#1014=DIRECTION('',(-1.,0.,0.));
#1015=DIRECTION('',(0.,0.,-1.));
#1016=DIRECTION('',(-1.,0.,0.));
#1017=DIRECTION('',(0.,0.,-1.));
#1018=DIRECTION('',(-1.,0.,0.));
#1019=DIRECTION('',(0.,0.,-1.));
#1020=DIRECTION('',(1.,0.,0.));
#1021=DIRECTION('',(0.,0.,-1.));
#1022=DIRECTION('',(-1.,0.,0.));
#1023=DIRECTION('',(0.,0.,-1.));
#1024=DIRECTION('',(-1.,0.,0.));
#1025=DIRECTION('',(0.,0.,1.));
#1026=DIRECTION('',(1.,0.,0.));
#1027=DIRECTION('',(0.,0.,-1.));
#1028=DIRECTION('',(1.,0.,0.));
#1029=DIRECTION('',(0.,0.,1.));
#1030=DIRECTION('',(1.,0.,0.));
#1031=DIRECTION('',(-1.,0.,0.));
#1032=DIRECTION('',(1.,0.,0.));
#1033=DIRECTION('',(0.,0.633237790257263,0.773957299203321));
#1034=DIRECTION('',(1.,0.,0.));
#1035=DIRECTION('',(-1.,0.,0.));
#1036=DIRECTION('',(0.,0.,1.));
#1037=DIRECTION('',(0.,-0.835705479701274,0.549177886660837));
#1038=DIRECTION('',(-1.,0.,0.));
#1039=DIRECTION('',(0.,0.,1.));
#1040=DIRECTION('',(0.,0.,1.));
#1041=DIRECTION('',(1.,0.,0.));
#1042=DIRECTION('',(-5.95419857798677E-17,-0.549177886660837,-0.835705479701274));
#1043=DIRECTION('',(1.,-1.0842021724855E-16,0.));
#1044=CARTESIAN_POINT('',(0.,0.,0.));
#1045=CARTESIAN_POINT('',(0.27791192931384,0.0182992142461063,0.015));
#1046=CARTESIAN_POINT('',(0.29891192931384,0.0182992142461064,-0.007002));
#1047=CARTESIAN_POINT('',(0.29891192931384,0.0182992142461064,-0.007));
#1048=CARTESIAN_POINT('',(0.29891192931384,0.0182992142461064,0.038));
#1049=CARTESIAN_POINT('',(0.29291192931384,0.0182992142461064,0.038));
#1050=CARTESIAN_POINT('',(0.323911929313839,0.0182992142461064,0.038));
#1051=CARTESIAN_POINT('',(0.323911929313839,0.0182992142461064,0.02));
#1052=CARTESIAN_POINT('',(0.323911929313839,0.0182992142461064,0.015));
#1053=CARTESIAN_POINT('',(0.308911929313839,0.0182992142461064,0.015));
#1054=CARTESIAN_POINT('',(0.308911929313839,0.0182992142461064,0.015));
#1055=CARTESIAN_POINT('',(0.308911929313839,0.0182992142461064,-0.007002));
#1056=CARTESIAN_POINT('',(0.308911929313839,0.0182992142461064,-0.007));
#1057=CARTESIAN_POINT('',(0.30391192931384,0.0182992142461064,-0.007));
#1058=CARTESIAN_POINT('',(0.27791192931384,0.0182992142461063,0.015));
#1059=CARTESIAN_POINT('',(0.29291192931384,0.0182992142461064,0.038));
#1060=CARTESIAN_POINT('',(0.261911929313839,0.0182992142461064,0.038));
#1061=CARTESIAN_POINT('',(0.29391192931384,0.0182992142461064,0.038));
#1062=CARTESIAN_POINT('',(0.29391192931384,0.0182992142461063,0.015));
#1063=CARTESIAN_POINT('',(0.29391192931384,0.0182992142461063,0.012));
#1064=CARTESIAN_POINT('',(0.27791192931384,0.0182992142461063,0.012));
#1065=CARTESIAN_POINT('',(0.261911929313839,0.0182992142461063,0.012));
#1066=CARTESIAN_POINT('',(0.261911929313839,0.0182992142461063,0.015));
#1067=CARTESIAN_POINT('',(0.29391192931384,0.0357992142461063,0.015));
#1068=CARTESIAN_POINT('',(0.29391192931384,0.0357992142461063,0.012));
#1069=CARTESIAN_POINT('',(0.29391192931384,0.0532992142461063,0.012));
#1070=CARTESIAN_POINT('',(0.29391192931384,0.0410771503920584,0.0230316419612315));
#1071=CARTESIAN_POINT('',(0.29391192931384,0.0532992142461063,0.015));
#1072=CARTESIAN_POINT('',(0.29391192931384,0.0532992142461063,0.015));
#1073=CARTESIAN_POINT('',(0.232873030395974,0.0748848656638408,0.015));
#1074=CARTESIAN_POINT('',(0.314612811520721,0.0394098874856298,0.015));
#1075=CARTESIAN_POINT('',(0.317612811520721,0.0394098874856298,0.015));
#1076=CARTESIAN_POINT('',(0.299811929313839,0.0532992142461063,0.015));
#1077=CARTESIAN_POINT('',(0.308911929313839,0.0532992142461063,0.015));
#1078=CARTESIAN_POINT('',(0.323911929313839,0.0532992142461063,0.015));
#1079=CARTESIAN_POINT('',(0.308911929313839,0.0357992142461063,0.015));
#1080=CARTESIAN_POINT('',(0.323911929313839,0.0357992142461063,0.015));
#1081=CARTESIAN_POINT('',(0.29541192931384,0.0480492142461063,-0.007));
#1082=CARTESIAN_POINT('',(0.314612811520721,0.0394098874856298,-0.007));
#1083=CARTESIAN_POINT('',(0.313012811520721,0.0394098874856298,-0.007));
#1084=CARTESIAN_POINT('',(0.284612811520721,0.0394098874856298,-0.007));
#1085=CARTESIAN_POINT('',(0.283012811520721,0.0394098874856298,-0.007));
#1086=CARTESIAN_POINT('',(0.284612811520721,0.0694098874856298,-0.007));
#1087=CARTESIAN_POINT('',(0.283012811520721,0.0694098874856298,-0.007));
#1088=CARTESIAN_POINT('',(0.311911929313839,0.0695492142461061,-0.007));
#1089=CARTESIAN_POINT('',(0.311911929313839,0.0817992142461061,-0.007));
#1090=CARTESIAN_POINT('',(0.311911929313839,0.0572992142461062,-0.007));
#1091=CARTESIAN_POINT('',(0.302311929313839,0.0817992142461061,-0.007));
#1092=CARTESIAN_POINT('',(0.292711929313839,0.0817992142461061,-0.007));
#1093=CARTESIAN_POINT('',(0.292711929313839,0.0695492142461062,-0.007));
#1094=CARTESIAN_POINT('',(0.292711929313839,0.0572992142461062,-0.007));
#1095=CARTESIAN_POINT('',(0.302311929313839,0.0572992142461062,-0.007));
#1096=CARTESIAN_POINT('',(0.43389345105297,0.0182992142461063,-0.007));
#1097=CARTESIAN_POINT('',(0.261911929313839,0.0182992142461063,-0.007));
#1098=CARTESIAN_POINT('',(0.27571192931384,0.0857992142461064,-0.007));
#1099=CARTESIAN_POINT('',(0.302311929313839,0.0857992142461063,-0.007));
#1100=CARTESIAN_POINT('',(0.32891192931384,0.0857992142461063,-0.007));
#1101=CARTESIAN_POINT('',(0.32891192931384,0.0480492142461063,-0.007));
#1102=CARTESIAN_POINT('',(0.32891192931384,0.0102992142461063,-0.007));
#1103=CARTESIAN_POINT('',(0.29541192931384,0.0102992142461063,-0.007));
#1104=CARTESIAN_POINT('',(0.261911929313839,0.0102992142461063,-0.007));
#1105=CARTESIAN_POINT('',(0.261911929313839,0.0142992142461063,-0.007));
#1106=CARTESIAN_POINT('',(0.308911929313839,0.0357992142461063,-0.007));
#1107=CARTESIAN_POINT('',(0.308911929313839,0.0532992142461063,-0.007));
#1108=CARTESIAN_POINT('',(0.30391192931384,0.0532992142461063,-0.007));
#1109=CARTESIAN_POINT('',(0.29891192931384,0.0532992142461063,-0.007));
#1110=CARTESIAN_POINT('',(0.29891192931384,0.0357992142461063,-0.007));
#1111=CARTESIAN_POINT('',(0.302311929313839,0.0532992142461063,0.015));
#1112=CARTESIAN_POINT('',(0.27571192931384,0.0532992142461063,0.015));
#1113=CARTESIAN_POINT('',(0.27571192931384,0.0532992142461063,0.02));
#1114=CARTESIAN_POINT('',(0.27571192931384,0.0532992142461063,0.012));
#1115=CARTESIAN_POINT('',(0.28481192931384,0.0532992142461063,0.012));
#1116=CARTESIAN_POINT('',(0.299811929313839,0.0532992142461063,0.015));
#1117=CARTESIAN_POINT('',(0.29891192931384,0.0532992142461063,0.015));
#1118=CARTESIAN_POINT('',(0.29891192931384,0.0532992142461063,-0.007002));
#1119=CARTESIAN_POINT('',(0.308911929313839,0.0532992142461063,-0.007002));
#1120=CARTESIAN_POINT('',(0.323911929313839,0.0532992142461063,0.02));
#1121=CARTESIAN_POINT('',(0.323911929313839,0.0532992142461063,0.02));
#1122=CARTESIAN_POINT('',(0.299811929313839,0.0532992142461063,0.02));
#1123=CARTESIAN_POINT('',(0.27571192931384,0.0695492142461063,0.015));
#1124=CARTESIAN_POINT('',(0.27571192931384,0.0695492142461063,0.012));
#1125=CARTESIAN_POINT('',(0.27571192931384,0.0857992142461064,0.012));
#1126=CARTESIAN_POINT('',(0.27571192931384,0.0695492142461063,0.02));
#1127=CARTESIAN_POINT('',(0.27571192931384,0.0857992142461063,0.02));
#1128=CARTESIAN_POINT('',(0.27571192931384,0.0857992142461063,0.015));
#1129=CARTESIAN_POINT('',(0.32891192931384,0.0538086075025049,0.015));
#1130=CARTESIAN_POINT('',(0.32891192931384,0.0317992142461063,0.02));
#1131=CARTESIAN_POINT('',(0.32891192931384,0.0402992142461063,0.02));
#1132=CARTESIAN_POINT('',(0.32891192931384,0.0857992142461063,0.02));
#1133=CARTESIAN_POINT('',(0.32891192931384,0.0182992142461063,0.038));
#1134=CARTESIAN_POINT('',(0.32891192931384,0.0182992142461063,0.038));
#1135=CARTESIAN_POINT('',(0.32891192931384,0.0252992142461063,0.038));
#1136=CARTESIAN_POINT('',(0.32891192931384,0.0102992142461063,0.038));
#1137=CARTESIAN_POINT('',(0.32891192931384,0.0102992142461063,0.015));
#1138=CARTESIAN_POINT('',(0.32891192931384,0.0857992142461063,0.015));
#1139=CARTESIAN_POINT('',(0.324911929313839,0.0606526920833684,0.015));
#1140=CARTESIAN_POINT('',(0.324911929313839,0.0606526920833684,0.));
#1141=CARTESIAN_POINT('',(0.324911929313839,0.0588561699206305,0.));
#1142=CARTESIAN_POINT('',(0.324911929313839,0.0807992142461063,0.));
#1143=CARTESIAN_POINT('',(0.324911929313839,0.0588561699206305,0.015));
#1144=CARTESIAN_POINT('',(0.324911929313839,0.0588561699206305,0.02));
#1145=CARTESIAN_POINT('',(0.324911929313839,0.0698276920833684,0.02));
#1146=CARTESIAN_POINT('',(0.324911929313839,0.0807992142461063,0.02));
#1147=CARTESIAN_POINT('',(0.324911929313839,0.0807992142461063,0.015));
#1148=CARTESIAN_POINT('',(0.324408071750843,0.0580776920833684,0.015));
#1149=CARTESIAN_POINT('',(0.324408071750843,0.0580776920833684,0.));
#1150=CARTESIAN_POINT('',(0.323904214187847,0.0572992142461063,0.));
#1151=CARTESIAN_POINT('',(0.323904214187847,0.0572992142461063,0.015));
#1152=CARTESIAN_POINT('',(0.323904214187847,0.0572992142461063,0.02));
#1153=CARTESIAN_POINT('',(0.324408071750843,0.0580776920833684,0.02));
#1154=CARTESIAN_POINT('',(0.309660632826358,0.0572992142461063,0.015));
#1155=CARTESIAN_POINT('',(0.309660632826358,0.0572992142461063,0.));
#1156=CARTESIAN_POINT('',(0.280715786862484,0.0572992142461063,0.));
#1157=CARTESIAN_POINT('',(0.292711929313839,0.0572992142461062,0.));
#1158=CARTESIAN_POINT('',(0.280715786862484,0.0572992179662628,0.015));
#1159=CARTESIAN_POINT('',(0.280715786862484,0.0572992142461063,0.015));
#1160=CARTESIAN_POINT('',(0.280715786862484,0.0572992142461063,0.02));
#1161=CARTESIAN_POINT('',(0.280715786862484,0.0572992142461063,0.02));
#1162=CARTESIAN_POINT('',(0.302310000525166,0.0572992142461063,0.02));
#1163=CARTESIAN_POINT('',(0.309660632826358,0.0572992142461063,0.));
#1164=CARTESIAN_POINT('',(0.311911929313839,0.0572992142461062,0.));
#1165=CARTESIAN_POINT('',(0.311911929313839,0.0572992142461062,-0.007));
#1166=CARTESIAN_POINT('',(0.292711929313839,0.0572992142461062,-0.007));
#1167=CARTESIAN_POINT('',(0.28071192931384,0.0582992142461063,0.015));
#1168=CARTESIAN_POINT('',(0.28071192931384,0.0582992142461063,0.));
#1169=CARTESIAN_POINT('',(0.27971192931384,0.0582992142461063,0.));
#1170=CARTESIAN_POINT('',(0.27971192931384,0.0582992142461063,0.015));
#1171=CARTESIAN_POINT('',(0.27971192931384,0.0582992142461063,0.02));
#1172=CARTESIAN_POINT('',(0.28071192931384,0.0582992142461063,0.02));
#1173=CARTESIAN_POINT('',(0.27971192931384,0.0695492142461063,0.015));
#1174=CARTESIAN_POINT('',(0.27971192931384,0.0695492142461063,0.));
#1175=CARTESIAN_POINT('',(0.27971192931384,0.0807992142461063,0.));
#1176=CARTESIAN_POINT('',(0.27971192931384,0.0807992142461063,0.015));
#1177=CARTESIAN_POINT('',(0.27971192931384,0.0807992142461063,0.02));
#1178=CARTESIAN_POINT('',(0.27971192931384,0.0587992142461063,0.02));
#1179=CARTESIAN_POINT('',(0.28071192931384,0.0807992142461063,0.015));
#1180=CARTESIAN_POINT('',(0.28071192931384,0.0807992142461063,0.));
#1181=CARTESIAN_POINT('',(0.28071192931384,0.0817992142461063,0.));
#1182=CARTESIAN_POINT('',(0.28071192931384,0.0817992142461063,0.015));
#1183=CARTESIAN_POINT('',(0.28071192931384,0.0817992142461063,0.02));
#1184=CARTESIAN_POINT('',(0.28071192931384,0.0807992142461063,0.02));
#1185=CARTESIAN_POINT('',(0.287532401503116,0.0817992142461063,0.015));
#1186=CARTESIAN_POINT('',(0.287532401503116,0.0817992142461063,0.));
#1187=CARTESIAN_POINT('',(0.292711929313839,0.0817992142461061,0.));
#1188=CARTESIAN_POINT('',(0.292711929313839,0.0817992142461061,-0.007));
#1189=CARTESIAN_POINT('',(0.311911929313839,0.0817992142461061,-0.007));
#1190=CARTESIAN_POINT('',(0.311911929313839,0.0817992142461061,0.));
#1191=CARTESIAN_POINT('',(0.287532401503116,0.0817992142461063,0.));
#1192=CARTESIAN_POINT('',(0.323911929313839,0.0817992142461063,0.));
#1193=CARTESIAN_POINT('',(0.323911929313839,0.0817992142461063,0.015));
#1194=CARTESIAN_POINT('',(0.323911929313839,0.0817992142461063,0.02));
#1195=CARTESIAN_POINT('',(0.302311929313839,0.0817992142461063,0.02));
#1196=CARTESIAN_POINT('',(0.324411929313839,0.0812992142461063,0.015));
#1197=CARTESIAN_POINT('',(0.324411929313839,0.0812992142461063,0.));
#1198=CARTESIAN_POINT('',(0.324411929313839,0.0812992142461063,0.02));
#1199=CARTESIAN_POINT('',(0.302311929313839,0.0857992142461063,0.015));
#1200=CARTESIAN_POINT('',(0.27571192931384,0.0857992142461064,-0.007));
#1201=CARTESIAN_POINT('',(0.302311929313839,0.0857992142461063,0.02));
#1202=CARTESIAN_POINT('',(0.311411929313839,0.0102992142461063,0.015));
#1203=CARTESIAN_POINT('',(0.261911929313839,0.0102992142461063,0.015));
#1204=CARTESIAN_POINT('',(0.261911929313839,0.0102992142461063,0.038));
#1205=CARTESIAN_POINT('',(0.29541192931384,0.0102992142461063,0.038));
#1206=CARTESIAN_POINT('',(0.261911929313839,0.0142992142461063,0.015));
#1207=CARTESIAN_POINT('',(0.261911929313839,0.0182992142461063,-0.007));
#1208=CARTESIAN_POINT('',(0.261911929313839,0.0142992142461063,0.038));
#1209=CARTESIAN_POINT('',(0.29541192931384,0.0480492142461063,0.));
#1210=CARTESIAN_POINT('',(0.284612811520721,0.0694098874856298,0.));
#1211=CARTESIAN_POINT('',(0.281612811520721,0.0694098874856298,0.));
#1212=CARTESIAN_POINT('',(0.292711929313839,0.0695492142461062,0.));
#1213=CARTESIAN_POINT('',(0.29541192931384,0.0480492142461063,0.));
#1214=CARTESIAN_POINT('',(0.311911929313839,0.0695492142461061,0.));
#1215=CARTESIAN_POINT('',(0.43389345105297,0.0182992142461063,-0.007));
#1216=CARTESIAN_POINT('',(0.433893451052969,0.0182992142461063,0.012));
#1217=CARTESIAN_POINT('',(0.311911929313839,0.0695492142461061,-0.007));
#1218=CARTESIAN_POINT('',(0.292711929313839,0.0695492142461062,-0.007));
#1219=CARTESIAN_POINT('',(0.323911929313839,0.0357992142461063,0.02));
#1220=CARTESIAN_POINT('',(0.323911929313839,0.0376036696916508,0.0222054455445545));
#1221=CARTESIAN_POINT('',(0.323911929313839,0.0402992142461063,0.02));
#1222=CARTESIAN_POINT('',(0.323911929313839,0.0357992142461063,0.02));
#1223=CARTESIAN_POINT('',(0.29541192931384,0.0480492142461063,0.02));
#1224=CARTESIAN_POINT('',(0.326411929313839,0.0402992142461063,0.02));
#1225=CARTESIAN_POINT('',(0.284612811520721,0.0394098874856298,0.018));
#1226=CARTESIAN_POINT('',(0.284612811520721,0.0394098874856298,-0.003));
#1227=CARTESIAN_POINT('',(0.283012811520721,0.0394098874856298,-0.003));
#1228=CARTESIAN_POINT('',(0.284612811520721,0.0694098874856298,0.018));
#1229=CARTESIAN_POINT('',(0.284612811520721,0.0694098874856298,-0.003));
#1230=CARTESIAN_POINT('',(0.283012811520721,0.0694098874856298,-0.003));
#1231=CARTESIAN_POINT('',(0.314612811520721,0.0394098874856298,0.018));
#1232=CARTESIAN_POINT('',(0.314612811520721,0.0394098874856298,-0.003));
#1233=CARTESIAN_POINT('',(0.313012811520721,0.0394098874856298,-0.003));
#1234=CARTESIAN_POINT('',(0.299612811520721,0.0544098874856298,-0.003));
#1235=CARTESIAN_POINT('',(0.314612811520721,0.0394098874856298,-0.003));
#1236=CARTESIAN_POINT('',(0.311612811520721,0.0394098874856298,-0.003));
#1237=CARTESIAN_POINT('',(0.314612811520721,0.0394098874856298,0.047));
#1238=CARTESIAN_POINT('',(0.284612811520721,0.0694098874856298,0.047));
#1239=CARTESIAN_POINT('',(0.284612811520721,0.0694098874856298,-0.003));
#1240=CARTESIAN_POINT('',(0.281612811520721,0.0694098874856298,-0.003));
#1241=CARTESIAN_POINT('',(0.299612811520721,0.0544098874856298,-0.003));
#1242=CARTESIAN_POINT('',(0.284612811520721,0.0394098874856298,0.047));
#1243=CARTESIAN_POINT('',(0.284612811520721,0.0394098874856298,-0.003));
#1244=CARTESIAN_POINT('',(0.281612811520721,0.0394098874856298,-0.003));
#1245=CARTESIAN_POINT('',(0.284612811520721,0.0394098874856298,0.012));
#1246=CARTESIAN_POINT('',(0.287612811520721,0.0394098874856298,0.012));
#1247=CARTESIAN_POINT('',(0.299612811520721,0.0544098874856298,-0.003));
#1248=CARTESIAN_POINT('',(0.29541192931384,0.0252992142461063,0.038));
#1249=CARTESIAN_POINT('',(0.323911929313839,0.0182992142461063,0.038));
#1250=CARTESIAN_POINT('',(0.29291192931384,0.0182992142461064,0.038));
#1251=CARTESIAN_POINT('',(0.29541192931384,0.0182992142461063,0.038));
#1252=CARTESIAN_POINT('',(0.29891192931384,0.0357992142461063,-0.007002));
#1253=CARTESIAN_POINT('',(0.29891192931384,0.0511749896166878,0.0163959190421893));
#1254=CARTESIAN_POINT('',(0.308911929313839,0.0357992142461063,-0.007002));
#1255=CARTESIAN_POINT('',(0.27791192931384,0.0520492142461063,0.012));
#1256=CARTESIAN_POINT('',(0.232873030395974,0.0532992142461063,0.015));
#1257=MECHANICAL_DESIGN_GEOMETRIC_PRESENTATION_REPRESENTATION('',(#770),
#1258);
#1258=(
GEOMETRIC_REPRESENTATION_CONTEXT(3)
GLOBAL_UNCERTAINTY_ASSIGNED_CONTEXT((#1259))
GLOBAL_UNIT_ASSIGNED_CONTEXT((#1262,#1261,#1260))
REPRESENTATION_CONTEXT('Part 1','TOP_LEVEL_ASSEMBLY_PART')
);
#1259=UNCERTAINTY_MEASURE_WITH_UNIT(LENGTH_MEASURE(2.2E-7),#1262,
'DISTANCE_ACCURACY_VALUE','Maximum Tolerance applied to model');
#1260=(
NAMED_UNIT(*)
SI_UNIT($,.STERADIAN.)
SOLID_ANGLE_UNIT()
);
#1261=(
NAMED_UNIT(*)
PLANE_ANGLE_UNIT()
SI_UNIT($,.RADIAN.)
);
#1262=(
LENGTH_UNIT()
NAMED_UNIT(*)
SI_UNIT($,.METRE.)
);
#1263=PRODUCT_DEFINITION_SHAPE('','',#1264);
#1264=PRODUCT_DEFINITION('','',#1266,#1265);
#1265=PRODUCT_DEFINITION_CONTEXT('',#1272,'design');
#1266=PRODUCT_DEFINITION_FORMATION_WITH_SPECIFIED_SOURCE('','',#1268,
 .NOT_KNOWN.);
#1267=PRODUCT_RELATED_PRODUCT_CATEGORY('','',(#1268));
#1268=PRODUCT('Part 1','Part 1','Part 1',(#1270));
#1269=PRODUCT_CATEGORY('','');
#1270=PRODUCT_CONTEXT('',#1272,'mechanical');
#1271=APPLICATION_PROTOCOL_DEFINITION('international standard',
'ap242_managed_model_based_3d_engineering',2020,#1272);
#1272=APPLICATION_CONTEXT('managed model based 3d engineering');
ENDSEC;
END-ISO-10303-21;
