ISO-10303-21;
HEADER;
/* Generated by software containing ST-Developer
 * from STEP Tools, Inc. (www.steptools.com) 
 */
/* OPTION: using custom renumber hook */

FILE_DESCRIPTION(
/* description */ ('STEP AP242 Edition 2',
'CAx-IF Rec.Pracs.---Representation and Presentation of Product Manufa
cturing Information (PMI)---4.0---2014-10-13',
'CAx-IF Rec.Pracs.---3D Tessellated Geometry---0.4---2014-09-14','2;1',
'CAx-IF Rec.Pracs.---User Defined Attributes---1.5---2016-08-15'),
/* implementation_level */ '2;1');

FILE_NAME(
/* name */ 'stepdown_drzak',
/* time_stamp */ '2026-07-22T20:58:07Z',
/* author */ (''),
/* organization */ (''),
/* preprocessor_version */ 'ST-DEVELOPER v20',
/* originating_system */ 'ONSHAPE BY PTC INC, 1.218',
/* authorisation */ '  ');

FILE_SCHEMA (('AP242_MANAGED_MODEL_BASED_3D_ENGINEERING_MIM_LF { 1 0 10303 442 3 1 4 }'));
ENDSEC;

DATA;
#10=SHAPE_REPRESENTATION_RELATIONSHIP('','',#363,#11);
#11=ADVANCED_BREP_SHAPE_REPRESENTATION('',(#361),#609);
#12=LINE('',#541,#24);
#13=LINE('',#544,#25);
#14=LINE('',#546,#26);
#15=LINE('',#548,#27);
#16=LINE('',#550,#28);
#17=LINE('',#552,#29);
#18=LINE('',#554,#30);
#19=LINE('',#556,#31);
#20=LINE('',#558,#32);
#21=LINE('',#560,#33);
#22=LINE('',#562,#34);
#23=LINE('',#563,#35);
#24=VECTOR('',#443,1.);
#25=VECTOR('',#444,1.);
#26=VECTOR('',#445,1.);
#27=VECTOR('',#446,1.);
#28=VECTOR('',#449,1.);
#29=VECTOR('',#450,1.);
#30=VECTOR('',#451,1.);
#31=VECTOR('',#454,1.);
#32=VECTOR('',#455,1.);
#33=VECTOR('',#456,1.);
#34=VECTOR('',#459,1.);
#35=VECTOR('',#460,1.);
#36=PLANE('',#371);
#37=PLANE('',#378);
#38=PLANE('',#379);
#39=PLANE('',#380);
#40=PLANE('',#381);
#41=PLANE('',#382);
#42=PLANE('',#383);
#43=PLANE('',#390);
#44=PLANE('',#397);
#45=PLANE('',#402);
#46=ORIENTED_EDGE('',*,*,#118,.F.);
#47=ORIENTED_EDGE('',*,*,#119,.F.);
#48=ORIENTED_EDGE('',*,*,#120,.F.);
#49=ORIENTED_EDGE('',*,*,#121,.T.);
#50=ORIENTED_EDGE('',*,*,#118,.T.);
#51=ORIENTED_EDGE('',*,*,#121,.F.);
#52=ORIENTED_EDGE('',*,*,#122,.F.);
#53=ORIENTED_EDGE('',*,*,#123,.F.);
#54=ORIENTED_EDGE('',*,*,#124,.F.);
#55=ORIENTED_EDGE('',*,*,#125,.T.);
#56=ORIENTED_EDGE('',*,*,#122,.T.);
#57=ORIENTED_EDGE('',*,*,#125,.F.);
#58=ORIENTED_EDGE('',*,*,#126,.F.);
#59=ORIENTED_EDGE('',*,*,#127,.F.);
#60=ORIENTED_EDGE('',*,*,#128,.T.);
#61=ORIENTED_EDGE('',*,*,#129,.T.);
#62=ORIENTED_EDGE('',*,*,#130,.T.);
#63=ORIENTED_EDGE('',*,*,#131,.F.);
#64=ORIENTED_EDGE('',*,*,#132,.F.);
#65=ORIENTED_EDGE('',*,*,#127,.T.);
#66=ORIENTED_EDGE('',*,*,#133,.T.);
#67=ORIENTED_EDGE('',*,*,#134,.F.);
#68=ORIENTED_EDGE('',*,*,#135,.F.);
#69=ORIENTED_EDGE('',*,*,#131,.T.);
#70=ORIENTED_EDGE('',*,*,#136,.F.);
#71=ORIENTED_EDGE('',*,*,#129,.F.);
#72=ORIENTED_EDGE('',*,*,#137,.T.);
#73=ORIENTED_EDGE('',*,*,#134,.T.);
#74=ORIENTED_EDGE('',*,*,#119,.T.);
#75=ORIENTED_EDGE('',*,*,#138,.T.);
#76=ORIENTED_EDGE('',*,*,#123,.T.);
#77=ORIENTED_EDGE('',*,*,#139,.T.);
#78=ORIENTED_EDGE('',*,*,#140,.F.);
#79=ORIENTED_EDGE('',*,*,#141,.F.);
#80=ORIENTED_EDGE('',*,*,#142,.F.);
#81=ORIENTED_EDGE('',*,*,#143,.F.);
#82=ORIENTED_EDGE('',*,*,#128,.F.);
#83=ORIENTED_EDGE('',*,*,#132,.T.);
#84=ORIENTED_EDGE('',*,*,#135,.T.);
#85=ORIENTED_EDGE('',*,*,#137,.F.);
#86=ORIENTED_EDGE('',*,*,#144,.F.);
#87=ORIENTED_EDGE('',*,*,#145,.F.);
#88=ORIENTED_EDGE('',*,*,#146,.F.);
#89=ORIENTED_EDGE('',*,*,#147,.F.);
#90=ORIENTED_EDGE('',*,*,#120,.T.);
#91=ORIENTED_EDGE('',*,*,#148,.T.);
#92=ORIENTED_EDGE('',*,*,#124,.T.);
#93=ORIENTED_EDGE('',*,*,#149,.T.);
#94=ORIENTED_EDGE('',*,*,#126,.T.);
#95=ORIENTED_EDGE('',*,*,#136,.T.);
#96=ORIENTED_EDGE('',*,*,#133,.F.);
#97=ORIENTED_EDGE('',*,*,#130,.F.);
#98=ORIENTED_EDGE('',*,*,#150,.T.);
#99=ORIENTED_EDGE('',*,*,#151,.F.);
#100=ORIENTED_EDGE('',*,*,#149,.F.);
#101=ORIENTED_EDGE('',*,*,#151,.T.);
#102=ORIENTED_EDGE('',*,*,#150,.F.);
#103=ORIENTED_EDGE('',*,*,#138,.F.);
#104=ORIENTED_EDGE('',*,*,#152,.T.);
#105=ORIENTED_EDGE('',*,*,#153,.F.);
#106=ORIENTED_EDGE('',*,*,#148,.F.);
#107=ORIENTED_EDGE('',*,*,#153,.T.);
#108=ORIENTED_EDGE('',*,*,#152,.F.);
#109=ORIENTED_EDGE('',*,*,#139,.F.);
#110=ORIENTED_EDGE('',*,*,#147,.T.);
#111=ORIENTED_EDGE('',*,*,#143,.T.);
#112=ORIENTED_EDGE('',*,*,#146,.T.);
#113=ORIENTED_EDGE('',*,*,#142,.T.);
#114=ORIENTED_EDGE('',*,*,#145,.T.);
#115=ORIENTED_EDGE('',*,*,#141,.T.);
#116=ORIENTED_EDGE('',*,*,#144,.T.);
#117=ORIENTED_EDGE('',*,*,#140,.T.);
#118=EDGE_CURVE('',#154,#154,#186,.T.);
#119=EDGE_CURVE('',#155,#155,#187,.F.);
#120=EDGE_CURVE('',#156,#156,#188,.T.);
#121=EDGE_CURVE('',#157,#157,#189,.T.);
#122=EDGE_CURVE('',#158,#158,#190,.T.);
#123=EDGE_CURVE('',#159,#159,#191,.F.);
#124=EDGE_CURVE('',#160,#160,#192,.T.);
#125=EDGE_CURVE('',#161,#161,#193,.T.);
#126=EDGE_CURVE('',#162,#163,#12,.T.);
#127=EDGE_CURVE('',#164,#162,#13,.T.);
#128=EDGE_CURVE('',#164,#165,#14,.T.);
#129=EDGE_CURVE('',#165,#163,#15,.T.);
#130=EDGE_CURVE('',#162,#166,#16,.T.);
#131=EDGE_CURVE('',#167,#166,#17,.T.);
#132=EDGE_CURVE('',#164,#167,#18,.T.);
#133=EDGE_CURVE('',#166,#168,#19,.T.);
#134=EDGE_CURVE('',#169,#168,#20,.T.);
#135=EDGE_CURVE('',#167,#169,#21,.T.);
#136=EDGE_CURVE('',#163,#168,#22,.T.);
#137=EDGE_CURVE('',#165,#169,#23,.T.);
#138=EDGE_CURVE('',#170,#170,#194,.F.);
#139=EDGE_CURVE('',#171,#171,#195,.F.);
#140=EDGE_CURVE('',#172,#172,#196,.T.);
#141=EDGE_CURVE('',#173,#173,#197,.T.);
#142=EDGE_CURVE('',#174,#174,#198,.T.);
#143=EDGE_CURVE('',#175,#175,#199,.T.);
#144=EDGE_CURVE('',#176,#176,#200,.F.);
#145=EDGE_CURVE('',#177,#177,#201,.F.);
#146=EDGE_CURVE('',#178,#178,#202,.F.);
#147=EDGE_CURVE('',#179,#179,#203,.F.);
#148=EDGE_CURVE('',#180,#180,#204,.T.);
#149=EDGE_CURVE('',#181,#181,#205,.T.);
#150=EDGE_CURVE('',#182,#182,#206,.T.);
#151=EDGE_CURVE('',#183,#183,#207,.T.);
#152=EDGE_CURVE('',#184,#184,#208,.T.);
#153=EDGE_CURVE('',#185,#185,#209,.T.);
#154=VERTEX_POINT('',#520);
#155=VERTEX_POINT('',#522);
#156=VERTEX_POINT('',#525);
#157=VERTEX_POINT('',#527);
#158=VERTEX_POINT('',#531);
#159=VERTEX_POINT('',#533);
#160=VERTEX_POINT('',#536);
#161=VERTEX_POINT('',#538);
#162=VERTEX_POINT('',#542);
#163=VERTEX_POINT('',#543);
#164=VERTEX_POINT('',#545);
#165=VERTEX_POINT('',#547);
#166=VERTEX_POINT('',#551);
#167=VERTEX_POINT('',#553);
#168=VERTEX_POINT('',#557);
#169=VERTEX_POINT('',#559);
#170=VERTEX_POINT('',#566);
#171=VERTEX_POINT('',#568);
#172=VERTEX_POINT('',#570);
#173=VERTEX_POINT('',#572);
#174=VERTEX_POINT('',#574);
#175=VERTEX_POINT('',#576);
#176=VERTEX_POINT('',#579);
#177=VERTEX_POINT('',#581);
#178=VERTEX_POINT('',#583);
#179=VERTEX_POINT('',#585);
#180=VERTEX_POINT('',#587);
#181=VERTEX_POINT('',#589);
#182=VERTEX_POINT('',#592);
#183=VERTEX_POINT('',#594);
#184=VERTEX_POINT('',#599);
#185=VERTEX_POINT('',#601);
#186=CIRCLE('',#366,0.0016);
#187=CIRCLE('',#367,0.0016);
#188=CIRCLE('',#369,0.004);
#189=CIRCLE('',#370,0.004);
#190=CIRCLE('',#373,0.0016);
#191=CIRCLE('',#374,0.0016);
#192=CIRCLE('',#376,0.004);
#193=CIRCLE('',#377,0.004);
#194=CIRCLE('',#384,0.0016);
#195=CIRCLE('',#385,0.0016);
#196=CIRCLE('',#386,0.002);
#197=CIRCLE('',#387,0.002);
#198=CIRCLE('',#388,0.002);
#199=CIRCLE('',#389,0.002);
#200=CIRCLE('',#391,0.002);
#201=CIRCLE('',#392,0.002);
#202=CIRCLE('',#393,0.002);
#203=CIRCLE('',#394,0.002);
#204=CIRCLE('',#395,0.004);
#205=CIRCLE('',#396,0.004);
#206=CIRCLE('',#398,0.0016);
#207=CIRCLE('',#399,0.004);
#208=CIRCLE('',#403,0.0016);
#209=CIRCLE('',#404,0.004);
#210=EDGE_LOOP('',(#46));
#211=EDGE_LOOP('',(#47));
#212=EDGE_LOOP('',(#48));
#213=EDGE_LOOP('',(#49));
#214=EDGE_LOOP('',(#50));
#215=EDGE_LOOP('',(#51));
#216=EDGE_LOOP('',(#52));
#217=EDGE_LOOP('',(#53));
#218=EDGE_LOOP('',(#54));
#219=EDGE_LOOP('',(#55));
#220=EDGE_LOOP('',(#56));
#221=EDGE_LOOP('',(#57));
#222=EDGE_LOOP('',(#58,#59,#60,#61));
#223=EDGE_LOOP('',(#62,#63,#64,#65));
#224=EDGE_LOOP('',(#66,#67,#68,#69));
#225=EDGE_LOOP('',(#70,#71,#72,#73));
#226=EDGE_LOOP('',(#74));
#227=EDGE_LOOP('',(#75));
#228=EDGE_LOOP('',(#76));
#229=EDGE_LOOP('',(#77));
#230=EDGE_LOOP('',(#78));
#231=EDGE_LOOP('',(#79));
#232=EDGE_LOOP('',(#80));
#233=EDGE_LOOP('',(#81));
#234=EDGE_LOOP('',(#82,#83,#84,#85));
#235=EDGE_LOOP('',(#86));
#236=EDGE_LOOP('',(#87));
#237=EDGE_LOOP('',(#88));
#238=EDGE_LOOP('',(#89));
#239=EDGE_LOOP('',(#90));
#240=EDGE_LOOP('',(#91));
#241=EDGE_LOOP('',(#92));
#242=EDGE_LOOP('',(#93));
#243=EDGE_LOOP('',(#94,#95,#96,#97));
#244=EDGE_LOOP('',(#98));
#245=EDGE_LOOP('',(#99));
#246=EDGE_LOOP('',(#100));
#247=EDGE_LOOP('',(#101));
#248=EDGE_LOOP('',(#102));
#249=EDGE_LOOP('',(#103));
#250=EDGE_LOOP('',(#104));
#251=EDGE_LOOP('',(#105));
#252=EDGE_LOOP('',(#106));
#253=EDGE_LOOP('',(#107));
#254=EDGE_LOOP('',(#108));
#255=EDGE_LOOP('',(#109));
#256=EDGE_LOOP('',(#110));
#257=EDGE_LOOP('',(#111));
#258=EDGE_LOOP('',(#112));
#259=EDGE_LOOP('',(#113));
#260=EDGE_LOOP('',(#114));
#261=EDGE_LOOP('',(#115));
#262=EDGE_LOOP('',(#116));
#263=EDGE_LOOP('',(#117));
#264=FACE_BOUND('',#210,.T.);
#265=FACE_BOUND('',#211,.T.);
#266=FACE_BOUND('',#212,.T.);
#267=FACE_BOUND('',#213,.T.);
#268=FACE_BOUND('',#214,.T.);
#269=FACE_BOUND('',#215,.T.);
#270=FACE_BOUND('',#216,.T.);
#271=FACE_BOUND('',#217,.T.);
#272=FACE_BOUND('',#218,.T.);
#273=FACE_BOUND('',#219,.T.);
#274=FACE_BOUND('',#220,.T.);
#275=FACE_BOUND('',#221,.T.);
#276=FACE_BOUND('',#222,.T.);
#277=FACE_BOUND('',#223,.T.);
#278=FACE_BOUND('',#224,.T.);
#279=FACE_BOUND('',#225,.T.);
#280=FACE_BOUND('',#226,.T.);
#281=FACE_BOUND('',#227,.T.);
#282=FACE_BOUND('',#228,.T.);
#283=FACE_BOUND('',#229,.T.);
#284=FACE_BOUND('',#230,.T.);
#285=FACE_BOUND('',#231,.T.);
#286=FACE_BOUND('',#232,.T.);
#287=FACE_BOUND('',#233,.T.);
#288=FACE_BOUND('',#234,.T.);
#289=FACE_BOUND('',#235,.T.);
#290=FACE_BOUND('',#236,.T.);
#291=FACE_BOUND('',#237,.T.);
#292=FACE_BOUND('',#238,.T.);
#293=FACE_BOUND('',#239,.T.);
#294=FACE_BOUND('',#240,.T.);
#295=FACE_BOUND('',#241,.T.);
#296=FACE_BOUND('',#242,.T.);
#297=FACE_BOUND('',#243,.T.);
#298=FACE_BOUND('',#244,.T.);
#299=FACE_BOUND('',#245,.T.);
#300=FACE_BOUND('',#246,.T.);
#301=FACE_BOUND('',#247,.T.);
#302=FACE_BOUND('',#248,.T.);
#303=FACE_BOUND('',#249,.T.);
#304=FACE_BOUND('',#250,.T.);
#305=FACE_BOUND('',#251,.T.);
#306=FACE_BOUND('',#252,.T.);
#307=FACE_BOUND('',#253,.T.);
#308=FACE_BOUND('',#254,.T.);
#309=FACE_BOUND('',#255,.T.);
#310=FACE_BOUND('',#256,.T.);
#311=FACE_BOUND('',#257,.T.);
#312=FACE_BOUND('',#258,.T.);
#313=FACE_BOUND('',#259,.T.);
#314=FACE_BOUND('',#260,.T.);
#315=FACE_BOUND('',#261,.T.);
#316=FACE_BOUND('',#262,.T.);
#317=FACE_BOUND('',#263,.T.);
#318=CYLINDRICAL_SURFACE('',#365,0.0016);
#319=CYLINDRICAL_SURFACE('',#368,0.004);
#320=CYLINDRICAL_SURFACE('',#372,0.0016);
#321=CYLINDRICAL_SURFACE('',#375,0.004);
#322=CYLINDRICAL_SURFACE('',#400,0.004);
#323=CYLINDRICAL_SURFACE('',#401,0.0016);
#324=CYLINDRICAL_SURFACE('',#405,0.004);
#325=CYLINDRICAL_SURFACE('',#406,0.0016);
#326=CYLINDRICAL_SURFACE('',#407,0.002);
#327=CYLINDRICAL_SURFACE('',#408,0.002);
#328=CYLINDRICAL_SURFACE('',#409,0.002);
#329=CYLINDRICAL_SURFACE('',#410,0.002);
#330=ADVANCED_FACE('',(#264,#265),#318,.F.);
#331=ADVANCED_FACE('',(#266,#267),#319,.T.);
#332=ADVANCED_FACE('',(#268,#269),#36,.F.);
#333=ADVANCED_FACE('',(#270,#271),#320,.F.);
#334=ADVANCED_FACE('',(#272,#273),#321,.T.);
#335=ADVANCED_FACE('',(#274,#275),#37,.F.);
#336=ADVANCED_FACE('',(#276),#38,.T.);
#337=ADVANCED_FACE('',(#277),#39,.F.);
#338=ADVANCED_FACE('',(#278),#40,.F.);
#339=ADVANCED_FACE('',(#279),#41,.T.);
#340=ADVANCED_FACE('',(#280,#281,#282,#283,#284,#285,#286,#287,#288),#42,
 .T.);
#341=ADVANCED_FACE('',(#289,#290,#291,#292,#293,#294,#295,#296,#297),#43,
 .F.);
#342=ADVANCED_FACE('',(#298,#299),#44,.F.);
#343=ADVANCED_FACE('',(#300,#301),#322,.T.);
#344=ADVANCED_FACE('',(#302,#303),#323,.F.);
#345=ADVANCED_FACE('',(#304,#305),#45,.F.);
#346=ADVANCED_FACE('',(#306,#307),#324,.T.);
#347=ADVANCED_FACE('',(#308,#309),#325,.F.);
#348=ADVANCED_FACE('',(#310,#311),#326,.F.);
#349=ADVANCED_FACE('',(#312,#313),#327,.F.);
#350=ADVANCED_FACE('',(#314,#315),#328,.F.);
#351=ADVANCED_FACE('',(#316,#317),#329,.F.);
#352=CLOSED_SHELL('',(#330,#331,#332,#333,#334,#335,#336,#337,#338,#339,
#340,#341,#342,#343,#344,#345,#346,#347,#348,#349,#350,#351));
#353=STYLED_ITEM('',(#354),#361);
#354=PRESENTATION_STYLE_ASSIGNMENT((#355));
#355=SURFACE_STYLE_USAGE(.BOTH.,#356);
#356=SURFACE_SIDE_STYLE('',(#357));
#357=SURFACE_STYLE_FILL_AREA(#358);
#358=FILL_AREA_STYLE('',(#359));
#359=FILL_AREA_STYLE_COLOUR('',#360);
#360=COLOUR_RGB('',0.372549019607843,0.654901960784314,0.23921568627451);
#361=MANIFOLD_SOLID_BREP('Part 1',#352);
#362=SHAPE_DEFINITION_REPRESENTATION(#614,#363);
#363=SHAPE_REPRESENTATION('Part 1',(#364),#609);
#364=AXIS2_PLACEMENT_3D('',#517,#411,#412);
#365=AXIS2_PLACEMENT_3D('',#518,#413,#414);
#366=AXIS2_PLACEMENT_3D('',#519,#415,#416);
#367=AXIS2_PLACEMENT_3D('',#521,#417,#418);
#368=AXIS2_PLACEMENT_3D('',#523,#419,#420);
#369=AXIS2_PLACEMENT_3D('',#524,#421,#422);
#370=AXIS2_PLACEMENT_3D('',#526,#423,#424);
#371=AXIS2_PLACEMENT_3D('',#528,#425,#426);
#372=AXIS2_PLACEMENT_3D('',#529,#427,#428);
#373=AXIS2_PLACEMENT_3D('',#530,#429,#430);
#374=AXIS2_PLACEMENT_3D('',#532,#431,#432);
#375=AXIS2_PLACEMENT_3D('',#534,#433,#434);
#376=AXIS2_PLACEMENT_3D('',#535,#435,#436);
#377=AXIS2_PLACEMENT_3D('',#537,#437,#438);
#378=AXIS2_PLACEMENT_3D('',#539,#439,#440);
#379=AXIS2_PLACEMENT_3D('',#540,#441,#442);
#380=AXIS2_PLACEMENT_3D('',#549,#447,#448);
#381=AXIS2_PLACEMENT_3D('',#555,#452,#453);
#382=AXIS2_PLACEMENT_3D('',#561,#457,#458);
#383=AXIS2_PLACEMENT_3D('',#564,#461,#462);
#384=AXIS2_PLACEMENT_3D('',#565,#463,#464);
#385=AXIS2_PLACEMENT_3D('',#567,#465,#466);
#386=AXIS2_PLACEMENT_3D('',#569,#467,#468);
#387=AXIS2_PLACEMENT_3D('',#571,#469,#470);
#388=AXIS2_PLACEMENT_3D('',#573,#471,#472);
#389=AXIS2_PLACEMENT_3D('',#575,#473,#474);
#390=AXIS2_PLACEMENT_3D('',#577,#475,#476);
#391=AXIS2_PLACEMENT_3D('',#578,#477,#478);
#392=AXIS2_PLACEMENT_3D('',#580,#479,#480);
#393=AXIS2_PLACEMENT_3D('',#582,#481,#482);
#394=AXIS2_PLACEMENT_3D('',#584,#483,#484);
#395=AXIS2_PLACEMENT_3D('',#586,#485,#486);
#396=AXIS2_PLACEMENT_3D('',#588,#487,#488);
#397=AXIS2_PLACEMENT_3D('',#590,#489,#490);
#398=AXIS2_PLACEMENT_3D('',#591,#491,#492);
#399=AXIS2_PLACEMENT_3D('',#593,#493,#494);
#400=AXIS2_PLACEMENT_3D('',#595,#495,#496);
#401=AXIS2_PLACEMENT_3D('',#596,#497,#498);
#402=AXIS2_PLACEMENT_3D('',#597,#499,#500);
#403=AXIS2_PLACEMENT_3D('',#598,#501,#502);
#404=AXIS2_PLACEMENT_3D('',#600,#503,#504);
#405=AXIS2_PLACEMENT_3D('',#602,#505,#506);
#406=AXIS2_PLACEMENT_3D('',#603,#507,#508);
#407=AXIS2_PLACEMENT_3D('',#604,#509,#510);
#408=AXIS2_PLACEMENT_3D('',#605,#511,#512);
#409=AXIS2_PLACEMENT_3D('',#606,#513,#514);
#410=AXIS2_PLACEMENT_3D('',#607,#515,#516);
#411=DIRECTION('',(0.,0.,1.));
#412=DIRECTION('',(1.,0.,0.));
#413=DIRECTION('',(0.,0.,-1.));
#414=DIRECTION('',(-1.,0.,0.));
#415=DIRECTION('',(0.,0.,1.));
#416=DIRECTION('',(1.,0.,0.));
#417=DIRECTION('',(0.,0.,1.));
#418=DIRECTION('',(1.,0.,0.));
#419=DIRECTION('',(0.,0.,-1.));
#420=DIRECTION('',(-1.,0.,0.));
#421=DIRECTION('',(0.,0.,1.));
#422=DIRECTION('',(1.,0.,0.));
#423=DIRECTION('',(0.,0.,1.));
#424=DIRECTION('',(1.,0.,0.));
#425=DIRECTION('',(0.,0.,1.));
#426=DIRECTION('',(1.,0.,0.));
#427=DIRECTION('',(0.,0.,-1.));
#428=DIRECTION('',(-1.,0.,0.));
#429=DIRECTION('',(0.,0.,1.));
#430=DIRECTION('',(1.,0.,0.));
#431=DIRECTION('',(0.,0.,1.));
#432=DIRECTION('',(1.,0.,0.));
#433=DIRECTION('',(0.,0.,-1.));
#434=DIRECTION('',(-1.,0.,0.));
#435=DIRECTION('',(0.,0.,1.));
#436=DIRECTION('',(1.,0.,0.));
#437=DIRECTION('',(0.,0.,1.));
#438=DIRECTION('',(1.,0.,0.));
#439=DIRECTION('',(0.,0.,1.));
#440=DIRECTION('',(1.,0.,0.));
#441=DIRECTION('',(-1.,-1.89242561015651E-16,0.));
#442=DIRECTION('',(1.89242561015651E-16,-1.,0.));
#443=DIRECTION('',(-1.89242561015651E-16,1.,0.));
#444=DIRECTION('',(0.,0.,-1.));
#445=DIRECTION('',(-1.89242561015651E-16,1.,0.));
#446=DIRECTION('',(0.,0.,-1.));
#447=DIRECTION('',(0.,1.,0.));
#448=DIRECTION('',(0.,0.,1.));
#449=DIRECTION('',(1.,0.,0.));
#450=DIRECTION('',(0.,0.,-1.));
#451=DIRECTION('',(1.,0.,0.));
#452=DIRECTION('',(-1.,-2.52323414687536E-16,0.));
#453=DIRECTION('',(2.52323414687536E-16,-1.,0.));
#454=DIRECTION('',(-2.52323414687536E-16,1.,0.));
#455=DIRECTION('',(0.,0.,-1.));
#456=DIRECTION('',(-2.52323414687536E-16,1.,0.));
#457=DIRECTION('',(0.,1.,0.));
#458=DIRECTION('',(0.,0.,1.));
#459=DIRECTION('',(1.,0.,0.));
#460=DIRECTION('',(1.,0.,0.));
#461=DIRECTION('',(0.,0.,1.));
#462=DIRECTION('',(1.,0.,0.));
#463=DIRECTION('',(0.,0.,1.));
#464=DIRECTION('',(1.,0.,0.));
#465=DIRECTION('',(0.,0.,1.));
#466=DIRECTION('',(1.,0.,0.));
#467=DIRECTION('',(0.,0.,1.));
#468=DIRECTION('',(1.,0.,0.));
#469=DIRECTION('',(0.,0.,1.));
#470=DIRECTION('',(1.,0.,0.));
#471=DIRECTION('',(0.,0.,1.));
#472=DIRECTION('',(1.,0.,0.));
#473=DIRECTION('',(0.,0.,1.));
#474=DIRECTION('',(1.,0.,0.));
#475=DIRECTION('',(0.,0.,1.));
#476=DIRECTION('',(1.,0.,0.));
#477=DIRECTION('',(0.,0.,1.));
#478=DIRECTION('',(1.,0.,0.));
#479=DIRECTION('',(0.,0.,1.));
#480=DIRECTION('',(1.,0.,0.));
#481=DIRECTION('',(0.,0.,1.));
#482=DIRECTION('',(1.,0.,0.));
#483=DIRECTION('',(0.,0.,1.));
#484=DIRECTION('',(1.,0.,0.));
#485=DIRECTION('',(0.,0.,1.));
#486=DIRECTION('',(1.,0.,0.));
#487=DIRECTION('',(0.,0.,1.));
#488=DIRECTION('',(1.,0.,0.));
#489=DIRECTION('',(0.,0.,1.));
#490=DIRECTION('',(1.,0.,0.));
#491=DIRECTION('',(0.,0.,1.));
#492=DIRECTION('',(1.,0.,0.));
#493=DIRECTION('',(0.,0.,1.));
#494=DIRECTION('',(1.,0.,0.));
#495=DIRECTION('',(0.,0.,-1.));
#496=DIRECTION('',(-1.,0.,0.));
#497=DIRECTION('',(0.,0.,-1.));
#498=DIRECTION('',(-1.,0.,0.));
#499=DIRECTION('',(0.,0.,1.));
#500=DIRECTION('',(1.,0.,0.));
#501=DIRECTION('',(0.,0.,1.));
#502=DIRECTION('',(1.,0.,0.));
#503=DIRECTION('',(0.,0.,1.));
#504=DIRECTION('',(1.,0.,0.));
#505=DIRECTION('',(0.,0.,-1.));
#506=DIRECTION('',(-1.,0.,0.));
#507=DIRECTION('',(0.,0.,-1.));
#508=DIRECTION('',(-1.,0.,0.));
#509=DIRECTION('',(0.,0.,1.));
#510=DIRECTION('',(1.,0.,0.));
#511=DIRECTION('',(0.,0.,1.));
#512=DIRECTION('',(1.,0.,0.));
#513=DIRECTION('',(0.,0.,1.));
#514=DIRECTION('',(1.,0.,0.));
#515=DIRECTION('',(0.,0.,1.));
#516=DIRECTION('',(1.,0.,0.));
#517=CARTESIAN_POINT('',(0.,0.,0.));
#518=CARTESIAN_POINT('',(-0.00405519927843013,0.000691354976840398,0.003));
#519=CARTESIAN_POINT('',(-0.00405519927843013,0.000691354976840398,0.));
#520=CARTESIAN_POINT('',(-0.00245519927843013,0.000691354976840398,0.));
#521=CARTESIAN_POINT('',(-0.00405519927843013,0.000691354976840398,0.006));
#522=CARTESIAN_POINT('',(-0.00245519927843013,0.000691354976840398,0.006));
#523=CARTESIAN_POINT('',(-0.00405519927843013,0.000691354976840398,0.003));
#524=CARTESIAN_POINT('',(-0.00405519927843013,0.000691354976840398,0.003));
#525=CARTESIAN_POINT('',(-5.51992784301293E-5,0.000691354976840398,0.003));
#526=CARTESIAN_POINT('',(-0.00405519927843013,0.000691354976840398,0.));
#527=CARTESIAN_POINT('',(-5.51992784301293E-5,0.000691354976840398,0.));
#528=CARTESIAN_POINT('',(0.0259448007215699,-0.0143086450231596,0.));
#529=CARTESIAN_POINT('',(0.0559448007215699,0.000691354976840398,0.003));
#530=CARTESIAN_POINT('',(0.0559448007215699,0.000691354976840398,0.));
#531=CARTESIAN_POINT('',(0.0575448007215699,0.000691354976840398,0.));
#532=CARTESIAN_POINT('',(0.0559448007215699,0.000691354976840398,0.006));
#533=CARTESIAN_POINT('',(0.0575448007215699,0.000691354976840398,0.006));
#534=CARTESIAN_POINT('',(0.0559448007215699,0.000691354976840398,0.003));
#535=CARTESIAN_POINT('',(0.0559448007215699,0.000691354976840398,0.003));
#536=CARTESIAN_POINT('',(0.0599448007215699,0.000691354976840398,0.003));
#537=CARTESIAN_POINT('',(0.0559448007215699,0.000691354976840398,0.));
#538=CARTESIAN_POINT('',(0.0599448007215699,0.000691354976840398,0.));
#539=CARTESIAN_POINT('',(0.0259448007215699,-0.0143086450231596,0.));
#540=CARTESIAN_POINT('',(-0.0135551992784301,-0.008308645023161,0.006));
#541=CARTESIAN_POINT('',(-0.0135551992784301,-0.008308645023161,0.003));
#542=CARTESIAN_POINT('',(-0.0135551992784301,-0.035808645023161,0.003));
#543=CARTESIAN_POINT('',(-0.0135551992784301,0.019191354976839,0.003));
#544=CARTESIAN_POINT('',(-0.0135551992784301,-0.035808645023161,0.006));
#545=CARTESIAN_POINT('',(-0.0135551992784301,-0.035808645023161,0.006));
#546=CARTESIAN_POINT('',(-0.0135551992784301,-0.008308645023161,0.006));
#547=CARTESIAN_POINT('',(-0.0135551992784301,0.019191354976839,0.006));
#548=CARTESIAN_POINT('',(-0.0135551992784301,0.019191354976839,0.006));
#549=CARTESIAN_POINT('',(0.0239448007215699,-0.035808645023161,0.006));
#550=CARTESIAN_POINT('',(0.0239448007215699,-0.035808645023161,0.003));
#551=CARTESIAN_POINT('',(0.0614448007215699,-0.035808645023161,0.003));
#552=CARTESIAN_POINT('',(0.0614448007215699,-0.035808645023161,0.006));
#553=CARTESIAN_POINT('',(0.0614448007215699,-0.035808645023161,0.006));
#554=CARTESIAN_POINT('',(0.0239448007215699,-0.035808645023161,0.006));
#555=CARTESIAN_POINT('',(0.0614448007215699,-0.008308645023161,0.006));
#556=CARTESIAN_POINT('',(0.0614448007215699,-0.008308645023161,0.003));
#557=CARTESIAN_POINT('',(0.0614448007215699,0.019191354976839,0.003));
#558=CARTESIAN_POINT('',(0.0614448007215699,0.019191354976839,0.006));
#559=CARTESIAN_POINT('',(0.0614448007215699,0.019191354976839,0.006));
#560=CARTESIAN_POINT('',(0.0614448007215699,-0.008308645023161,0.006));
#561=CARTESIAN_POINT('',(0.0239448007215699,0.019191354976839,0.006));
#562=CARTESIAN_POINT('',(0.0239448007215699,0.019191354976839,0.003));
#563=CARTESIAN_POINT('',(0.0239448007215699,0.019191354976839,0.006));
#564=CARTESIAN_POINT('',(0.0239448007215699,-0.008308645023161,0.006));
#565=CARTESIAN_POINT('',(0.0559448007215699,-0.0293086450231596,0.006));
#566=CARTESIAN_POINT('',(0.0575448007215699,-0.0293086450231596,0.006));
#567=CARTESIAN_POINT('',(-0.00405519927843012,-0.0293086450231596,0.006));
#568=CARTESIAN_POINT('',(-0.00245519927843012,-0.0293086450231596,0.006));
#569=CARTESIAN_POINT('',(0.0394168007215724,-0.0278106450231616,0.006));
#570=CARTESIAN_POINT('',(0.0414168007215725,-0.0278106450231616,0.006));
#571=CARTESIAN_POINT('',(0.00944480072156987,0.012191354976839,0.006));
#572=CARTESIAN_POINT('',(0.0114448007215699,0.012191354976839,0.006));
#573=CARTESIAN_POINT('',(0.0394168007215724,-0.00381064502316164,0.006));
#574=CARTESIAN_POINT('',(0.0414168007215725,-0.00381064502316164,0.006));
#575=CARTESIAN_POINT('',(0.00944480072156987,-0.011808645023161,0.006));
#576=CARTESIAN_POINT('',(0.0114448007215699,-0.011808645023161,0.006));
#577=CARTESIAN_POINT('',(0.0239448007215699,-0.008308645023161,0.003));
#578=CARTESIAN_POINT('',(0.0394168007215724,-0.0278106450231616,0.003));
#579=CARTESIAN_POINT('',(0.0414168007215725,-0.0278106450231616,0.003));
#580=CARTESIAN_POINT('',(0.00944480072156987,0.012191354976839,0.003));
#581=CARTESIAN_POINT('',(0.0114448007215699,0.012191354976839,0.003));
#582=CARTESIAN_POINT('',(0.0394168007215724,-0.00381064502316164,0.003));
#583=CARTESIAN_POINT('',(0.0414168007215725,-0.00381064502316164,0.003));
#584=CARTESIAN_POINT('',(0.00944480072156987,-0.011808645023161,0.003));
#585=CARTESIAN_POINT('',(0.0114448007215699,-0.011808645023161,0.003));
#586=CARTESIAN_POINT('',(-0.00405519927843012,-0.0293086450231596,0.003));
#587=CARTESIAN_POINT('',(-5.51992784301241E-5,-0.0293086450231596,0.003));
#588=CARTESIAN_POINT('',(0.0559448007215699,-0.0293086450231596,0.003));
#589=CARTESIAN_POINT('',(0.0599448007215699,-0.0293086450231596,0.003));
#590=CARTESIAN_POINT('',(0.0259448007215699,-0.0143086450231596,0.));
#591=CARTESIAN_POINT('',(0.0559448007215699,-0.0293086450231596,0.));
#592=CARTESIAN_POINT('',(0.0575448007215699,-0.0293086450231596,0.));
#593=CARTESIAN_POINT('',(0.0559448007215699,-0.0293086450231596,0.));
#594=CARTESIAN_POINT('',(0.0599448007215699,-0.0293086450231596,0.));
#595=CARTESIAN_POINT('',(0.0559448007215699,-0.0293086450231596,0.003));
#596=CARTESIAN_POINT('',(0.0559448007215699,-0.0293086450231596,0.003));
#597=CARTESIAN_POINT('',(0.0259448007215699,-0.0143086450231596,0.));
#598=CARTESIAN_POINT('',(-0.00405519927843012,-0.0293086450231596,0.));
#599=CARTESIAN_POINT('',(-0.00245519927843012,-0.0293086450231596,0.));
#600=CARTESIAN_POINT('',(-0.00405519927843012,-0.0293086450231596,0.));
#601=CARTESIAN_POINT('',(-5.51992784301241E-5,-0.0293086450231596,0.));
#602=CARTESIAN_POINT('',(-0.00405519927843012,-0.0293086450231596,0.003));
#603=CARTESIAN_POINT('',(-0.00405519927843012,-0.0293086450231596,0.003));
#604=CARTESIAN_POINT('',(0.00944480072156987,-0.011808645023161,0.002998));
#605=CARTESIAN_POINT('',(0.0394168007215724,-0.00381064502316164,0.002998));
#606=CARTESIAN_POINT('',(0.00944480072156987,0.012191354976839,0.002998));
#607=CARTESIAN_POINT('',(0.0394168007215724,-0.0278106450231616,0.002998));
#608=MECHANICAL_DESIGN_GEOMETRIC_PRESENTATION_REPRESENTATION('',(#353),
#609);
#609=(
GEOMETRIC_REPRESENTATION_CONTEXT(3)
GLOBAL_UNCERTAINTY_ASSIGNED_CONTEXT((#610))
GLOBAL_UNIT_ASSIGNED_CONTEXT((#613,#612,#611))
REPRESENTATION_CONTEXT('Part 1','TOP_LEVEL_ASSEMBLY_PART')
);
#610=UNCERTAINTY_MEASURE_WITH_UNIT(LENGTH_MEASURE(1.E-8),#613,
'DISTANCE_ACCURACY_VALUE','Maximum Tolerance applied to model');
#611=(
NAMED_UNIT(*)
SI_UNIT($,.STERADIAN.)
SOLID_ANGLE_UNIT()
);
#612=(
NAMED_UNIT(*)
PLANE_ANGLE_UNIT()
SI_UNIT($,.RADIAN.)
);
#613=(
LENGTH_UNIT()
NAMED_UNIT(*)
SI_UNIT($,.METRE.)
);
#614=PRODUCT_DEFINITION_SHAPE('','',#615);
#615=PRODUCT_DEFINITION('','',#617,#616);
#616=PRODUCT_DEFINITION_CONTEXT('',#623,'design');
#617=PRODUCT_DEFINITION_FORMATION_WITH_SPECIFIED_SOURCE('','',#619,
 .NOT_KNOWN.);
#618=PRODUCT_RELATED_PRODUCT_CATEGORY('','',(#619));
#619=PRODUCT('Part 1','Part 1','Part 1',(#621));
#620=PRODUCT_CATEGORY('','');
#621=PRODUCT_CONTEXT('',#623,'mechanical');
#622=APPLICATION_PROTOCOL_DEFINITION('international standard',
'ap242_managed_model_based_3d_engineering',2020,#623);
#623=APPLICATION_CONTEXT('managed model based 3d engineering');
ENDSEC;
END-ISO-10303-21;
